<?xml version="1.0" encoding="utf-8" standalone="no"?>
<!DOCTYPE svg PUBLIC "-//W3C//DTD SVG 1.1//EN"
  "http://www.w3.org/Graphics/SVG/1.1/DTD/svg11.dtd">
<svg xmlns:xlink="http://www.w3.org/1999/xlink" width="559.54375pt" height="211.140314pt" viewBox="0 0 559.54375 211.140314" xmlns="http://www.w3.org/2000/svg" version="1.1">
 <metadata>
  <rdf:RDF xmlns:dc="http://purl.org/dc/elements/1.1/" xmlns:cc="http://creativecommons.org/ns#" xmlns:rdf="http://www.w3.org/1999/02/22-rdf-syntax-ns#">
   <cc:Work>
    <dc:type rdf:resource="http://purl.org/dc/dcmitype/StillImage"/>
    <dc:date>2025-07-11T19:04:52.678852</dc:date>
    <dc:format>image/svg+xml</dc:format>
    <dc:creator>
     <cc:Agent>
      <dc:title>Matplotlib v3.6.3, https://matplotlib.org/</dc:title>
     </cc:Agent>
    </dc:creator>
   </cc:Work>
  </rdf:RDF>
 </metadata>
 <defs>
  <style type="text/css">*{stroke-linejoin: round; stroke-linecap: butt}</style>
 </defs>
 <g id="figure_1">
  <g id="patch_1">
   <path d="M 0 211.140314 
L 559.54375 211.140314 
L 559.54375 0 
L 0 0 
z
" style="fill: #ffffff"/>
  </g>
  <g id="axes_1">
   <g id="patch_2">
    <path d="M 50.14375 173.584064 
L 552.34375 173.584064 
L 552.34375 7.264064 
L 50.14375 7.264064 
z
" style="fill: #ffffff"/>
   </g>
   <g id="matplotlib.axis_1">
    <g id="xtick_1">
     <g id="line2d_1">
      <defs>
       <path id="m44a68e929f" d="M 0 0 
L 0 3.5 
" style="stroke: #000000; stroke-width: 0.8"/>
      </defs>
      <g>
       <use xlink:href="#m44a68e929f" x="72.971023" y="173.584064" style="stroke: #000000; stroke-width: 0.8"/>
      </g>
     </g>
     <g id="text_1">
      <!-- 0 -->
      <g transform="translate(69.789773 188.182502) scale(0.1 -0.1)">
       <defs>
        <path id="DejaVuSans-30" d="M 2034 4250 
Q 1547 4250 1301 3770 
Q 1056 3291 1056 2328 
Q 1056 1369 1301 889 
Q 1547 409 2034 409 
Q 2525 409 2770 889 
Q 3016 1369 3016 2328 
Q 3016 3291 2770 3770 
Q 2525 4250 2034 4250 
z
M 2034 4750 
Q 2819 4750 3233 4129 
Q 3647 3509 3647 2328 
Q 3647 1150 3233 529 
Q 2819 -91 2034 -91 
Q 1250 -91 836 529 
Q 422 1150 422 2328 
Q 422 3509 836 4129 
Q 1250 4750 2034 4750 
z
" transform="scale(0.015625)"/>
       </defs>
       <use xlink:href="#DejaVuSans-30"/>
      </g>
     </g>
    </g>
    <g id="xtick_2">
     <g id="line2d_2">
      <g>
       <use xlink:href="#m44a68e929f" x="149.316416" y="173.584064" style="stroke: #000000; stroke-width: 0.8"/>
      </g>
     </g>
     <g id="text_2">
      <!-- 50 -->
      <g transform="translate(142.953916 188.182502) scale(0.1 -0.1)">
       <defs>
        <path id="DejaVuSans-35" d="M 691 4666 
L 3169 4666 
L 3169 4134 
L 1269 4134 
L 1269 2991 
Q 1406 3038 1543 3061 
Q 1681 3084 1819 3084 
Q 2600 3084 3056 2656 
Q 3513 2228 3513 1497 
Q 3513 744 3044 326 
Q 2575 -91 1722 -91 
Q 1428 -91 1123 -41 
Q 819 9 494 109 
L 494 744 
Q 775 591 1075 516 
Q 1375 441 1709 441 
Q 2250 441 2565 725 
Q 2881 1009 2881 1497 
Q 2881 1984 2565 2268 
Q 2250 2553 1709 2553 
Q 1456 2553 1204 2497 
Q 953 2441 691 2322 
L 691 4666 
z
" transform="scale(0.015625)"/>
       </defs>
       <use xlink:href="#DejaVuSans-35"/>
       <use xlink:href="#DejaVuSans-30" x="63.623047"/>
      </g>
     </g>
    </g>
    <g id="xtick_3">
     <g id="line2d_3">
      <g>
       <use xlink:href="#m44a68e929f" x="225.66181" y="173.584064" style="stroke: #000000; stroke-width: 0.8"/>
      </g>
     </g>
     <g id="text_3">
      <!-- 100 -->
      <g transform="translate(216.11806 188.182502) scale(0.1 -0.1)">
       <defs>
        <path id="DejaVuSans-31" d="M 794 531 
L 1825 531 
L 1825 4091 
L 703 3866 
L 703 4441 
L 1819 4666 
L 2450 4666 
L 2450 531 
L 3481 531 
L 3481 0 
L 794 0 
L 794 531 
z
" transform="scale(0.015625)"/>
       </defs>
       <use xlink:href="#DejaVuSans-31"/>
       <use xlink:href="#DejaVuSans-30" x="63.623047"/>
       <use xlink:href="#DejaVuSans-30" x="127.246094"/>
      </g>
     </g>
    </g>
    <g id="xtick_4">
     <g id="line2d_4">
      <g>
       <use xlink:href="#m44a68e929f" x="302.007204" y="173.584064" style="stroke: #000000; stroke-width: 0.8"/>
      </g>
     </g>
     <g id="text_4">
      <!-- 150 -->
      <g transform="translate(292.463454 188.182502) scale(0.1 -0.1)">
       <use xlink:href="#DejaVuSans-31"/>
       <use xlink:href="#DejaVuSans-35" x="63.623047"/>
       <use xlink:href="#DejaVuSans-30" x="127.246094"/>
      </g>
     </g>
    </g>
    <g id="xtick_5">
     <g id="line2d_5">
      <g>
       <use xlink:href="#m44a68e929f" x="378.352598" y="173.584064" style="stroke: #000000; stroke-width: 0.8"/>
      </g>
     </g>
     <g id="text_5">
      <!-- 200 -->
      <g transform="translate(368.808848 188.182502) scale(0.1 -0.1)">
       <defs>
        <path id="DejaVuSans-32" d="M 1228 531 
L 3431 531 
L 3431 0 
L 469 0 
L 469 531 
Q 828 903 1448 1529 
Q 2069 2156 2228 2338 
Q 2531 2678 2651 2914 
Q 2772 3150 2772 3378 
Q 2772 3750 2511 3984 
Q 2250 4219 1831 4219 
Q 1534 4219 1204 4116 
Q 875 4013 500 3803 
L 500 4441 
Q 881 4594 1212 4672 
Q 1544 4750 1819 4750 
Q 2544 4750 2975 4387 
Q 3406 4025 3406 3419 
Q 3406 3131 3298 2873 
Q 3191 2616 2906 2266 
Q 2828 2175 2409 1742 
Q 1991 1309 1228 531 
z
" transform="scale(0.015625)"/>
       </defs>
       <use xlink:href="#DejaVuSans-32"/>
       <use xlink:href="#DejaVuSans-30" x="63.623047"/>
       <use xlink:href="#DejaVuSans-30" x="127.246094"/>
      </g>
     </g>
    </g>
    <g id="xtick_6">
     <g id="line2d_6">
      <g>
       <use xlink:href="#m44a68e929f" x="454.697991" y="173.584064" style="stroke: #000000; stroke-width: 0.8"/>
      </g>
     </g>
     <g id="text_6">
      <!-- 250 -->
      <g transform="translate(445.154241 188.182502) scale(0.1 -0.1)">
       <use xlink:href="#DejaVuSans-32"/>
       <use xlink:href="#DejaVuSans-35" x="63.623047"/>
       <use xlink:href="#DejaVuSans-30" x="127.246094"/>
      </g>
     </g>
    </g>
    <g id="xtick_7">
     <g id="line2d_7">
      <g>
       <use xlink:href="#m44a68e929f" x="531.043385" y="173.584064" style="stroke: #000000; stroke-width: 0.8"/>
      </g>
     </g>
     <g id="text_7">
      <!-- 300 -->
      <g transform="translate(521.499635 188.182502) scale(0.1 -0.1)">
       <defs>
        <path id="DejaVuSans-33" d="M 2597 2516 
Q 3050 2419 3304 2112 
Q 3559 1806 3559 1356 
Q 3559 666 3084 287 
Q 2609 -91 1734 -91 
Q 1441 -91 1130 -33 
Q 819 25 488 141 
L 488 750 
Q 750 597 1062 519 
Q 1375 441 1716 441 
Q 2309 441 2620 675 
Q 2931 909 2931 1356 
Q 2931 1769 2642 2001 
Q 2353 2234 1838 2234 
L 1294 2234 
L 1294 2753 
L 1863 2753 
Q 2328 2753 2575 2939 
Q 2822 3125 2822 3475 
Q 2822 3834 2567 4026 
Q 2313 4219 1838 4219 
Q 1578 4219 1281 4162 
Q 984 4106 628 3988 
L 628 4550 
Q 988 4650 1302 4700 
Q 1616 4750 1894 4750 
Q 2613 4750 3031 4423 
Q 3450 4097 3450 3541 
Q 3450 3153 3228 2886 
Q 3006 2619 2597 2516 
z
" transform="scale(0.015625)"/>
       </defs>
       <use xlink:href="#DejaVuSans-33"/>
       <use xlink:href="#DejaVuSans-30" x="63.623047"/>
       <use xlink:href="#DejaVuSans-30" x="127.246094"/>
      </g>
     </g>
    </g>
    <g id="text_8">
     <!-- time (days) -->
     <g transform="translate(272.654687 201.860627) scale(0.1 -0.1)">
      <defs>
       <path id="DejaVuSans-74" d="M 1172 4494 
L 1172 3500 
L 2356 3500 
L 2356 3053 
L 1172 3053 
L 1172 1153 
Q 1172 725 1289 603 
Q 1406 481 1766 481 
L 2356 481 
L 2356 0 
L 1766 0 
Q 1100 0 847 248 
Q 594 497 594 1153 
L 594 3053 
L 172 3053 
L 172 3500 
L 594 3500 
L 594 4494 
L 1172 4494 
z
" transform="scale(0.015625)"/>
       <path id="DejaVuSans-69" d="M 603 3500 
L 1178 3500 
L 1178 0 
L 603 0 
L 603 3500 
z
M 603 4863 
L 1178 4863 
L 1178 4134 
L 603 4134 
L 603 4863 
z
" transform="scale(0.015625)"/>
       <path id="DejaVuSans-6d" d="M 3328 2828 
Q 3544 3216 3844 3400 
Q 4144 3584 4550 3584 
Q 5097 3584 5394 3201 
Q 5691 2819 5691 2113 
L 5691 0 
L 5113 0 
L 5113 2094 
Q 5113 2597 4934 2840 
Q 4756 3084 4391 3084 
Q 3944 3084 3684 2787 
Q 3425 2491 3425 1978 
L 3425 0 
L 2847 0 
L 2847 2094 
Q 2847 2600 2669 2842 
Q 2491 3084 2119 3084 
Q 1678 3084 1418 2786 
Q 1159 2488 1159 1978 
L 1159 0 
L 581 0 
L 581 3500 
L 1159 3500 
L 1159 2956 
Q 1356 3278 1631 3431 
Q 1906 3584 2284 3584 
Q 2666 3584 2933 3390 
Q 3200 3197 3328 2828 
z
" transform="scale(0.015625)"/>
       <path id="DejaVuSans-65" d="M 3597 1894 
L 3597 1613 
L 953 1613 
Q 991 1019 1311 708 
Q 1631 397 2203 397 
Q 2534 397 2845 478 
Q 3156 559 3463 722 
L 3463 178 
Q 3153 47 2828 -22 
Q 2503 -91 2169 -91 
Q 1331 -91 842 396 
Q 353 884 353 1716 
Q 353 2575 817 3079 
Q 1281 3584 2069 3584 
Q 2775 3584 3186 3129 
Q 3597 2675 3597 1894 
z
M 3022 2063 
Q 3016 2534 2758 2815 
Q 2500 3097 2075 3097 
Q 1594 3097 1305 2825 
Q 1016 2553 972 2059 
L 3022 2063 
z
" transform="scale(0.015625)"/>
       <path id="DejaVuSans-20" transform="scale(0.015625)"/>
       <path id="DejaVuSans-28" d="M 1984 4856 
Q 1566 4138 1362 3434 
Q 1159 2731 1159 2009 
Q 1159 1288 1364 580 
Q 1569 -128 1984 -844 
L 1484 -844 
Q 1016 -109 783 600 
Q 550 1309 550 2009 
Q 550 2706 781 3412 
Q 1013 4119 1484 4856 
L 1984 4856 
z
" transform="scale(0.015625)"/>
       <path id="DejaVuSans-64" d="M 2906 2969 
L 2906 4863 
L 3481 4863 
L 3481 0 
L 2906 0 
L 2906 525 
Q 2725 213 2448 61 
Q 2172 -91 1784 -91 
Q 1150 -91 751 415 
Q 353 922 353 1747 
Q 353 2572 751 3078 
Q 1150 3584 1784 3584 
Q 2172 3584 2448 3432 
Q 2725 3281 2906 2969 
z
M 947 1747 
Q 947 1113 1208 752 
Q 1469 391 1925 391 
Q 2381 391 2643 752 
Q 2906 1113 2906 1747 
Q 2906 2381 2643 2742 
Q 2381 3103 1925 3103 
Q 1469 3103 1208 2742 
Q 947 2381 947 1747 
z
" transform="scale(0.015625)"/>
       <path id="DejaVuSans-61" d="M 2194 1759 
Q 1497 1759 1228 1600 
Q 959 1441 959 1056 
Q 959 750 1161 570 
Q 1363 391 1709 391 
Q 2188 391 2477 730 
Q 2766 1069 2766 1631 
L 2766 1759 
L 2194 1759 
z
M 3341 1997 
L 3341 0 
L 2766 0 
L 2766 531 
Q 2569 213 2275 61 
Q 1981 -91 1556 -91 
Q 1019 -91 701 211 
Q 384 513 384 1019 
Q 384 1609 779 1909 
Q 1175 2209 1959 2209 
L 2766 2209 
L 2766 2266 
Q 2766 2663 2505 2880 
Q 2244 3097 1772 3097 
Q 1472 3097 1187 3025 
Q 903 2953 641 2809 
L 641 3341 
Q 956 3463 1253 3523 
Q 1550 3584 1831 3584 
Q 2591 3584 2966 3190 
Q 3341 2797 3341 1997 
z
" transform="scale(0.015625)"/>
       <path id="DejaVuSans-79" d="M 2059 -325 
Q 1816 -950 1584 -1140 
Q 1353 -1331 966 -1331 
L 506 -1331 
L 506 -850 
L 844 -850 
Q 1081 -850 1212 -737 
Q 1344 -625 1503 -206 
L 1606 56 
L 191 3500 
L 800 3500 
L 1894 763 
L 2988 3500 
L 3597 3500 
L 2059 -325 
z
" transform="scale(0.015625)"/>
       <path id="DejaVuSans-73" d="M 2834 3397 
L 2834 2853 
Q 2591 2978 2328 3040 
Q 2066 3103 1784 3103 
Q 1356 3103 1142 2972 
Q 928 2841 928 2578 
Q 928 2378 1081 2264 
Q 1234 2150 1697 2047 
L 1894 2003 
Q 2506 1872 2764 1633 
Q 3022 1394 3022 966 
Q 3022 478 2636 193 
Q 2250 -91 1575 -91 
Q 1294 -91 989 -36 
Q 684 19 347 128 
L 347 722 
Q 666 556 975 473 
Q 1284 391 1588 391 
Q 1994 391 2212 530 
Q 2431 669 2431 922 
Q 2431 1156 2273 1281 
Q 2116 1406 1581 1522 
L 1381 1569 
Q 847 1681 609 1914 
Q 372 2147 372 2553 
Q 372 3047 722 3315 
Q 1072 3584 1716 3584 
Q 2034 3584 2315 3537 
Q 2597 3491 2834 3397 
z
" transform="scale(0.015625)"/>
       <path id="DejaVuSans-29" d="M 513 4856 
L 1013 4856 
Q 1481 4119 1714 3412 
Q 1947 2706 1947 2009 
Q 1947 1309 1714 600 
Q 1481 -109 1013 -844 
L 513 -844 
Q 928 -128 1133 580 
Q 1338 1288 1338 2009 
Q 1338 2731 1133 3434 
Q 928 4138 513 4856 
z
" transform="scale(0.015625)"/>
      </defs>
      <use xlink:href="#DejaVuSans-74"/>
      <use xlink:href="#DejaVuSans-69" x="39.208984"/>
      <use xlink:href="#DejaVuSans-6d" x="66.992188"/>
      <use xlink:href="#DejaVuSans-65" x="164.404297"/>
      <use xlink:href="#DejaVuSans-20" x="225.927734"/>
      <use xlink:href="#DejaVuSans-28" x="257.714844"/>
      <use xlink:href="#DejaVuSans-64" x="296.728516"/>
      <use xlink:href="#DejaVuSans-61" x="360.205078"/>
      <use xlink:href="#DejaVuSans-79" x="421.484375"/>
      <use xlink:href="#DejaVuSans-73" x="480.664062"/>
      <use xlink:href="#DejaVuSans-29" x="532.763672"/>
     </g>
    </g>
   </g>
   <g id="matplotlib.axis_2">
    <g id="ytick_1">
     <g id="line2d_8">
      <defs>
       <path id="m2be409bf62" d="M 0 0 
L -3.5 0 
" style="stroke: #000000; stroke-width: 0.8"/>
      </defs>
      <g>
       <use xlink:href="#m2be409bf62" x="50.14375" y="166.029232" style="stroke: #000000; stroke-width: 0.8"/>
      </g>
     </g>
     <g id="text_9">
      <!-- 0.00 -->
      <g transform="translate(20.878125 169.828451) scale(0.1 -0.1)">
       <defs>
        <path id="DejaVuSans-2e" d="M 684 794 
L 1344 794 
L 1344 0 
L 684 0 
L 684 794 
z
" transform="scale(0.015625)"/>
       </defs>
       <use xlink:href="#DejaVuSans-30"/>
       <use xlink:href="#DejaVuSans-2e" x="63.623047"/>
       <use xlink:href="#DejaVuSans-30" x="95.410156"/>
       <use xlink:href="#DejaVuSans-30" x="159.033203"/>
      </g>
     </g>
    </g>
    <g id="ytick_2">
     <g id="line2d_9">
      <g>
       <use xlink:href="#m2be409bf62" x="50.14375" y="140.190896" style="stroke: #000000; stroke-width: 0.8"/>
      </g>
     </g>
     <g id="text_10">
      <!-- 0.05 -->
      <g transform="translate(20.878125 143.990115) scale(0.1 -0.1)">
       <use xlink:href="#DejaVuSans-30"/>
       <use xlink:href="#DejaVuSans-2e" x="63.623047"/>
       <use xlink:href="#DejaVuSans-30" x="95.410156"/>
       <use xlink:href="#DejaVuSans-35" x="159.033203"/>
      </g>
     </g>
    </g>
    <g id="ytick_3">
     <g id="line2d_10">
      <g>
       <use xlink:href="#m2be409bf62" x="50.14375" y="114.352561" style="stroke: #000000; stroke-width: 0.8"/>
      </g>
     </g>
     <g id="text_11">
      <!-- 0.10 -->
      <g transform="translate(20.878125 118.15178) scale(0.1 -0.1)">
       <use xlink:href="#DejaVuSans-30"/>
       <use xlink:href="#DejaVuSans-2e" x="63.623047"/>
       <use xlink:href="#DejaVuSans-31" x="95.410156"/>
       <use xlink:href="#DejaVuSans-30" x="159.033203"/>
      </g>
     </g>
    </g>
    <g id="ytick_4">
     <g id="line2d_11">
      <g>
       <use xlink:href="#m2be409bf62" x="50.14375" y="88.514225" style="stroke: #000000; stroke-width: 0.8"/>
      </g>
     </g>
     <g id="text_12">
      <!-- 0.15 -->
      <g transform="translate(20.878125 92.313444) scale(0.1 -0.1)">
       <use xlink:href="#DejaVuSans-30"/>
       <use xlink:href="#DejaVuSans-2e" x="63.623047"/>
       <use xlink:href="#DejaVuSans-31" x="95.410156"/>
       <use xlink:href="#DejaVuSans-35" x="159.033203"/>
      </g>
     </g>
    </g>
    <g id="ytick_5">
     <g id="line2d_12">
      <g>
       <use xlink:href="#m2be409bf62" x="50.14375" y="62.67589" style="stroke: #000000; stroke-width: 0.8"/>
      </g>
     </g>
     <g id="text_13">
      <!-- 0.20 -->
      <g transform="translate(20.878125 66.475109) scale(0.1 -0.1)">
       <use xlink:href="#DejaVuSans-30"/>
       <use xlink:href="#DejaVuSans-2e" x="63.623047"/>
       <use xlink:href="#DejaVuSans-32" x="95.410156"/>
       <use xlink:href="#DejaVuSans-30" x="159.033203"/>
      </g>
     </g>
    </g>
    <g id="ytick_6">
     <g id="line2d_13">
      <g>
       <use xlink:href="#m2be409bf62" x="50.14375" y="36.837554" style="stroke: #000000; stroke-width: 0.8"/>
      </g>
     </g>
     <g id="text_14">
      <!-- 0.25 -->
      <g transform="translate(20.878125 40.636773) scale(0.1 -0.1)">
       <use xlink:href="#DejaVuSans-30"/>
       <use xlink:href="#DejaVuSans-2e" x="63.623047"/>
       <use xlink:href="#DejaVuSans-32" x="95.410156"/>
       <use xlink:href="#DejaVuSans-35" x="159.033203"/>
      </g>
     </g>
    </g>
    <g id="ytick_7">
     <g id="line2d_14">
      <g>
       <use xlink:href="#m2be409bf62" x="50.14375" y="10.999219" style="stroke: #000000; stroke-width: 0.8"/>
      </g>
     </g>
     <g id="text_15">
      <!-- 0.30 -->
      <g transform="translate(20.878125 14.798438) scale(0.1 -0.1)">
       <use xlink:href="#DejaVuSans-30"/>
       <use xlink:href="#DejaVuSans-2e" x="63.623047"/>
       <use xlink:href="#DejaVuSans-33" x="95.410156"/>
       <use xlink:href="#DejaVuSans-30" x="159.033203"/>
      </g>
     </g>
    </g>
    <g id="text_16">
     <!-- Proportion of Population -->
     <g transform="translate(14.798438 150.484221) rotate(-90) scale(0.1 -0.1)">
      <defs>
       <path id="DejaVuSans-50" d="M 1259 4147 
L 1259 2394 
L 2053 2394 
Q 2494 2394 2734 2622 
Q 2975 2850 2975 3272 
Q 2975 3691 2734 3919 
Q 2494 4147 2053 4147 
L 1259 4147 
z
M 628 4666 
L 2053 4666 
Q 2838 4666 3239 4311 
Q 3641 3956 3641 3272 
Q 3641 2581 3239 2228 
Q 2838 1875 2053 1875 
L 1259 1875 
L 1259 0 
L 628 0 
L 628 4666 
z
" transform="scale(0.015625)"/>
       <path id="DejaVuSans-72" d="M 2631 2963 
Q 2534 3019 2420 3045 
Q 2306 3072 2169 3072 
Q 1681 3072 1420 2755 
Q 1159 2438 1159 1844 
L 1159 0 
L 581 0 
L 581 3500 
L 1159 3500 
L 1159 2956 
Q 1341 3275 1631 3429 
Q 1922 3584 2338 3584 
Q 2397 3584 2469 3576 
Q 2541 3569 2628 3553 
L 2631 2963 
z
" transform="scale(0.015625)"/>
       <path id="DejaVuSans-6f" d="M 1959 3097 
Q 1497 3097 1228 2736 
Q 959 2375 959 1747 
Q 959 1119 1226 758 
Q 1494 397 1959 397 
Q 2419 397 2687 759 
Q 2956 1122 2956 1747 
Q 2956 2369 2687 2733 
Q 2419 3097 1959 3097 
z
M 1959 3584 
Q 2709 3584 3137 3096 
Q 3566 2609 3566 1747 
Q 3566 888 3137 398 
Q 2709 -91 1959 -91 
Q 1206 -91 779 398 
Q 353 888 353 1747 
Q 353 2609 779 3096 
Q 1206 3584 1959 3584 
z
" transform="scale(0.015625)"/>
       <path id="DejaVuSans-70" d="M 1159 525 
L 1159 -1331 
L 581 -1331 
L 581 3500 
L 1159 3500 
L 1159 2969 
Q 1341 3281 1617 3432 
Q 1894 3584 2278 3584 
Q 2916 3584 3314 3078 
Q 3713 2572 3713 1747 
Q 3713 922 3314 415 
Q 2916 -91 2278 -91 
Q 1894 -91 1617 61 
Q 1341 213 1159 525 
z
M 3116 1747 
Q 3116 2381 2855 2742 
Q 2594 3103 2138 3103 
Q 1681 3103 1420 2742 
Q 1159 2381 1159 1747 
Q 1159 1113 1420 752 
Q 1681 391 2138 391 
Q 2594 391 2855 752 
Q 3116 1113 3116 1747 
z
" transform="scale(0.015625)"/>
       <path id="DejaVuSans-6e" d="M 3513 2113 
L 3513 0 
L 2938 0 
L 2938 2094 
Q 2938 2591 2744 2837 
Q 2550 3084 2163 3084 
Q 1697 3084 1428 2787 
Q 1159 2491 1159 1978 
L 1159 0 
L 581 0 
L 581 3500 
L 1159 3500 
L 1159 2956 
Q 1366 3272 1645 3428 
Q 1925 3584 2291 3584 
Q 2894 3584 3203 3211 
Q 3513 2838 3513 2113 
z
" transform="scale(0.015625)"/>
       <path id="DejaVuSans-66" d="M 2375 4863 
L 2375 4384 
L 1825 4384 
Q 1516 4384 1395 4259 
Q 1275 4134 1275 3809 
L 1275 3500 
L 2222 3500 
L 2222 3053 
L 1275 3053 
L 1275 0 
L 697 0 
L 697 3053 
L 147 3053 
L 147 3500 
L 697 3500 
L 697 3744 
Q 697 4328 969 4595 
Q 1241 4863 1831 4863 
L 2375 4863 
z
" transform="scale(0.015625)"/>
       <path id="DejaVuSans-75" d="M 544 1381 
L 544 3500 
L 1119 3500 
L 1119 1403 
Q 1119 906 1312 657 
Q 1506 409 1894 409 
Q 2359 409 2629 706 
Q 2900 1003 2900 1516 
L 2900 3500 
L 3475 3500 
L 3475 0 
L 2900 0 
L 2900 538 
Q 2691 219 2414 64 
Q 2138 -91 1772 -91 
Q 1169 -91 856 284 
Q 544 659 544 1381 
z
M 1991 3584 
L 1991 3584 
z
" transform="scale(0.015625)"/>
       <path id="DejaVuSans-6c" d="M 603 4863 
L 1178 4863 
L 1178 0 
L 603 0 
L 603 4863 
z
" transform="scale(0.015625)"/>
      </defs>
      <use xlink:href="#DejaVuSans-50"/>
      <use xlink:href="#DejaVuSans-72" x="58.552734"/>
      <use xlink:href="#DejaVuSans-6f" x="97.416016"/>
      <use xlink:href="#DejaVuSans-70" x="158.597656"/>
      <use xlink:href="#DejaVuSans-6f" x="222.074219"/>
      <use xlink:href="#DejaVuSans-72" x="283.255859"/>
      <use xlink:href="#DejaVuSans-74" x="324.369141"/>
      <use xlink:href="#DejaVuSans-69" x="363.578125"/>
      <use xlink:href="#DejaVuSans-6f" x="391.361328"/>
      <use xlink:href="#DejaVuSans-6e" x="452.542969"/>
      <use xlink:href="#DejaVuSans-20" x="515.921875"/>
      <use xlink:href="#DejaVuSans-6f" x="547.708984"/>
      <use xlink:href="#DejaVuSans-66" x="608.890625"/>
      <use xlink:href="#DejaVuSans-20" x="644.095703"/>
      <use xlink:href="#DejaVuSans-50" x="675.882812"/>
      <use xlink:href="#DejaVuSans-6f" x="732.560547"/>
      <use xlink:href="#DejaVuSans-70" x="793.742188"/>
      <use xlink:href="#DejaVuSans-75" x="857.21875"/>
      <use xlink:href="#DejaVuSans-6c" x="920.597656"/>
      <use xlink:href="#DejaVuSans-61" x="948.380859"/>
      <use xlink:href="#DejaVuSans-74" x="1009.660156"/>
      <use xlink:href="#DejaVuSans-69" x="1048.869141"/>
      <use xlink:href="#DejaVuSans-6f" x="1076.652344"/>
      <use xlink:href="#DejaVuSans-6e" x="1137.833984"/>
     </g>
    </g>
   </g>
   <g id="line2d_15">
    <path d="M 72.971023 166.024064 
L 114.197535 165.901658 
L 126.412798 165.715704 
L 134.047338 165.441195 
L 141.681877 164.919172 
L 146.262601 164.504231 
L 153.89714 163.239769 
L 160.004772 161.92257 
L 163.058587 160.6804 
L 164.585495 159.753278 
L 166.112403 159.041123 
L 169.166219 157.846545 
L 170.693127 156.714323 
L 172.220035 155.749443 
L 173.746942 154.459199 
L 175.27385 153.554982 
L 176.800758 151.569883 
L 179.854574 149.511216 
L 181.381482 148.135325 
L 182.90839 145.447689 
L 184.435298 142.14789 
L 185.962205 139.754937 
L 187.489113 136.223759 
L 189.016021 133.878484 
L 190.542929 131.123788 
L 192.069837 129.122341 
L 193.596745 126.80231 
L 195.123653 121.104352 
L 196.650561 116.713079 
L 198.177468 112.831009 
L 199.704376 109.633837 
L 201.231284 104.517897 
L 202.758192 97.563391 
L 204.2851 89.278594 
L 205.812008 83.537408 
L 207.338916 73.546232 
L 208.865824 70.789988 
L 210.392731 68.432322 
L 211.919639 60.151929 
L 213.446547 50.048688 
L 216.500363 33.634795 
L 218.027271 34.164514 
L 219.554179 25.79212 
L 221.081087 23.459094 
L 224.134902 29.775102 
L 225.66181 21.889076 
L 227.188718 14.824064 
L 228.715626 20.342334 
L 230.242534 20.648415 
L 231.769442 24.789161 
L 233.29635 31.204376 
L 234.823257 35.79497 
L 236.350165 43.541262 
L 237.877073 45.198095 
L 239.403981 48.4961 
L 240.930889 52.648035 
L 242.457797 59.21896 
L 243.984705 57.161894 
L 245.511613 57.128414 
L 247.03852 56.423778 
L 248.565428 55.480664 
L 250.092336 57.836653 
L 251.619244 61.738134 
L 253.146152 63.250462 
L 254.67306 71.156516 
L 256.199968 73.762334 
L 257.726876 79.833117 
L 259.253783 84.459173 
L 260.780691 88.280138 
L 262.307599 91.597309 
L 263.834507 91.735358 
L 265.361415 91.361188 
L 266.888323 96.36963 
L 269.942139 95.949076 
L 271.469046 101.329533 
L 272.995954 106.106653 
L 274.522862 109.104694 
L 276.04977 108.988516 
L 277.576678 110.415514 
L 279.103586 112.858476 
L 280.630494 115.556086 
L 282.157402 119.280129 
L 283.684309 121.823309 
L 285.211217 121.770027 
L 286.738125 121.84376 
L 288.265033 120.793913 
L 289.791941 121.034166 
L 291.318849 123.77534 
L 292.845757 125.050036 
L 294.372665 125.531111 
L 295.899572 126.682413 
L 297.42648 129.030225 
L 298.953388 129.905617 
L 300.480296 132.125117 
L 302.007204 133.249764 
L 303.534112 133.343818 
L 305.06102 132.403775 
L 306.587928 131.772359 
L 308.114835 130.585241 
L 309.641743 132.595789 
L 315.749375 137.538766 
L 317.276283 137.247802 
L 318.803191 137.81958 
L 320.330098 136.909671 
L 321.857006 136.861203 
L 323.383914 137.546487 
L 324.910822 136.877699 
L 326.43773 137.00531 
L 327.964638 135.981691 
L 329.491546 137.377741 
L 331.018454 136.446024 
L 332.545361 137.573558 
L 334.072269 136.393684 
L 335.599177 136.363941 
L 337.126085 136.889204 
L 338.652993 137.906225 
L 340.179901 138.610237 
L 341.706809 138.832087 
L 343.233717 138.310065 
L 346.287532 140.56892 
L 347.81444 139.353949 
L 349.341348 139.335854 
L 350.868256 138.622863 
L 352.395164 139.357673 
L 353.922072 140.30129 
L 355.44898 139.958247 
L 358.502795 138.903921 
L 360.029703 137.965941 
L 361.556611 137.664343 
L 364.610427 136.598894 
L 366.137335 135.370691 
L 367.664243 134.748842 
L 369.19115 133.768067 
L 370.718058 132.496147 
L 372.244966 132.941686 
L 373.771874 131.720628 
L 375.298782 131.379415 
L 376.82569 131.414181 
L 378.352598 131.619324 
L 379.879506 132.028716 
L 381.406413 130.113381 
L 382.933321 130.020969 
L 384.460229 130.699991 
L 385.987137 130.388893 
L 387.514045 131.628237 
L 389.040953 132.562089 
L 390.567861 131.629164 
L 392.094769 132.243603 
L 393.621676 131.954205 
L 395.148584 130.848549 
L 396.675492 129.99897 
L 398.2024 128.419443 
L 399.729308 128.842147 
L 401.256216 126.76344 
L 402.783124 126.559693 
L 404.310032 125.927918 
L 405.836939 126.746686 
L 407.363847 127.701545 
L 408.890755 125.481206 
L 410.417663 126.347558 
L 411.944571 127.535517 
L 413.471479 125.788329 
L 414.998387 126.603957 
L 416.525295 127.894814 
L 418.052202 126.30637 
L 419.57911 125.38204 
L 421.106018 124.227199 
L 422.632926 122.268798 
L 425.686742 124.534494 
L 427.21365 123.968814 
L 428.740558 121.847121 
L 430.267465 120.230103 
L 431.794373 120.510832 
L 433.321281 119.375075 
L 434.848189 119.457063 
L 436.375097 118.365171 
L 437.902005 119.418117 
L 439.428913 116.956989 
L 440.955821 117.589639 
L 442.482728 115.882426 
L 444.009636 115.132567 
L 445.536544 113.499848 
L 448.59036 117.006858 
L 450.117268 116.351451 
L 453.171084 116.109849 
L 454.697991 114.136225 
L 456.224899 115.622062 
L 457.751807 115.879471 
L 459.278715 116.358661 
L 460.805623 114.008052 
L 462.332531 112.194644 
L 463.859439 109.450796 
L 465.386347 107.376176 
L 466.913254 110.024776 
L 468.440162 109.810654 
L 469.96707 111.082249 
L 471.493978 111.690311 
L 474.547794 110.891269 
L 476.074702 113.029053 
L 477.60161 115.549223 
L 479.128517 114.135565 
L 480.655425 113.376189 
L 482.182333 114.764205 
L 483.709241 114.430741 
L 485.236149 114.500125 
L 488.289965 119.607838 
L 489.816873 119.51464 
L 491.34378 118.375165 
L 492.870688 120.589381 
L 494.397596 120.988879 
L 495.924504 119.46118 
L 497.451412 121.64043 
L 498.97832 120.568196 
L 502.032136 117.452452 
L 505.085951 122.328152 
L 506.612859 123.640206 
L 508.139767 123.176701 
L 509.666675 123.872198 
L 511.193583 124.278626 
L 512.720491 125.762684 
L 514.247399 126.782381 
L 515.774306 128.865546 
L 517.301214 128.001675 
L 518.828122 128.702034 
L 520.35503 127.395795 
L 521.881938 126.771216 
L 523.408846 127.909609 
L 524.935754 128.369569 
L 526.462662 127.968934 
L 527.989569 126.608197 
L 529.516477 127.859455 
L 529.516477 127.859455 
" clip-path="url(#pccac9c0ba7)" style="fill: none; stroke: #1f77b4; stroke-width: 2.5; stroke-linecap: square"/>
   </g>
   <g id="line2d_16">
    <path d="M 72.971023 166.024064 
L 114.197535 165.901658 
L 126.412798 165.715704 
L 134.047338 165.441195 
L 141.681877 164.919172 
L 146.262601 164.504231 
L 153.89714 163.239769 
L 160.004772 161.92257 
L 163.058587 160.6804 
L 164.585495 159.753278 
L 166.112403 159.041123 
L 169.166219 157.846545 
L 170.693127 156.714323 
L 172.220035 155.749443 
L 173.746942 154.459199 
L 175.27385 153.554982 
L 176.800758 151.569883 
L 179.854574 149.511216 
L 181.381482 148.135325 
L 182.90839 145.447689 
L 184.435298 142.14789 
L 185.962205 139.754937 
L 187.489113 136.223759 
L 189.016021 133.878484 
L 190.542929 131.123788 
L 192.069837 129.122341 
L 193.596745 126.80231 
L 195.123653 121.104352 
L 196.650561 116.713079 
L 198.177468 112.831009 
L 199.704376 109.633837 
L 201.231284 104.517897 
L 202.758192 97.563391 
L 204.2851 89.278594 
L 205.812008 83.537408 
L 207.338916 73.546232 
L 208.865824 70.789988 
L 210.392731 68.432322 
L 211.919639 60.151929 
L 213.446547 50.048688 
L 216.500363 33.634795 
L 218.027271 34.164514 
L 219.554179 25.79212 
L 221.081087 23.459094 
L 224.134902 29.775102 
L 225.66181 21.889076 
L 227.188718 14.824064 
L 228.715626 20.342334 
L 230.242534 20.648415 
L 231.769442 24.789161 
L 233.29635 31.204376 
L 234.823257 35.79497 
L 236.350165 43.541262 
L 237.877073 45.198095 
L 239.403981 48.4961 
L 240.930889 52.648035 
L 242.457797 59.21896 
L 243.984705 57.161894 
L 245.511613 57.128414 
L 247.03852 56.423778 
L 248.565428 55.480664 
L 250.092336 57.836653 
L 251.619244 61.738134 
L 253.146152 63.250462 
L 254.67306 71.156516 
L 256.199968 73.762334 
L 257.726876 79.833117 
L 259.253783 84.459173 
L 260.780691 88.280138 
L 262.307599 91.597309 
L 263.834507 91.735358 
L 265.361415 91.361188 
L 266.888323 96.36963 
L 269.942139 95.949076 
L 271.469046 101.329533 
L 272.995954 106.106653 
L 274.522862 109.104694 
L 276.04977 108.988516 
L 277.576678 110.415514 
L 279.103586 112.858476 
L 280.630494 115.556086 
L 282.157402 119.280129 
L 283.684309 121.823309 
L 285.211217 121.770027 
L 286.738125 121.84376 
L 288.265033 120.793913 
L 289.791941 121.034166 
L 291.318849 123.77534 
L 292.845757 125.050036 
L 294.372665 125.531111 
L 295.899572 126.682413 
L 297.42648 129.030225 
L 298.953388 129.905617 
L 300.480296 132.125117 
L 302.007204 133.249764 
L 303.534112 133.343818 
L 305.06102 132.403775 
L 306.587928 131.772359 
L 308.114835 130.585241 
L 309.641743 132.595789 
L 315.749375 137.538766 
L 317.276283 137.247802 
L 318.803191 137.81958 
L 320.330098 136.909671 
L 321.857006 136.861203 
L 323.383914 137.546487 
L 324.910822 136.877699 
L 326.43773 137.00531 
L 327.964638 135.981691 
L 329.491546 137.377741 
L 331.018454 136.446024 
L 332.545361 137.573558 
L 334.072269 136.393684 
L 335.599177 136.363941 
L 337.126085 136.889204 
L 338.652993 137.906225 
L 340.179901 138.610237 
L 341.706809 138.832087 
L 343.233717 138.310065 
L 346.287532 140.56892 
L 347.81444 139.353949 
L 349.341348 139.335854 
L 350.868256 138.622863 
L 352.395164 139.357673 
L 353.922072 140.30129 
L 355.44898 139.958247 
L 358.502795 138.903921 
L 360.029703 137.965941 
L 361.556611 137.664343 
L 364.610427 136.598894 
L 366.137335 135.370691 
L 367.664243 134.748842 
L 369.19115 133.768067 
L 370.718058 132.496147 
L 372.244966 132.941686 
L 373.771874 131.720628 
L 375.298782 131.379415 
L 376.82569 131.414181 
L 378.352598 131.619324 
L 379.879506 132.028716 
L 381.406413 130.113381 
L 382.933321 130.020969 
L 384.460229 130.699991 
L 385.987137 130.388893 
L 387.514045 131.628237 
L 389.040953 132.562089 
L 390.567861 131.629164 
L 392.094769 132.243603 
L 393.621676 131.954205 
L 395.148584 130.848549 
L 396.675492 129.99897 
L 398.2024 128.419443 
L 399.729308 128.842147 
L 401.256216 126.76344 
L 402.783124 126.559693 
L 404.310032 125.927918 
L 405.836939 126.746686 
L 407.363847 127.701545 
L 408.890755 125.481206 
L 410.417663 126.347558 
L 411.944571 127.535517 
L 413.471479 125.788329 
L 414.998387 126.603957 
L 416.525295 127.894814 
L 418.052202 126.30637 
L 419.57911 125.38204 
L 421.106018 124.227199 
L 422.632926 122.268798 
L 425.686742 124.534494 
L 427.21365 123.968814 
L 428.740558 121.847121 
L 430.267465 120.230103 
L 431.794373 120.510832 
L 433.321281 119.375075 
L 434.848189 119.457063 
L 436.375097 118.365171 
L 437.902005 119.418117 
L 439.428913 116.956989 
L 440.955821 117.589639 
L 442.482728 115.882426 
L 444.009636 115.132567 
L 445.536544 113.499848 
L 448.59036 117.006858 
L 450.117268 116.351451 
L 453.171084 116.109849 
L 454.697991 114.136225 
L 456.224899 115.622062 
L 457.751807 115.879471 
L 459.278715 116.358661 
L 460.805623 114.008052 
L 462.332531 112.194644 
L 463.859439 109.450796 
L 465.386347 107.376176 
L 466.913254 110.024776 
L 468.440162 109.810654 
L 469.96707 111.082249 
L 471.493978 111.690311 
L 474.547794 110.891269 
L 476.074702 113.029053 
L 477.60161 115.549223 
L 479.128517 114.135565 
L 480.655425 113.376189 
L 482.182333 114.764205 
L 483.709241 114.430741 
L 485.236149 114.500125 
L 488.289965 119.607838 
L 489.816873 119.51464 
L 491.34378 118.375165 
L 492.870688 120.589381 
L 494.397596 120.988879 
L 495.924504 119.46118 
L 497.451412 121.64043 
L 498.97832 120.568196 
L 502.032136 117.452452 
L 505.085951 122.328152 
L 506.612859 123.640206 
L 508.139767 123.176701 
L 509.666675 123.872198 
L 511.193583 124.278626 
L 512.720491 125.762684 
L 514.247399 126.782381 
L 515.774306 128.865546 
L 517.301214 128.001675 
L 518.828122 128.702034 
L 520.35503 127.395795 
L 521.881938 126.771216 
L 523.408846 127.909609 
L 524.935754 128.369569 
L 526.462662 127.968934 
L 527.989569 126.608197 
L 527.989569 126.608197 
" clip-path="url(#pccac9c0ba7)" style="fill: none; stroke-dasharray: 5.55,2.4; stroke-dashoffset: 0; stroke: #000000; stroke-width: 1.5"/>
   </g>
   <g id="line2d_17">
    <path d="M 72.971023 131.995699 
L 74.497931 154.472138 
L 76.024838 138.960846 
L 77.551746 156.012825 
L 79.078654 133.597905 
L 80.605562 137.444966 
L 82.13247 119.828018 
L 83.659378 147.269227 
L 85.186286 154.413538 
L 86.713194 122.058849 
L 88.240101 120.152163 
L 89.767009 151.774668 
L 91.293917 157.560934 
L 92.820825 123.367139 
L 94.347733 151.680366 
L 95.874641 125.259615 
L 97.401549 117.511372 
L 98.928457 129.060329 
L 100.455364 149.954296 
L 101.982272 139.230702 
L 103.50918 150.783184 
L 105.036088 114.498845 
L 106.562996 140.855232 
L 108.089904 161.868334 
L 109.616812 155.877388 
L 111.14372 123.131492 
L 112.670627 155.13106 
L 114.197535 123.014116 
L 115.724443 151.870858 
L 117.251351 117.676084 
L 118.778259 134.635553 
L 120.305167 158.976706 
L 121.832075 132.638988 
L 123.358983 129.661064 
L 124.88589 137.308274 
L 126.412798 135.672453 
L 127.939706 145.94277 
L 129.466614 157.488402 
L 130.993522 154.382329 
L 132.52043 124.334624 
L 134.047338 149.160977 
L 135.574246 158.574557 
L 137.101153 128.785643 
L 138.628061 163.117134 
L 140.154969 122.96441 
L 141.681877 121.773669 
L 143.208785 133.747234 
L 144.735693 141.028611 
L 146.262601 155.066048 
L 147.789509 149.609799 
L 149.316416 124.226881 
L 150.843324 154.104575 
L 152.370232 122.882464 
L 153.89714 130.67835 
L 155.424048 115.25686 
L 156.950956 122.364414 
L 158.477864 142.247378 
L 160.004772 155.638049 
L 161.531679 141.429792 
L 163.058587 165.325291 
L 164.585495 134.598423 
L 166.112403 119.658931 
L 167.639311 117.866387 
L 169.166219 148.261493 
L 170.693127 130.598012 
L 172.220035 142.2832 
L 173.746942 118.197164 
L 175.27385 160.482614 
L 176.800758 114.358793 
L 178.327666 114.735576 
L 179.854574 122.870299 
L 181.381482 158.050566 
L 182.90839 163.938582 
L 184.435298 133.614123 
L 185.962205 152.145559 
L 187.489113 124.294024 
L 189.016021 128.962267 
L 190.542929 115.438941 
L 192.069837 119.495705 
L 193.596745 163.327274 
L 195.123653 140.086754 
L 198.177468 123.707196 
L 199.704376 141.215922 
L 201.231284 154.51239 
L 202.758192 160.484096 
L 204.2851 138.635852 
L 205.812008 164.784458 
L 207.338916 119.904576 
L 208.865824 119.804112 
L 210.392731 153.339456 
L 211.919639 161.251921 
L 213.446547 152.390869 
L 214.973455 149.998614 
L 216.500363 117.851099 
L 218.027271 155.507279 
L 219.554179 133.904707 
L 221.081087 116.361736 
L 222.607994 118.885026 
L 224.134902 162.675506 
L 225.66181 160.208118 
L 227.188718 118.133302 
L 228.715626 137.996765 
L 230.242534 126.232446 
L 231.769442 119.220512 
L 233.29635 126.667284 
L 234.823257 114.909342 
L 236.350165 139.893603 
L 237.877073 133.843971 
L 239.403981 130.671125 
L 240.930889 119.854832 
L 242.457797 160.531548 
L 243.984705 151.393762 
L 245.511613 155.210772 
L 247.03852 156.902954 
L 248.565428 141.99833 
L 250.092336 134.901695 
L 251.619244 146.508754 
L 253.146152 114.64759 
L 254.67306 140.557892 
L 256.199968 121.006295 
L 257.726876 127.483418 
L 259.253783 131.148727 
L 260.780691 133.388653 
L 262.307599 154.511943 
L 263.834507 158.065966 
L 265.361415 120.781446 
L 266.888323 156.988236 
L 268.415231 156.885316 
L 269.942139 115.58163 
L 271.469046 117.01278 
L 272.995954 129.172894 
L 274.522862 155.89582 
L 276.04977 141.69699 
L 277.576678 131.707261 
L 279.103586 127.957198 
L 280.630494 115.791496 
L 282.157402 125.527068 
L 283.684309 153.947775 
L 285.211217 152.126344 
L 286.738125 164.929578 
L 288.265033 149.571413 
L 289.791941 120.510847 
L 291.318849 136.080695 
L 292.845757 145.256372 
L 294.372665 136.274964 
L 295.899572 119.772072 
L 297.42648 138.014076 
L 298.953388 118.102342 
L 302.007204 147.566504 
L 303.534112 163.492146 
L 305.06102 157.917952 
L 306.587928 165.722023 
L 308.114835 118.113654 
L 309.641743 128.455829 
L 311.168651 128.39816 
L 312.695559 126.921548 
L 314.222467 121.099553 
L 315.749375 150.74636 
L 317.276283 134.781491 
L 318.803191 161.304986 
L 320.330098 145.084745 
L 321.857006 131.689798 
L 323.383914 155.578418 
L 324.910822 140.793754 
L 326.43773 160.908409 
L 327.964638 118.30568 
L 329.491546 158.773278 
L 331.018454 121.913629 
L 332.545361 162.697667 
L 334.072269 141.441639 
L 335.599177 131.448938 
L 337.126085 122.246698 
L 338.652993 127.029055 
L 340.179901 135.459471 
L 341.706809 149.23143 
L 343.233717 118.685445 
L 344.760624 115.977806 
L 346.287532 163.019689 
L 347.81444 138.380157 
L 349.341348 151.528133 
L 350.868256 123.572284 
L 352.395164 118.865289 
L 353.922072 143.754054 
L 355.44898 147.858258 
L 356.975887 145.69692 
L 358.502795 153.895753 
L 360.029703 141.32952 
L 361.556611 144.809514 
L 363.083519 145.298826 
L 364.610427 156.692019 
L 366.137335 145.419663 
L 367.664243 150.979041 
L 369.19115 155.004208 
L 370.718058 127.640111 
L 372.244966 153.479103 
L 373.771874 139.447666 
L 375.298782 133.714754 
L 376.82569 131.105937 
L 378.352598 127.959271 
L 379.879506 163.157995 
L 381.406413 135.313735 
L 382.933321 124.212225 
L 384.460229 138.485608 
L 385.987137 115.935192 
L 387.514045 119.855284 
L 389.040953 148.249398 
L 390.567861 124.561876 
L 392.094769 138.18559 
L 393.621676 150.486527 
L 395.148584 146.165377 
L 396.675492 156.329253 
L 398.2024 127.872362 
L 399.729308 162.601511 
L 401.256216 136.425566 
L 402.783124 142.08178 
L 404.310032 123.329493 
L 405.836939 121.401368 
L 407.363847 163.968116 
L 408.890755 123.043975 
L 410.417663 118.706387 
L 411.944571 157.709825 
L 413.471479 123.838063 
L 414.998387 117.479805 
L 416.525295 155.998933 
L 418.052202 146.551102 
L 419.57911 149.287502 
L 421.106018 158.910163 
L 422.632926 122.031066 
L 424.159834 120.629739 
L 425.686742 142.128028 
L 427.21365 161.255787 
L 428.740558 154.214341 
L 430.267465 132.280292 
L 431.794373 148.513085 
L 433.321281 134.875 
L 434.848189 148.078989 
L 436.375097 124.723567 
L 437.902005 163.616221 
L 439.428913 129.838939 
L 440.955821 154.921257 
L 442.482728 144.628982 
L 444.009636 153.695666 
L 445.536544 119.896577 
L 447.063452 119.936856 
L 448.59036 144.709402 
L 450.117268 139.513396 
L 451.644176 139.149728 
L 453.171084 158.787783 
L 454.697991 123.744079 
L 456.224899 136.11099 
L 457.751807 133.994616 
L 459.278715 163.562399 
L 460.805623 157.284359 
L 462.332531 165.80327 
L 463.859439 158.629829 
L 465.386347 116.596641 
L 466.913254 142.183405 
L 468.440162 128.749426 
L 469.96707 134.94705 
L 471.493978 144.439711 
L 473.020886 145.060851 
L 474.547794 121.214079 
L 476.074702 116.868745 
L 477.60161 156.069163 
L 479.128517 149.276564 
L 480.655425 128.224901 
L 482.182333 145.348837 
L 483.709241 141.409311 
L 485.236149 117.032984 
L 486.763057 114.96725 
L 488.289965 143.449126 
L 489.816873 155.109258 
L 491.34378 118.476376 
L 492.870688 137.995576 
L 494.397596 160.086245 
L 495.924504 118.387807 
L 497.451412 155.085804 
L 498.97832 159.652348 
L 500.505228 160.401958 
L 502.032136 116.327142 
L 503.559043 115.794405 
L 505.085951 127.212483 
L 506.612859 148.364826 
L 508.139767 134.295724 
L 509.666675 137.675615 
L 511.193583 124.25417 
L 512.720491 129.496675 
L 514.247399 115.094202 
L 515.774306 154.462827 
L 517.301214 132.832984 
L 518.828122 160.346877 
L 520.35503 150.521734 
L 521.881938 127.10558 
L 523.408846 135.788363 
L 524.935754 147.440074 
L 526.462662 160.331896 
L 527.989569 125.374616 
L 529.516477 152.852642 
L 529.516477 152.852642 
" clip-path="url(#pccac9c0ba7)" style="fill: none; stroke: #ff7f0e; stroke-opacity: 0.5; stroke-width: 1.5; stroke-linecap: square"/>
   </g>
   <g id="patch_3">
    <path d="M 50.14375 173.584064 
L 50.14375 7.264064 
" style="fill: none; stroke: #000000; stroke-width: 0.8; stroke-linejoin: miter; stroke-linecap: square"/>
   </g>
   <g id="patch_4">
    <path d="M 552.34375 173.584064 
L 552.34375 7.264064 
" style="fill: none; stroke: #000000; stroke-width: 0.8; stroke-linejoin: miter; stroke-linecap: square"/>
   </g>
   <g id="patch_5">
    <path d="M 50.14375 173.584064 
L 552.34375 173.584064 
" style="fill: none; stroke: #000000; stroke-width: 0.8; stroke-linejoin: miter; stroke-linecap: square"/>
   </g>
   <g id="patch_6">
    <path d="M 50.14375 7.264064 
L 552.34375 7.264064 
" style="fill: none; stroke: #000000; stroke-width: 0.8; stroke-linejoin: miter; stroke-linecap: square"/>
   </g>
   <g id="legend_1">
    <g id="patch_7">
     <path d="M 462.14375 60.820314 
L 545.34375 60.820314 
Q 547.34375 60.820314 547.34375 58.820314 
L 547.34375 14.264064 
Q 547.34375 12.264064 545.34375 12.264064 
L 462.14375 12.264064 
Q 460.14375 12.264064 460.14375 14.264064 
L 460.14375 58.820314 
Q 460.14375 60.820314 462.14375 60.820314 
z
" style="fill: #ffffff; opacity: 0.8; stroke: #cccccc; stroke-linejoin: miter"/>
    </g>
    <g id="line2d_18">
     <path d="M 464.14375 20.362502 
L 474.14375 20.362502 
L 484.14375 20.362502 
" style="fill: none; stroke: #1f77b4; stroke-width: 2.5; stroke-linecap: square"/>
    </g>
    <g id="text_17">
     <!-- $I$ - Exact -->
     <g transform="translate(492.14375 23.862502) scale(0.1 -0.1)">
      <defs>
       <path id="DejaVuSans-Oblique-49" d="M 1081 4666 
L 1716 4666 
L 806 0 
L 172 0 
L 1081 4666 
z
" transform="scale(0.015625)"/>
       <path id="DejaVuSans-2d" d="M 313 2009 
L 1997 2009 
L 1997 1497 
L 313 1497 
L 313 2009 
z
" transform="scale(0.015625)"/>
       <path id="DejaVuSans-45" d="M 628 4666 
L 3578 4666 
L 3578 4134 
L 1259 4134 
L 1259 2753 
L 3481 2753 
L 3481 2222 
L 1259 2222 
L 1259 531 
L 3634 531 
L 3634 0 
L 628 0 
L 628 4666 
z
" transform="scale(0.015625)"/>
       <path id="DejaVuSans-78" d="M 3513 3500 
L 2247 1797 
L 3578 0 
L 2900 0 
L 1881 1375 
L 863 0 
L 184 0 
L 1544 1831 
L 300 3500 
L 978 3500 
L 1906 2253 
L 2834 3500 
L 3513 3500 
z
" transform="scale(0.015625)"/>
       <path id="DejaVuSans-63" d="M 3122 3366 
L 3122 2828 
Q 2878 2963 2633 3030 
Q 2388 3097 2138 3097 
Q 1578 3097 1268 2742 
Q 959 2388 959 1747 
Q 959 1106 1268 751 
Q 1578 397 2138 397 
Q 2388 397 2633 464 
Q 2878 531 3122 666 
L 3122 134 
Q 2881 22 2623 -34 
Q 2366 -91 2075 -91 
Q 1284 -91 818 406 
Q 353 903 353 1747 
Q 353 2603 823 3093 
Q 1294 3584 2113 3584 
Q 2378 3584 2631 3529 
Q 2884 3475 3122 3366 
z
" transform="scale(0.015625)"/>
      </defs>
      <use xlink:href="#DejaVuSans-Oblique-49" transform="translate(0 0.09375)"/>
      <use xlink:href="#DejaVuSans-20" transform="translate(29.492188 0.09375)"/>
      <use xlink:href="#DejaVuSans-2d" transform="translate(61.279297 0.09375)"/>
      <use xlink:href="#DejaVuSans-20" transform="translate(97.363281 0.09375)"/>
      <use xlink:href="#DejaVuSans-45" transform="translate(129.150391 0.09375)"/>
      <use xlink:href="#DejaVuSans-78" transform="translate(192.333984 0.09375)"/>
      <use xlink:href="#DejaVuSans-61" transform="translate(251.513672 0.09375)"/>
      <use xlink:href="#DejaVuSans-63" transform="translate(312.792969 0.09375)"/>
      <use xlink:href="#DejaVuSans-74" transform="translate(367.773438 0.09375)"/>
     </g>
    </g>
    <g id="line2d_19">
     <path d="M 464.14375 36.562502 
L 474.14375 36.562502 
L 484.14375 36.562502 
" style="fill: none; stroke-dasharray: 5.55,2.4; stroke-dashoffset: 0; stroke: #000000; stroke-width: 1.5"/>
    </g>
    <g id="text_18">
     <!-- $\hat{I}$ - Estim. -->
     <g transform="translate(492.14375 40.062502) scale(0.1 -0.1)">
      <defs>
       <path id="DejaVuSans-302" d="M -1831 5119 
L -1369 5119 
L -603 3944 
L -1038 3944 
L -1600 4709 
L -2163 3944 
L -2597 3944 
L -1831 5119 
z
M -1600 3584 
L -1600 3584 
z
" transform="scale(0.015625)"/>
      </defs>
      <use xlink:href="#DejaVuSans-302" transform="translate(42.951172 30.015625)"/>
      <use xlink:href="#DejaVuSans-Oblique-49" transform="translate(0 0.609375)"/>
      <use xlink:href="#DejaVuSans-20" transform="translate(29.492188 0.609375)"/>
      <use xlink:href="#DejaVuSans-2d" transform="translate(61.279297 0.609375)"/>
      <use xlink:href="#DejaVuSans-20" transform="translate(97.363281 0.609375)"/>
      <use xlink:href="#DejaVuSans-45" transform="translate(129.150391 0.609375)"/>
      <use xlink:href="#DejaVuSans-73" transform="translate(192.333984 0.609375)"/>
      <use xlink:href="#DejaVuSans-74" transform="translate(244.433594 0.609375)"/>
      <use xlink:href="#DejaVuSans-69" transform="translate(283.642578 0.609375)"/>
      <use xlink:href="#DejaVuSans-6d" transform="translate(311.425781 0.609375)"/>
      <use xlink:href="#DejaVuSans-2e" transform="translate(408.837891 0.609375)"/>
     </g>
    </g>
    <g id="line2d_20">
     <path d="M 464.14375 51.240627 
L 474.14375 51.240627 
L 484.14375 51.240627 
" style="fill: none; stroke: #ff7f0e; stroke-opacity: 0.5; stroke-width: 1.5; stroke-linecap: square"/>
    </g>
    <g id="text_19">
     <!-- $u$ - control -->
     <g transform="translate(492.14375 54.740627) scale(0.1 -0.1)">
      <defs>
       <path id="DejaVuSans-Oblique-75" d="M 428 1388 
L 838 3500 
L 1416 3500 
L 1006 1409 
Q 975 1256 961 1147 
Q 947 1038 947 966 
Q 947 700 1109 554 
Q 1272 409 1569 409 
Q 2031 409 2368 721 
Q 2706 1034 2809 1563 
L 3194 3500 
L 3769 3500 
L 3091 0 
L 2516 0 
L 2631 550 
Q 2388 244 2052 76 
Q 1716 -91 1338 -91 
Q 878 -91 622 161 
Q 366 413 366 863 
Q 366 956 381 1097 
Q 397 1238 428 1388 
z
" transform="scale(0.015625)"/>
      </defs>
      <use xlink:href="#DejaVuSans-Oblique-75" transform="translate(0 0.015625)"/>
      <use xlink:href="#DejaVuSans-20" transform="translate(63.378906 0.015625)"/>
      <use xlink:href="#DejaVuSans-2d" transform="translate(95.166016 0.015625)"/>
      <use xlink:href="#DejaVuSans-20" transform="translate(131.25 0.015625)"/>
      <use xlink:href="#DejaVuSans-63" transform="translate(163.037109 0.015625)"/>
      <use xlink:href="#DejaVuSans-6f" transform="translate(218.017578 0.015625)"/>
      <use xlink:href="#DejaVuSans-6e" transform="translate(279.199219 0.015625)"/>
      <use xlink:href="#DejaVuSans-74" transform="translate(342.578125 0.015625)"/>
      <use xlink:href="#DejaVuSans-72" transform="translate(381.787109 0.015625)"/>
      <use xlink:href="#DejaVuSans-6f" transform="translate(422.900391 0.015625)"/>
      <use xlink:href="#DejaVuSans-6c" transform="translate(484.082031 0.015625)"/>
     </g>
    </g>
   </g>
  </g>
 </g>
 <defs>
  <clipPath id="pccac9c0ba7">
   <rect x="50.14375" y="7.264064" width="502.2" height="166.32"/>
  </clipPath>
 </defs>
</svg>
