<?xml version="1.0" encoding="utf-8" standalone="no"?>
<!DOCTYPE svg PUBLIC "-//W3C//DTD SVG 1.1//EN"
  "http://www.w3.org/Graphics/SVG/1.1/DTD/svg11.dtd">
<svg xmlns:xlink="http://www.w3.org/1999/xlink" width="539.503125pt" height="211.07625pt" viewBox="0 0 539.503125 211.07625" xmlns="http://www.w3.org/2000/svg" version="1.1">
 <metadata>
  <rdf:RDF xmlns:dc="http://purl.org/dc/elements/1.1/" xmlns:cc="http://creativecommons.org/ns#" xmlns:rdf="http://www.w3.org/1999/02/22-rdf-syntax-ns#">
   <cc:Work>
    <dc:type rdf:resource="http://purl.org/dc/dcmitype/StillImage"/>
    <dc:date>2025-06-19T16:32:34.181939</dc:date>
    <dc:format>image/svg+xml</dc:format>
    <dc:creator>
     <cc:Agent>
      <dc:title>Matplotlib v3.6.3, https://matplotlib.org/</dc:title>
     </cc:Agent>
    </dc:creator>
   </cc:Work>
  </rdf:RDF>
 </metadata>
 <defs>
  <style type="text/css">*{stroke-linejoin: round; stroke-linecap: butt}</style>
 </defs>
 <g id="figure_1">
  <g id="patch_1">
   <path d="M 0 211.07625 
L 539.503125 211.07625 
L 539.503125 0 
L 0 0 
z
" style="fill: #ffffff"/>
  </g>
  <g id="axes_1">
   <g id="patch_2">
    <path d="M 30.103125 173.52 
L 532.303125 173.52 
L 532.303125 7.2 
L 30.103125 7.2 
z
" style="fill: #ffffff"/>
   </g>
   <g id="matplotlib.axis_1">
    <g id="xtick_1">
     <g id="line2d_1">
      <defs>
       <path id="m6ba1b35e00" d="M 0 0 
L 0 3.5 
" style="stroke: #000000; stroke-width: 0.8"/>
      </defs>
      <g>
       <use xlink:href="#m6ba1b35e00" x="52.930398" y="173.52" style="stroke: #000000; stroke-width: 0.8"/>
      </g>
     </g>
     <g id="text_1">
      <!-- 0 -->
      <g transform="translate(49.749148 188.118438) scale(0.1 -0.1)">
       <defs>
        <path id="DejaVuSans-30" d="M 2034 4250 
Q 1547 4250 1301 3770 
Q 1056 3291 1056 2328 
Q 1056 1369 1301 889 
Q 1547 409 2034 409 
Q 2525 409 2770 889 
Q 3016 1369 3016 2328 
Q 3016 3291 2770 3770 
Q 2525 4250 2034 4250 
z
M 2034 4750 
Q 2819 4750 3233 4129 
Q 3647 3509 3647 2328 
Q 3647 1150 3233 529 
Q 2819 -91 2034 -91 
Q 1250 -91 836 529 
Q 422 1150 422 2328 
Q 422 3509 836 4129 
Q 1250 4750 2034 4750 
z
" transform="scale(0.015625)"/>
       </defs>
       <use xlink:href="#DejaVuSans-30"/>
      </g>
     </g>
    </g>
    <g id="xtick_2">
     <g id="line2d_2">
      <g>
       <use xlink:href="#m6ba1b35e00" x="129.275791" y="173.52" style="stroke: #000000; stroke-width: 0.8"/>
      </g>
     </g>
     <g id="text_2">
      <!-- 50 -->
      <g transform="translate(122.913291 188.118438) scale(0.1 -0.1)">
       <defs>
        <path id="DejaVuSans-35" d="M 691 4666 
L 3169 4666 
L 3169 4134 
L 1269 4134 
L 1269 2991 
Q 1406 3038 1543 3061 
Q 1681 3084 1819 3084 
Q 2600 3084 3056 2656 
Q 3513 2228 3513 1497 
Q 3513 744 3044 326 
Q 2575 -91 1722 -91 
Q 1428 -91 1123 -41 
Q 819 9 494 109 
L 494 744 
Q 775 591 1075 516 
Q 1375 441 1709 441 
Q 2250 441 2565 725 
Q 2881 1009 2881 1497 
Q 2881 1984 2565 2268 
Q 2250 2553 1709 2553 
Q 1456 2553 1204 2497 
Q 953 2441 691 2322 
L 691 4666 
z
" transform="scale(0.015625)"/>
       </defs>
       <use xlink:href="#DejaVuSans-35"/>
       <use xlink:href="#DejaVuSans-30" x="63.623047"/>
      </g>
     </g>
    </g>
    <g id="xtick_3">
     <g id="line2d_3">
      <g>
       <use xlink:href="#m6ba1b35e00" x="205.621185" y="173.52" style="stroke: #000000; stroke-width: 0.8"/>
      </g>
     </g>
     <g id="text_3">
      <!-- 100 -->
      <g transform="translate(196.077435 188.118438) scale(0.1 -0.1)">
       <defs>
        <path id="DejaVuSans-31" d="M 794 531 
L 1825 531 
L 1825 4091 
L 703 3866 
L 703 4441 
L 1819 4666 
L 2450 4666 
L 2450 531 
L 3481 531 
L 3481 0 
L 794 0 
L 794 531 
z
" transform="scale(0.015625)"/>
       </defs>
       <use xlink:href="#DejaVuSans-31"/>
       <use xlink:href="#DejaVuSans-30" x="63.623047"/>
       <use xlink:href="#DejaVuSans-30" x="127.246094"/>
      </g>
     </g>
    </g>
    <g id="xtick_4">
     <g id="line2d_4">
      <g>
       <use xlink:href="#m6ba1b35e00" x="281.966579" y="173.52" style="stroke: #000000; stroke-width: 0.8"/>
      </g>
     </g>
     <g id="text_4">
      <!-- 150 -->
      <g transform="translate(272.422829 188.118438) scale(0.1 -0.1)">
       <use xlink:href="#DejaVuSans-31"/>
       <use xlink:href="#DejaVuSans-35" x="63.623047"/>
       <use xlink:href="#DejaVuSans-30" x="127.246094"/>
      </g>
     </g>
    </g>
    <g id="xtick_5">
     <g id="line2d_5">
      <g>
       <use xlink:href="#m6ba1b35e00" x="358.311973" y="173.52" style="stroke: #000000; stroke-width: 0.8"/>
      </g>
     </g>
     <g id="text_5">
      <!-- 200 -->
      <g transform="translate(348.768223 188.118438) scale(0.1 -0.1)">
       <defs>
        <path id="DejaVuSans-32" d="M 1228 531 
L 3431 531 
L 3431 0 
L 469 0 
L 469 531 
Q 828 903 1448 1529 
Q 2069 2156 2228 2338 
Q 2531 2678 2651 2914 
Q 2772 3150 2772 3378 
Q 2772 3750 2511 3984 
Q 2250 4219 1831 4219 
Q 1534 4219 1204 4116 
Q 875 4013 500 3803 
L 500 4441 
Q 881 4594 1212 4672 
Q 1544 4750 1819 4750 
Q 2544 4750 2975 4387 
Q 3406 4025 3406 3419 
Q 3406 3131 3298 2873 
Q 3191 2616 2906 2266 
Q 2828 2175 2409 1742 
Q 1991 1309 1228 531 
z
" transform="scale(0.015625)"/>
       </defs>
       <use xlink:href="#DejaVuSans-32"/>
       <use xlink:href="#DejaVuSans-30" x="63.623047"/>
       <use xlink:href="#DejaVuSans-30" x="127.246094"/>
      </g>
     </g>
    </g>
    <g id="xtick_6">
     <g id="line2d_6">
      <g>
       <use xlink:href="#m6ba1b35e00" x="434.657366" y="173.52" style="stroke: #000000; stroke-width: 0.8"/>
      </g>
     </g>
     <g id="text_6">
      <!-- 250 -->
      <g transform="translate(425.113616 188.118438) scale(0.1 -0.1)">
       <use xlink:href="#DejaVuSans-32"/>
       <use xlink:href="#DejaVuSans-35" x="63.623047"/>
       <use xlink:href="#DejaVuSans-30" x="127.246094"/>
      </g>
     </g>
    </g>
    <g id="xtick_7">
     <g id="line2d_7">
      <g>
       <use xlink:href="#m6ba1b35e00" x="511.00276" y="173.52" style="stroke: #000000; stroke-width: 0.8"/>
      </g>
     </g>
     <g id="text_7">
      <!-- 300 -->
      <g transform="translate(501.45901 188.118438) scale(0.1 -0.1)">
       <defs>
        <path id="DejaVuSans-33" d="M 2597 2516 
Q 3050 2419 3304 2112 
Q 3559 1806 3559 1356 
Q 3559 666 3084 287 
Q 2609 -91 1734 -91 
Q 1441 -91 1130 -33 
Q 819 25 488 141 
L 488 750 
Q 750 597 1062 519 
Q 1375 441 1716 441 
Q 2309 441 2620 675 
Q 2931 909 2931 1356 
Q 2931 1769 2642 2001 
Q 2353 2234 1838 2234 
L 1294 2234 
L 1294 2753 
L 1863 2753 
Q 2328 2753 2575 2939 
Q 2822 3125 2822 3475 
Q 2822 3834 2567 4026 
Q 2313 4219 1838 4219 
Q 1578 4219 1281 4162 
Q 984 4106 628 3988 
L 628 4550 
Q 988 4650 1302 4700 
Q 1616 4750 1894 4750 
Q 2613 4750 3031 4423 
Q 3450 4097 3450 3541 
Q 3450 3153 3228 2886 
Q 3006 2619 2597 2516 
z
" transform="scale(0.015625)"/>
       </defs>
       <use xlink:href="#DejaVuSans-33"/>
       <use xlink:href="#DejaVuSans-30" x="63.623047"/>
       <use xlink:href="#DejaVuSans-30" x="127.246094"/>
      </g>
     </g>
    </g>
    <g id="text_8">
     <!-- time (days) -->
     <g transform="translate(252.614062 201.796563) scale(0.1 -0.1)">
      <defs>
       <path id="DejaVuSans-74" d="M 1172 4494 
L 1172 3500 
L 2356 3500 
L 2356 3053 
L 1172 3053 
L 1172 1153 
Q 1172 725 1289 603 
Q 1406 481 1766 481 
L 2356 481 
L 2356 0 
L 1766 0 
Q 1100 0 847 248 
Q 594 497 594 1153 
L 594 3053 
L 172 3053 
L 172 3500 
L 594 3500 
L 594 4494 
L 1172 4494 
z
" transform="scale(0.015625)"/>
       <path id="DejaVuSans-69" d="M 603 3500 
L 1178 3500 
L 1178 0 
L 603 0 
L 603 3500 
z
M 603 4863 
L 1178 4863 
L 1178 4134 
L 603 4134 
L 603 4863 
z
" transform="scale(0.015625)"/>
       <path id="DejaVuSans-6d" d="M 3328 2828 
Q 3544 3216 3844 3400 
Q 4144 3584 4550 3584 
Q 5097 3584 5394 3201 
Q 5691 2819 5691 2113 
L 5691 0 
L 5113 0 
L 5113 2094 
Q 5113 2597 4934 2840 
Q 4756 3084 4391 3084 
Q 3944 3084 3684 2787 
Q 3425 2491 3425 1978 
L 3425 0 
L 2847 0 
L 2847 2094 
Q 2847 2600 2669 2842 
Q 2491 3084 2119 3084 
Q 1678 3084 1418 2786 
Q 1159 2488 1159 1978 
L 1159 0 
L 581 0 
L 581 3500 
L 1159 3500 
L 1159 2956 
Q 1356 3278 1631 3431 
Q 1906 3584 2284 3584 
Q 2666 3584 2933 3390 
Q 3200 3197 3328 2828 
z
" transform="scale(0.015625)"/>
       <path id="DejaVuSans-65" d="M 3597 1894 
L 3597 1613 
L 953 1613 
Q 991 1019 1311 708 
Q 1631 397 2203 397 
Q 2534 397 2845 478 
Q 3156 559 3463 722 
L 3463 178 
Q 3153 47 2828 -22 
Q 2503 -91 2169 -91 
Q 1331 -91 842 396 
Q 353 884 353 1716 
Q 353 2575 817 3079 
Q 1281 3584 2069 3584 
Q 2775 3584 3186 3129 
Q 3597 2675 3597 1894 
z
M 3022 2063 
Q 3016 2534 2758 2815 
Q 2500 3097 2075 3097 
Q 1594 3097 1305 2825 
Q 1016 2553 972 2059 
L 3022 2063 
z
" transform="scale(0.015625)"/>
       <path id="DejaVuSans-20" transform="scale(0.015625)"/>
       <path id="DejaVuSans-28" d="M 1984 4856 
Q 1566 4138 1362 3434 
Q 1159 2731 1159 2009 
Q 1159 1288 1364 580 
Q 1569 -128 1984 -844 
L 1484 -844 
Q 1016 -109 783 600 
Q 550 1309 550 2009 
Q 550 2706 781 3412 
Q 1013 4119 1484 4856 
L 1984 4856 
z
" transform="scale(0.015625)"/>
       <path id="DejaVuSans-64" d="M 2906 2969 
L 2906 4863 
L 3481 4863 
L 3481 0 
L 2906 0 
L 2906 525 
Q 2725 213 2448 61 
Q 2172 -91 1784 -91 
Q 1150 -91 751 415 
Q 353 922 353 1747 
Q 353 2572 751 3078 
Q 1150 3584 1784 3584 
Q 2172 3584 2448 3432 
Q 2725 3281 2906 2969 
z
M 947 1747 
Q 947 1113 1208 752 
Q 1469 391 1925 391 
Q 2381 391 2643 752 
Q 2906 1113 2906 1747 
Q 2906 2381 2643 2742 
Q 2381 3103 1925 3103 
Q 1469 3103 1208 2742 
Q 947 2381 947 1747 
z
" transform="scale(0.015625)"/>
       <path id="DejaVuSans-61" d="M 2194 1759 
Q 1497 1759 1228 1600 
Q 959 1441 959 1056 
Q 959 750 1161 570 
Q 1363 391 1709 391 
Q 2188 391 2477 730 
Q 2766 1069 2766 1631 
L 2766 1759 
L 2194 1759 
z
M 3341 1997 
L 3341 0 
L 2766 0 
L 2766 531 
Q 2569 213 2275 61 
Q 1981 -91 1556 -91 
Q 1019 -91 701 211 
Q 384 513 384 1019 
Q 384 1609 779 1909 
Q 1175 2209 1959 2209 
L 2766 2209 
L 2766 2266 
Q 2766 2663 2505 2880 
Q 2244 3097 1772 3097 
Q 1472 3097 1187 3025 
Q 903 2953 641 2809 
L 641 3341 
Q 956 3463 1253 3523 
Q 1550 3584 1831 3584 
Q 2591 3584 2966 3190 
Q 3341 2797 3341 1997 
z
" transform="scale(0.015625)"/>
       <path id="DejaVuSans-79" d="M 2059 -325 
Q 1816 -950 1584 -1140 
Q 1353 -1331 966 -1331 
L 506 -1331 
L 506 -850 
L 844 -850 
Q 1081 -850 1212 -737 
Q 1344 -625 1503 -206 
L 1606 56 
L 191 3500 
L 800 3500 
L 1894 763 
L 2988 3500 
L 3597 3500 
L 2059 -325 
z
" transform="scale(0.015625)"/>
       <path id="DejaVuSans-73" d="M 2834 3397 
L 2834 2853 
Q 2591 2978 2328 3040 
Q 2066 3103 1784 3103 
Q 1356 3103 1142 2972 
Q 928 2841 928 2578 
Q 928 2378 1081 2264 
Q 1234 2150 1697 2047 
L 1894 2003 
Q 2506 1872 2764 1633 
Q 3022 1394 3022 966 
Q 3022 478 2636 193 
Q 2250 -91 1575 -91 
Q 1294 -91 989 -36 
Q 684 19 347 128 
L 347 722 
Q 666 556 975 473 
Q 1284 391 1588 391 
Q 1994 391 2212 530 
Q 2431 669 2431 922 
Q 2431 1156 2273 1281 
Q 2116 1406 1581 1522 
L 1381 1569 
Q 847 1681 609 1914 
Q 372 2147 372 2553 
Q 372 3047 722 3315 
Q 1072 3584 1716 3584 
Q 2034 3584 2315 3537 
Q 2597 3491 2834 3397 
z
" transform="scale(0.015625)"/>
       <path id="DejaVuSans-29" d="M 513 4856 
L 1013 4856 
Q 1481 4119 1714 3412 
Q 1947 2706 1947 2009 
Q 1947 1309 1714 600 
Q 1481 -109 1013 -844 
L 513 -844 
Q 928 -128 1133 580 
Q 1338 1288 1338 2009 
Q 1338 2731 1133 3434 
Q 928 4138 513 4856 
z
" transform="scale(0.015625)"/>
      </defs>
      <use xlink:href="#DejaVuSans-74"/>
      <use xlink:href="#DejaVuSans-69" x="39.208984"/>
      <use xlink:href="#DejaVuSans-6d" x="66.992188"/>
      <use xlink:href="#DejaVuSans-65" x="164.404297"/>
      <use xlink:href="#DejaVuSans-20" x="225.927734"/>
      <use xlink:href="#DejaVuSans-28" x="257.714844"/>
      <use xlink:href="#DejaVuSans-64" x="296.728516"/>
      <use xlink:href="#DejaVuSans-61" x="360.205078"/>
      <use xlink:href="#DejaVuSans-79" x="421.484375"/>
      <use xlink:href="#DejaVuSans-73" x="480.664062"/>
      <use xlink:href="#DejaVuSans-29" x="532.763672"/>
     </g>
    </g>
   </g>
   <g id="matplotlib.axis_2">
    <g id="ytick_1">
     <g id="line2d_8">
      <defs>
       <path id="m51dd51e2d5" d="M 0 0 
L -3.5 0 
" style="stroke: #000000; stroke-width: 0.8"/>
      </defs>
      <g>
       <use xlink:href="#m51dd51e2d5" x="30.103125" y="165.963695" style="stroke: #000000; stroke-width: 0.8"/>
      </g>
     </g>
     <g id="text_9">
      <!-- 0.0 -->
      <g transform="translate(7.2 169.762914) scale(0.1 -0.1)">
       <defs>
        <path id="DejaVuSans-2e" d="M 684 794 
L 1344 794 
L 1344 0 
L 684 0 
L 684 794 
z
" transform="scale(0.015625)"/>
       </defs>
       <use xlink:href="#DejaVuSans-30"/>
       <use xlink:href="#DejaVuSans-2e" x="63.623047"/>
       <use xlink:href="#DejaVuSans-30" x="95.410156"/>
      </g>
     </g>
    </g>
    <g id="ytick_2">
     <g id="line2d_9">
      <g>
       <use xlink:href="#m51dd51e2d5" x="30.103125" y="129.014454" style="stroke: #000000; stroke-width: 0.8"/>
      </g>
     </g>
     <g id="text_10">
      <!-- 0.1 -->
      <g transform="translate(7.2 132.813672) scale(0.1 -0.1)">
       <use xlink:href="#DejaVuSans-30"/>
       <use xlink:href="#DejaVuSans-2e" x="63.623047"/>
       <use xlink:href="#DejaVuSans-31" x="95.410156"/>
      </g>
     </g>
    </g>
    <g id="ytick_3">
     <g id="line2d_10">
      <g>
       <use xlink:href="#m51dd51e2d5" x="30.103125" y="92.065212" style="stroke: #000000; stroke-width: 0.8"/>
      </g>
     </g>
     <g id="text_11">
      <!-- 0.2 -->
      <g transform="translate(7.2 95.864431) scale(0.1 -0.1)">
       <use xlink:href="#DejaVuSans-30"/>
       <use xlink:href="#DejaVuSans-2e" x="63.623047"/>
       <use xlink:href="#DejaVuSans-32" x="95.410156"/>
      </g>
     </g>
    </g>
    <g id="ytick_4">
     <g id="line2d_11">
      <g>
       <use xlink:href="#m51dd51e2d5" x="30.103125" y="55.115971" style="stroke: #000000; stroke-width: 0.8"/>
      </g>
     </g>
     <g id="text_12">
      <!-- 0.3 -->
      <g transform="translate(7.2 58.91519) scale(0.1 -0.1)">
       <use xlink:href="#DejaVuSans-30"/>
       <use xlink:href="#DejaVuSans-2e" x="63.623047"/>
       <use xlink:href="#DejaVuSans-33" x="95.410156"/>
      </g>
     </g>
    </g>
    <g id="ytick_5">
     <g id="line2d_12">
      <g>
       <use xlink:href="#m51dd51e2d5" x="30.103125" y="18.16673" style="stroke: #000000; stroke-width: 0.8"/>
      </g>
     </g>
     <g id="text_13">
      <!-- 0.4 -->
      <g transform="translate(7.2 21.965949) scale(0.1 -0.1)">
       <defs>
        <path id="DejaVuSans-34" d="M 2419 4116 
L 825 1625 
L 2419 1625 
L 2419 4116 
z
M 2253 4666 
L 3047 4666 
L 3047 1625 
L 3713 1625 
L 3713 1100 
L 3047 1100 
L 3047 0 
L 2419 0 
L 2419 1100 
L 313 1100 
L 313 1709 
L 2253 4666 
z
" transform="scale(0.015625)"/>
       </defs>
       <use xlink:href="#DejaVuSans-30"/>
       <use xlink:href="#DejaVuSans-2e" x="63.623047"/>
       <use xlink:href="#DejaVuSans-34" x="95.410156"/>
      </g>
     </g>
    </g>
   </g>
   <g id="line2d_13">
    <path d="M 52.930398 165.96 
L 91.103095 165.844173 
L 103.318358 165.602478 
L 110.952897 165.248688 
L 117.060528 164.719599 
L 121.641252 164.124277 
L 124.695068 163.575268 
L 127.748884 162.809877 
L 130.802699 161.813729 
L 133.856515 160.492553 
L 136.910331 158.758595 
L 141.491054 155.248458 
L 144.54487 152.218096 
L 147.598686 148.118385 
L 150.652502 142.801635 
L 153.706317 136.361645 
L 155.233225 132.902554 
L 156.760133 128.231943 
L 162.867765 107.624593 
L 164.394673 100.400341 
L 167.448488 87.910364 
L 168.975396 82.514533 
L 170.502304 76.096746 
L 172.029212 68.5587 
L 173.55612 61.826735 
L 176.609936 45.80687 
L 178.136843 40.47828 
L 179.663751 33.943616 
L 181.190659 29.129582 
L 182.717567 25.855897 
L 184.244475 23.576202 
L 185.771383 19.052747 
L 187.298291 16.549662 
L 188.825199 14.76 
L 190.352106 15.666192 
L 191.879014 15.15984 
L 193.405922 14.797054 
L 194.93283 15.584645 
L 196.459738 15.534105 
L 197.986646 16.281405 
L 199.513554 21.728047 
L 201.040462 24.095783 
L 202.567369 25.910453 
L 204.094277 31.828918 
L 205.621185 32.743563 
L 207.148093 34.136896 
L 208.675001 39.805541 
L 210.201909 41.576072 
L 211.728817 47.547106 
L 213.255725 52.899624 
L 216.30954 59.23095 
L 217.836448 64.290498 
L 219.363356 68.549362 
L 220.890264 71.402373 
L 222.417172 74.631369 
L 223.94408 76.827479 
L 225.470988 81.138543 
L 226.997895 85.074836 
L 230.051711 91.477081 
L 231.578619 93.582244 
L 233.105527 95.282839 
L 234.632435 97.380076 
L 237.686251 104.459367 
L 239.213158 107.822303 
L 240.740066 110.104806 
L 242.266974 113.218269 
L 243.793882 115.410473 
L 245.32079 116.601766 
L 249.901514 122.813865 
L 251.428421 123.615226 
L 256.009145 128.94488 
L 257.536053 129.705258 
L 259.062961 130.730738 
L 260.589869 131.267784 
L 262.116777 132.003922 
L 263.643684 133.802233 
L 266.6975 135.060934 
L 268.224408 135.549226 
L 269.751316 136.688579 
L 274.33204 139.293544 
L 275.858947 139.861159 
L 278.912763 141.648613 
L 280.439671 142.027367 
L 281.966579 142.898947 
L 283.493487 143.379074 
L 285.020395 144.393083 
L 286.547303 144.684094 
L 288.07421 145.4891 
L 289.601118 145.669085 
L 291.128026 146.290269 
L 292.654934 146.560478 
L 294.181842 146.992026 
L 295.70875 147.724921 
L 297.235658 148.279697 
L 298.762566 148.418527 
L 300.289473 149.190265 
L 301.816381 149.803248 
L 303.343289 149.968954 
L 304.870197 150.642064 
L 307.924013 151.086102 
L 314.031644 153.231335 
L 315.558552 153.338743 
L 320.139276 154.156533 
L 321.666184 154.510813 
L 324.719999 154.636708 
L 327.773815 155.333798 
L 329.300723 155.666934 
L 339.989078 156.645275 
L 341.515986 156.781756 
L 343.042894 156.747791 
L 347.623618 157.061252 
L 350.677433 156.996828 
L 353.731249 157.212643 
L 358.311973 157.137955 
L 359.838881 157.312695 
L 365.946512 157.305626 
L 369.000328 157.345692 
L 370.527236 157.377531 
L 372.054144 157.286834 
L 373.581051 157.418358 
L 375.107959 157.325552 
L 379.688683 157.756625 
L 381.215591 157.622003 
L 384.269407 157.645772 
L 385.796314 157.659882 
L 388.85013 157.439677 
L 390.377038 157.569778 
L 391.903946 157.51045 
L 394.957762 157.657131 
L 396.48467 157.504836 
L 404.119209 157.289301 
L 408.699933 157.004239 
L 410.22684 157.108098 
L 413.280656 157.197222 
L 414.807564 157.309096 
L 417.86138 156.989431 
L 419.388288 156.886861 
L 422.442103 156.977395 
L 423.969011 156.947 
L 428.549735 156.35867 
L 434.657366 155.786735 
L 436.184274 155.875468 
L 442.291906 155.150536 
L 445.345722 155.208007 
L 446.872629 155.142584 
L 448.399537 154.828337 
L 449.926445 154.769375 
L 454.507169 154.20844 
L 456.034077 153.824306 
L 457.560985 153.687267 
L 459.087892 153.280487 
L 460.6148 153.218781 
L 462.141708 152.97066 
L 463.668616 153.026328 
L 466.722432 152.555221 
L 468.24934 152.606276 
L 469.776248 152.301256 
L 471.303155 151.852591 
L 475.883879 151.857686 
L 477.410787 151.506236 
L 478.937695 151.389199 
L 480.464603 151.141351 
L 481.991511 151.210676 
L 483.518418 151.004403 
L 485.045326 150.965786 
L 489.62605 149.810139 
L 491.152958 149.337059 
L 492.679866 149.279102 
L 494.206774 149.342847 
L 497.260589 148.910277 
L 500.314405 147.956379 
L 501.841313 147.728704 
L 504.895129 147.893928 
L 506.422037 147.676415 
L 507.948944 147.334081 
L 509.475852 146.837607 
L 509.475852 146.837607 
" clip-path="url(#p34333996c4)" style="fill: none; stroke: #1f77b4; stroke-width: 2.5; stroke-linecap: square"/>
   </g>
   <g id="line2d_14">
    <path d="M 52.930398 165.96 
L 91.103095 165.844173 
L 103.318358 165.602478 
L 110.952897 165.248688 
L 117.060528 164.719599 
L 121.641252 164.124277 
L 124.695068 163.575268 
L 127.748884 162.809877 
L 130.802699 161.813729 
L 133.856515 160.492553 
L 136.910331 158.758595 
L 141.491054 155.248458 
L 144.54487 152.218096 
L 147.598686 148.118385 
L 150.652502 142.801635 
L 153.706317 136.361645 
L 155.233225 132.902554 
L 156.760133 128.231943 
L 162.867765 107.624593 
L 164.394673 100.400341 
L 167.448488 87.910364 
L 168.975396 82.514533 
L 170.502304 76.096746 
L 172.029212 68.5587 
L 173.55612 61.826735 
L 176.609936 45.80687 
L 178.136843 40.47828 
L 179.663751 33.943616 
L 181.190659 29.129582 
L 182.717567 25.855897 
L 184.244475 23.576202 
L 185.771383 19.052747 
L 187.298291 16.549662 
L 188.825199 14.76 
L 190.352106 15.666192 
L 191.879014 15.15984 
L 193.405922 14.797054 
L 194.93283 15.584645 
L 196.459738 15.534105 
L 197.986646 16.281405 
L 199.513554 21.728047 
L 201.040462 24.095783 
L 202.567369 25.910453 
L 204.094277 31.828918 
L 205.621185 32.743563 
L 207.148093 34.136896 
L 208.675001 39.805541 
L 210.201909 41.576072 
L 211.728817 47.547106 
L 213.255725 52.899624 
L 216.30954 59.23095 
L 217.836448 64.290498 
L 219.363356 68.549362 
L 220.890264 71.402373 
L 222.417172 74.631369 
L 223.94408 76.827479 
L 225.470988 81.138543 
L 226.997895 85.074836 
L 230.051711 91.477081 
L 231.578619 93.582244 
L 233.105527 95.282839 
L 234.632435 97.380076 
L 237.686251 104.459367 
L 239.213158 107.822303 
L 240.740066 110.104806 
L 242.266974 113.218269 
L 243.793882 115.410473 
L 245.32079 116.601766 
L 249.901514 122.813865 
L 251.428421 123.615226 
L 256.009145 128.94488 
L 257.536053 129.705258 
L 259.062961 130.730738 
L 260.589869 131.267784 
L 262.116777 132.003922 
L 263.643684 133.802233 
L 266.6975 135.060934 
L 268.224408 135.549226 
L 269.751316 136.688579 
L 274.33204 139.293544 
L 275.858947 139.861159 
L 278.912763 141.648613 
L 280.439671 142.027367 
L 281.966579 142.898947 
L 283.493487 143.379074 
L 285.020395 144.393083 
L 286.547303 144.684094 
L 288.07421 145.4891 
L 289.601118 145.669085 
L 291.128026 146.290269 
L 292.654934 146.560478 
L 294.181842 146.992026 
L 295.70875 147.724921 
L 297.235658 148.279697 
L 298.762566 148.418527 
L 300.289473 149.190265 
L 301.816381 149.803248 
L 303.343289 149.968954 
L 304.870197 150.642064 
L 307.924013 151.086102 
L 314.031644 153.231335 
L 315.558552 153.338743 
L 320.139276 154.156533 
L 321.666184 154.510813 
L 324.719999 154.636708 
L 327.773815 155.333798 
L 329.300723 155.666934 
L 339.989078 156.645275 
L 341.515986 156.781756 
L 343.042894 156.747791 
L 347.623618 157.061252 
L 350.677433 156.996828 
L 353.731249 157.212643 
L 358.311973 157.137955 
L 359.838881 157.312695 
L 365.946512 157.305626 
L 369.000328 157.345692 
L 370.527236 157.377531 
L 372.054144 157.286834 
L 373.581051 157.418358 
L 375.107959 157.325552 
L 379.688683 157.756625 
L 381.215591 157.622003 
L 384.269407 157.645772 
L 385.796314 157.659882 
L 388.85013 157.439677 
L 390.377038 157.569778 
L 391.903946 157.51045 
L 394.957762 157.657131 
L 396.48467 157.504836 
L 404.119209 157.289301 
L 408.699933 157.004239 
L 410.22684 157.108098 
L 413.280656 157.197222 
L 414.807564 157.309096 
L 417.86138 156.989431 
L 419.388288 156.886861 
L 422.442103 156.977395 
L 423.969011 156.947 
L 428.549735 156.35867 
L 434.657366 155.786735 
L 436.184274 155.875468 
L 442.291906 155.150536 
L 445.345722 155.208007 
L 446.872629 155.142584 
L 448.399537 154.828337 
L 449.926445 154.769375 
L 454.507169 154.20844 
L 456.034077 153.824306 
L 457.560985 153.687267 
L 459.087892 153.280487 
L 460.6148 153.218781 
L 462.141708 152.97066 
L 463.668616 153.026328 
L 466.722432 152.555221 
L 468.24934 152.606276 
L 469.776248 152.301256 
L 471.303155 151.852591 
L 475.883879 151.857686 
L 477.410787 151.506236 
L 478.937695 151.389199 
L 480.464603 151.141351 
L 481.991511 151.210676 
L 483.518418 151.004403 
L 485.045326 150.965786 
L 489.62605 149.810139 
L 491.152958 149.337059 
L 492.679866 149.279102 
L 494.206774 149.342847 
L 497.260589 148.910277 
L 500.314405 147.956379 
L 501.841313 147.728704 
L 504.895129 147.893928 
L 506.422037 147.676415 
L 507.948944 147.334081 
L 507.948944 147.334081 
" clip-path="url(#p34333996c4)" style="fill: none; stroke-dasharray: 5.55,2.4; stroke-dashoffset: 0; stroke: #000000; stroke-width: 1.5"/>
   </g>
   <g id="line2d_15">
    <path d="M 52.930398 157.19443 
L 54.457306 150.862471 
L 55.984213 153.787241 
L 57.511121 150.724808 
L 59.038029 158.677273 
L 60.564937 160.576622 
L 62.091845 156.096168 
L 63.618753 155.397858 
L 65.145661 159.936078 
L 66.672569 147.791754 
L 68.199476 155.432859 
L 69.726384 156.011391 
L 71.253292 152.92173 
L 72.7802 155.251587 
L 74.307108 161.463371 
L 75.834016 157.203441 
L 77.360924 162.011177 
L 78.887832 158.116565 
L 80.414739 159.437584 
L 81.941647 151.760241 
L 83.468555 160.388758 
L 84.995463 151.480343 
L 86.522371 149.215726 
L 88.049279 151.723487 
L 89.576187 150.236252 
L 91.103095 160.83001 
L 92.630002 161.745892 
L 94.15691 151.832607 
L 95.683818 150.065055 
L 97.210726 155.627516 
L 98.737634 154.43455 
L 100.264542 151.22765 
L 101.79145 154.62811 
L 103.318358 152.42838 
L 104.845265 148.012729 
L 106.372173 161.952005 
L 107.899081 152.985785 
L 109.425989 156.707133 
L 110.952897 158.074645 
L 112.479805 159.822417 
L 115.533621 148.946404 
L 117.060528 153.78605 
L 118.587436 153.923756 
L 120.114344 148.386537 
L 121.641252 150.674046 
L 123.16816 153.896972 
L 124.695068 156.281156 
L 126.221976 155.716494 
L 127.748884 156.831676 
L 129.275791 154.123777 
L 130.802699 157.127489 
L 132.329607 155.203832 
L 133.856515 157.370223 
L 135.383423 155.251263 
L 136.910331 161.171393 
L 138.437239 152.183718 
L 139.964147 150.793443 
L 141.491054 153.834911 
L 143.017962 150.77957 
L 144.54487 157.299127 
L 146.071778 154.196259 
L 147.598686 160.200328 
L 149.125594 153.57677 
L 150.652502 156.215851 
L 152.17941 154.074169 
L 153.706317 151.464447 
L 155.233225 161.535907 
L 156.760133 161.138036 
L 158.287041 154.682745 
L 159.813949 153.943043 
L 161.340857 150.764364 
L 162.867765 162.240213 
L 164.394673 154.268719 
L 165.92158 151.619334 
L 167.448488 147.884198 
L 170.502304 157.724665 
L 172.029212 154.551096 
L 173.55612 159.156607 
L 175.083028 160.768861 
L 176.609936 152.551244 
L 178.136843 157.841255 
L 179.663751 154.448548 
L 181.190659 152.142803 
L 182.717567 151.552827 
L 184.244475 159.398011 
L 185.771383 155.942022 
L 187.298291 155.96164 
L 188.825199 151.086815 
L 190.352106 156.184344 
L 191.879014 157.318664 
L 193.405922 155.873888 
L 194.93283 159.179051 
L 196.459738 158.361268 
L 197.986646 147.796292 
L 199.513554 156.12541 
L 201.040462 158.297317 
L 202.567369 148.157964 
L 204.094277 161.928867 
L 205.621185 161.173102 
L 207.148093 149.686254 
L 208.675001 160.876374 
L 210.201909 148.748176 
L 211.728817 150.166113 
L 213.255725 156.467399 
L 214.782632 157.219497 
L 216.30954 150.213593 
L 217.836448 152.471677 
L 219.363356 157.313535 
L 220.890264 155.675818 
L 222.417172 159.544861 
L 223.94408 150.67452 
L 225.470988 151.498099 
L 226.997895 154.176895 
L 228.524803 153.479825 
L 230.051711 158.382736 
L 231.578619 160.173537 
L 233.105527 157.909851 
L 234.632435 149.245762 
L 236.159343 149.342901 
L 237.686251 148.667247 
L 239.213158 154.339521 
L 240.740066 148.213142 
L 242.266974 153.405777 
L 243.793882 159.999787 
L 245.32079 153.365285 
L 246.847698 151.980685 
L 248.374606 151.777958 
L 249.901514 161.558416 
L 251.428421 153.2928 
L 252.955329 151.634021 
L 254.482237 151.195322 
L 256.009145 160.454536 
L 257.536053 157.486329 
L 259.062961 162.194649 
L 260.589869 159.874371 
L 262.116777 148.033383 
L 263.643684 159.912845 
L 265.170592 160.326522 
L 266.6975 161.398879 
L 268.224408 153.270321 
L 269.751316 156.249907 
L 271.278224 156.437124 
L 272.805132 153.9768 
L 274.33204 158.72472 
L 275.858947 153.801984 
L 277.385855 153.210592 
L 278.912763 160.415137 
L 280.439671 152.572278 
L 281.966579 158.190007 
L 283.493487 149.144418 
L 285.020395 160.600517 
L 286.547303 151.455412 
L 288.07421 162.032925 
L 289.601118 153.816573 
L 291.128026 159.896678 
L 292.654934 156.597277 
L 294.181842 150.384837 
L 295.70875 153.262348 
L 297.235658 161.440705 
L 298.762566 147.927506 
L 300.289473 150.515922 
L 301.816381 160.066395 
L 303.343289 148.139769 
L 304.870197 158.203564 
L 306.397105 157.888582 
L 307.924013 150.02549 
L 309.450921 147.812562 
L 310.977829 149.726044 
L 312.504736 147.747189 
L 314.031644 159.386677 
L 315.558552 155.160376 
L 317.08546 155.581386 
L 318.612368 151.259141 
L 320.139276 150.714545 
L 321.666184 159.946924 
L 323.193092 159.052225 
L 324.719999 151.731107 
L 326.246907 147.544008 
L 327.773815 149.337843 
L 329.300723 155.236017 
L 330.827631 152.340698 
L 332.354539 156.692539 
L 333.881447 153.344884 
L 335.408355 157.960449 
L 338.46217 153.502196 
L 339.989078 154.076402 
L 341.515986 160.677503 
L 343.042894 154.96423 
L 344.569802 156.937604 
L 346.09671 152.273424 
L 347.623618 159.847483 
L 349.150525 159.864874 
L 350.677433 153.300642 
L 352.204341 154.106055 
L 353.731249 160.216443 
L 355.258157 155.654427 
L 356.785065 160.547761 
L 358.311973 150.099547 
L 359.838881 158.40653 
L 361.365788 156.71413 
L 362.892696 158.072427 
L 364.419604 155.128768 
L 365.946512 153.926106 
L 367.47342 157.404976 
L 369.000328 154.912731 
L 370.527236 160.023212 
L 372.054144 150.362854 
L 373.581051 159.822171 
L 375.107959 147.954664 
L 376.634867 148.889604 
L 378.161775 150.917635 
L 379.688683 161.258813 
L 381.215591 152.594623 
L 382.742499 156.303574 
L 384.269407 154.120377 
L 385.796314 161.568195 
L 387.323222 157.231569 
L 388.85013 148.671218 
L 390.377038 156.781194 
L 391.903946 150.892053 
L 393.430854 150.586024 
L 394.957762 160.524778 
L 396.48467 154.892509 
L 398.011577 158.136856 
L 399.538485 151.844606 
L 401.065393 152.669318 
L 402.592301 158.553282 
L 404.119209 157.152592 
L 405.646117 153.251395 
L 407.173025 160.119214 
L 408.699933 148.295076 
L 410.22684 152.890513 
L 411.753748 148.193512 
L 413.280656 147.505561 
L 414.807564 160.412228 
L 416.334472 157.204771 
L 417.86138 156.092419 
L 419.388288 148.099774 
L 420.915196 151.619172 
L 422.442103 152.787465 
L 423.969011 160.977596 
L 425.495919 156.606608 
L 427.022827 160.0025 
L 428.549735 156.892996 
L 430.076643 155.142808 
L 431.603551 157.940628 
L 433.130459 155.464304 
L 434.657366 147.528555 
L 436.184274 158.274444 
L 437.711182 161.912992 
L 439.23809 154.601751 
L 440.764998 153.300216 
L 442.291906 148.134658 
L 443.818814 150.529253 
L 445.345722 152.453216 
L 446.872629 160.865379 
L 448.399537 152.022982 
L 449.926445 156.601942 
L 451.453353 158.940526 
L 452.980261 152.52495 
L 454.507169 161.902438 
L 456.034077 153.947381 
L 457.560985 161.973248 
L 459.087892 151.484152 
L 460.6148 156.842429 
L 462.141708 148.030154 
L 463.668616 155.61382 
L 465.195524 156.852545 
L 466.722432 148.114047 
L 468.24934 157.934077 
L 469.776248 161.606044 
L 471.303155 148.63019 
L 472.830063 151.422174 
L 474.356971 148.140371 
L 475.883879 158.620304 
L 477.410787 152.39374 
L 478.937695 155.679382 
L 480.464603 147.663099 
L 481.991511 154.556393 
L 483.518418 150.342516 
L 485.045326 158.040488 
L 486.572234 156.998133 
L 488.099142 160.924163 
L 489.62605 160.232759 
L 491.152958 150.718112 
L 492.679866 148.043411 
L 494.206774 155.300414 
L 495.733681 153.243737 
L 497.260589 159.856787 
L 498.787497 159.629247 
L 500.314405 154.273679 
L 501.841313 147.96991 
L 503.368221 148.011014 
L 504.895129 154.183604 
L 506.422037 156.696037 
L 507.948944 159.672029 
L 509.475852 159.957009 
L 509.475852 159.957009 
" clip-path="url(#p34333996c4)" style="fill: none; stroke: #ff7f0e; stroke-opacity: 0.5; stroke-width: 1.5; stroke-linecap: square"/>
   </g>
   <g id="patch_3">
    <path d="M 30.103125 173.52 
L 30.103125 7.2 
" style="fill: none; stroke: #000000; stroke-width: 0.8; stroke-linejoin: miter; stroke-linecap: square"/>
   </g>
   <g id="patch_4">
    <path d="M 532.303125 173.52 
L 532.303125 7.2 
" style="fill: none; stroke: #000000; stroke-width: 0.8; stroke-linejoin: miter; stroke-linecap: square"/>
   </g>
   <g id="patch_5">
    <path d="M 30.103125 173.52 
L 532.303125 173.52 
" style="fill: none; stroke: #000000; stroke-width: 0.8; stroke-linejoin: miter; stroke-linecap: square"/>
   </g>
   <g id="patch_6">
    <path d="M 30.103125 7.2 
L 532.303125 7.2 
" style="fill: none; stroke: #000000; stroke-width: 0.8; stroke-linejoin: miter; stroke-linecap: square"/>
   </g>
   <g id="legend_1">
    <g id="patch_7">
     <path d="M 442.103125 60.75625 
L 525.303125 60.75625 
Q 527.303125 60.75625 527.303125 58.75625 
L 527.303125 14.2 
Q 527.303125 12.2 525.303125 12.2 
L 442.103125 12.2 
Q 440.103125 12.2 440.103125 14.2 
L 440.103125 58.75625 
Q 440.103125 60.75625 442.103125 60.75625 
z
" style="fill: #ffffff; opacity: 0.8; stroke: #cccccc; stroke-linejoin: miter"/>
    </g>
    <g id="line2d_16">
     <path d="M 444.103125 20.298438 
L 454.103125 20.298438 
L 464.103125 20.298438 
" style="fill: none; stroke: #1f77b4; stroke-width: 2.5; stroke-linecap: square"/>
    </g>
    <g id="text_14">
     <!-- $I$ - Exact -->
     <g transform="translate(472.103125 23.798438) scale(0.1 -0.1)">
      <defs>
       <path id="DejaVuSans-Oblique-49" d="M 1081 4666 
L 1716 4666 
L 806 0 
L 172 0 
L 1081 4666 
z
" transform="scale(0.015625)"/>
       <path id="DejaVuSans-2d" d="M 313 2009 
L 1997 2009 
L 1997 1497 
L 313 1497 
L 313 2009 
z
" transform="scale(0.015625)"/>
       <path id="DejaVuSans-45" d="M 628 4666 
L 3578 4666 
L 3578 4134 
L 1259 4134 
L 1259 2753 
L 3481 2753 
L 3481 2222 
L 1259 2222 
L 1259 531 
L 3634 531 
L 3634 0 
L 628 0 
L 628 4666 
z
" transform="scale(0.015625)"/>
       <path id="DejaVuSans-78" d="M 3513 3500 
L 2247 1797 
L 3578 0 
L 2900 0 
L 1881 1375 
L 863 0 
L 184 0 
L 1544 1831 
L 300 3500 
L 978 3500 
L 1906 2253 
L 2834 3500 
L 3513 3500 
z
" transform="scale(0.015625)"/>
       <path id="DejaVuSans-63" d="M 3122 3366 
L 3122 2828 
Q 2878 2963 2633 3030 
Q 2388 3097 2138 3097 
Q 1578 3097 1268 2742 
Q 959 2388 959 1747 
Q 959 1106 1268 751 
Q 1578 397 2138 397 
Q 2388 397 2633 464 
Q 2878 531 3122 666 
L 3122 134 
Q 2881 22 2623 -34 
Q 2366 -91 2075 -91 
Q 1284 -91 818 406 
Q 353 903 353 1747 
Q 353 2603 823 3093 
Q 1294 3584 2113 3584 
Q 2378 3584 2631 3529 
Q 2884 3475 3122 3366 
z
" transform="scale(0.015625)"/>
      </defs>
      <use xlink:href="#DejaVuSans-Oblique-49" transform="translate(0 0.09375)"/>
      <use xlink:href="#DejaVuSans-20" transform="translate(29.492188 0.09375)"/>
      <use xlink:href="#DejaVuSans-2d" transform="translate(61.279297 0.09375)"/>
      <use xlink:href="#DejaVuSans-20" transform="translate(97.363281 0.09375)"/>
      <use xlink:href="#DejaVuSans-45" transform="translate(129.150391 0.09375)"/>
      <use xlink:href="#DejaVuSans-78" transform="translate(192.333984 0.09375)"/>
      <use xlink:href="#DejaVuSans-61" transform="translate(251.513672 0.09375)"/>
      <use xlink:href="#DejaVuSans-63" transform="translate(312.792969 0.09375)"/>
      <use xlink:href="#DejaVuSans-74" transform="translate(367.773438 0.09375)"/>
     </g>
    </g>
    <g id="line2d_17">
     <path d="M 444.103125 36.498438 
L 454.103125 36.498438 
L 464.103125 36.498438 
" style="fill: none; stroke-dasharray: 5.55,2.4; stroke-dashoffset: 0; stroke: #000000; stroke-width: 1.5"/>
    </g>
    <g id="text_15">
     <!-- $\hat{I}$ - Estim. -->
     <g transform="translate(472.103125 39.998438) scale(0.1 -0.1)">
      <defs>
       <path id="DejaVuSans-302" d="M -1831 5119 
L -1369 5119 
L -603 3944 
L -1038 3944 
L -1600 4709 
L -2163 3944 
L -2597 3944 
L -1831 5119 
z
M -1600 3584 
L -1600 3584 
z
" transform="scale(0.015625)"/>
      </defs>
      <use xlink:href="#DejaVuSans-302" transform="translate(42.951172 30.015625)"/>
      <use xlink:href="#DejaVuSans-Oblique-49" transform="translate(0 0.609375)"/>
      <use xlink:href="#DejaVuSans-20" transform="translate(29.492188 0.609375)"/>
      <use xlink:href="#DejaVuSans-2d" transform="translate(61.279297 0.609375)"/>
      <use xlink:href="#DejaVuSans-20" transform="translate(97.363281 0.609375)"/>
      <use xlink:href="#DejaVuSans-45" transform="translate(129.150391 0.609375)"/>
      <use xlink:href="#DejaVuSans-73" transform="translate(192.333984 0.609375)"/>
      <use xlink:href="#DejaVuSans-74" transform="translate(244.433594 0.609375)"/>
      <use xlink:href="#DejaVuSans-69" transform="translate(283.642578 0.609375)"/>
      <use xlink:href="#DejaVuSans-6d" transform="translate(311.425781 0.609375)"/>
      <use xlink:href="#DejaVuSans-2e" transform="translate(408.837891 0.609375)"/>
     </g>
    </g>
    <g id="line2d_18">
     <path d="M 444.103125 51.176563 
L 454.103125 51.176563 
L 464.103125 51.176563 
" style="fill: none; stroke: #ff7f0e; stroke-opacity: 0.5; stroke-width: 1.5; stroke-linecap: square"/>
    </g>
    <g id="text_16">
     <!-- $u$ - control -->
     <g transform="translate(472.103125 54.676563) scale(0.1 -0.1)">
      <defs>
       <path id="DejaVuSans-Oblique-75" d="M 428 1388 
L 838 3500 
L 1416 3500 
L 1006 1409 
Q 975 1256 961 1147 
Q 947 1038 947 966 
Q 947 700 1109 554 
Q 1272 409 1569 409 
Q 2031 409 2368 721 
Q 2706 1034 2809 1563 
L 3194 3500 
L 3769 3500 
L 3091 0 
L 2516 0 
L 2631 550 
Q 2388 244 2052 76 
Q 1716 -91 1338 -91 
Q 878 -91 622 161 
Q 366 413 366 863 
Q 366 956 381 1097 
Q 397 1238 428 1388 
z
" transform="scale(0.015625)"/>
       <path id="DejaVuSans-6f" d="M 1959 3097 
Q 1497 3097 1228 2736 
Q 959 2375 959 1747 
Q 959 1119 1226 758 
Q 1494 397 1959 397 
Q 2419 397 2687 759 
Q 2956 1122 2956 1747 
Q 2956 2369 2687 2733 
Q 2419 3097 1959 3097 
z
M 1959 3584 
Q 2709 3584 3137 3096 
Q 3566 2609 3566 1747 
Q 3566 888 3137 398 
Q 2709 -91 1959 -91 
Q 1206 -91 779 398 
Q 353 888 353 1747 
Q 353 2609 779 3096 
Q 1206 3584 1959 3584 
z
" transform="scale(0.015625)"/>
       <path id="DejaVuSans-6e" d="M 3513 2113 
L 3513 0 
L 2938 0 
L 2938 2094 
Q 2938 2591 2744 2837 
Q 2550 3084 2163 3084 
Q 1697 3084 1428 2787 
Q 1159 2491 1159 1978 
L 1159 0 
L 581 0 
L 581 3500 
L 1159 3500 
L 1159 2956 
Q 1366 3272 1645 3428 
Q 1925 3584 2291 3584 
Q 2894 3584 3203 3211 
Q 3513 2838 3513 2113 
z
" transform="scale(0.015625)"/>
       <path id="DejaVuSans-72" d="M 2631 2963 
Q 2534 3019 2420 3045 
Q 2306 3072 2169 3072 
Q 1681 3072 1420 2755 
Q 1159 2438 1159 1844 
L 1159 0 
L 581 0 
L 581 3500 
L 1159 3500 
L 1159 2956 
Q 1341 3275 1631 3429 
Q 1922 3584 2338 3584 
Q 2397 3584 2469 3576 
Q 2541 3569 2628 3553 
L 2631 2963 
z
" transform="scale(0.015625)"/>
       <path id="DejaVuSans-6c" d="M 603 4863 
L 1178 4863 
L 1178 0 
L 603 0 
L 603 4863 
z
" transform="scale(0.015625)"/>
      </defs>
      <use xlink:href="#DejaVuSans-Oblique-75" transform="translate(0 0.015625)"/>
      <use xlink:href="#DejaVuSans-20" transform="translate(63.378906 0.015625)"/>
      <use xlink:href="#DejaVuSans-2d" transform="translate(95.166016 0.015625)"/>
      <use xlink:href="#DejaVuSans-20" transform="translate(131.25 0.015625)"/>
      <use xlink:href="#DejaVuSans-63" transform="translate(163.037109 0.015625)"/>
      <use xlink:href="#DejaVuSans-6f" transform="translate(218.017578 0.015625)"/>
      <use xlink:href="#DejaVuSans-6e" transform="translate(279.199219 0.015625)"/>
      <use xlink:href="#DejaVuSans-74" transform="translate(342.578125 0.015625)"/>
      <use xlink:href="#DejaVuSans-72" transform="translate(381.787109 0.015625)"/>
      <use xlink:href="#DejaVuSans-6f" transform="translate(422.900391 0.015625)"/>
      <use xlink:href="#DejaVuSans-6c" transform="translate(484.082031 0.015625)"/>
     </g>
    </g>
   </g>
  </g>
 </g>
 <defs>
  <clipPath id="p34333996c4">
   <rect x="30.103125" y="7.2" width="502.2" height="166.32"/>
  </clipPath>
 </defs>
</svg>
