<?xml version="1.0" encoding="utf-8" standalone="no"?>
<!DOCTYPE svg PUBLIC "-//W3C//DTD SVG 1.1//EN"
  "http://www.w3.org/Graphics/SVG/1.1/DTD/svg11.dtd">
<svg xmlns:xlink="http://www.w3.org/1999/xlink" width="539.503125pt" height="212.209649pt" viewBox="0 0 539.503125 212.209649" xmlns="http://www.w3.org/2000/svg" version="1.1">
 <metadata>
  <rdf:RDF xmlns:dc="http://purl.org/dc/elements/1.1/" xmlns:cc="http://creativecommons.org/ns#" xmlns:rdf="http://www.w3.org/1999/02/22-rdf-syntax-ns#">
   <cc:Work>
    <dc:type rdf:resource="http://purl.org/dc/dcmitype/StillImage"/>
    <dc:date>2025-06-10T19:58:32.823838</dc:date>
    <dc:format>image/svg+xml</dc:format>
    <dc:creator>
     <cc:Agent>
      <dc:title>Matplotlib v3.6.3, https://matplotlib.org/</dc:title>
     </cc:Agent>
    </dc:creator>
   </cc:Work>
  </rdf:RDF>
 </metadata>
 <defs>
  <style type="text/css">*{stroke-linejoin: round; stroke-linecap: butt}</style>
 </defs>
 <g id="figure_1">
  <g id="patch_1">
   <path d="M 0 212.209649 
L 539.503125 212.209649 
L 539.503125 0 
L 0 0 
z
" style="fill: #ffffff"/>
  </g>
  <g id="axes_1">
   <g id="patch_2">
    <path d="M 30.103125 174.653399 
L 532.303125 174.653399 
L 532.303125 8.333399 
L 30.103125 8.333399 
z
" style="fill: #ffffff"/>
   </g>
   <g id="matplotlib.axis_1">
    <g id="xtick_1">
     <g id="line2d_1">
      <defs>
       <path id="mb5518b2ab4" d="M 0 0 
L 0 3.5 
" style="stroke: #000000; stroke-width: 0.8"/>
      </defs>
      <g>
       <use xlink:href="#mb5518b2ab4" x="52.930398" y="174.653399" style="stroke: #000000; stroke-width: 0.8"/>
      </g>
     </g>
     <g id="text_1">
      <!-- 0 -->
      <g transform="translate(49.749148 189.251836) scale(0.1 -0.1)">
       <defs>
        <path id="DejaVuSans-30" d="M 2034 4250 
Q 1547 4250 1301 3770 
Q 1056 3291 1056 2328 
Q 1056 1369 1301 889 
Q 1547 409 2034 409 
Q 2525 409 2770 889 
Q 3016 1369 3016 2328 
Q 3016 3291 2770 3770 
Q 2525 4250 2034 4250 
z
M 2034 4750 
Q 2819 4750 3233 4129 
Q 3647 3509 3647 2328 
Q 3647 1150 3233 529 
Q 2819 -91 2034 -91 
Q 1250 -91 836 529 
Q 422 1150 422 2328 
Q 422 3509 836 4129 
Q 1250 4750 2034 4750 
z
" transform="scale(0.015625)"/>
       </defs>
       <use xlink:href="#DejaVuSans-30"/>
      </g>
     </g>
    </g>
    <g id="xtick_2">
     <g id="line2d_2">
      <g>
       <use xlink:href="#mb5518b2ab4" x="129.275791" y="174.653399" style="stroke: #000000; stroke-width: 0.8"/>
      </g>
     </g>
     <g id="text_2">
      <!-- 50 -->
      <g transform="translate(122.913291 189.251836) scale(0.1 -0.1)">
       <defs>
        <path id="DejaVuSans-35" d="M 691 4666 
L 3169 4666 
L 3169 4134 
L 1269 4134 
L 1269 2991 
Q 1406 3038 1543 3061 
Q 1681 3084 1819 3084 
Q 2600 3084 3056 2656 
Q 3513 2228 3513 1497 
Q 3513 744 3044 326 
Q 2575 -91 1722 -91 
Q 1428 -91 1123 -41 
Q 819 9 494 109 
L 494 744 
Q 775 591 1075 516 
Q 1375 441 1709 441 
Q 2250 441 2565 725 
Q 2881 1009 2881 1497 
Q 2881 1984 2565 2268 
Q 2250 2553 1709 2553 
Q 1456 2553 1204 2497 
Q 953 2441 691 2322 
L 691 4666 
z
" transform="scale(0.015625)"/>
       </defs>
       <use xlink:href="#DejaVuSans-35"/>
       <use xlink:href="#DejaVuSans-30" x="63.623047"/>
      </g>
     </g>
    </g>
    <g id="xtick_3">
     <g id="line2d_3">
      <g>
       <use xlink:href="#mb5518b2ab4" x="205.621185" y="174.653399" style="stroke: #000000; stroke-width: 0.8"/>
      </g>
     </g>
     <g id="text_3">
      <!-- 100 -->
      <g transform="translate(196.077435 189.251836) scale(0.1 -0.1)">
       <defs>
        <path id="DejaVuSans-31" d="M 794 531 
L 1825 531 
L 1825 4091 
L 703 3866 
L 703 4441 
L 1819 4666 
L 2450 4666 
L 2450 531 
L 3481 531 
L 3481 0 
L 794 0 
L 794 531 
z
" transform="scale(0.015625)"/>
       </defs>
       <use xlink:href="#DejaVuSans-31"/>
       <use xlink:href="#DejaVuSans-30" x="63.623047"/>
       <use xlink:href="#DejaVuSans-30" x="127.246094"/>
      </g>
     </g>
    </g>
    <g id="xtick_4">
     <g id="line2d_4">
      <g>
       <use xlink:href="#mb5518b2ab4" x="281.966579" y="174.653399" style="stroke: #000000; stroke-width: 0.8"/>
      </g>
     </g>
     <g id="text_4">
      <!-- 150 -->
      <g transform="translate(272.422829 189.251836) scale(0.1 -0.1)">
       <use xlink:href="#DejaVuSans-31"/>
       <use xlink:href="#DejaVuSans-35" x="63.623047"/>
       <use xlink:href="#DejaVuSans-30" x="127.246094"/>
      </g>
     </g>
    </g>
    <g id="xtick_5">
     <g id="line2d_5">
      <g>
       <use xlink:href="#mb5518b2ab4" x="358.311973" y="174.653399" style="stroke: #000000; stroke-width: 0.8"/>
      </g>
     </g>
     <g id="text_5">
      <!-- 200 -->
      <g transform="translate(348.768223 189.251836) scale(0.1 -0.1)">
       <defs>
        <path id="DejaVuSans-32" d="M 1228 531 
L 3431 531 
L 3431 0 
L 469 0 
L 469 531 
Q 828 903 1448 1529 
Q 2069 2156 2228 2338 
Q 2531 2678 2651 2914 
Q 2772 3150 2772 3378 
Q 2772 3750 2511 3984 
Q 2250 4219 1831 4219 
Q 1534 4219 1204 4116 
Q 875 4013 500 3803 
L 500 4441 
Q 881 4594 1212 4672 
Q 1544 4750 1819 4750 
Q 2544 4750 2975 4387 
Q 3406 4025 3406 3419 
Q 3406 3131 3298 2873 
Q 3191 2616 2906 2266 
Q 2828 2175 2409 1742 
Q 1991 1309 1228 531 
z
" transform="scale(0.015625)"/>
       </defs>
       <use xlink:href="#DejaVuSans-32"/>
       <use xlink:href="#DejaVuSans-30" x="63.623047"/>
       <use xlink:href="#DejaVuSans-30" x="127.246094"/>
      </g>
     </g>
    </g>
    <g id="xtick_6">
     <g id="line2d_6">
      <g>
       <use xlink:href="#mb5518b2ab4" x="434.657366" y="174.653399" style="stroke: #000000; stroke-width: 0.8"/>
      </g>
     </g>
     <g id="text_6">
      <!-- 250 -->
      <g transform="translate(425.113616 189.251836) scale(0.1 -0.1)">
       <use xlink:href="#DejaVuSans-32"/>
       <use xlink:href="#DejaVuSans-35" x="63.623047"/>
       <use xlink:href="#DejaVuSans-30" x="127.246094"/>
      </g>
     </g>
    </g>
    <g id="xtick_7">
     <g id="line2d_7">
      <g>
       <use xlink:href="#mb5518b2ab4" x="511.00276" y="174.653399" style="stroke: #000000; stroke-width: 0.8"/>
      </g>
     </g>
     <g id="text_7">
      <!-- 300 -->
      <g transform="translate(501.45901 189.251836) scale(0.1 -0.1)">
       <defs>
        <path id="DejaVuSans-33" d="M 2597 2516 
Q 3050 2419 3304 2112 
Q 3559 1806 3559 1356 
Q 3559 666 3084 287 
Q 2609 -91 1734 -91 
Q 1441 -91 1130 -33 
Q 819 25 488 141 
L 488 750 
Q 750 597 1062 519 
Q 1375 441 1716 441 
Q 2309 441 2620 675 
Q 2931 909 2931 1356 
Q 2931 1769 2642 2001 
Q 2353 2234 1838 2234 
L 1294 2234 
L 1294 2753 
L 1863 2753 
Q 2328 2753 2575 2939 
Q 2822 3125 2822 3475 
Q 2822 3834 2567 4026 
Q 2313 4219 1838 4219 
Q 1578 4219 1281 4162 
Q 984 4106 628 3988 
L 628 4550 
Q 988 4650 1302 4700 
Q 1616 4750 1894 4750 
Q 2613 4750 3031 4423 
Q 3450 4097 3450 3541 
Q 3450 3153 3228 2886 
Q 3006 2619 2597 2516 
z
" transform="scale(0.015625)"/>
       </defs>
       <use xlink:href="#DejaVuSans-33"/>
       <use xlink:href="#DejaVuSans-30" x="63.623047"/>
       <use xlink:href="#DejaVuSans-30" x="127.246094"/>
      </g>
     </g>
    </g>
    <g id="text_8">
     <!-- time (days) -->
     <g transform="translate(252.614062 202.929961) scale(0.1 -0.1)">
      <defs>
       <path id="DejaVuSans-74" d="M 1172 4494 
L 1172 3500 
L 2356 3500 
L 2356 3053 
L 1172 3053 
L 1172 1153 
Q 1172 725 1289 603 
Q 1406 481 1766 481 
L 2356 481 
L 2356 0 
L 1766 0 
Q 1100 0 847 248 
Q 594 497 594 1153 
L 594 3053 
L 172 3053 
L 172 3500 
L 594 3500 
L 594 4494 
L 1172 4494 
z
" transform="scale(0.015625)"/>
       <path id="DejaVuSans-69" d="M 603 3500 
L 1178 3500 
L 1178 0 
L 603 0 
L 603 3500 
z
M 603 4863 
L 1178 4863 
L 1178 4134 
L 603 4134 
L 603 4863 
z
" transform="scale(0.015625)"/>
       <path id="DejaVuSans-6d" d="M 3328 2828 
Q 3544 3216 3844 3400 
Q 4144 3584 4550 3584 
Q 5097 3584 5394 3201 
Q 5691 2819 5691 2113 
L 5691 0 
L 5113 0 
L 5113 2094 
Q 5113 2597 4934 2840 
Q 4756 3084 4391 3084 
Q 3944 3084 3684 2787 
Q 3425 2491 3425 1978 
L 3425 0 
L 2847 0 
L 2847 2094 
Q 2847 2600 2669 2842 
Q 2491 3084 2119 3084 
Q 1678 3084 1418 2786 
Q 1159 2488 1159 1978 
L 1159 0 
L 581 0 
L 581 3500 
L 1159 3500 
L 1159 2956 
Q 1356 3278 1631 3431 
Q 1906 3584 2284 3584 
Q 2666 3584 2933 3390 
Q 3200 3197 3328 2828 
z
" transform="scale(0.015625)"/>
       <path id="DejaVuSans-65" d="M 3597 1894 
L 3597 1613 
L 953 1613 
Q 991 1019 1311 708 
Q 1631 397 2203 397 
Q 2534 397 2845 478 
Q 3156 559 3463 722 
L 3463 178 
Q 3153 47 2828 -22 
Q 2503 -91 2169 -91 
Q 1331 -91 842 396 
Q 353 884 353 1716 
Q 353 2575 817 3079 
Q 1281 3584 2069 3584 
Q 2775 3584 3186 3129 
Q 3597 2675 3597 1894 
z
M 3022 2063 
Q 3016 2534 2758 2815 
Q 2500 3097 2075 3097 
Q 1594 3097 1305 2825 
Q 1016 2553 972 2059 
L 3022 2063 
z
" transform="scale(0.015625)"/>
       <path id="DejaVuSans-20" transform="scale(0.015625)"/>
       <path id="DejaVuSans-28" d="M 1984 4856 
Q 1566 4138 1362 3434 
Q 1159 2731 1159 2009 
Q 1159 1288 1364 580 
Q 1569 -128 1984 -844 
L 1484 -844 
Q 1016 -109 783 600 
Q 550 1309 550 2009 
Q 550 2706 781 3412 
Q 1013 4119 1484 4856 
L 1984 4856 
z
" transform="scale(0.015625)"/>
       <path id="DejaVuSans-64" d="M 2906 2969 
L 2906 4863 
L 3481 4863 
L 3481 0 
L 2906 0 
L 2906 525 
Q 2725 213 2448 61 
Q 2172 -91 1784 -91 
Q 1150 -91 751 415 
Q 353 922 353 1747 
Q 353 2572 751 3078 
Q 1150 3584 1784 3584 
Q 2172 3584 2448 3432 
Q 2725 3281 2906 2969 
z
M 947 1747 
Q 947 1113 1208 752 
Q 1469 391 1925 391 
Q 2381 391 2643 752 
Q 2906 1113 2906 1747 
Q 2906 2381 2643 2742 
Q 2381 3103 1925 3103 
Q 1469 3103 1208 2742 
Q 947 2381 947 1747 
z
" transform="scale(0.015625)"/>
       <path id="DejaVuSans-61" d="M 2194 1759 
Q 1497 1759 1228 1600 
Q 959 1441 959 1056 
Q 959 750 1161 570 
Q 1363 391 1709 391 
Q 2188 391 2477 730 
Q 2766 1069 2766 1631 
L 2766 1759 
L 2194 1759 
z
M 3341 1997 
L 3341 0 
L 2766 0 
L 2766 531 
Q 2569 213 2275 61 
Q 1981 -91 1556 -91 
Q 1019 -91 701 211 
Q 384 513 384 1019 
Q 384 1609 779 1909 
Q 1175 2209 1959 2209 
L 2766 2209 
L 2766 2266 
Q 2766 2663 2505 2880 
Q 2244 3097 1772 3097 
Q 1472 3097 1187 3025 
Q 903 2953 641 2809 
L 641 3341 
Q 956 3463 1253 3523 
Q 1550 3584 1831 3584 
Q 2591 3584 2966 3190 
Q 3341 2797 3341 1997 
z
" transform="scale(0.015625)"/>
       <path id="DejaVuSans-79" d="M 2059 -325 
Q 1816 -950 1584 -1140 
Q 1353 -1331 966 -1331 
L 506 -1331 
L 506 -850 
L 844 -850 
Q 1081 -850 1212 -737 
Q 1344 -625 1503 -206 
L 1606 56 
L 191 3500 
L 800 3500 
L 1894 763 
L 2988 3500 
L 3597 3500 
L 2059 -325 
z
" transform="scale(0.015625)"/>
       <path id="DejaVuSans-73" d="M 2834 3397 
L 2834 2853 
Q 2591 2978 2328 3040 
Q 2066 3103 1784 3103 
Q 1356 3103 1142 2972 
Q 928 2841 928 2578 
Q 928 2378 1081 2264 
Q 1234 2150 1697 2047 
L 1894 2003 
Q 2506 1872 2764 1633 
Q 3022 1394 3022 966 
Q 3022 478 2636 193 
Q 2250 -91 1575 -91 
Q 1294 -91 989 -36 
Q 684 19 347 128 
L 347 722 
Q 666 556 975 473 
Q 1284 391 1588 391 
Q 1994 391 2212 530 
Q 2431 669 2431 922 
Q 2431 1156 2273 1281 
Q 2116 1406 1581 1522 
L 1381 1569 
Q 847 1681 609 1914 
Q 372 2147 372 2553 
Q 372 3047 722 3315 
Q 1072 3584 1716 3584 
Q 2034 3584 2315 3537 
Q 2597 3491 2834 3397 
z
" transform="scale(0.015625)"/>
       <path id="DejaVuSans-29" d="M 513 4856 
L 1013 4856 
Q 1481 4119 1714 3412 
Q 1947 2706 1947 2009 
Q 1947 1309 1714 600 
Q 1481 -109 1013 -844 
L 513 -844 
Q 928 -128 1133 580 
Q 1338 1288 1338 2009 
Q 1338 2731 1133 3434 
Q 928 4138 513 4856 
z
" transform="scale(0.015625)"/>
      </defs>
      <use xlink:href="#DejaVuSans-74"/>
      <use xlink:href="#DejaVuSans-69" x="39.208984"/>
      <use xlink:href="#DejaVuSans-6d" x="66.992188"/>
      <use xlink:href="#DejaVuSans-65" x="164.404297"/>
      <use xlink:href="#DejaVuSans-20" x="225.927734"/>
      <use xlink:href="#DejaVuSans-28" x="257.714844"/>
      <use xlink:href="#DejaVuSans-64" x="296.728516"/>
      <use xlink:href="#DejaVuSans-61" x="360.205078"/>
      <use xlink:href="#DejaVuSans-79" x="421.484375"/>
      <use xlink:href="#DejaVuSans-73" x="480.664062"/>
      <use xlink:href="#DejaVuSans-29" x="532.763672"/>
     </g>
    </g>
   </g>
   <g id="matplotlib.axis_2">
    <g id="ytick_1">
     <g id="line2d_8">
      <defs>
       <path id="m2a6dfb3534" d="M 0 0 
L -3.5 0 
" style="stroke: #000000; stroke-width: 0.8"/>
      </defs>
      <g>
       <use xlink:href="#m2a6dfb3534" x="30.103125" y="167.097301" style="stroke: #000000; stroke-width: 0.8"/>
      </g>
     </g>
     <g id="text_9">
      <!-- 0.0 -->
      <g transform="translate(7.2 170.89652) scale(0.1 -0.1)">
       <defs>
        <path id="DejaVuSans-2e" d="M 684 794 
L 1344 794 
L 1344 0 
L 684 0 
L 684 794 
z
" transform="scale(0.015625)"/>
       </defs>
       <use xlink:href="#DejaVuSans-30"/>
       <use xlink:href="#DejaVuSans-2e" x="63.623047"/>
       <use xlink:href="#DejaVuSans-30" x="95.410156"/>
      </g>
     </g>
    </g>
    <g id="ytick_2">
     <g id="line2d_9">
      <g>
       <use xlink:href="#m2a6dfb3534" x="30.103125" y="128.072781" style="stroke: #000000; stroke-width: 0.8"/>
      </g>
     </g>
     <g id="text_10">
      <!-- 0.1 -->
      <g transform="translate(7.2 131.871999) scale(0.1 -0.1)">
       <use xlink:href="#DejaVuSans-30"/>
       <use xlink:href="#DejaVuSans-2e" x="63.623047"/>
       <use xlink:href="#DejaVuSans-31" x="95.410156"/>
      </g>
     </g>
    </g>
    <g id="ytick_3">
     <g id="line2d_10">
      <g>
       <use xlink:href="#m2a6dfb3534" x="30.103125" y="89.04826" style="stroke: #000000; stroke-width: 0.8"/>
      </g>
     </g>
     <g id="text_11">
      <!-- 0.2 -->
      <g transform="translate(7.2 92.847479) scale(0.1 -0.1)">
       <use xlink:href="#DejaVuSans-30"/>
       <use xlink:href="#DejaVuSans-2e" x="63.623047"/>
       <use xlink:href="#DejaVuSans-32" x="95.410156"/>
      </g>
     </g>
    </g>
    <g id="ytick_4">
     <g id="line2d_11">
      <g>
       <use xlink:href="#m2a6dfb3534" x="30.103125" y="50.023739" style="stroke: #000000; stroke-width: 0.8"/>
      </g>
     </g>
     <g id="text_12">
      <!-- 0.3 -->
      <g transform="translate(7.2 53.822958) scale(0.1 -0.1)">
       <use xlink:href="#DejaVuSans-30"/>
       <use xlink:href="#DejaVuSans-2e" x="63.623047"/>
       <use xlink:href="#DejaVuSans-33" x="95.410156"/>
      </g>
     </g>
    </g>
    <g id="ytick_5">
     <g id="line2d_12">
      <g>
       <use xlink:href="#m2a6dfb3534" x="30.103125" y="10.999219" style="stroke: #000000; stroke-width: 0.8"/>
      </g>
     </g>
     <g id="text_13">
      <!-- 0.4 -->
      <g transform="translate(7.2 14.798437) scale(0.1 -0.1)">
       <defs>
        <path id="DejaVuSans-34" d="M 2419 4116 
L 825 1625 
L 2419 1625 
L 2419 4116 
z
M 2253 4666 
L 3047 4666 
L 3047 1625 
L 3713 1625 
L 3713 1100 
L 3047 1100 
L 3047 0 
L 2419 0 
L 2419 1100 
L 313 1100 
L 313 1709 
L 2253 4666 
z
" transform="scale(0.015625)"/>
       </defs>
       <use xlink:href="#DejaVuSans-30"/>
       <use xlink:href="#DejaVuSans-2e" x="63.623047"/>
       <use xlink:href="#DejaVuSans-34" x="95.410156"/>
      </g>
     </g>
    </g>
   </g>
   <g id="line2d_13">
    <path d="M 52.930398 167.093399 
L 89.576187 166.98567 
L 101.79145 166.746478 
L 109.425989 166.386314 
L 114.006713 166.023943 
L 118.587436 165.47878 
L 121.641252 165.036879 
L 126.221976 163.922148 
L 129.275791 163.021939 
L 132.329607 161.605099 
L 135.383423 159.713282 
L 138.437239 157.564344 
L 139.964147 156.047894 
L 141.491054 154.704394 
L 143.017962 153.077308 
L 144.54487 151.089477 
L 147.598686 146.285882 
L 149.125594 143.366063 
L 152.17941 136.540034 
L 155.233225 128.659694 
L 156.760133 123.422677 
L 159.813949 114.272166 
L 161.340857 109.469631 
L 162.867765 103.753487 
L 164.394673 98.561477 
L 165.92158 90.925473 
L 170.502304 70.616226 
L 172.029212 62.209656 
L 173.55612 56.795058 
L 175.083028 48.108175 
L 176.609936 43.739552 
L 178.136843 36.667694 
L 179.663751 33.612271 
L 181.190659 30.192938 
L 182.717567 26.345297 
L 184.244475 22.82536 
L 185.771383 21.387922 
L 187.298291 21.268961 
L 188.825199 18.324559 
L 190.352106 17.738243 
L 191.879014 18.112169 
L 193.405922 15.893399 
L 194.93283 18.159221 
L 196.459738 19.839045 
L 197.986646 24.259627 
L 199.513554 27.487417 
L 201.040462 31.302652 
L 202.567369 31.499016 
L 204.094277 35.599794 
L 205.621185 39.17889 
L 207.148093 40.825487 
L 208.675001 46.412829 
L 211.728817 51.814608 
L 213.255725 57.447046 
L 216.30954 65.15756 
L 217.836448 67.524467 
L 219.363356 70.254739 
L 220.890264 73.29608 
L 222.417172 75.143431 
L 223.94408 79.31957 
L 225.470988 83.834887 
L 228.524803 89.475206 
L 230.051711 91.266277 
L 231.578619 94.72667 
L 233.105527 96.735583 
L 239.213158 108.399034 
L 242.266974 111.21583 
L 245.32079 113.08258 
L 246.847698 115.923396 
L 248.374606 117.571462 
L 249.901514 120.02222 
L 251.428421 122.144317 
L 252.955329 124.01018 
L 254.482237 124.9962 
L 256.009145 126.794493 
L 259.062961 128.876774 
L 262.116777 130.630224 
L 263.643684 132.195191 
L 265.170592 133.293502 
L 268.224408 135.815712 
L 269.751316 136.414809 
L 271.278224 137.556121 
L 272.805132 137.957494 
L 274.33204 139.431198 
L 275.858947 140.34441 
L 277.385855 140.753598 
L 280.439671 143.155076 
L 281.966579 143.532788 
L 283.493487 144.223277 
L 286.547303 144.873256 
L 288.07421 145.487089 
L 289.601118 146.457747 
L 291.128026 146.881144 
L 294.181842 147.469568 
L 295.70875 148.351344 
L 298.762566 149.799129 
L 300.289473 150.202296 
L 301.816381 150.759162 
L 303.343289 151.447792 
L 306.397105 151.742059 
L 310.977829 153.41782 
L 314.031644 153.563305 
L 315.558552 153.623181 
L 317.08546 154.083638 
L 320.139276 154.237739 
L 321.666184 154.642895 
L 323.193092 154.74341 
L 326.246907 155.555513 
L 329.300723 155.569596 
L 332.354539 156.201007 
L 333.881447 156.142833 
L 335.408355 156.467492 
L 336.935262 156.566733 
L 338.46217 156.821849 
L 339.989078 156.759504 
L 341.515986 156.879739 
L 346.09671 157.619749 
L 350.677433 157.660185 
L 352.204341 157.88276 
L 355.258157 157.799338 
L 358.311973 157.791065 
L 359.838881 157.665768 
L 361.365788 157.893167 
L 367.47342 157.947862 
L 370.527236 158.2296 
L 372.054144 158.216101 
L 378.161775 158.65979 
L 379.688683 158.498773 
L 381.215591 158.454782 
L 382.742499 158.285805 
L 394.957762 158.4899 
L 396.48467 158.604753 
L 398.011577 158.56048 
L 399.538485 158.693367 
L 401.065393 158.661675 
L 402.592301 158.494834 
L 405.646117 158.678982 
L 408.699933 158.271977 
L 411.753748 158.358911 
L 414.807564 158.246569 
L 417.86138 157.783788 
L 420.915196 157.873884 
L 422.442103 157.652628 
L 423.969011 157.654447 
L 430.076643 156.997947 
L 431.603551 156.712428 
L 433.130459 156.567517 
L 434.657366 156.601192 
L 437.711182 156.148187 
L 443.818814 155.20648 
L 449.926445 155.324049 
L 452.980261 154.590608 
L 454.507169 154.644361 
L 456.034077 154.51779 
L 460.6148 153.790608 
L 462.141708 153.812034 
L 463.668616 153.633468 
L 465.195524 153.325639 
L 466.722432 153.201506 
L 469.776248 152.63493 
L 471.303155 152.233597 
L 474.356971 152.172635 
L 477.410787 151.257136 
L 478.937695 150.965243 
L 480.464603 150.964761 
L 481.991511 150.798972 
L 486.572234 150.903958 
L 488.099142 150.602518 
L 491.152958 150.435586 
L 498.787497 148.195247 
L 500.314405 147.682851 
L 501.841313 147.411735 
L 503.368221 146.83918 
L 504.895129 146.387616 
L 506.422037 146.144896 
L 507.948944 145.678892 
L 509.475852 145.010876 
L 509.475852 145.010876 
" clip-path="url(#p5d83798305)" style="fill: none; stroke: #1f77b4; stroke-width: 2.5; stroke-linecap: square"/>
   </g>
   <g id="line2d_14">
    <path d="M 52.930398 167.093399 
L 89.576187 166.98567 
L 101.79145 166.746478 
L 109.425989 166.386314 
L 114.006713 166.023943 
L 118.587436 165.47878 
L 121.641252 165.036879 
L 126.221976 163.922148 
L 129.275791 163.021939 
L 132.329607 161.605099 
L 135.383423 159.713282 
L 138.437239 157.564344 
L 139.964147 156.047894 
L 141.491054 154.704394 
L 143.017962 153.077308 
L 144.54487 151.089477 
L 147.598686 146.285882 
L 149.125594 143.366063 
L 152.17941 136.540034 
L 155.233225 128.659694 
L 156.760133 123.422677 
L 159.813949 114.272166 
L 161.340857 109.469631 
L 162.867765 103.753487 
L 164.394673 98.561477 
L 165.92158 90.925473 
L 170.502304 70.616226 
L 172.029212 62.209656 
L 173.55612 56.795058 
L 175.083028 48.108175 
L 176.609936 43.739552 
L 178.136843 36.667694 
L 179.663751 33.612271 
L 181.190659 30.192938 
L 182.717567 26.345297 
L 184.244475 22.82536 
L 185.771383 21.387922 
L 187.298291 21.268961 
L 188.825199 18.324559 
L 190.352106 17.738243 
L 191.879014 18.112169 
L 193.405922 15.893399 
L 194.93283 18.159221 
L 196.459738 19.839045 
L 197.986646 24.259627 
L 199.513554 27.487417 
L 201.040462 31.302652 
L 202.567369 31.499016 
L 204.094277 35.599794 
L 205.621185 39.17889 
L 207.148093 40.825487 
L 208.675001 46.412829 
L 211.728817 51.814608 
L 213.255725 57.447046 
L 216.30954 65.15756 
L 217.836448 67.524467 
L 219.363356 70.254739 
L 220.890264 73.29608 
L 222.417172 75.143431 
L 223.94408 79.31957 
L 225.470988 83.834887 
L 228.524803 89.475206 
L 230.051711 91.266277 
L 231.578619 94.72667 
L 233.105527 96.735583 
L 239.213158 108.399034 
L 242.266974 111.21583 
L 245.32079 113.08258 
L 246.847698 115.923396 
L 248.374606 117.571462 
L 249.901514 120.02222 
L 251.428421 122.144317 
L 252.955329 124.01018 
L 254.482237 124.9962 
L 256.009145 126.794493 
L 259.062961 128.876774 
L 262.116777 130.630224 
L 263.643684 132.195191 
L 265.170592 133.293502 
L 268.224408 135.815712 
L 269.751316 136.414809 
L 271.278224 137.556121 
L 272.805132 137.957494 
L 274.33204 139.431198 
L 275.858947 140.34441 
L 277.385855 140.753598 
L 280.439671 143.155076 
L 281.966579 143.532788 
L 283.493487 144.223277 
L 286.547303 144.873256 
L 288.07421 145.487089 
L 289.601118 146.457747 
L 291.128026 146.881144 
L 294.181842 147.469568 
L 295.70875 148.351344 
L 298.762566 149.799129 
L 300.289473 150.202296 
L 301.816381 150.759162 
L 303.343289 151.447792 
L 306.397105 151.742059 
L 310.977829 153.41782 
L 314.031644 153.563305 
L 315.558552 153.623181 
L 317.08546 154.083638 
L 320.139276 154.237739 
L 321.666184 154.642895 
L 323.193092 154.74341 
L 326.246907 155.555513 
L 329.300723 155.569596 
L 332.354539 156.201007 
L 333.881447 156.142833 
L 335.408355 156.467492 
L 336.935262 156.566733 
L 338.46217 156.821849 
L 339.989078 156.759504 
L 341.515986 156.879739 
L 346.09671 157.619749 
L 350.677433 157.660185 
L 352.204341 157.88276 
L 355.258157 157.799338 
L 358.311973 157.791065 
L 359.838881 157.665768 
L 361.365788 157.893167 
L 367.47342 157.947862 
L 370.527236 158.2296 
L 372.054144 158.216101 
L 378.161775 158.65979 
L 379.688683 158.498773 
L 381.215591 158.454782 
L 382.742499 158.285805 
L 394.957762 158.4899 
L 396.48467 158.604753 
L 398.011577 158.56048 
L 399.538485 158.693367 
L 401.065393 158.661675 
L 402.592301 158.494834 
L 405.646117 158.678982 
L 408.699933 158.271977 
L 411.753748 158.358911 
L 414.807564 158.246569 
L 417.86138 157.783788 
L 420.915196 157.873884 
L 422.442103 157.652628 
L 423.969011 157.654447 
L 430.076643 156.997947 
L 431.603551 156.712428 
L 433.130459 156.567517 
L 434.657366 156.601192 
L 437.711182 156.148187 
L 443.818814 155.20648 
L 449.926445 155.324049 
L 452.980261 154.590608 
L 454.507169 154.644361 
L 456.034077 154.51779 
L 460.6148 153.790608 
L 462.141708 153.812034 
L 463.668616 153.633468 
L 465.195524 153.325639 
L 466.722432 153.201506 
L 469.776248 152.63493 
L 471.303155 152.233597 
L 474.356971 152.172635 
L 477.410787 151.257136 
L 478.937695 150.965243 
L 480.464603 150.964761 
L 481.991511 150.798972 
L 486.572234 150.903958 
L 488.099142 150.602518 
L 491.152958 150.435586 
L 498.787497 148.195247 
L 500.314405 147.682851 
L 501.841313 147.411735 
L 503.368221 146.83918 
L 504.895129 146.387616 
L 506.422037 146.144896 
L 507.948944 145.678892 
L 507.948944 145.678892 
" clip-path="url(#p5d83798305)" style="fill: none; stroke-dasharray: 5.55,2.4; stroke-dashoffset: 0; stroke: #000000; stroke-width: 1.5"/>
   </g>
   <g id="line2d_15">
    <path d="M 52.930398 151.539267 
L 54.457306 159.50926 
L 55.984213 154.851376 
L 57.511121 159.666216 
L 59.038029 161.403543 
L 60.564937 153.93234 
L 62.091845 161.304307 
L 63.618753 157.048889 
L 65.145661 158.213582 
L 66.672569 151.525213 
L 68.199476 157.302059 
L 69.726384 156.102899 
L 71.253292 159.281427 
L 72.7802 158.961423 
L 74.307108 150.608412 
L 75.834016 147.924427 
L 77.360924 157.667043 
L 78.887832 159.980173 
L 80.414739 158.438993 
L 81.941647 151.109081 
L 84.995463 156.374887 
L 86.522371 152.685359 
L 88.049279 159.084001 
L 89.576187 161.109628 
L 91.103095 161.158638 
L 92.630002 149.054688 
L 94.15691 158.291695 
L 95.683818 159.94051 
L 97.210726 156.95869 
L 98.737634 152.813847 
L 100.264542 162.746019 
L 101.79145 160.348811 
L 103.318358 161.136924 
L 104.845265 158.875818 
L 106.372173 149.430099 
L 107.899081 155.182455 
L 109.425989 151.911689 
L 110.952897 151.649496 
L 112.479805 162.368456 
L 114.006713 152.377323 
L 115.533621 162.525163 
L 117.060528 150.845364 
L 118.587436 148.316112 
L 120.114344 148.00383 
L 121.641252 162.346634 
L 123.16816 154.501408 
L 124.695068 159.578788 
L 126.221976 150.198435 
L 127.748884 150.644763 
L 129.275791 161.687605 
L 130.802699 161.548614 
L 132.329607 162.364329 
L 133.856515 160.541545 
L 135.383423 153.314042 
L 136.910331 152.424586 
L 138.437239 162.251171 
L 139.964147 147.990408 
L 141.491054 152.200034 
L 143.017962 156.767593 
L 144.54487 162.102753 
L 146.071778 151.931734 
L 147.598686 158.009474 
L 149.125594 159.205368 
L 150.652502 154.89629 
L 152.17941 154.417226 
L 153.706317 153.291401 
L 155.233225 161.333869 
L 156.760133 149.414779 
L 158.287041 148.912136 
L 159.813949 148.02688 
L 161.340857 152.955734 
L 162.867765 148.03614 
L 164.394673 161.451548 
L 165.92158 155.302249 
L 167.448488 152.737807 
L 168.975396 154.472269 
L 170.502304 160.736244 
L 172.029212 149.275245 
L 173.55612 162.339107 
L 175.083028 148.394784 
L 176.609936 158.943985 
L 178.136843 148.150158 
L 181.190659 154.688057 
L 182.717567 155.67468 
L 184.244475 151.89909 
L 185.771383 150.319467 
L 187.298291 159.737483 
L 188.825199 155.11141 
L 190.352106 154.212183 
L 191.879014 162.49478 
L 193.405922 152.206065 
L 194.93283 154.933838 
L 196.459738 148.778478 
L 197.986646 152.726276 
L 199.513554 151.815413 
L 201.040462 162.755322 
L 202.567369 152.268074 
L 204.094277 154.139988 
L 205.621185 160.354041 
L 207.148093 148.659876 
L 208.675001 157.853188 
L 210.201909 157.774331 
L 211.728817 148.1927 
L 213.255725 153.613429 
L 214.782632 153.972797 
L 216.30954 159.121776 
L 219.363356 156.36794 
L 220.890264 161.120844 
L 222.417172 151.242072 
L 223.94408 149.031639 
L 225.470988 156.041611 
L 226.997895 155.595096 
L 228.524803 160.384189 
L 230.051711 151.639739 
L 231.578619 158.662359 
L 233.105527 153.235636 
L 236.159343 152.339608 
L 237.686251 150.670412 
L 239.213158 160.64231 
L 240.740066 159.430568 
L 242.266974 162.941156 
L 243.793882 162.797435 
L 245.32079 148.85056 
L 246.847698 156.755856 
L 248.374606 149.951296 
L 249.901514 151.602874 
L 251.428421 152.920462 
L 252.955329 160.103959 
L 254.482237 152.275167 
L 256.009145 158.195343 
L 257.536053 158.97524 
L 259.062961 160.051334 
L 260.589869 159.020197 
L 262.116777 151.681553 
L 263.643684 156.03555 
L 265.170592 153.398339 
L 266.6975 153.193512 
L 268.224408 160.476019 
L 269.751316 153.303535 
L 271.278224 162.385613 
L 272.805132 147.816119 
L 275.858947 161.305301 
L 277.385855 148.285305 
L 278.912763 149.404944 
L 280.439671 160.677651 
L 281.966579 155.245138 
L 283.493487 160.784454 
L 285.020395 160.940824 
L 286.547303 155.432837 
L 288.07421 148.525455 
L 289.601118 157.889185 
L 291.128026 160.839391 
L 292.654934 159.019268 
L 294.181842 147.872137 
L 295.70875 149.805079 
L 297.235658 149.761301 
L 298.762566 155.80584 
L 301.816381 148.10584 
L 303.343289 159.637362 
L 304.870197 161.570608 
L 306.397105 150.431317 
L 309.450921 147.721505 
L 310.977829 162.933906 
L 312.504736 159.691491 
L 314.031644 161.389192 
L 315.558552 149.597479 
L 317.08546 161.057446 
L 318.612368 159.630305 
L 320.139276 150.092345 
L 321.666184 159.056788 
L 323.193092 148.388065 
L 324.719999 149.389177 
L 326.246907 162.9456 
L 327.773815 159.716253 
L 329.300723 150.036298 
L 330.827631 150.68716 
L 332.354539 163.008787 
L 333.881447 149.175543 
L 335.408355 156.91582 
L 336.935262 150.92177 
L 338.46217 162.561081 
L 339.989078 155.471355 
L 341.515986 150.911334 
L 343.042894 147.940015 
L 344.569802 151.125971 
L 346.09671 158.729391 
L 347.623618 156.765528 
L 349.150525 160.151914 
L 350.677433 149.535676 
L 352.204341 162.102664 
L 353.731249 158.37259 
L 355.258157 156.549132 
L 356.785065 160.039195 
L 358.311973 163.107775 
L 359.838881 148.271761 
L 361.365788 157.384851 
L 362.892696 156.827395 
L 364.419604 158.320642 
L 365.946512 154.175019 
L 367.47342 151.140403 
L 369.000328 150.253541 
L 370.527236 157.09771 
L 372.054144 150.435938 
L 373.581051 148.397796 
L 375.107959 148.027043 
L 376.634867 157.716691 
L 378.161775 163.127521 
L 379.688683 157.513726 
L 381.215591 162.987117 
L 382.742499 154.219482 
L 384.269407 157.612643 
L 385.796314 149.006745 
L 387.323222 150.884237 
L 388.85013 162.439273 
L 390.377038 149.025731 
L 391.903946 153.205206 
L 393.430854 151.9729 
L 394.957762 148.783268 
L 396.48467 155.87847 
L 398.011577 147.623002 
L 399.538485 155.024802 
L 401.065393 161.126667 
L 402.592301 148.249757 
L 404.119209 149.74361 
L 405.646117 161.815145 
L 407.173025 162.661671 
L 408.699933 149.039566 
L 410.22684 152.402716 
L 411.753748 152.936743 
L 413.280656 156.836243 
L 414.807564 162.632538 
L 416.334472 161.75852 
L 417.86138 150.462897 
L 419.388288 149.508338 
L 420.915196 161.061741 
L 422.442103 151.507825 
L 423.969011 157.293543 
L 425.495919 157.029844 
L 427.022827 160.428834 
L 428.549735 156.927241 
L 430.076643 162.072217 
L 431.603551 156.385863 
L 433.130459 149.597822 
L 434.657366 157.379378 
L 436.184274 160.710734 
L 437.711182 159.508711 
L 439.23809 158.457156 
L 440.764998 156.104844 
L 442.291906 160.299523 
L 443.818814 149.196548 
L 445.345722 147.70798 
L 446.872629 148.512685 
L 448.399537 151.40032 
L 449.926445 161.499882 
L 451.453353 162.391759 
L 452.980261 148.205741 
L 454.507169 153.796901 
L 456.034077 157.584563 
L 457.560985 156.766475 
L 459.087892 156.975776 
L 460.6148 149.012409 
L 462.141708 154.84826 
L 463.668616 158.488048 
L 465.195524 153.049084 
L 466.722432 156.207375 
L 468.24934 158.52609 
L 469.776248 160.281426 
L 471.303155 149.923968 
L 472.830063 150.53081 
L 474.356971 161.267108 
L 475.883879 161.125103 
L 477.410787 156.587435 
L 478.937695 149.410783 
L 480.464603 153.416731 
L 481.991511 147.740499 
L 483.518418 149.612672 
L 485.045326 148.400858 
L 486.572234 156.7074 
L 488.099142 150.974125 
L 489.62605 151.884131 
L 491.152958 159.448335 
L 492.679866 158.702452 
L 494.206774 161.919074 
L 495.733681 156.537801 
L 497.260589 160.896865 
L 498.787497 160.199491 
L 500.314405 155.116593 
L 501.841313 161.070109 
L 503.368221 158.474743 
L 504.895129 154.413114 
L 506.422037 158.587791 
L 507.948944 162.151245 
L 509.475852 156.034141 
L 509.475852 156.034141 
" clip-path="url(#p5d83798305)" style="fill: none; stroke: #ff7f0e; stroke-opacity: 0.5; stroke-width: 1.5; stroke-linecap: square"/>
   </g>
   <g id="patch_3">
    <path d="M 30.103125 174.653399 
L 30.103125 8.333399 
" style="fill: none; stroke: #000000; stroke-width: 0.8; stroke-linejoin: miter; stroke-linecap: square"/>
   </g>
   <g id="patch_4">
    <path d="M 532.303125 174.653399 
L 532.303125 8.333399 
" style="fill: none; stroke: #000000; stroke-width: 0.8; stroke-linejoin: miter; stroke-linecap: square"/>
   </g>
   <g id="patch_5">
    <path d="M 30.103125 174.653399 
L 532.303125 174.653399 
" style="fill: none; stroke: #000000; stroke-width: 0.8; stroke-linejoin: miter; stroke-linecap: square"/>
   </g>
   <g id="patch_6">
    <path d="M 30.103125 8.333399 
L 532.303125 8.333399 
" style="fill: none; stroke: #000000; stroke-width: 0.8; stroke-linejoin: miter; stroke-linecap: square"/>
   </g>
   <g id="legend_1">
    <g id="patch_7">
     <path d="M 442.103125 61.889649 
L 525.303125 61.889649 
Q 527.303125 61.889649 527.303125 59.889649 
L 527.303125 15.333399 
Q 527.303125 13.333399 525.303125 13.333399 
L 442.103125 13.333399 
Q 440.103125 13.333399 440.103125 15.333399 
L 440.103125 59.889649 
Q 440.103125 61.889649 442.103125 61.889649 
z
" style="fill: #ffffff; opacity: 0.8; stroke: #cccccc; stroke-linejoin: miter"/>
    </g>
    <g id="line2d_16">
     <path d="M 444.103125 21.431836 
L 454.103125 21.431836 
L 464.103125 21.431836 
" style="fill: none; stroke: #1f77b4; stroke-width: 2.5; stroke-linecap: square"/>
    </g>
    <g id="text_14">
     <!-- $I$ - Exact -->
     <g transform="translate(472.103125 24.931836) scale(0.1 -0.1)">
      <defs>
       <path id="DejaVuSans-Oblique-49" d="M 1081 4666 
L 1716 4666 
L 806 0 
L 172 0 
L 1081 4666 
z
" transform="scale(0.015625)"/>
       <path id="DejaVuSans-2d" d="M 313 2009 
L 1997 2009 
L 1997 1497 
L 313 1497 
L 313 2009 
z
" transform="scale(0.015625)"/>
       <path id="DejaVuSans-45" d="M 628 4666 
L 3578 4666 
L 3578 4134 
L 1259 4134 
L 1259 2753 
L 3481 2753 
L 3481 2222 
L 1259 2222 
L 1259 531 
L 3634 531 
L 3634 0 
L 628 0 
L 628 4666 
z
" transform="scale(0.015625)"/>
       <path id="DejaVuSans-78" d="M 3513 3500 
L 2247 1797 
L 3578 0 
L 2900 0 
L 1881 1375 
L 863 0 
L 184 0 
L 1544 1831 
L 300 3500 
L 978 3500 
L 1906 2253 
L 2834 3500 
L 3513 3500 
z
" transform="scale(0.015625)"/>
       <path id="DejaVuSans-63" d="M 3122 3366 
L 3122 2828 
Q 2878 2963 2633 3030 
Q 2388 3097 2138 3097 
Q 1578 3097 1268 2742 
Q 959 2388 959 1747 
Q 959 1106 1268 751 
Q 1578 397 2138 397 
Q 2388 397 2633 464 
Q 2878 531 3122 666 
L 3122 134 
Q 2881 22 2623 -34 
Q 2366 -91 2075 -91 
Q 1284 -91 818 406 
Q 353 903 353 1747 
Q 353 2603 823 3093 
Q 1294 3584 2113 3584 
Q 2378 3584 2631 3529 
Q 2884 3475 3122 3366 
z
" transform="scale(0.015625)"/>
      </defs>
      <use xlink:href="#DejaVuSans-Oblique-49" transform="translate(0 0.09375)"/>
      <use xlink:href="#DejaVuSans-20" transform="translate(29.492188 0.09375)"/>
      <use xlink:href="#DejaVuSans-2d" transform="translate(61.279297 0.09375)"/>
      <use xlink:href="#DejaVuSans-20" transform="translate(97.363281 0.09375)"/>
      <use xlink:href="#DejaVuSans-45" transform="translate(129.150391 0.09375)"/>
      <use xlink:href="#DejaVuSans-78" transform="translate(192.333984 0.09375)"/>
      <use xlink:href="#DejaVuSans-61" transform="translate(251.513672 0.09375)"/>
      <use xlink:href="#DejaVuSans-63" transform="translate(312.792969 0.09375)"/>
      <use xlink:href="#DejaVuSans-74" transform="translate(367.773438 0.09375)"/>
     </g>
    </g>
    <g id="line2d_17">
     <path d="M 444.103125 37.631836 
L 454.103125 37.631836 
L 464.103125 37.631836 
" style="fill: none; stroke-dasharray: 5.55,2.4; stroke-dashoffset: 0; stroke: #000000; stroke-width: 1.5"/>
    </g>
    <g id="text_15">
     <!-- $\hat{I}$ - Estim. -->
     <g transform="translate(472.103125 41.131836) scale(0.1 -0.1)">
      <defs>
       <path id="DejaVuSans-302" d="M -1831 5119 
L -1369 5119 
L -603 3944 
L -1038 3944 
L -1600 4709 
L -2163 3944 
L -2597 3944 
L -1831 5119 
z
M -1600 3584 
L -1600 3584 
z
" transform="scale(0.015625)"/>
      </defs>
      <use xlink:href="#DejaVuSans-302" transform="translate(42.951172 30.015625)"/>
      <use xlink:href="#DejaVuSans-Oblique-49" transform="translate(0 0.609375)"/>
      <use xlink:href="#DejaVuSans-20" transform="translate(29.492188 0.609375)"/>
      <use xlink:href="#DejaVuSans-2d" transform="translate(61.279297 0.609375)"/>
      <use xlink:href="#DejaVuSans-20" transform="translate(97.363281 0.609375)"/>
      <use xlink:href="#DejaVuSans-45" transform="translate(129.150391 0.609375)"/>
      <use xlink:href="#DejaVuSans-73" transform="translate(192.333984 0.609375)"/>
      <use xlink:href="#DejaVuSans-74" transform="translate(244.433594 0.609375)"/>
      <use xlink:href="#DejaVuSans-69" transform="translate(283.642578 0.609375)"/>
      <use xlink:href="#DejaVuSans-6d" transform="translate(311.425781 0.609375)"/>
      <use xlink:href="#DejaVuSans-2e" transform="translate(408.837891 0.609375)"/>
     </g>
    </g>
    <g id="line2d_18">
     <path d="M 444.103125 52.309961 
L 454.103125 52.309961 
L 464.103125 52.309961 
" style="fill: none; stroke: #ff7f0e; stroke-opacity: 0.5; stroke-width: 1.5; stroke-linecap: square"/>
    </g>
    <g id="text_16">
     <!-- $u$ - control -->
     <g transform="translate(472.103125 55.809961) scale(0.1 -0.1)">
      <defs>
       <path id="DejaVuSans-Oblique-75" d="M 428 1388 
L 838 3500 
L 1416 3500 
L 1006 1409 
Q 975 1256 961 1147 
Q 947 1038 947 966 
Q 947 700 1109 554 
Q 1272 409 1569 409 
Q 2031 409 2368 721 
Q 2706 1034 2809 1563 
L 3194 3500 
L 3769 3500 
L 3091 0 
L 2516 0 
L 2631 550 
Q 2388 244 2052 76 
Q 1716 -91 1338 -91 
Q 878 -91 622 161 
Q 366 413 366 863 
Q 366 956 381 1097 
Q 397 1238 428 1388 
z
" transform="scale(0.015625)"/>
       <path id="DejaVuSans-6f" d="M 1959 3097 
Q 1497 3097 1228 2736 
Q 959 2375 959 1747 
Q 959 1119 1226 758 
Q 1494 397 1959 397 
Q 2419 397 2687 759 
Q 2956 1122 2956 1747 
Q 2956 2369 2687 2733 
Q 2419 3097 1959 3097 
z
M 1959 3584 
Q 2709 3584 3137 3096 
Q 3566 2609 3566 1747 
Q 3566 888 3137 398 
Q 2709 -91 1959 -91 
Q 1206 -91 779 398 
Q 353 888 353 1747 
Q 353 2609 779 3096 
Q 1206 3584 1959 3584 
z
" transform="scale(0.015625)"/>
       <path id="DejaVuSans-6e" d="M 3513 2113 
L 3513 0 
L 2938 0 
L 2938 2094 
Q 2938 2591 2744 2837 
Q 2550 3084 2163 3084 
Q 1697 3084 1428 2787 
Q 1159 2491 1159 1978 
L 1159 0 
L 581 0 
L 581 3500 
L 1159 3500 
L 1159 2956 
Q 1366 3272 1645 3428 
Q 1925 3584 2291 3584 
Q 2894 3584 3203 3211 
Q 3513 2838 3513 2113 
z
" transform="scale(0.015625)"/>
       <path id="DejaVuSans-72" d="M 2631 2963 
Q 2534 3019 2420 3045 
Q 2306 3072 2169 3072 
Q 1681 3072 1420 2755 
Q 1159 2438 1159 1844 
L 1159 0 
L 581 0 
L 581 3500 
L 1159 3500 
L 1159 2956 
Q 1341 3275 1631 3429 
Q 1922 3584 2338 3584 
Q 2397 3584 2469 3576 
Q 2541 3569 2628 3553 
L 2631 2963 
z
" transform="scale(0.015625)"/>
       <path id="DejaVuSans-6c" d="M 603 4863 
L 1178 4863 
L 1178 0 
L 603 0 
L 603 4863 
z
" transform="scale(0.015625)"/>
      </defs>
      <use xlink:href="#DejaVuSans-Oblique-75" transform="translate(0 0.015625)"/>
      <use xlink:href="#DejaVuSans-20" transform="translate(63.378906 0.015625)"/>
      <use xlink:href="#DejaVuSans-2d" transform="translate(95.166016 0.015625)"/>
      <use xlink:href="#DejaVuSans-20" transform="translate(131.25 0.015625)"/>
      <use xlink:href="#DejaVuSans-63" transform="translate(163.037109 0.015625)"/>
      <use xlink:href="#DejaVuSans-6f" transform="translate(218.017578 0.015625)"/>
      <use xlink:href="#DejaVuSans-6e" transform="translate(279.199219 0.015625)"/>
      <use xlink:href="#DejaVuSans-74" transform="translate(342.578125 0.015625)"/>
      <use xlink:href="#DejaVuSans-72" transform="translate(381.787109 0.015625)"/>
      <use xlink:href="#DejaVuSans-6f" transform="translate(422.900391 0.015625)"/>
      <use xlink:href="#DejaVuSans-6c" transform="translate(484.082031 0.015625)"/>
     </g>
    </g>
   </g>
  </g>
 </g>
 <defs>
  <clipPath id="p5d83798305">
   <rect x="30.103125" y="8.333399" width="502.2" height="166.32"/>
  </clipPath>
 </defs>
</svg>
