<?xml version="1.0" encoding="utf-8" standalone="no"?>
<!DOCTYPE svg PUBLIC "-//W3C//DTD SVG 1.1//EN"
  "http://www.w3.org/Graphics/SVG/1.1/DTD/svg11.dtd">
<svg xmlns:xlink="http://www.w3.org/1999/xlink" width="539.503125pt" height="211.07625pt" viewBox="0 0 539.503125 211.07625" xmlns="http://www.w3.org/2000/svg" version="1.1">
 <metadata>
  <rdf:RDF xmlns:dc="http://purl.org/dc/elements/1.1/" xmlns:cc="http://creativecommons.org/ns#" xmlns:rdf="http://www.w3.org/1999/02/22-rdf-syntax-ns#">
   <cc:Work>
    <dc:type rdf:resource="http://purl.org/dc/dcmitype/StillImage"/>
    <dc:date>2025-07-11T16:53:03.981601</dc:date>
    <dc:format>image/svg+xml</dc:format>
    <dc:creator>
     <cc:Agent>
      <dc:title>Matplotlib v3.6.3, https://matplotlib.org/</dc:title>
     </cc:Agent>
    </dc:creator>
   </cc:Work>
  </rdf:RDF>
 </metadata>
 <defs>
  <style type="text/css">*{stroke-linejoin: round; stroke-linecap: butt}</style>
 </defs>
 <g id="figure_1">
  <g id="patch_1">
   <path d="M 0 211.07625 
L 539.503125 211.07625 
L 539.503125 0 
L 0 0 
z
" style="fill: #ffffff"/>
  </g>
  <g id="axes_1">
   <g id="patch_2">
    <path d="M 30.103125 173.52 
L 532.303125 173.52 
L 532.303125 7.2 
L 30.103125 7.2 
z
" style="fill: #ffffff"/>
   </g>
   <g id="matplotlib.axis_1">
    <g id="xtick_1">
     <g id="line2d_1">
      <defs>
       <path id="md57ab84c6b" d="M 0 0 
L 0 3.5 
" style="stroke: #000000; stroke-width: 0.8"/>
      </defs>
      <g>
       <use xlink:href="#md57ab84c6b" x="52.930398" y="173.52" style="stroke: #000000; stroke-width: 0.8"/>
      </g>
     </g>
     <g id="text_1">
      <!-- 0 -->
      <g transform="translate(49.749148 188.118438) scale(0.1 -0.1)">
       <defs>
        <path id="DejaVuSans-30" d="M 2034 4250 
Q 1547 4250 1301 3770 
Q 1056 3291 1056 2328 
Q 1056 1369 1301 889 
Q 1547 409 2034 409 
Q 2525 409 2770 889 
Q 3016 1369 3016 2328 
Q 3016 3291 2770 3770 
Q 2525 4250 2034 4250 
z
M 2034 4750 
Q 2819 4750 3233 4129 
Q 3647 3509 3647 2328 
Q 3647 1150 3233 529 
Q 2819 -91 2034 -91 
Q 1250 -91 836 529 
Q 422 1150 422 2328 
Q 422 3509 836 4129 
Q 1250 4750 2034 4750 
z
" transform="scale(0.015625)"/>
       </defs>
       <use xlink:href="#DejaVuSans-30"/>
      </g>
     </g>
    </g>
    <g id="xtick_2">
     <g id="line2d_2">
      <g>
       <use xlink:href="#md57ab84c6b" x="129.275791" y="173.52" style="stroke: #000000; stroke-width: 0.8"/>
      </g>
     </g>
     <g id="text_2">
      <!-- 50 -->
      <g transform="translate(122.913291 188.118438) scale(0.1 -0.1)">
       <defs>
        <path id="DejaVuSans-35" d="M 691 4666 
L 3169 4666 
L 3169 4134 
L 1269 4134 
L 1269 2991 
Q 1406 3038 1543 3061 
Q 1681 3084 1819 3084 
Q 2600 3084 3056 2656 
Q 3513 2228 3513 1497 
Q 3513 744 3044 326 
Q 2575 -91 1722 -91 
Q 1428 -91 1123 -41 
Q 819 9 494 109 
L 494 744 
Q 775 591 1075 516 
Q 1375 441 1709 441 
Q 2250 441 2565 725 
Q 2881 1009 2881 1497 
Q 2881 1984 2565 2268 
Q 2250 2553 1709 2553 
Q 1456 2553 1204 2497 
Q 953 2441 691 2322 
L 691 4666 
z
" transform="scale(0.015625)"/>
       </defs>
       <use xlink:href="#DejaVuSans-35"/>
       <use xlink:href="#DejaVuSans-30" x="63.623047"/>
      </g>
     </g>
    </g>
    <g id="xtick_3">
     <g id="line2d_3">
      <g>
       <use xlink:href="#md57ab84c6b" x="205.621185" y="173.52" style="stroke: #000000; stroke-width: 0.8"/>
      </g>
     </g>
     <g id="text_3">
      <!-- 100 -->
      <g transform="translate(196.077435 188.118438) scale(0.1 -0.1)">
       <defs>
        <path id="DejaVuSans-31" d="M 794 531 
L 1825 531 
L 1825 4091 
L 703 3866 
L 703 4441 
L 1819 4666 
L 2450 4666 
L 2450 531 
L 3481 531 
L 3481 0 
L 794 0 
L 794 531 
z
" transform="scale(0.015625)"/>
       </defs>
       <use xlink:href="#DejaVuSans-31"/>
       <use xlink:href="#DejaVuSans-30" x="63.623047"/>
       <use xlink:href="#DejaVuSans-30" x="127.246094"/>
      </g>
     </g>
    </g>
    <g id="xtick_4">
     <g id="line2d_4">
      <g>
       <use xlink:href="#md57ab84c6b" x="281.966579" y="173.52" style="stroke: #000000; stroke-width: 0.8"/>
      </g>
     </g>
     <g id="text_4">
      <!-- 150 -->
      <g transform="translate(272.422829 188.118438) scale(0.1 -0.1)">
       <use xlink:href="#DejaVuSans-31"/>
       <use xlink:href="#DejaVuSans-35" x="63.623047"/>
       <use xlink:href="#DejaVuSans-30" x="127.246094"/>
      </g>
     </g>
    </g>
    <g id="xtick_5">
     <g id="line2d_5">
      <g>
       <use xlink:href="#md57ab84c6b" x="358.311973" y="173.52" style="stroke: #000000; stroke-width: 0.8"/>
      </g>
     </g>
     <g id="text_5">
      <!-- 200 -->
      <g transform="translate(348.768223 188.118438) scale(0.1 -0.1)">
       <defs>
        <path id="DejaVuSans-32" d="M 1228 531 
L 3431 531 
L 3431 0 
L 469 0 
L 469 531 
Q 828 903 1448 1529 
Q 2069 2156 2228 2338 
Q 2531 2678 2651 2914 
Q 2772 3150 2772 3378 
Q 2772 3750 2511 3984 
Q 2250 4219 1831 4219 
Q 1534 4219 1204 4116 
Q 875 4013 500 3803 
L 500 4441 
Q 881 4594 1212 4672 
Q 1544 4750 1819 4750 
Q 2544 4750 2975 4387 
Q 3406 4025 3406 3419 
Q 3406 3131 3298 2873 
Q 3191 2616 2906 2266 
Q 2828 2175 2409 1742 
Q 1991 1309 1228 531 
z
" transform="scale(0.015625)"/>
       </defs>
       <use xlink:href="#DejaVuSans-32"/>
       <use xlink:href="#DejaVuSans-30" x="63.623047"/>
       <use xlink:href="#DejaVuSans-30" x="127.246094"/>
      </g>
     </g>
    </g>
    <g id="xtick_6">
     <g id="line2d_6">
      <g>
       <use xlink:href="#md57ab84c6b" x="434.657366" y="173.52" style="stroke: #000000; stroke-width: 0.8"/>
      </g>
     </g>
     <g id="text_6">
      <!-- 250 -->
      <g transform="translate(425.113616 188.118438) scale(0.1 -0.1)">
       <use xlink:href="#DejaVuSans-32"/>
       <use xlink:href="#DejaVuSans-35" x="63.623047"/>
       <use xlink:href="#DejaVuSans-30" x="127.246094"/>
      </g>
     </g>
    </g>
    <g id="xtick_7">
     <g id="line2d_7">
      <g>
       <use xlink:href="#md57ab84c6b" x="511.00276" y="173.52" style="stroke: #000000; stroke-width: 0.8"/>
      </g>
     </g>
     <g id="text_7">
      <!-- 300 -->
      <g transform="translate(501.45901 188.118438) scale(0.1 -0.1)">
       <defs>
        <path id="DejaVuSans-33" d="M 2597 2516 
Q 3050 2419 3304 2112 
Q 3559 1806 3559 1356 
Q 3559 666 3084 287 
Q 2609 -91 1734 -91 
Q 1441 -91 1130 -33 
Q 819 25 488 141 
L 488 750 
Q 750 597 1062 519 
Q 1375 441 1716 441 
Q 2309 441 2620 675 
Q 2931 909 2931 1356 
Q 2931 1769 2642 2001 
Q 2353 2234 1838 2234 
L 1294 2234 
L 1294 2753 
L 1863 2753 
Q 2328 2753 2575 2939 
Q 2822 3125 2822 3475 
Q 2822 3834 2567 4026 
Q 2313 4219 1838 4219 
Q 1578 4219 1281 4162 
Q 984 4106 628 3988 
L 628 4550 
Q 988 4650 1302 4700 
Q 1616 4750 1894 4750 
Q 2613 4750 3031 4423 
Q 3450 4097 3450 3541 
Q 3450 3153 3228 2886 
Q 3006 2619 2597 2516 
z
" transform="scale(0.015625)"/>
       </defs>
       <use xlink:href="#DejaVuSans-33"/>
       <use xlink:href="#DejaVuSans-30" x="63.623047"/>
       <use xlink:href="#DejaVuSans-30" x="127.246094"/>
      </g>
     </g>
    </g>
    <g id="text_8">
     <!-- time (days) -->
     <g transform="translate(252.614062 201.796563) scale(0.1 -0.1)">
      <defs>
       <path id="DejaVuSans-74" d="M 1172 4494 
L 1172 3500 
L 2356 3500 
L 2356 3053 
L 1172 3053 
L 1172 1153 
Q 1172 725 1289 603 
Q 1406 481 1766 481 
L 2356 481 
L 2356 0 
L 1766 0 
Q 1100 0 847 248 
Q 594 497 594 1153 
L 594 3053 
L 172 3053 
L 172 3500 
L 594 3500 
L 594 4494 
L 1172 4494 
z
" transform="scale(0.015625)"/>
       <path id="DejaVuSans-69" d="M 603 3500 
L 1178 3500 
L 1178 0 
L 603 0 
L 603 3500 
z
M 603 4863 
L 1178 4863 
L 1178 4134 
L 603 4134 
L 603 4863 
z
" transform="scale(0.015625)"/>
       <path id="DejaVuSans-6d" d="M 3328 2828 
Q 3544 3216 3844 3400 
Q 4144 3584 4550 3584 
Q 5097 3584 5394 3201 
Q 5691 2819 5691 2113 
L 5691 0 
L 5113 0 
L 5113 2094 
Q 5113 2597 4934 2840 
Q 4756 3084 4391 3084 
Q 3944 3084 3684 2787 
Q 3425 2491 3425 1978 
L 3425 0 
L 2847 0 
L 2847 2094 
Q 2847 2600 2669 2842 
Q 2491 3084 2119 3084 
Q 1678 3084 1418 2786 
Q 1159 2488 1159 1978 
L 1159 0 
L 581 0 
L 581 3500 
L 1159 3500 
L 1159 2956 
Q 1356 3278 1631 3431 
Q 1906 3584 2284 3584 
Q 2666 3584 2933 3390 
Q 3200 3197 3328 2828 
z
" transform="scale(0.015625)"/>
       <path id="DejaVuSans-65" d="M 3597 1894 
L 3597 1613 
L 953 1613 
Q 991 1019 1311 708 
Q 1631 397 2203 397 
Q 2534 397 2845 478 
Q 3156 559 3463 722 
L 3463 178 
Q 3153 47 2828 -22 
Q 2503 -91 2169 -91 
Q 1331 -91 842 396 
Q 353 884 353 1716 
Q 353 2575 817 3079 
Q 1281 3584 2069 3584 
Q 2775 3584 3186 3129 
Q 3597 2675 3597 1894 
z
M 3022 2063 
Q 3016 2534 2758 2815 
Q 2500 3097 2075 3097 
Q 1594 3097 1305 2825 
Q 1016 2553 972 2059 
L 3022 2063 
z
" transform="scale(0.015625)"/>
       <path id="DejaVuSans-20" transform="scale(0.015625)"/>
       <path id="DejaVuSans-28" d="M 1984 4856 
Q 1566 4138 1362 3434 
Q 1159 2731 1159 2009 
Q 1159 1288 1364 580 
Q 1569 -128 1984 -844 
L 1484 -844 
Q 1016 -109 783 600 
Q 550 1309 550 2009 
Q 550 2706 781 3412 
Q 1013 4119 1484 4856 
L 1984 4856 
z
" transform="scale(0.015625)"/>
       <path id="DejaVuSans-64" d="M 2906 2969 
L 2906 4863 
L 3481 4863 
L 3481 0 
L 2906 0 
L 2906 525 
Q 2725 213 2448 61 
Q 2172 -91 1784 -91 
Q 1150 -91 751 415 
Q 353 922 353 1747 
Q 353 2572 751 3078 
Q 1150 3584 1784 3584 
Q 2172 3584 2448 3432 
Q 2725 3281 2906 2969 
z
M 947 1747 
Q 947 1113 1208 752 
Q 1469 391 1925 391 
Q 2381 391 2643 752 
Q 2906 1113 2906 1747 
Q 2906 2381 2643 2742 
Q 2381 3103 1925 3103 
Q 1469 3103 1208 2742 
Q 947 2381 947 1747 
z
" transform="scale(0.015625)"/>
       <path id="DejaVuSans-61" d="M 2194 1759 
Q 1497 1759 1228 1600 
Q 959 1441 959 1056 
Q 959 750 1161 570 
Q 1363 391 1709 391 
Q 2188 391 2477 730 
Q 2766 1069 2766 1631 
L 2766 1759 
L 2194 1759 
z
M 3341 1997 
L 3341 0 
L 2766 0 
L 2766 531 
Q 2569 213 2275 61 
Q 1981 -91 1556 -91 
Q 1019 -91 701 211 
Q 384 513 384 1019 
Q 384 1609 779 1909 
Q 1175 2209 1959 2209 
L 2766 2209 
L 2766 2266 
Q 2766 2663 2505 2880 
Q 2244 3097 1772 3097 
Q 1472 3097 1187 3025 
Q 903 2953 641 2809 
L 641 3341 
Q 956 3463 1253 3523 
Q 1550 3584 1831 3584 
Q 2591 3584 2966 3190 
Q 3341 2797 3341 1997 
z
" transform="scale(0.015625)"/>
       <path id="DejaVuSans-79" d="M 2059 -325 
Q 1816 -950 1584 -1140 
Q 1353 -1331 966 -1331 
L 506 -1331 
L 506 -850 
L 844 -850 
Q 1081 -850 1212 -737 
Q 1344 -625 1503 -206 
L 1606 56 
L 191 3500 
L 800 3500 
L 1894 763 
L 2988 3500 
L 3597 3500 
L 2059 -325 
z
" transform="scale(0.015625)"/>
       <path id="DejaVuSans-73" d="M 2834 3397 
L 2834 2853 
Q 2591 2978 2328 3040 
Q 2066 3103 1784 3103 
Q 1356 3103 1142 2972 
Q 928 2841 928 2578 
Q 928 2378 1081 2264 
Q 1234 2150 1697 2047 
L 1894 2003 
Q 2506 1872 2764 1633 
Q 3022 1394 3022 966 
Q 3022 478 2636 193 
Q 2250 -91 1575 -91 
Q 1294 -91 989 -36 
Q 684 19 347 128 
L 347 722 
Q 666 556 975 473 
Q 1284 391 1588 391 
Q 1994 391 2212 530 
Q 2431 669 2431 922 
Q 2431 1156 2273 1281 
Q 2116 1406 1581 1522 
L 1381 1569 
Q 847 1681 609 1914 
Q 372 2147 372 2553 
Q 372 3047 722 3315 
Q 1072 3584 1716 3584 
Q 2034 3584 2315 3537 
Q 2597 3491 2834 3397 
z
" transform="scale(0.015625)"/>
       <path id="DejaVuSans-29" d="M 513 4856 
L 1013 4856 
Q 1481 4119 1714 3412 
Q 1947 2706 1947 2009 
Q 1947 1309 1714 600 
Q 1481 -109 1013 -844 
L 513 -844 
Q 928 -128 1133 580 
Q 1338 1288 1338 2009 
Q 1338 2731 1133 3434 
Q 928 4138 513 4856 
z
" transform="scale(0.015625)"/>
      </defs>
      <use xlink:href="#DejaVuSans-74"/>
      <use xlink:href="#DejaVuSans-69" x="39.208984"/>
      <use xlink:href="#DejaVuSans-6d" x="66.992188"/>
      <use xlink:href="#DejaVuSans-65" x="164.404297"/>
      <use xlink:href="#DejaVuSans-20" x="225.927734"/>
      <use xlink:href="#DejaVuSans-28" x="257.714844"/>
      <use xlink:href="#DejaVuSans-64" x="296.728516"/>
      <use xlink:href="#DejaVuSans-61" x="360.205078"/>
      <use xlink:href="#DejaVuSans-79" x="421.484375"/>
      <use xlink:href="#DejaVuSans-73" x="480.664062"/>
      <use xlink:href="#DejaVuSans-29" x="532.763672"/>
     </g>
    </g>
   </g>
   <g id="matplotlib.axis_2">
    <g id="ytick_1">
     <g id="line2d_8">
      <defs>
       <path id="mdd27ee5cc4" d="M 0 0 
L -3.5 0 
" style="stroke: #000000; stroke-width: 0.8"/>
      </defs>
      <g>
       <use xlink:href="#mdd27ee5cc4" x="30.103125" y="165.963868" style="stroke: #000000; stroke-width: 0.8"/>
      </g>
     </g>
     <g id="text_9">
      <!-- 0.0 -->
      <g transform="translate(7.2 169.763087) scale(0.1 -0.1)">
       <defs>
        <path id="DejaVuSans-2e" d="M 684 794 
L 1344 794 
L 1344 0 
L 684 0 
L 684 794 
z
" transform="scale(0.015625)"/>
       </defs>
       <use xlink:href="#DejaVuSans-30"/>
       <use xlink:href="#DejaVuSans-2e" x="63.623047"/>
       <use xlink:href="#DejaVuSans-30" x="95.410156"/>
      </g>
     </g>
    </g>
    <g id="ytick_2">
     <g id="line2d_9">
      <g>
       <use xlink:href="#mdd27ee5cc4" x="30.103125" y="127.28366" style="stroke: #000000; stroke-width: 0.8"/>
      </g>
     </g>
     <g id="text_10">
      <!-- 0.1 -->
      <g transform="translate(7.2 131.082879) scale(0.1 -0.1)">
       <use xlink:href="#DejaVuSans-30"/>
       <use xlink:href="#DejaVuSans-2e" x="63.623047"/>
       <use xlink:href="#DejaVuSans-31" x="95.410156"/>
      </g>
     </g>
    </g>
    <g id="ytick_3">
     <g id="line2d_10">
      <g>
       <use xlink:href="#mdd27ee5cc4" x="30.103125" y="88.603452" style="stroke: #000000; stroke-width: 0.8"/>
      </g>
     </g>
     <g id="text_11">
      <!-- 0.2 -->
      <g transform="translate(7.2 92.402671) scale(0.1 -0.1)">
       <use xlink:href="#DejaVuSans-30"/>
       <use xlink:href="#DejaVuSans-2e" x="63.623047"/>
       <use xlink:href="#DejaVuSans-32" x="95.410156"/>
      </g>
     </g>
    </g>
    <g id="ytick_4">
     <g id="line2d_11">
      <g>
       <use xlink:href="#mdd27ee5cc4" x="30.103125" y="49.923245" style="stroke: #000000; stroke-width: 0.8"/>
      </g>
     </g>
     <g id="text_12">
      <!-- 0.3 -->
      <g transform="translate(7.2 53.722463) scale(0.1 -0.1)">
       <use xlink:href="#DejaVuSans-30"/>
       <use xlink:href="#DejaVuSans-2e" x="63.623047"/>
       <use xlink:href="#DejaVuSans-33" x="95.410156"/>
      </g>
     </g>
    </g>
    <g id="ytick_5">
     <g id="line2d_12">
      <g>
       <use xlink:href="#mdd27ee5cc4" x="30.103125" y="11.243037" style="stroke: #000000; stroke-width: 0.8"/>
      </g>
     </g>
     <g id="text_13">
      <!-- 0.4 -->
      <g transform="translate(7.2 15.042255) scale(0.1 -0.1)">
       <defs>
        <path id="DejaVuSans-34" d="M 2419 4116 
L 825 1625 
L 2419 1625 
L 2419 4116 
z
M 2253 4666 
L 3047 4666 
L 3047 1625 
L 3713 1625 
L 3713 1100 
L 3047 1100 
L 3047 0 
L 2419 0 
L 2419 1100 
L 313 1100 
L 313 1709 
L 2253 4666 
z
" transform="scale(0.015625)"/>
       </defs>
       <use xlink:href="#DejaVuSans-30"/>
       <use xlink:href="#DejaVuSans-2e" x="63.623047"/>
       <use xlink:href="#DejaVuSans-34" x="95.410156"/>
      </g>
     </g>
    </g>
   </g>
   <g id="line2d_13">
    <path d="M 52.930398 165.96 
L 91.103095 165.844822 
L 103.318358 165.588362 
L 110.952897 165.223231 
L 115.533621 164.831162 
L 121.641252 164.024439 
L 126.221976 163.110177 
L 129.275791 162.225838 
L 130.802699 161.750694 
L 135.383423 159.611965 
L 136.910331 158.775295 
L 139.964147 156.55422 
L 141.491054 155.263288 
L 144.54487 152.046991 
L 147.598686 148.292749 
L 149.125594 146.242039 
L 150.652502 143.77746 
L 153.706317 138.054003 
L 155.233225 134.737985 
L 159.813949 121.535447 
L 161.340857 116.128359 
L 162.867765 109.858602 
L 165.92158 99.294668 
L 167.448488 92.988673 
L 168.975396 85.254874 
L 170.502304 78.279736 
L 172.029212 69.706257 
L 175.083028 55.3273 
L 176.609936 49.692984 
L 178.136843 43.208958 
L 179.663751 37.453278 
L 181.190659 31.131587 
L 182.717567 28.190961 
L 185.771383 17.994284 
L 187.298291 15.93961 
L 188.825199 14.76 
L 190.352106 15.419005 
L 191.879014 15.296287 
L 193.405922 15.534376 
L 194.93283 18.672137 
L 196.459738 18.821876 
L 197.986646 17.505188 
L 199.513554 16.558414 
L 201.040462 16.825868 
L 202.567369 17.477539 
L 204.094277 22.267605 
L 205.621185 22.741238 
L 207.148093 26.979367 
L 208.675001 29.50342 
L 210.201909 31.261763 
L 211.728817 35.20477 
L 213.255725 37.898057 
L 214.782632 42.005952 
L 216.30954 43.627174 
L 217.836448 47.063874 
L 220.890264 56.343366 
L 225.470988 68.290774 
L 228.524803 74.308678 
L 230.051711 79.064905 
L 231.578619 82.380742 
L 234.632435 90.556833 
L 236.159343 94.717706 
L 237.686251 96.05842 
L 239.213158 99.836632 
L 240.740066 101.708882 
L 242.266974 103.173252 
L 243.793882 104.415148 
L 245.32079 107.644851 
L 246.847698 110.092048 
L 248.374606 111.257757 
L 249.901514 112.746008 
L 251.428421 115.755983 
L 254.482237 118.937495 
L 256.009145 120.167182 
L 257.536053 121.219064 
L 259.062961 122.622129 
L 260.589869 124.562787 
L 263.643684 128.035912 
L 265.170592 128.844264 
L 266.6975 129.890175 
L 268.224408 131.658648 
L 269.751316 133.18154 
L 271.278224 134.174807 
L 272.805132 135.696994 
L 274.33204 136.319905 
L 275.858947 137.224662 
L 277.385855 138.486563 
L 280.439671 140.151392 
L 281.966579 140.733061 
L 283.493487 141.538426 
L 285.020395 142.689601 
L 286.547303 143.594659 
L 288.07421 144.048879 
L 289.601118 144.840418 
L 294.181842 145.720024 
L 300.289473 147.88686 
L 303.343289 149.449901 
L 304.870197 149.902254 
L 307.924013 150.148752 
L 309.450921 150.612286 
L 310.977829 150.688563 
L 312.504736 151.160286 
L 314.031644 151.42132 
L 317.08546 151.529819 
L 320.139276 152.010075 
L 323.193092 152.956225 
L 324.719999 153.160403 
L 327.773815 154.013335 
L 329.300723 154.398781 
L 330.827631 154.485562 
L 336.935262 155.512016 
L 341.515986 156.03756 
L 343.042894 156.250608 
L 344.569802 156.238455 
L 352.204341 156.958878 
L 353.731249 156.98351 
L 356.785065 157.353719 
L 359.838881 157.440868 
L 361.365788 157.594365 
L 362.892696 157.543915 
L 369.000328 158.131103 
L 370.527236 158.025756 
L 375.107959 158.427293 
L 379.688683 158.330167 
L 381.215591 158.38142 
L 382.742499 158.279924 
L 384.269407 158.403936 
L 388.85013 158.091995 
L 391.903946 158.274234 
L 393.430854 158.118958 
L 394.957762 158.207828 
L 396.48467 158.061247 
L 401.065393 158.123493 
L 404.119209 157.839999 
L 407.173025 157.925989 
L 410.22684 157.791569 
L 411.753748 157.832208 
L 414.807564 157.589798 
L 417.86138 157.460212 
L 419.388288 157.243554 
L 420.915196 157.17703 
L 422.442103 156.962372 
L 423.969011 156.984498 
L 425.495919 156.828115 
L 428.549735 156.891558 
L 430.076643 156.687191 
L 431.603551 156.683602 
L 433.130459 156.531343 
L 434.657366 156.241878 
L 436.184274 156.31066 
L 443.818814 155.944018 
L 446.872629 155.401687 
L 451.453353 155.402139 
L 457.560985 154.551815 
L 459.087892 154.589856 
L 462.141708 153.964904 
L 463.668616 154.004997 
L 466.722432 153.438094 
L 471.303155 153.347868 
L 472.830063 153.1248 
L 474.356971 153.172042 
L 475.883879 152.942821 
L 478.937695 152.109273 
L 480.464603 152.057186 
L 483.518418 151.168254 
L 485.045326 150.998794 
L 486.572234 150.638711 
L 488.099142 150.476762 
L 489.62605 149.963076 
L 491.152958 149.656898 
L 492.679866 149.157807 
L 494.206774 148.914017 
L 495.733681 148.306066 
L 501.841313 147.192102 
L 503.368221 147.230749 
L 504.895129 147.065496 
L 506.422037 146.756692 
L 507.948944 146.646953 
L 509.475852 146.192368 
L 509.475852 146.192368 
" clip-path="url(#p8e430ebdd2)" style="fill: none; stroke: #1f77b4; stroke-width: 2.5; stroke-linecap: square"/>
   </g>
   <g id="line2d_14">
    <path d="M 52.930398 165.96 
L 91.103095 165.844822 
L 103.318358 165.588362 
L 110.952897 165.223231 
L 115.533621 164.831162 
L 121.641252 164.024439 
L 126.221976 163.110177 
L 129.275791 162.225838 
L 130.802699 161.750694 
L 135.383423 159.611965 
L 136.910331 158.775295 
L 139.964147 156.55422 
L 141.491054 155.263288 
L 144.54487 152.046991 
L 147.598686 148.292749 
L 149.125594 146.242039 
L 150.652502 143.77746 
L 153.706317 138.054003 
L 155.233225 134.737985 
L 159.813949 121.535447 
L 161.340857 116.128359 
L 162.867765 109.858602 
L 165.92158 99.294668 
L 167.448488 92.988673 
L 168.975396 85.254874 
L 170.502304 78.279736 
L 172.029212 69.706257 
L 175.083028 55.3273 
L 176.609936 49.692984 
L 178.136843 43.208958 
L 179.663751 37.453278 
L 181.190659 31.131587 
L 182.717567 28.190961 
L 185.771383 17.994284 
L 187.298291 15.93961 
L 188.825199 14.76 
L 190.352106 15.419005 
L 191.879014 15.296287 
L 193.405922 15.534376 
L 194.93283 18.672137 
L 196.459738 18.821876 
L 197.986646 17.505188 
L 199.513554 16.558414 
L 201.040462 16.825868 
L 202.567369 17.477539 
L 204.094277 22.267605 
L 205.621185 22.741238 
L 207.148093 26.979367 
L 208.675001 29.50342 
L 210.201909 31.261763 
L 211.728817 35.20477 
L 213.255725 37.898057 
L 214.782632 42.005952 
L 216.30954 43.627174 
L 217.836448 47.063874 
L 220.890264 56.343366 
L 225.470988 68.290774 
L 228.524803 74.308678 
L 230.051711 79.064905 
L 231.578619 82.380742 
L 234.632435 90.556833 
L 236.159343 94.717706 
L 237.686251 96.05842 
L 239.213158 99.836632 
L 240.740066 101.708882 
L 242.266974 103.173252 
L 243.793882 104.415148 
L 245.32079 107.644851 
L 246.847698 110.092048 
L 248.374606 111.257757 
L 249.901514 112.746008 
L 251.428421 115.755983 
L 254.482237 118.937495 
L 256.009145 120.167182 
L 257.536053 121.219064 
L 259.062961 122.622129 
L 260.589869 124.562787 
L 263.643684 128.035912 
L 265.170592 128.844264 
L 266.6975 129.890175 
L 268.224408 131.658648 
L 269.751316 133.18154 
L 271.278224 134.174807 
L 272.805132 135.696994 
L 274.33204 136.319905 
L 275.858947 137.224662 
L 277.385855 138.486563 
L 280.439671 140.151392 
L 281.966579 140.733061 
L 283.493487 141.538426 
L 285.020395 142.689601 
L 286.547303 143.594659 
L 288.07421 144.048879 
L 289.601118 144.840418 
L 294.181842 145.720024 
L 300.289473 147.88686 
L 303.343289 149.449901 
L 304.870197 149.902254 
L 307.924013 150.148752 
L 309.450921 150.612286 
L 310.977829 150.688563 
L 312.504736 151.160286 
L 314.031644 151.42132 
L 317.08546 151.529819 
L 320.139276 152.010075 
L 323.193092 152.956225 
L 324.719999 153.160403 
L 327.773815 154.013335 
L 329.300723 154.398781 
L 330.827631 154.485562 
L 336.935262 155.512016 
L 341.515986 156.03756 
L 343.042894 156.250608 
L 344.569802 156.238455 
L 352.204341 156.958878 
L 353.731249 156.98351 
L 356.785065 157.353719 
L 359.838881 157.440868 
L 361.365788 157.594365 
L 362.892696 157.543915 
L 369.000328 158.131103 
L 370.527236 158.025756 
L 375.107959 158.427293 
L 379.688683 158.330167 
L 381.215591 158.38142 
L 382.742499 158.279924 
L 384.269407 158.403936 
L 388.85013 158.091995 
L 391.903946 158.274234 
L 393.430854 158.118958 
L 394.957762 158.207828 
L 396.48467 158.061247 
L 401.065393 158.123493 
L 404.119209 157.839999 
L 407.173025 157.925989 
L 410.22684 157.791569 
L 411.753748 157.832208 
L 414.807564 157.589798 
L 417.86138 157.460212 
L 419.388288 157.243554 
L 420.915196 157.17703 
L 422.442103 156.962372 
L 423.969011 156.984498 
L 425.495919 156.828115 
L 428.549735 156.891558 
L 430.076643 156.687191 
L 431.603551 156.683602 
L 433.130459 156.531343 
L 434.657366 156.241878 
L 436.184274 156.31066 
L 443.818814 155.944018 
L 446.872629 155.401687 
L 451.453353 155.402139 
L 457.560985 154.551815 
L 459.087892 154.589856 
L 462.141708 153.964904 
L 463.668616 154.004997 
L 466.722432 153.438094 
L 471.303155 153.347868 
L 472.830063 153.1248 
L 474.356971 153.172042 
L 475.883879 152.942821 
L 478.937695 152.109273 
L 480.464603 152.057186 
L 483.518418 151.168254 
L 485.045326 150.998794 
L 486.572234 150.638711 
L 488.099142 150.476762 
L 489.62605 149.963076 
L 491.152958 149.656898 
L 492.679866 149.157807 
L 494.206774 148.914017 
L 495.733681 148.306066 
L 501.841313 147.192102 
L 503.368221 147.230749 
L 504.895129 147.065496 
L 506.422037 146.756692 
L 507.948944 146.646953 
L 507.948944 146.646953 
" clip-path="url(#p8e430ebdd2)" style="fill: none; stroke-dasharray: 5.55,2.4; stroke-dashoffset: 0; stroke: #000000; stroke-width: 1.5"/>
   </g>
   <g id="line2d_15">
    <path d="M 52.930398 147.578859 
L 54.457306 147.141738 
L 55.984213 148.149582 
L 57.511121 150.533006 
L 59.038029 158.514332 
L 60.564937 158.202026 
L 62.091845 155.835447 
L 63.618753 152.719181 
L 65.145661 158.305899 
L 66.672569 149.608653 
L 68.199476 160.295597 
L 69.726384 159.664081 
L 71.253292 147.058642 
L 72.7802 157.193025 
L 74.307108 151.586453 
L 75.834016 159.14841 
L 77.360924 156.661011 
L 78.887832 160.50106 
L 80.414739 154.578292 
L 81.941647 147.755793 
L 83.468555 155.476487 
L 84.995463 154.722398 
L 86.522371 152.707672 
L 88.049279 150.323014 
L 89.576187 154.938906 
L 92.630002 160.781631 
L 94.15691 156.572993 
L 95.683818 156.917161 
L 97.210726 156.07433 
L 98.737634 160.102649 
L 100.264542 158.746456 
L 101.79145 148.239663 
L 103.318358 149.878912 
L 104.845265 152.958062 
L 106.372173 160.643926 
L 107.899081 156.212686 
L 109.425989 148.064363 
L 110.952897 154.972474 
L 112.479805 156.60526 
L 114.006713 156.99338 
L 115.533621 159.330244 
L 117.060528 147.602586 
L 118.587436 155.13425 
L 120.114344 150.625443 
L 121.641252 153.668615 
L 123.16816 149.105593 
L 124.695068 149.82671 
L 126.221976 153.147363 
L 127.748884 154.558657 
L 129.275791 147.308736 
L 130.802699 161.396387 
L 132.329607 154.397981 
L 133.856515 149.85077 
L 135.383423 149.814182 
L 136.910331 156.583836 
L 138.437239 153.404706 
L 139.964147 152.776061 
L 141.491054 157.180164 
L 143.017962 152.025034 
L 144.54487 152.065306 
L 146.071778 148.490574 
L 147.598686 146.955152 
L 149.125594 151.062998 
L 150.652502 151.988042 
L 152.17941 149.799113 
L 153.706317 151.12175 
L 155.233225 161.896979 
L 156.760133 154.677978 
L 158.287041 150.184579 
L 159.813949 156.925613 
L 161.340857 159.988854 
L 162.867765 149.078194 
L 164.394673 148.274422 
L 165.92158 153.183725 
L 167.448488 159.570308 
L 168.975396 154.098569 
L 170.502304 160.716566 
L 172.029212 153.519428 
L 173.55612 155.106689 
L 175.083028 149.815702 
L 176.609936 154.196534 
L 178.136843 153.24617 
L 179.663751 156.600949 
L 181.190659 148.422787 
L 182.717567 156.344334 
L 184.244475 158.712602 
L 185.771383 152.118111 
L 187.298291 151.855432 
L 188.825199 149.060044 
L 190.352106 152.853085 
L 191.879014 153.566214 
L 193.405922 147.617792 
L 194.93283 156.67653 
L 196.459738 161.77397 
L 197.986646 161.921439 
L 199.513554 159.822459 
L 201.040462 159.805345 
L 202.567369 149.915624 
L 204.094277 161.938464 
L 205.621185 152.491514 
L 207.148093 157.575611 
L 208.675001 160.20329 
L 210.201909 154.392907 
L 211.728817 158.226339 
L 213.255725 154.209361 
L 214.782632 161.936657 
L 216.30954 156.462913 
L 217.836448 152.084042 
L 219.363356 152.642246 
L 220.890264 153.79961 
L 223.94408 153.665697 
L 225.470988 156.666767 
L 226.997895 156.508284 
L 228.524803 148.780945 
L 230.051711 154.176818 
L 231.578619 150.529181 
L 233.105527 148.704636 
L 234.632435 147.729852 
L 236.159343 161.807132 
L 237.686251 148.177679 
L 239.213158 158.122263 
L 240.740066 160.2355 
L 242.266974 161.369811 
L 243.793882 148.686397 
L 245.32079 152.710411 
L 246.847698 160.818679 
L 248.374606 158.305409 
L 249.901514 146.885829 
L 251.428421 156.149804 
L 252.955329 156.245468 
L 254.482237 158.414524 
L 256.009145 159.55515 
L 257.536053 156.217122 
L 259.062961 150.930268 
L 260.589869 151.92112 
L 262.116777 151.111004 
L 263.643684 159.6865 
L 265.170592 156.914291 
L 266.6975 148.731239 
L 268.224408 150.400441 
L 269.751316 155.72408 
L 271.278224 148.789666 
L 272.805132 159.21541 
L 274.33204 155.230484 
L 275.858947 149.910539 
L 277.385855 155.404461 
L 278.912763 154.147206 
L 280.439671 157.735998 
L 281.966579 153.953035 
L 283.493487 147.915734 
L 285.020395 150.948077 
L 286.547303 157.975164 
L 288.07421 151.695689 
L 289.601118 159.785834 
L 292.654934 159.978152 
L 294.181842 154.696833 
L 295.70875 153.792056 
L 297.235658 152.52435 
L 298.762566 154.822214 
L 300.289473 146.7768 
L 301.816381 147.505284 
L 303.343289 153.384366 
L 304.870197 161.407625 
L 306.397105 160.058039 
L 307.924013 152.106896 
L 309.450921 161.344038 
L 310.977829 151.141699 
L 312.504736 156.087856 
L 314.031644 161.858269 
L 315.558552 160.528795 
L 317.08546 155.796902 
L 318.612368 155.786948 
L 320.139276 149.578736 
L 321.666184 147.587037 
L 323.193092 155.585888 
L 324.719999 147.830606 
L 326.246907 148.729871 
L 327.773815 148.636755 
L 329.300723 158.02594 
L 330.827631 152.042677 
L 332.354539 148.256577 
L 333.881447 153.780384 
L 335.408355 151.991369 
L 336.935262 154.620293 
L 338.46217 156.86809 
L 339.989078 148.221528 
L 341.515986 151.141413 
L 343.042894 159.741012 
L 344.569802 152.627491 
L 346.09671 153.224026 
L 347.623618 154.185693 
L 349.150525 150.309342 
L 352.204341 157.089292 
L 353.731249 147.888336 
L 355.258157 151.753002 
L 356.785065 156.201236 
L 358.311973 154.885928 
L 359.838881 150.265785 
L 361.365788 159.382423 
L 362.892696 151.276395 
L 364.419604 148.120113 
L 365.946512 152.569908 
L 367.47342 146.75365 
L 369.000328 161.355539 
L 370.527236 148.978906 
L 372.054144 148.090342 
L 373.581051 150.421135 
L 375.107959 158.294653 
L 376.634867 152.638053 
L 378.161775 159.870225 
L 379.688683 152.320638 
L 381.215591 159.923622 
L 382.742499 148.332497 
L 384.269407 160.55659 
L 385.796314 158.214251 
L 387.323222 159.695891 
L 388.85013 148.728066 
L 390.377038 149.923088 
L 391.903946 161.397907 
L 393.430854 149.04516 
L 394.957762 160.579965 
L 396.48467 150.70413 
L 398.011577 147.673867 
L 399.538485 157.513581 
L 401.065393 160.065223 
L 402.592301 158.952668 
L 404.119209 148.286531 
L 407.173025 156.118339 
L 408.699933 154.313702 
L 410.22684 149.858485 
L 411.753748 159.175082 
L 413.280656 155.427345 
L 414.807564 152.278273 
L 416.334472 156.302907 
L 417.86138 160.961348 
L 419.388288 153.9285 
L 420.915196 160.302477 
L 422.442103 149.77977 
L 423.969011 157.348286 
L 425.495919 147.298519 
L 427.022827 150.893269 
L 428.549735 158.978542 
L 430.076643 150.30203 
L 431.603551 156.389359 
L 433.130459 161.805452 
L 434.657366 147.09386 
L 436.184274 153.417067 
L 437.711182 149.319255 
L 439.23809 152.916586 
L 440.764998 154.483402 
L 442.291906 152.03176 
L 443.818814 161.736371 
L 445.345722 157.349029 
L 446.872629 148.589317 
L 448.399537 150.050905 
L 449.926445 148.340048 
L 451.453353 155.931497 
L 452.980261 156.288337 
L 454.507169 154.152405 
L 456.034077 158.800339 
L 457.560985 147.264284 
L 459.087892 158.710124 
L 460.6148 159.181026 
L 462.141708 147.08134 
L 463.668616 158.958087 
L 465.195524 155.766057 
L 466.722432 148.717737 
L 468.24934 147.465293 
L 471.303155 154.942523 
L 472.830063 146.641929 
L 474.356971 154.962047 
L 475.883879 160.340682 
L 477.410787 159.998932 
L 478.937695 149.395919 
L 480.464603 161.697496 
L 481.991511 158.48186 
L 483.518418 152.328171 
L 485.045326 157.201669 
L 486.572234 151.981544 
L 488.099142 160.728436 
L 489.62605 155.307583 
L 491.152958 159.759196 
L 492.679866 153.550852 
L 494.206774 161.758331 
L 495.733681 153.828402 
L 497.260589 151.444493 
L 498.787497 157.923549 
L 500.314405 152.901308 
L 501.841313 147.372503 
L 503.368221 151.633786 
L 504.895129 154.594103 
L 506.422037 150.537615 
L 507.948944 157.488106 
L 509.475852 149.822201 
L 509.475852 149.822201 
" clip-path="url(#p8e430ebdd2)" style="fill: none; stroke: #ff7f0e; stroke-opacity: 0.5; stroke-width: 1.5; stroke-linecap: square"/>
   </g>
   <g id="patch_3">
    <path d="M 30.103125 173.52 
L 30.103125 7.2 
" style="fill: none; stroke: #000000; stroke-width: 0.8; stroke-linejoin: miter; stroke-linecap: square"/>
   </g>
   <g id="patch_4">
    <path d="M 532.303125 173.52 
L 532.303125 7.2 
" style="fill: none; stroke: #000000; stroke-width: 0.8; stroke-linejoin: miter; stroke-linecap: square"/>
   </g>
   <g id="patch_5">
    <path d="M 30.103125 173.52 
L 532.303125 173.52 
" style="fill: none; stroke: #000000; stroke-width: 0.8; stroke-linejoin: miter; stroke-linecap: square"/>
   </g>
   <g id="patch_6">
    <path d="M 30.103125 7.2 
L 532.303125 7.2 
" style="fill: none; stroke: #000000; stroke-width: 0.8; stroke-linejoin: miter; stroke-linecap: square"/>
   </g>
   <g id="legend_1">
    <g id="patch_7">
     <path d="M 442.103125 60.75625 
L 525.303125 60.75625 
Q 527.303125 60.75625 527.303125 58.75625 
L 527.303125 14.2 
Q 527.303125 12.2 525.303125 12.2 
L 442.103125 12.2 
Q 440.103125 12.2 440.103125 14.2 
L 440.103125 58.75625 
Q 440.103125 60.75625 442.103125 60.75625 
z
" style="fill: #ffffff; opacity: 0.8; stroke: #cccccc; stroke-linejoin: miter"/>
    </g>
    <g id="line2d_16">
     <path d="M 444.103125 20.298438 
L 454.103125 20.298438 
L 464.103125 20.298438 
" style="fill: none; stroke: #1f77b4; stroke-width: 2.5; stroke-linecap: square"/>
    </g>
    <g id="text_14">
     <!-- $I$ - Exact -->
     <g transform="translate(472.103125 23.798438) scale(0.1 -0.1)">
      <defs>
       <path id="DejaVuSans-Oblique-49" d="M 1081 4666 
L 1716 4666 
L 806 0 
L 172 0 
L 1081 4666 
z
" transform="scale(0.015625)"/>
       <path id="DejaVuSans-2d" d="M 313 2009 
L 1997 2009 
L 1997 1497 
L 313 1497 
L 313 2009 
z
" transform="scale(0.015625)"/>
       <path id="DejaVuSans-45" d="M 628 4666 
L 3578 4666 
L 3578 4134 
L 1259 4134 
L 1259 2753 
L 3481 2753 
L 3481 2222 
L 1259 2222 
L 1259 531 
L 3634 531 
L 3634 0 
L 628 0 
L 628 4666 
z
" transform="scale(0.015625)"/>
       <path id="DejaVuSans-78" d="M 3513 3500 
L 2247 1797 
L 3578 0 
L 2900 0 
L 1881 1375 
L 863 0 
L 184 0 
L 1544 1831 
L 300 3500 
L 978 3500 
L 1906 2253 
L 2834 3500 
L 3513 3500 
z
" transform="scale(0.015625)"/>
       <path id="DejaVuSans-63" d="M 3122 3366 
L 3122 2828 
Q 2878 2963 2633 3030 
Q 2388 3097 2138 3097 
Q 1578 3097 1268 2742 
Q 959 2388 959 1747 
Q 959 1106 1268 751 
Q 1578 397 2138 397 
Q 2388 397 2633 464 
Q 2878 531 3122 666 
L 3122 134 
Q 2881 22 2623 -34 
Q 2366 -91 2075 -91 
Q 1284 -91 818 406 
Q 353 903 353 1747 
Q 353 2603 823 3093 
Q 1294 3584 2113 3584 
Q 2378 3584 2631 3529 
Q 2884 3475 3122 3366 
z
" transform="scale(0.015625)"/>
      </defs>
      <use xlink:href="#DejaVuSans-Oblique-49" transform="translate(0 0.09375)"/>
      <use xlink:href="#DejaVuSans-20" transform="translate(29.492188 0.09375)"/>
      <use xlink:href="#DejaVuSans-2d" transform="translate(61.279297 0.09375)"/>
      <use xlink:href="#DejaVuSans-20" transform="translate(97.363281 0.09375)"/>
      <use xlink:href="#DejaVuSans-45" transform="translate(129.150391 0.09375)"/>
      <use xlink:href="#DejaVuSans-78" transform="translate(192.333984 0.09375)"/>
      <use xlink:href="#DejaVuSans-61" transform="translate(251.513672 0.09375)"/>
      <use xlink:href="#DejaVuSans-63" transform="translate(312.792969 0.09375)"/>
      <use xlink:href="#DejaVuSans-74" transform="translate(367.773438 0.09375)"/>
     </g>
    </g>
    <g id="line2d_17">
     <path d="M 444.103125 36.498437 
L 454.103125 36.498437 
L 464.103125 36.498437 
" style="fill: none; stroke-dasharray: 5.55,2.4; stroke-dashoffset: 0; stroke: #000000; stroke-width: 1.5"/>
    </g>
    <g id="text_15">
     <!-- $\hat{I}$ - Estim. -->
     <g transform="translate(472.103125 39.998437) scale(0.1 -0.1)">
      <defs>
       <path id="DejaVuSans-302" d="M -1831 5119 
L -1369 5119 
L -603 3944 
L -1038 3944 
L -1600 4709 
L -2163 3944 
L -2597 3944 
L -1831 5119 
z
M -1600 3584 
L -1600 3584 
z
" transform="scale(0.015625)"/>
      </defs>
      <use xlink:href="#DejaVuSans-302" transform="translate(42.951172 30.015625)"/>
      <use xlink:href="#DejaVuSans-Oblique-49" transform="translate(0 0.609375)"/>
      <use xlink:href="#DejaVuSans-20" transform="translate(29.492188 0.609375)"/>
      <use xlink:href="#DejaVuSans-2d" transform="translate(61.279297 0.609375)"/>
      <use xlink:href="#DejaVuSans-20" transform="translate(97.363281 0.609375)"/>
      <use xlink:href="#DejaVuSans-45" transform="translate(129.150391 0.609375)"/>
      <use xlink:href="#DejaVuSans-73" transform="translate(192.333984 0.609375)"/>
      <use xlink:href="#DejaVuSans-74" transform="translate(244.433594 0.609375)"/>
      <use xlink:href="#DejaVuSans-69" transform="translate(283.642578 0.609375)"/>
      <use xlink:href="#DejaVuSans-6d" transform="translate(311.425781 0.609375)"/>
      <use xlink:href="#DejaVuSans-2e" transform="translate(408.837891 0.609375)"/>
     </g>
    </g>
    <g id="line2d_18">
     <path d="M 444.103125 51.176563 
L 454.103125 51.176563 
L 464.103125 51.176563 
" style="fill: none; stroke: #ff7f0e; stroke-opacity: 0.5; stroke-width: 1.5; stroke-linecap: square"/>
    </g>
    <g id="text_16">
     <!-- $u$ - control -->
     <g transform="translate(472.103125 54.676563) scale(0.1 -0.1)">
      <defs>
       <path id="DejaVuSans-Oblique-75" d="M 428 1388 
L 838 3500 
L 1416 3500 
L 1006 1409 
Q 975 1256 961 1147 
Q 947 1038 947 966 
Q 947 700 1109 554 
Q 1272 409 1569 409 
Q 2031 409 2368 721 
Q 2706 1034 2809 1563 
L 3194 3500 
L 3769 3500 
L 3091 0 
L 2516 0 
L 2631 550 
Q 2388 244 2052 76 
Q 1716 -91 1338 -91 
Q 878 -91 622 161 
Q 366 413 366 863 
Q 366 956 381 1097 
Q 397 1238 428 1388 
z
" transform="scale(0.015625)"/>
       <path id="DejaVuSans-6f" d="M 1959 3097 
Q 1497 3097 1228 2736 
Q 959 2375 959 1747 
Q 959 1119 1226 758 
Q 1494 397 1959 397 
Q 2419 397 2687 759 
Q 2956 1122 2956 1747 
Q 2956 2369 2687 2733 
Q 2419 3097 1959 3097 
z
M 1959 3584 
Q 2709 3584 3137 3096 
Q 3566 2609 3566 1747 
Q 3566 888 3137 398 
Q 2709 -91 1959 -91 
Q 1206 -91 779 398 
Q 353 888 353 1747 
Q 353 2609 779 3096 
Q 1206 3584 1959 3584 
z
" transform="scale(0.015625)"/>
       <path id="DejaVuSans-6e" d="M 3513 2113 
L 3513 0 
L 2938 0 
L 2938 2094 
Q 2938 2591 2744 2837 
Q 2550 3084 2163 3084 
Q 1697 3084 1428 2787 
Q 1159 2491 1159 1978 
L 1159 0 
L 581 0 
L 581 3500 
L 1159 3500 
L 1159 2956 
Q 1366 3272 1645 3428 
Q 1925 3584 2291 3584 
Q 2894 3584 3203 3211 
Q 3513 2838 3513 2113 
z
" transform="scale(0.015625)"/>
       <path id="DejaVuSans-72" d="M 2631 2963 
Q 2534 3019 2420 3045 
Q 2306 3072 2169 3072 
Q 1681 3072 1420 2755 
Q 1159 2438 1159 1844 
L 1159 0 
L 581 0 
L 581 3500 
L 1159 3500 
L 1159 2956 
Q 1341 3275 1631 3429 
Q 1922 3584 2338 3584 
Q 2397 3584 2469 3576 
Q 2541 3569 2628 3553 
L 2631 2963 
z
" transform="scale(0.015625)"/>
       <path id="DejaVuSans-6c" d="M 603 4863 
L 1178 4863 
L 1178 0 
L 603 0 
L 603 4863 
z
" transform="scale(0.015625)"/>
      </defs>
      <use xlink:href="#DejaVuSans-Oblique-75" transform="translate(0 0.015625)"/>
      <use xlink:href="#DejaVuSans-20" transform="translate(63.378906 0.015625)"/>
      <use xlink:href="#DejaVuSans-2d" transform="translate(95.166016 0.015625)"/>
      <use xlink:href="#DejaVuSans-20" transform="translate(131.25 0.015625)"/>
      <use xlink:href="#DejaVuSans-63" transform="translate(163.037109 0.015625)"/>
      <use xlink:href="#DejaVuSans-6f" transform="translate(218.017578 0.015625)"/>
      <use xlink:href="#DejaVuSans-6e" transform="translate(279.199219 0.015625)"/>
      <use xlink:href="#DejaVuSans-74" transform="translate(342.578125 0.015625)"/>
      <use xlink:href="#DejaVuSans-72" transform="translate(381.787109 0.015625)"/>
      <use xlink:href="#DejaVuSans-6f" transform="translate(422.900391 0.015625)"/>
      <use xlink:href="#DejaVuSans-6c" transform="translate(484.082031 0.015625)"/>
     </g>
    </g>
   </g>
  </g>
 </g>
 <defs>
  <clipPath id="p8e430ebdd2">
   <rect x="30.103125" y="7.2" width="502.2" height="166.32"/>
  </clipPath>
 </defs>
</svg>
