<?xml version="1.0" encoding="utf-8" standalone="no"?>
<!DOCTYPE svg PUBLIC "-//W3C//DTD SVG 1.1//EN"
  "http://www.w3.org/Graphics/SVG/1.1/DTD/svg11.dtd">
<svg xmlns:xlink="http://www.w3.org/1999/xlink" width="539.503125pt" height="211.07625pt" viewBox="0 0 539.503125 211.07625" xmlns="http://www.w3.org/2000/svg" version="1.1">
 <metadata>
  <rdf:RDF xmlns:dc="http://purl.org/dc/elements/1.1/" xmlns:cc="http://creativecommons.org/ns#" xmlns:rdf="http://www.w3.org/1999/02/22-rdf-syntax-ns#">
   <cc:Work>
    <dc:type rdf:resource="http://purl.org/dc/dcmitype/StillImage"/>
    <dc:date>2025-06-06T15:34:10.371577</dc:date>
    <dc:format>image/svg+xml</dc:format>
    <dc:creator>
     <cc:Agent>
      <dc:title>Matplotlib v3.6.3, https://matplotlib.org/</dc:title>
     </cc:Agent>
    </dc:creator>
   </cc:Work>
  </rdf:RDF>
 </metadata>
 <defs>
  <style type="text/css">*{stroke-linejoin: round; stroke-linecap: butt}</style>
 </defs>
 <g id="figure_1">
  <g id="patch_1">
   <path d="M 0 211.07625 
L 539.503125 211.07625 
L 539.503125 0 
L 0 0 
z
" style="fill: #ffffff"/>
  </g>
  <g id="axes_1">
   <g id="patch_2">
    <path d="M 30.103125 173.52 
L 532.303125 173.52 
L 532.303125 7.2 
L 30.103125 7.2 
z
" style="fill: #ffffff"/>
   </g>
   <g id="matplotlib.axis_1">
    <g id="xtick_1">
     <g id="line2d_1">
      <defs>
       <path id="m8aea0a8869" d="M 0 0 
L 0 3.5 
" style="stroke: #000000; stroke-width: 0.8"/>
      </defs>
      <g>
       <use xlink:href="#m8aea0a8869" x="52.930398" y="173.52" style="stroke: #000000; stroke-width: 0.8"/>
      </g>
     </g>
     <g id="text_1">
      <!-- 0 -->
      <g transform="translate(49.749148 188.118438) scale(0.1 -0.1)">
       <defs>
        <path id="DejaVuSans-30" d="M 2034 4250 
Q 1547 4250 1301 3770 
Q 1056 3291 1056 2328 
Q 1056 1369 1301 889 
Q 1547 409 2034 409 
Q 2525 409 2770 889 
Q 3016 1369 3016 2328 
Q 3016 3291 2770 3770 
Q 2525 4250 2034 4250 
z
M 2034 4750 
Q 2819 4750 3233 4129 
Q 3647 3509 3647 2328 
Q 3647 1150 3233 529 
Q 2819 -91 2034 -91 
Q 1250 -91 836 529 
Q 422 1150 422 2328 
Q 422 3509 836 4129 
Q 1250 4750 2034 4750 
z
" transform="scale(0.015625)"/>
       </defs>
       <use xlink:href="#DejaVuSans-30"/>
      </g>
     </g>
    </g>
    <g id="xtick_2">
     <g id="line2d_2">
      <g>
       <use xlink:href="#m8aea0a8869" x="129.275791" y="173.52" style="stroke: #000000; stroke-width: 0.8"/>
      </g>
     </g>
     <g id="text_2">
      <!-- 50 -->
      <g transform="translate(122.913291 188.118438) scale(0.1 -0.1)">
       <defs>
        <path id="DejaVuSans-35" d="M 691 4666 
L 3169 4666 
L 3169 4134 
L 1269 4134 
L 1269 2991 
Q 1406 3038 1543 3061 
Q 1681 3084 1819 3084 
Q 2600 3084 3056 2656 
Q 3513 2228 3513 1497 
Q 3513 744 3044 326 
Q 2575 -91 1722 -91 
Q 1428 -91 1123 -41 
Q 819 9 494 109 
L 494 744 
Q 775 591 1075 516 
Q 1375 441 1709 441 
Q 2250 441 2565 725 
Q 2881 1009 2881 1497 
Q 2881 1984 2565 2268 
Q 2250 2553 1709 2553 
Q 1456 2553 1204 2497 
Q 953 2441 691 2322 
L 691 4666 
z
" transform="scale(0.015625)"/>
       </defs>
       <use xlink:href="#DejaVuSans-35"/>
       <use xlink:href="#DejaVuSans-30" x="63.623047"/>
      </g>
     </g>
    </g>
    <g id="xtick_3">
     <g id="line2d_3">
      <g>
       <use xlink:href="#m8aea0a8869" x="205.621185" y="173.52" style="stroke: #000000; stroke-width: 0.8"/>
      </g>
     </g>
     <g id="text_3">
      <!-- 100 -->
      <g transform="translate(196.077435 188.118438) scale(0.1 -0.1)">
       <defs>
        <path id="DejaVuSans-31" d="M 794 531 
L 1825 531 
L 1825 4091 
L 703 3866 
L 703 4441 
L 1819 4666 
L 2450 4666 
L 2450 531 
L 3481 531 
L 3481 0 
L 794 0 
L 794 531 
z
" transform="scale(0.015625)"/>
       </defs>
       <use xlink:href="#DejaVuSans-31"/>
       <use xlink:href="#DejaVuSans-30" x="63.623047"/>
       <use xlink:href="#DejaVuSans-30" x="127.246094"/>
      </g>
     </g>
    </g>
    <g id="xtick_4">
     <g id="line2d_4">
      <g>
       <use xlink:href="#m8aea0a8869" x="281.966579" y="173.52" style="stroke: #000000; stroke-width: 0.8"/>
      </g>
     </g>
     <g id="text_4">
      <!-- 150 -->
      <g transform="translate(272.422829 188.118438) scale(0.1 -0.1)">
       <use xlink:href="#DejaVuSans-31"/>
       <use xlink:href="#DejaVuSans-35" x="63.623047"/>
       <use xlink:href="#DejaVuSans-30" x="127.246094"/>
      </g>
     </g>
    </g>
    <g id="xtick_5">
     <g id="line2d_5">
      <g>
       <use xlink:href="#m8aea0a8869" x="358.311973" y="173.52" style="stroke: #000000; stroke-width: 0.8"/>
      </g>
     </g>
     <g id="text_5">
      <!-- 200 -->
      <g transform="translate(348.768223 188.118438) scale(0.1 -0.1)">
       <defs>
        <path id="DejaVuSans-32" d="M 1228 531 
L 3431 531 
L 3431 0 
L 469 0 
L 469 531 
Q 828 903 1448 1529 
Q 2069 2156 2228 2338 
Q 2531 2678 2651 2914 
Q 2772 3150 2772 3378 
Q 2772 3750 2511 3984 
Q 2250 4219 1831 4219 
Q 1534 4219 1204 4116 
Q 875 4013 500 3803 
L 500 4441 
Q 881 4594 1212 4672 
Q 1544 4750 1819 4750 
Q 2544 4750 2975 4387 
Q 3406 4025 3406 3419 
Q 3406 3131 3298 2873 
Q 3191 2616 2906 2266 
Q 2828 2175 2409 1742 
Q 1991 1309 1228 531 
z
" transform="scale(0.015625)"/>
       </defs>
       <use xlink:href="#DejaVuSans-32"/>
       <use xlink:href="#DejaVuSans-30" x="63.623047"/>
       <use xlink:href="#DejaVuSans-30" x="127.246094"/>
      </g>
     </g>
    </g>
    <g id="xtick_6">
     <g id="line2d_6">
      <g>
       <use xlink:href="#m8aea0a8869" x="434.657366" y="173.52" style="stroke: #000000; stroke-width: 0.8"/>
      </g>
     </g>
     <g id="text_6">
      <!-- 250 -->
      <g transform="translate(425.113616 188.118438) scale(0.1 -0.1)">
       <use xlink:href="#DejaVuSans-32"/>
       <use xlink:href="#DejaVuSans-35" x="63.623047"/>
       <use xlink:href="#DejaVuSans-30" x="127.246094"/>
      </g>
     </g>
    </g>
    <g id="xtick_7">
     <g id="line2d_7">
      <g>
       <use xlink:href="#m8aea0a8869" x="511.00276" y="173.52" style="stroke: #000000; stroke-width: 0.8"/>
      </g>
     </g>
     <g id="text_7">
      <!-- 300 -->
      <g transform="translate(501.45901 188.118438) scale(0.1 -0.1)">
       <defs>
        <path id="DejaVuSans-33" d="M 2597 2516 
Q 3050 2419 3304 2112 
Q 3559 1806 3559 1356 
Q 3559 666 3084 287 
Q 2609 -91 1734 -91 
Q 1441 -91 1130 -33 
Q 819 25 488 141 
L 488 750 
Q 750 597 1062 519 
Q 1375 441 1716 441 
Q 2309 441 2620 675 
Q 2931 909 2931 1356 
Q 2931 1769 2642 2001 
Q 2353 2234 1838 2234 
L 1294 2234 
L 1294 2753 
L 1863 2753 
Q 2328 2753 2575 2939 
Q 2822 3125 2822 3475 
Q 2822 3834 2567 4026 
Q 2313 4219 1838 4219 
Q 1578 4219 1281 4162 
Q 984 4106 628 3988 
L 628 4550 
Q 988 4650 1302 4700 
Q 1616 4750 1894 4750 
Q 2613 4750 3031 4423 
Q 3450 4097 3450 3541 
Q 3450 3153 3228 2886 
Q 3006 2619 2597 2516 
z
" transform="scale(0.015625)"/>
       </defs>
       <use xlink:href="#DejaVuSans-33"/>
       <use xlink:href="#DejaVuSans-30" x="63.623047"/>
       <use xlink:href="#DejaVuSans-30" x="127.246094"/>
      </g>
     </g>
    </g>
    <g id="text_8">
     <!-- time (days) -->
     <g transform="translate(252.614062 201.796563) scale(0.1 -0.1)">
      <defs>
       <path id="DejaVuSans-74" d="M 1172 4494 
L 1172 3500 
L 2356 3500 
L 2356 3053 
L 1172 3053 
L 1172 1153 
Q 1172 725 1289 603 
Q 1406 481 1766 481 
L 2356 481 
L 2356 0 
L 1766 0 
Q 1100 0 847 248 
Q 594 497 594 1153 
L 594 3053 
L 172 3053 
L 172 3500 
L 594 3500 
L 594 4494 
L 1172 4494 
z
" transform="scale(0.015625)"/>
       <path id="DejaVuSans-69" d="M 603 3500 
L 1178 3500 
L 1178 0 
L 603 0 
L 603 3500 
z
M 603 4863 
L 1178 4863 
L 1178 4134 
L 603 4134 
L 603 4863 
z
" transform="scale(0.015625)"/>
       <path id="DejaVuSans-6d" d="M 3328 2828 
Q 3544 3216 3844 3400 
Q 4144 3584 4550 3584 
Q 5097 3584 5394 3201 
Q 5691 2819 5691 2113 
L 5691 0 
L 5113 0 
L 5113 2094 
Q 5113 2597 4934 2840 
Q 4756 3084 4391 3084 
Q 3944 3084 3684 2787 
Q 3425 2491 3425 1978 
L 3425 0 
L 2847 0 
L 2847 2094 
Q 2847 2600 2669 2842 
Q 2491 3084 2119 3084 
Q 1678 3084 1418 2786 
Q 1159 2488 1159 1978 
L 1159 0 
L 581 0 
L 581 3500 
L 1159 3500 
L 1159 2956 
Q 1356 3278 1631 3431 
Q 1906 3584 2284 3584 
Q 2666 3584 2933 3390 
Q 3200 3197 3328 2828 
z
" transform="scale(0.015625)"/>
       <path id="DejaVuSans-65" d="M 3597 1894 
L 3597 1613 
L 953 1613 
Q 991 1019 1311 708 
Q 1631 397 2203 397 
Q 2534 397 2845 478 
Q 3156 559 3463 722 
L 3463 178 
Q 3153 47 2828 -22 
Q 2503 -91 2169 -91 
Q 1331 -91 842 396 
Q 353 884 353 1716 
Q 353 2575 817 3079 
Q 1281 3584 2069 3584 
Q 2775 3584 3186 3129 
Q 3597 2675 3597 1894 
z
M 3022 2063 
Q 3016 2534 2758 2815 
Q 2500 3097 2075 3097 
Q 1594 3097 1305 2825 
Q 1016 2553 972 2059 
L 3022 2063 
z
" transform="scale(0.015625)"/>
       <path id="DejaVuSans-20" transform="scale(0.015625)"/>
       <path id="DejaVuSans-28" d="M 1984 4856 
Q 1566 4138 1362 3434 
Q 1159 2731 1159 2009 
Q 1159 1288 1364 580 
Q 1569 -128 1984 -844 
L 1484 -844 
Q 1016 -109 783 600 
Q 550 1309 550 2009 
Q 550 2706 781 3412 
Q 1013 4119 1484 4856 
L 1984 4856 
z
" transform="scale(0.015625)"/>
       <path id="DejaVuSans-64" d="M 2906 2969 
L 2906 4863 
L 3481 4863 
L 3481 0 
L 2906 0 
L 2906 525 
Q 2725 213 2448 61 
Q 2172 -91 1784 -91 
Q 1150 -91 751 415 
Q 353 922 353 1747 
Q 353 2572 751 3078 
Q 1150 3584 1784 3584 
Q 2172 3584 2448 3432 
Q 2725 3281 2906 2969 
z
M 947 1747 
Q 947 1113 1208 752 
Q 1469 391 1925 391 
Q 2381 391 2643 752 
Q 2906 1113 2906 1747 
Q 2906 2381 2643 2742 
Q 2381 3103 1925 3103 
Q 1469 3103 1208 2742 
Q 947 2381 947 1747 
z
" transform="scale(0.015625)"/>
       <path id="DejaVuSans-61" d="M 2194 1759 
Q 1497 1759 1228 1600 
Q 959 1441 959 1056 
Q 959 750 1161 570 
Q 1363 391 1709 391 
Q 2188 391 2477 730 
Q 2766 1069 2766 1631 
L 2766 1759 
L 2194 1759 
z
M 3341 1997 
L 3341 0 
L 2766 0 
L 2766 531 
Q 2569 213 2275 61 
Q 1981 -91 1556 -91 
Q 1019 -91 701 211 
Q 384 513 384 1019 
Q 384 1609 779 1909 
Q 1175 2209 1959 2209 
L 2766 2209 
L 2766 2266 
Q 2766 2663 2505 2880 
Q 2244 3097 1772 3097 
Q 1472 3097 1187 3025 
Q 903 2953 641 2809 
L 641 3341 
Q 956 3463 1253 3523 
Q 1550 3584 1831 3584 
Q 2591 3584 2966 3190 
Q 3341 2797 3341 1997 
z
" transform="scale(0.015625)"/>
       <path id="DejaVuSans-79" d="M 2059 -325 
Q 1816 -950 1584 -1140 
Q 1353 -1331 966 -1331 
L 506 -1331 
L 506 -850 
L 844 -850 
Q 1081 -850 1212 -737 
Q 1344 -625 1503 -206 
L 1606 56 
L 191 3500 
L 800 3500 
L 1894 763 
L 2988 3500 
L 3597 3500 
L 2059 -325 
z
" transform="scale(0.015625)"/>
       <path id="DejaVuSans-73" d="M 2834 3397 
L 2834 2853 
Q 2591 2978 2328 3040 
Q 2066 3103 1784 3103 
Q 1356 3103 1142 2972 
Q 928 2841 928 2578 
Q 928 2378 1081 2264 
Q 1234 2150 1697 2047 
L 1894 2003 
Q 2506 1872 2764 1633 
Q 3022 1394 3022 966 
Q 3022 478 2636 193 
Q 2250 -91 1575 -91 
Q 1294 -91 989 -36 
Q 684 19 347 128 
L 347 722 
Q 666 556 975 473 
Q 1284 391 1588 391 
Q 1994 391 2212 530 
Q 2431 669 2431 922 
Q 2431 1156 2273 1281 
Q 2116 1406 1581 1522 
L 1381 1569 
Q 847 1681 609 1914 
Q 372 2147 372 2553 
Q 372 3047 722 3315 
Q 1072 3584 1716 3584 
Q 2034 3584 2315 3537 
Q 2597 3491 2834 3397 
z
" transform="scale(0.015625)"/>
       <path id="DejaVuSans-29" d="M 513 4856 
L 1013 4856 
Q 1481 4119 1714 3412 
Q 1947 2706 1947 2009 
Q 1947 1309 1714 600 
Q 1481 -109 1013 -844 
L 513 -844 
Q 928 -128 1133 580 
Q 1338 1288 1338 2009 
Q 1338 2731 1133 3434 
Q 928 4138 513 4856 
z
" transform="scale(0.015625)"/>
      </defs>
      <use xlink:href="#DejaVuSans-74"/>
      <use xlink:href="#DejaVuSans-69" x="39.208984"/>
      <use xlink:href="#DejaVuSans-6d" x="66.992188"/>
      <use xlink:href="#DejaVuSans-65" x="164.404297"/>
      <use xlink:href="#DejaVuSans-20" x="225.927734"/>
      <use xlink:href="#DejaVuSans-28" x="257.714844"/>
      <use xlink:href="#DejaVuSans-64" x="296.728516"/>
      <use xlink:href="#DejaVuSans-61" x="360.205078"/>
      <use xlink:href="#DejaVuSans-79" x="421.484375"/>
      <use xlink:href="#DejaVuSans-73" x="480.664062"/>
      <use xlink:href="#DejaVuSans-29" x="532.763672"/>
     </g>
    </g>
   </g>
   <g id="matplotlib.axis_2">
    <g id="ytick_1">
     <g id="line2d_8">
      <defs>
       <path id="m5e7accc926" d="M 0 0 
L -3.5 0 
" style="stroke: #000000; stroke-width: 0.8"/>
      </defs>
      <g>
       <use xlink:href="#m5e7accc926" x="30.103125" y="165.963775" style="stroke: #000000; stroke-width: 0.8"/>
      </g>
     </g>
     <g id="text_9">
      <!-- 0.0 -->
      <g transform="translate(7.2 169.762994) scale(0.1 -0.1)">
       <defs>
        <path id="DejaVuSans-2e" d="M 684 794 
L 1344 794 
L 1344 0 
L 684 0 
L 684 794 
z
" transform="scale(0.015625)"/>
       </defs>
       <use xlink:href="#DejaVuSans-30"/>
       <use xlink:href="#DejaVuSans-2e" x="63.623047"/>
       <use xlink:href="#DejaVuSans-30" x="95.410156"/>
      </g>
     </g>
    </g>
    <g id="ytick_2">
     <g id="line2d_9">
      <g>
       <use xlink:href="#m5e7accc926" x="30.103125" y="128.215574" style="stroke: #000000; stroke-width: 0.8"/>
      </g>
     </g>
     <g id="text_10">
      <!-- 0.1 -->
      <g transform="translate(7.2 132.014793) scale(0.1 -0.1)">
       <use xlink:href="#DejaVuSans-30"/>
       <use xlink:href="#DejaVuSans-2e" x="63.623047"/>
       <use xlink:href="#DejaVuSans-31" x="95.410156"/>
      </g>
     </g>
    </g>
    <g id="ytick_3">
     <g id="line2d_10">
      <g>
       <use xlink:href="#m5e7accc926" x="30.103125" y="90.467373" style="stroke: #000000; stroke-width: 0.8"/>
      </g>
     </g>
     <g id="text_11">
      <!-- 0.2 -->
      <g transform="translate(7.2 94.266592) scale(0.1 -0.1)">
       <use xlink:href="#DejaVuSans-30"/>
       <use xlink:href="#DejaVuSans-2e" x="63.623047"/>
       <use xlink:href="#DejaVuSans-32" x="95.410156"/>
      </g>
     </g>
    </g>
    <g id="ytick_4">
     <g id="line2d_11">
      <g>
       <use xlink:href="#m5e7accc926" x="30.103125" y="52.719172" style="stroke: #000000; stroke-width: 0.8"/>
      </g>
     </g>
     <g id="text_12">
      <!-- 0.3 -->
      <g transform="translate(7.2 56.518391) scale(0.1 -0.1)">
       <use xlink:href="#DejaVuSans-30"/>
       <use xlink:href="#DejaVuSans-2e" x="63.623047"/>
       <use xlink:href="#DejaVuSans-33" x="95.410156"/>
      </g>
     </g>
    </g>
    <g id="ytick_5">
     <g id="line2d_12">
      <g>
       <use xlink:href="#m5e7accc926" x="30.103125" y="14.970971" style="stroke: #000000; stroke-width: 0.8"/>
      </g>
     </g>
     <g id="text_13">
      <!-- 0.4 -->
      <g transform="translate(7.2 18.77019) scale(0.1 -0.1)">
       <defs>
        <path id="DejaVuSans-34" d="M 2419 4116 
L 825 1625 
L 2419 1625 
L 2419 4116 
z
M 2253 4666 
L 3047 4666 
L 3047 1625 
L 3713 1625 
L 3713 1100 
L 3047 1100 
L 3047 0 
L 2419 0 
L 2419 1100 
L 313 1100 
L 313 1709 
L 2253 4666 
z
" transform="scale(0.015625)"/>
       </defs>
       <use xlink:href="#DejaVuSans-30"/>
       <use xlink:href="#DejaVuSans-2e" x="63.623047"/>
       <use xlink:href="#DejaVuSans-34" x="95.410156"/>
      </g>
     </g>
    </g>
   </g>
   <g id="line2d_13">
    <path d="M 52.930398 165.96 
L 91.103095 165.844477 
L 101.79145 165.645084 
L 109.425989 165.335141 
L 114.006713 165.015359 
L 118.587436 164.477751 
L 123.16816 163.72449 
L 127.748884 162.665021 
L 130.802699 161.585124 
L 133.856515 160.36666 
L 135.383423 159.663327 
L 136.910331 158.836854 
L 139.964147 156.842444 
L 141.491054 155.622931 
L 144.54487 152.291718 
L 146.071778 150.497624 
L 149.125594 146.460926 
L 152.17941 140.856476 
L 155.233225 133.982877 
L 156.760133 129.679814 
L 158.287041 124.782819 
L 159.813949 120.28512 
L 161.340857 114.443825 
L 162.867765 108.03309 
L 164.394673 102.664738 
L 165.92158 95.665404 
L 167.448488 89.876713 
L 168.975396 83.643711 
L 170.502304 76.784751 
L 172.029212 70.787178 
L 175.083028 56.051903 
L 176.609936 48.854013 
L 178.136843 43.443076 
L 179.663751 37.405912 
L 181.190659 30.338241 
L 184.244475 20.767444 
L 185.771383 20.386834 
L 187.298291 19.06923 
L 188.825199 19.278078 
L 190.352106 18.013199 
L 191.879014 15.756839 
L 193.405922 14.76 
L 194.93283 17.117374 
L 196.459738 18.698738 
L 197.986646 21.158151 
L 199.513554 24.618063 
L 201.040462 24.909082 
L 202.567369 29.857433 
L 204.094277 30.933396 
L 205.621185 32.641936 
L 207.148093 33.508765 
L 208.675001 35.402249 
L 210.201909 39.291679 
L 214.782632 52.934239 
L 216.30954 57.205928 
L 217.836448 60.878878 
L 219.363356 65.856291 
L 220.890264 70.138141 
L 222.417172 72.15098 
L 225.470988 81.546013 
L 226.997895 84.637 
L 228.524803 86.835225 
L 230.051711 89.700972 
L 231.578619 92.844336 
L 233.105527 94.492872 
L 236.159343 99.005001 
L 237.686251 100.211175 
L 239.213158 102.332643 
L 240.740066 105.163819 
L 242.266974 107.635141 
L 243.793882 109.553 
L 245.32079 112.590493 
L 246.847698 114.336382 
L 248.374606 116.921194 
L 249.901514 118.263266 
L 251.428421 120.583503 
L 252.955329 122.587513 
L 254.482237 124.957074 
L 256.009145 126.658298 
L 257.536053 127.312215 
L 259.062961 128.739959 
L 260.589869 130.454606 
L 262.116777 131.932612 
L 263.643684 132.535629 
L 266.6975 134.486422 
L 271.278224 138.924765 
L 274.33204 140.152349 
L 280.439671 144.459384 
L 286.547303 148.132307 
L 288.07421 148.675585 
L 291.128026 149.287929 
L 294.181842 149.688299 
L 295.70875 150.288594 
L 300.289473 151.49051 
L 301.816381 151.746012 
L 304.870197 152.080634 
L 307.924013 152.811071 
L 309.450921 153.247894 
L 310.977829 153.543814 
L 312.504736 153.993905 
L 314.031644 154.253774 
L 315.558552 154.693844 
L 318.612368 155.134951 
L 320.139276 155.24661 
L 323.193092 155.88244 
L 324.719999 155.852606 
L 327.773815 156.45294 
L 332.354539 157.349213 
L 333.881447 157.507542 
L 335.408355 157.466688 
L 336.935262 157.569635 
L 339.989078 157.491098 
L 344.569802 158.143379 
L 350.677433 158.308669 
L 352.204341 158.474026 
L 361.365788 158.654226 
L 362.892696 158.559492 
L 364.419604 158.674199 
L 365.946512 158.564053 
L 369.000328 158.73746 
L 372.054144 158.90347 
L 378.161775 159.088246 
L 379.688683 159.050827 
L 381.215591 159.175421 
L 387.323222 158.976039 
L 391.903946 159.025048 
L 402.592301 158.787227 
L 404.119209 158.65656 
L 413.280656 158.496797 
L 416.334472 158.230537 
L 417.86138 158.250364 
L 420.915196 157.834248 
L 422.442103 157.763251 
L 423.969011 157.51579 
L 428.549735 157.502975 
L 430.076643 157.283532 
L 433.130459 157.156297 
L 440.764998 156.122402 
L 442.291906 156.11617 
L 443.818814 155.794282 
L 448.399537 155.508683 
L 452.980261 154.862363 
L 454.507169 154.560948 
L 459.087892 154.057381 
L 460.6148 153.792692 
L 462.141708 153.6823 
L 465.195524 153.108376 
L 466.722432 152.677011 
L 471.303155 152.455116 
L 472.830063 151.975088 
L 477.410787 151.547346 
L 483.518418 151.411451 
L 486.572234 151.248346 
L 488.099142 150.699553 
L 491.152958 150.108983 
L 494.206774 149.866536 
L 495.733681 149.565557 
L 497.260589 149.382212 
L 498.787497 148.975742 
L 500.314405 149.004014 
L 501.841313 148.541999 
L 503.368221 148.444188 
L 504.895129 148.063853 
L 509.475852 147.777533 
L 509.475852 147.777533 
" clip-path="url(#p934b7a497d)" style="fill: none; stroke: #1f77b4; stroke-width: 2.5; stroke-linecap: square"/>
   </g>
   <g id="line2d_14">
    <path d="M 52.930398 165.96 
L 91.103095 165.844477 
L 101.79145 165.645084 
L 109.425989 165.335141 
L 114.006713 165.015359 
L 118.587436 164.477751 
L 123.16816 163.72449 
L 127.748884 162.665021 
L 130.802699 161.585124 
L 133.856515 160.36666 
L 135.383423 159.663327 
L 136.910331 158.836854 
L 139.964147 156.842444 
L 141.491054 155.622931 
L 144.54487 152.291718 
L 146.071778 150.497624 
L 149.125594 146.460926 
L 152.17941 140.856476 
L 155.233225 133.982877 
L 156.760133 129.679814 
L 158.287041 124.782819 
L 159.813949 120.28512 
L 161.340857 114.443825 
L 162.867765 108.03309 
L 164.394673 102.664738 
L 165.92158 95.665404 
L 167.448488 89.876713 
L 168.975396 83.643711 
L 170.502304 76.784751 
L 172.029212 70.787178 
L 175.083028 56.051903 
L 176.609936 48.854013 
L 178.136843 43.443076 
L 179.663751 37.405912 
L 181.190659 30.338241 
L 184.244475 20.767444 
L 185.771383 20.386834 
L 187.298291 19.06923 
L 188.825199 19.278078 
L 190.352106 18.013199 
L 191.879014 15.756839 
L 193.405922 14.76 
L 194.93283 17.117374 
L 196.459738 18.698738 
L 197.986646 21.158151 
L 199.513554 24.618063 
L 201.040462 24.909082 
L 202.567369 29.857433 
L 204.094277 30.933396 
L 205.621185 32.641936 
L 207.148093 33.508765 
L 208.675001 35.402249 
L 210.201909 39.291679 
L 214.782632 52.934239 
L 216.30954 57.205928 
L 217.836448 60.878878 
L 219.363356 65.856291 
L 220.890264 70.138141 
L 222.417172 72.15098 
L 225.470988 81.546013 
L 226.997895 84.637 
L 228.524803 86.835225 
L 230.051711 89.700972 
L 231.578619 92.844336 
L 233.105527 94.492872 
L 236.159343 99.005001 
L 237.686251 100.211175 
L 239.213158 102.332643 
L 240.740066 105.163819 
L 242.266974 107.635141 
L 243.793882 109.553 
L 245.32079 112.590493 
L 246.847698 114.336382 
L 248.374606 116.921194 
L 249.901514 118.263266 
L 251.428421 120.583503 
L 252.955329 122.587513 
L 254.482237 124.957074 
L 256.009145 126.658298 
L 257.536053 127.312215 
L 259.062961 128.739959 
L 260.589869 130.454606 
L 262.116777 131.932612 
L 263.643684 132.535629 
L 266.6975 134.486422 
L 271.278224 138.924765 
L 274.33204 140.152349 
L 280.439671 144.459384 
L 286.547303 148.132307 
L 288.07421 148.675585 
L 291.128026 149.287929 
L 294.181842 149.688299 
L 295.70875 150.288594 
L 300.289473 151.49051 
L 301.816381 151.746012 
L 304.870197 152.080634 
L 307.924013 152.811071 
L 309.450921 153.247894 
L 310.977829 153.543814 
L 312.504736 153.993905 
L 314.031644 154.253774 
L 315.558552 154.693844 
L 318.612368 155.134951 
L 320.139276 155.24661 
L 323.193092 155.88244 
L 324.719999 155.852606 
L 327.773815 156.45294 
L 332.354539 157.349213 
L 333.881447 157.507542 
L 335.408355 157.466688 
L 336.935262 157.569635 
L 339.989078 157.491098 
L 344.569802 158.143379 
L 350.677433 158.308669 
L 352.204341 158.474026 
L 361.365788 158.654226 
L 362.892696 158.559492 
L 364.419604 158.674199 
L 365.946512 158.564053 
L 369.000328 158.73746 
L 372.054144 158.90347 
L 378.161775 159.088246 
L 379.688683 159.050827 
L 381.215591 159.175421 
L 387.323222 158.976039 
L 391.903946 159.025048 
L 402.592301 158.787227 
L 404.119209 158.65656 
L 413.280656 158.496797 
L 416.334472 158.230537 
L 417.86138 158.250364 
L 420.915196 157.834248 
L 422.442103 157.763251 
L 423.969011 157.51579 
L 428.549735 157.502975 
L 430.076643 157.283532 
L 433.130459 157.156297 
L 440.764998 156.122402 
L 442.291906 156.11617 
L 443.818814 155.794282 
L 448.399537 155.508683 
L 452.980261 154.862363 
L 454.507169 154.560948 
L 459.087892 154.057381 
L 460.6148 153.792692 
L 462.141708 153.6823 
L 465.195524 153.108376 
L 466.722432 152.677011 
L 471.303155 152.455116 
L 472.830063 151.975088 
L 477.410787 151.547346 
L 483.518418 151.411451 
L 486.572234 151.248346 
L 488.099142 150.699553 
L 491.152958 150.108983 
L 494.206774 149.866536 
L 495.733681 149.565557 
L 497.260589 149.382212 
L 498.787497 148.975742 
L 500.314405 149.004014 
L 501.841313 148.541999 
L 503.368221 148.444188 
L 504.895129 148.063853 
L 507.948944 147.79233 
L 507.948944 147.79233 
" clip-path="url(#p934b7a497d)" style="fill: none; stroke-dasharray: 5.55,2.4; stroke-dashoffset: 0; stroke: #000000; stroke-width: 1.5"/>
   </g>
   <g id="line2d_15">
    <path d="M 52.930398 158.222207 
L 54.457306 157.897266 
L 55.984213 148.625939 
L 57.511121 148.613676 
L 59.038029 158.982361 
L 60.564937 147.632628 
L 62.091845 161.666383 
L 63.618753 147.301149 
L 65.145661 151.912685 
L 66.672569 159.267309 
L 68.199476 148.492223 
L 69.726384 159.920369 
L 71.253292 147.255065 
L 72.7802 154.751757 
L 74.307108 160.499896 
L 75.834016 158.05199 
L 77.360924 159.03126 
L 78.887832 161.408691 
L 80.414739 155.277773 
L 81.941647 153.808611 
L 83.468555 149.569203 
L 84.995463 149.358936 
L 89.576187 160.783658 
L 91.103095 150.111534 
L 92.630002 155.510964 
L 94.15691 150.154358 
L 95.683818 160.945103 
L 97.210726 160.654769 
L 98.737634 153.47295 
L 100.264542 159.261801 
L 101.79145 152.916467 
L 103.318358 155.831954 
L 104.845265 147.158314 
L 106.372173 161.013522 
L 107.899081 152.294625 
L 109.425989 147.096613 
L 110.952897 157.937602 
L 112.479805 158.338341 
L 114.006713 162.107226 
L 115.533621 162.034205 
L 117.060528 155.943892 
L 118.587436 154.264618 
L 120.114344 162.108378 
L 121.641252 147.281162 
L 123.16816 153.334661 
L 124.695068 152.168372 
L 126.221976 148.971908 
L 127.748884 158.187482 
L 129.275791 156.12128 
L 130.802699 151.262998 
L 132.329607 147.417487 
L 133.856515 147.748134 
L 135.383423 150.049076 
L 136.910331 152.590312 
L 138.437239 148.3794 
L 139.964147 151.835208 
L 141.491054 160.076601 
L 143.017962 156.88688 
L 144.54487 152.101031 
L 146.071778 151.746212 
L 147.598686 147.83075 
L 149.125594 156.861661 
L 150.652502 154.12572 
L 152.17941 159.158367 
L 153.706317 150.584811 
L 155.233225 158.558518 
L 156.760133 159.834473 
L 158.287041 151.365806 
L 159.813949 159.800711 
L 161.340857 160.009117 
L 162.867765 149.679897 
L 164.394673 158.256149 
L 165.92158 149.523102 
L 167.448488 151.427127 
L 168.975396 154.106834 
L 170.502304 150.274127 
L 172.029212 157.187666 
L 173.55612 155.909536 
L 175.083028 156.67846 
L 176.609936 151.834231 
L 178.136843 155.435654 
L 179.663751 159.98286 
L 181.190659 155.313981 
L 182.717567 156.334248 
L 184.244475 147.09117 
L 185.771383 151.635005 
L 187.298291 149.636816 
L 188.825199 155.245264 
L 190.352106 159.415445 
L 191.879014 157.711515 
L 193.405922 150.765692 
L 194.93283 153.974567 
L 196.459738 152.882851 
L 197.986646 151.257354 
L 199.513554 160.481004 
L 201.040462 148.893093 
L 202.567369 159.956236 
L 204.094277 158.874055 
L 205.621185 161.843793 
L 207.148093 159.48938 
L 208.675001 154.177265 
L 210.201909 152.00643 
L 211.728817 152.521784 
L 213.255725 152.225164 
L 214.782632 152.779375 
L 216.30954 154.585069 
L 217.836448 149.704153 
L 219.363356 151.656654 
L 220.890264 160.058575 
L 222.417172 149.147213 
L 223.94408 148.479897 
L 225.470988 154.573426 
L 226.997895 158.280431 
L 228.524803 154.883781 
L 230.051711 153.053628 
L 231.578619 160.144905 
L 233.105527 157.268819 
L 234.632435 155.899483 
L 236.159343 161.911585 
L 237.686251 156.530272 
L 239.213158 151.905463 
L 240.740066 153.340082 
L 242.266974 156.243657 
L 243.793882 148.292076 
L 245.32079 156.225478 
L 246.847698 149.618839 
L 248.374606 158.126703 
L 249.901514 150.025097 
L 251.428421 151.641842 
L 252.955329 147.607885 
L 254.482237 152.479374 
L 256.009145 161.762717 
L 257.536053 153.996539 
L 259.062961 150.447735 
L 260.589869 152.014641 
L 262.116777 160.92316 
L 263.643684 156.253227 
L 265.170592 156.250645 
L 266.6975 149.16351 
L 268.224408 147.175321 
L 269.751316 149.077385 
L 271.278224 157.660393 
L 272.805132 158.563923 
L 274.33204 150.678175 
L 275.858947 151.43413 
L 277.385855 148.743349 
L 278.912763 147.17195 
L 280.439671 149.314895 
L 281.966579 148.13941 
L 283.493487 147.72294 
L 285.020395 148.642245 
L 286.547303 153.805338 
L 288.07421 158.293517 
L 289.601118 158.30869 
L 291.128026 161.004687 
L 292.654934 159.273139 
L 294.181842 150.511774 
L 295.70875 154.321935 
L 297.235658 151.971803 
L 298.762566 156.249247 
L 300.289473 157.060907 
L 301.816381 160.417336 
L 303.343289 157.55919 
L 304.870197 154.359909 
L 306.397105 151.704225 
L 307.924013 150.287121 
L 309.450921 153.857547 
L 310.977829 148.779305 
L 312.504736 154.080036 
L 314.031644 147.903875 
L 315.558552 153.865486 
L 317.08546 154.834197 
L 318.612368 157.636806 
L 320.139276 148.168966 
L 321.666184 151.59766 
L 323.193092 162.082628 
L 324.719999 147.776201 
L 326.246907 150.840849 
L 327.773815 147.974476 
L 329.300723 147.998877 
L 330.827631 147.904524 
L 332.354539 152.89083 
L 333.881447 161.460042 
L 335.408355 154.870664 
L 336.935262 161.547641 
L 338.46217 160.293287 
L 339.989078 147.794163 
L 341.515986 148.009068 
L 343.042894 150.426177 
L 344.569802 157.579076 
L 346.09671 159.954247 
L 347.623618 149.806909 
L 349.150525 156.81268 
L 350.677433 149.410735 
L 352.204341 155.579367 
L 353.731249 158.95115 
L 355.258157 151.399176 
L 356.785065 158.343512 
L 358.311973 151.701157 
L 361.365788 161.179881 
L 362.892696 150.261117 
L 364.419604 161.636634 
L 365.946512 153.575136 
L 367.47342 148.880226 
L 369.000328 148.38416 
L 370.527236 153.561361 
L 372.054144 151.461873 
L 373.581051 155.102804 
L 375.107959 149.434575 
L 376.634867 153.281734 
L 378.161775 156.438041 
L 379.688683 147.411934 
L 381.215591 157.967859 
L 382.742499 161.399936 
L 384.269407 149.976369 
L 385.796314 156.915326 
L 387.323222 151.636144 
L 388.85013 155.819661 
L 390.377038 149.623309 
L 391.903946 154.667029 
L 393.430854 157.84608 
L 394.957762 147.729779 
L 396.48467 156.037233 
L 398.011577 156.736017 
L 399.538485 150.314196 
L 401.065393 156.765652 
L 402.592301 158.736263 
L 404.119209 152.622855 
L 405.646117 154.351877 
L 407.173025 149.743361 
L 408.699933 149.976093 
L 410.22684 157.382357 
L 411.753748 152.38082 
L 413.280656 157.841369 
L 414.807564 157.154511 
L 416.334472 149.6637 
L 417.86138 161.331254 
L 419.388288 159.652081 
L 420.915196 153.555298 
L 422.442103 161.53202 
L 423.969011 150.112134 
L 425.495919 151.918073 
L 427.022827 148.294416 
L 428.549735 159.486645 
L 430.076643 153.048934 
L 431.603551 151.538947 
L 433.130459 159.178946 
L 434.657366 159.085146 
L 436.184274 160.140511 
L 437.711182 154.229634 
L 439.23809 155.728125 
L 440.764998 149.165977 
L 442.291906 161.185268 
L 443.818814 151.593951 
L 445.345722 149.758481 
L 446.872629 155.254107 
L 448.399537 156.026342 
L 449.926445 156.611582 
L 451.453353 155.687879 
L 452.980261 158.61009 
L 454.507169 153.470769 
L 456.034077 155.640359 
L 457.560985 152.095963 
L 459.087892 156.555789 
L 460.6148 151.546797 
L 462.141708 156.058323 
L 463.668616 157.520245 
L 465.195524 160.688494 
L 466.722432 149.334901 
L 468.24934 149.176539 
L 469.776248 151.700777 
L 471.303155 161.35956 
L 472.830063 151.721751 
L 474.356971 152.205591 
L 475.883879 151.280559 
L 477.410787 148.446747 
L 478.937695 148.222297 
L 480.464603 147.144348 
L 481.991511 151.438335 
L 483.518418 150.187519 
L 485.045326 149.89179 
L 486.572234 162.015727 
L 488.099142 156.058859 
L 489.62605 154.314573 
L 491.152958 150.61617 
L 492.679866 151.117831 
L 494.206774 155.086639 
L 495.733681 152.276257 
L 497.260589 157.340324 
L 498.787497 147.492519 
L 500.314405 158.44339 
L 501.841313 150.31819 
L 503.368221 156.438781 
L 504.895129 150.034765 
L 506.422037 152.304431 
L 507.948944 148.700758 
L 509.475852 150.997222 
L 509.475852 150.997222 
" clip-path="url(#p934b7a497d)" style="fill: none; stroke: #ff7f0e; stroke-opacity: 0.5; stroke-width: 1.5; stroke-linecap: square"/>
   </g>
   <g id="patch_3">
    <path d="M 30.103125 173.52 
L 30.103125 7.2 
" style="fill: none; stroke: #000000; stroke-width: 0.8; stroke-linejoin: miter; stroke-linecap: square"/>
   </g>
   <g id="patch_4">
    <path d="M 532.303125 173.52 
L 532.303125 7.2 
" style="fill: none; stroke: #000000; stroke-width: 0.8; stroke-linejoin: miter; stroke-linecap: square"/>
   </g>
   <g id="patch_5">
    <path d="M 30.103125 173.52 
L 532.303125 173.52 
" style="fill: none; stroke: #000000; stroke-width: 0.8; stroke-linejoin: miter; stroke-linecap: square"/>
   </g>
   <g id="patch_6">
    <path d="M 30.103125 7.2 
L 532.303125 7.2 
" style="fill: none; stroke: #000000; stroke-width: 0.8; stroke-linejoin: miter; stroke-linecap: square"/>
   </g>
   <g id="legend_1">
    <g id="patch_7">
     <path d="M 442.103125 60.75625 
L 525.303125 60.75625 
Q 527.303125 60.75625 527.303125 58.75625 
L 527.303125 14.2 
Q 527.303125 12.2 525.303125 12.2 
L 442.103125 12.2 
Q 440.103125 12.2 440.103125 14.2 
L 440.103125 58.75625 
Q 440.103125 60.75625 442.103125 60.75625 
z
" style="fill: #ffffff; opacity: 0.8; stroke: #cccccc; stroke-linejoin: miter"/>
    </g>
    <g id="line2d_16">
     <path d="M 444.103125 20.298438 
L 454.103125 20.298438 
L 464.103125 20.298438 
" style="fill: none; stroke: #1f77b4; stroke-width: 2.5; stroke-linecap: square"/>
    </g>
    <g id="text_14">
     <!-- $I$ - Exact -->
     <g transform="translate(472.103125 23.798438) scale(0.1 -0.1)">
      <defs>
       <path id="DejaVuSans-Oblique-49" d="M 1081 4666 
L 1716 4666 
L 806 0 
L 172 0 
L 1081 4666 
z
" transform="scale(0.015625)"/>
       <path id="DejaVuSans-2d" d="M 313 2009 
L 1997 2009 
L 1997 1497 
L 313 1497 
L 313 2009 
z
" transform="scale(0.015625)"/>
       <path id="DejaVuSans-45" d="M 628 4666 
L 3578 4666 
L 3578 4134 
L 1259 4134 
L 1259 2753 
L 3481 2753 
L 3481 2222 
L 1259 2222 
L 1259 531 
L 3634 531 
L 3634 0 
L 628 0 
L 628 4666 
z
" transform="scale(0.015625)"/>
       <path id="DejaVuSans-78" d="M 3513 3500 
L 2247 1797 
L 3578 0 
L 2900 0 
L 1881 1375 
L 863 0 
L 184 0 
L 1544 1831 
L 300 3500 
L 978 3500 
L 1906 2253 
L 2834 3500 
L 3513 3500 
z
" transform="scale(0.015625)"/>
       <path id="DejaVuSans-63" d="M 3122 3366 
L 3122 2828 
Q 2878 2963 2633 3030 
Q 2388 3097 2138 3097 
Q 1578 3097 1268 2742 
Q 959 2388 959 1747 
Q 959 1106 1268 751 
Q 1578 397 2138 397 
Q 2388 397 2633 464 
Q 2878 531 3122 666 
L 3122 134 
Q 2881 22 2623 -34 
Q 2366 -91 2075 -91 
Q 1284 -91 818 406 
Q 353 903 353 1747 
Q 353 2603 823 3093 
Q 1294 3584 2113 3584 
Q 2378 3584 2631 3529 
Q 2884 3475 3122 3366 
z
" transform="scale(0.015625)"/>
      </defs>
      <use xlink:href="#DejaVuSans-Oblique-49" transform="translate(0 0.09375)"/>
      <use xlink:href="#DejaVuSans-20" transform="translate(29.492188 0.09375)"/>
      <use xlink:href="#DejaVuSans-2d" transform="translate(61.279297 0.09375)"/>
      <use xlink:href="#DejaVuSans-20" transform="translate(97.363281 0.09375)"/>
      <use xlink:href="#DejaVuSans-45" transform="translate(129.150391 0.09375)"/>
      <use xlink:href="#DejaVuSans-78" transform="translate(192.333984 0.09375)"/>
      <use xlink:href="#DejaVuSans-61" transform="translate(251.513672 0.09375)"/>
      <use xlink:href="#DejaVuSans-63" transform="translate(312.792969 0.09375)"/>
      <use xlink:href="#DejaVuSans-74" transform="translate(367.773438 0.09375)"/>
     </g>
    </g>
    <g id="line2d_17">
     <path d="M 444.103125 36.498438 
L 454.103125 36.498438 
L 464.103125 36.498438 
" style="fill: none; stroke-dasharray: 5.55,2.4; stroke-dashoffset: 0; stroke: #000000; stroke-width: 1.5"/>
    </g>
    <g id="text_15">
     <!-- $\hat{I}$ - Estim. -->
     <g transform="translate(472.103125 39.998438) scale(0.1 -0.1)">
      <defs>
       <path id="DejaVuSans-302" d="M -1831 5119 
L -1369 5119 
L -603 3944 
L -1038 3944 
L -1600 4709 
L -2163 3944 
L -2597 3944 
L -1831 5119 
z
M -1600 3584 
L -1600 3584 
z
" transform="scale(0.015625)"/>
      </defs>
      <use xlink:href="#DejaVuSans-302" transform="translate(42.951172 30.015625)"/>
      <use xlink:href="#DejaVuSans-Oblique-49" transform="translate(0 0.609375)"/>
      <use xlink:href="#DejaVuSans-20" transform="translate(29.492188 0.609375)"/>
      <use xlink:href="#DejaVuSans-2d" transform="translate(61.279297 0.609375)"/>
      <use xlink:href="#DejaVuSans-20" transform="translate(97.363281 0.609375)"/>
      <use xlink:href="#DejaVuSans-45" transform="translate(129.150391 0.609375)"/>
      <use xlink:href="#DejaVuSans-73" transform="translate(192.333984 0.609375)"/>
      <use xlink:href="#DejaVuSans-74" transform="translate(244.433594 0.609375)"/>
      <use xlink:href="#DejaVuSans-69" transform="translate(283.642578 0.609375)"/>
      <use xlink:href="#DejaVuSans-6d" transform="translate(311.425781 0.609375)"/>
      <use xlink:href="#DejaVuSans-2e" transform="translate(408.837891 0.609375)"/>
     </g>
    </g>
    <g id="line2d_18">
     <path d="M 444.103125 51.176563 
L 454.103125 51.176563 
L 464.103125 51.176563 
" style="fill: none; stroke: #ff7f0e; stroke-opacity: 0.5; stroke-width: 1.5; stroke-linecap: square"/>
    </g>
    <g id="text_16">
     <!-- $u$ - control -->
     <g transform="translate(472.103125 54.676563) scale(0.1 -0.1)">
      <defs>
       <path id="DejaVuSans-Oblique-75" d="M 428 1388 
L 838 3500 
L 1416 3500 
L 1006 1409 
Q 975 1256 961 1147 
Q 947 1038 947 966 
Q 947 700 1109 554 
Q 1272 409 1569 409 
Q 2031 409 2368 721 
Q 2706 1034 2809 1563 
L 3194 3500 
L 3769 3500 
L 3091 0 
L 2516 0 
L 2631 550 
Q 2388 244 2052 76 
Q 1716 -91 1338 -91 
Q 878 -91 622 161 
Q 366 413 366 863 
Q 366 956 381 1097 
Q 397 1238 428 1388 
z
" transform="scale(0.015625)"/>
       <path id="DejaVuSans-6f" d="M 1959 3097 
Q 1497 3097 1228 2736 
Q 959 2375 959 1747 
Q 959 1119 1226 758 
Q 1494 397 1959 397 
Q 2419 397 2687 759 
Q 2956 1122 2956 1747 
Q 2956 2369 2687 2733 
Q 2419 3097 1959 3097 
z
M 1959 3584 
Q 2709 3584 3137 3096 
Q 3566 2609 3566 1747 
Q 3566 888 3137 398 
Q 2709 -91 1959 -91 
Q 1206 -91 779 398 
Q 353 888 353 1747 
Q 353 2609 779 3096 
Q 1206 3584 1959 3584 
z
" transform="scale(0.015625)"/>
       <path id="DejaVuSans-6e" d="M 3513 2113 
L 3513 0 
L 2938 0 
L 2938 2094 
Q 2938 2591 2744 2837 
Q 2550 3084 2163 3084 
Q 1697 3084 1428 2787 
Q 1159 2491 1159 1978 
L 1159 0 
L 581 0 
L 581 3500 
L 1159 3500 
L 1159 2956 
Q 1366 3272 1645 3428 
Q 1925 3584 2291 3584 
Q 2894 3584 3203 3211 
Q 3513 2838 3513 2113 
z
" transform="scale(0.015625)"/>
       <path id="DejaVuSans-72" d="M 2631 2963 
Q 2534 3019 2420 3045 
Q 2306 3072 2169 3072 
Q 1681 3072 1420 2755 
Q 1159 2438 1159 1844 
L 1159 0 
L 581 0 
L 581 3500 
L 1159 3500 
L 1159 2956 
Q 1341 3275 1631 3429 
Q 1922 3584 2338 3584 
Q 2397 3584 2469 3576 
Q 2541 3569 2628 3553 
L 2631 2963 
z
" transform="scale(0.015625)"/>
       <path id="DejaVuSans-6c" d="M 603 4863 
L 1178 4863 
L 1178 0 
L 603 0 
L 603 4863 
z
" transform="scale(0.015625)"/>
      </defs>
      <use xlink:href="#DejaVuSans-Oblique-75" transform="translate(0 0.015625)"/>
      <use xlink:href="#DejaVuSans-20" transform="translate(63.378906 0.015625)"/>
      <use xlink:href="#DejaVuSans-2d" transform="translate(95.166016 0.015625)"/>
      <use xlink:href="#DejaVuSans-20" transform="translate(131.25 0.015625)"/>
      <use xlink:href="#DejaVuSans-63" transform="translate(163.037109 0.015625)"/>
      <use xlink:href="#DejaVuSans-6f" transform="translate(218.017578 0.015625)"/>
      <use xlink:href="#DejaVuSans-6e" transform="translate(279.199219 0.015625)"/>
      <use xlink:href="#DejaVuSans-74" transform="translate(342.578125 0.015625)"/>
      <use xlink:href="#DejaVuSans-72" transform="translate(381.787109 0.015625)"/>
      <use xlink:href="#DejaVuSans-6f" transform="translate(422.900391 0.015625)"/>
      <use xlink:href="#DejaVuSans-6c" transform="translate(484.082031 0.015625)"/>
     </g>
    </g>
   </g>
  </g>
 </g>
 <defs>
  <clipPath id="p934b7a497d">
   <rect x="30.103125" y="7.2" width="502.2" height="166.32"/>
  </clipPath>
 </defs>
</svg>
