<?xml version="1.0" encoding="utf-8" standalone="no"?>
<!DOCTYPE svg PUBLIC "-//W3C//DTD SVG 1.1//EN"
  "http://www.w3.org/Graphics/SVG/1.1/DTD/svg11.dtd">
<svg xmlns:xlink="http://www.w3.org/1999/xlink" width="595.303125pt" height="211.07625pt" viewBox="0 0 595.303125 211.07625" xmlns="http://www.w3.org/2000/svg" version="1.1">
 <metadata>
  <rdf:RDF xmlns:dc="http://purl.org/dc/elements/1.1/" xmlns:cc="http://creativecommons.org/ns#" xmlns:rdf="http://www.w3.org/1999/02/22-rdf-syntax-ns#">
   <cc:Work>
    <dc:type rdf:resource="http://purl.org/dc/dcmitype/StillImage"/>
    <dc:date>2025-06-19T16:32:33.712020</dc:date>
    <dc:format>image/svg+xml</dc:format>
    <dc:creator>
     <cc:Agent>
      <dc:title>Matplotlib v3.6.3, https://matplotlib.org/</dc:title>
     </cc:Agent>
    </dc:creator>
   </cc:Work>
  </rdf:RDF>
 </metadata>
 <defs>
  <style type="text/css">*{stroke-linejoin: round; stroke-linecap: butt}</style>
 </defs>
 <g id="figure_1">
  <g id="patch_1">
   <path d="M -0 211.07625 
L 595.303125 211.07625 
L 595.303125 0 
L -0 0 
z
" style="fill: #ffffff"/>
  </g>
  <g id="axes_1">
   <g id="patch_2">
    <path d="M 30.103125 173.52 
L 588.103125 173.52 
L 588.103125 7.2 
L 30.103125 7.2 
z
" style="fill: #ffffff"/>
   </g>
   <g id="matplotlib.axis_1">
    <g id="xtick_1">
     <g id="line2d_1">
      <defs>
       <path id="m670b0f7391" d="M 0 0 
L 0 3.5 
" style="stroke: #000000; stroke-width: 0.8"/>
      </defs>
      <g>
       <use xlink:href="#m670b0f7391" x="55.466761" y="173.52" style="stroke: #000000; stroke-width: 0.8"/>
      </g>
     </g>
     <g id="text_1">
      <!-- 0 -->
      <g transform="translate(52.285511 188.118438) scale(0.1 -0.1)">
       <defs>
        <path id="DejaVuSans-30" d="M 2034 4250 
Q 1547 4250 1301 3770 
Q 1056 3291 1056 2328 
Q 1056 1369 1301 889 
Q 1547 409 2034 409 
Q 2525 409 2770 889 
Q 3016 1369 3016 2328 
Q 3016 3291 2770 3770 
Q 2525 4250 2034 4250 
z
M 2034 4750 
Q 2819 4750 3233 4129 
Q 3647 3509 3647 2328 
Q 3647 1150 3233 529 
Q 2819 -91 2034 -91 
Q 1250 -91 836 529 
Q 422 1150 422 2328 
Q 422 3509 836 4129 
Q 1250 4750 2034 4750 
z
" transform="scale(0.015625)"/>
       </defs>
       <use xlink:href="#DejaVuSans-30"/>
      </g>
     </g>
    </g>
    <g id="xtick_2">
     <g id="line2d_2">
      <g>
       <use xlink:href="#m670b0f7391" x="140.294977" y="173.52" style="stroke: #000000; stroke-width: 0.8"/>
      </g>
     </g>
     <g id="text_2">
      <!-- 50 -->
      <g transform="translate(133.932477 188.118438) scale(0.1 -0.1)">
       <defs>
        <path id="DejaVuSans-35" d="M 691 4666 
L 3169 4666 
L 3169 4134 
L 1269 4134 
L 1269 2991 
Q 1406 3038 1543 3061 
Q 1681 3084 1819 3084 
Q 2600 3084 3056 2656 
Q 3513 2228 3513 1497 
Q 3513 744 3044 326 
Q 2575 -91 1722 -91 
Q 1428 -91 1123 -41 
Q 819 9 494 109 
L 494 744 
Q 775 591 1075 516 
Q 1375 441 1709 441 
Q 2250 441 2565 725 
Q 2881 1009 2881 1497 
Q 2881 1984 2565 2268 
Q 2250 2553 1709 2553 
Q 1456 2553 1204 2497 
Q 953 2441 691 2322 
L 691 4666 
z
" transform="scale(0.015625)"/>
       </defs>
       <use xlink:href="#DejaVuSans-35"/>
       <use xlink:href="#DejaVuSans-30" x="63.623047"/>
      </g>
     </g>
    </g>
    <g id="xtick_3">
     <g id="line2d_3">
      <g>
       <use xlink:href="#m670b0f7391" x="225.123192" y="173.52" style="stroke: #000000; stroke-width: 0.8"/>
      </g>
     </g>
     <g id="text_3">
      <!-- 100 -->
      <g transform="translate(215.579442 188.118438) scale(0.1 -0.1)">
       <defs>
        <path id="DejaVuSans-31" d="M 794 531 
L 1825 531 
L 1825 4091 
L 703 3866 
L 703 4441 
L 1819 4666 
L 2450 4666 
L 2450 531 
L 3481 531 
L 3481 0 
L 794 0 
L 794 531 
z
" transform="scale(0.015625)"/>
       </defs>
       <use xlink:href="#DejaVuSans-31"/>
       <use xlink:href="#DejaVuSans-30" x="63.623047"/>
       <use xlink:href="#DejaVuSans-30" x="127.246094"/>
      </g>
     </g>
    </g>
    <g id="xtick_4">
     <g id="line2d_4">
      <g>
       <use xlink:href="#m670b0f7391" x="309.951407" y="173.52" style="stroke: #000000; stroke-width: 0.8"/>
      </g>
     </g>
     <g id="text_4">
      <!-- 150 -->
      <g transform="translate(300.407657 188.118438) scale(0.1 -0.1)">
       <use xlink:href="#DejaVuSans-31"/>
       <use xlink:href="#DejaVuSans-35" x="63.623047"/>
       <use xlink:href="#DejaVuSans-30" x="127.246094"/>
      </g>
     </g>
    </g>
    <g id="xtick_5">
     <g id="line2d_5">
      <g>
       <use xlink:href="#m670b0f7391" x="394.779622" y="173.52" style="stroke: #000000; stroke-width: 0.8"/>
      </g>
     </g>
     <g id="text_5">
      <!-- 200 -->
      <g transform="translate(385.235872 188.118438) scale(0.1 -0.1)">
       <defs>
        <path id="DejaVuSans-32" d="M 1228 531 
L 3431 531 
L 3431 0 
L 469 0 
L 469 531 
Q 828 903 1448 1529 
Q 2069 2156 2228 2338 
Q 2531 2678 2651 2914 
Q 2772 3150 2772 3378 
Q 2772 3750 2511 3984 
Q 2250 4219 1831 4219 
Q 1534 4219 1204 4116 
Q 875 4013 500 3803 
L 500 4441 
Q 881 4594 1212 4672 
Q 1544 4750 1819 4750 
Q 2544 4750 2975 4387 
Q 3406 4025 3406 3419 
Q 3406 3131 3298 2873 
Q 3191 2616 2906 2266 
Q 2828 2175 2409 1742 
Q 1991 1309 1228 531 
z
" transform="scale(0.015625)"/>
       </defs>
       <use xlink:href="#DejaVuSans-32"/>
       <use xlink:href="#DejaVuSans-30" x="63.623047"/>
       <use xlink:href="#DejaVuSans-30" x="127.246094"/>
      </g>
     </g>
    </g>
    <g id="xtick_6">
     <g id="line2d_6">
      <g>
       <use xlink:href="#m670b0f7391" x="479.607838" y="173.52" style="stroke: #000000; stroke-width: 0.8"/>
      </g>
     </g>
     <g id="text_6">
      <!-- 250 -->
      <g transform="translate(470.064088 188.118438) scale(0.1 -0.1)">
       <use xlink:href="#DejaVuSans-32"/>
       <use xlink:href="#DejaVuSans-35" x="63.623047"/>
       <use xlink:href="#DejaVuSans-30" x="127.246094"/>
      </g>
     </g>
    </g>
    <g id="xtick_7">
     <g id="line2d_7">
      <g>
       <use xlink:href="#m670b0f7391" x="564.436053" y="173.52" style="stroke: #000000; stroke-width: 0.8"/>
      </g>
     </g>
     <g id="text_7">
      <!-- 300 -->
      <g transform="translate(554.892303 188.118438) scale(0.1 -0.1)">
       <defs>
        <path id="DejaVuSans-33" d="M 2597 2516 
Q 3050 2419 3304 2112 
Q 3559 1806 3559 1356 
Q 3559 666 3084 287 
Q 2609 -91 1734 -91 
Q 1441 -91 1130 -33 
Q 819 25 488 141 
L 488 750 
Q 750 597 1062 519 
Q 1375 441 1716 441 
Q 2309 441 2620 675 
Q 2931 909 2931 1356 
Q 2931 1769 2642 2001 
Q 2353 2234 1838 2234 
L 1294 2234 
L 1294 2753 
L 1863 2753 
Q 2328 2753 2575 2939 
Q 2822 3125 2822 3475 
Q 2822 3834 2567 4026 
Q 2313 4219 1838 4219 
Q 1578 4219 1281 4162 
Q 984 4106 628 3988 
L 628 4550 
Q 988 4650 1302 4700 
Q 1616 4750 1894 4750 
Q 2613 4750 3031 4423 
Q 3450 4097 3450 3541 
Q 3450 3153 3228 2886 
Q 3006 2619 2597 2516 
z
" transform="scale(0.015625)"/>
       </defs>
       <use xlink:href="#DejaVuSans-33"/>
       <use xlink:href="#DejaVuSans-30" x="63.623047"/>
       <use xlink:href="#DejaVuSans-30" x="127.246094"/>
      </g>
     </g>
    </g>
    <g id="text_8">
     <!-- time (days) -->
     <g transform="translate(280.514062 201.796563) scale(0.1 -0.1)">
      <defs>
       <path id="DejaVuSans-74" d="M 1172 4494 
L 1172 3500 
L 2356 3500 
L 2356 3053 
L 1172 3053 
L 1172 1153 
Q 1172 725 1289 603 
Q 1406 481 1766 481 
L 2356 481 
L 2356 0 
L 1766 0 
Q 1100 0 847 248 
Q 594 497 594 1153 
L 594 3053 
L 172 3053 
L 172 3500 
L 594 3500 
L 594 4494 
L 1172 4494 
z
" transform="scale(0.015625)"/>
       <path id="DejaVuSans-69" d="M 603 3500 
L 1178 3500 
L 1178 0 
L 603 0 
L 603 3500 
z
M 603 4863 
L 1178 4863 
L 1178 4134 
L 603 4134 
L 603 4863 
z
" transform="scale(0.015625)"/>
       <path id="DejaVuSans-6d" d="M 3328 2828 
Q 3544 3216 3844 3400 
Q 4144 3584 4550 3584 
Q 5097 3584 5394 3201 
Q 5691 2819 5691 2113 
L 5691 0 
L 5113 0 
L 5113 2094 
Q 5113 2597 4934 2840 
Q 4756 3084 4391 3084 
Q 3944 3084 3684 2787 
Q 3425 2491 3425 1978 
L 3425 0 
L 2847 0 
L 2847 2094 
Q 2847 2600 2669 2842 
Q 2491 3084 2119 3084 
Q 1678 3084 1418 2786 
Q 1159 2488 1159 1978 
L 1159 0 
L 581 0 
L 581 3500 
L 1159 3500 
L 1159 2956 
Q 1356 3278 1631 3431 
Q 1906 3584 2284 3584 
Q 2666 3584 2933 3390 
Q 3200 3197 3328 2828 
z
" transform="scale(0.015625)"/>
       <path id="DejaVuSans-65" d="M 3597 1894 
L 3597 1613 
L 953 1613 
Q 991 1019 1311 708 
Q 1631 397 2203 397 
Q 2534 397 2845 478 
Q 3156 559 3463 722 
L 3463 178 
Q 3153 47 2828 -22 
Q 2503 -91 2169 -91 
Q 1331 -91 842 396 
Q 353 884 353 1716 
Q 353 2575 817 3079 
Q 1281 3584 2069 3584 
Q 2775 3584 3186 3129 
Q 3597 2675 3597 1894 
z
M 3022 2063 
Q 3016 2534 2758 2815 
Q 2500 3097 2075 3097 
Q 1594 3097 1305 2825 
Q 1016 2553 972 2059 
L 3022 2063 
z
" transform="scale(0.015625)"/>
       <path id="DejaVuSans-20" transform="scale(0.015625)"/>
       <path id="DejaVuSans-28" d="M 1984 4856 
Q 1566 4138 1362 3434 
Q 1159 2731 1159 2009 
Q 1159 1288 1364 580 
Q 1569 -128 1984 -844 
L 1484 -844 
Q 1016 -109 783 600 
Q 550 1309 550 2009 
Q 550 2706 781 3412 
Q 1013 4119 1484 4856 
L 1984 4856 
z
" transform="scale(0.015625)"/>
       <path id="DejaVuSans-64" d="M 2906 2969 
L 2906 4863 
L 3481 4863 
L 3481 0 
L 2906 0 
L 2906 525 
Q 2725 213 2448 61 
Q 2172 -91 1784 -91 
Q 1150 -91 751 415 
Q 353 922 353 1747 
Q 353 2572 751 3078 
Q 1150 3584 1784 3584 
Q 2172 3584 2448 3432 
Q 2725 3281 2906 2969 
z
M 947 1747 
Q 947 1113 1208 752 
Q 1469 391 1925 391 
Q 2381 391 2643 752 
Q 2906 1113 2906 1747 
Q 2906 2381 2643 2742 
Q 2381 3103 1925 3103 
Q 1469 3103 1208 2742 
Q 947 2381 947 1747 
z
" transform="scale(0.015625)"/>
       <path id="DejaVuSans-61" d="M 2194 1759 
Q 1497 1759 1228 1600 
Q 959 1441 959 1056 
Q 959 750 1161 570 
Q 1363 391 1709 391 
Q 2188 391 2477 730 
Q 2766 1069 2766 1631 
L 2766 1759 
L 2194 1759 
z
M 3341 1997 
L 3341 0 
L 2766 0 
L 2766 531 
Q 2569 213 2275 61 
Q 1981 -91 1556 -91 
Q 1019 -91 701 211 
Q 384 513 384 1019 
Q 384 1609 779 1909 
Q 1175 2209 1959 2209 
L 2766 2209 
L 2766 2266 
Q 2766 2663 2505 2880 
Q 2244 3097 1772 3097 
Q 1472 3097 1187 3025 
Q 903 2953 641 2809 
L 641 3341 
Q 956 3463 1253 3523 
Q 1550 3584 1831 3584 
Q 2591 3584 2966 3190 
Q 3341 2797 3341 1997 
z
" transform="scale(0.015625)"/>
       <path id="DejaVuSans-79" d="M 2059 -325 
Q 1816 -950 1584 -1140 
Q 1353 -1331 966 -1331 
L 506 -1331 
L 506 -850 
L 844 -850 
Q 1081 -850 1212 -737 
Q 1344 -625 1503 -206 
L 1606 56 
L 191 3500 
L 800 3500 
L 1894 763 
L 2988 3500 
L 3597 3500 
L 2059 -325 
z
" transform="scale(0.015625)"/>
       <path id="DejaVuSans-73" d="M 2834 3397 
L 2834 2853 
Q 2591 2978 2328 3040 
Q 2066 3103 1784 3103 
Q 1356 3103 1142 2972 
Q 928 2841 928 2578 
Q 928 2378 1081 2264 
Q 1234 2150 1697 2047 
L 1894 2003 
Q 2506 1872 2764 1633 
Q 3022 1394 3022 966 
Q 3022 478 2636 193 
Q 2250 -91 1575 -91 
Q 1294 -91 989 -36 
Q 684 19 347 128 
L 347 722 
Q 666 556 975 473 
Q 1284 391 1588 391 
Q 1994 391 2212 530 
Q 2431 669 2431 922 
Q 2431 1156 2273 1281 
Q 2116 1406 1581 1522 
L 1381 1569 
Q 847 1681 609 1914 
Q 372 2147 372 2553 
Q 372 3047 722 3315 
Q 1072 3584 1716 3584 
Q 2034 3584 2315 3537 
Q 2597 3491 2834 3397 
z
" transform="scale(0.015625)"/>
       <path id="DejaVuSans-29" d="M 513 4856 
L 1013 4856 
Q 1481 4119 1714 3412 
Q 1947 2706 1947 2009 
Q 1947 1309 1714 600 
Q 1481 -109 1013 -844 
L 513 -844 
Q 928 -128 1133 580 
Q 1338 1288 1338 2009 
Q 1338 2731 1133 3434 
Q 928 4138 513 4856 
z
" transform="scale(0.015625)"/>
      </defs>
      <use xlink:href="#DejaVuSans-74"/>
      <use xlink:href="#DejaVuSans-69" x="39.208984"/>
      <use xlink:href="#DejaVuSans-6d" x="66.992188"/>
      <use xlink:href="#DejaVuSans-65" x="164.404297"/>
      <use xlink:href="#DejaVuSans-20" x="225.927734"/>
      <use xlink:href="#DejaVuSans-28" x="257.714844"/>
      <use xlink:href="#DejaVuSans-64" x="296.728516"/>
      <use xlink:href="#DejaVuSans-61" x="360.205078"/>
      <use xlink:href="#DejaVuSans-79" x="421.484375"/>
      <use xlink:href="#DejaVuSans-73" x="480.664062"/>
      <use xlink:href="#DejaVuSans-29" x="532.763672"/>
     </g>
    </g>
   </g>
   <g id="matplotlib.axis_2">
    <g id="ytick_1">
     <g id="line2d_8">
      <defs>
       <path id="m2f2a1242eb" d="M 0 0 
L -3.5 0 
" style="stroke: #000000; stroke-width: 0.8"/>
      </defs>
      <g>
       <use xlink:href="#m2f2a1242eb" x="30.103125" y="165.96" style="stroke: #000000; stroke-width: 0.8"/>
      </g>
     </g>
     <g id="text_9">
      <!-- 0.0 -->
      <g transform="translate(7.2 169.759219) scale(0.1 -0.1)">
       <defs>
        <path id="DejaVuSans-2e" d="M 684 794 
L 1344 794 
L 1344 0 
L 684 0 
L 684 794 
z
" transform="scale(0.015625)"/>
       </defs>
       <use xlink:href="#DejaVuSans-30"/>
       <use xlink:href="#DejaVuSans-2e" x="63.623047"/>
       <use xlink:href="#DejaVuSans-30" x="95.410156"/>
      </g>
     </g>
    </g>
    <g id="ytick_2">
     <g id="line2d_9">
      <g>
       <use xlink:href="#m2f2a1242eb" x="30.103125" y="135.719698" style="stroke: #000000; stroke-width: 0.8"/>
      </g>
     </g>
     <g id="text_10">
      <!-- 0.2 -->
      <g transform="translate(7.2 139.518916) scale(0.1 -0.1)">
       <use xlink:href="#DejaVuSans-30"/>
       <use xlink:href="#DejaVuSans-2e" x="63.623047"/>
       <use xlink:href="#DejaVuSans-32" x="95.410156"/>
      </g>
     </g>
    </g>
    <g id="ytick_3">
     <g id="line2d_10">
      <g>
       <use xlink:href="#m2f2a1242eb" x="30.103125" y="105.479395" style="stroke: #000000; stroke-width: 0.8"/>
      </g>
     </g>
     <g id="text_11">
      <!-- 0.4 -->
      <g transform="translate(7.2 109.278614) scale(0.1 -0.1)">
       <defs>
        <path id="DejaVuSans-34" d="M 2419 4116 
L 825 1625 
L 2419 1625 
L 2419 4116 
z
M 2253 4666 
L 3047 4666 
L 3047 1625 
L 3713 1625 
L 3713 1100 
L 3047 1100 
L 3047 0 
L 2419 0 
L 2419 1100 
L 313 1100 
L 313 1709 
L 2253 4666 
z
" transform="scale(0.015625)"/>
       </defs>
       <use xlink:href="#DejaVuSans-30"/>
       <use xlink:href="#DejaVuSans-2e" x="63.623047"/>
       <use xlink:href="#DejaVuSans-34" x="95.410156"/>
      </g>
     </g>
    </g>
    <g id="ytick_4">
     <g id="line2d_11">
      <g>
       <use xlink:href="#m2f2a1242eb" x="30.103125" y="75.239093" style="stroke: #000000; stroke-width: 0.8"/>
      </g>
     </g>
     <g id="text_12">
      <!-- 0.6 -->
      <g transform="translate(7.2 79.038312) scale(0.1 -0.1)">
       <defs>
        <path id="DejaVuSans-36" d="M 2113 2584 
Q 1688 2584 1439 2293 
Q 1191 2003 1191 1497 
Q 1191 994 1439 701 
Q 1688 409 2113 409 
Q 2538 409 2786 701 
Q 3034 994 3034 1497 
Q 3034 2003 2786 2293 
Q 2538 2584 2113 2584 
z
M 3366 4563 
L 3366 3988 
Q 3128 4100 2886 4159 
Q 2644 4219 2406 4219 
Q 1781 4219 1451 3797 
Q 1122 3375 1075 2522 
Q 1259 2794 1537 2939 
Q 1816 3084 2150 3084 
Q 2853 3084 3261 2657 
Q 3669 2231 3669 1497 
Q 3669 778 3244 343 
Q 2819 -91 2113 -91 
Q 1303 -91 875 529 
Q 447 1150 447 2328 
Q 447 3434 972 4092 
Q 1497 4750 2381 4750 
Q 2619 4750 2861 4703 
Q 3103 4656 3366 4563 
z
" transform="scale(0.015625)"/>
       </defs>
       <use xlink:href="#DejaVuSans-30"/>
       <use xlink:href="#DejaVuSans-2e" x="63.623047"/>
       <use xlink:href="#DejaVuSans-36" x="95.410156"/>
      </g>
     </g>
    </g>
    <g id="ytick_5">
     <g id="line2d_12">
      <g>
       <use xlink:href="#m2f2a1242eb" x="30.103125" y="44.99879" style="stroke: #000000; stroke-width: 0.8"/>
      </g>
     </g>
     <g id="text_13">
      <!-- 0.8 -->
      <g transform="translate(7.2 48.798009) scale(0.1 -0.1)">
       <defs>
        <path id="DejaVuSans-38" d="M 2034 2216 
Q 1584 2216 1326 1975 
Q 1069 1734 1069 1313 
Q 1069 891 1326 650 
Q 1584 409 2034 409 
Q 2484 409 2743 651 
Q 3003 894 3003 1313 
Q 3003 1734 2745 1975 
Q 2488 2216 2034 2216 
z
M 1403 2484 
Q 997 2584 770 2862 
Q 544 3141 544 3541 
Q 544 4100 942 4425 
Q 1341 4750 2034 4750 
Q 2731 4750 3128 4425 
Q 3525 4100 3525 3541 
Q 3525 3141 3298 2862 
Q 3072 2584 2669 2484 
Q 3125 2378 3379 2068 
Q 3634 1759 3634 1313 
Q 3634 634 3220 271 
Q 2806 -91 2034 -91 
Q 1263 -91 848 271 
Q 434 634 434 1313 
Q 434 1759 690 2068 
Q 947 2378 1403 2484 
z
M 1172 3481 
Q 1172 3119 1398 2916 
Q 1625 2713 2034 2713 
Q 2441 2713 2670 2916 
Q 2900 3119 2900 3481 
Q 2900 3844 2670 4047 
Q 2441 4250 2034 4250 
Q 1625 4250 1398 4047 
Q 1172 3844 1172 3481 
z
" transform="scale(0.015625)"/>
       </defs>
       <use xlink:href="#DejaVuSans-30"/>
       <use xlink:href="#DejaVuSans-2e" x="63.623047"/>
       <use xlink:href="#DejaVuSans-38" x="95.410156"/>
      </g>
     </g>
    </g>
    <g id="ytick_6">
     <g id="line2d_13">
      <g>
       <use xlink:href="#m2f2a1242eb" x="30.103125" y="14.758488" style="stroke: #000000; stroke-width: 0.8"/>
      </g>
     </g>
     <g id="text_14">
      <!-- 1.0 -->
      <g transform="translate(7.2 18.557707) scale(0.1 -0.1)">
       <use xlink:href="#DejaVuSans-31"/>
       <use xlink:href="#DejaVuSans-2e" x="63.623047"/>
       <use xlink:href="#DejaVuSans-30" x="95.410156"/>
      </g>
     </g>
    </g>
   </g>
   <g id="line2d_14">
    <path d="M 55.466761 14.76 
L 104.667126 14.873909 
L 118.239641 15.103775 
L 126.722462 15.446684 
L 133.508719 15.943765 
L 138.598412 16.526894 
L 141.991541 17.072611 
L 145.38467 17.787894 
L 148.777798 18.725889 
L 152.170927 19.957905 
L 155.564055 21.542453 
L 158.957184 23.553 
L 160.653748 24.759635 
L 162.350313 26.116881 
L 164.046877 27.661571 
L 165.743441 29.386778 
L 167.440006 31.319528 
L 169.13657 33.465626 
L 170.833134 35.823857 
L 172.529698 38.467118 
L 174.226263 41.411356 
L 175.922827 44.620868 
L 179.315956 51.789435 
L 182.709084 60.073061 
L 186.102213 69.05623 
L 189.495341 78.541395 
L 199.674727 107.541175 
L 203.067856 115.941842 
L 206.460985 123.419581 
L 208.157549 126.771606 
L 209.854113 129.820776 
L 211.550677 132.622239 
L 213.247242 135.19189 
L 214.943806 137.528402 
L 216.64037 139.665665 
L 218.336935 141.608432 
L 220.033499 143.312182 
L 223.426628 146.227391 
L 226.819756 148.531898 
L 228.516321 149.52879 
L 231.909449 151.176966 
L 235.302578 152.42897 
L 238.695706 153.389687 
L 242.088835 154.093582 
L 245.481964 154.609326 
L 248.875092 154.9722 
L 253.964785 155.243086 
L 259.054478 155.301925 
L 264.144171 155.147309 
L 270.930428 154.673073 
L 277.716685 153.989391 
L 286.199507 152.908735 
L 296.378893 151.418383 
L 308.254843 149.456119 
L 321.827357 146.977899 
L 337.096436 143.991381 
L 354.062079 140.449918 
L 393.083058 132.17909 
L 410.048701 128.866989 
L 428.710909 125.485058 
L 445.676552 122.704989 
L 459.249066 120.724911 
L 472.82158 118.953832 
L 483.000966 117.85227 
L 493.180352 116.941682 
L 503.359738 116.207195 
L 513.539124 115.743049 
L 523.71851 115.49068 
L 535.59446 115.417281 
L 544.077281 115.550065 
L 554.256667 115.939068 
L 562.739489 116.409848 
L 562.739489 116.409848 
" clip-path="url(#pfbe69e66a7)" style="fill: none; stroke: #1f77b4; stroke-width: 1.5; stroke-linecap: square"/>
   </g>
   <g id="line2d_15">
    <path d="M 55.466761 165.958488 
L 108.060255 165.846757 
L 121.632769 165.621728 
L 131.812155 165.207284 
L 136.901848 164.836011 
L 141.991541 164.261775 
L 147.081234 163.383655 
L 150.474362 162.540465 
L 153.867491 161.575174 
L 157.26062 160.335107 
L 160.653748 158.657447 
L 164.046877 156.481758 
L 167.440006 153.846423 
L 169.13657 152.430914 
L 170.833134 150.519634 
L 177.619391 142.086816 
L 179.315956 139.13055 
L 182.709084 134.019475 
L 184.405649 131.811425 
L 186.102213 129.185176 
L 187.798777 126.100501 
L 189.495341 123.345686 
L 192.88847 116.790131 
L 194.585034 114.609597 
L 196.281599 111.93552 
L 197.978163 109.965549 
L 199.674727 108.625911 
L 201.371292 107.693028 
L 203.067856 105.841966 
L 204.76442 104.817668 
L 206.460985 104.085313 
L 208.157549 104.45614 
L 211.550677 104.100476 
L 213.247242 104.42277 
L 214.943806 104.402088 
L 216.64037 104.707893 
L 218.336935 106.936737 
L 220.033499 107.905647 
L 221.730063 108.648236 
L 223.426628 111.070156 
L 225.123192 111.444441 
L 226.819756 112.014612 
L 228.516321 114.334302 
L 230.212885 115.058828 
L 231.909449 117.50226 
L 233.606013 119.692586 
L 236.999142 122.283454 
L 238.695706 124.353892 
L 240.392271 126.09668 
L 242.088835 127.264172 
L 243.785399 128.585523 
L 245.481964 129.484202 
L 248.875092 132.859137 
L 252.268221 135.479026 
L 253.964785 136.340488 
L 255.661349 137.036396 
L 257.357914 137.894615 
L 260.751042 140.791561 
L 262.447607 142.167722 
L 264.144171 143.101754 
L 265.840735 144.375827 
L 267.5373 145.272908 
L 269.233864 145.760402 
L 274.323557 148.302481 
L 276.020121 148.630409 
L 281.109814 150.811378 
L 287.896071 152.063181 
L 289.592635 152.799076 
L 296.378893 153.980209 
L 306.558279 156.009925 
L 308.254843 156.164917 
L 309.951407 156.521579 
L 311.647971 156.718054 
L 313.344536 157.133001 
L 315.0411 157.252087 
L 316.737664 157.581507 
L 318.434229 157.655159 
L 320.130793 157.909356 
L 323.523922 158.196525 
L 326.91705 158.723458 
L 328.613615 158.78027 
L 332.006743 159.346917 
L 333.703307 159.414726 
L 335.399872 159.690172 
L 338.793 159.871879 
L 345.579258 160.749739 
L 350.66895 160.984004 
L 354.062079 161.273319 
L 359.151772 161.444502 
L 362.544901 161.74642 
L 376.117415 162.202621 
L 381.207108 162.251664 
L 384.600237 162.304781 
L 387.993365 162.339902 
L 393.083058 162.377137 
L 396.476187 162.419889 
L 410.048701 162.409306 
L 418.531523 162.601551 
L 421.924651 162.569106 
L 455.855937 162.372636 
L 457.552502 162.418416 
L 462.642195 162.245632 
L 467.731888 162.270241 
L 474.518145 161.968063 
L 498.270045 161.297312 
L 506.752867 160.769852 
L 513.539124 160.579412 
L 515.235688 160.473063 
L 516.932252 160.493956 
L 522.021945 160.198387 
L 528.808203 159.995911 
L 530.504767 159.894488 
L 532.201331 159.922856 
L 538.987588 159.549672 
L 542.380717 159.156146 
L 549.166974 158.981501 
L 554.256667 158.497984 
L 557.649796 158.565596 
L 561.042924 158.336499 
L 562.739489 158.133335 
L 562.739489 158.133335 
" clip-path="url(#pfbe69e66a7)" style="fill: none; stroke: #ff7f0e; stroke-width: 1.5; stroke-linecap: square"/>
   </g>
   <g id="line2d_16">
    <path d="M 55.466761 165.96 
L 128.419026 165.858959 
L 141.991541 165.656061 
L 150.474362 165.365321 
L 157.26062 164.94225 
L 162.350313 164.438455 
L 167.440006 163.708466 
L 170.833134 163.043479 
L 174.226263 162.213606 
L 177.619391 161.166381 
L 181.01252 159.859929 
L 184.405649 158.259717 
L 187.798777 156.306191 
L 191.191906 154.031807 
L 194.585034 151.454527 
L 197.978163 148.55089 
L 201.371292 145.335127 
L 206.460985 140.029482 
L 211.550677 134.324725 
L 231.909449 110.972803 
L 236.999142 105.509976 
L 242.088835 100.338769 
L 247.178528 95.520054 
L 252.268221 91.041747 
L 255.661349 88.258781 
L 260.751042 84.425095 
L 265.840735 80.898807 
L 270.930428 77.707028 
L 276.020121 74.864955 
L 281.109814 72.362948 
L 286.199507 70.171261 
L 291.2892 68.298505 
L 296.378893 66.706523 
L 301.468586 65.365693 
L 306.558279 64.249121 
L 311.647971 63.336854 
L 316.737664 62.611727 
L 321.827357 62.059597 
L 328.613615 61.56778 
L 335.399872 61.311713 
L 342.186129 61.264475 
L 350.66895 61.450602 
L 359.151772 61.895464 
L 369.331158 62.703361 
L 379.510544 63.767173 
L 391.386494 65.262541 
L 406.655573 67.455634 
L 432.104037 71.401254 
L 464.338759 76.382284 
L 486.394095 79.528425 
L 499.966609 81.270775 
L 515.235688 83.018247 
L 527.111638 84.164444 
L 538.987588 85.103431 
L 552.560103 85.95348 
L 562.739489 86.403353 
L 562.739489 86.403353 
" clip-path="url(#pfbe69e66a7)" style="fill: none; stroke: #2ca02c; stroke-width: 1.5; stroke-linecap: square"/>
   </g>
   <g id="line2d_17">
    <path d="M 55.466761 165.96 
L 130.115591 165.847962 
L 150.474362 165.485248 
L 158.957184 164.865732 
L 167.440006 163.953991 
L 169.13657 163.560888 
L 172.529698 163.39645 
L 175.922827 162.450807 
L 177.619391 161.699776 
L 179.315956 161.633868 
L 181.01252 160.962048 
L 182.709084 160.023983 
L 184.405649 158.70449 
L 186.102213 157.797133 
L 187.798777 157.311796 
L 189.495341 156.435223 
L 191.191906 156.040664 
L 192.88847 155.803165 
L 194.585034 154.434746 
L 196.281599 153.778461 
L 197.978163 152.594243 
L 201.371292 149.423032 
L 203.067856 149.065674 
L 206.460985 147.203787 
L 208.157549 145.48153 
L 209.854113 144.693326 
L 211.550677 144.121403 
L 213.247242 143.327574 
L 214.943806 143.125553 
L 216.64037 142.795191 
L 218.336935 140.733272 
L 220.033499 140.195985 
L 221.730063 140.047775 
L 223.426628 138.348339 
L 225.123192 138.881024 
L 226.819756 139.28445 
L 228.516321 138.001663 
L 230.212885 138.437151 
L 231.909449 137.193983 
L 233.606013 136.301588 
L 235.302578 136.328467 
L 236.999142 136.480215 
L 238.695706 135.827116 
L 240.392271 135.543317 
L 242.088835 135.857164 
L 243.785399 136.013962 
L 245.481964 136.592479 
L 247.178528 136.28722 
L 248.875092 136.144846 
L 252.268221 136.452607 
L 253.964785 137.037025 
L 255.661349 137.758712 
L 257.357914 138.284516 
L 260.751042 138.094246 
L 262.447607 138.058573 
L 264.144171 138.45403 
L 265.840735 138.483656 
L 267.5373 138.876606 
L 269.233864 139.653119 
L 274.323557 140.711765 
L 276.020121 141.536421 
L 279.41325 142.283464 
L 281.109814 142.619609 
L 282.806378 143.350698 
L 284.502943 143.937259 
L 287.896071 145.331076 
L 289.592635 145.502493 
L 294.682328 147.373952 
L 298.075457 148.141786 
L 303.16515 149.403491 
L 306.558279 150.040075 
L 308.254843 150.543375 
L 309.951407 150.820456 
L 311.647971 151.242604 
L 313.344536 151.425324 
L 315.0411 151.893122 
L 316.737664 152.127944 
L 318.434229 152.605925 
L 320.130793 152.880419 
L 323.523922 153.602911 
L 326.91705 154.02495 
L 328.613615 154.425704 
L 332.006743 154.729061 
L 333.703307 155.083981 
L 335.399872 155.214161 
L 338.793 155.815923 
L 347.275822 156.678298 
L 352.365515 157.300315 
L 354.062079 157.455957 
L 357.455208 157.978537 
L 376.117415 159.679915 
L 379.510544 160.020506 
L 387.993365 160.704971 
L 413.44183 162.102159 
L 418.531523 162.107232 
L 421.924651 162.252162 
L 432.104037 162.558747 
L 437.19373 162.643488 
L 454.159373 162.869767 
L 457.552502 162.77143 
L 462.642195 162.918394 
L 467.731888 162.844173 
L 472.82158 163.012264 
L 479.607838 163.073218 
L 481.304402 162.983794 
L 488.090659 163.045897 
L 493.180352 162.85634 
L 494.876916 162.92249 
L 498.270045 162.885521 
L 503.359738 162.947413 
L 518.628817 162.6304 
L 520.325381 162.700977 
L 525.415074 162.339624 
L 528.808203 162.303113 
L 530.504767 162.287043 
L 532.201331 162.137215 
L 538.987588 162.045619 
L 542.380717 162.173645 
L 549.166974 161.779242 
L 552.560103 161.881447 
L 554.256667 161.815532 
L 557.649796 161.439004 
L 561.042924 161.388344 
L 562.739489 161.44597 
L 562.739489 161.44597 
" clip-path="url(#pfbe69e66a7)" style="fill: none; stroke: #d62728; stroke-width: 1.5; stroke-linecap: square"/>
   </g>
   <g id="line2d_18">
    <path d="M 55.466761 165.96 
L 158.957184 165.861747 
L 174.226263 165.64337 
L 184.405649 165.310475 
L 194.585034 164.760035 
L 206.460985 163.860325 
L 236.999142 161.385122 
L 252.268221 160.441935 
L 269.233864 159.646477 
L 287.896071 159.013764 
L 311.647971 158.443177 
L 340.489565 157.978759 
L 379.510544 157.586004 
L 459.249066 157.065814 
L 537.291024 156.479193 
L 562.739489 156.205981 
L 562.739489 156.205981 
" clip-path="url(#pfbe69e66a7)" style="fill: none; stroke: #9467bd; stroke-width: 1.5; stroke-linecap: square"/>
   </g>
   <g id="line2d_19">
    <path d="M 55.466761 162.371493 
L 57.163326 159.780366 
L 58.85989 160.977223 
L 60.556454 159.724032 
L 62.253019 162.978293 
L 63.949583 163.755534 
L 65.646147 161.922068 
L 67.342712 161.63631 
L 69.039276 163.493414 
L 70.73584 158.523785 
L 72.432404 161.650633 
L 74.128969 161.887377 
L 75.825533 160.623044 
L 77.522097 161.576454 
L 79.218662 164.118404 
L 80.915226 162.375181 
L 82.61179 164.342574 
L 84.308355 162.748844 
L 86.004919 163.289423 
L 87.701483 160.147746 
L 89.398047 163.678657 
L 91.094612 160.033208 
L 92.791176 159.106495 
L 94.48774 160.132706 
L 96.184305 159.524108 
L 97.880869 163.859224 
L 99.577433 164.234015 
L 101.273998 160.177359 
L 102.970562 159.454052 
L 104.667126 161.73029 
L 106.363691 161.242111 
L 108.060255 159.929802 
L 109.756819 161.321318 
L 111.453383 160.421158 
L 113.149948 158.614211 
L 114.846512 164.31836 
L 116.543076 160.649256 
L 118.239641 162.172084 
L 119.936205 162.731689 
L 121.632769 163.446902 
L 125.025898 158.996284 
L 126.722462 160.976736 
L 128.419026 161.033087 
L 130.115591 158.767179 
L 131.812155 159.70326 
L 133.508719 161.022127 
L 135.205284 161.997768 
L 136.901848 161.766701 
L 138.598412 162.223049 
L 140.294977 161.114939 
L 141.991541 162.3441 
L 143.688105 161.556912 
L 145.38467 162.44343 
L 147.081234 161.576322 
L 148.777798 163.998922 
L 150.474362 160.321039 
L 152.170927 159.752119 
L 153.867491 160.99673 
L 155.564055 159.746442 
L 157.26062 162.414336 
L 158.957184 161.144599 
L 160.653748 163.601549 
L 162.350313 160.891095 
L 164.046877 161.971045 
L 165.743441 161.094638 
L 167.440006 160.026703 
L 169.13657 164.148087 
L 170.833134 163.985272 
L 172.529698 161.343676 
L 174.226263 161.040979 
L 175.922827 159.740219 
L 177.619391 164.436299 
L 179.315956 161.174251 
L 181.01252 160.090085 
L 182.709084 158.561615 
L 186.102213 162.588473 
L 187.798777 161.289803 
L 189.495341 163.174443 
L 191.191906 163.8342 
L 192.88847 160.471436 
L 194.585034 162.636183 
L 196.281599 161.247839 
L 197.978163 160.304296 
L 199.674727 160.062869 
L 201.371292 163.27323 
L 203.067856 161.85899 
L 204.76442 161.867018 
L 206.460985 159.872171 
L 208.157549 161.958151 
L 209.854113 162.422331 
L 211.550677 161.831108 
L 213.247242 163.183628 
L 214.943806 162.848979 
L 216.64037 158.525642 
L 218.336935 161.934035 
L 220.033499 162.82281 
L 221.730063 158.673643 
L 223.426628 164.308892 
L 225.123192 163.999622 
L 226.819756 159.299041 
L 228.516321 163.878197 
L 230.212885 158.915167 
L 231.909449 159.495406 
L 233.606013 162.073981 
L 235.302578 162.381751 
L 236.999142 159.514836 
L 238.695706 160.438876 
L 240.392271 162.420232 
L 242.088835 161.750055 
L 243.785399 163.333323 
L 245.481964 159.703454 
L 247.178528 160.040474 
L 248.875092 161.136675 
L 250.571656 160.851424 
L 252.268221 162.857765 
L 253.964785 163.590586 
L 255.661349 162.664253 
L 257.357914 159.118786 
L 259.054478 159.158536 
L 260.751042 158.882049 
L 262.447607 161.203224 
L 264.144171 158.696223 
L 265.840735 160.821123 
L 267.5373 163.519485 
L 269.233864 160.804553 
L 270.930428 160.237955 
L 272.626992 160.154996 
L 274.323557 164.157298 
L 276.020121 160.774891 
L 277.716685 160.096095 
L 279.41325 159.916573 
L 281.109814 163.705574 
L 282.806378 162.490942 
L 284.502943 164.417653 
L 286.199507 163.468163 
L 287.896071 158.622663 
L 289.592635 163.483907 
L 291.2892 163.653189 
L 292.985764 164.092013 
L 294.682328 160.765692 
L 296.378893 161.984981 
L 298.075457 162.061593 
L 299.772021 161.054793 
L 301.468586 162.997709 
L 303.16515 160.983256 
L 304.861714 160.74125 
L 306.558279 163.689452 
L 308.254843 160.480043 
L 309.951407 162.778897 
L 311.647971 159.077315 
L 313.344536 163.765312 
L 315.0411 160.023006 
L 316.737664 164.351474 
L 318.434229 160.989226 
L 320.130793 163.477291 
L 321.827357 162.12713 
L 323.523922 159.584911 
L 325.220486 160.76243 
L 326.91705 164.109129 
L 328.613615 158.579337 
L 330.310179 159.638553 
L 332.006743 163.546742 
L 333.703307 158.666198 
L 335.399872 162.784445 
L 337.096436 162.65555 
L 338.793 159.437861 
L 340.489565 158.5323 
L 342.186129 159.315324 
L 343.882693 158.505549 
L 345.579258 163.268592 
L 347.275822 161.539129 
L 348.972386 161.711412 
L 350.66895 159.942689 
L 352.365515 159.719833 
L 354.062079 163.497852 
L 355.758643 163.131729 
L 357.455208 160.135824 
L 359.151772 158.422404 
L 360.848336 159.156467 
L 362.544901 161.570083 
L 364.241465 160.385277 
L 365.938029 162.166112 
L 367.634594 160.796204 
L 369.331158 162.684959 
L 372.724286 160.860579 
L 374.420851 161.095552 
L 376.117415 163.796816 
L 377.813979 161.458864 
L 379.510544 162.266396 
L 381.207108 160.357748 
L 382.903672 163.45716 
L 384.600237 163.464276 
L 386.296801 160.7781 
L 387.993365 161.107687 
L 389.689929 163.608143 
L 391.386494 161.741302 
L 393.083058 163.743723 
L 394.779622 159.468167 
L 396.476187 162.867501 
L 398.172751 162.174947 
L 399.869315 162.730782 
L 401.56588 161.526195 
L 403.262444 161.034049 
L 404.959008 162.457651 
L 406.655573 161.437789 
L 408.352137 163.52907 
L 410.048701 159.575916 
L 411.745265 163.446802 
L 413.44183 158.59045 
L 415.138394 158.973041 
L 416.834958 159.80294 
L 418.531523 164.034696 
L 420.228087 160.489187 
L 421.924651 162.006942 
L 423.621216 161.113547 
L 425.31778 164.1613 
L 427.014344 162.386691 
L 428.710909 158.883674 
L 430.407473 162.202391 
L 432.104037 159.792471 
L 433.800601 159.66724 
L 435.497166 163.734318 
L 437.19373 161.429514 
L 438.890294 162.757147 
L 440.586859 160.18227 
L 442.283423 160.519753 
L 443.979987 162.927554 
L 445.676552 162.354372 
L 447.373116 160.757947 
L 449.06968 163.568356 
L 450.766244 158.729752 
L 452.462809 160.610269 
L 454.159373 158.68819 
L 455.855937 158.406671 
L 457.552502 163.688261 
L 459.249066 162.375725 
L 460.94563 161.920534 
L 462.642195 158.649831 
L 464.338759 160.090019 
L 466.035323 160.568101 
L 467.731888 163.919618 
L 469.428452 162.130948 
L 471.125016 163.520595 
L 472.82158 162.248142 
L 474.518145 161.53194 
L 476.214709 162.676848 
L 477.911273 161.663501 
L 479.607838 158.41608 
L 481.304402 162.81345 
L 483.000966 164.302395 
L 484.697531 161.310532 
L 486.394095 160.777925 
L 488.090659 158.664106 
L 489.787224 159.644008 
L 491.483788 160.431321 
L 493.180352 163.873697 
L 494.876916 160.255264 
L 496.573481 162.129039 
L 498.270045 163.08602 
L 499.966609 160.460676 
L 501.663174 164.298076 
L 503.359738 161.042755 
L 505.056302 164.327053 
L 506.752867 160.034767 
L 508.449431 162.227449 
L 510.145995 158.621342 
L 511.842559 161.724685 
L 513.539124 162.231589 
L 515.235688 158.655672 
L 516.932252 162.674167 
L 518.628817 164.176788 
L 520.325381 158.866885 
L 522.021945 160.009404 
L 523.71851 158.666444 
L 525.415074 162.954981 
L 527.111638 160.406983 
L 528.808203 161.751514 
L 530.504767 158.471138 
L 532.201331 161.291971 
L 533.897895 159.567593 
L 535.59446 162.717712 
L 537.291024 162.291166 
L 538.987588 163.897752 
L 540.684153 163.61482 
L 542.380717 159.721292 
L 544.077281 158.626767 
L 545.773846 161.596435 
L 547.47041 160.754814 
L 549.166974 163.460967 
L 550.863538 163.367855 
L 552.560103 161.17628 
L 554.256667 158.596689 
L 555.953231 158.613509 
L 557.649796 161.13942 
L 559.34636 162.167543 
L 561.042924 163.385361 
L 562.739489 163.501979 
L 562.739489 163.501979 
" clip-path="url(#pfbe69e66a7)" style="fill: none; stroke: #8c564b; stroke-width: 1.5; stroke-linecap: square"/>
   </g>
   <g id="patch_3">
    <path d="M 30.103125 173.52 
L 30.103125 7.2 
" style="fill: none; stroke: #000000; stroke-width: 0.8; stroke-linejoin: miter; stroke-linecap: square"/>
   </g>
   <g id="patch_4">
    <path d="M 588.103125 173.52 
L 588.103125 7.2 
" style="fill: none; stroke: #000000; stroke-width: 0.8; stroke-linejoin: miter; stroke-linecap: square"/>
   </g>
   <g id="patch_5">
    <path d="M 30.103125 173.52 
L 588.103125 173.52 
" style="fill: none; stroke: #000000; stroke-width: 0.8; stroke-linejoin: miter; stroke-linecap: square"/>
   </g>
   <g id="patch_6">
    <path d="M 30.103125 7.2 
L 588.103125 7.2 
" style="fill: none; stroke: #000000; stroke-width: 0.8; stroke-linejoin: miter; stroke-linecap: square"/>
   </g>
   <g id="legend_1">
    <g id="patch_7">
     <path d="M 37.103125 135.91625 
L 149.403125 135.91625 
Q 151.403125 135.91625 151.403125 133.91625 
L 151.403125 46.80375 
Q 151.403125 44.80375 149.403125 44.80375 
L 37.103125 44.80375 
Q 35.103125 44.80375 35.103125 46.80375 
L 35.103125 133.91625 
Q 35.103125 135.91625 37.103125 135.91625 
z
" style="fill: #ffffff; opacity: 0.8; stroke: #cccccc; stroke-linejoin: miter"/>
    </g>
    <g id="line2d_20">
     <path d="M 39.103125 52.90375 
L 49.103125 52.90375 
L 59.103125 52.90375 
" style="fill: none; stroke: #1f77b4; stroke-width: 1.5; stroke-linecap: square"/>
    </g>
    <g id="text_15">
     <!-- $S$ - Susceptible -->
     <g transform="translate(67.103125 56.40375) scale(0.1 -0.1)">
      <defs>
       <path id="DejaVuSans-Oblique-53" d="M 3859 4513 
L 3738 3897 
Q 3422 4066 3111 4152 
Q 2800 4238 2509 4238 
Q 1944 4238 1609 3991 
Q 1275 3744 1275 3334 
Q 1275 3109 1398 2989 
Q 1522 2869 2034 2731 
L 2413 2638 
Q 3053 2472 3303 2217 
Q 3553 1963 3553 1503 
Q 3553 797 2998 353 
Q 2444 -91 1538 -91 
Q 1166 -91 791 -17 
Q 416 56 38 206 
L 166 856 
Q 513 641 861 531 
Q 1209 422 1556 422 
Q 2147 422 2503 684 
Q 2859 947 2859 1369 
Q 2859 1650 2717 1795 
Q 2575 1941 2106 2059 
L 1728 2156 
Q 1081 2325 845 2545 
Q 609 2766 609 3163 
Q 609 3859 1145 4304 
Q 1681 4750 2541 4750 
Q 2875 4750 3203 4690 
Q 3531 4631 3859 4513 
z
" transform="scale(0.015625)"/>
       <path id="DejaVuSans-2d" d="M 313 2009 
L 1997 2009 
L 1997 1497 
L 313 1497 
L 313 2009 
z
" transform="scale(0.015625)"/>
       <path id="DejaVuSans-53" d="M 3425 4513 
L 3425 3897 
Q 3066 4069 2747 4153 
Q 2428 4238 2131 4238 
Q 1616 4238 1336 4038 
Q 1056 3838 1056 3469 
Q 1056 3159 1242 3001 
Q 1428 2844 1947 2747 
L 2328 2669 
Q 3034 2534 3370 2195 
Q 3706 1856 3706 1288 
Q 3706 609 3251 259 
Q 2797 -91 1919 -91 
Q 1588 -91 1214 -16 
Q 841 59 441 206 
L 441 856 
Q 825 641 1194 531 
Q 1563 422 1919 422 
Q 2459 422 2753 634 
Q 3047 847 3047 1241 
Q 3047 1584 2836 1778 
Q 2625 1972 2144 2069 
L 1759 2144 
Q 1053 2284 737 2584 
Q 422 2884 422 3419 
Q 422 4038 858 4394 
Q 1294 4750 2059 4750 
Q 2388 4750 2728 4690 
Q 3069 4631 3425 4513 
z
" transform="scale(0.015625)"/>
       <path id="DejaVuSans-75" d="M 544 1381 
L 544 3500 
L 1119 3500 
L 1119 1403 
Q 1119 906 1312 657 
Q 1506 409 1894 409 
Q 2359 409 2629 706 
Q 2900 1003 2900 1516 
L 2900 3500 
L 3475 3500 
L 3475 0 
L 2900 0 
L 2900 538 
Q 2691 219 2414 64 
Q 2138 -91 1772 -91 
Q 1169 -91 856 284 
Q 544 659 544 1381 
z
M 1991 3584 
L 1991 3584 
z
" transform="scale(0.015625)"/>
       <path id="DejaVuSans-63" d="M 3122 3366 
L 3122 2828 
Q 2878 2963 2633 3030 
Q 2388 3097 2138 3097 
Q 1578 3097 1268 2742 
Q 959 2388 959 1747 
Q 959 1106 1268 751 
Q 1578 397 2138 397 
Q 2388 397 2633 464 
Q 2878 531 3122 666 
L 3122 134 
Q 2881 22 2623 -34 
Q 2366 -91 2075 -91 
Q 1284 -91 818 406 
Q 353 903 353 1747 
Q 353 2603 823 3093 
Q 1294 3584 2113 3584 
Q 2378 3584 2631 3529 
Q 2884 3475 3122 3366 
z
" transform="scale(0.015625)"/>
       <path id="DejaVuSans-70" d="M 1159 525 
L 1159 -1331 
L 581 -1331 
L 581 3500 
L 1159 3500 
L 1159 2969 
Q 1341 3281 1617 3432 
Q 1894 3584 2278 3584 
Q 2916 3584 3314 3078 
Q 3713 2572 3713 1747 
Q 3713 922 3314 415 
Q 2916 -91 2278 -91 
Q 1894 -91 1617 61 
Q 1341 213 1159 525 
z
M 3116 1747 
Q 3116 2381 2855 2742 
Q 2594 3103 2138 3103 
Q 1681 3103 1420 2742 
Q 1159 2381 1159 1747 
Q 1159 1113 1420 752 
Q 1681 391 2138 391 
Q 2594 391 2855 752 
Q 3116 1113 3116 1747 
z
" transform="scale(0.015625)"/>
       <path id="DejaVuSans-62" d="M 3116 1747 
Q 3116 2381 2855 2742 
Q 2594 3103 2138 3103 
Q 1681 3103 1420 2742 
Q 1159 2381 1159 1747 
Q 1159 1113 1420 752 
Q 1681 391 2138 391 
Q 2594 391 2855 752 
Q 3116 1113 3116 1747 
z
M 1159 2969 
Q 1341 3281 1617 3432 
Q 1894 3584 2278 3584 
Q 2916 3584 3314 3078 
Q 3713 2572 3713 1747 
Q 3713 922 3314 415 
Q 2916 -91 2278 -91 
Q 1894 -91 1617 61 
Q 1341 213 1159 525 
L 1159 0 
L 581 0 
L 581 4863 
L 1159 4863 
L 1159 2969 
z
" transform="scale(0.015625)"/>
       <path id="DejaVuSans-6c" d="M 603 4863 
L 1178 4863 
L 1178 0 
L 603 0 
L 603 4863 
z
" transform="scale(0.015625)"/>
      </defs>
      <use xlink:href="#DejaVuSans-Oblique-53" transform="translate(0 0.015625)"/>
      <use xlink:href="#DejaVuSans-20" transform="translate(63.476562 0.015625)"/>
      <use xlink:href="#DejaVuSans-2d" transform="translate(95.263672 0.015625)"/>
      <use xlink:href="#DejaVuSans-20" transform="translate(131.347656 0.015625)"/>
      <use xlink:href="#DejaVuSans-53" transform="translate(163.134766 0.015625)"/>
      <use xlink:href="#DejaVuSans-75" transform="translate(226.611328 0.015625)"/>
      <use xlink:href="#DejaVuSans-73" transform="translate(289.990234 0.015625)"/>
      <use xlink:href="#DejaVuSans-63" transform="translate(342.089844 0.015625)"/>
      <use xlink:href="#DejaVuSans-65" transform="translate(397.070312 0.015625)"/>
      <use xlink:href="#DejaVuSans-70" transform="translate(458.59375 0.015625)"/>
      <use xlink:href="#DejaVuSans-74" transform="translate(522.070312 0.015625)"/>
      <use xlink:href="#DejaVuSans-69" transform="translate(561.279297 0.015625)"/>
      <use xlink:href="#DejaVuSans-62" transform="translate(589.0625 0.015625)"/>
      <use xlink:href="#DejaVuSans-6c" transform="translate(652.539062 0.015625)"/>
      <use xlink:href="#DejaVuSans-65" transform="translate(680.322266 0.015625)"/>
     </g>
    </g>
    <g id="line2d_21">
     <path d="M 39.103125 67.602188 
L 49.103125 67.602188 
L 59.103125 67.602188 
" style="fill: none; stroke: #ff7f0e; stroke-width: 1.5; stroke-linecap: square"/>
    </g>
    <g id="text_16">
     <!-- $I$ - Infected -->
     <g transform="translate(67.103125 71.102188) scale(0.1 -0.1)">
      <defs>
       <path id="DejaVuSans-Oblique-49" d="M 1081 4666 
L 1716 4666 
L 806 0 
L 172 0 
L 1081 4666 
z
" transform="scale(0.015625)"/>
       <path id="DejaVuSans-49" d="M 628 4666 
L 1259 4666 
L 1259 0 
L 628 0 
L 628 4666 
z
" transform="scale(0.015625)"/>
       <path id="DejaVuSans-6e" d="M 3513 2113 
L 3513 0 
L 2938 0 
L 2938 2094 
Q 2938 2591 2744 2837 
Q 2550 3084 2163 3084 
Q 1697 3084 1428 2787 
Q 1159 2491 1159 1978 
L 1159 0 
L 581 0 
L 581 3500 
L 1159 3500 
L 1159 2956 
Q 1366 3272 1645 3428 
Q 1925 3584 2291 3584 
Q 2894 3584 3203 3211 
Q 3513 2838 3513 2113 
z
" transform="scale(0.015625)"/>
       <path id="DejaVuSans-66" d="M 2375 4863 
L 2375 4384 
L 1825 4384 
Q 1516 4384 1395 4259 
Q 1275 4134 1275 3809 
L 1275 3500 
L 2222 3500 
L 2222 3053 
L 1275 3053 
L 1275 0 
L 697 0 
L 697 3053 
L 147 3053 
L 147 3500 
L 697 3500 
L 697 3744 
Q 697 4328 969 4595 
Q 1241 4863 1831 4863 
L 2375 4863 
z
" transform="scale(0.015625)"/>
      </defs>
      <use xlink:href="#DejaVuSans-Oblique-49" transform="translate(0 0.015625)"/>
      <use xlink:href="#DejaVuSans-20" transform="translate(29.492188 0.015625)"/>
      <use xlink:href="#DejaVuSans-2d" transform="translate(61.279297 0.015625)"/>
      <use xlink:href="#DejaVuSans-20" transform="translate(97.363281 0.015625)"/>
      <use xlink:href="#DejaVuSans-49" transform="translate(129.150391 0.015625)"/>
      <use xlink:href="#DejaVuSans-6e" transform="translate(158.642578 0.015625)"/>
      <use xlink:href="#DejaVuSans-66" transform="translate(222.021484 0.015625)"/>
      <use xlink:href="#DejaVuSans-65" transform="translate(257.226562 0.015625)"/>
      <use xlink:href="#DejaVuSans-63" transform="translate(318.75 0.015625)"/>
      <use xlink:href="#DejaVuSans-74" transform="translate(373.730469 0.015625)"/>
      <use xlink:href="#DejaVuSans-65" transform="translate(412.939453 0.015625)"/>
      <use xlink:href="#DejaVuSans-64" transform="translate(474.462891 0.015625)"/>
     </g>
    </g>
    <g id="line2d_22">
     <path d="M 39.103125 82.280313 
L 49.103125 82.280313 
L 59.103125 82.280313 
" style="fill: none; stroke: #2ca02c; stroke-width: 1.5; stroke-linecap: square"/>
    </g>
    <g id="text_17">
     <!-- $R$ - Recovered -->
     <g transform="translate(67.103125 85.780313) scale(0.1 -0.1)">
      <defs>
       <path id="DejaVuSans-Oblique-52" d="M 1613 4147 
L 1294 2491 
L 2106 2491 
Q 2584 2491 2879 2755 
Q 3175 3019 3175 3444 
Q 3175 3784 2976 3965 
Q 2778 4147 2406 4147 
L 1613 4147 
z
M 2772 2241 
Q 2972 2194 3105 2009 
Q 3238 1825 3413 1275 
L 3809 0 
L 3144 0 
L 2778 1197 
Q 2638 1659 2453 1815 
Q 2269 1972 1888 1972 
L 1191 1972 
L 806 0 
L 172 0 
L 1081 4666 
L 2503 4666 
Q 3150 4666 3495 4373 
Q 3841 4081 3841 3531 
Q 3841 3044 3547 2687 
Q 3253 2331 2772 2241 
z
" transform="scale(0.015625)"/>
       <path id="DejaVuSans-52" d="M 2841 2188 
Q 3044 2119 3236 1894 
Q 3428 1669 3622 1275 
L 4263 0 
L 3584 0 
L 2988 1197 
Q 2756 1666 2539 1819 
Q 2322 1972 1947 1972 
L 1259 1972 
L 1259 0 
L 628 0 
L 628 4666 
L 2053 4666 
Q 2853 4666 3247 4331 
Q 3641 3997 3641 3322 
Q 3641 2881 3436 2590 
Q 3231 2300 2841 2188 
z
M 1259 4147 
L 1259 2491 
L 2053 2491 
Q 2509 2491 2742 2702 
Q 2975 2913 2975 3322 
Q 2975 3731 2742 3939 
Q 2509 4147 2053 4147 
L 1259 4147 
z
" transform="scale(0.015625)"/>
       <path id="DejaVuSans-6f" d="M 1959 3097 
Q 1497 3097 1228 2736 
Q 959 2375 959 1747 
Q 959 1119 1226 758 
Q 1494 397 1959 397 
Q 2419 397 2687 759 
Q 2956 1122 2956 1747 
Q 2956 2369 2687 2733 
Q 2419 3097 1959 3097 
z
M 1959 3584 
Q 2709 3584 3137 3096 
Q 3566 2609 3566 1747 
Q 3566 888 3137 398 
Q 2709 -91 1959 -91 
Q 1206 -91 779 398 
Q 353 888 353 1747 
Q 353 2609 779 3096 
Q 1206 3584 1959 3584 
z
" transform="scale(0.015625)"/>
       <path id="DejaVuSans-76" d="M 191 3500 
L 800 3500 
L 1894 563 
L 2988 3500 
L 3597 3500 
L 2284 0 
L 1503 0 
L 191 3500 
z
" transform="scale(0.015625)"/>
       <path id="DejaVuSans-72" d="M 2631 2963 
Q 2534 3019 2420 3045 
Q 2306 3072 2169 3072 
Q 1681 3072 1420 2755 
Q 1159 2438 1159 1844 
L 1159 0 
L 581 0 
L 581 3500 
L 1159 3500 
L 1159 2956 
Q 1341 3275 1631 3429 
Q 1922 3584 2338 3584 
Q 2397 3584 2469 3576 
Q 2541 3569 2628 3553 
L 2631 2963 
z
" transform="scale(0.015625)"/>
      </defs>
      <use xlink:href="#DejaVuSans-Oblique-52" transform="translate(0 0.015625)"/>
      <use xlink:href="#DejaVuSans-20" transform="translate(69.482422 0.015625)"/>
      <use xlink:href="#DejaVuSans-2d" transform="translate(101.269531 0.015625)"/>
      <use xlink:href="#DejaVuSans-20" transform="translate(137.353516 0.015625)"/>
      <use xlink:href="#DejaVuSans-52" transform="translate(169.140625 0.015625)"/>
      <use xlink:href="#DejaVuSans-65" transform="translate(238.623047 0.015625)"/>
      <use xlink:href="#DejaVuSans-63" transform="translate(300.146484 0.015625)"/>
      <use xlink:href="#DejaVuSans-6f" transform="translate(355.126953 0.015625)"/>
      <use xlink:href="#DejaVuSans-76" transform="translate(416.308594 0.015625)"/>
      <use xlink:href="#DejaVuSans-65" transform="translate(475.488281 0.015625)"/>
      <use xlink:href="#DejaVuSans-72" transform="translate(537.011719 0.015625)"/>
      <use xlink:href="#DejaVuSans-65" transform="translate(578.125 0.015625)"/>
      <use xlink:href="#DejaVuSans-64" transform="translate(639.648438 0.015625)"/>
     </g>
    </g>
    <g id="line2d_23">
     <path d="M 39.103125 96.958438 
L 49.103125 96.958438 
L 59.103125 96.958438 
" style="fill: none; stroke: #d62728; stroke-width: 1.5; stroke-linecap: square"/>
    </g>
    <g id="text_18">
     <!-- $Q$ - Quarantined -->
     <g transform="translate(67.103125 100.458438) scale(0.1 -0.1)">
      <defs>
       <path id="DejaVuSans-Oblique-51" d="M 2309 -84 
Q 2275 -88 2237 -89 
Q 2200 -91 2125 -91 
Q 1250 -91 756 411 
Q 263 913 263 1797 
Q 263 2319 452 2844 
Q 641 3369 978 3788 
Q 1369 4269 1858 4509 
Q 2347 4750 2938 4750 
Q 3794 4750 4287 4245 
Q 4781 3741 4781 2869 
Q 4781 1928 4265 1147 
Q 3750 366 2919 44 
L 3553 -825 
L 2847 -825 
L 2309 -84 
z
M 2919 4238 
Q 2400 4238 2003 3986 
Q 1606 3734 1313 3219 
Q 1125 2891 1026 2522 
Q 928 2153 928 1778 
Q 928 1128 1239 775 
Q 1550 422 2119 422 
Q 2631 422 3032 676 
Q 3434 931 3719 1434 
Q 3909 1772 4009 2142 
Q 4109 2513 4109 2881 
Q 4109 3528 3796 3883 
Q 3484 4238 2919 4238 
z
" transform="scale(0.015625)"/>
       <path id="DejaVuSans-51" d="M 2522 4238 
Q 1834 4238 1429 3725 
Q 1025 3213 1025 2328 
Q 1025 1447 1429 934 
Q 1834 422 2522 422 
Q 3209 422 3611 934 
Q 4013 1447 4013 2328 
Q 4013 3213 3611 3725 
Q 3209 4238 2522 4238 
z
M 3406 84 
L 4238 -825 
L 3475 -825 
L 2784 -78 
Q 2681 -84 2626 -87 
Q 2572 -91 2522 -91 
Q 1538 -91 948 567 
Q 359 1225 359 2328 
Q 359 3434 948 4092 
Q 1538 4750 2522 4750 
Q 3503 4750 4090 4092 
Q 4678 3434 4678 2328 
Q 4678 1516 4351 937 
Q 4025 359 3406 84 
z
" transform="scale(0.015625)"/>
      </defs>
      <use xlink:href="#DejaVuSans-Oblique-51" transform="translate(0 0.015625)"/>
      <use xlink:href="#DejaVuSans-20" transform="translate(78.710938 0.015625)"/>
      <use xlink:href="#DejaVuSans-2d" transform="translate(110.498047 0.015625)"/>
      <use xlink:href="#DejaVuSans-20" transform="translate(146.582031 0.015625)"/>
      <use xlink:href="#DejaVuSans-51" transform="translate(178.369141 0.015625)"/>
      <use xlink:href="#DejaVuSans-75" transform="translate(257.080078 0.015625)"/>
      <use xlink:href="#DejaVuSans-61" transform="translate(320.458984 0.015625)"/>
      <use xlink:href="#DejaVuSans-72" transform="translate(381.738281 0.015625)"/>
      <use xlink:href="#DejaVuSans-61" transform="translate(422.851562 0.015625)"/>
      <use xlink:href="#DejaVuSans-6e" transform="translate(484.130859 0.015625)"/>
      <use xlink:href="#DejaVuSans-74" transform="translate(547.509766 0.015625)"/>
      <use xlink:href="#DejaVuSans-69" transform="translate(586.71875 0.015625)"/>
      <use xlink:href="#DejaVuSans-6e" transform="translate(614.501953 0.015625)"/>
      <use xlink:href="#DejaVuSans-65" transform="translate(677.880859 0.015625)"/>
      <use xlink:href="#DejaVuSans-64" transform="translate(739.404297 0.015625)"/>
     </g>
    </g>
    <g id="line2d_24">
     <path d="M 39.103125 111.636563 
L 49.103125 111.636563 
L 59.103125 111.636563 
" style="fill: none; stroke: #9467bd; stroke-width: 1.5; stroke-linecap: square"/>
    </g>
    <g id="text_19">
     <!-- $D$ - Deceased -->
     <g transform="translate(67.103125 115.136563) scale(0.1 -0.1)">
      <defs>
       <path id="DejaVuSans-Oblique-44" d="M 1081 4666 
L 2438 4666 
Q 3519 4666 4070 4208 
Q 4622 3750 4622 2847 
Q 4622 2250 4412 1698 
Q 4203 1147 3834 769 
Q 3463 381 2891 190 
Q 2319 0 1538 0 
L 172 0 
L 1081 4666 
z
M 1613 4147 
L 909 519 
L 1734 519 
Q 2794 519 3375 1128 
Q 3956 1738 3956 2847 
Q 3956 3519 3581 3833 
Q 3206 4147 2406 4147 
L 1613 4147 
z
" transform="scale(0.015625)"/>
       <path id="DejaVuSans-44" d="M 1259 4147 
L 1259 519 
L 2022 519 
Q 2988 519 3436 956 
Q 3884 1394 3884 2338 
Q 3884 3275 3436 3711 
Q 2988 4147 2022 4147 
L 1259 4147 
z
M 628 4666 
L 1925 4666 
Q 3281 4666 3915 4102 
Q 4550 3538 4550 2338 
Q 4550 1131 3912 565 
Q 3275 0 1925 0 
L 628 0 
L 628 4666 
z
" transform="scale(0.015625)"/>
      </defs>
      <use xlink:href="#DejaVuSans-Oblique-44" transform="translate(0 0.015625)"/>
      <use xlink:href="#DejaVuSans-20" transform="translate(77.001953 0.015625)"/>
      <use xlink:href="#DejaVuSans-2d" transform="translate(108.789062 0.015625)"/>
      <use xlink:href="#DejaVuSans-20" transform="translate(144.873047 0.015625)"/>
      <use xlink:href="#DejaVuSans-44" transform="translate(176.660156 0.015625)"/>
      <use xlink:href="#DejaVuSans-65" transform="translate(253.662109 0.015625)"/>
      <use xlink:href="#DejaVuSans-63" transform="translate(315.185547 0.015625)"/>
      <use xlink:href="#DejaVuSans-65" transform="translate(370.166016 0.015625)"/>
      <use xlink:href="#DejaVuSans-61" transform="translate(431.689453 0.015625)"/>
      <use xlink:href="#DejaVuSans-73" transform="translate(492.96875 0.015625)"/>
      <use xlink:href="#DejaVuSans-65" transform="translate(545.068359 0.015625)"/>
      <use xlink:href="#DejaVuSans-64" transform="translate(606.591797 0.015625)"/>
     </g>
    </g>
    <g id="line2d_25">
     <path d="M 39.103125 126.31625 
L 49.103125 126.31625 
L 59.103125 126.31625 
" style="fill: none; stroke: #8c564b; stroke-width: 1.5; stroke-linecap: square"/>
    </g>
    <g id="text_20">
     <!-- $u$ - Testing Rate -->
     <g transform="translate(67.103125 129.81625) scale(0.1 -0.1)">
      <defs>
       <path id="DejaVuSans-Oblique-75" d="M 428 1388 
L 838 3500 
L 1416 3500 
L 1006 1409 
Q 975 1256 961 1147 
Q 947 1038 947 966 
Q 947 700 1109 554 
Q 1272 409 1569 409 
Q 2031 409 2368 721 
Q 2706 1034 2809 1563 
L 3194 3500 
L 3769 3500 
L 3091 0 
L 2516 0 
L 2631 550 
Q 2388 244 2052 76 
Q 1716 -91 1338 -91 
Q 878 -91 622 161 
Q 366 413 366 863 
Q 366 956 381 1097 
Q 397 1238 428 1388 
z
" transform="scale(0.015625)"/>
       <path id="DejaVuSans-54" d="M -19 4666 
L 3928 4666 
L 3928 4134 
L 2272 4134 
L 2272 0 
L 1638 0 
L 1638 4134 
L -19 4134 
L -19 4666 
z
" transform="scale(0.015625)"/>
       <path id="DejaVuSans-67" d="M 2906 1791 
Q 2906 2416 2648 2759 
Q 2391 3103 1925 3103 
Q 1463 3103 1205 2759 
Q 947 2416 947 1791 
Q 947 1169 1205 825 
Q 1463 481 1925 481 
Q 2391 481 2648 825 
Q 2906 1169 2906 1791 
z
M 3481 434 
Q 3481 -459 3084 -895 
Q 2688 -1331 1869 -1331 
Q 1566 -1331 1297 -1286 
Q 1028 -1241 775 -1147 
L 775 -588 
Q 1028 -725 1275 -790 
Q 1522 -856 1778 -856 
Q 2344 -856 2625 -561 
Q 2906 -266 2906 331 
L 2906 616 
Q 2728 306 2450 153 
Q 2172 0 1784 0 
Q 1141 0 747 490 
Q 353 981 353 1791 
Q 353 2603 747 3093 
Q 1141 3584 1784 3584 
Q 2172 3584 2450 3431 
Q 2728 3278 2906 2969 
L 2906 3500 
L 3481 3500 
L 3481 434 
z
" transform="scale(0.015625)"/>
      </defs>
      <use xlink:href="#DejaVuSans-Oblique-75" transform="translate(0 0.015625)"/>
      <use xlink:href="#DejaVuSans-20" transform="translate(63.378906 0.015625)"/>
      <use xlink:href="#DejaVuSans-2d" transform="translate(95.166016 0.015625)"/>
      <use xlink:href="#DejaVuSans-20" transform="translate(131.25 0.015625)"/>
      <use xlink:href="#DejaVuSans-54" transform="translate(163.037109 0.015625)"/>
      <use xlink:href="#DejaVuSans-65" transform="translate(224.121094 0.015625)"/>
      <use xlink:href="#DejaVuSans-73" transform="translate(285.644531 0.015625)"/>
      <use xlink:href="#DejaVuSans-74" transform="translate(337.744141 0.015625)"/>
      <use xlink:href="#DejaVuSans-69" transform="translate(376.953125 0.015625)"/>
      <use xlink:href="#DejaVuSans-6e" transform="translate(404.736328 0.015625)"/>
      <use xlink:href="#DejaVuSans-67" transform="translate(468.115234 0.015625)"/>
      <use xlink:href="#DejaVuSans-20" transform="translate(531.591797 0.015625)"/>
      <use xlink:href="#DejaVuSans-52" transform="translate(563.378906 0.015625)"/>
      <use xlink:href="#DejaVuSans-61" transform="translate(632.861328 0.015625)"/>
      <use xlink:href="#DejaVuSans-74" transform="translate(694.140625 0.015625)"/>
      <use xlink:href="#DejaVuSans-65" transform="translate(733.349609 0.015625)"/>
     </g>
    </g>
   </g>
  </g>
 </g>
 <defs>
  <clipPath id="pfbe69e66a7">
   <rect x="30.103125" y="7.2" width="558" height="166.32"/>
  </clipPath>
 </defs>
</svg>
