<?xml version="1.0" encoding="utf-8" standalone="no"?>
<!DOCTYPE svg PUBLIC "-//W3C//DTD SVG 1.1//EN"
  "http://www.w3.org/Graphics/SVG/1.1/DTD/svg11.dtd">
<svg xmlns:xlink="http://www.w3.org/1999/xlink" width="608.98125pt" height="211.07625pt" viewBox="0 0 608.98125 211.07625" xmlns="http://www.w3.org/2000/svg" version="1.1">
 <metadata>
  <rdf:RDF xmlns:dc="http://purl.org/dc/elements/1.1/" xmlns:cc="http://creativecommons.org/ns#" xmlns:rdf="http://www.w3.org/1999/02/22-rdf-syntax-ns#">
   <cc:Work>
    <dc:type rdf:resource="http://purl.org/dc/dcmitype/StillImage"/>
    <dc:date>2025-07-11T19:04:34.520484</dc:date>
    <dc:format>image/svg+xml</dc:format>
    <dc:creator>
     <cc:Agent>
      <dc:title>Matplotlib v3.6.3, https://matplotlib.org/</dc:title>
     </cc:Agent>
    </dc:creator>
   </cc:Work>
  </rdf:RDF>
 </metadata>
 <defs>
  <style type="text/css">*{stroke-linejoin: round; stroke-linecap: butt}</style>
 </defs>
 <g id="figure_1">
  <g id="patch_1">
   <path d="M 0 211.07625 
L 608.98125 211.07625 
L 608.98125 0 
L 0 0 
z
" style="fill: #ffffff"/>
  </g>
  <g id="axes_1">
   <g id="patch_2">
    <path d="M 43.78125 173.52 
L 601.78125 173.52 
L 601.78125 7.2 
L 43.78125 7.2 
z
" style="fill: #ffffff"/>
   </g>
   <g id="matplotlib.axis_1">
    <g id="xtick_1">
     <g id="line2d_1">
      <defs>
       <path id="m07f110bf1b" d="M 0 0 
L 0 3.5 
" style="stroke: #000000; stroke-width: 0.8"/>
      </defs>
      <g>
       <use xlink:href="#m07f110bf1b" x="69.144886" y="173.52" style="stroke: #000000; stroke-width: 0.8"/>
      </g>
     </g>
     <g id="text_1">
      <!-- 0 -->
      <g transform="translate(65.963636 188.118438) scale(0.1 -0.1)">
       <defs>
        <path id="DejaVuSans-30" d="M 2034 4250 
Q 1547 4250 1301 3770 
Q 1056 3291 1056 2328 
Q 1056 1369 1301 889 
Q 1547 409 2034 409 
Q 2525 409 2770 889 
Q 3016 1369 3016 2328 
Q 3016 3291 2770 3770 
Q 2525 4250 2034 4250 
z
M 2034 4750 
Q 2819 4750 3233 4129 
Q 3647 3509 3647 2328 
Q 3647 1150 3233 529 
Q 2819 -91 2034 -91 
Q 1250 -91 836 529 
Q 422 1150 422 2328 
Q 422 3509 836 4129 
Q 1250 4750 2034 4750 
z
" transform="scale(0.015625)"/>
       </defs>
       <use xlink:href="#DejaVuSans-30"/>
      </g>
     </g>
    </g>
    <g id="xtick_2">
     <g id="line2d_2">
      <g>
       <use xlink:href="#m07f110bf1b" x="153.973102" y="173.52" style="stroke: #000000; stroke-width: 0.8"/>
      </g>
     </g>
     <g id="text_2">
      <!-- 50 -->
      <g transform="translate(147.610602 188.118438) scale(0.1 -0.1)">
       <defs>
        <path id="DejaVuSans-35" d="M 691 4666 
L 3169 4666 
L 3169 4134 
L 1269 4134 
L 1269 2991 
Q 1406 3038 1543 3061 
Q 1681 3084 1819 3084 
Q 2600 3084 3056 2656 
Q 3513 2228 3513 1497 
Q 3513 744 3044 326 
Q 2575 -91 1722 -91 
Q 1428 -91 1123 -41 
Q 819 9 494 109 
L 494 744 
Q 775 591 1075 516 
Q 1375 441 1709 441 
Q 2250 441 2565 725 
Q 2881 1009 2881 1497 
Q 2881 1984 2565 2268 
Q 2250 2553 1709 2553 
Q 1456 2553 1204 2497 
Q 953 2441 691 2322 
L 691 4666 
z
" transform="scale(0.015625)"/>
       </defs>
       <use xlink:href="#DejaVuSans-35"/>
       <use xlink:href="#DejaVuSans-30" x="63.623047"/>
      </g>
     </g>
    </g>
    <g id="xtick_3">
     <g id="line2d_3">
      <g>
       <use xlink:href="#m07f110bf1b" x="238.801317" y="173.52" style="stroke: #000000; stroke-width: 0.8"/>
      </g>
     </g>
     <g id="text_3">
      <!-- 100 -->
      <g transform="translate(229.257567 188.118438) scale(0.1 -0.1)">
       <defs>
        <path id="DejaVuSans-31" d="M 794 531 
L 1825 531 
L 1825 4091 
L 703 3866 
L 703 4441 
L 1819 4666 
L 2450 4666 
L 2450 531 
L 3481 531 
L 3481 0 
L 794 0 
L 794 531 
z
" transform="scale(0.015625)"/>
       </defs>
       <use xlink:href="#DejaVuSans-31"/>
       <use xlink:href="#DejaVuSans-30" x="63.623047"/>
       <use xlink:href="#DejaVuSans-30" x="127.246094"/>
      </g>
     </g>
    </g>
    <g id="xtick_4">
     <g id="line2d_4">
      <g>
       <use xlink:href="#m07f110bf1b" x="323.629532" y="173.52" style="stroke: #000000; stroke-width: 0.8"/>
      </g>
     </g>
     <g id="text_4">
      <!-- 150 -->
      <g transform="translate(314.085782 188.118438) scale(0.1 -0.1)">
       <use xlink:href="#DejaVuSans-31"/>
       <use xlink:href="#DejaVuSans-35" x="63.623047"/>
       <use xlink:href="#DejaVuSans-30" x="127.246094"/>
      </g>
     </g>
    </g>
    <g id="xtick_5">
     <g id="line2d_5">
      <g>
       <use xlink:href="#m07f110bf1b" x="408.457747" y="173.52" style="stroke: #000000; stroke-width: 0.8"/>
      </g>
     </g>
     <g id="text_5">
      <!-- 200 -->
      <g transform="translate(398.913997 188.118438) scale(0.1 -0.1)">
       <defs>
        <path id="DejaVuSans-32" d="M 1228 531 
L 3431 531 
L 3431 0 
L 469 0 
L 469 531 
Q 828 903 1448 1529 
Q 2069 2156 2228 2338 
Q 2531 2678 2651 2914 
Q 2772 3150 2772 3378 
Q 2772 3750 2511 3984 
Q 2250 4219 1831 4219 
Q 1534 4219 1204 4116 
Q 875 4013 500 3803 
L 500 4441 
Q 881 4594 1212 4672 
Q 1544 4750 1819 4750 
Q 2544 4750 2975 4387 
Q 3406 4025 3406 3419 
Q 3406 3131 3298 2873 
Q 3191 2616 2906 2266 
Q 2828 2175 2409 1742 
Q 1991 1309 1228 531 
z
" transform="scale(0.015625)"/>
       </defs>
       <use xlink:href="#DejaVuSans-32"/>
       <use xlink:href="#DejaVuSans-30" x="63.623047"/>
       <use xlink:href="#DejaVuSans-30" x="127.246094"/>
      </g>
     </g>
    </g>
    <g id="xtick_6">
     <g id="line2d_6">
      <g>
       <use xlink:href="#m07f110bf1b" x="493.285963" y="173.52" style="stroke: #000000; stroke-width: 0.8"/>
      </g>
     </g>
     <g id="text_6">
      <!-- 250 -->
      <g transform="translate(483.742213 188.118438) scale(0.1 -0.1)">
       <use xlink:href="#DejaVuSans-32"/>
       <use xlink:href="#DejaVuSans-35" x="63.623047"/>
       <use xlink:href="#DejaVuSans-30" x="127.246094"/>
      </g>
     </g>
    </g>
    <g id="xtick_7">
     <g id="line2d_7">
      <g>
       <use xlink:href="#m07f110bf1b" x="578.114178" y="173.52" style="stroke: #000000; stroke-width: 0.8"/>
      </g>
     </g>
     <g id="text_7">
      <!-- 300 -->
      <g transform="translate(568.570428 188.118438) scale(0.1 -0.1)">
       <defs>
        <path id="DejaVuSans-33" d="M 2597 2516 
Q 3050 2419 3304 2112 
Q 3559 1806 3559 1356 
Q 3559 666 3084 287 
Q 2609 -91 1734 -91 
Q 1441 -91 1130 -33 
Q 819 25 488 141 
L 488 750 
Q 750 597 1062 519 
Q 1375 441 1716 441 
Q 2309 441 2620 675 
Q 2931 909 2931 1356 
Q 2931 1769 2642 2001 
Q 2353 2234 1838 2234 
L 1294 2234 
L 1294 2753 
L 1863 2753 
Q 2328 2753 2575 2939 
Q 2822 3125 2822 3475 
Q 2822 3834 2567 4026 
Q 2313 4219 1838 4219 
Q 1578 4219 1281 4162 
Q 984 4106 628 3988 
L 628 4550 
Q 988 4650 1302 4700 
Q 1616 4750 1894 4750 
Q 2613 4750 3031 4423 
Q 3450 4097 3450 3541 
Q 3450 3153 3228 2886 
Q 3006 2619 2597 2516 
z
" transform="scale(0.015625)"/>
       </defs>
       <use xlink:href="#DejaVuSans-33"/>
       <use xlink:href="#DejaVuSans-30" x="63.623047"/>
       <use xlink:href="#DejaVuSans-30" x="127.246094"/>
      </g>
     </g>
    </g>
    <g id="text_8">
     <!-- time (days) -->
     <g transform="translate(294.192187 201.796563) scale(0.1 -0.1)">
      <defs>
       <path id="DejaVuSans-74" d="M 1172 4494 
L 1172 3500 
L 2356 3500 
L 2356 3053 
L 1172 3053 
L 1172 1153 
Q 1172 725 1289 603 
Q 1406 481 1766 481 
L 2356 481 
L 2356 0 
L 1766 0 
Q 1100 0 847 248 
Q 594 497 594 1153 
L 594 3053 
L 172 3053 
L 172 3500 
L 594 3500 
L 594 4494 
L 1172 4494 
z
" transform="scale(0.015625)"/>
       <path id="DejaVuSans-69" d="M 603 3500 
L 1178 3500 
L 1178 0 
L 603 0 
L 603 3500 
z
M 603 4863 
L 1178 4863 
L 1178 4134 
L 603 4134 
L 603 4863 
z
" transform="scale(0.015625)"/>
       <path id="DejaVuSans-6d" d="M 3328 2828 
Q 3544 3216 3844 3400 
Q 4144 3584 4550 3584 
Q 5097 3584 5394 3201 
Q 5691 2819 5691 2113 
L 5691 0 
L 5113 0 
L 5113 2094 
Q 5113 2597 4934 2840 
Q 4756 3084 4391 3084 
Q 3944 3084 3684 2787 
Q 3425 2491 3425 1978 
L 3425 0 
L 2847 0 
L 2847 2094 
Q 2847 2600 2669 2842 
Q 2491 3084 2119 3084 
Q 1678 3084 1418 2786 
Q 1159 2488 1159 1978 
L 1159 0 
L 581 0 
L 581 3500 
L 1159 3500 
L 1159 2956 
Q 1356 3278 1631 3431 
Q 1906 3584 2284 3584 
Q 2666 3584 2933 3390 
Q 3200 3197 3328 2828 
z
" transform="scale(0.015625)"/>
       <path id="DejaVuSans-65" d="M 3597 1894 
L 3597 1613 
L 953 1613 
Q 991 1019 1311 708 
Q 1631 397 2203 397 
Q 2534 397 2845 478 
Q 3156 559 3463 722 
L 3463 178 
Q 3153 47 2828 -22 
Q 2503 -91 2169 -91 
Q 1331 -91 842 396 
Q 353 884 353 1716 
Q 353 2575 817 3079 
Q 1281 3584 2069 3584 
Q 2775 3584 3186 3129 
Q 3597 2675 3597 1894 
z
M 3022 2063 
Q 3016 2534 2758 2815 
Q 2500 3097 2075 3097 
Q 1594 3097 1305 2825 
Q 1016 2553 972 2059 
L 3022 2063 
z
" transform="scale(0.015625)"/>
       <path id="DejaVuSans-20" transform="scale(0.015625)"/>
       <path id="DejaVuSans-28" d="M 1984 4856 
Q 1566 4138 1362 3434 
Q 1159 2731 1159 2009 
Q 1159 1288 1364 580 
Q 1569 -128 1984 -844 
L 1484 -844 
Q 1016 -109 783 600 
Q 550 1309 550 2009 
Q 550 2706 781 3412 
Q 1013 4119 1484 4856 
L 1984 4856 
z
" transform="scale(0.015625)"/>
       <path id="DejaVuSans-64" d="M 2906 2969 
L 2906 4863 
L 3481 4863 
L 3481 0 
L 2906 0 
L 2906 525 
Q 2725 213 2448 61 
Q 2172 -91 1784 -91 
Q 1150 -91 751 415 
Q 353 922 353 1747 
Q 353 2572 751 3078 
Q 1150 3584 1784 3584 
Q 2172 3584 2448 3432 
Q 2725 3281 2906 2969 
z
M 947 1747 
Q 947 1113 1208 752 
Q 1469 391 1925 391 
Q 2381 391 2643 752 
Q 2906 1113 2906 1747 
Q 2906 2381 2643 2742 
Q 2381 3103 1925 3103 
Q 1469 3103 1208 2742 
Q 947 2381 947 1747 
z
" transform="scale(0.015625)"/>
       <path id="DejaVuSans-61" d="M 2194 1759 
Q 1497 1759 1228 1600 
Q 959 1441 959 1056 
Q 959 750 1161 570 
Q 1363 391 1709 391 
Q 2188 391 2477 730 
Q 2766 1069 2766 1631 
L 2766 1759 
L 2194 1759 
z
M 3341 1997 
L 3341 0 
L 2766 0 
L 2766 531 
Q 2569 213 2275 61 
Q 1981 -91 1556 -91 
Q 1019 -91 701 211 
Q 384 513 384 1019 
Q 384 1609 779 1909 
Q 1175 2209 1959 2209 
L 2766 2209 
L 2766 2266 
Q 2766 2663 2505 2880 
Q 2244 3097 1772 3097 
Q 1472 3097 1187 3025 
Q 903 2953 641 2809 
L 641 3341 
Q 956 3463 1253 3523 
Q 1550 3584 1831 3584 
Q 2591 3584 2966 3190 
Q 3341 2797 3341 1997 
z
" transform="scale(0.015625)"/>
       <path id="DejaVuSans-79" d="M 2059 -325 
Q 1816 -950 1584 -1140 
Q 1353 -1331 966 -1331 
L 506 -1331 
L 506 -850 
L 844 -850 
Q 1081 -850 1212 -737 
Q 1344 -625 1503 -206 
L 1606 56 
L 191 3500 
L 800 3500 
L 1894 763 
L 2988 3500 
L 3597 3500 
L 2059 -325 
z
" transform="scale(0.015625)"/>
       <path id="DejaVuSans-73" d="M 2834 3397 
L 2834 2853 
Q 2591 2978 2328 3040 
Q 2066 3103 1784 3103 
Q 1356 3103 1142 2972 
Q 928 2841 928 2578 
Q 928 2378 1081 2264 
Q 1234 2150 1697 2047 
L 1894 2003 
Q 2506 1872 2764 1633 
Q 3022 1394 3022 966 
Q 3022 478 2636 193 
Q 2250 -91 1575 -91 
Q 1294 -91 989 -36 
Q 684 19 347 128 
L 347 722 
Q 666 556 975 473 
Q 1284 391 1588 391 
Q 1994 391 2212 530 
Q 2431 669 2431 922 
Q 2431 1156 2273 1281 
Q 2116 1406 1581 1522 
L 1381 1569 
Q 847 1681 609 1914 
Q 372 2147 372 2553 
Q 372 3047 722 3315 
Q 1072 3584 1716 3584 
Q 2034 3584 2315 3537 
Q 2597 3491 2834 3397 
z
" transform="scale(0.015625)"/>
       <path id="DejaVuSans-29" d="M 513 4856 
L 1013 4856 
Q 1481 4119 1714 3412 
Q 1947 2706 1947 2009 
Q 1947 1309 1714 600 
Q 1481 -109 1013 -844 
L 513 -844 
Q 928 -128 1133 580 
Q 1338 1288 1338 2009 
Q 1338 2731 1133 3434 
Q 928 4138 513 4856 
z
" transform="scale(0.015625)"/>
      </defs>
      <use xlink:href="#DejaVuSans-74"/>
      <use xlink:href="#DejaVuSans-69" x="39.208984"/>
      <use xlink:href="#DejaVuSans-6d" x="66.992188"/>
      <use xlink:href="#DejaVuSans-65" x="164.404297"/>
      <use xlink:href="#DejaVuSans-20" x="225.927734"/>
      <use xlink:href="#DejaVuSans-28" x="257.714844"/>
      <use xlink:href="#DejaVuSans-64" x="296.728516"/>
      <use xlink:href="#DejaVuSans-61" x="360.205078"/>
      <use xlink:href="#DejaVuSans-79" x="421.484375"/>
      <use xlink:href="#DejaVuSans-73" x="480.664062"/>
      <use xlink:href="#DejaVuSans-29" x="532.763672"/>
     </g>
    </g>
   </g>
   <g id="matplotlib.axis_2">
    <g id="ytick_1">
     <g id="line2d_8">
      <defs>
       <path id="m86dee2ce16" d="M 0 0 
L -3.5 0 
" style="stroke: #000000; stroke-width: 0.8"/>
      </defs>
      <g>
       <use xlink:href="#m86dee2ce16" x="43.78125" y="165.96" style="stroke: #000000; stroke-width: 0.8"/>
      </g>
     </g>
     <g id="text_9">
      <!-- 0.0 -->
      <g transform="translate(20.878125 169.759219) scale(0.1 -0.1)">
       <defs>
        <path id="DejaVuSans-2e" d="M 684 794 
L 1344 794 
L 1344 0 
L 684 0 
L 684 794 
z
" transform="scale(0.015625)"/>
       </defs>
       <use xlink:href="#DejaVuSans-30"/>
       <use xlink:href="#DejaVuSans-2e" x="63.623047"/>
       <use xlink:href="#DejaVuSans-30" x="95.410156"/>
      </g>
     </g>
    </g>
    <g id="ytick_2">
     <g id="line2d_9">
      <g>
       <use xlink:href="#m86dee2ce16" x="43.78125" y="135.719698" style="stroke: #000000; stroke-width: 0.8"/>
      </g>
     </g>
     <g id="text_10">
      <!-- 0.2 -->
      <g transform="translate(20.878125 139.518916) scale(0.1 -0.1)">
       <use xlink:href="#DejaVuSans-30"/>
       <use xlink:href="#DejaVuSans-2e" x="63.623047"/>
       <use xlink:href="#DejaVuSans-32" x="95.410156"/>
      </g>
     </g>
    </g>
    <g id="ytick_3">
     <g id="line2d_10">
      <g>
       <use xlink:href="#m86dee2ce16" x="43.78125" y="105.479395" style="stroke: #000000; stroke-width: 0.8"/>
      </g>
     </g>
     <g id="text_11">
      <!-- 0.4 -->
      <g transform="translate(20.878125 109.278614) scale(0.1 -0.1)">
       <defs>
        <path id="DejaVuSans-34" d="M 2419 4116 
L 825 1625 
L 2419 1625 
L 2419 4116 
z
M 2253 4666 
L 3047 4666 
L 3047 1625 
L 3713 1625 
L 3713 1100 
L 3047 1100 
L 3047 0 
L 2419 0 
L 2419 1100 
L 313 1100 
L 313 1709 
L 2253 4666 
z
" transform="scale(0.015625)"/>
       </defs>
       <use xlink:href="#DejaVuSans-30"/>
       <use xlink:href="#DejaVuSans-2e" x="63.623047"/>
       <use xlink:href="#DejaVuSans-34" x="95.410156"/>
      </g>
     </g>
    </g>
    <g id="ytick_4">
     <g id="line2d_11">
      <g>
       <use xlink:href="#m86dee2ce16" x="43.78125" y="75.239093" style="stroke: #000000; stroke-width: 0.8"/>
      </g>
     </g>
     <g id="text_12">
      <!-- 0.6 -->
      <g transform="translate(20.878125 79.038312) scale(0.1 -0.1)">
       <defs>
        <path id="DejaVuSans-36" d="M 2113 2584 
Q 1688 2584 1439 2293 
Q 1191 2003 1191 1497 
Q 1191 994 1439 701 
Q 1688 409 2113 409 
Q 2538 409 2786 701 
Q 3034 994 3034 1497 
Q 3034 2003 2786 2293 
Q 2538 2584 2113 2584 
z
M 3366 4563 
L 3366 3988 
Q 3128 4100 2886 4159 
Q 2644 4219 2406 4219 
Q 1781 4219 1451 3797 
Q 1122 3375 1075 2522 
Q 1259 2794 1537 2939 
Q 1816 3084 2150 3084 
Q 2853 3084 3261 2657 
Q 3669 2231 3669 1497 
Q 3669 778 3244 343 
Q 2819 -91 2113 -91 
Q 1303 -91 875 529 
Q 447 1150 447 2328 
Q 447 3434 972 4092 
Q 1497 4750 2381 4750 
Q 2619 4750 2861 4703 
Q 3103 4656 3366 4563 
z
" transform="scale(0.015625)"/>
       </defs>
       <use xlink:href="#DejaVuSans-30"/>
       <use xlink:href="#DejaVuSans-2e" x="63.623047"/>
       <use xlink:href="#DejaVuSans-36" x="95.410156"/>
      </g>
     </g>
    </g>
    <g id="ytick_5">
     <g id="line2d_12">
      <g>
       <use xlink:href="#m86dee2ce16" x="43.78125" y="44.99879" style="stroke: #000000; stroke-width: 0.8"/>
      </g>
     </g>
     <g id="text_13">
      <!-- 0.8 -->
      <g transform="translate(20.878125 48.798009) scale(0.1 -0.1)">
       <defs>
        <path id="DejaVuSans-38" d="M 2034 2216 
Q 1584 2216 1326 1975 
Q 1069 1734 1069 1313 
Q 1069 891 1326 650 
Q 1584 409 2034 409 
Q 2484 409 2743 651 
Q 3003 894 3003 1313 
Q 3003 1734 2745 1975 
Q 2488 2216 2034 2216 
z
M 1403 2484 
Q 997 2584 770 2862 
Q 544 3141 544 3541 
Q 544 4100 942 4425 
Q 1341 4750 2034 4750 
Q 2731 4750 3128 4425 
Q 3525 4100 3525 3541 
Q 3525 3141 3298 2862 
Q 3072 2584 2669 2484 
Q 3125 2378 3379 2068 
Q 3634 1759 3634 1313 
Q 3634 634 3220 271 
Q 2806 -91 2034 -91 
Q 1263 -91 848 271 
Q 434 634 434 1313 
Q 434 1759 690 2068 
Q 947 2378 1403 2484 
z
M 1172 3481 
Q 1172 3119 1398 2916 
Q 1625 2713 2034 2713 
Q 2441 2713 2670 2916 
Q 2900 3119 2900 3481 
Q 2900 3844 2670 4047 
Q 2441 4250 2034 4250 
Q 1625 4250 1398 4047 
Q 1172 3844 1172 3481 
z
" transform="scale(0.015625)"/>
       </defs>
       <use xlink:href="#DejaVuSans-30"/>
       <use xlink:href="#DejaVuSans-2e" x="63.623047"/>
       <use xlink:href="#DejaVuSans-38" x="95.410156"/>
      </g>
     </g>
    </g>
    <g id="ytick_6">
     <g id="line2d_13">
      <g>
       <use xlink:href="#m86dee2ce16" x="43.78125" y="14.758488" style="stroke: #000000; stroke-width: 0.8"/>
      </g>
     </g>
     <g id="text_14">
      <!-- 1.0 -->
      <g transform="translate(20.878125 18.557707) scale(0.1 -0.1)">
       <use xlink:href="#DejaVuSans-31"/>
       <use xlink:href="#DejaVuSans-2e" x="63.623047"/>
       <use xlink:href="#DejaVuSans-30" x="95.410156"/>
      </g>
     </g>
    </g>
    <g id="text_15">
     <!-- Proportion of population -->
     <g transform="translate(14.798438 150.760781) rotate(-90) scale(0.1 -0.1)">
      <defs>
       <path id="DejaVuSans-50" d="M 1259 4147 
L 1259 2394 
L 2053 2394 
Q 2494 2394 2734 2622 
Q 2975 2850 2975 3272 
Q 2975 3691 2734 3919 
Q 2494 4147 2053 4147 
L 1259 4147 
z
M 628 4666 
L 2053 4666 
Q 2838 4666 3239 4311 
Q 3641 3956 3641 3272 
Q 3641 2581 3239 2228 
Q 2838 1875 2053 1875 
L 1259 1875 
L 1259 0 
L 628 0 
L 628 4666 
z
" transform="scale(0.015625)"/>
       <path id="DejaVuSans-72" d="M 2631 2963 
Q 2534 3019 2420 3045 
Q 2306 3072 2169 3072 
Q 1681 3072 1420 2755 
Q 1159 2438 1159 1844 
L 1159 0 
L 581 0 
L 581 3500 
L 1159 3500 
L 1159 2956 
Q 1341 3275 1631 3429 
Q 1922 3584 2338 3584 
Q 2397 3584 2469 3576 
Q 2541 3569 2628 3553 
L 2631 2963 
z
" transform="scale(0.015625)"/>
       <path id="DejaVuSans-6f" d="M 1959 3097 
Q 1497 3097 1228 2736 
Q 959 2375 959 1747 
Q 959 1119 1226 758 
Q 1494 397 1959 397 
Q 2419 397 2687 759 
Q 2956 1122 2956 1747 
Q 2956 2369 2687 2733 
Q 2419 3097 1959 3097 
z
M 1959 3584 
Q 2709 3584 3137 3096 
Q 3566 2609 3566 1747 
Q 3566 888 3137 398 
Q 2709 -91 1959 -91 
Q 1206 -91 779 398 
Q 353 888 353 1747 
Q 353 2609 779 3096 
Q 1206 3584 1959 3584 
z
" transform="scale(0.015625)"/>
       <path id="DejaVuSans-70" d="M 1159 525 
L 1159 -1331 
L 581 -1331 
L 581 3500 
L 1159 3500 
L 1159 2969 
Q 1341 3281 1617 3432 
Q 1894 3584 2278 3584 
Q 2916 3584 3314 3078 
Q 3713 2572 3713 1747 
Q 3713 922 3314 415 
Q 2916 -91 2278 -91 
Q 1894 -91 1617 61 
Q 1341 213 1159 525 
z
M 3116 1747 
Q 3116 2381 2855 2742 
Q 2594 3103 2138 3103 
Q 1681 3103 1420 2742 
Q 1159 2381 1159 1747 
Q 1159 1113 1420 752 
Q 1681 391 2138 391 
Q 2594 391 2855 752 
Q 3116 1113 3116 1747 
z
" transform="scale(0.015625)"/>
       <path id="DejaVuSans-6e" d="M 3513 2113 
L 3513 0 
L 2938 0 
L 2938 2094 
Q 2938 2591 2744 2837 
Q 2550 3084 2163 3084 
Q 1697 3084 1428 2787 
Q 1159 2491 1159 1978 
L 1159 0 
L 581 0 
L 581 3500 
L 1159 3500 
L 1159 2956 
Q 1366 3272 1645 3428 
Q 1925 3584 2291 3584 
Q 2894 3584 3203 3211 
Q 3513 2838 3513 2113 
z
" transform="scale(0.015625)"/>
       <path id="DejaVuSans-66" d="M 2375 4863 
L 2375 4384 
L 1825 4384 
Q 1516 4384 1395 4259 
Q 1275 4134 1275 3809 
L 1275 3500 
L 2222 3500 
L 2222 3053 
L 1275 3053 
L 1275 0 
L 697 0 
L 697 3053 
L 147 3053 
L 147 3500 
L 697 3500 
L 697 3744 
Q 697 4328 969 4595 
Q 1241 4863 1831 4863 
L 2375 4863 
z
" transform="scale(0.015625)"/>
       <path id="DejaVuSans-75" d="M 544 1381 
L 544 3500 
L 1119 3500 
L 1119 1403 
Q 1119 906 1312 657 
Q 1506 409 1894 409 
Q 2359 409 2629 706 
Q 2900 1003 2900 1516 
L 2900 3500 
L 3475 3500 
L 3475 0 
L 2900 0 
L 2900 538 
Q 2691 219 2414 64 
Q 2138 -91 1772 -91 
Q 1169 -91 856 284 
Q 544 659 544 1381 
z
M 1991 3584 
L 1991 3584 
z
" transform="scale(0.015625)"/>
       <path id="DejaVuSans-6c" d="M 603 4863 
L 1178 4863 
L 1178 0 
L 603 0 
L 603 4863 
z
" transform="scale(0.015625)"/>
      </defs>
      <use xlink:href="#DejaVuSans-50"/>
      <use xlink:href="#DejaVuSans-72" x="58.552734"/>
      <use xlink:href="#DejaVuSans-6f" x="97.416016"/>
      <use xlink:href="#DejaVuSans-70" x="158.597656"/>
      <use xlink:href="#DejaVuSans-6f" x="222.074219"/>
      <use xlink:href="#DejaVuSans-72" x="283.255859"/>
      <use xlink:href="#DejaVuSans-74" x="324.369141"/>
      <use xlink:href="#DejaVuSans-69" x="363.578125"/>
      <use xlink:href="#DejaVuSans-6f" x="391.361328"/>
      <use xlink:href="#DejaVuSans-6e" x="452.542969"/>
      <use xlink:href="#DejaVuSans-20" x="515.921875"/>
      <use xlink:href="#DejaVuSans-6f" x="547.708984"/>
      <use xlink:href="#DejaVuSans-66" x="608.890625"/>
      <use xlink:href="#DejaVuSans-20" x="644.095703"/>
      <use xlink:href="#DejaVuSans-70" x="675.882812"/>
      <use xlink:href="#DejaVuSans-6f" x="739.359375"/>
      <use xlink:href="#DejaVuSans-70" x="800.541016"/>
      <use xlink:href="#DejaVuSans-75" x="864.017578"/>
      <use xlink:href="#DejaVuSans-6c" x="927.396484"/>
      <use xlink:href="#DejaVuSans-61" x="955.179688"/>
      <use xlink:href="#DejaVuSans-74" x="1016.458984"/>
      <use xlink:href="#DejaVuSans-69" x="1055.667969"/>
      <use xlink:href="#DejaVuSans-6f" x="1083.451172"/>
      <use xlink:href="#DejaVuSans-6e" x="1144.632812"/>
     </g>
    </g>
   </g>
   <g id="line2d_14">
    <path d="M 69.144886 14.76 
L 125.131508 14.873118 
L 140.400587 15.093978 
L 150.579973 15.456397 
L 157.36623 15.885173 
L 164.152487 16.553164 
L 169.24218 17.257946 
L 172.635309 17.91189 
L 177.725002 19.182783 
L 181.118131 20.268305 
L 184.511259 21.588899 
L 187.904388 23.215488 
L 191.297516 25.06005 
L 192.994081 26.152645 
L 196.387209 28.783761 
L 199.780338 31.9676 
L 203.173466 35.560127 
L 204.870031 37.477607 
L 208.263159 41.977033 
L 211.656288 47.004552 
L 213.352852 49.733869 
L 215.049417 52.700782 
L 218.442545 59.318362 
L 226.925367 77.851553 
L 232.01506 89.753866 
L 235.408188 97.290725 
L 237.104753 100.665774 
L 242.194446 109.905871 
L 245.587574 115.187036 
L 247.284138 117.483967 
L 248.980703 119.508708 
L 250.677267 121.318661 
L 254.070396 124.306899 
L 255.76696 125.590532 
L 257.463524 126.724958 
L 260.856653 128.60919 
L 264.249781 130.283534 
L 267.64291 131.733097 
L 271.036039 132.829209 
L 274.429167 133.511107 
L 277.822296 133.831191 
L 281.215425 133.8704 
L 286.305117 133.690349 
L 291.39481 133.233089 
L 296.484503 132.325659 
L 301.574196 131.202184 
L 310.057018 128.793616 
L 315.146711 127.290804 
L 321.932968 125.089326 
L 332.112354 121.575626 
L 338.898611 119.248778 
L 345.684868 116.852611 
L 354.16769 114.128113 
L 360.953947 112.124472 
L 381.312719 106.659979 
L 386.402411 105.434715 
L 391.492104 104.415032 
L 396.581797 103.605962 
L 401.67149 103.067937 
L 406.761183 102.716965 
L 415.244005 102.375534 
L 430.513083 102.002894 
L 437.299341 102.295731 
L 450.871855 103.163341 
L 455.961548 103.494418 
L 466.140934 104.588579 
L 478.016884 106.432479 
L 483.106577 107.360358 
L 486.499705 108.030353 
L 503.465349 110.781505 
L 511.94817 112.520411 
L 518.734427 113.585201 
L 530.610377 114.776303 
L 542.486328 115.058225 
L 554.362278 115.136229 
L 561.148535 114.833264 
L 569.631356 114.2089 
L 576.417614 113.762102 
L 576.417614 113.762102 
" clip-path="url(#p379781fd2e)" style="fill: none; stroke: #1f77b4; stroke-width: 2; stroke-linecap: square"/>
   </g>
   <g id="line2d_15">
    <path d="M 69.144886 165.958488 
L 131.917766 165.843081 
L 148.883409 165.564711 
L 157.36623 165.213284 
L 165.849052 164.758426 
L 176.028438 163.565816 
L 182.814695 162.310141 
L 184.511259 161.729318 
L 187.904388 161.12697 
L 189.600952 160.724396 
L 191.297516 159.938017 
L 192.994081 158.972524 
L 194.690645 158.272367 
L 196.387209 157.239174 
L 203.173466 154.482539 
L 204.870031 152.815365 
L 206.566595 151.530516 
L 208.263159 150.394656 
L 209.959724 149.45919 
L 211.656288 147.96231 
L 213.352852 145.927481 
L 215.049417 143.503421 
L 216.745981 141.823599 
L 218.442545 138.900267 
L 221.835674 137.40398 
L 223.532238 134.981208 
L 225.228802 132.025087 
L 228.621931 127.222522 
L 230.318495 127.377513 
L 232.01506 124.927823 
L 233.711624 124.245199 
L 237.104753 126.093209 
L 238.801317 123.785825 
L 240.497881 121.718663 
L 242.194446 123.333262 
L 243.89101 123.422819 
L 245.587574 124.634365 
L 247.284138 126.511402 
L 248.980703 127.854571 
L 250.677267 130.121069 
L 252.373831 130.605844 
L 254.070396 131.570813 
L 255.76696 132.785633 
L 257.463524 134.708229 
L 259.160089 134.10635 
L 260.856653 134.096554 
L 264.249781 133.614436 
L 265.946346 134.303778 
L 267.64291 135.445318 
L 269.339474 135.887813 
L 271.036039 138.201056 
L 272.732603 138.963496 
L 274.429167 140.739755 
L 276.125732 142.0933 
L 277.822296 143.211281 
L 279.51886 144.181857 
L 281.215425 144.222249 
L 282.911989 144.11277 
L 284.608553 145.578197 
L 288.001682 145.455147 
L 289.698246 147.029422 
L 291.39481 148.427167 
L 293.091375 149.304368 
L 294.787939 149.270375 
L 296.484503 149.687903 
L 299.877632 151.19199 
L 301.574196 152.281613 
L 303.27076 153.025726 
L 306.663889 153.031709 
L 308.360453 152.724533 
L 310.057018 152.794829 
L 311.753582 153.596873 
L 313.450146 153.969838 
L 315.146711 154.110597 
L 316.843275 154.447458 
L 318.539839 155.134408 
L 320.236404 155.39054 
L 321.932968 156.039946 
L 323.629532 156.369009 
L 325.326096 156.396528 
L 330.415789 155.589392 
L 332.112354 156.177661 
L 338.898611 157.623934 
L 340.595175 157.5388 
L 342.29174 157.706098 
L 343.988304 157.439866 
L 345.684868 157.425685 
L 347.381432 157.626193 
L 349.077997 157.430511 
L 350.774561 157.467849 
L 352.471125 157.168347 
L 354.16769 157.576819 
L 355.864254 157.304207 
L 357.560818 157.634114 
L 359.257383 157.288893 
L 360.953947 157.28019 
L 362.650511 157.433878 
L 366.04364 157.937437 
L 367.740204 158.002348 
L 369.436768 157.849609 
L 372.829897 158.510531 
L 374.526461 158.155041 
L 376.223026 158.149746 
L 377.91959 157.941131 
L 381.312719 158.432225 
L 386.402411 158.023366 
L 388.098976 157.748922 
L 391.492104 157.511918 
L 393.188669 157.348935 
L 394.885233 156.989574 
L 398.278362 156.52066 
L 399.974926 156.148506 
L 401.67149 156.278867 
L 403.368054 155.921596 
L 406.761183 155.831933 
L 410.154312 156.01174 
L 411.850876 155.45133 
L 413.54744 155.424291 
L 415.244005 155.622967 
L 416.940569 155.531942 
L 420.333698 156.167801 
L 422.030262 155.894835 
L 423.726826 156.074614 
L 425.42339 155.989939 
L 430.513083 154.955698 
L 432.209648 155.079378 
L 433.906212 154.471166 
L 435.602776 154.411551 
L 437.299341 154.226699 
L 440.692469 154.745647 
L 442.389034 154.095995 
L 445.782162 154.697069 
L 447.478726 154.185857 
L 449.175291 154.424502 
L 450.871855 154.802196 
L 452.568419 154.337431 
L 455.961548 153.729083 
L 457.658112 153.156072 
L 461.051241 153.818995 
L 462.747805 153.653482 
L 464.444369 153.032693 
L 466.140934 152.559567 
L 467.837498 152.641706 
L 469.534062 152.309393 
L 471.230627 152.333382 
L 472.927191 152.013904 
L 474.623755 152.321987 
L 476.32032 151.601882 
L 478.016884 151.78699 
L 479.713448 151.287474 
L 481.410013 151.068072 
L 483.106577 150.590352 
L 486.499705 151.616473 
L 488.19627 151.424707 
L 491.589398 151.354016 
L 493.285963 150.776551 
L 494.982527 151.211294 
L 498.375656 151.426816 
L 500.07222 150.739049 
L 501.768784 150.208461 
L 503.465349 149.405634 
L 505.161913 148.798618 
L 506.858477 149.573576 
L 508.555041 149.510926 
L 510.251606 149.882984 
L 511.94817 150.060897 
L 515.341299 149.827104 
L 518.734427 151.189982 
L 520.430992 150.776358 
L 522.127556 150.554171 
L 523.82412 150.960292 
L 525.520684 150.862724 
L 527.217249 150.883025 
L 530.610377 152.377498 
L 532.306942 152.350229 
L 534.003506 152.016828 
L 535.70007 152.664689 
L 537.396635 152.781579 
L 539.093199 152.334587 
L 540.789763 152.972217 
L 542.486328 152.65849 
L 545.879456 151.74685 
L 549.272585 153.173438 
L 550.969149 153.557334 
L 552.665713 153.421716 
L 556.058842 153.74413 
L 557.755406 154.178353 
L 559.451971 154.476708 
L 561.148535 155.086224 
L 562.845099 154.833463 
L 564.541663 155.038382 
L 566.238228 154.656187 
L 567.934792 154.473441 
L 569.631356 154.806525 
L 571.327921 154.941105 
L 573.024485 154.823883 
L 574.721049 154.425743 
L 576.417614 154.79185 
L 576.417614 154.79185 
" clip-path="url(#p379781fd2e)" style="fill: none; stroke: #ff7f0e; stroke-width: 2; stroke-linecap: square"/>
   </g>
   <g id="line2d_16">
    <path d="M 69.144886 165.96 
L 152.276537 165.858422 
L 169.24218 165.622088 
L 179.421566 165.285411 
L 187.904388 164.771437 
L 194.690645 164.120171 
L 199.780338 163.440143 
L 204.870031 162.506747 
L 209.959724 161.308399 
L 215.049417 159.772083 
L 218.442545 158.558234 
L 221.835674 157.152733 
L 226.925367 154.639659 
L 230.318495 152.748312 
L 235.408188 149.506292 
L 240.497881 145.853976 
L 245.587574 142.036472 
L 259.160089 131.570142 
L 264.249781 128.043378 
L 269.339474 124.846736 
L 274.429167 121.91073 
L 279.51886 119.240301 
L 282.911989 117.64825 
L 288.001682 115.566521 
L 293.091375 113.800594 
L 296.484503 112.780219 
L 301.574196 111.504501 
L 306.663889 110.488953 
L 311.753582 109.777442 
L 316.843275 109.29677 
L 321.932968 109.021661 
L 327.022661 108.92943 
L 332.112354 109.044908 
L 338.898611 109.405794 
L 345.684868 109.978745 
L 354.16769 110.969327 
L 364.347075 112.402641 
L 379.616154 114.771709 
L 410.154312 119.615188 
L 420.333698 120.894188 
L 433.906212 122.259027 
L 442.389034 122.948296 
L 450.871855 123.465546 
L 466.140934 124.083113 
L 476.32032 124.289162 
L 486.499705 124.310537 
L 501.768784 123.974073 
L 515.341299 123.519772 
L 552.665713 122.002282 
L 566.238228 121.823742 
L 576.417614 121.935339 
L 576.417614 121.935339 
" clip-path="url(#p379781fd2e)" style="fill: none; stroke: #2ca02c; stroke-width: 2; stroke-linecap: square"/>
   </g>
   <g id="line2d_17">
    <path d="M 69.144886 165.96 
L 145.49028 165.866146 
L 167.545616 165.451855 
L 174.331873 165.162467 
L 176.028438 164.982196 
L 179.421566 164.779198 
L 181.118131 164.679954 
L 182.814695 164.408852 
L 184.511259 164.420865 
L 189.600952 163.334981 
L 192.994081 163.402843 
L 194.690645 163.048928 
L 196.387209 162.938454 
L 199.780338 161.778761 
L 203.173466 160.110941 
L 204.870031 160.243949 
L 206.566595 159.772698 
L 208.263159 159.019237 
L 209.959724 157.973516 
L 211.656288 157.444759 
L 213.352852 157.324659 
L 215.049417 157.394668 
L 216.745981 156.486919 
L 218.442545 156.741391 
L 221.835674 152.511585 
L 223.532238 152.254158 
L 225.228802 152.420064 
L 226.925367 151.971281 
L 228.621931 151.303009 
L 230.318495 148.175196 
L 232.01506 147.976512 
L 233.711624 146.019224 
L 235.408188 142.667975 
L 237.104753 139.71627 
L 238.801317 140.323585 
L 240.497881 140.694516 
L 242.194446 137.427819 
L 243.89101 136.057056 
L 245.587574 133.768017 
L 247.284138 131.087077 
L 248.980703 129.233097 
L 250.677267 126.675598 
L 252.373831 126.159419 
L 255.76696 124.260681 
L 257.463524 122.672545 
L 259.160089 123.768556 
L 260.856653 124.258739 
L 264.249781 125.754204 
L 265.946346 125.576848 
L 267.64291 125.002674 
L 269.339474 125.201596 
L 271.036039 123.556573 
L 272.732603 123.587653 
L 274.429167 122.633889 
L 276.125732 122.182464 
L 277.822296 122.016178 
L 279.51886 122.029445 
L 282.911989 124.07669 
L 284.608553 123.545909 
L 288.001682 125.59249 
L 289.698246 124.922901 
L 291.39481 124.481519 
L 293.091375 124.599849 
L 294.787939 125.638129 
L 296.484503 126.182911 
L 299.877632 126.573644 
L 301.574196 126.437714 
L 303.27076 126.669891 
L 306.663889 128.579442 
L 308.360453 129.78549 
L 310.057018 130.55773 
L 311.753582 130.566376 
L 313.450146 131.017877 
L 315.146711 131.68899 
L 316.843275 132.137671 
L 318.539839 132.22329 
L 320.236404 132.74972 
L 321.932968 132.865408 
L 323.629532 133.310418 
L 325.326096 134.045193 
L 327.022661 135.051429 
L 330.415789 136.902446 
L 332.112354 136.899763 
L 338.898611 137.837731 
L 340.595175 138.519235 
L 342.29174 138.915569 
L 343.988304 139.732578 
L 345.684868 140.252763 
L 347.381432 140.533992 
L 349.077997 141.204512 
L 350.774561 141.604919 
L 352.471125 142.324485 
L 354.16769 142.292545 
L 355.864254 142.955863 
L 357.560818 142.976067 
L 359.257383 143.68086 
L 360.953947 144.003503 
L 362.650511 144.147244 
L 366.04364 144.243597 
L 367.740204 144.485657 
L 369.436768 144.935643 
L 372.829897 144.827169 
L 374.526461 145.481168 
L 376.223026 145.739373 
L 377.91959 146.187489 
L 381.312719 146.121624 
L 386.402411 147.15204 
L 388.098976 147.586354 
L 393.188669 148.310547 
L 394.885233 148.73739 
L 398.278362 149.242824 
L 399.974926 149.593106 
L 401.67149 149.404346 
L 403.368054 149.715568 
L 405.064619 149.735276 
L 408.457747 149.490937 
L 410.154312 149.292708 
L 411.850876 149.787454 
L 413.54744 149.696536 
L 415.244005 149.380675 
L 416.940569 149.37683 
L 418.637133 148.913206 
L 420.333698 148.576387 
L 422.030262 148.813136 
L 423.726826 148.571315 
L 425.42339 148.612512 
L 430.513083 149.412964 
L 432.209648 149.146483 
L 433.906212 149.629158 
L 435.602776 149.509923 
L 437.299341 149.517609 
L 440.692469 148.654792 
L 442.389034 149.181135 
L 445.782162 148.252741 
L 447.478726 148.655759 
L 450.871855 147.765681 
L 452.568419 148.149524 
L 455.961548 148.496696 
L 457.658112 148.90449 
L 461.051241 147.860372 
L 462.747805 147.896121 
L 464.444369 148.378552 
L 466.140934 148.663181 
L 467.837498 148.358822 
L 469.534062 148.488229 
L 471.230627 148.241845 
L 472.927191 148.353215 
L 474.623755 147.819513 
L 476.32032 148.354468 
L 478.016884 147.92992 
L 479.713448 148.220262 
L 481.410013 148.198057 
L 483.106577 148.428779 
L 486.499705 146.915355 
L 488.19627 146.952069 
L 491.589398 146.706394 
L 493.285963 147.137089 
L 494.982527 146.515838 
L 498.375656 146.042669 
L 500.07222 146.630565 
L 501.768784 147.010863 
L 503.465349 147.629297 
L 505.161913 147.997174 
L 506.858477 146.948333 
L 508.555041 146.819578 
L 510.251606 146.264568 
L 511.94817 145.947526 
L 515.341299 145.954661 
L 518.734427 144.425084 
L 520.430992 144.851062 
L 522.127556 145.05543 
L 523.82412 144.618259 
L 525.520684 144.722266 
L 527.217249 144.703843 
L 530.610377 143.284133 
L 532.306942 143.43895 
L 534.003506 143.894552 
L 535.70007 143.339661 
L 537.396635 143.364886 
L 539.093199 143.958969 
L 540.789763 143.428857 
L 544.182892 144.461274 
L 545.879456 145.021108 
L 549.272585 143.747106 
L 550.969149 143.519673 
L 552.665713 143.836249 
L 556.058842 143.851007 
L 557.755406 143.593081 
L 559.451971 143.498292 
L 561.148535 143.10768 
L 562.845099 143.618427 
L 564.541663 143.640948 
L 566.238228 144.257383 
L 567.934792 144.634356 
L 569.631356 144.472918 
L 571.327921 144.529297 
L 573.024485 144.840138 
L 574.721049 145.414318 
L 576.417614 145.184913 
L 576.417614 145.184913 
" clip-path="url(#p379781fd2e)" style="fill: none; stroke: #d62728; stroke-width: 2; stroke-linecap: square"/>
   </g>
   <g id="line2d_18">
    <path d="M 69.144886 165.96 
L 184.511259 165.849635 
L 203.173466 165.595321 
L 215.049417 165.227535 
L 225.228802 164.708204 
L 235.408188 163.953669 
L 247.284138 162.793371 
L 293.091375 157.933534 
L 310.057018 156.469034 
L 328.719225 155.118619 
L 349.077997 153.901549 
L 374.526461 152.642257 
L 408.457747 151.208881 
L 459.354677 149.017754 
L 496.679091 147.205679 
L 544.182892 144.624532 
L 576.417614 142.924284 
L 576.417614 142.924284 
" clip-path="url(#p379781fd2e)" style="fill: none; stroke: #808080; stroke-width: 2; stroke-linecap: square"/>
   </g>
   <g id="line2d_19">
    <path d="M 69.144886 156.00208 
L 70.841451 162.578493 
L 72.538015 158.040022 
L 74.234579 163.029285 
L 75.931144 156.470872 
L 77.627708 157.596489 
L 79.324272 152.441921 
L 81.020837 160.470983 
L 82.717401 162.561347 
L 84.413965 153.094643 
L 86.110529 152.536763 
L 87.807094 161.789237 
L 89.503658 163.482249 
L 91.200222 153.477437 
L 92.896787 161.761645 
L 94.593351 154.031159 
L 96.289915 151.76409 
L 97.98648 155.143216 
L 99.683044 161.256612 
L 101.379608 158.11898 
L 103.076172 161.499137 
L 104.772737 150.88265 
L 106.469301 158.594303 
L 108.165865 164.742557 
L 109.86243 162.989658 
L 111.558994 153.408489 
L 113.255558 162.771288 
L 114.952123 153.374146 
L 116.648687 161.817381 
L 118.345251 151.812283 
L 120.041816 156.774479 
L 121.73838 163.896491 
L 123.434944 156.190301 
L 125.131508 155.318986 
L 126.828073 157.556494 
L 128.524637 157.077867 
L 130.221201 160.082873 
L 131.917766 163.461026 
L 133.61433 162.552216 
L 135.310894 153.760515 
L 137.007459 161.024493 
L 138.704023 163.778826 
L 140.400587 155.062845 
L 142.097151 165.107945 
L 143.793716 153.359602 
L 145.49028 153.011201 
L 147.186844 156.514564 
L 148.883409 158.645033 
L 150.579973 162.752266 
L 152.276537 161.155815 
L 153.973102 153.72899 
L 155.669666 162.470948 
L 157.36623 153.335625 
L 159.062795 155.616635 
L 160.759359 151.104439 
L 162.455923 153.184048 
L 164.152487 159.001633 
L 165.849052 162.919629 
L 167.545616 158.762415 
L 169.24218 165.754033 
L 170.938745 156.763614 
L 172.635309 152.392447 
L 174.331873 151.867964 
L 176.028438 160.761312 
L 177.725002 155.593128 
L 179.421566 159.012114 
L 181.118131 151.964747 
L 182.814695 164.337107 
L 184.511259 150.841672 
L 186.207823 150.951916 
L 187.904388 153.332066 
L 189.600952 163.625511 
L 191.297516 165.348294 
L 192.994081 156.475617 
L 194.690645 161.897756 
L 196.387209 153.748636 
L 198.083774 155.114523 
L 199.780338 151.157714 
L 201.476902 152.344689 
L 203.173466 165.16943 
L 204.870031 158.369453 
L 208.263159 153.576935 
L 209.959724 158.699838 
L 211.656288 162.590271 
L 213.352852 164.337541 
L 215.049417 157.944932 
L 216.745981 165.59579 
L 218.442545 152.464321 
L 220.13911 152.434926 
L 221.835674 162.24708 
L 223.532238 164.5622 
L 225.228802 161.969532 
L 226.925367 161.269579 
L 228.621931 151.863491 
L 230.318495 162.881367 
L 232.01506 156.560639 
L 233.711624 151.427716 
L 235.408188 152.166009 
L 237.104753 164.978729 
L 238.801317 164.256792 
L 240.497881 151.946061 
L 242.194446 157.75794 
L 243.89101 154.315801 
L 245.587574 152.26417 
L 247.284138 154.443031 
L 248.980703 151.002758 
L 250.677267 158.312939 
L 252.373831 156.542868 
L 254.070396 155.614521 
L 255.76696 152.449766 
L 257.463524 164.351425 
L 259.160089 161.677787 
L 260.856653 162.794611 
L 262.553217 163.289729 
L 264.249781 158.928764 
L 265.946346 156.852349 
L 267.64291 160.248475 
L 269.339474 150.926172 
L 271.036039 158.507304 
L 272.732603 152.786674 
L 274.429167 154.681825 
L 276.125732 155.754263 
L 277.822296 156.409646 
L 279.51886 162.59014 
L 281.215425 163.630017 
L 282.911989 152.720886 
L 284.608553 163.314682 
L 286.305117 163.284569 
L 288.001682 151.199464 
L 289.698246 151.618206 
L 291.39481 155.176151 
L 293.091375 162.99505 
L 294.787939 158.840594 
L 296.484503 155.917685 
L 298.181068 154.820449 
L 299.877632 151.260869 
L 301.574196 154.109414 
L 303.27076 162.425069 
L 304.967325 161.892134 
L 306.663889 165.638251 
L 308.360453 161.144583 
L 310.057018 152.641711 
L 311.753582 157.197315 
L 313.450146 159.882039 
L 315.146711 157.254156 
L 316.843275 152.425551 
L 318.539839 157.763005 
L 320.236404 151.937003 
L 321.932968 156.096729 
L 325.326096 165.21767 
L 327.022661 163.586709 
L 328.719225 165.870113 
L 330.415789 151.940312 
L 332.112354 154.966344 
L 333.808918 154.949471 
L 335.505482 154.517427 
L 337.202047 152.813961 
L 338.898611 161.488363 
L 340.595175 156.817179 
L 342.29174 164.577726 
L 343.988304 159.831823 
L 345.684868 155.912576 
L 347.381432 162.902181 
L 349.077997 158.576315 
L 350.774561 164.461691 
L 352.471125 151.996498 
L 354.16769 163.83697 
L 355.864254 153.052152 
L 357.560818 164.985213 
L 359.257383 158.765881 
L 360.953947 155.842102 
L 362.650511 153.149606 
L 364.347075 154.548882 
L 366.04364 157.01555 
L 367.740204 161.045107 
L 369.436768 152.107614 
L 371.133333 151.315382 
L 372.829897 165.079433 
L 374.526461 157.870118 
L 376.223026 161.717103 
L 377.91959 153.537461 
L 379.616154 152.160234 
L 381.312719 159.442474 
L 383.009283 160.643329 
L 384.705847 160.01094 
L 386.402411 162.409848 
L 388.098976 158.733076 
L 389.79554 159.751292 
L 391.492104 159.894461 
L 393.188669 163.228012 
L 394.885233 159.929817 
L 396.581797 161.556443 
L 398.278362 162.734173 
L 399.974926 154.727672 
L 401.67149 162.28794 
L 403.368054 158.182462 
L 405.064619 156.505061 
L 406.761183 155.741743 
L 408.457747 154.821055 
L 410.154312 165.1199 
L 411.850876 156.972909 
L 413.54744 153.724702 
L 415.244005 157.900972 
L 416.940569 151.302913 
L 418.637133 152.449898 
L 420.333698 160.757773 
L 422.030262 153.827007 
L 423.726826 157.813189 
L 425.42339 161.412338 
L 427.119955 160.148006 
L 428.816519 163.121869 
L 430.513083 154.795627 
L 432.209648 164.957078 
L 433.906212 157.298221 
L 435.602776 158.953181 
L 437.299341 153.466422 
L 438.995905 152.902269 
L 440.692469 165.356935 
L 442.389034 153.382882 
L 444.085598 152.113741 
L 445.782162 163.525813 
L 447.478726 153.615225 
L 449.175291 151.754854 
L 450.871855 163.025221 
L 452.568419 160.260866 
L 454.264984 161.061513 
L 455.961548 163.877021 
L 457.658112 153.086514 
L 459.354677 152.676497 
L 461.051241 158.966712 
L 462.747805 164.563331 
L 464.444369 162.503064 
L 466.140934 156.085349 
L 467.837498 160.834925 
L 469.534062 156.844539 
L 471.230627 160.707913 
L 472.927191 153.874316 
L 474.623755 165.253974 
L 476.32032 155.37103 
L 478.016884 162.709902 
L 479.713448 159.69847 
L 481.410013 162.351304 
L 483.106577 152.46198 
L 484.803141 152.473766 
L 486.499705 159.722 
L 488.19627 158.201693 
L 489.892834 158.095288 
L 491.589398 163.841214 
L 493.285963 153.587727 
L 494.982527 157.206179 
L 496.679091 156.586946 
L 498.375656 165.238226 
L 500.07222 163.401325 
L 501.768784 165.893885 
L 503.465349 163.794998 
L 505.161913 151.496448 
L 506.858477 158.982915 
L 508.555041 155.052248 
L 510.251606 156.86562 
L 511.94817 159.643091 
L 513.644734 159.824831 
L 515.341299 152.84747 
L 517.037863 151.576063 
L 518.734427 163.045769 
L 520.430992 161.058313 
L 522.127556 154.898777 
L 523.82412 159.909093 
L 525.520684 158.756422 
L 527.217249 151.624118 
L 528.913813 151.019702 
L 530.610377 159.353254 
L 532.306942 162.764909 
L 534.003506 152.046442 
L 535.70007 157.757592 
L 537.396635 164.221133 
L 539.093199 152.020527 
L 540.789763 162.758047 
L 542.486328 164.094178 
L 544.182892 164.313508 
L 545.879456 151.417594 
L 547.57602 151.26172 
L 549.272585 154.602552 
L 550.969149 160.791546 
L 552.665713 156.675047 
L 554.362278 157.663975 
L 556.058842 153.736975 
L 557.755406 155.270887 
L 559.451971 151.056847 
L 561.148535 162.575769 
L 562.845099 156.247062 
L 564.541663 164.297392 
L 566.238228 161.422639 
L 567.934792 154.571273 
L 569.631356 157.111781 
L 571.327921 160.520972 
L 573.024485 164.293008 
L 574.721049 154.064808 
L 576.417614 162.104643 
L 576.417614 162.104643 
" clip-path="url(#p379781fd2e)" style="fill: none; stroke: #9467bd; stroke-opacity: 0.5; stroke-width: 1.5; stroke-linecap: square"/>
   </g>
   <g id="patch_3">
    <path d="M 43.78125 173.52 
L 43.78125 7.2 
" style="fill: none; stroke: #000000; stroke-width: 0.8; stroke-linejoin: miter; stroke-linecap: square"/>
   </g>
   <g id="patch_4">
    <path d="M 601.78125 173.52 
L 601.78125 7.2 
" style="fill: none; stroke: #000000; stroke-width: 0.8; stroke-linejoin: miter; stroke-linecap: square"/>
   </g>
   <g id="patch_5">
    <path d="M 43.78125 173.52 
L 601.78125 173.52 
" style="fill: none; stroke: #000000; stroke-width: 0.8; stroke-linejoin: miter; stroke-linecap: square"/>
   </g>
   <g id="patch_6">
    <path d="M 43.78125 7.2 
L 601.78125 7.2 
" style="fill: none; stroke: #000000; stroke-width: 0.8; stroke-linejoin: miter; stroke-linecap: square"/>
   </g>
   <g id="legend_1">
    <g id="patch_7">
     <path d="M 482.48125 103.3125 
L 594.78125 103.3125 
Q 596.78125 103.3125 596.78125 101.3125 
L 596.78125 14.2 
Q 596.78125 12.2 594.78125 12.2 
L 482.48125 12.2 
Q 480.48125 12.2 480.48125 14.2 
L 480.48125 101.3125 
Q 480.48125 103.3125 482.48125 103.3125 
z
" style="fill: #ffffff; opacity: 0.8; stroke: #cccccc; stroke-linejoin: miter"/>
    </g>
    <g id="line2d_20">
     <path d="M 484.48125 20.3 
L 494.48125 20.3 
L 504.48125 20.3 
" style="fill: none; stroke: #1f77b4; stroke-width: 2; stroke-linecap: square"/>
    </g>
    <g id="text_16">
     <!-- $S$ - Susceptible -->
     <g transform="translate(512.48125 23.8) scale(0.1 -0.1)">
      <defs>
       <path id="DejaVuSans-Oblique-53" d="M 3859 4513 
L 3738 3897 
Q 3422 4066 3111 4152 
Q 2800 4238 2509 4238 
Q 1944 4238 1609 3991 
Q 1275 3744 1275 3334 
Q 1275 3109 1398 2989 
Q 1522 2869 2034 2731 
L 2413 2638 
Q 3053 2472 3303 2217 
Q 3553 1963 3553 1503 
Q 3553 797 2998 353 
Q 2444 -91 1538 -91 
Q 1166 -91 791 -17 
Q 416 56 38 206 
L 166 856 
Q 513 641 861 531 
Q 1209 422 1556 422 
Q 2147 422 2503 684 
Q 2859 947 2859 1369 
Q 2859 1650 2717 1795 
Q 2575 1941 2106 2059 
L 1728 2156 
Q 1081 2325 845 2545 
Q 609 2766 609 3163 
Q 609 3859 1145 4304 
Q 1681 4750 2541 4750 
Q 2875 4750 3203 4690 
Q 3531 4631 3859 4513 
z
" transform="scale(0.015625)"/>
       <path id="DejaVuSans-2d" d="M 313 2009 
L 1997 2009 
L 1997 1497 
L 313 1497 
L 313 2009 
z
" transform="scale(0.015625)"/>
       <path id="DejaVuSans-53" d="M 3425 4513 
L 3425 3897 
Q 3066 4069 2747 4153 
Q 2428 4238 2131 4238 
Q 1616 4238 1336 4038 
Q 1056 3838 1056 3469 
Q 1056 3159 1242 3001 
Q 1428 2844 1947 2747 
L 2328 2669 
Q 3034 2534 3370 2195 
Q 3706 1856 3706 1288 
Q 3706 609 3251 259 
Q 2797 -91 1919 -91 
Q 1588 -91 1214 -16 
Q 841 59 441 206 
L 441 856 
Q 825 641 1194 531 
Q 1563 422 1919 422 
Q 2459 422 2753 634 
Q 3047 847 3047 1241 
Q 3047 1584 2836 1778 
Q 2625 1972 2144 2069 
L 1759 2144 
Q 1053 2284 737 2584 
Q 422 2884 422 3419 
Q 422 4038 858 4394 
Q 1294 4750 2059 4750 
Q 2388 4750 2728 4690 
Q 3069 4631 3425 4513 
z
" transform="scale(0.015625)"/>
       <path id="DejaVuSans-63" d="M 3122 3366 
L 3122 2828 
Q 2878 2963 2633 3030 
Q 2388 3097 2138 3097 
Q 1578 3097 1268 2742 
Q 959 2388 959 1747 
Q 959 1106 1268 751 
Q 1578 397 2138 397 
Q 2388 397 2633 464 
Q 2878 531 3122 666 
L 3122 134 
Q 2881 22 2623 -34 
Q 2366 -91 2075 -91 
Q 1284 -91 818 406 
Q 353 903 353 1747 
Q 353 2603 823 3093 
Q 1294 3584 2113 3584 
Q 2378 3584 2631 3529 
Q 2884 3475 3122 3366 
z
" transform="scale(0.015625)"/>
       <path id="DejaVuSans-62" d="M 3116 1747 
Q 3116 2381 2855 2742 
Q 2594 3103 2138 3103 
Q 1681 3103 1420 2742 
Q 1159 2381 1159 1747 
Q 1159 1113 1420 752 
Q 1681 391 2138 391 
Q 2594 391 2855 752 
Q 3116 1113 3116 1747 
z
M 1159 2969 
Q 1341 3281 1617 3432 
Q 1894 3584 2278 3584 
Q 2916 3584 3314 3078 
Q 3713 2572 3713 1747 
Q 3713 922 3314 415 
Q 2916 -91 2278 -91 
Q 1894 -91 1617 61 
Q 1341 213 1159 525 
L 1159 0 
L 581 0 
L 581 4863 
L 1159 4863 
L 1159 2969 
z
" transform="scale(0.015625)"/>
      </defs>
      <use xlink:href="#DejaVuSans-Oblique-53" transform="translate(0 0.015625)"/>
      <use xlink:href="#DejaVuSans-20" transform="translate(63.476562 0.015625)"/>
      <use xlink:href="#DejaVuSans-2d" transform="translate(95.263672 0.015625)"/>
      <use xlink:href="#DejaVuSans-20" transform="translate(131.347656 0.015625)"/>
      <use xlink:href="#DejaVuSans-53" transform="translate(163.134766 0.015625)"/>
      <use xlink:href="#DejaVuSans-75" transform="translate(226.611328 0.015625)"/>
      <use xlink:href="#DejaVuSans-73" transform="translate(289.990234 0.015625)"/>
      <use xlink:href="#DejaVuSans-63" transform="translate(342.089844 0.015625)"/>
      <use xlink:href="#DejaVuSans-65" transform="translate(397.070312 0.015625)"/>
      <use xlink:href="#DejaVuSans-70" transform="translate(458.59375 0.015625)"/>
      <use xlink:href="#DejaVuSans-74" transform="translate(522.070312 0.015625)"/>
      <use xlink:href="#DejaVuSans-69" transform="translate(561.279297 0.015625)"/>
      <use xlink:href="#DejaVuSans-62" transform="translate(589.0625 0.015625)"/>
      <use xlink:href="#DejaVuSans-6c" transform="translate(652.539062 0.015625)"/>
      <use xlink:href="#DejaVuSans-65" transform="translate(680.322266 0.015625)"/>
     </g>
    </g>
    <g id="line2d_21">
     <path d="M 484.48125 34.998438 
L 494.48125 34.998438 
L 504.48125 34.998438 
" style="fill: none; stroke: #ff7f0e; stroke-width: 2; stroke-linecap: square"/>
    </g>
    <g id="text_17">
     <!-- $I$ - Infectious -->
     <g transform="translate(512.48125 38.498438) scale(0.1 -0.1)">
      <defs>
       <path id="DejaVuSans-Oblique-49" d="M 1081 4666 
L 1716 4666 
L 806 0 
L 172 0 
L 1081 4666 
z
" transform="scale(0.015625)"/>
       <path id="DejaVuSans-49" d="M 628 4666 
L 1259 4666 
L 1259 0 
L 628 0 
L 628 4666 
z
" transform="scale(0.015625)"/>
      </defs>
      <use xlink:href="#DejaVuSans-Oblique-49" transform="translate(0 0.015625)"/>
      <use xlink:href="#DejaVuSans-20" transform="translate(29.492188 0.015625)"/>
      <use xlink:href="#DejaVuSans-2d" transform="translate(61.279297 0.015625)"/>
      <use xlink:href="#DejaVuSans-20" transform="translate(97.363281 0.015625)"/>
      <use xlink:href="#DejaVuSans-49" transform="translate(129.150391 0.015625)"/>
      <use xlink:href="#DejaVuSans-6e" transform="translate(158.642578 0.015625)"/>
      <use xlink:href="#DejaVuSans-66" transform="translate(222.021484 0.015625)"/>
      <use xlink:href="#DejaVuSans-65" transform="translate(257.226562 0.015625)"/>
      <use xlink:href="#DejaVuSans-63" transform="translate(318.75 0.015625)"/>
      <use xlink:href="#DejaVuSans-74" transform="translate(373.730469 0.015625)"/>
      <use xlink:href="#DejaVuSans-69" transform="translate(412.939453 0.015625)"/>
      <use xlink:href="#DejaVuSans-6f" transform="translate(440.722656 0.015625)"/>
      <use xlink:href="#DejaVuSans-75" transform="translate(501.904297 0.015625)"/>
      <use xlink:href="#DejaVuSans-73" transform="translate(565.283203 0.015625)"/>
     </g>
    </g>
    <g id="line2d_22">
     <path d="M 484.48125 49.676563 
L 494.48125 49.676563 
L 504.48125 49.676563 
" style="fill: none; stroke: #2ca02c; stroke-width: 2; stroke-linecap: square"/>
    </g>
    <g id="text_18">
     <!-- $R$ - Recovered -->
     <g transform="translate(512.48125 53.176563) scale(0.1 -0.1)">
      <defs>
       <path id="DejaVuSans-Oblique-52" d="M 1613 4147 
L 1294 2491 
L 2106 2491 
Q 2584 2491 2879 2755 
Q 3175 3019 3175 3444 
Q 3175 3784 2976 3965 
Q 2778 4147 2406 4147 
L 1613 4147 
z
M 2772 2241 
Q 2972 2194 3105 2009 
Q 3238 1825 3413 1275 
L 3809 0 
L 3144 0 
L 2778 1197 
Q 2638 1659 2453 1815 
Q 2269 1972 1888 1972 
L 1191 1972 
L 806 0 
L 172 0 
L 1081 4666 
L 2503 4666 
Q 3150 4666 3495 4373 
Q 3841 4081 3841 3531 
Q 3841 3044 3547 2687 
Q 3253 2331 2772 2241 
z
" transform="scale(0.015625)"/>
       <path id="DejaVuSans-52" d="M 2841 2188 
Q 3044 2119 3236 1894 
Q 3428 1669 3622 1275 
L 4263 0 
L 3584 0 
L 2988 1197 
Q 2756 1666 2539 1819 
Q 2322 1972 1947 1972 
L 1259 1972 
L 1259 0 
L 628 0 
L 628 4666 
L 2053 4666 
Q 2853 4666 3247 4331 
Q 3641 3997 3641 3322 
Q 3641 2881 3436 2590 
Q 3231 2300 2841 2188 
z
M 1259 4147 
L 1259 2491 
L 2053 2491 
Q 2509 2491 2742 2702 
Q 2975 2913 2975 3322 
Q 2975 3731 2742 3939 
Q 2509 4147 2053 4147 
L 1259 4147 
z
" transform="scale(0.015625)"/>
       <path id="DejaVuSans-76" d="M 191 3500 
L 800 3500 
L 1894 563 
L 2988 3500 
L 3597 3500 
L 2284 0 
L 1503 0 
L 191 3500 
z
" transform="scale(0.015625)"/>
      </defs>
      <use xlink:href="#DejaVuSans-Oblique-52" transform="translate(0 0.015625)"/>
      <use xlink:href="#DejaVuSans-20" transform="translate(69.482422 0.015625)"/>
      <use xlink:href="#DejaVuSans-2d" transform="translate(101.269531 0.015625)"/>
      <use xlink:href="#DejaVuSans-20" transform="translate(137.353516 0.015625)"/>
      <use xlink:href="#DejaVuSans-52" transform="translate(169.140625 0.015625)"/>
      <use xlink:href="#DejaVuSans-65" transform="translate(238.623047 0.015625)"/>
      <use xlink:href="#DejaVuSans-63" transform="translate(300.146484 0.015625)"/>
      <use xlink:href="#DejaVuSans-6f" transform="translate(355.126953 0.015625)"/>
      <use xlink:href="#DejaVuSans-76" transform="translate(416.308594 0.015625)"/>
      <use xlink:href="#DejaVuSans-65" transform="translate(475.488281 0.015625)"/>
      <use xlink:href="#DejaVuSans-72" transform="translate(537.011719 0.015625)"/>
      <use xlink:href="#DejaVuSans-65" transform="translate(578.125 0.015625)"/>
      <use xlink:href="#DejaVuSans-64" transform="translate(639.648438 0.015625)"/>
     </g>
    </g>
    <g id="line2d_23">
     <path d="M 484.48125 64.354688 
L 494.48125 64.354688 
L 504.48125 64.354688 
" style="fill: none; stroke: #d62728; stroke-width: 2; stroke-linecap: square"/>
    </g>
    <g id="text_19">
     <!-- $Q$ - Quarantined -->
     <g transform="translate(512.48125 67.854688) scale(0.1 -0.1)">
      <defs>
       <path id="DejaVuSans-Oblique-51" d="M 2309 -84 
Q 2275 -88 2237 -89 
Q 2200 -91 2125 -91 
Q 1250 -91 756 411 
Q 263 913 263 1797 
Q 263 2319 452 2844 
Q 641 3369 978 3788 
Q 1369 4269 1858 4509 
Q 2347 4750 2938 4750 
Q 3794 4750 4287 4245 
Q 4781 3741 4781 2869 
Q 4781 1928 4265 1147 
Q 3750 366 2919 44 
L 3553 -825 
L 2847 -825 
L 2309 -84 
z
M 2919 4238 
Q 2400 4238 2003 3986 
Q 1606 3734 1313 3219 
Q 1125 2891 1026 2522 
Q 928 2153 928 1778 
Q 928 1128 1239 775 
Q 1550 422 2119 422 
Q 2631 422 3032 676 
Q 3434 931 3719 1434 
Q 3909 1772 4009 2142 
Q 4109 2513 4109 2881 
Q 4109 3528 3796 3883 
Q 3484 4238 2919 4238 
z
" transform="scale(0.015625)"/>
       <path id="DejaVuSans-51" d="M 2522 4238 
Q 1834 4238 1429 3725 
Q 1025 3213 1025 2328 
Q 1025 1447 1429 934 
Q 1834 422 2522 422 
Q 3209 422 3611 934 
Q 4013 1447 4013 2328 
Q 4013 3213 3611 3725 
Q 3209 4238 2522 4238 
z
M 3406 84 
L 4238 -825 
L 3475 -825 
L 2784 -78 
Q 2681 -84 2626 -87 
Q 2572 -91 2522 -91 
Q 1538 -91 948 567 
Q 359 1225 359 2328 
Q 359 3434 948 4092 
Q 1538 4750 2522 4750 
Q 3503 4750 4090 4092 
Q 4678 3434 4678 2328 
Q 4678 1516 4351 937 
Q 4025 359 3406 84 
z
" transform="scale(0.015625)"/>
      </defs>
      <use xlink:href="#DejaVuSans-Oblique-51" transform="translate(0 0.015625)"/>
      <use xlink:href="#DejaVuSans-20" transform="translate(78.710938 0.015625)"/>
      <use xlink:href="#DejaVuSans-2d" transform="translate(110.498047 0.015625)"/>
      <use xlink:href="#DejaVuSans-20" transform="translate(146.582031 0.015625)"/>
      <use xlink:href="#DejaVuSans-51" transform="translate(178.369141 0.015625)"/>
      <use xlink:href="#DejaVuSans-75" transform="translate(257.080078 0.015625)"/>
      <use xlink:href="#DejaVuSans-61" transform="translate(320.458984 0.015625)"/>
      <use xlink:href="#DejaVuSans-72" transform="translate(381.738281 0.015625)"/>
      <use xlink:href="#DejaVuSans-61" transform="translate(422.851562 0.015625)"/>
      <use xlink:href="#DejaVuSans-6e" transform="translate(484.130859 0.015625)"/>
      <use xlink:href="#DejaVuSans-74" transform="translate(547.509766 0.015625)"/>
      <use xlink:href="#DejaVuSans-69" transform="translate(586.71875 0.015625)"/>
      <use xlink:href="#DejaVuSans-6e" transform="translate(614.501953 0.015625)"/>
      <use xlink:href="#DejaVuSans-65" transform="translate(677.880859 0.015625)"/>
      <use xlink:href="#DejaVuSans-64" transform="translate(739.404297 0.015625)"/>
     </g>
    </g>
    <g id="line2d_24">
     <path d="M 484.48125 79.032813 
L 494.48125 79.032813 
L 504.48125 79.032813 
" style="fill: none; stroke: #808080; stroke-width: 2; stroke-linecap: square"/>
    </g>
    <g id="text_20">
     <!-- $D$ - Deceased -->
     <g transform="translate(512.48125 82.532813) scale(0.1 -0.1)">
      <defs>
       <path id="DejaVuSans-Oblique-44" d="M 1081 4666 
L 2438 4666 
Q 3519 4666 4070 4208 
Q 4622 3750 4622 2847 
Q 4622 2250 4412 1698 
Q 4203 1147 3834 769 
Q 3463 381 2891 190 
Q 2319 0 1538 0 
L 172 0 
L 1081 4666 
z
M 1613 4147 
L 909 519 
L 1734 519 
Q 2794 519 3375 1128 
Q 3956 1738 3956 2847 
Q 3956 3519 3581 3833 
Q 3206 4147 2406 4147 
L 1613 4147 
z
" transform="scale(0.015625)"/>
       <path id="DejaVuSans-44" d="M 1259 4147 
L 1259 519 
L 2022 519 
Q 2988 519 3436 956 
Q 3884 1394 3884 2338 
Q 3884 3275 3436 3711 
Q 2988 4147 2022 4147 
L 1259 4147 
z
M 628 4666 
L 1925 4666 
Q 3281 4666 3915 4102 
Q 4550 3538 4550 2338 
Q 4550 1131 3912 565 
Q 3275 0 1925 0 
L 628 0 
L 628 4666 
z
" transform="scale(0.015625)"/>
      </defs>
      <use xlink:href="#DejaVuSans-Oblique-44" transform="translate(0 0.015625)"/>
      <use xlink:href="#DejaVuSans-20" transform="translate(77.001953 0.015625)"/>
      <use xlink:href="#DejaVuSans-2d" transform="translate(108.789062 0.015625)"/>
      <use xlink:href="#DejaVuSans-20" transform="translate(144.873047 0.015625)"/>
      <use xlink:href="#DejaVuSans-44" transform="translate(176.660156 0.015625)"/>
      <use xlink:href="#DejaVuSans-65" transform="translate(253.662109 0.015625)"/>
      <use xlink:href="#DejaVuSans-63" transform="translate(315.185547 0.015625)"/>
      <use xlink:href="#DejaVuSans-65" transform="translate(370.166016 0.015625)"/>
      <use xlink:href="#DejaVuSans-61" transform="translate(431.689453 0.015625)"/>
      <use xlink:href="#DejaVuSans-73" transform="translate(492.96875 0.015625)"/>
      <use xlink:href="#DejaVuSans-65" transform="translate(545.068359 0.015625)"/>
      <use xlink:href="#DejaVuSans-64" transform="translate(606.591797 0.015625)"/>
     </g>
    </g>
    <g id="line2d_25">
     <path d="M 484.48125 93.7125 
L 494.48125 93.7125 
L 504.48125 93.7125 
" style="fill: none; stroke: #9467bd; stroke-opacity: 0.5; stroke-width: 1.5; stroke-linecap: square"/>
    </g>
    <g id="text_21">
     <!-- $u$ - Testing Rate -->
     <g transform="translate(512.48125 97.2125) scale(0.1 -0.1)">
      <defs>
       <path id="DejaVuSans-Oblique-75" d="M 428 1388 
L 838 3500 
L 1416 3500 
L 1006 1409 
Q 975 1256 961 1147 
Q 947 1038 947 966 
Q 947 700 1109 554 
Q 1272 409 1569 409 
Q 2031 409 2368 721 
Q 2706 1034 2809 1563 
L 3194 3500 
L 3769 3500 
L 3091 0 
L 2516 0 
L 2631 550 
Q 2388 244 2052 76 
Q 1716 -91 1338 -91 
Q 878 -91 622 161 
Q 366 413 366 863 
Q 366 956 381 1097 
Q 397 1238 428 1388 
z
" transform="scale(0.015625)"/>
       <path id="DejaVuSans-54" d="M -19 4666 
L 3928 4666 
L 3928 4134 
L 2272 4134 
L 2272 0 
L 1638 0 
L 1638 4134 
L -19 4134 
L -19 4666 
z
" transform="scale(0.015625)"/>
       <path id="DejaVuSans-67" d="M 2906 1791 
Q 2906 2416 2648 2759 
Q 2391 3103 1925 3103 
Q 1463 3103 1205 2759 
Q 947 2416 947 1791 
Q 947 1169 1205 825 
Q 1463 481 1925 481 
Q 2391 481 2648 825 
Q 2906 1169 2906 1791 
z
M 3481 434 
Q 3481 -459 3084 -895 
Q 2688 -1331 1869 -1331 
Q 1566 -1331 1297 -1286 
Q 1028 -1241 775 -1147 
L 775 -588 
Q 1028 -725 1275 -790 
Q 1522 -856 1778 -856 
Q 2344 -856 2625 -561 
Q 2906 -266 2906 331 
L 2906 616 
Q 2728 306 2450 153 
Q 2172 0 1784 0 
Q 1141 0 747 490 
Q 353 981 353 1791 
Q 353 2603 747 3093 
Q 1141 3584 1784 3584 
Q 2172 3584 2450 3431 
Q 2728 3278 2906 2969 
L 2906 3500 
L 3481 3500 
L 3481 434 
z
" transform="scale(0.015625)"/>
      </defs>
      <use xlink:href="#DejaVuSans-Oblique-75" transform="translate(0 0.015625)"/>
      <use xlink:href="#DejaVuSans-20" transform="translate(63.378906 0.015625)"/>
      <use xlink:href="#DejaVuSans-2d" transform="translate(95.166016 0.015625)"/>
      <use xlink:href="#DejaVuSans-20" transform="translate(131.25 0.015625)"/>
      <use xlink:href="#DejaVuSans-54" transform="translate(163.037109 0.015625)"/>
      <use xlink:href="#DejaVuSans-65" transform="translate(224.121094 0.015625)"/>
      <use xlink:href="#DejaVuSans-73" transform="translate(285.644531 0.015625)"/>
      <use xlink:href="#DejaVuSans-74" transform="translate(337.744141 0.015625)"/>
      <use xlink:href="#DejaVuSans-69" transform="translate(376.953125 0.015625)"/>
      <use xlink:href="#DejaVuSans-6e" transform="translate(404.736328 0.015625)"/>
      <use xlink:href="#DejaVuSans-67" transform="translate(468.115234 0.015625)"/>
      <use xlink:href="#DejaVuSans-20" transform="translate(531.591797 0.015625)"/>
      <use xlink:href="#DejaVuSans-52" transform="translate(563.378906 0.015625)"/>
      <use xlink:href="#DejaVuSans-61" transform="translate(632.861328 0.015625)"/>
      <use xlink:href="#DejaVuSans-74" transform="translate(694.140625 0.015625)"/>
      <use xlink:href="#DejaVuSans-65" transform="translate(733.349609 0.015625)"/>
     </g>
    </g>
   </g>
  </g>
 </g>
 <defs>
  <clipPath id="p379781fd2e">
   <rect x="43.78125" y="7.2" width="558" height="166.32"/>
  </clipPath>
 </defs>
</svg>
