<?xml version="1.0" encoding="utf-8" standalone="no"?>
<!DOCTYPE svg PUBLIC "-//W3C//DTD SVG 1.1//EN"
  "http://www.w3.org/Graphics/SVG/1.1/DTD/svg11.dtd">
<svg xmlns:xlink="http://www.w3.org/1999/xlink" width="640.745625pt" height="279.99625pt" viewBox="0 0 640.745625 279.99625" xmlns="http://www.w3.org/2000/svg" version="1.1">
 <metadata>
  <rdf:RDF xmlns:dc="http://purl.org/dc/elements/1.1/" xmlns:cc="http://creativecommons.org/ns#" xmlns:rdf="http://www.w3.org/1999/02/22-rdf-syntax-ns#">
   <cc:Work>
    <dc:type rdf:resource="http://purl.org/dc/dcmitype/StillImage"/>
    <dc:date>2025-07-11T16:54:30.144276</dc:date>
    <dc:format>image/svg+xml</dc:format>
    <dc:creator>
     <cc:Agent>
      <dc:title>Matplotlib v3.6.3, https://matplotlib.org/</dc:title>
     </cc:Agent>
    </dc:creator>
   </cc:Work>
  </rdf:RDF>
 </metadata>
 <defs>
  <style type="text/css">*{stroke-linejoin: round; stroke-linecap: butt}</style>
 </defs>
 <g id="figure_1">
  <g id="patch_1">
   <path d="M 0 279.99625 
L 640.745625 279.99625 
L 640.745625 0 
L 0 0 
z
" style="fill: #ffffff"/>
  </g>
  <g id="axes_1">
   <g id="patch_2">
    <path d="M 36.465625 117.67 
L 633.545625 117.67 
L 633.545625 7.2 
L 36.465625 7.2 
z
" style="fill: #ffffff"/>
   </g>
   <g id="matplotlib.axis_1">
    <g id="xtick_1">
     <g id="line2d_1">
      <defs>
       <path id="m962a851b37" d="M 0 0 
L 0 3.5 
" style="stroke: #000000; stroke-width: 0.8"/>
      </defs>
      <g>
       <use xlink:href="#m962a851b37" x="63.605625" y="117.67" style="stroke: #000000; stroke-width: 0.8"/>
      </g>
     </g>
    </g>
    <g id="xtick_2">
     <g id="line2d_2">
      <g>
       <use xlink:href="#m962a851b37" x="154.374856" y="117.67" style="stroke: #000000; stroke-width: 0.8"/>
      </g>
     </g>
    </g>
    <g id="xtick_3">
     <g id="line2d_3">
      <g>
       <use xlink:href="#m962a851b37" x="245.144087" y="117.67" style="stroke: #000000; stroke-width: 0.8"/>
      </g>
     </g>
    </g>
    <g id="xtick_4">
     <g id="line2d_4">
      <g>
       <use xlink:href="#m962a851b37" x="335.913317" y="117.67" style="stroke: #000000; stroke-width: 0.8"/>
      </g>
     </g>
    </g>
    <g id="xtick_5">
     <g id="line2d_5">
      <g>
       <use xlink:href="#m962a851b37" x="426.682548" y="117.67" style="stroke: #000000; stroke-width: 0.8"/>
      </g>
     </g>
    </g>
    <g id="xtick_6">
     <g id="line2d_6">
      <g>
       <use xlink:href="#m962a851b37" x="517.451779" y="117.67" style="stroke: #000000; stroke-width: 0.8"/>
      </g>
     </g>
    </g>
    <g id="xtick_7">
     <g id="line2d_7">
      <g>
       <use xlink:href="#m962a851b37" x="608.22101" y="117.67" style="stroke: #000000; stroke-width: 0.8"/>
      </g>
     </g>
    </g>
   </g>
   <g id="matplotlib.axis_2">
    <g id="ytick_1">
     <g id="line2d_8">
      <defs>
       <path id="md7e3447d41" d="M 0 0 
L -3.5 0 
" style="stroke: #000000; stroke-width: 0.8"/>
      </defs>
      <g>
       <use xlink:href="#md7e3447d41" x="36.465625" y="112.882529" style="stroke: #000000; stroke-width: 0.8"/>
      </g>
     </g>
     <g id="text_1">
      <!-- 0.00 -->
      <g transform="translate(7.2 116.681748) scale(0.1 -0.1)">
       <defs>
        <path id="DejaVuSans-30" d="M 2034 4250 
Q 1547 4250 1301 3770 
Q 1056 3291 1056 2328 
Q 1056 1369 1301 889 
Q 1547 409 2034 409 
Q 2525 409 2770 889 
Q 3016 1369 3016 2328 
Q 3016 3291 2770 3770 
Q 2525 4250 2034 4250 
z
M 2034 4750 
Q 2819 4750 3233 4129 
Q 3647 3509 3647 2328 
Q 3647 1150 3233 529 
Q 2819 -91 2034 -91 
Q 1250 -91 836 529 
Q 422 1150 422 2328 
Q 422 3509 836 4129 
Q 1250 4750 2034 4750 
z
" transform="scale(0.015625)"/>
        <path id="DejaVuSans-2e" d="M 684 794 
L 1344 794 
L 1344 0 
L 684 0 
L 684 794 
z
" transform="scale(0.015625)"/>
       </defs>
       <use xlink:href="#DejaVuSans-30"/>
       <use xlink:href="#DejaVuSans-2e" x="63.623047"/>
       <use xlink:href="#DejaVuSans-30" x="95.410156"/>
       <use xlink:href="#DejaVuSans-30" x="159.033203"/>
      </g>
     </g>
    </g>
    <g id="ytick_2">
     <g id="line2d_9">
      <g>
       <use xlink:href="#md7e3447d41" x="36.465625" y="87.76496" style="stroke: #000000; stroke-width: 0.8"/>
      </g>
     </g>
     <g id="text_2">
      <!-- 0.25 -->
      <g transform="translate(7.2 91.564179) scale(0.1 -0.1)">
       <defs>
        <path id="DejaVuSans-32" d="M 1228 531 
L 3431 531 
L 3431 0 
L 469 0 
L 469 531 
Q 828 903 1448 1529 
Q 2069 2156 2228 2338 
Q 2531 2678 2651 2914 
Q 2772 3150 2772 3378 
Q 2772 3750 2511 3984 
Q 2250 4219 1831 4219 
Q 1534 4219 1204 4116 
Q 875 4013 500 3803 
L 500 4441 
Q 881 4594 1212 4672 
Q 1544 4750 1819 4750 
Q 2544 4750 2975 4387 
Q 3406 4025 3406 3419 
Q 3406 3131 3298 2873 
Q 3191 2616 2906 2266 
Q 2828 2175 2409 1742 
Q 1991 1309 1228 531 
z
" transform="scale(0.015625)"/>
        <path id="DejaVuSans-35" d="M 691 4666 
L 3169 4666 
L 3169 4134 
L 1269 4134 
L 1269 2991 
Q 1406 3038 1543 3061 
Q 1681 3084 1819 3084 
Q 2600 3084 3056 2656 
Q 3513 2228 3513 1497 
Q 3513 744 3044 326 
Q 2575 -91 1722 -91 
Q 1428 -91 1123 -41 
Q 819 9 494 109 
L 494 744 
Q 775 591 1075 516 
Q 1375 441 1709 441 
Q 2250 441 2565 725 
Q 2881 1009 2881 1497 
Q 2881 1984 2565 2268 
Q 2250 2553 1709 2553 
Q 1456 2553 1204 2497 
Q 953 2441 691 2322 
L 691 4666 
z
" transform="scale(0.015625)"/>
       </defs>
       <use xlink:href="#DejaVuSans-30"/>
       <use xlink:href="#DejaVuSans-2e" x="63.623047"/>
       <use xlink:href="#DejaVuSans-32" x="95.410156"/>
       <use xlink:href="#DejaVuSans-35" x="159.033203"/>
      </g>
     </g>
    </g>
    <g id="ytick_3">
     <g id="line2d_10">
      <g>
       <use xlink:href="#md7e3447d41" x="36.465625" y="62.647391" style="stroke: #000000; stroke-width: 0.8"/>
      </g>
     </g>
     <g id="text_3">
      <!-- 0.50 -->
      <g transform="translate(7.2 66.44661) scale(0.1 -0.1)">
       <use xlink:href="#DejaVuSans-30"/>
       <use xlink:href="#DejaVuSans-2e" x="63.623047"/>
       <use xlink:href="#DejaVuSans-35" x="95.410156"/>
       <use xlink:href="#DejaVuSans-30" x="159.033203"/>
      </g>
     </g>
    </g>
    <g id="ytick_4">
     <g id="line2d_11">
      <g>
       <use xlink:href="#md7e3447d41" x="36.465625" y="37.529822" style="stroke: #000000; stroke-width: 0.8"/>
      </g>
     </g>
     <g id="text_4">
      <!-- 0.75 -->
      <g transform="translate(7.2 41.329041) scale(0.1 -0.1)">
       <defs>
        <path id="DejaVuSans-37" d="M 525 4666 
L 3525 4666 
L 3525 4397 
L 1831 0 
L 1172 0 
L 2766 4134 
L 525 4134 
L 525 4666 
z
" transform="scale(0.015625)"/>
       </defs>
       <use xlink:href="#DejaVuSans-30"/>
       <use xlink:href="#DejaVuSans-2e" x="63.623047"/>
       <use xlink:href="#DejaVuSans-37" x="95.410156"/>
       <use xlink:href="#DejaVuSans-35" x="159.033203"/>
      </g>
     </g>
    </g>
    <g id="ytick_5">
     <g id="line2d_12">
      <g>
       <use xlink:href="#md7e3447d41" x="36.465625" y="12.412253" style="stroke: #000000; stroke-width: 0.8"/>
      </g>
     </g>
     <g id="text_5">
      <!-- 1.00 -->
      <g transform="translate(7.2 16.211472) scale(0.1 -0.1)">
       <defs>
        <path id="DejaVuSans-31" d="M 794 531 
L 1825 531 
L 1825 4091 
L 703 3866 
L 703 4441 
L 1819 4666 
L 2450 4666 
L 2450 531 
L 3481 531 
L 3481 0 
L 794 0 
L 794 531 
z
" transform="scale(0.015625)"/>
       </defs>
       <use xlink:href="#DejaVuSans-31"/>
       <use xlink:href="#DejaVuSans-2e" x="63.623047"/>
       <use xlink:href="#DejaVuSans-30" x="95.410156"/>
       <use xlink:href="#DejaVuSans-30" x="159.033203"/>
      </g>
     </g>
    </g>
   </g>
   <g id="line2d_13">
    <path d="M 63.605625 12.413258 
L 112.62101 12.515234 
L 125.328702 12.74403 
L 132.59024 13.069631 
L 138.036394 13.490941 
L 143.482548 14.167404 
L 147.113317 14.850118 
L 150.744087 15.787563 
L 154.374856 17.053898 
L 158.005625 18.729287 
L 159.82101 19.753419 
L 161.636394 20.927659 
L 163.451779 22.29764 
L 165.267163 23.883918 
L 167.082548 25.665654 
L 168.897933 27.688973 
L 170.713317 29.981411 
L 172.528702 32.576673 
L 174.344087 35.415865 
L 176.159471 38.583958 
L 177.974856 41.993033 
L 181.605625 49.521866 
L 185.236394 57.720457 
L 190.682548 70.445201 
L 194.313317 78.477344 
L 196.128702 82.222888 
L 199.759471 88.890705 
L 201.574856 91.818699 
L 203.39024 94.466816 
L 205.205625 96.798707 
L 207.02101 98.834845 
L 208.836394 100.636796 
L 210.651779 102.230175 
L 212.467163 103.621334 
L 214.282548 104.839878 
L 216.097933 105.875111 
L 219.728702 107.505649 
L 223.359471 108.686299 
L 226.99024 109.573817 
L 230.62101 110.232871 
L 234.251779 110.709136 
L 239.697933 111.172474 
L 246.959471 111.501463 
L 256.036394 111.661051 
L 266.928702 111.646432 
L 283.267163 111.371544 
L 312.313317 110.628212 
L 341.359471 109.663854 
L 384.928702 108.009624 
L 501.113317 103.533078 
L 535.605625 102.553938 
L 561.02101 102.090763 
L 606.405625 101.648627 
L 606.405625 101.648627 
" clip-path="url(#p1b930d00ad)" style="fill: none; stroke: #1f77b4; stroke-width: 2; stroke-linecap: square"/>
   </g>
   <g id="line2d_14">
    <path d="M 63.605625 12.467371 
L 65.42101 12.640007 
L 67.236394 12.518405 
L 69.051779 12.754687 
L 72.682548 12.989113 
L 74.497933 12.947421 
L 76.313317 12.673399 
L 78.128702 12.799397 
L 79.944087 12.60634 
L 81.759471 12.556408 
L 83.574856 12.384059 
L 85.39024 12.460317 
L 90.836394 12.221364 
L 92.651779 12.345014 
L 96.282548 12.747046 
L 101.728702 12.830885 
L 103.544087 12.631803 
L 105.359471 12.678286 
L 107.174856 12.58326 
L 108.99024 12.712648 
L 110.805625 12.577847 
L 112.62101 12.712528 
L 114.436394 12.552827 
L 116.251779 12.697748 
L 118.067163 12.531364 
L 119.882548 12.637205 
L 121.697933 12.555881 
L 127.144087 12.896231 
L 128.959471 13.089276 
L 130.774856 13.496518 
L 138.036394 14.151228 
L 139.851779 14.197244 
L 143.482548 14.615768 
L 145.297933 15.013308 
L 150.744087 16.553417 
L 156.19024 18.777628 
L 159.82101 20.162719 
L 161.636394 21.15824 
L 163.451779 22.584149 
L 165.267163 23.861345 
L 167.082548 25.518074 
L 168.897933 27.480828 
L 170.713317 30.176609 
L 172.528702 32.661044 
L 176.159471 39.306057 
L 177.974856 42.963699 
L 181.605625 51.342957 
L 187.051779 64.371967 
L 188.867163 68.148258 
L 190.682548 72.198196 
L 196.128702 83.067045 
L 197.944087 86.574555 
L 201.574856 92.475233 
L 203.39024 94.801678 
L 207.02101 98.391557 
L 208.836394 100.077842 
L 212.467163 102.947607 
L 214.282548 103.99553 
L 216.097933 104.625532 
L 217.913317 105.54043 
L 225.174856 107.725264 
L 226.99024 108.487554 
L 228.805625 108.734772 
L 232.436394 109.541781 
L 234.251779 109.71228 
L 236.067163 109.592195 
L 237.882548 110.178143 
L 239.697933 110.4039 
L 241.513317 110.229395 
L 245.144087 110.779244 
L 246.959471 110.767614 
L 248.774856 111.132346 
L 250.59024 111.112578 
L 252.405625 111.3738 
L 254.22101 111.490857 
L 256.036394 111.895128 
L 257.851779 111.722869 
L 259.667163 112.071295 
L 261.482548 112.173782 
L 263.297933 111.972197 
L 265.113317 112.343567 
L 266.928702 112.407776 
L 268.744087 112.233975 
L 270.559471 112.364815 
L 272.374856 112.194864 
L 274.19024 112.230178 
L 276.005625 112.53637 
L 277.82101 112.637647 
L 279.636394 112.397344 
L 281.451779 112.521935 
L 283.267163 112.354251 
L 285.082548 112.648636 
L 288.713317 112.222744 
L 290.528702 112.266085 
L 292.344087 112.484303 
L 294.159471 112.353628 
L 295.974856 112.052895 
L 297.79024 112.101887 
L 299.605625 111.925502 
L 301.42101 112.000819 
L 303.236394 111.87277 
L 305.051779 111.608057 
L 306.867163 111.557494 
L 308.682548 111.659996 
L 310.497933 111.301336 
L 314.128702 111.156998 
L 315.944087 111.01681 
L 317.759471 110.720724 
L 321.39024 110.673158 
L 323.205625 110.401597 
L 326.836394 110.236405 
L 328.651779 110.305611 
L 330.467163 110.15014 
L 334.097933 109.537251 
L 339.544087 109.42991 
L 343.174856 108.974078 
L 344.99024 108.876843 
L 346.805625 108.895856 
L 350.436394 108.500205 
L 352.251779 108.376788 
L 354.067163 108.439512 
L 359.513317 108.130472 
L 361.328702 107.829745 
L 363.144087 107.865706 
L 410.344087 105.426053 
L 412.159471 105.508027 
L 423.051779 105.107468 
L 426.682548 105.028962 
L 430.313317 104.797366 
L 432.128702 104.823823 
L 435.759471 104.649306 
L 441.205625 104.483024 
L 443.02101 104.420145 
L 444.836394 104.494369 
L 446.651779 104.321278 
L 464.805625 103.925678 
L 466.62101 103.796581 
L 470.251779 103.81386 
L 472.067163 103.669891 
L 473.882548 103.69733 
L 475.697933 103.610704 
L 477.513317 103.657456 
L 482.959471 103.504129 
L 490.22101 103.36154 
L 493.851779 103.263087 
L 495.667163 103.34485 
L 497.482548 103.263835 
L 499.297933 103.335266 
L 502.928702 103.325885 
L 506.559471 103.325292 
L 512.005625 103.168723 
L 515.636394 103.174032 
L 517.451779 103.050878 
L 519.267163 103.095493 
L 522.897933 103.025403 
L 524.713317 103.067832 
L 526.528702 102.966003 
L 528.344087 103.031859 
L 531.974856 102.946783 
L 533.79024 102.977627 
L 537.42101 102.84759 
L 539.236394 102.88989 
L 541.051779 102.77954 
L 544.682548 102.804347 
L 557.39024 102.546312 
L 559.205625 102.460374 
L 562.836394 102.503407 
L 568.282548 102.516887 
L 584.62101 102.477558 
L 600.959471 102.558154 
L 606.405625 102.613146 
L 606.405625 102.613146 
" clip-path="url(#p1b930d00ad)" style="fill: none; stroke-dasharray: 5.55,2.4; stroke-dashoffset: 0; stroke: #000000; stroke-width: 1.5"/>
   </g>
   <g id="patch_3">
    <path d="M 36.465625 117.67 
L 36.465625 7.2 
" style="fill: none; stroke: #000000; stroke-width: 0.8; stroke-linejoin: miter; stroke-linecap: square"/>
   </g>
   <g id="patch_4">
    <path d="M 633.545625 117.67 
L 633.545625 7.2 
" style="fill: none; stroke: #000000; stroke-width: 0.8; stroke-linejoin: miter; stroke-linecap: square"/>
   </g>
   <g id="patch_5">
    <path d="M 36.465625 117.67 
L 633.545625 117.67 
" style="fill: none; stroke: #000000; stroke-width: 0.8; stroke-linejoin: miter; stroke-linecap: square"/>
   </g>
   <g id="patch_6">
    <path d="M 36.465625 7.2 
L 633.545625 7.2 
" style="fill: none; stroke: #000000; stroke-width: 0.8; stroke-linejoin: miter; stroke-linecap: square"/>
   </g>
   <g id="legend_1">
    <g id="patch_7">
     <path d="M 588.145625 46.178125 
L 626.545625 46.178125 
Q 628.545625 46.178125 628.545625 44.178125 
L 628.545625 14.2 
Q 628.545625 12.2 626.545625 12.2 
L 588.145625 12.2 
Q 586.145625 12.2 586.145625 14.2 
L 586.145625 44.178125 
Q 586.145625 46.178125 588.145625 46.178125 
z
" style="fill: #ffffff; opacity: 0.8; stroke: #cccccc; stroke-linejoin: miter"/>
    </g>
    <g id="line2d_15">
     <path d="M 590.145625 20.298437 
L 600.145625 20.298437 
L 610.145625 20.298437 
" style="fill: none; stroke: #1f77b4; stroke-width: 2; stroke-linecap: square"/>
    </g>
    <g id="text_6">
     <!-- $S$ -->
     <g transform="translate(618.145625 23.798437) scale(0.1 -0.1)">
      <defs>
       <path id="DejaVuSans-Oblique-53" d="M 3859 4513 
L 3738 3897 
Q 3422 4066 3111 4152 
Q 2800 4238 2509 4238 
Q 1944 4238 1609 3991 
Q 1275 3744 1275 3334 
Q 1275 3109 1398 2989 
Q 1522 2869 2034 2731 
L 2413 2638 
Q 3053 2472 3303 2217 
Q 3553 1963 3553 1503 
Q 3553 797 2998 353 
Q 2444 -91 1538 -91 
Q 1166 -91 791 -17 
Q 416 56 38 206 
L 166 856 
Q 513 641 861 531 
Q 1209 422 1556 422 
Q 2147 422 2503 684 
Q 2859 947 2859 1369 
Q 2859 1650 2717 1795 
Q 2575 1941 2106 2059 
L 1728 2156 
Q 1081 2325 845 2545 
Q 609 2766 609 3163 
Q 609 3859 1145 4304 
Q 1681 4750 2541 4750 
Q 2875 4750 3203 4690 
Q 3531 4631 3859 4513 
z
" transform="scale(0.015625)"/>
      </defs>
      <use xlink:href="#DejaVuSans-Oblique-53" transform="translate(0 0.78125)"/>
     </g>
    </g>
    <g id="line2d_16">
     <path d="M 590.145625 36.598437 
L 600.145625 36.598437 
L 610.145625 36.598437 
" style="fill: none; stroke-dasharray: 5.55,2.4; stroke-dashoffset: 0; stroke: #000000; stroke-width: 1.5"/>
    </g>
    <g id="text_7">
     <!-- $\hat S$ -->
     <g transform="translate(618.145625 40.098437) scale(0.1 -0.1)">
      <defs>
       <path id="DejaVuSans-302" d="M -1831 5119 
L -1369 5119 
L -603 3944 
L -1038 3944 
L -1600 4709 
L -2163 3944 
L -2597 3944 
L -1831 5119 
z
M -1600 3584 
L -1600 3584 
z
" transform="scale(0.015625)"/>
      </defs>
      <use xlink:href="#DejaVuSans-302" transform="translate(62.503906 31.015625)"/>
      <use xlink:href="#DejaVuSans-Oblique-53" transform="translate(0 0.296875)"/>
     </g>
    </g>
   </g>
  </g>
  <g id="axes_2">
   <g id="patch_8">
    <path d="M 36.465625 242.44 
L 633.545625 242.44 
L 633.545625 131.97 
L 36.465625 131.97 
z
" style="fill: #ffffff"/>
   </g>
   <g id="matplotlib.axis_3">
    <g id="xtick_8">
     <g id="line2d_17">
      <g>
       <use xlink:href="#m962a851b37" x="63.605625" y="242.44" style="stroke: #000000; stroke-width: 0.8"/>
      </g>
     </g>
     <g id="text_8">
      <!-- 0 -->
      <g transform="translate(60.424375 257.038437) scale(0.1 -0.1)">
       <use xlink:href="#DejaVuSans-30"/>
      </g>
     </g>
    </g>
    <g id="xtick_9">
     <g id="line2d_18">
      <g>
       <use xlink:href="#m962a851b37" x="154.374856" y="242.44" style="stroke: #000000; stroke-width: 0.8"/>
      </g>
     </g>
     <g id="text_9">
      <!-- 50 -->
      <g transform="translate(148.012356 257.038437) scale(0.1 -0.1)">
       <use xlink:href="#DejaVuSans-35"/>
       <use xlink:href="#DejaVuSans-30" x="63.623047"/>
      </g>
     </g>
    </g>
    <g id="xtick_10">
     <g id="line2d_19">
      <g>
       <use xlink:href="#m962a851b37" x="245.144087" y="242.44" style="stroke: #000000; stroke-width: 0.8"/>
      </g>
     </g>
     <g id="text_10">
      <!-- 100 -->
      <g transform="translate(235.600337 257.038437) scale(0.1 -0.1)">
       <use xlink:href="#DejaVuSans-31"/>
       <use xlink:href="#DejaVuSans-30" x="63.623047"/>
       <use xlink:href="#DejaVuSans-30" x="127.246094"/>
      </g>
     </g>
    </g>
    <g id="xtick_11">
     <g id="line2d_20">
      <g>
       <use xlink:href="#m962a851b37" x="335.913317" y="242.44" style="stroke: #000000; stroke-width: 0.8"/>
      </g>
     </g>
     <g id="text_11">
      <!-- 150 -->
      <g transform="translate(326.369567 257.038437) scale(0.1 -0.1)">
       <use xlink:href="#DejaVuSans-31"/>
       <use xlink:href="#DejaVuSans-35" x="63.623047"/>
       <use xlink:href="#DejaVuSans-30" x="127.246094"/>
      </g>
     </g>
    </g>
    <g id="xtick_12">
     <g id="line2d_21">
      <g>
       <use xlink:href="#m962a851b37" x="426.682548" y="242.44" style="stroke: #000000; stroke-width: 0.8"/>
      </g>
     </g>
     <g id="text_12">
      <!-- 200 -->
      <g transform="translate(417.138798 257.038437) scale(0.1 -0.1)">
       <use xlink:href="#DejaVuSans-32"/>
       <use xlink:href="#DejaVuSans-30" x="63.623047"/>
       <use xlink:href="#DejaVuSans-30" x="127.246094"/>
      </g>
     </g>
    </g>
    <g id="xtick_13">
     <g id="line2d_22">
      <g>
       <use xlink:href="#m962a851b37" x="517.451779" y="242.44" style="stroke: #000000; stroke-width: 0.8"/>
      </g>
     </g>
     <g id="text_13">
      <!-- 250 -->
      <g transform="translate(507.908029 257.038437) scale(0.1 -0.1)">
       <use xlink:href="#DejaVuSans-32"/>
       <use xlink:href="#DejaVuSans-35" x="63.623047"/>
       <use xlink:href="#DejaVuSans-30" x="127.246094"/>
      </g>
     </g>
    </g>
    <g id="xtick_14">
     <g id="line2d_23">
      <g>
       <use xlink:href="#m962a851b37" x="608.22101" y="242.44" style="stroke: #000000; stroke-width: 0.8"/>
      </g>
     </g>
     <g id="text_14">
      <!-- 300 -->
      <g transform="translate(598.67726 257.038437) scale(0.1 -0.1)">
       <defs>
        <path id="DejaVuSans-33" d="M 2597 2516 
Q 3050 2419 3304 2112 
Q 3559 1806 3559 1356 
Q 3559 666 3084 287 
Q 2609 -91 1734 -91 
Q 1441 -91 1130 -33 
Q 819 25 488 141 
L 488 750 
Q 750 597 1062 519 
Q 1375 441 1716 441 
Q 2309 441 2620 675 
Q 2931 909 2931 1356 
Q 2931 1769 2642 2001 
Q 2353 2234 1838 2234 
L 1294 2234 
L 1294 2753 
L 1863 2753 
Q 2328 2753 2575 2939 
Q 2822 3125 2822 3475 
Q 2822 3834 2567 4026 
Q 2313 4219 1838 4219 
Q 1578 4219 1281 4162 
Q 984 4106 628 3988 
L 628 4550 
Q 988 4650 1302 4700 
Q 1616 4750 1894 4750 
Q 2613 4750 3031 4423 
Q 3450 4097 3450 3541 
Q 3450 3153 3228 2886 
Q 3006 2619 2597 2516 
z
" transform="scale(0.015625)"/>
       </defs>
       <use xlink:href="#DejaVuSans-33"/>
       <use xlink:href="#DejaVuSans-30" x="63.623047"/>
       <use xlink:href="#DejaVuSans-30" x="127.246094"/>
      </g>
     </g>
    </g>
    <g id="text_15">
     <!-- time (days) -->
     <g transform="translate(306.416562 270.716562) scale(0.1 -0.1)">
      <defs>
       <path id="DejaVuSans-74" d="M 1172 4494 
L 1172 3500 
L 2356 3500 
L 2356 3053 
L 1172 3053 
L 1172 1153 
Q 1172 725 1289 603 
Q 1406 481 1766 481 
L 2356 481 
L 2356 0 
L 1766 0 
Q 1100 0 847 248 
Q 594 497 594 1153 
L 594 3053 
L 172 3053 
L 172 3500 
L 594 3500 
L 594 4494 
L 1172 4494 
z
" transform="scale(0.015625)"/>
       <path id="DejaVuSans-69" d="M 603 3500 
L 1178 3500 
L 1178 0 
L 603 0 
L 603 3500 
z
M 603 4863 
L 1178 4863 
L 1178 4134 
L 603 4134 
L 603 4863 
z
" transform="scale(0.015625)"/>
       <path id="DejaVuSans-6d" d="M 3328 2828 
Q 3544 3216 3844 3400 
Q 4144 3584 4550 3584 
Q 5097 3584 5394 3201 
Q 5691 2819 5691 2113 
L 5691 0 
L 5113 0 
L 5113 2094 
Q 5113 2597 4934 2840 
Q 4756 3084 4391 3084 
Q 3944 3084 3684 2787 
Q 3425 2491 3425 1978 
L 3425 0 
L 2847 0 
L 2847 2094 
Q 2847 2600 2669 2842 
Q 2491 3084 2119 3084 
Q 1678 3084 1418 2786 
Q 1159 2488 1159 1978 
L 1159 0 
L 581 0 
L 581 3500 
L 1159 3500 
L 1159 2956 
Q 1356 3278 1631 3431 
Q 1906 3584 2284 3584 
Q 2666 3584 2933 3390 
Q 3200 3197 3328 2828 
z
" transform="scale(0.015625)"/>
       <path id="DejaVuSans-65" d="M 3597 1894 
L 3597 1613 
L 953 1613 
Q 991 1019 1311 708 
Q 1631 397 2203 397 
Q 2534 397 2845 478 
Q 3156 559 3463 722 
L 3463 178 
Q 3153 47 2828 -22 
Q 2503 -91 2169 -91 
Q 1331 -91 842 396 
Q 353 884 353 1716 
Q 353 2575 817 3079 
Q 1281 3584 2069 3584 
Q 2775 3584 3186 3129 
Q 3597 2675 3597 1894 
z
M 3022 2063 
Q 3016 2534 2758 2815 
Q 2500 3097 2075 3097 
Q 1594 3097 1305 2825 
Q 1016 2553 972 2059 
L 3022 2063 
z
" transform="scale(0.015625)"/>
       <path id="DejaVuSans-20" transform="scale(0.015625)"/>
       <path id="DejaVuSans-28" d="M 1984 4856 
Q 1566 4138 1362 3434 
Q 1159 2731 1159 2009 
Q 1159 1288 1364 580 
Q 1569 -128 1984 -844 
L 1484 -844 
Q 1016 -109 783 600 
Q 550 1309 550 2009 
Q 550 2706 781 3412 
Q 1013 4119 1484 4856 
L 1984 4856 
z
" transform="scale(0.015625)"/>
       <path id="DejaVuSans-64" d="M 2906 2969 
L 2906 4863 
L 3481 4863 
L 3481 0 
L 2906 0 
L 2906 525 
Q 2725 213 2448 61 
Q 2172 -91 1784 -91 
Q 1150 -91 751 415 
Q 353 922 353 1747 
Q 353 2572 751 3078 
Q 1150 3584 1784 3584 
Q 2172 3584 2448 3432 
Q 2725 3281 2906 2969 
z
M 947 1747 
Q 947 1113 1208 752 
Q 1469 391 1925 391 
Q 2381 391 2643 752 
Q 2906 1113 2906 1747 
Q 2906 2381 2643 2742 
Q 2381 3103 1925 3103 
Q 1469 3103 1208 2742 
Q 947 2381 947 1747 
z
" transform="scale(0.015625)"/>
       <path id="DejaVuSans-61" d="M 2194 1759 
Q 1497 1759 1228 1600 
Q 959 1441 959 1056 
Q 959 750 1161 570 
Q 1363 391 1709 391 
Q 2188 391 2477 730 
Q 2766 1069 2766 1631 
L 2766 1759 
L 2194 1759 
z
M 3341 1997 
L 3341 0 
L 2766 0 
L 2766 531 
Q 2569 213 2275 61 
Q 1981 -91 1556 -91 
Q 1019 -91 701 211 
Q 384 513 384 1019 
Q 384 1609 779 1909 
Q 1175 2209 1959 2209 
L 2766 2209 
L 2766 2266 
Q 2766 2663 2505 2880 
Q 2244 3097 1772 3097 
Q 1472 3097 1187 3025 
Q 903 2953 641 2809 
L 641 3341 
Q 956 3463 1253 3523 
Q 1550 3584 1831 3584 
Q 2591 3584 2966 3190 
Q 3341 2797 3341 1997 
z
" transform="scale(0.015625)"/>
       <path id="DejaVuSans-79" d="M 2059 -325 
Q 1816 -950 1584 -1140 
Q 1353 -1331 966 -1331 
L 506 -1331 
L 506 -850 
L 844 -850 
Q 1081 -850 1212 -737 
Q 1344 -625 1503 -206 
L 1606 56 
L 191 3500 
L 800 3500 
L 1894 763 
L 2988 3500 
L 3597 3500 
L 2059 -325 
z
" transform="scale(0.015625)"/>
       <path id="DejaVuSans-73" d="M 2834 3397 
L 2834 2853 
Q 2591 2978 2328 3040 
Q 2066 3103 1784 3103 
Q 1356 3103 1142 2972 
Q 928 2841 928 2578 
Q 928 2378 1081 2264 
Q 1234 2150 1697 2047 
L 1894 2003 
Q 2506 1872 2764 1633 
Q 3022 1394 3022 966 
Q 3022 478 2636 193 
Q 2250 -91 1575 -91 
Q 1294 -91 989 -36 
Q 684 19 347 128 
L 347 722 
Q 666 556 975 473 
Q 1284 391 1588 391 
Q 1994 391 2212 530 
Q 2431 669 2431 922 
Q 2431 1156 2273 1281 
Q 2116 1406 1581 1522 
L 1381 1569 
Q 847 1681 609 1914 
Q 372 2147 372 2553 
Q 372 3047 722 3315 
Q 1072 3584 1716 3584 
Q 2034 3584 2315 3537 
Q 2597 3491 2834 3397 
z
" transform="scale(0.015625)"/>
       <path id="DejaVuSans-29" d="M 513 4856 
L 1013 4856 
Q 1481 4119 1714 3412 
Q 1947 2706 1947 2009 
Q 1947 1309 1714 600 
Q 1481 -109 1013 -844 
L 513 -844 
Q 928 -128 1133 580 
Q 1338 1288 1338 2009 
Q 1338 2731 1133 3434 
Q 928 4138 513 4856 
z
" transform="scale(0.015625)"/>
      </defs>
      <use xlink:href="#DejaVuSans-74"/>
      <use xlink:href="#DejaVuSans-69" x="39.208984"/>
      <use xlink:href="#DejaVuSans-6d" x="66.992188"/>
      <use xlink:href="#DejaVuSans-65" x="164.404297"/>
      <use xlink:href="#DejaVuSans-20" x="225.927734"/>
      <use xlink:href="#DejaVuSans-28" x="257.714844"/>
      <use xlink:href="#DejaVuSans-64" x="296.728516"/>
      <use xlink:href="#DejaVuSans-61" x="360.205078"/>
      <use xlink:href="#DejaVuSans-79" x="421.484375"/>
      <use xlink:href="#DejaVuSans-73" x="480.664062"/>
      <use xlink:href="#DejaVuSans-29" x="532.763672"/>
     </g>
    </g>
   </g>
   <g id="matplotlib.axis_4">
    <g id="ytick_6">
     <g id="line2d_24">
      <g>
       <use xlink:href="#md7e3447d41" x="36.465625" y="236.491018" style="stroke: #000000; stroke-width: 0.8"/>
      </g>
     </g>
     <g id="text_16">
      <!-- 0.0 -->
      <g transform="translate(13.5625 240.290236) scale(0.1 -0.1)">
       <use xlink:href="#DejaVuSans-30"/>
       <use xlink:href="#DejaVuSans-2e" x="63.623047"/>
       <use xlink:href="#DejaVuSans-30" x="95.410156"/>
      </g>
     </g>
    </g>
    <g id="ytick_7">
     <g id="line2d_25">
      <g>
       <use xlink:href="#md7e3447d41" x="36.465625" y="205.769741" style="stroke: #000000; stroke-width: 0.8"/>
      </g>
     </g>
     <g id="text_17">
      <!-- 0.2 -->
      <g transform="translate(13.5625 209.56896) scale(0.1 -0.1)">
       <use xlink:href="#DejaVuSans-30"/>
       <use xlink:href="#DejaVuSans-2e" x="63.623047"/>
       <use xlink:href="#DejaVuSans-32" x="95.410156"/>
      </g>
     </g>
    </g>
    <g id="ytick_8">
     <g id="line2d_26">
      <g>
       <use xlink:href="#md7e3447d41" x="36.465625" y="175.048465" style="stroke: #000000; stroke-width: 0.8"/>
      </g>
     </g>
     <g id="text_18">
      <!-- 0.4 -->
      <g transform="translate(13.5625 178.847684) scale(0.1 -0.1)">
       <defs>
        <path id="DejaVuSans-34" d="M 2419 4116 
L 825 1625 
L 2419 1625 
L 2419 4116 
z
M 2253 4666 
L 3047 4666 
L 3047 1625 
L 3713 1625 
L 3713 1100 
L 3047 1100 
L 3047 0 
L 2419 0 
L 2419 1100 
L 313 1100 
L 313 1709 
L 2253 4666 
z
" transform="scale(0.015625)"/>
       </defs>
       <use xlink:href="#DejaVuSans-30"/>
       <use xlink:href="#DejaVuSans-2e" x="63.623047"/>
       <use xlink:href="#DejaVuSans-34" x="95.410156"/>
      </g>
     </g>
    </g>
    <g id="ytick_9">
     <g id="line2d_27">
      <g>
       <use xlink:href="#md7e3447d41" x="36.465625" y="144.327188" style="stroke: #000000; stroke-width: 0.8"/>
      </g>
     </g>
     <g id="text_19">
      <!-- 0.6 -->
      <g transform="translate(13.5625 148.126407) scale(0.1 -0.1)">
       <defs>
        <path id="DejaVuSans-36" d="M 2113 2584 
Q 1688 2584 1439 2293 
Q 1191 2003 1191 1497 
Q 1191 994 1439 701 
Q 1688 409 2113 409 
Q 2538 409 2786 701 
Q 3034 994 3034 1497 
Q 3034 2003 2786 2293 
Q 2538 2584 2113 2584 
z
M 3366 4563 
L 3366 3988 
Q 3128 4100 2886 4159 
Q 2644 4219 2406 4219 
Q 1781 4219 1451 3797 
Q 1122 3375 1075 2522 
Q 1259 2794 1537 2939 
Q 1816 3084 2150 3084 
Q 2853 3084 3261 2657 
Q 3669 2231 3669 1497 
Q 3669 778 3244 343 
Q 2819 -91 2113 -91 
Q 1303 -91 875 529 
Q 447 1150 447 2328 
Q 447 3434 972 4092 
Q 1497 4750 2381 4750 
Q 2619 4750 2861 4703 
Q 3103 4656 3366 4563 
z
" transform="scale(0.015625)"/>
       </defs>
       <use xlink:href="#DejaVuSans-30"/>
       <use xlink:href="#DejaVuSans-2e" x="63.623047"/>
       <use xlink:href="#DejaVuSans-36" x="95.410156"/>
      </g>
     </g>
    </g>
   </g>
   <g id="line2d_28">
    <path d="M 63.605625 236.491018 
L 150.744087 236.384909 
L 161.636394 236.150838 
L 170.713317 235.756791 
L 176.159471 235.383392 
L 181.605625 234.760189 
L 187.051779 233.823059 
L 190.682548 232.924667 
L 194.313317 231.87962 
L 197.944087 230.634254 
L 201.574856 229.263874 
L 205.205625 227.671698 
L 214.282548 222.855974 
L 217.913317 220.619237 
L 221.544087 218.160132 
L 226.99024 214.347795 
L 232.436394 210.65392 
L 236.067163 208.006452 
L 246.959471 199.75082 
L 252.405625 195.828731 
L 259.667163 191.075955 
L 266.928702 186.429277 
L 276.005625 180.494792 
L 283.267163 176.312506 
L 288.713317 173.412988 
L 292.344087 171.5923 
L 301.42101 167.442625 
L 310.497933 163.773451 
L 319.574856 160.273853 
L 326.836394 157.720543 
L 337.728702 154.430121 
L 346.805625 152.101649 
L 355.882548 150.122087 
L 370.405625 147.330482 
L 379.482548 145.751007 
L 384.928702 145.008323 
L 392.19024 144.211188 
L 410.344087 142.587949 
L 424.867163 141.561997 
L 435.759471 140.917649 
L 444.836394 140.610968 
L 459.359471 140.500973 
L 473.882548 140.598886 
L 495.667163 140.977754 
L 508.374856 141.365765 
L 519.267163 141.685886 
L 533.79024 142.279828 
L 566.467163 143.970172 
L 579.174856 144.618986 
L 595.513317 145.306024 
L 606.405625 145.679524 
L 606.405625 145.679524 
" clip-path="url(#p66c2c0ca1e)" style="fill: none; stroke: #1f77b4; stroke-width: 2; stroke-linecap: square"/>
   </g>
   <g id="line2d_29">
    <path d="M 63.605625 236.528595 
L 65.42101 236.284045 
L 67.236394 237.167508 
L 69.051779 235.369869 
L 70.867163 236.458634 
L 74.497933 236.025903 
L 78.128702 236.431664 
L 79.944087 236.396934 
L 81.759471 236.612689 
L 83.574856 236.259011 
L 87.205625 235.960326 
L 90.836394 236.411254 
L 92.651779 236.391981 
L 94.467163 236.207073 
L 96.282548 236.281683 
L 99.913317 235.810178 
L 103.544087 235.973728 
L 105.359471 236.283809 
L 107.174856 236.13692 
L 108.99024 236.3246 
L 110.805625 236.280053 
L 112.62101 236.403348 
L 114.436394 236.220457 
L 116.251779 236.559717 
L 118.067163 236.329043 
L 119.882548 236.53225 
L 125.328702 236.429746 
L 127.144087 236.475636 
L 130.774856 236.387071 
L 132.59024 236.31297 
L 134.405625 236.459035 
L 145.297933 236.22636 
L 150.744087 235.637397 
L 154.374856 234.877494 
L 158.005625 234.680979 
L 159.82101 234.7064 
L 161.636394 235.029409 
L 163.451779 235.694309 
L 165.267163 236.516136 
L 167.082548 237.163162 
L 168.897933 237.350962 
L 170.713317 237.418636 
L 172.528702 237.353446 
L 174.344087 236.951359 
L 176.159471 236.954179 
L 179.79024 235.833621 
L 181.605625 235.111325 
L 183.42101 233.957298 
L 185.236394 233.171081 
L 187.051779 234.058239 
L 188.867163 234.180968 
L 190.682548 234.069816 
L 192.497933 234.78116 
L 194.313317 234.961518 
L 196.128702 234.948855 
L 199.759471 233.60418 
L 201.574856 233.092398 
L 203.39024 232.965752 
L 205.205625 232.340657 
L 208.836394 230.113954 
L 210.651779 228.776841 
L 212.467163 227.937959 
L 214.282548 227.859671 
L 216.097933 227.150223 
L 219.728702 226.358423 
L 221.544087 224.914879 
L 223.359471 222.777963 
L 225.174856 220.842097 
L 228.805625 219.168787 
L 230.62101 217.925961 
L 234.251779 216.377806 
L 236.067163 214.215937 
L 237.882548 212.246977 
L 239.697933 211.620464 
L 241.513317 210.007856 
L 243.328702 207.731905 
L 248.774856 203.555551 
L 250.59024 202.334544 
L 252.405625 200.847389 
L 254.22101 199.661617 
L 256.036394 199.025624 
L 257.851779 198.256884 
L 259.667163 197.126234 
L 261.482548 196.650657 
L 265.113317 194.067526 
L 266.928702 193.63364 
L 268.744087 192.38079 
L 272.374856 189.124604 
L 274.19024 187.214584 
L 276.005625 186.263796 
L 277.82101 186.058005 
L 279.636394 185.115027 
L 281.451779 183.851355 
L 283.267163 182.84036 
L 285.082548 182.232361 
L 286.897933 181.976588 
L 290.528702 179.468566 
L 292.344087 179.155383 
L 294.159471 179.053188 
L 297.79024 177.004904 
L 301.42101 175.788552 
L 303.236394 175.497897 
L 305.051779 174.711934 
L 306.867163 173.788385 
L 310.497933 173.150877 
L 312.313317 172.338148 
L 315.944087 171.415972 
L 317.759471 170.658552 
L 319.574856 169.666098 
L 323.205625 168.454603 
L 325.02101 167.43053 
L 326.836394 166.593012 
L 328.651779 166.094765 
L 330.467163 166.001973 
L 332.282548 165.658164 
L 334.097933 164.842766 
L 335.913317 163.902234 
L 337.728702 163.226629 
L 339.544087 162.728406 
L 341.359471 162.50764 
L 346.805625 160.982386 
L 348.62101 160.831707 
L 352.251779 159.748588 
L 354.067163 159.188972 
L 359.513317 158.737223 
L 361.328702 158.782772 
L 363.144087 158.308775 
L 368.59024 157.599092 
L 372.22101 157.245941 
L 374.036394 156.623484 
L 375.851779 156.329377 
L 379.482548 154.966293 
L 383.113317 153.042369 
L 390.374856 150.601747 
L 394.005625 149.872288 
L 395.82101 149.851661 
L 401.267163 150.216706 
L 403.082548 150.23346 
L 404.897933 149.82456 
L 406.713317 149.288103 
L 412.159471 148.069375 
L 419.42101 147.445161 
L 423.051779 147.124585 
L 426.682548 146.542249 
L 428.497933 146.139345 
L 433.944087 144.104519 
L 437.574856 142.522642 
L 443.02101 140.644048 
L 446.651779 140.05805 
L 448.467163 139.717386 
L 452.097933 139.433799 
L 453.913317 139.5689 
L 457.544087 140.198003 
L 462.99024 141.179599 
L 464.805625 141.615628 
L 468.436394 142.145145 
L 470.251779 142.54706 
L 481.144087 143.074618 
L 482.959471 142.900899 
L 488.405625 141.976251 
L 490.22101 141.436571 
L 493.851779 139.989895 
L 499.297933 138.953475 
L 501.113317 138.693986 
L 502.928702 138.549473 
L 506.559471 138.839854 
L 510.19024 138.463959 
L 512.005625 138.239581 
L 515.636394 138.269905 
L 521.082548 137.215457 
L 522.897933 136.991364 
L 524.713317 137.140473 
L 526.528702 137.07165 
L 530.159471 137.23679 
L 531.974856 137.303617 
L 533.79024 137.72876 
L 537.42101 138.265446 
L 539.236394 138.901178 
L 541.051779 139.295622 
L 544.682548 140.6526 
L 548.313317 141.659905 
L 557.39024 143.295306 
L 559.205625 143.252622 
L 561.02101 143.392301 
L 564.651779 143.855998 
L 566.467163 144.112833 
L 570.097933 145.045263 
L 573.728702 145.33525 
L 580.99024 146.030686 
L 582.805625 145.622884 
L 586.436394 145.515167 
L 588.251779 145.223029 
L 590.067163 144.633075 
L 591.882548 144.423923 
L 593.697933 144.007176 
L 602.774856 142.729679 
L 606.405625 142.294373 
L 606.405625 142.294373 
" clip-path="url(#p66c2c0ca1e)" style="fill: none; stroke-dasharray: 5.55,2.4; stroke-dashoffset: 0; stroke: #000000; stroke-width: 1.5"/>
   </g>
   <g id="patch_9">
    <path d="M 36.465625 242.44 
L 36.465625 131.97 
" style="fill: none; stroke: #000000; stroke-width: 0.8; stroke-linejoin: miter; stroke-linecap: square"/>
   </g>
   <g id="patch_10">
    <path d="M 633.545625 242.44 
L 633.545625 131.97 
" style="fill: none; stroke: #000000; stroke-width: 0.8; stroke-linejoin: miter; stroke-linecap: square"/>
   </g>
   <g id="patch_11">
    <path d="M 36.465625 242.44 
L 633.545625 242.44 
" style="fill: none; stroke: #000000; stroke-width: 0.8; stroke-linejoin: miter; stroke-linecap: square"/>
   </g>
   <g id="patch_12">
    <path d="M 36.465625 131.97 
L 633.545625 131.97 
" style="fill: none; stroke: #000000; stroke-width: 0.8; stroke-linejoin: miter; stroke-linecap: square"/>
   </g>
   <g id="legend_2">
    <g id="patch_13">
     <path d="M 43.465625 170.648125 
L 82.465625 170.648125 
Q 84.465625 170.648125 84.465625 168.648125 
L 84.465625 138.97 
Q 84.465625 136.97 82.465625 136.97 
L 43.465625 136.97 
Q 41.465625 136.97 41.465625 138.97 
L 41.465625 168.648125 
Q 41.465625 170.648125 43.465625 170.648125 
z
" style="fill: #ffffff; opacity: 0.8; stroke: #cccccc; stroke-linejoin: miter"/>
    </g>
    <g id="line2d_30">
     <path d="M 45.465625 145.068437 
L 55.465625 145.068437 
L 65.465625 145.068437 
" style="fill: none; stroke: #1f77b4; stroke-width: 2; stroke-linecap: square"/>
    </g>
    <g id="text_20">
     <!-- $R$ -->
     <g transform="translate(73.465625 148.568437) scale(0.1 -0.1)">
      <defs>
       <path id="DejaVuSans-Oblique-52" d="M 1613 4147 
L 1294 2491 
L 2106 2491 
Q 2584 2491 2879 2755 
Q 3175 3019 3175 3444 
Q 3175 3784 2976 3965 
Q 2778 4147 2406 4147 
L 1613 4147 
z
M 2772 2241 
Q 2972 2194 3105 2009 
Q 3238 1825 3413 1275 
L 3809 0 
L 3144 0 
L 2778 1197 
Q 2638 1659 2453 1815 
Q 2269 1972 1888 1972 
L 1191 1972 
L 806 0 
L 172 0 
L 1081 4666 
L 2503 4666 
Q 3150 4666 3495 4373 
Q 3841 4081 3841 3531 
Q 3841 3044 3547 2687 
Q 3253 2331 2772 2241 
z
" transform="scale(0.015625)"/>
      </defs>
      <use xlink:href="#DejaVuSans-Oblique-52" transform="translate(0 0.09375)"/>
     </g>
    </g>
    <g id="line2d_31">
     <path d="M 45.465625 161.068437 
L 55.465625 161.068437 
L 65.465625 161.068437 
" style="fill: none; stroke-dasharray: 5.55,2.4; stroke-dashoffset: 0; stroke: #000000; stroke-width: 1.5"/>
    </g>
    <g id="text_21">
     <!-- $\hat R$ -->
     <g transform="translate(73.465625 164.568437) scale(0.1 -0.1)">
      <use xlink:href="#DejaVuSans-302" transform="translate(60.90625 30.015625)"/>
      <use xlink:href="#DejaVuSans-Oblique-52" transform="translate(0 0.609375)"/>
     </g>
    </g>
   </g>
  </g>
 </g>
 <defs>
  <clipPath id="p1b930d00ad">
   <rect x="36.465625" y="7.2" width="597.08" height="110.47"/>
  </clipPath>
  <clipPath id="p66c2c0ca1e">
   <rect x="36.465625" y="131.97" width="597.08" height="110.47"/>
  </clipPath>
 </defs>
</svg>
