<?xml version="1.0" encoding="utf-8" standalone="no"?>
<!DOCTYPE svg PUBLIC "-//W3C//DTD SVG 1.1//EN"
  "http://www.w3.org/Graphics/SVG/1.1/DTD/svg11.dtd">
<svg xmlns:xlink="http://www.w3.org/1999/xlink" width="640.773125pt" height="279.99625pt" viewBox="0 0 640.773125 279.99625" xmlns="http://www.w3.org/2000/svg" version="1.1">
 <metadata>
  <rdf:RDF xmlns:dc="http://purl.org/dc/elements/1.1/" xmlns:cc="http://creativecommons.org/ns#" xmlns:rdf="http://www.w3.org/1999/02/22-rdf-syntax-ns#">
   <cc:Work>
    <dc:type rdf:resource="http://purl.org/dc/dcmitype/StillImage"/>
    <dc:date>2025-06-19T16:32:54.647713</dc:date>
    <dc:format>image/svg+xml</dc:format>
    <dc:creator>
     <cc:Agent>
      <dc:title>Matplotlib v3.6.3, https://matplotlib.org/</dc:title>
     </cc:Agent>
    </dc:creator>
   </cc:Work>
  </rdf:RDF>
 </metadata>
 <defs>
  <style type="text/css">*{stroke-linejoin: round; stroke-linecap: butt}</style>
 </defs>
 <g id="figure_1">
  <g id="patch_1">
   <path d="M 0 279.99625 
L 640.773125 279.99625 
L 640.773125 0 
L 0 0 
z
" style="fill: #ffffff"/>
  </g>
  <g id="axes_1">
   <g id="patch_2">
    <path d="M 30.103125 117.67 
L 633.573125 117.67 
L 633.573125 7.2 
L 30.103125 7.2 
z
" style="fill: #ffffff"/>
   </g>
   <g id="matplotlib.axis_1">
    <g id="xtick_1">
     <g id="line2d_1">
      <defs>
       <path id="m3f66297655" d="M 0 0 
L 0 3.5 
" style="stroke: #000000; stroke-width: 0.8"/>
      </defs>
      <g>
       <use xlink:href="#m3f66297655" x="57.53358" y="117.67" style="stroke: #000000; stroke-width: 0.8"/>
      </g>
     </g>
    </g>
    <g id="xtick_2">
     <g id="line2d_2">
      <g>
       <use xlink:href="#m3f66297655" x="149.27423" y="117.67" style="stroke: #000000; stroke-width: 0.8"/>
      </g>
     </g>
    </g>
    <g id="xtick_3">
     <g id="line2d_3">
      <g>
       <use xlink:href="#m3f66297655" x="241.014881" y="117.67" style="stroke: #000000; stroke-width: 0.8"/>
      </g>
     </g>
    </g>
    <g id="xtick_4">
     <g id="line2d_4">
      <g>
       <use xlink:href="#m3f66297655" x="332.755532" y="117.67" style="stroke: #000000; stroke-width: 0.8"/>
      </g>
     </g>
    </g>
    <g id="xtick_5">
     <g id="line2d_5">
      <g>
       <use xlink:href="#m3f66297655" x="424.496182" y="117.67" style="stroke: #000000; stroke-width: 0.8"/>
      </g>
     </g>
    </g>
    <g id="xtick_6">
     <g id="line2d_6">
      <g>
       <use xlink:href="#m3f66297655" x="516.236833" y="117.67" style="stroke: #000000; stroke-width: 0.8"/>
      </g>
     </g>
    </g>
    <g id="xtick_7">
     <g id="line2d_7">
      <g>
       <use xlink:href="#m3f66297655" x="607.977483" y="117.67" style="stroke: #000000; stroke-width: 0.8"/>
      </g>
     </g>
    </g>
   </g>
   <g id="matplotlib.axis_2">
    <g id="ytick_1">
     <g id="line2d_8">
      <defs>
       <path id="m421a6cb2c8" d="M 0 0 
L -3.5 0 
" style="stroke: #000000; stroke-width: 0.8"/>
      </defs>
      <g>
       <use xlink:href="#m421a6cb2c8" x="30.103125" y="112.873963" style="stroke: #000000; stroke-width: 0.8"/>
      </g>
     </g>
     <g id="text_1">
      <!-- 0.4 -->
      <g transform="translate(7.2 116.673182) scale(0.1 -0.1)">
       <defs>
        <path id="DejaVuSans-30" d="M 2034 4250 
Q 1547 4250 1301 3770 
Q 1056 3291 1056 2328 
Q 1056 1369 1301 889 
Q 1547 409 2034 409 
Q 2525 409 2770 889 
Q 3016 1369 3016 2328 
Q 3016 3291 2770 3770 
Q 2525 4250 2034 4250 
z
M 2034 4750 
Q 2819 4750 3233 4129 
Q 3647 3509 3647 2328 
Q 3647 1150 3233 529 
Q 2819 -91 2034 -91 
Q 1250 -91 836 529 
Q 422 1150 422 2328 
Q 422 3509 836 4129 
Q 1250 4750 2034 4750 
z
" transform="scale(0.015625)"/>
        <path id="DejaVuSans-2e" d="M 684 794 
L 1344 794 
L 1344 0 
L 684 0 
L 684 794 
z
" transform="scale(0.015625)"/>
        <path id="DejaVuSans-34" d="M 2419 4116 
L 825 1625 
L 2419 1625 
L 2419 4116 
z
M 2253 4666 
L 3047 4666 
L 3047 1625 
L 3713 1625 
L 3713 1100 
L 3047 1100 
L 3047 0 
L 2419 0 
L 2419 1100 
L 313 1100 
L 313 1709 
L 2253 4666 
z
" transform="scale(0.015625)"/>
       </defs>
       <use xlink:href="#DejaVuSans-30"/>
       <use xlink:href="#DejaVuSans-2e" x="63.623047"/>
       <use xlink:href="#DejaVuSans-34" x="95.410156"/>
      </g>
     </g>
    </g>
    <g id="ytick_2">
     <g id="line2d_9">
      <g>
       <use xlink:href="#m421a6cb2c8" x="30.103125" y="79.59555" style="stroke: #000000; stroke-width: 0.8"/>
      </g>
     </g>
     <g id="text_2">
      <!-- 0.6 -->
      <g transform="translate(7.2 83.394769) scale(0.1 -0.1)">
       <defs>
        <path id="DejaVuSans-36" d="M 2113 2584 
Q 1688 2584 1439 2293 
Q 1191 2003 1191 1497 
Q 1191 994 1439 701 
Q 1688 409 2113 409 
Q 2538 409 2786 701 
Q 3034 994 3034 1497 
Q 3034 2003 2786 2293 
Q 2538 2584 2113 2584 
z
M 3366 4563 
L 3366 3988 
Q 3128 4100 2886 4159 
Q 2644 4219 2406 4219 
Q 1781 4219 1451 3797 
Q 1122 3375 1075 2522 
Q 1259 2794 1537 2939 
Q 1816 3084 2150 3084 
Q 2853 3084 3261 2657 
Q 3669 2231 3669 1497 
Q 3669 778 3244 343 
Q 2819 -91 2113 -91 
Q 1303 -91 875 529 
Q 447 1150 447 2328 
Q 447 3434 972 4092 
Q 1497 4750 2381 4750 
Q 2619 4750 2861 4703 
Q 3103 4656 3366 4563 
z
" transform="scale(0.015625)"/>
       </defs>
       <use xlink:href="#DejaVuSans-30"/>
       <use xlink:href="#DejaVuSans-2e" x="63.623047"/>
       <use xlink:href="#DejaVuSans-36" x="95.410156"/>
      </g>
     </g>
    </g>
    <g id="ytick_3">
     <g id="line2d_10">
      <g>
       <use xlink:href="#m421a6cb2c8" x="30.103125" y="46.317137" style="stroke: #000000; stroke-width: 0.8"/>
      </g>
     </g>
     <g id="text_3">
      <!-- 0.8 -->
      <g transform="translate(7.2 50.116356) scale(0.1 -0.1)">
       <defs>
        <path id="DejaVuSans-38" d="M 2034 2216 
Q 1584 2216 1326 1975 
Q 1069 1734 1069 1313 
Q 1069 891 1326 650 
Q 1584 409 2034 409 
Q 2484 409 2743 651 
Q 3003 894 3003 1313 
Q 3003 1734 2745 1975 
Q 2488 2216 2034 2216 
z
M 1403 2484 
Q 997 2584 770 2862 
Q 544 3141 544 3541 
Q 544 4100 942 4425 
Q 1341 4750 2034 4750 
Q 2731 4750 3128 4425 
Q 3525 4100 3525 3541 
Q 3525 3141 3298 2862 
Q 3072 2584 2669 2484 
Q 3125 2378 3379 2068 
Q 3634 1759 3634 1313 
Q 3634 634 3220 271 
Q 2806 -91 2034 -91 
Q 1263 -91 848 271 
Q 434 634 434 1313 
Q 434 1759 690 2068 
Q 947 2378 1403 2484 
z
M 1172 3481 
Q 1172 3119 1398 2916 
Q 1625 2713 2034 2713 
Q 2441 2713 2670 2916 
Q 2900 3119 2900 3481 
Q 2900 3844 2670 4047 
Q 2441 4250 2034 4250 
Q 1625 4250 1398 4047 
Q 1172 3844 1172 3481 
z
" transform="scale(0.015625)"/>
       </defs>
       <use xlink:href="#DejaVuSans-30"/>
       <use xlink:href="#DejaVuSans-2e" x="63.623047"/>
       <use xlink:href="#DejaVuSans-38" x="95.410156"/>
      </g>
     </g>
    </g>
    <g id="ytick_4">
     <g id="line2d_11">
      <g>
       <use xlink:href="#m421a6cb2c8" x="30.103125" y="13.038724" style="stroke: #000000; stroke-width: 0.8"/>
      </g>
     </g>
     <g id="text_4">
      <!-- 1.0 -->
      <g transform="translate(7.2 16.837943) scale(0.1 -0.1)">
       <defs>
        <path id="DejaVuSans-31" d="M 794 531 
L 1825 531 
L 1825 4091 
L 703 3866 
L 703 4441 
L 1819 4666 
L 2450 4666 
L 2450 531 
L 3481 531 
L 3481 0 
L 794 0 
L 794 531 
z
" transform="scale(0.015625)"/>
       </defs>
       <use xlink:href="#DejaVuSans-31"/>
       <use xlink:href="#DejaVuSans-2e" x="63.623047"/>
       <use xlink:href="#DejaVuSans-30" x="95.410156"/>
      </g>
     </g>
    </g>
   </g>
   <g id="line2d_12">
    <path d="M 57.53358 13.040388 
L 149.27423 13.162369 
L 176.796425 13.403497 
L 195.144556 13.773194 
L 207.988247 14.238037 
L 218.997125 14.86555 
L 228.17119 15.634989 
L 235.510442 16.458247 
L 241.014881 17.238333 
L 246.51932 18.201416 
L 252.023759 19.351201 
L 257.528198 20.728707 
L 263.032637 22.339913 
L 268.537076 24.242818 
L 272.206702 25.699011 
L 275.876328 27.29409 
L 279.545954 29.070605 
L 283.21558 31.032282 
L 286.885206 33.207256 
L 290.554832 35.576518 
L 294.224458 38.167371 
L 297.894084 40.927642 
L 301.56371 43.857718 
L 305.233336 46.941157 
L 310.737775 51.936368 
L 316.242214 57.28067 
L 340.094784 80.752917 
L 343.76441 84.06198 
L 347.434036 87.170985 
L 351.103662 89.992036 
L 354.773288 92.564462 
L 358.442914 94.968307 
L 362.11254 97.181474 
L 365.782166 99.220306 
L 371.286605 101.912714 
L 374.956231 103.531438 
L 378.625857 104.946127 
L 382.295483 106.148858 
L 387.799922 107.642454 
L 393.304361 108.869817 
L 398.8088 109.829455 
L 402.478426 110.296455 
L 407.982865 110.724329 
L 413.487304 110.94935 
L 418.991743 110.961145 
L 424.496182 110.819162 
L 431.835434 110.410571 
L 439.174686 109.794722 
L 446.513938 109.015455 
L 457.522816 107.564359 
L 470.366507 105.563965 
L 483.210199 103.348966 
L 510.732394 98.378429 
L 574.950849 86.6018 
L 596.968605 82.835964 
L 606.14267 81.336498 
L 606.14267 81.336498 
" clip-path="url(#p583f0ec989)" style="fill: none; stroke: #1f77b4; stroke-width: 2; stroke-linecap: square"/>
   </g>
   <g id="line2d_13">
    <path d="M 57.53358 12.811886 
L 61.203206 13.74451 
L 63.038019 12.717231 
L 66.707645 13.678716 
L 68.542458 13.81691 
L 70.377271 13.526399 
L 72.212084 13.428987 
L 74.046897 13.204351 
L 79.551336 12.930978 
L 81.386149 12.739387 
L 83.220962 12.66066 
L 85.055775 12.221364 
L 88.725401 12.334505 
L 90.560214 12.938972 
L 92.395027 12.825056 
L 94.22984 13.416431 
L 96.064653 13.368826 
L 97.899466 13.700793 
L 99.734279 13.225515 
L 101.569092 13.142801 
L 105.238718 12.664746 
L 108.908344 12.257107 
L 110.743157 12.593061 
L 114.412783 12.944684 
L 118.082409 12.792387 
L 119.917222 12.96934 
L 121.752035 12.78969 
L 123.586848 12.862188 
L 125.421661 12.569873 
L 127.256474 12.837057 
L 130.9261 13.01633 
L 132.760913 13.012085 
L 134.595726 13.159264 
L 136.430539 13.086726 
L 138.265352 13.248405 
L 140.100165 13.003655 
L 141.934978 13.239896 
L 143.769791 12.976659 
L 145.604604 13.069925 
L 147.439417 12.879961 
L 149.27423 12.988045 
L 151.109043 13.311244 
L 152.943856 13.058223 
L 156.613482 13.329453 
L 162.117921 13.481472 
L 163.952734 13.21883 
L 165.787547 13.280598 
L 167.62236 13.129491 
L 171.291986 13.138219 
L 173.126799 12.976818 
L 174.961612 13.288552 
L 178.631238 13.270403 
L 180.466051 13.381005 
L 182.300864 13.319257 
L 184.135677 13.559148 
L 185.97049 13.403201 
L 187.805303 13.479469 
L 189.640116 13.324811 
L 191.474929 13.596974 
L 193.309743 13.358333 
L 195.144556 13.496091 
L 196.979369 13.513546 
L 198.814182 13.380926 
L 200.648995 13.593324 
L 207.988247 13.688574 
L 209.82306 13.983171 
L 217.162312 13.982477 
L 218.997125 14.188508 
L 220.831938 14.542254 
L 222.666751 14.442124 
L 224.501564 14.561078 
L 226.336377 14.802753 
L 228.17119 14.928649 
L 230.006003 15.252959 
L 233.675629 15.362411 
L 239.180068 15.934129 
L 241.014881 16.549624 
L 242.849694 16.510449 
L 244.684507 17.030436 
L 246.51932 17.243906 
L 248.354133 17.723666 
L 250.188946 17.784918 
L 252.023759 18.119146 
L 253.858572 18.822115 
L 255.693385 19.048458 
L 257.528198 19.56789 
L 259.363011 19.544464 
L 261.197824 20.39495 
L 263.032637 20.791441 
L 264.86745 20.981584 
L 266.702263 21.793153 
L 268.537076 21.929185 
L 270.371889 23.027912 
L 272.206702 23.300491 
L 274.041515 23.968808 
L 281.380767 27.240591 
L 283.21558 28.32341 
L 285.050393 29.593634 
L 286.885206 30.628887 
L 290.554832 33.423726 
L 292.389645 35.262941 
L 294.224458 36.531708 
L 296.059271 38.588945 
L 297.894084 39.951037 
L 299.728897 42.044702 
L 301.56371 43.530141 
L 305.233336 46.950115 
L 308.902962 50.258296 
L 310.737775 51.803778 
L 312.572588 53.757602 
L 316.242214 56.830079 
L 318.077027 58.407406 
L 319.91184 60.44083 
L 321.746653 62.044281 
L 323.581466 63.466445 
L 327.251092 66.706273 
L 330.920718 70.552908 
L 334.590345 74.574839 
L 336.425158 76.809832 
L 338.259971 78.732009 
L 340.094784 80.981699 
L 345.599223 86.461479 
L 347.434036 87.800969 
L 351.103662 90.166776 
L 352.938475 91.148196 
L 354.773288 92.591584 
L 356.608101 93.79167 
L 363.947353 99.429906 
L 367.616979 101.743164 
L 371.286605 104.295638 
L 373.121418 105.261284 
L 374.956231 105.895141 
L 376.791044 106.718517 
L 378.625857 107.168718 
L 382.295483 107.622236 
L 384.130296 107.891647 
L 393.304361 110.413867 
L 395.139174 111.096436 
L 398.8088 112.036994 
L 400.643613 112.363397 
L 402.478426 112.543563 
L 404.313239 112.578692 
L 406.148052 112.461424 
L 411.652491 112.648636 
L 417.15693 112.464548 
L 420.826556 112.622989 
L 424.496182 112.560686 
L 426.330995 112.617767 
L 428.165808 112.460884 
L 431.835434 112.46194 
L 435.50506 112.138989 
L 437.339873 112.032809 
L 439.174686 112.079576 
L 442.844312 111.707582 
L 446.513938 110.976104 
L 452.018377 110.063186 
L 453.85319 109.643274 
L 455.688003 109.354206 
L 457.522816 108.891306 
L 461.192442 108.261742 
L 464.862068 107.417762 
L 472.201321 106.384448 
L 474.036134 106.067432 
L 475.870947 105.556108 
L 481.375386 104.664925 
L 483.210199 104.498312 
L 488.714638 103.419356 
L 496.05389 102.415547 
L 497.888703 102.31627 
L 499.723516 101.842902 
L 505.227955 100.962608 
L 518.071646 97.609514 
L 519.906459 97.254211 
L 521.741272 96.731477 
L 523.576085 96.428966 
L 527.245711 95.478708 
L 532.75015 94.496078 
L 534.584963 94.333913 
L 543.759028 92.590622 
L 545.593841 92.487934 
L 547.428654 92.180593 
L 549.263467 91.722046 
L 551.09828 91.438716 
L 556.602719 90.234098 
L 560.272345 89.558848 
L 562.107158 88.968644 
L 567.611597 87.887402 
L 569.44641 87.71038 
L 571.281223 87.330273 
L 573.116036 87.191662 
L 574.950849 86.755718 
L 593.298979 83.594022 
L 595.133792 83.089408 
L 596.968605 82.955459 
L 598.803418 82.546431 
L 602.473044 81.877777 
L 606.14267 81.076225 
L 606.14267 81.076225 
" clip-path="url(#p583f0ec989)" style="fill: none; stroke-dasharray: 5.55,2.4; stroke-dashoffset: 0; stroke: #000000; stroke-width: 1.5"/>
   </g>
   <g id="patch_3">
    <path d="M 30.103125 117.67 
L 30.103125 7.2 
" style="fill: none; stroke: #000000; stroke-width: 0.8; stroke-linejoin: miter; stroke-linecap: square"/>
   </g>
   <g id="patch_4">
    <path d="M 633.573125 117.67 
L 633.573125 7.2 
" style="fill: none; stroke: #000000; stroke-width: 0.8; stroke-linejoin: miter; stroke-linecap: square"/>
   </g>
   <g id="patch_5">
    <path d="M 30.103125 117.67 
L 633.573125 117.67 
" style="fill: none; stroke: #000000; stroke-width: 0.8; stroke-linejoin: miter; stroke-linecap: square"/>
   </g>
   <g id="patch_6">
    <path d="M 30.103125 7.2 
L 633.573125 7.2 
" style="fill: none; stroke: #000000; stroke-width: 0.8; stroke-linejoin: miter; stroke-linecap: square"/>
   </g>
   <g id="legend_1">
    <g id="patch_7">
     <path d="M 588.173125 46.178125 
L 626.573125 46.178125 
Q 628.573125 46.178125 628.573125 44.178125 
L 628.573125 14.2 
Q 628.573125 12.2 626.573125 12.2 
L 588.173125 12.2 
Q 586.173125 12.2 586.173125 14.2 
L 586.173125 44.178125 
Q 586.173125 46.178125 588.173125 46.178125 
z
" style="fill: #ffffff; opacity: 0.8; stroke: #cccccc; stroke-linejoin: miter"/>
    </g>
    <g id="line2d_14">
     <path d="M 590.173125 20.298437 
L 600.173125 20.298437 
L 610.173125 20.298437 
" style="fill: none; stroke: #1f77b4; stroke-width: 2; stroke-linecap: square"/>
    </g>
    <g id="text_5">
     <!-- $S$ -->
     <g transform="translate(618.173125 23.798437) scale(0.1 -0.1)">
      <defs>
       <path id="DejaVuSans-Oblique-53" d="M 3859 4513 
L 3738 3897 
Q 3422 4066 3111 4152 
Q 2800 4238 2509 4238 
Q 1944 4238 1609 3991 
Q 1275 3744 1275 3334 
Q 1275 3109 1398 2989 
Q 1522 2869 2034 2731 
L 2413 2638 
Q 3053 2472 3303 2217 
Q 3553 1963 3553 1503 
Q 3553 797 2998 353 
Q 2444 -91 1538 -91 
Q 1166 -91 791 -17 
Q 416 56 38 206 
L 166 856 
Q 513 641 861 531 
Q 1209 422 1556 422 
Q 2147 422 2503 684 
Q 2859 947 2859 1369 
Q 2859 1650 2717 1795 
Q 2575 1941 2106 2059 
L 1728 2156 
Q 1081 2325 845 2545 
Q 609 2766 609 3163 
Q 609 3859 1145 4304 
Q 1681 4750 2541 4750 
Q 2875 4750 3203 4690 
Q 3531 4631 3859 4513 
z
" transform="scale(0.015625)"/>
      </defs>
      <use xlink:href="#DejaVuSans-Oblique-53" transform="translate(0 0.78125)"/>
     </g>
    </g>
    <g id="line2d_15">
     <path d="M 590.173125 36.598437 
L 600.173125 36.598437 
L 610.173125 36.598437 
" style="fill: none; stroke-dasharray: 5.55,2.4; stroke-dashoffset: 0; stroke: #000000; stroke-width: 1.5"/>
    </g>
    <g id="text_6">
     <!-- $\hat S$ -->
     <g transform="translate(618.173125 40.098437) scale(0.1 -0.1)">
      <defs>
       <path id="DejaVuSans-302" d="M -1831 5119 
L -1369 5119 
L -603 3944 
L -1038 3944 
L -1600 4709 
L -2163 3944 
L -2597 3944 
L -1831 5119 
z
M -1600 3584 
L -1600 3584 
z
" transform="scale(0.015625)"/>
      </defs>
      <use xlink:href="#DejaVuSans-302" transform="translate(62.503906 31.015625)"/>
      <use xlink:href="#DejaVuSans-Oblique-53" transform="translate(0 0.296875)"/>
     </g>
    </g>
   </g>
  </g>
  <g id="axes_2">
   <g id="patch_8">
    <path d="M 30.103125 242.44 
L 633.573125 242.44 
L 633.573125 131.97 
L 30.103125 131.97 
z
" style="fill: #ffffff"/>
   </g>
   <g id="matplotlib.axis_3">
    <g id="xtick_8">
     <g id="line2d_16">
      <g>
       <use xlink:href="#m3f66297655" x="57.53358" y="242.44" style="stroke: #000000; stroke-width: 0.8"/>
      </g>
     </g>
     <g id="text_7">
      <!-- 0 -->
      <g transform="translate(54.35233 257.038437) scale(0.1 -0.1)">
       <use xlink:href="#DejaVuSans-30"/>
      </g>
     </g>
    </g>
    <g id="xtick_9">
     <g id="line2d_17">
      <g>
       <use xlink:href="#m3f66297655" x="149.27423" y="242.44" style="stroke: #000000; stroke-width: 0.8"/>
      </g>
     </g>
     <g id="text_8">
      <!-- 50 -->
      <g transform="translate(142.91173 257.038437) scale(0.1 -0.1)">
       <defs>
        <path id="DejaVuSans-35" d="M 691 4666 
L 3169 4666 
L 3169 4134 
L 1269 4134 
L 1269 2991 
Q 1406 3038 1543 3061 
Q 1681 3084 1819 3084 
Q 2600 3084 3056 2656 
Q 3513 2228 3513 1497 
Q 3513 744 3044 326 
Q 2575 -91 1722 -91 
Q 1428 -91 1123 -41 
Q 819 9 494 109 
L 494 744 
Q 775 591 1075 516 
Q 1375 441 1709 441 
Q 2250 441 2565 725 
Q 2881 1009 2881 1497 
Q 2881 1984 2565 2268 
Q 2250 2553 1709 2553 
Q 1456 2553 1204 2497 
Q 953 2441 691 2322 
L 691 4666 
z
" transform="scale(0.015625)"/>
       </defs>
       <use xlink:href="#DejaVuSans-35"/>
       <use xlink:href="#DejaVuSans-30" x="63.623047"/>
      </g>
     </g>
    </g>
    <g id="xtick_10">
     <g id="line2d_18">
      <g>
       <use xlink:href="#m3f66297655" x="241.014881" y="242.44" style="stroke: #000000; stroke-width: 0.8"/>
      </g>
     </g>
     <g id="text_9">
      <!-- 100 -->
      <g transform="translate(231.471131 257.038437) scale(0.1 -0.1)">
       <use xlink:href="#DejaVuSans-31"/>
       <use xlink:href="#DejaVuSans-30" x="63.623047"/>
       <use xlink:href="#DejaVuSans-30" x="127.246094"/>
      </g>
     </g>
    </g>
    <g id="xtick_11">
     <g id="line2d_19">
      <g>
       <use xlink:href="#m3f66297655" x="332.755532" y="242.44" style="stroke: #000000; stroke-width: 0.8"/>
      </g>
     </g>
     <g id="text_10">
      <!-- 150 -->
      <g transform="translate(323.211782 257.038437) scale(0.1 -0.1)">
       <use xlink:href="#DejaVuSans-31"/>
       <use xlink:href="#DejaVuSans-35" x="63.623047"/>
       <use xlink:href="#DejaVuSans-30" x="127.246094"/>
      </g>
     </g>
    </g>
    <g id="xtick_12">
     <g id="line2d_20">
      <g>
       <use xlink:href="#m3f66297655" x="424.496182" y="242.44" style="stroke: #000000; stroke-width: 0.8"/>
      </g>
     </g>
     <g id="text_11">
      <!-- 200 -->
      <g transform="translate(414.952432 257.038437) scale(0.1 -0.1)">
       <defs>
        <path id="DejaVuSans-32" d="M 1228 531 
L 3431 531 
L 3431 0 
L 469 0 
L 469 531 
Q 828 903 1448 1529 
Q 2069 2156 2228 2338 
Q 2531 2678 2651 2914 
Q 2772 3150 2772 3378 
Q 2772 3750 2511 3984 
Q 2250 4219 1831 4219 
Q 1534 4219 1204 4116 
Q 875 4013 500 3803 
L 500 4441 
Q 881 4594 1212 4672 
Q 1544 4750 1819 4750 
Q 2544 4750 2975 4387 
Q 3406 4025 3406 3419 
Q 3406 3131 3298 2873 
Q 3191 2616 2906 2266 
Q 2828 2175 2409 1742 
Q 1991 1309 1228 531 
z
" transform="scale(0.015625)"/>
       </defs>
       <use xlink:href="#DejaVuSans-32"/>
       <use xlink:href="#DejaVuSans-30" x="63.623047"/>
       <use xlink:href="#DejaVuSans-30" x="127.246094"/>
      </g>
     </g>
    </g>
    <g id="xtick_13">
     <g id="line2d_21">
      <g>
       <use xlink:href="#m3f66297655" x="516.236833" y="242.44" style="stroke: #000000; stroke-width: 0.8"/>
      </g>
     </g>
     <g id="text_12">
      <!-- 250 -->
      <g transform="translate(506.693083 257.038437) scale(0.1 -0.1)">
       <use xlink:href="#DejaVuSans-32"/>
       <use xlink:href="#DejaVuSans-35" x="63.623047"/>
       <use xlink:href="#DejaVuSans-30" x="127.246094"/>
      </g>
     </g>
    </g>
    <g id="xtick_14">
     <g id="line2d_22">
      <g>
       <use xlink:href="#m3f66297655" x="607.977483" y="242.44" style="stroke: #000000; stroke-width: 0.8"/>
      </g>
     </g>
     <g id="text_13">
      <!-- 300 -->
      <g transform="translate(598.433733 257.038437) scale(0.1 -0.1)">
       <defs>
        <path id="DejaVuSans-33" d="M 2597 2516 
Q 3050 2419 3304 2112 
Q 3559 1806 3559 1356 
Q 3559 666 3084 287 
Q 2609 -91 1734 -91 
Q 1441 -91 1130 -33 
Q 819 25 488 141 
L 488 750 
Q 750 597 1062 519 
Q 1375 441 1716 441 
Q 2309 441 2620 675 
Q 2931 909 2931 1356 
Q 2931 1769 2642 2001 
Q 2353 2234 1838 2234 
L 1294 2234 
L 1294 2753 
L 1863 2753 
Q 2328 2753 2575 2939 
Q 2822 3125 2822 3475 
Q 2822 3834 2567 4026 
Q 2313 4219 1838 4219 
Q 1578 4219 1281 4162 
Q 984 4106 628 3988 
L 628 4550 
Q 988 4650 1302 4700 
Q 1616 4750 1894 4750 
Q 2613 4750 3031 4423 
Q 3450 4097 3450 3541 
Q 3450 3153 3228 2886 
Q 3006 2619 2597 2516 
z
" transform="scale(0.015625)"/>
       </defs>
       <use xlink:href="#DejaVuSans-33"/>
       <use xlink:href="#DejaVuSans-30" x="63.623047"/>
       <use xlink:href="#DejaVuSans-30" x="127.246094"/>
      </g>
     </g>
    </g>
    <g id="text_14">
     <!-- time (days) -->
     <g transform="translate(303.249062 270.716562) scale(0.1 -0.1)">
      <defs>
       <path id="DejaVuSans-74" d="M 1172 4494 
L 1172 3500 
L 2356 3500 
L 2356 3053 
L 1172 3053 
L 1172 1153 
Q 1172 725 1289 603 
Q 1406 481 1766 481 
L 2356 481 
L 2356 0 
L 1766 0 
Q 1100 0 847 248 
Q 594 497 594 1153 
L 594 3053 
L 172 3053 
L 172 3500 
L 594 3500 
L 594 4494 
L 1172 4494 
z
" transform="scale(0.015625)"/>
       <path id="DejaVuSans-69" d="M 603 3500 
L 1178 3500 
L 1178 0 
L 603 0 
L 603 3500 
z
M 603 4863 
L 1178 4863 
L 1178 4134 
L 603 4134 
L 603 4863 
z
" transform="scale(0.015625)"/>
       <path id="DejaVuSans-6d" d="M 3328 2828 
Q 3544 3216 3844 3400 
Q 4144 3584 4550 3584 
Q 5097 3584 5394 3201 
Q 5691 2819 5691 2113 
L 5691 0 
L 5113 0 
L 5113 2094 
Q 5113 2597 4934 2840 
Q 4756 3084 4391 3084 
Q 3944 3084 3684 2787 
Q 3425 2491 3425 1978 
L 3425 0 
L 2847 0 
L 2847 2094 
Q 2847 2600 2669 2842 
Q 2491 3084 2119 3084 
Q 1678 3084 1418 2786 
Q 1159 2488 1159 1978 
L 1159 0 
L 581 0 
L 581 3500 
L 1159 3500 
L 1159 2956 
Q 1356 3278 1631 3431 
Q 1906 3584 2284 3584 
Q 2666 3584 2933 3390 
Q 3200 3197 3328 2828 
z
" transform="scale(0.015625)"/>
       <path id="DejaVuSans-65" d="M 3597 1894 
L 3597 1613 
L 953 1613 
Q 991 1019 1311 708 
Q 1631 397 2203 397 
Q 2534 397 2845 478 
Q 3156 559 3463 722 
L 3463 178 
Q 3153 47 2828 -22 
Q 2503 -91 2169 -91 
Q 1331 -91 842 396 
Q 353 884 353 1716 
Q 353 2575 817 3079 
Q 1281 3584 2069 3584 
Q 2775 3584 3186 3129 
Q 3597 2675 3597 1894 
z
M 3022 2063 
Q 3016 2534 2758 2815 
Q 2500 3097 2075 3097 
Q 1594 3097 1305 2825 
Q 1016 2553 972 2059 
L 3022 2063 
z
" transform="scale(0.015625)"/>
       <path id="DejaVuSans-20" transform="scale(0.015625)"/>
       <path id="DejaVuSans-28" d="M 1984 4856 
Q 1566 4138 1362 3434 
Q 1159 2731 1159 2009 
Q 1159 1288 1364 580 
Q 1569 -128 1984 -844 
L 1484 -844 
Q 1016 -109 783 600 
Q 550 1309 550 2009 
Q 550 2706 781 3412 
Q 1013 4119 1484 4856 
L 1984 4856 
z
" transform="scale(0.015625)"/>
       <path id="DejaVuSans-64" d="M 2906 2969 
L 2906 4863 
L 3481 4863 
L 3481 0 
L 2906 0 
L 2906 525 
Q 2725 213 2448 61 
Q 2172 -91 1784 -91 
Q 1150 -91 751 415 
Q 353 922 353 1747 
Q 353 2572 751 3078 
Q 1150 3584 1784 3584 
Q 2172 3584 2448 3432 
Q 2725 3281 2906 2969 
z
M 947 1747 
Q 947 1113 1208 752 
Q 1469 391 1925 391 
Q 2381 391 2643 752 
Q 2906 1113 2906 1747 
Q 2906 2381 2643 2742 
Q 2381 3103 1925 3103 
Q 1469 3103 1208 2742 
Q 947 2381 947 1747 
z
" transform="scale(0.015625)"/>
       <path id="DejaVuSans-61" d="M 2194 1759 
Q 1497 1759 1228 1600 
Q 959 1441 959 1056 
Q 959 750 1161 570 
Q 1363 391 1709 391 
Q 2188 391 2477 730 
Q 2766 1069 2766 1631 
L 2766 1759 
L 2194 1759 
z
M 3341 1997 
L 3341 0 
L 2766 0 
L 2766 531 
Q 2569 213 2275 61 
Q 1981 -91 1556 -91 
Q 1019 -91 701 211 
Q 384 513 384 1019 
Q 384 1609 779 1909 
Q 1175 2209 1959 2209 
L 2766 2209 
L 2766 2266 
Q 2766 2663 2505 2880 
Q 2244 3097 1772 3097 
Q 1472 3097 1187 3025 
Q 903 2953 641 2809 
L 641 3341 
Q 956 3463 1253 3523 
Q 1550 3584 1831 3584 
Q 2591 3584 2966 3190 
Q 3341 2797 3341 1997 
z
" transform="scale(0.015625)"/>
       <path id="DejaVuSans-79" d="M 2059 -325 
Q 1816 -950 1584 -1140 
Q 1353 -1331 966 -1331 
L 506 -1331 
L 506 -850 
L 844 -850 
Q 1081 -850 1212 -737 
Q 1344 -625 1503 -206 
L 1606 56 
L 191 3500 
L 800 3500 
L 1894 763 
L 2988 3500 
L 3597 3500 
L 2059 -325 
z
" transform="scale(0.015625)"/>
       <path id="DejaVuSans-73" d="M 2834 3397 
L 2834 2853 
Q 2591 2978 2328 3040 
Q 2066 3103 1784 3103 
Q 1356 3103 1142 2972 
Q 928 2841 928 2578 
Q 928 2378 1081 2264 
Q 1234 2150 1697 2047 
L 1894 2003 
Q 2506 1872 2764 1633 
Q 3022 1394 3022 966 
Q 3022 478 2636 193 
Q 2250 -91 1575 -91 
Q 1294 -91 989 -36 
Q 684 19 347 128 
L 347 722 
Q 666 556 975 473 
Q 1284 391 1588 391 
Q 1994 391 2212 530 
Q 2431 669 2431 922 
Q 2431 1156 2273 1281 
Q 2116 1406 1581 1522 
L 1381 1569 
Q 847 1681 609 1914 
Q 372 2147 372 2553 
Q 372 3047 722 3315 
Q 1072 3584 1716 3584 
Q 2034 3584 2315 3537 
Q 2597 3491 2834 3397 
z
" transform="scale(0.015625)"/>
       <path id="DejaVuSans-29" d="M 513 4856 
L 1013 4856 
Q 1481 4119 1714 3412 
Q 1947 2706 1947 2009 
Q 1947 1309 1714 600 
Q 1481 -109 1013 -844 
L 513 -844 
Q 928 -128 1133 580 
Q 1338 1288 1338 2009 
Q 1338 2731 1133 3434 
Q 928 4138 513 4856 
z
" transform="scale(0.015625)"/>
      </defs>
      <use xlink:href="#DejaVuSans-74"/>
      <use xlink:href="#DejaVuSans-69" x="39.208984"/>
      <use xlink:href="#DejaVuSans-6d" x="66.992188"/>
      <use xlink:href="#DejaVuSans-65" x="164.404297"/>
      <use xlink:href="#DejaVuSans-20" x="225.927734"/>
      <use xlink:href="#DejaVuSans-28" x="257.714844"/>
      <use xlink:href="#DejaVuSans-64" x="296.728516"/>
      <use xlink:href="#DejaVuSans-61" x="360.205078"/>
      <use xlink:href="#DejaVuSans-79" x="421.484375"/>
      <use xlink:href="#DejaVuSans-73" x="480.664062"/>
      <use xlink:href="#DejaVuSans-29" x="532.763672"/>
     </g>
    </g>
   </g>
   <g id="matplotlib.axis_4">
    <g id="ytick_5">
     <g id="line2d_23">
      <g>
       <use xlink:href="#m421a6cb2c8" x="30.103125" y="235.980956" style="stroke: #000000; stroke-width: 0.8"/>
      </g>
     </g>
     <g id="text_15">
      <!-- 0.0 -->
      <g transform="translate(7.2 239.780175) scale(0.1 -0.1)">
       <use xlink:href="#DejaVuSans-30"/>
       <use xlink:href="#DejaVuSans-2e" x="63.623047"/>
       <use xlink:href="#DejaVuSans-30" x="95.410156"/>
      </g>
     </g>
    </g>
    <g id="ytick_6">
     <g id="line2d_24">
      <g>
       <use xlink:href="#m421a6cb2c8" x="30.103125" y="193.97073" style="stroke: #000000; stroke-width: 0.8"/>
      </g>
     </g>
     <g id="text_16">
      <!-- 0.2 -->
      <g transform="translate(7.2 197.769949) scale(0.1 -0.1)">
       <use xlink:href="#DejaVuSans-30"/>
       <use xlink:href="#DejaVuSans-2e" x="63.623047"/>
       <use xlink:href="#DejaVuSans-32" x="95.410156"/>
      </g>
     </g>
    </g>
    <g id="ytick_7">
     <g id="line2d_25">
      <g>
       <use xlink:href="#m421a6cb2c8" x="30.103125" y="151.960505" style="stroke: #000000; stroke-width: 0.8"/>
      </g>
     </g>
     <g id="text_17">
      <!-- 0.4 -->
      <g transform="translate(7.2 155.759723) scale(0.1 -0.1)">
       <use xlink:href="#DejaVuSans-30"/>
       <use xlink:href="#DejaVuSans-2e" x="63.623047"/>
       <use xlink:href="#DejaVuSans-34" x="95.410156"/>
      </g>
     </g>
    </g>
   </g>
   <g id="line2d_26">
    <path d="M 57.53358 235.980956 
L 162.117921 235.863124 
L 191.474929 235.612764 
L 209.82306 235.237783 
L 222.666751 234.763189 
L 233.675629 234.126893 
L 242.849694 233.357881 
L 250.188946 232.523925 
L 257.528198 231.454039 
L 263.032637 230.470845 
L 268.537076 229.296129 
L 274.041515 227.898264 
L 279.545954 226.249258 
L 285.050393 224.29693 
L 290.554832 222.000166 
L 296.059271 219.335814 
L 301.56371 216.304083 
L 305.233336 214.083865 
L 308.902962 211.662656 
L 312.572588 209.063057 
L 318.077027 204.826069 
L 323.581466 200.246656 
L 329.085905 195.48237 
L 336.425158 188.822231 
L 349.268849 177.063927 
L 354.773288 172.41015 
L 360.277727 167.970497 
L 365.782166 163.797326 
L 371.286605 159.940004 
L 374.956231 157.507786 
L 380.46067 154.210482 
L 384.130296 152.268133 
L 389.634735 149.614004 
L 395.139174 147.266326 
L 398.8088 145.884476 
L 402.478426 144.671768 
L 406.148052 143.640919 
L 411.652491 142.363641 
L 415.322117 141.661623 
L 420.826556 140.838996 
L 426.330995 140.25305 
L 431.835434 139.879634 
L 437.339873 139.700095 
L 444.679125 139.701415 
L 452.018377 139.992373 
L 459.357629 140.514192 
L 466.696881 141.23374 
L 475.870947 142.345791 
L 488.714638 144.229241 
L 505.227955 146.962139 
L 519.906459 149.654472 
L 541.924215 153.965212 
L 606.14267 166.720143 
L 606.14267 166.720143 
" clip-path="url(#pce0ffc2cd3)" style="fill: none; stroke: #1f77b4; stroke-width: 2; stroke-linecap: square"/>
   </g>
   <g id="line2d_27">
    <path d="M 57.53358 236.873818 
L 59.368393 236.055882 
L 61.203206 236.093523 
L 63.038019 236.921404 
L 64.872832 237.418636 
L 66.707645 236.29278 
L 68.542458 235.489151 
L 70.377271 235.418647 
L 72.212084 235.841057 
L 75.88171 235.924021 
L 79.551336 235.758497 
L 81.386149 235.926982 
L 83.220962 236.219904 
L 85.055775 236.961396 
L 86.890588 236.833979 
L 88.725401 236.512831 
L 92.395027 236.340493 
L 94.22984 236.068292 
L 96.064653 235.430585 
L 97.899466 235.737097 
L 99.734279 235.517314 
L 101.569092 235.903764 
L 103.403905 235.977115 
L 108.908344 236.509047 
L 110.743157 236.451408 
L 112.57797 236.225475 
L 114.412783 236.328214 
L 119.917222 236.26783 
L 121.752035 236.012137 
L 123.586848 236.29631 
L 125.421661 236.199487 
L 127.256474 236.435373 
L 129.091287 236.179702 
L 130.9261 236.14869 
L 132.760913 236.345104 
L 134.595726 236.381806 
L 136.430539 236.036354 
L 138.265352 236.315985 
L 140.100165 236.169711 
L 141.934978 236.378955 
L 143.769791 236.029092 
L 145.604604 236.305985 
L 147.439417 236.235119 
L 151.109043 236.348832 
L 152.943856 236.005479 
L 154.778669 236.411285 
L 156.613482 236.440763 
L 158.448295 236.272244 
L 160.283108 236.36302 
L 162.117921 236.576311 
L 163.952734 236.351041 
L 165.787547 236.528056 
L 173.126799 236.343476 
L 174.961612 236.625612 
L 176.796425 236.477744 
L 178.631238 236.464307 
L 180.466051 236.633947 
L 182.300864 236.54307 
L 184.135677 236.665864 
L 185.97049 236.487773 
L 187.805303 236.609708 
L 189.640116 236.442259 
L 191.474929 236.606703 
L 193.309743 236.290297 
L 195.144556 236.421316 
L 196.979369 236.412928 
L 198.814182 236.201565 
L 200.648995 236.317547 
L 204.318621 236.282739 
L 207.988247 236.236452 
L 209.82306 236.360325 
L 211.657873 236.305228 
L 213.492686 236.404211 
L 222.666751 235.906299 
L 226.336377 235.846109 
L 228.17119 235.752306 
L 230.006003 235.833044 
L 233.675629 235.639078 
L 237.345255 235.153958 
L 239.180068 234.880944 
L 248.354133 234.548067 
L 253.858572 233.886153 
L 257.528198 233.830448 
L 259.363011 233.37049 
L 266.702263 232.609066 
L 268.537076 232.260481 
L 270.371889 232.191192 
L 274.041515 231.631434 
L 275.876328 231.051926 
L 279.545954 230.145514 
L 283.21558 228.771908 
L 286.885206 227.227763 
L 290.554832 224.989925 
L 294.224458 222.551538 
L 296.059271 220.957985 
L 297.894084 219.529217 
L 299.728897 217.790812 
L 303.398523 214.904504 
L 305.233336 213.236528 
L 307.068149 211.890388 
L 310.737775 209.567132 
L 312.572588 208.000564 
L 316.242214 206.19015 
L 318.077027 205.034808 
L 319.91184 203.287908 
L 323.581466 201.622307 
L 327.251092 199.104224 
L 332.755532 194.010909 
L 334.590345 192.040543 
L 336.425158 189.746245 
L 338.259971 188.152847 
L 340.094784 185.422931 
L 341.929597 183.808456 
L 343.76441 181.500771 
L 345.599223 179.550477 
L 351.103662 175.454671 
L 352.938475 174.756992 
L 354.773288 172.327338 
L 356.608101 171.44124 
L 358.442914 169.415944 
L 360.277727 168.367962 
L 362.11254 166.066907 
L 363.947353 164.340609 
L 365.782166 163.168509 
L 367.616979 161.79361 
L 369.451792 159.903775 
L 371.286605 157.452067 
L 373.121418 155.984063 
L 374.956231 155.603855 
L 376.791044 153.303201 
L 378.625857 152.915299 
L 380.46067 151.958118 
L 382.295483 152.152842 
L 384.130296 151.520243 
L 385.965109 150.279396 
L 387.799922 149.877115 
L 389.634735 148.533541 
L 391.469548 148.588479 
L 395.139174 145.991363 
L 396.973987 145.513912 
L 398.8088 144.247524 
L 402.478426 142.735262 
L 404.313239 142.284842 
L 406.148052 142.623759 
L 407.982865 141.632198 
L 409.817678 141.400446 
L 411.652491 140.331224 
L 413.487304 140.470703 
L 417.15693 140.438307 
L 418.991743 139.656313 
L 420.826556 139.175788 
L 422.661369 139.46579 
L 424.496182 138.960782 
L 426.330995 138.231459 
L 428.165808 138.816977 
L 430.000621 138.031358 
L 431.835434 137.582102 
L 433.670247 138.084049 
L 435.50506 137.794917 
L 437.339873 137.913876 
L 439.174686 137.024122 
L 442.844312 136.991364 
L 444.679125 137.454536 
L 446.513938 137.663088 
L 448.348751 137.559566 
L 452.018377 137.865236 
L 453.85319 138.390313 
L 455.688003 138.18004 
L 457.522816 138.989309 
L 459.357629 138.811412 
L 461.192442 139.075071 
L 463.027255 139.751841 
L 464.862068 140.11479 
L 466.696881 140.103954 
L 468.531694 140.331693 
L 470.366507 140.322992 
L 472.201321 140.711989 
L 474.036134 140.782508 
L 475.870947 141.562399 
L 477.70576 141.653883 
L 479.540573 141.975779 
L 481.375386 142.157106 
L 483.210199 142.126388 
L 485.045012 142.710379 
L 486.879825 142.962006 
L 488.714638 143.372876 
L 490.549451 143.538628 
L 492.384264 143.907756 
L 494.219077 143.979934 
L 496.05389 144.316222 
L 497.888703 144.116283 
L 499.723516 144.927938 
L 503.393142 144.897927 
L 507.062768 145.697556 
L 508.897581 146.232749 
L 510.732394 146.465672 
L 512.567207 146.874726 
L 514.40202 147.483725 
L 516.236833 147.682487 
L 518.071646 148.388084 
L 519.906459 148.654134 
L 521.741272 149.36914 
L 523.576085 149.557492 
L 525.410898 150.262607 
L 527.245711 150.770644 
L 529.080524 151.077253 
L 530.915337 151.554247 
L 532.75015 151.857457 
L 534.584963 152.029808 
L 536.419776 152.553458 
L 538.254589 152.82856 
L 540.089402 153.335415 
L 541.924215 153.293917 
L 543.759028 153.958298 
L 545.593841 153.787607 
L 549.263467 154.734809 
L 551.09828 154.849042 
L 554.767906 155.673034 
L 558.437532 156.320545 
L 560.272345 156.653878 
L 562.107158 157.414795 
L 565.776784 157.924973 
L 567.611597 158.538104 
L 569.44641 158.664268 
L 571.281223 159.221466 
L 573.116036 159.347242 
L 574.950849 159.982126 
L 580.455288 160.761685 
L 582.290101 161.33355 
L 584.124914 161.404864 
L 585.959727 162.000679 
L 589.629353 162.37519 
L 595.133792 163.755542 
L 596.968605 163.731691 
L 598.803418 164.266334 
L 600.638231 164.551659 
L 604.307857 165.47533 
L 606.14267 165.753255 
L 606.14267 165.753255 
" clip-path="url(#pce0ffc2cd3)" style="fill: none; stroke-dasharray: 5.55,2.4; stroke-dashoffset: 0; stroke: #000000; stroke-width: 1.5"/>
   </g>
   <g id="patch_9">
    <path d="M 30.103125 242.44 
L 30.103125 131.97 
" style="fill: none; stroke: #000000; stroke-width: 0.8; stroke-linejoin: miter; stroke-linecap: square"/>
   </g>
   <g id="patch_10">
    <path d="M 633.573125 242.44 
L 633.573125 131.97 
" style="fill: none; stroke: #000000; stroke-width: 0.8; stroke-linejoin: miter; stroke-linecap: square"/>
   </g>
   <g id="patch_11">
    <path d="M 30.103125 242.44 
L 633.573125 242.44 
" style="fill: none; stroke: #000000; stroke-width: 0.8; stroke-linejoin: miter; stroke-linecap: square"/>
   </g>
   <g id="patch_12">
    <path d="M 30.103125 131.97 
L 633.573125 131.97 
" style="fill: none; stroke: #000000; stroke-width: 0.8; stroke-linejoin: miter; stroke-linecap: square"/>
   </g>
   <g id="legend_2">
    <g id="patch_13">
     <path d="M 37.103125 170.648125 
L 76.103125 170.648125 
Q 78.103125 170.648125 78.103125 168.648125 
L 78.103125 138.97 
Q 78.103125 136.97 76.103125 136.97 
L 37.103125 136.97 
Q 35.103125 136.97 35.103125 138.97 
L 35.103125 168.648125 
Q 35.103125 170.648125 37.103125 170.648125 
z
" style="fill: #ffffff; opacity: 0.8; stroke: #cccccc; stroke-linejoin: miter"/>
    </g>
    <g id="line2d_28">
     <path d="M 39.103125 145.068437 
L 49.103125 145.068437 
L 59.103125 145.068437 
" style="fill: none; stroke: #1f77b4; stroke-width: 2; stroke-linecap: square"/>
    </g>
    <g id="text_18">
     <!-- $R$ -->
     <g transform="translate(67.103125 148.568437) scale(0.1 -0.1)">
      <defs>
       <path id="DejaVuSans-Oblique-52" d="M 1613 4147 
L 1294 2491 
L 2106 2491 
Q 2584 2491 2879 2755 
Q 3175 3019 3175 3444 
Q 3175 3784 2976 3965 
Q 2778 4147 2406 4147 
L 1613 4147 
z
M 2772 2241 
Q 2972 2194 3105 2009 
Q 3238 1825 3413 1275 
L 3809 0 
L 3144 0 
L 2778 1197 
Q 2638 1659 2453 1815 
Q 2269 1972 1888 1972 
L 1191 1972 
L 806 0 
L 172 0 
L 1081 4666 
L 2503 4666 
Q 3150 4666 3495 4373 
Q 3841 4081 3841 3531 
Q 3841 3044 3547 2687 
Q 3253 2331 2772 2241 
z
" transform="scale(0.015625)"/>
      </defs>
      <use xlink:href="#DejaVuSans-Oblique-52" transform="translate(0 0.09375)"/>
     </g>
    </g>
    <g id="line2d_29">
     <path d="M 39.103125 161.068437 
L 49.103125 161.068437 
L 59.103125 161.068437 
" style="fill: none; stroke-dasharray: 5.55,2.4; stroke-dashoffset: 0; stroke: #000000; stroke-width: 1.5"/>
    </g>
    <g id="text_19">
     <!-- $\hat R$ -->
     <g transform="translate(67.103125 164.568437) scale(0.1 -0.1)">
      <use xlink:href="#DejaVuSans-302" transform="translate(60.90625 30.015625)"/>
      <use xlink:href="#DejaVuSans-Oblique-52" transform="translate(0 0.609375)"/>
     </g>
    </g>
   </g>
  </g>
 </g>
 <defs>
  <clipPath id="p583f0ec989">
   <rect x="30.103125" y="7.2" width="603.47" height="110.47"/>
  </clipPath>
  <clipPath id="pce0ffc2cd3">
   <rect x="30.103125" y="131.97" width="603.47" height="110.47"/>
  </clipPath>
 </defs>
</svg>
