<?xml version="1.0" encoding="utf-8" standalone="no"?>
<!DOCTYPE svg PUBLIC "-//W3C//DTD SVG 1.1//EN"
  "http://www.w3.org/Graphics/SVG/1.1/DTD/svg11.dtd">
<svg xmlns:xlink="http://www.w3.org/1999/xlink" width="640.745625pt" height="279.99625pt" viewBox="0 0 640.745625 279.99625" xmlns="http://www.w3.org/2000/svg" version="1.1">
 <metadata>
  <rdf:RDF xmlns:dc="http://purl.org/dc/elements/1.1/" xmlns:cc="http://creativecommons.org/ns#" xmlns:rdf="http://www.w3.org/1999/02/22-rdf-syntax-ns#">
   <cc:Work>
    <dc:type rdf:resource="http://purl.org/dc/dcmitype/StillImage"/>
    <dc:date>2025-05-29T10:34:31.280760</dc:date>
    <dc:format>image/svg+xml</dc:format>
    <dc:creator>
     <cc:Agent>
      <dc:title>Matplotlib v3.6.3, https://matplotlib.org/</dc:title>
     </cc:Agent>
    </dc:creator>
   </cc:Work>
  </rdf:RDF>
 </metadata>
 <defs>
  <style type="text/css">*{stroke-linejoin: round; stroke-linecap: butt}</style>
 </defs>
 <g id="figure_1">
  <g id="patch_1">
   <path d="M 0 279.99625 
L 640.745625 279.99625 
L 640.745625 0 
L 0 0 
z
" style="fill: #ffffff"/>
  </g>
  <g id="axes_1">
   <g id="patch_2">
    <path d="M 36.465625 117.67 
L 633.545625 117.67 
L 633.545625 7.2 
L 36.465625 7.2 
z
" style="fill: #ffffff"/>
   </g>
   <g id="matplotlib.axis_1">
    <g id="xtick_1">
     <g id="line2d_1">
      <defs>
       <path id="m95913deb62" d="M 0 0 
L 0 3.5 
" style="stroke: #000000; stroke-width: 0.8"/>
      </defs>
      <g>
       <use xlink:href="#m95913deb62" x="63.605625" y="117.67" style="stroke: #000000; stroke-width: 0.8"/>
      </g>
     </g>
    </g>
    <g id="xtick_2">
     <g id="line2d_2">
      <g>
       <use xlink:href="#m95913deb62" x="154.374856" y="117.67" style="stroke: #000000; stroke-width: 0.8"/>
      </g>
     </g>
    </g>
    <g id="xtick_3">
     <g id="line2d_3">
      <g>
       <use xlink:href="#m95913deb62" x="245.144087" y="117.67" style="stroke: #000000; stroke-width: 0.8"/>
      </g>
     </g>
    </g>
    <g id="xtick_4">
     <g id="line2d_4">
      <g>
       <use xlink:href="#m95913deb62" x="335.913317" y="117.67" style="stroke: #000000; stroke-width: 0.8"/>
      </g>
     </g>
    </g>
    <g id="xtick_5">
     <g id="line2d_5">
      <g>
       <use xlink:href="#m95913deb62" x="426.682548" y="117.67" style="stroke: #000000; stroke-width: 0.8"/>
      </g>
     </g>
    </g>
    <g id="xtick_6">
     <g id="line2d_6">
      <g>
       <use xlink:href="#m95913deb62" x="517.451779" y="117.67" style="stroke: #000000; stroke-width: 0.8"/>
      </g>
     </g>
    </g>
    <g id="xtick_7">
     <g id="line2d_7">
      <g>
       <use xlink:href="#m95913deb62" x="608.22101" y="117.67" style="stroke: #000000; stroke-width: 0.8"/>
      </g>
     </g>
    </g>
   </g>
   <g id="matplotlib.axis_2">
    <g id="ytick_1">
     <g id="line2d_8">
      <defs>
       <path id="m9cb0b30ef6" d="M 0 0 
L -3.5 0 
" style="stroke: #000000; stroke-width: 0.8"/>
      </defs>
      <g>
       <use xlink:href="#m9cb0b30ef6" x="36.465625" y="114.155969" style="stroke: #000000; stroke-width: 0.8"/>
      </g>
     </g>
     <g id="text_1">
      <!-- 0.00 -->
      <g transform="translate(7.2 117.955187) scale(0.1 -0.1)">
       <defs>
        <path id="DejaVuSans-30" d="M 2034 4250 
Q 1547 4250 1301 3770 
Q 1056 3291 1056 2328 
Q 1056 1369 1301 889 
Q 1547 409 2034 409 
Q 2525 409 2770 889 
Q 3016 1369 3016 2328 
Q 3016 3291 2770 3770 
Q 2525 4250 2034 4250 
z
M 2034 4750 
Q 2819 4750 3233 4129 
Q 3647 3509 3647 2328 
Q 3647 1150 3233 529 
Q 2819 -91 2034 -91 
Q 1250 -91 836 529 
Q 422 1150 422 2328 
Q 422 3509 836 4129 
Q 1250 4750 2034 4750 
z
" transform="scale(0.015625)"/>
        <path id="DejaVuSans-2e" d="M 684 794 
L 1344 794 
L 1344 0 
L 684 0 
L 684 794 
z
" transform="scale(0.015625)"/>
       </defs>
       <use xlink:href="#DejaVuSans-30"/>
       <use xlink:href="#DejaVuSans-2e" x="63.623047"/>
       <use xlink:href="#DejaVuSans-30" x="95.410156"/>
       <use xlink:href="#DejaVuSans-30" x="159.033203"/>
      </g>
     </g>
    </g>
    <g id="ytick_2">
     <g id="line2d_9">
      <g>
       <use xlink:href="#m9cb0b30ef6" x="36.465625" y="88.746792" style="stroke: #000000; stroke-width: 0.8"/>
      </g>
     </g>
     <g id="text_2">
      <!-- 0.25 -->
      <g transform="translate(7.2 92.54601) scale(0.1 -0.1)">
       <defs>
        <path id="DejaVuSans-32" d="M 1228 531 
L 3431 531 
L 3431 0 
L 469 0 
L 469 531 
Q 828 903 1448 1529 
Q 2069 2156 2228 2338 
Q 2531 2678 2651 2914 
Q 2772 3150 2772 3378 
Q 2772 3750 2511 3984 
Q 2250 4219 1831 4219 
Q 1534 4219 1204 4116 
Q 875 4013 500 3803 
L 500 4441 
Q 881 4594 1212 4672 
Q 1544 4750 1819 4750 
Q 2544 4750 2975 4387 
Q 3406 4025 3406 3419 
Q 3406 3131 3298 2873 
Q 3191 2616 2906 2266 
Q 2828 2175 2409 1742 
Q 1991 1309 1228 531 
z
" transform="scale(0.015625)"/>
        <path id="DejaVuSans-35" d="M 691 4666 
L 3169 4666 
L 3169 4134 
L 1269 4134 
L 1269 2991 
Q 1406 3038 1543 3061 
Q 1681 3084 1819 3084 
Q 2600 3084 3056 2656 
Q 3513 2228 3513 1497 
Q 3513 744 3044 326 
Q 2575 -91 1722 -91 
Q 1428 -91 1123 -41 
Q 819 9 494 109 
L 494 744 
Q 775 591 1075 516 
Q 1375 441 1709 441 
Q 2250 441 2565 725 
Q 2881 1009 2881 1497 
Q 2881 1984 2565 2268 
Q 2250 2553 1709 2553 
Q 1456 2553 1204 2497 
Q 953 2441 691 2322 
L 691 4666 
z
" transform="scale(0.015625)"/>
       </defs>
       <use xlink:href="#DejaVuSans-30"/>
       <use xlink:href="#DejaVuSans-2e" x="63.623047"/>
       <use xlink:href="#DejaVuSans-32" x="95.410156"/>
       <use xlink:href="#DejaVuSans-35" x="159.033203"/>
      </g>
     </g>
    </g>
    <g id="ytick_3">
     <g id="line2d_10">
      <g>
       <use xlink:href="#m9cb0b30ef6" x="36.465625" y="63.337615" style="stroke: #000000; stroke-width: 0.8"/>
      </g>
     </g>
     <g id="text_3">
      <!-- 0.50 -->
      <g transform="translate(7.2 67.136833) scale(0.1 -0.1)">
       <use xlink:href="#DejaVuSans-30"/>
       <use xlink:href="#DejaVuSans-2e" x="63.623047"/>
       <use xlink:href="#DejaVuSans-35" x="95.410156"/>
       <use xlink:href="#DejaVuSans-30" x="159.033203"/>
      </g>
     </g>
    </g>
    <g id="ytick_4">
     <g id="line2d_11">
      <g>
       <use xlink:href="#m9cb0b30ef6" x="36.465625" y="37.928438" style="stroke: #000000; stroke-width: 0.8"/>
      </g>
     </g>
     <g id="text_4">
      <!-- 0.75 -->
      <g transform="translate(7.2 41.727656) scale(0.1 -0.1)">
       <defs>
        <path id="DejaVuSans-37" d="M 525 4666 
L 3525 4666 
L 3525 4397 
L 1831 0 
L 1172 0 
L 2766 4134 
L 525 4134 
L 525 4666 
z
" transform="scale(0.015625)"/>
       </defs>
       <use xlink:href="#DejaVuSans-30"/>
       <use xlink:href="#DejaVuSans-2e" x="63.623047"/>
       <use xlink:href="#DejaVuSans-37" x="95.410156"/>
       <use xlink:href="#DejaVuSans-35" x="159.033203"/>
      </g>
     </g>
    </g>
    <g id="ytick_5">
     <g id="line2d_12">
      <g>
       <use xlink:href="#m9cb0b30ef6" x="36.465625" y="12.519261" style="stroke: #000000; stroke-width: 0.8"/>
      </g>
     </g>
     <g id="text_5">
      <!-- 1.00 -->
      <g transform="translate(7.2 16.318479) scale(0.1 -0.1)">
       <defs>
        <path id="DejaVuSans-31" d="M 794 531 
L 1825 531 
L 1825 4091 
L 703 3866 
L 703 4441 
L 1819 4666 
L 2450 4666 
L 2450 531 
L 3481 531 
L 3481 0 
L 794 0 
L 794 531 
z
" transform="scale(0.015625)"/>
       </defs>
       <use xlink:href="#DejaVuSans-31"/>
       <use xlink:href="#DejaVuSans-2e" x="63.623047"/>
       <use xlink:href="#DejaVuSans-30" x="95.410156"/>
       <use xlink:href="#DejaVuSans-30" x="159.033203"/>
      </g>
     </g>
    </g>
   </g>
   <g id="line2d_13">
    <path d="M 63.605625 12.520277 
L 83.574856 12.620861 
L 89.02101 12.858053 
L 92.651779 13.270667 
L 94.467163 13.638201 
L 96.282548 14.185503 
L 98.097933 14.994427 
L 99.913317 16.177991 
L 101.728702 17.885798 
L 103.544087 20.368146 
L 105.359471 23.922007 
L 107.174856 28.88244 
L 108.99024 35.497044 
L 110.805625 43.901526 
L 112.62101 53.96452 
L 116.251779 76.528365 
L 118.067163 86.705044 
L 119.882548 94.8575 
L 121.697933 100.886819 
L 123.513317 105.004182 
L 125.328702 107.697251 
L 127.144087 109.415058 
L 128.959471 110.500628 
L 130.774856 111.189742 
L 132.59024 111.621179 
L 136.22101 112.045521 
L 139.851779 112.135726 
L 145.297933 111.947385 
L 152.559471 111.390567 
L 161.636394 110.414539 
L 172.528702 108.979145 
L 187.051779 106.80445 
L 214.282548 102.439092 
L 252.405625 96.398332 
L 277.82101 92.589126 
L 299.605625 89.548747 
L 317.759471 87.243703 
L 332.282548 85.60577 
L 344.99024 84.409714 
L 355.882548 83.626734 
L 363.144087 83.2993 
L 370.405625 83.180117 
L 377.667163 83.300805 
L 384.928702 83.707 
L 390.374856 84.228547 
L 395.82101 84.956405 
L 401.267163 85.871662 
L 406.713317 87.015704 
L 419.42101 90.133802 
L 433.944087 93.684683 
L 439.39024 94.81938 
L 446.651779 96.113293 
L 453.913317 97.11626 
L 461.174856 97.908761 
L 468.436394 98.460991 
L 475.697933 98.778255 
L 482.959471 98.904066 
L 492.036394 98.856358 
L 504.744087 98.537685 
L 519.267163 97.912659 
L 533.79024 97.042451 
L 562.836394 94.924847 
L 593.697933 92.815362 
L 606.405625 92.067701 
L 606.405625 92.067701 
" clip-path="url(#p122e8cfd0e)" style="fill: none; stroke: #1f77b4; stroke-width: 2; stroke-linecap: square"/>
   </g>
   <g id="line2d_14">
    <path d="M 63.605625 12.821925 
L 67.236394 12.794561 
L 69.051779 12.386069 
L 70.867163 12.221364 
L 74.497933 12.333158 
L 76.313317 12.437768 
L 83.574856 12.352084 
L 87.205625 12.603401 
L 92.651779 13.49482 
L 94.467163 14.028356 
L 96.282548 14.706151 
L 99.913317 16.373809 
L 101.728702 17.697717 
L 103.544087 19.605072 
L 105.359471 22.557012 
L 107.174856 27.143842 
L 108.99024 33.980123 
L 112.62101 52.560694 
L 114.436394 63.40796 
L 116.251779 75.251301 
L 118.067163 85.860745 
L 119.882548 94.005783 
L 121.697933 100.180311 
L 123.513317 104.68148 
L 125.328702 107.830427 
L 127.144087 109.749492 
L 128.959471 110.850343 
L 130.774856 111.317296 
L 132.59024 111.554952 
L 138.036394 111.884344 
L 141.667163 112.408739 
L 143.482548 112.564091 
L 145.297933 112.398586 
L 148.928702 112.648636 
L 150.744087 112.48994 
L 154.374856 112.38962 
L 156.19024 112.214107 
L 158.005625 112.304153 
L 159.82101 112.176559 
L 161.636394 112.237891 
L 163.451779 112.004075 
L 168.897933 111.843477 
L 170.713317 111.556866 
L 172.528702 111.434536 
L 174.344087 111.457515 
L 177.974856 110.888139 
L 183.42101 110.353749 
L 185.236394 109.988057 
L 187.051779 109.834304 
L 192.497933 109.117453 
L 214.282548 106.051871 
L 217.913317 105.409194 
L 219.728702 105.224824 
L 225.174856 104.2379 
L 226.99024 104.00784 
L 228.805625 103.597313 
L 230.62101 103.451448 
L 234.251779 102.744652 
L 236.067163 102.598024 
L 239.697933 101.909548 
L 241.513317 101.786637 
L 243.328702 101.371935 
L 245.144087 101.23569 
L 250.59024 100.40516 
L 252.405625 100.192808 
L 254.22101 99.833622 
L 277.82101 96.664212 
L 279.636394 96.285155 
L 281.451779 96.057804 
L 283.267163 95.58649 
L 285.082548 95.289005 
L 286.897933 94.723864 
L 288.713317 94.367495 
L 290.528702 93.788312 
L 292.344087 93.338807 
L 301.42101 90.362884 
L 305.051779 88.893347 
L 315.944087 84.516791 
L 321.39024 83.066023 
L 326.836394 82.467587 
L 328.651779 82.437309 
L 330.467163 82.627931 
L 332.282548 82.968307 
L 334.097933 83.186141 
L 337.728702 83.855758 
L 341.359471 84.274113 
L 343.174856 84.553127 
L 344.99024 84.666982 
L 348.62101 84.587295 
L 352.251779 84.282261 
L 354.067163 84.192372 
L 357.697933 83.780633 
L 359.513317 83.681566 
L 363.144087 83.228063 
L 370.405625 83.174031 
L 379.482548 84.311303 
L 384.928702 85.036315 
L 401.267163 86.575561 
L 406.713317 87.245723 
L 410.344087 87.619473 
L 413.974856 88.362846 
L 419.42101 89.828584 
L 426.682548 91.864685 
L 443.02101 95.534367 
L 453.913317 97.335004 
L 459.359471 97.740183 
L 464.805625 98.086114 
L 470.251779 98.208837 
L 473.882548 98.413919 
L 486.59024 98.640423 
L 501.113317 98.182885 
L 506.559471 97.847525 
L 519.267163 97.241698 
L 530.159471 96.861 
L 542.867163 96.405062 
L 548.313317 95.968248 
L 571.913317 93.75254 
L 577.359471 93.537637 
L 582.805625 93.273732 
L 588.251779 92.902908 
L 595.513317 92.284821 
L 600.959471 92.095229 
L 606.405625 92.052265 
L 606.405625 92.052265 
" clip-path="url(#p122e8cfd0e)" style="fill: none; stroke-dasharray: 5.55,2.4; stroke-dashoffset: 0; stroke: #000000; stroke-width: 1.5"/>
   </g>
   <g id="patch_3">
    <path d="M 36.465625 117.67 
L 36.465625 7.2 
" style="fill: none; stroke: #000000; stroke-width: 0.8; stroke-linejoin: miter; stroke-linecap: square"/>
   </g>
   <g id="patch_4">
    <path d="M 633.545625 117.67 
L 633.545625 7.2 
" style="fill: none; stroke: #000000; stroke-width: 0.8; stroke-linejoin: miter; stroke-linecap: square"/>
   </g>
   <g id="patch_5">
    <path d="M 36.465625 117.67 
L 633.545625 117.67 
" style="fill: none; stroke: #000000; stroke-width: 0.8; stroke-linejoin: miter; stroke-linecap: square"/>
   </g>
   <g id="patch_6">
    <path d="M 36.465625 7.2 
L 633.545625 7.2 
" style="fill: none; stroke: #000000; stroke-width: 0.8; stroke-linejoin: miter; stroke-linecap: square"/>
   </g>
   <g id="legend_1">
    <g id="patch_7">
     <path d="M 588.145625 46.178125 
L 626.545625 46.178125 
Q 628.545625 46.178125 628.545625 44.178125 
L 628.545625 14.2 
Q 628.545625 12.2 626.545625 12.2 
L 588.145625 12.2 
Q 586.145625 12.2 586.145625 14.2 
L 586.145625 44.178125 
Q 586.145625 46.178125 588.145625 46.178125 
z
" style="fill: #ffffff; opacity: 0.8; stroke: #cccccc; stroke-linejoin: miter"/>
    </g>
    <g id="line2d_15">
     <path d="M 590.145625 20.298437 
L 600.145625 20.298437 
L 610.145625 20.298437 
" style="fill: none; stroke: #1f77b4; stroke-width: 2; stroke-linecap: square"/>
    </g>
    <g id="text_6">
     <!-- $S$ -->
     <g transform="translate(618.145625 23.798437) scale(0.1 -0.1)">
      <defs>
       <path id="DejaVuSans-Oblique-53" d="M 3859 4513 
L 3738 3897 
Q 3422 4066 3111 4152 
Q 2800 4238 2509 4238 
Q 1944 4238 1609 3991 
Q 1275 3744 1275 3334 
Q 1275 3109 1398 2989 
Q 1522 2869 2034 2731 
L 2413 2638 
Q 3053 2472 3303 2217 
Q 3553 1963 3553 1503 
Q 3553 797 2998 353 
Q 2444 -91 1538 -91 
Q 1166 -91 791 -17 
Q 416 56 38 206 
L 166 856 
Q 513 641 861 531 
Q 1209 422 1556 422 
Q 2147 422 2503 684 
Q 2859 947 2859 1369 
Q 2859 1650 2717 1795 
Q 2575 1941 2106 2059 
L 1728 2156 
Q 1081 2325 845 2545 
Q 609 2766 609 3163 
Q 609 3859 1145 4304 
Q 1681 4750 2541 4750 
Q 2875 4750 3203 4690 
Q 3531 4631 3859 4513 
z
" transform="scale(0.015625)"/>
      </defs>
      <use xlink:href="#DejaVuSans-Oblique-53" transform="translate(0 0.78125)"/>
     </g>
    </g>
    <g id="line2d_16">
     <path d="M 590.145625 36.598437 
L 600.145625 36.598437 
L 610.145625 36.598437 
" style="fill: none; stroke-dasharray: 5.55,2.4; stroke-dashoffset: 0; stroke: #000000; stroke-width: 1.5"/>
    </g>
    <g id="text_7">
     <!-- $\hat S$ -->
     <g transform="translate(618.145625 40.098437) scale(0.1 -0.1)">
      <defs>
       <path id="DejaVuSans-302" d="M -1831 5119 
L -1369 5119 
L -603 3944 
L -1038 3944 
L -1600 4709 
L -2163 3944 
L -2597 3944 
L -1831 5119 
z
M -1600 3584 
L -1600 3584 
z
" transform="scale(0.015625)"/>
      </defs>
      <use xlink:href="#DejaVuSans-302" transform="translate(62.503906 31.015625)"/>
      <use xlink:href="#DejaVuSans-Oblique-53" transform="translate(0 0.296875)"/>
     </g>
    </g>
   </g>
  </g>
  <g id="axes_2">
   <g id="patch_8">
    <path d="M 36.465625 242.44 
L 633.545625 242.44 
L 633.545625 131.97 
L 36.465625 131.97 
z
" style="fill: #ffffff"/>
   </g>
   <g id="matplotlib.axis_3">
    <g id="xtick_8">
     <g id="line2d_17">
      <g>
       <use xlink:href="#m95913deb62" x="63.605625" y="242.44" style="stroke: #000000; stroke-width: 0.8"/>
      </g>
     </g>
     <g id="text_8">
      <!-- 0 -->
      <g transform="translate(60.424375 257.038437) scale(0.1 -0.1)">
       <use xlink:href="#DejaVuSans-30"/>
      </g>
     </g>
    </g>
    <g id="xtick_9">
     <g id="line2d_18">
      <g>
       <use xlink:href="#m95913deb62" x="154.374856" y="242.44" style="stroke: #000000; stroke-width: 0.8"/>
      </g>
     </g>
     <g id="text_9">
      <!-- 50 -->
      <g transform="translate(148.012356 257.038437) scale(0.1 -0.1)">
       <use xlink:href="#DejaVuSans-35"/>
       <use xlink:href="#DejaVuSans-30" x="63.623047"/>
      </g>
     </g>
    </g>
    <g id="xtick_10">
     <g id="line2d_19">
      <g>
       <use xlink:href="#m95913deb62" x="245.144087" y="242.44" style="stroke: #000000; stroke-width: 0.8"/>
      </g>
     </g>
     <g id="text_10">
      <!-- 100 -->
      <g transform="translate(235.600337 257.038437) scale(0.1 -0.1)">
       <use xlink:href="#DejaVuSans-31"/>
       <use xlink:href="#DejaVuSans-30" x="63.623047"/>
       <use xlink:href="#DejaVuSans-30" x="127.246094"/>
      </g>
     </g>
    </g>
    <g id="xtick_11">
     <g id="line2d_20">
      <g>
       <use xlink:href="#m95913deb62" x="335.913317" y="242.44" style="stroke: #000000; stroke-width: 0.8"/>
      </g>
     </g>
     <g id="text_11">
      <!-- 150 -->
      <g transform="translate(326.369567 257.038437) scale(0.1 -0.1)">
       <use xlink:href="#DejaVuSans-31"/>
       <use xlink:href="#DejaVuSans-35" x="63.623047"/>
       <use xlink:href="#DejaVuSans-30" x="127.246094"/>
      </g>
     </g>
    </g>
    <g id="xtick_12">
     <g id="line2d_21">
      <g>
       <use xlink:href="#m95913deb62" x="426.682548" y="242.44" style="stroke: #000000; stroke-width: 0.8"/>
      </g>
     </g>
     <g id="text_12">
      <!-- 200 -->
      <g transform="translate(417.138798 257.038437) scale(0.1 -0.1)">
       <use xlink:href="#DejaVuSans-32"/>
       <use xlink:href="#DejaVuSans-30" x="63.623047"/>
       <use xlink:href="#DejaVuSans-30" x="127.246094"/>
      </g>
     </g>
    </g>
    <g id="xtick_13">
     <g id="line2d_22">
      <g>
       <use xlink:href="#m95913deb62" x="517.451779" y="242.44" style="stroke: #000000; stroke-width: 0.8"/>
      </g>
     </g>
     <g id="text_13">
      <!-- 250 -->
      <g transform="translate(507.908029 257.038437) scale(0.1 -0.1)">
       <use xlink:href="#DejaVuSans-32"/>
       <use xlink:href="#DejaVuSans-35" x="63.623047"/>
       <use xlink:href="#DejaVuSans-30" x="127.246094"/>
      </g>
     </g>
    </g>
    <g id="xtick_14">
     <g id="line2d_23">
      <g>
       <use xlink:href="#m95913deb62" x="608.22101" y="242.44" style="stroke: #000000; stroke-width: 0.8"/>
      </g>
     </g>
     <g id="text_14">
      <!-- 300 -->
      <g transform="translate(598.67726 257.038437) scale(0.1 -0.1)">
       <defs>
        <path id="DejaVuSans-33" d="M 2597 2516 
Q 3050 2419 3304 2112 
Q 3559 1806 3559 1356 
Q 3559 666 3084 287 
Q 2609 -91 1734 -91 
Q 1441 -91 1130 -33 
Q 819 25 488 141 
L 488 750 
Q 750 597 1062 519 
Q 1375 441 1716 441 
Q 2309 441 2620 675 
Q 2931 909 2931 1356 
Q 2931 1769 2642 2001 
Q 2353 2234 1838 2234 
L 1294 2234 
L 1294 2753 
L 1863 2753 
Q 2328 2753 2575 2939 
Q 2822 3125 2822 3475 
Q 2822 3834 2567 4026 
Q 2313 4219 1838 4219 
Q 1578 4219 1281 4162 
Q 984 4106 628 3988 
L 628 4550 
Q 988 4650 1302 4700 
Q 1616 4750 1894 4750 
Q 2613 4750 3031 4423 
Q 3450 4097 3450 3541 
Q 3450 3153 3228 2886 
Q 3006 2619 2597 2516 
z
" transform="scale(0.015625)"/>
       </defs>
       <use xlink:href="#DejaVuSans-33"/>
       <use xlink:href="#DejaVuSans-30" x="63.623047"/>
       <use xlink:href="#DejaVuSans-30" x="127.246094"/>
      </g>
     </g>
    </g>
    <g id="text_15">
     <!-- time (days) -->
     <g transform="translate(306.416562 270.716562) scale(0.1 -0.1)">
      <defs>
       <path id="DejaVuSans-74" d="M 1172 4494 
L 1172 3500 
L 2356 3500 
L 2356 3053 
L 1172 3053 
L 1172 1153 
Q 1172 725 1289 603 
Q 1406 481 1766 481 
L 2356 481 
L 2356 0 
L 1766 0 
Q 1100 0 847 248 
Q 594 497 594 1153 
L 594 3053 
L 172 3053 
L 172 3500 
L 594 3500 
L 594 4494 
L 1172 4494 
z
" transform="scale(0.015625)"/>
       <path id="DejaVuSans-69" d="M 603 3500 
L 1178 3500 
L 1178 0 
L 603 0 
L 603 3500 
z
M 603 4863 
L 1178 4863 
L 1178 4134 
L 603 4134 
L 603 4863 
z
" transform="scale(0.015625)"/>
       <path id="DejaVuSans-6d" d="M 3328 2828 
Q 3544 3216 3844 3400 
Q 4144 3584 4550 3584 
Q 5097 3584 5394 3201 
Q 5691 2819 5691 2113 
L 5691 0 
L 5113 0 
L 5113 2094 
Q 5113 2597 4934 2840 
Q 4756 3084 4391 3084 
Q 3944 3084 3684 2787 
Q 3425 2491 3425 1978 
L 3425 0 
L 2847 0 
L 2847 2094 
Q 2847 2600 2669 2842 
Q 2491 3084 2119 3084 
Q 1678 3084 1418 2786 
Q 1159 2488 1159 1978 
L 1159 0 
L 581 0 
L 581 3500 
L 1159 3500 
L 1159 2956 
Q 1356 3278 1631 3431 
Q 1906 3584 2284 3584 
Q 2666 3584 2933 3390 
Q 3200 3197 3328 2828 
z
" transform="scale(0.015625)"/>
       <path id="DejaVuSans-65" d="M 3597 1894 
L 3597 1613 
L 953 1613 
Q 991 1019 1311 708 
Q 1631 397 2203 397 
Q 2534 397 2845 478 
Q 3156 559 3463 722 
L 3463 178 
Q 3153 47 2828 -22 
Q 2503 -91 2169 -91 
Q 1331 -91 842 396 
Q 353 884 353 1716 
Q 353 2575 817 3079 
Q 1281 3584 2069 3584 
Q 2775 3584 3186 3129 
Q 3597 2675 3597 1894 
z
M 3022 2063 
Q 3016 2534 2758 2815 
Q 2500 3097 2075 3097 
Q 1594 3097 1305 2825 
Q 1016 2553 972 2059 
L 3022 2063 
z
" transform="scale(0.015625)"/>
       <path id="DejaVuSans-20" transform="scale(0.015625)"/>
       <path id="DejaVuSans-28" d="M 1984 4856 
Q 1566 4138 1362 3434 
Q 1159 2731 1159 2009 
Q 1159 1288 1364 580 
Q 1569 -128 1984 -844 
L 1484 -844 
Q 1016 -109 783 600 
Q 550 1309 550 2009 
Q 550 2706 781 3412 
Q 1013 4119 1484 4856 
L 1984 4856 
z
" transform="scale(0.015625)"/>
       <path id="DejaVuSans-64" d="M 2906 2969 
L 2906 4863 
L 3481 4863 
L 3481 0 
L 2906 0 
L 2906 525 
Q 2725 213 2448 61 
Q 2172 -91 1784 -91 
Q 1150 -91 751 415 
Q 353 922 353 1747 
Q 353 2572 751 3078 
Q 1150 3584 1784 3584 
Q 2172 3584 2448 3432 
Q 2725 3281 2906 2969 
z
M 947 1747 
Q 947 1113 1208 752 
Q 1469 391 1925 391 
Q 2381 391 2643 752 
Q 2906 1113 2906 1747 
Q 2906 2381 2643 2742 
Q 2381 3103 1925 3103 
Q 1469 3103 1208 2742 
Q 947 2381 947 1747 
z
" transform="scale(0.015625)"/>
       <path id="DejaVuSans-61" d="M 2194 1759 
Q 1497 1759 1228 1600 
Q 959 1441 959 1056 
Q 959 750 1161 570 
Q 1363 391 1709 391 
Q 2188 391 2477 730 
Q 2766 1069 2766 1631 
L 2766 1759 
L 2194 1759 
z
M 3341 1997 
L 3341 0 
L 2766 0 
L 2766 531 
Q 2569 213 2275 61 
Q 1981 -91 1556 -91 
Q 1019 -91 701 211 
Q 384 513 384 1019 
Q 384 1609 779 1909 
Q 1175 2209 1959 2209 
L 2766 2209 
L 2766 2266 
Q 2766 2663 2505 2880 
Q 2244 3097 1772 3097 
Q 1472 3097 1187 3025 
Q 903 2953 641 2809 
L 641 3341 
Q 956 3463 1253 3523 
Q 1550 3584 1831 3584 
Q 2591 3584 2966 3190 
Q 3341 2797 3341 1997 
z
" transform="scale(0.015625)"/>
       <path id="DejaVuSans-79" d="M 2059 -325 
Q 1816 -950 1584 -1140 
Q 1353 -1331 966 -1331 
L 506 -1331 
L 506 -850 
L 844 -850 
Q 1081 -850 1212 -737 
Q 1344 -625 1503 -206 
L 1606 56 
L 191 3500 
L 800 3500 
L 1894 763 
L 2988 3500 
L 3597 3500 
L 2059 -325 
z
" transform="scale(0.015625)"/>
       <path id="DejaVuSans-73" d="M 2834 3397 
L 2834 2853 
Q 2591 2978 2328 3040 
Q 2066 3103 1784 3103 
Q 1356 3103 1142 2972 
Q 928 2841 928 2578 
Q 928 2378 1081 2264 
Q 1234 2150 1697 2047 
L 1894 2003 
Q 2506 1872 2764 1633 
Q 3022 1394 3022 966 
Q 3022 478 2636 193 
Q 2250 -91 1575 -91 
Q 1294 -91 989 -36 
Q 684 19 347 128 
L 347 722 
Q 666 556 975 473 
Q 1284 391 1588 391 
Q 1994 391 2212 530 
Q 2431 669 2431 922 
Q 2431 1156 2273 1281 
Q 2116 1406 1581 1522 
L 1381 1569 
Q 847 1681 609 1914 
Q 372 2147 372 2553 
Q 372 3047 722 3315 
Q 1072 3584 1716 3584 
Q 2034 3584 2315 3537 
Q 2597 3491 2834 3397 
z
" transform="scale(0.015625)"/>
       <path id="DejaVuSans-29" d="M 513 4856 
L 1013 4856 
Q 1481 4119 1714 3412 
Q 1947 2706 1947 2009 
Q 1947 1309 1714 600 
Q 1481 -109 1013 -844 
L 513 -844 
Q 928 -128 1133 580 
Q 1338 1288 1338 2009 
Q 1338 2731 1133 3434 
Q 928 4138 513 4856 
z
" transform="scale(0.015625)"/>
      </defs>
      <use xlink:href="#DejaVuSans-74"/>
      <use xlink:href="#DejaVuSans-69" x="39.208984"/>
      <use xlink:href="#DejaVuSans-6d" x="66.992188"/>
      <use xlink:href="#DejaVuSans-65" x="164.404297"/>
      <use xlink:href="#DejaVuSans-20" x="225.927734"/>
      <use xlink:href="#DejaVuSans-28" x="257.714844"/>
      <use xlink:href="#DejaVuSans-64" x="296.728516"/>
      <use xlink:href="#DejaVuSans-61" x="360.205078"/>
      <use xlink:href="#DejaVuSans-79" x="421.484375"/>
      <use xlink:href="#DejaVuSans-73" x="480.664062"/>
      <use xlink:href="#DejaVuSans-29" x="532.763672"/>
     </g>
    </g>
   </g>
   <g id="matplotlib.axis_4">
    <g id="ytick_6">
     <g id="line2d_24">
      <g>
       <use xlink:href="#m9cb0b30ef6" x="36.465625" y="236.999482" style="stroke: #000000; stroke-width: 0.8"/>
      </g>
     </g>
     <g id="text_16">
      <!-- 0.0 -->
      <g transform="translate(13.5625 240.7987) scale(0.1 -0.1)">
       <use xlink:href="#DejaVuSans-30"/>
       <use xlink:href="#DejaVuSans-2e" x="63.623047"/>
       <use xlink:href="#DejaVuSans-30" x="95.410156"/>
      </g>
     </g>
    </g>
    <g id="ytick_7">
     <g id="line2d_25">
      <g>
       <use xlink:href="#m9cb0b30ef6" x="36.465625" y="213.977408" style="stroke: #000000; stroke-width: 0.8"/>
      </g>
     </g>
     <g id="text_17">
      <!-- 0.2 -->
      <g transform="translate(13.5625 217.776627) scale(0.1 -0.1)">
       <use xlink:href="#DejaVuSans-30"/>
       <use xlink:href="#DejaVuSans-2e" x="63.623047"/>
       <use xlink:href="#DejaVuSans-32" x="95.410156"/>
      </g>
     </g>
    </g>
    <g id="ytick_8">
     <g id="line2d_26">
      <g>
       <use xlink:href="#m9cb0b30ef6" x="36.465625" y="190.955335" style="stroke: #000000; stroke-width: 0.8"/>
      </g>
     </g>
     <g id="text_18">
      <!-- 0.4 -->
      <g transform="translate(13.5625 194.754554) scale(0.1 -0.1)">
       <defs>
        <path id="DejaVuSans-34" d="M 2419 4116 
L 825 1625 
L 2419 1625 
L 2419 4116 
z
M 2253 4666 
L 3047 4666 
L 3047 1625 
L 3713 1625 
L 3713 1100 
L 3047 1100 
L 3047 0 
L 2419 0 
L 2419 1100 
L 313 1100 
L 313 1709 
L 2253 4666 
z
" transform="scale(0.015625)"/>
       </defs>
       <use xlink:href="#DejaVuSans-30"/>
       <use xlink:href="#DejaVuSans-2e" x="63.623047"/>
       <use xlink:href="#DejaVuSans-34" x="95.410156"/>
      </g>
     </g>
    </g>
    <g id="ytick_9">
     <g id="line2d_27">
      <g>
       <use xlink:href="#m9cb0b30ef6" x="36.465625" y="167.933262" style="stroke: #000000; stroke-width: 0.8"/>
      </g>
     </g>
     <g id="text_19">
      <!-- 0.6 -->
      <g transform="translate(13.5625 171.73248) scale(0.1 -0.1)">
       <defs>
        <path id="DejaVuSans-36" d="M 2113 2584 
Q 1688 2584 1439 2293 
Q 1191 2003 1191 1497 
Q 1191 994 1439 701 
Q 1688 409 2113 409 
Q 2538 409 2786 701 
Q 3034 994 3034 1497 
Q 3034 2003 2786 2293 
Q 2538 2584 2113 2584 
z
M 3366 4563 
L 3366 3988 
Q 3128 4100 2886 4159 
Q 2644 4219 2406 4219 
Q 1781 4219 1451 3797 
Q 1122 3375 1075 2522 
Q 1259 2794 1537 2939 
Q 1816 3084 2150 3084 
Q 2853 3084 3261 2657 
Q 3669 2231 3669 1497 
Q 3669 778 3244 343 
Q 2819 -91 2113 -91 
Q 1303 -91 875 529 
Q 447 1150 447 2328 
Q 447 3434 972 4092 
Q 1497 4750 2381 4750 
Q 2619 4750 2861 4703 
Q 3103 4656 3366 4563 
z
" transform="scale(0.015625)"/>
       </defs>
       <use xlink:href="#DejaVuSans-30"/>
       <use xlink:href="#DejaVuSans-2e" x="63.623047"/>
       <use xlink:href="#DejaVuSans-36" x="95.410156"/>
      </g>
     </g>
    </g>
    <g id="ytick_10">
     <g id="line2d_28">
      <g>
       <use xlink:href="#m9cb0b30ef6" x="36.465625" y="144.911188" style="stroke: #000000; stroke-width: 0.8"/>
      </g>
     </g>
     <g id="text_20">
      <!-- 0.8 -->
      <g transform="translate(13.5625 148.710407) scale(0.1 -0.1)">
       <defs>
        <path id="DejaVuSans-38" d="M 2034 2216 
Q 1584 2216 1326 1975 
Q 1069 1734 1069 1313 
Q 1069 891 1326 650 
Q 1584 409 2034 409 
Q 2484 409 2743 651 
Q 3003 894 3003 1313 
Q 3003 1734 2745 1975 
Q 2488 2216 2034 2216 
z
M 1403 2484 
Q 997 2584 770 2862 
Q 544 3141 544 3541 
Q 544 4100 942 4425 
Q 1341 4750 2034 4750 
Q 2731 4750 3128 4425 
Q 3525 4100 3525 3541 
Q 3525 3141 3298 2862 
Q 3072 2584 2669 2484 
Q 3125 2378 3379 2068 
Q 3634 1759 3634 1313 
Q 3634 634 3220 271 
Q 2806 -91 2034 -91 
Q 1263 -91 848 271 
Q 434 634 434 1313 
Q 434 1759 690 2068 
Q 947 2378 1403 2484 
z
M 1172 3481 
Q 1172 3119 1398 2916 
Q 1625 2713 2034 2713 
Q 2441 2713 2670 2916 
Q 2900 3119 2900 3481 
Q 2900 3844 2670 4047 
Q 2441 4250 2034 4250 
Q 1625 4250 1398 4047 
Q 1172 3844 1172 3481 
z
" transform="scale(0.015625)"/>
       </defs>
       <use xlink:href="#DejaVuSans-30"/>
       <use xlink:href="#DejaVuSans-2e" x="63.623047"/>
       <use xlink:href="#DejaVuSans-38" x="95.410156"/>
      </g>
     </g>
    </g>
   </g>
   <g id="line2d_29">
    <path d="M 63.605625 236.999482 
L 90.836394 236.908303 
L 96.282548 236.696971 
L 99.913317 236.328918 
L 101.728702 236.004324 
L 103.544087 235.529426 
L 105.359471 234.836432 
L 107.174856 233.832663 
L 108.99024 232.399127 
L 110.805625 230.40268 
L 112.62101 227.709768 
L 114.436394 224.215421 
L 116.251779 219.870374 
L 118.067163 214.774223 
L 121.697933 203.199744 
L 125.328702 191.51811 
L 127.144087 186.103948 
L 128.959471 181.088984 
L 130.774856 176.498281 
L 132.59024 172.32879 
L 134.405625 168.562488 
L 136.22101 165.173493 
L 138.036394 162.13307 
L 139.851779 159.412224 
L 141.667163 156.982696 
L 143.482548 154.817751 
L 145.297933 152.892444 
L 147.113317 151.183793 
L 148.928702 149.670868 
L 150.744087 148.334785 
L 152.559471 147.158346 
L 154.374856 146.125946 
L 158.005625 144.438527 
L 161.636394 143.176122 
L 165.267163 142.260804 
L 168.897933 141.629221 
L 172.528702 141.230143 
L 176.159471 141.021528 
L 181.605625 140.993042 
L 187.051779 141.227307 
L 194.313317 141.833996 
L 201.574856 142.675519 
L 210.651779 143.941527 
L 223.359471 145.941038 
L 246.959471 149.92358 
L 283.267163 156.018633 
L 305.051779 159.464314 
L 323.205625 162.134269 
L 339.544087 164.318917 
L 352.251779 165.807456 
L 363.144087 166.872597 
L 372.22101 167.54018 
L 379.482548 167.883377 
L 386.744087 168.016547 
L 394.005625 167.899435 
L 399.451779 167.622481 
L 404.897933 167.173509 
L 410.344087 166.536526 
L 417.605625 165.415953 
L 424.867163 164.063978 
L 435.759471 161.79246 
L 448.467163 159.179336 
L 457.544087 157.57954 
L 464.805625 156.512742 
L 472.067163 155.654738 
L 479.328702 155.014066 
L 486.59024 154.585422 
L 495.667163 154.315576 
L 504.744087 154.290023 
L 515.636394 154.507377 
L 526.528702 154.93895 
L 539.236394 155.662879 
L 555.574856 156.853536 
L 606.405625 160.956033 
L 606.405625 160.956033 
" clip-path="url(#pcac236e2b5)" style="fill: none; stroke: #1f77b4; stroke-width: 2; stroke-linecap: square"/>
   </g>
   <g id="line2d_30">
    <path d="M 63.605625 236.700077 
L 65.42101 237.418636 
L 69.051779 236.880559 
L 70.867163 236.827732 
L 72.682548 237.039754 
L 76.313317 236.945088 
L 78.128702 237.006004 
L 79.944087 236.871921 
L 81.759471 236.955513 
L 83.574856 236.874284 
L 85.39024 236.953995 
L 90.836394 236.877775 
L 94.467163 236.784133 
L 99.913317 236.379764 
L 103.544087 236.365869 
L 105.359471 235.779362 
L 107.174856 234.719662 
L 110.805625 233.949064 
L 112.62101 231.956381 
L 114.436394 227.986469 
L 116.251779 222.181979 
L 123.513317 194.459332 
L 125.328702 188.652193 
L 127.144087 183.382172 
L 130.774856 174.717548 
L 132.59024 170.790583 
L 134.405625 167.546457 
L 136.22101 163.864605 
L 139.851779 157.150225 
L 141.667163 154.28969 
L 143.482548 151.864087 
L 145.297933 150.076342 
L 147.113317 148.005329 
L 148.928702 146.282367 
L 152.559471 143.756132 
L 158.005625 140.473172 
L 159.82101 139.562483 
L 161.636394 138.817421 
L 165.267163 137.680789 
L 167.082548 137.326865 
L 170.713317 137.016297 
L 172.528702 136.991364 
L 179.79024 137.558942 
L 183.42101 137.96112 
L 185.236394 138.070589 
L 187.051779 138.355202 
L 201.574856 139.229513 
L 203.39024 139.171208 
L 205.205625 139.311325 
L 210.651779 139.369768 
L 216.097933 139.609921 
L 221.544087 140.195105 
L 225.174856 140.433021 
L 226.99024 140.652652 
L 228.805625 140.720776 
L 230.62101 141.044195 
L 234.251779 141.295847 
L 236.067163 141.648735 
L 239.697933 141.92427 
L 241.513317 142.274791 
L 243.328702 142.379176 
L 245.144087 142.712983 
L 248.774856 143.027304 
L 252.405625 143.689326 
L 254.22101 143.856023 
L 257.851779 144.490539 
L 259.667163 144.869787 
L 261.482548 144.977383 
L 263.297933 145.323993 
L 265.113317 145.531143 
L 266.928702 145.877307 
L 276.005625 146.832449 
L 279.636394 147.381956 
L 294.159471 151.434211 
L 295.974856 152.007046 
L 303.236394 155.186513 
L 312.313317 159.921092 
L 314.128702 160.939823 
L 319.574856 163.160635 
L 323.205625 164.024435 
L 325.02101 164.27289 
L 326.836394 164.403704 
L 328.651779 164.241843 
L 334.097933 163.147516 
L 335.913317 162.579389 
L 341.359471 161.575128 
L 343.174856 161.342316 
L 344.99024 161.295839 
L 348.62101 161.481522 
L 354.067163 162.30738 
L 357.697933 163.13258 
L 359.513317 163.447169 
L 363.144087 164.254131 
L 366.774856 164.593949 
L 370.405625 164.760907 
L 381.297933 164.264574 
L 388.559471 164.225891 
L 399.451779 163.953347 
L 410.344087 163.284217 
L 426.682548 160.905264 
L 430.313317 160.507964 
L 441.205625 158.821839 
L 448.467163 157.58091 
L 455.728702 156.458432 
L 464.805625 155.134464 
L 477.513317 153.226176 
L 484.774856 152.43944 
L 490.22101 152.06896 
L 497.482548 151.767243 
L 512.005625 151.552854 
L 517.451779 151.535673 
L 521.082548 151.436119 
L 524.713317 151.412523 
L 541.051779 151.727668 
L 546.497933 152.173524 
L 570.097933 154.627318 
L 582.805625 155.458624 
L 595.513317 156.86238 
L 606.405625 157.514207 
L 606.405625 157.514207 
" clip-path="url(#pcac236e2b5)" style="fill: none; stroke-dasharray: 5.55,2.4; stroke-dashoffset: 0; stroke: #000000; stroke-width: 1.5"/>
   </g>
   <g id="patch_9">
    <path d="M 36.465625 242.44 
L 36.465625 131.97 
" style="fill: none; stroke: #000000; stroke-width: 0.8; stroke-linejoin: miter; stroke-linecap: square"/>
   </g>
   <g id="patch_10">
    <path d="M 633.545625 242.44 
L 633.545625 131.97 
" style="fill: none; stroke: #000000; stroke-width: 0.8; stroke-linejoin: miter; stroke-linecap: square"/>
   </g>
   <g id="patch_11">
    <path d="M 36.465625 242.44 
L 633.545625 242.44 
" style="fill: none; stroke: #000000; stroke-width: 0.8; stroke-linejoin: miter; stroke-linecap: square"/>
   </g>
   <g id="patch_12">
    <path d="M 36.465625 131.97 
L 633.545625 131.97 
" style="fill: none; stroke: #000000; stroke-width: 0.8; stroke-linejoin: miter; stroke-linecap: square"/>
   </g>
   <g id="legend_2">
    <g id="patch_13">
     <path d="M 43.465625 170.648125 
L 82.465625 170.648125 
Q 84.465625 170.648125 84.465625 168.648125 
L 84.465625 138.97 
Q 84.465625 136.97 82.465625 136.97 
L 43.465625 136.97 
Q 41.465625 136.97 41.465625 138.97 
L 41.465625 168.648125 
Q 41.465625 170.648125 43.465625 170.648125 
z
" style="fill: #ffffff; opacity: 0.8; stroke: #cccccc; stroke-linejoin: miter"/>
    </g>
    <g id="line2d_31">
     <path d="M 45.465625 145.068437 
L 55.465625 145.068437 
L 65.465625 145.068437 
" style="fill: none; stroke: #1f77b4; stroke-width: 2; stroke-linecap: square"/>
    </g>
    <g id="text_21">
     <!-- $R$ -->
     <g transform="translate(73.465625 148.568437) scale(0.1 -0.1)">
      <defs>
       <path id="DejaVuSans-Oblique-52" d="M 1613 4147 
L 1294 2491 
L 2106 2491 
Q 2584 2491 2879 2755 
Q 3175 3019 3175 3444 
Q 3175 3784 2976 3965 
Q 2778 4147 2406 4147 
L 1613 4147 
z
M 2772 2241 
Q 2972 2194 3105 2009 
Q 3238 1825 3413 1275 
L 3809 0 
L 3144 0 
L 2778 1197 
Q 2638 1659 2453 1815 
Q 2269 1972 1888 1972 
L 1191 1972 
L 806 0 
L 172 0 
L 1081 4666 
L 2503 4666 
Q 3150 4666 3495 4373 
Q 3841 4081 3841 3531 
Q 3841 3044 3547 2687 
Q 3253 2331 2772 2241 
z
" transform="scale(0.015625)"/>
      </defs>
      <use xlink:href="#DejaVuSans-Oblique-52" transform="translate(0 0.09375)"/>
     </g>
    </g>
    <g id="line2d_32">
     <path d="M 45.465625 161.068437 
L 55.465625 161.068437 
L 65.465625 161.068437 
" style="fill: none; stroke-dasharray: 5.55,2.4; stroke-dashoffset: 0; stroke: #000000; stroke-width: 1.5"/>
    </g>
    <g id="text_22">
     <!-- $\hat R$ -->
     <g transform="translate(73.465625 164.568437) scale(0.1 -0.1)">
      <use xlink:href="#DejaVuSans-302" transform="translate(60.90625 30.015625)"/>
      <use xlink:href="#DejaVuSans-Oblique-52" transform="translate(0 0.609375)"/>
     </g>
    </g>
   </g>
  </g>
 </g>
 <defs>
  <clipPath id="p122e8cfd0e">
   <rect x="36.465625" y="7.2" width="597.08" height="110.47"/>
  </clipPath>
  <clipPath id="pcac236e2b5">
   <rect x="36.465625" y="131.97" width="597.08" height="110.47"/>
  </clipPath>
 </defs>
</svg>
