<?xml version="1.0" encoding="utf-8" standalone="no"?>
<!DOCTYPE svg PUBLIC "-//W3C//DTD SVG 1.1//EN"
  "http://www.w3.org/Graphics/SVG/1.1/DTD/svg11.dtd">
<svg xmlns:xlink="http://www.w3.org/1999/xlink" width="640.773125pt" height="279.99625pt" viewBox="0 0 640.773125 279.99625" xmlns="http://www.w3.org/2000/svg" version="1.1">
 <metadata>
  <rdf:RDF xmlns:dc="http://purl.org/dc/elements/1.1/" xmlns:cc="http://creativecommons.org/ns#" xmlns:rdf="http://www.w3.org/1999/02/22-rdf-syntax-ns#">
   <cc:Work>
    <dc:type rdf:resource="http://purl.org/dc/dcmitype/StillImage"/>
    <dc:date>2025-06-06T14:36:12.561897</dc:date>
    <dc:format>image/svg+xml</dc:format>
    <dc:creator>
     <cc:Agent>
      <dc:title>Matplotlib v3.6.3, https://matplotlib.org/</dc:title>
     </cc:Agent>
    </dc:creator>
   </cc:Work>
  </rdf:RDF>
 </metadata>
 <defs>
  <style type="text/css">*{stroke-linejoin: round; stroke-linecap: butt}</style>
 </defs>
 <g id="figure_1">
  <g id="patch_1">
   <path d="M 0 279.99625 
L 640.773125 279.99625 
L 640.773125 0 
L 0 0 
z
" style="fill: #ffffff"/>
  </g>
  <g id="axes_1">
   <g id="patch_2">
    <path d="M 30.103125 117.67 
L 633.573125 117.67 
L 633.573125 7.2 
L 30.103125 7.2 
z
" style="fill: #ffffff"/>
   </g>
   <g id="matplotlib.axis_1">
    <g id="xtick_1">
     <g id="line2d_1">
      <defs>
       <path id="mea8ac293b1" d="M 0 0 
L 0 3.5 
" style="stroke: #000000; stroke-width: 0.8"/>
      </defs>
      <g>
       <use xlink:href="#mea8ac293b1" x="57.53358" y="117.67" style="stroke: #000000; stroke-width: 0.8"/>
      </g>
     </g>
    </g>
    <g id="xtick_2">
     <g id="line2d_2">
      <g>
       <use xlink:href="#mea8ac293b1" x="149.27423" y="117.67" style="stroke: #000000; stroke-width: 0.8"/>
      </g>
     </g>
    </g>
    <g id="xtick_3">
     <g id="line2d_3">
      <g>
       <use xlink:href="#mea8ac293b1" x="241.014881" y="117.67" style="stroke: #000000; stroke-width: 0.8"/>
      </g>
     </g>
    </g>
    <g id="xtick_4">
     <g id="line2d_4">
      <g>
       <use xlink:href="#mea8ac293b1" x="332.755532" y="117.67" style="stroke: #000000; stroke-width: 0.8"/>
      </g>
     </g>
    </g>
    <g id="xtick_5">
     <g id="line2d_5">
      <g>
       <use xlink:href="#mea8ac293b1" x="424.496182" y="117.67" style="stroke: #000000; stroke-width: 0.8"/>
      </g>
     </g>
    </g>
    <g id="xtick_6">
     <g id="line2d_6">
      <g>
       <use xlink:href="#mea8ac293b1" x="516.236833" y="117.67" style="stroke: #000000; stroke-width: 0.8"/>
      </g>
     </g>
    </g>
    <g id="xtick_7">
     <g id="line2d_7">
      <g>
       <use xlink:href="#mea8ac293b1" x="607.977483" y="117.67" style="stroke: #000000; stroke-width: 0.8"/>
      </g>
     </g>
    </g>
   </g>
   <g id="matplotlib.axis_2">
    <g id="ytick_1">
     <g id="line2d_8">
      <defs>
       <path id="m8929188192" d="M 0 0 
L -3.5 0 
" style="stroke: #000000; stroke-width: 0.8"/>
      </defs>
      <g>
       <use xlink:href="#m8929188192" x="30.103125" y="106.470961" style="stroke: #000000; stroke-width: 0.8"/>
      </g>
     </g>
     <g id="text_1">
      <!-- 0.2 -->
      <g transform="translate(7.2 110.270179) scale(0.1 -0.1)">
       <defs>
        <path id="DejaVuSans-30" d="M 2034 4250 
Q 1547 4250 1301 3770 
Q 1056 3291 1056 2328 
Q 1056 1369 1301 889 
Q 1547 409 2034 409 
Q 2525 409 2770 889 
Q 3016 1369 3016 2328 
Q 3016 3291 2770 3770 
Q 2525 4250 2034 4250 
z
M 2034 4750 
Q 2819 4750 3233 4129 
Q 3647 3509 3647 2328 
Q 3647 1150 3233 529 
Q 2819 -91 2034 -91 
Q 1250 -91 836 529 
Q 422 1150 422 2328 
Q 422 3509 836 4129 
Q 1250 4750 2034 4750 
z
" transform="scale(0.015625)"/>
        <path id="DejaVuSans-2e" d="M 684 794 
L 1344 794 
L 1344 0 
L 684 0 
L 684 794 
z
" transform="scale(0.015625)"/>
        <path id="DejaVuSans-32" d="M 1228 531 
L 3431 531 
L 3431 0 
L 469 0 
L 469 531 
Q 828 903 1448 1529 
Q 2069 2156 2228 2338 
Q 2531 2678 2651 2914 
Q 2772 3150 2772 3378 
Q 2772 3750 2511 3984 
Q 2250 4219 1831 4219 
Q 1534 4219 1204 4116 
Q 875 4013 500 3803 
L 500 4441 
Q 881 4594 1212 4672 
Q 1544 4750 1819 4750 
Q 2544 4750 2975 4387 
Q 3406 4025 3406 3419 
Q 3406 3131 3298 2873 
Q 3191 2616 2906 2266 
Q 2828 2175 2409 1742 
Q 1991 1309 1228 531 
z
" transform="scale(0.015625)"/>
       </defs>
       <use xlink:href="#DejaVuSans-30"/>
       <use xlink:href="#DejaVuSans-2e" x="63.623047"/>
       <use xlink:href="#DejaVuSans-32" x="95.410156"/>
      </g>
     </g>
    </g>
    <g id="ytick_2">
     <g id="line2d_9">
      <g>
       <use xlink:href="#m8929188192" x="30.103125" y="83.007772" style="stroke: #000000; stroke-width: 0.8"/>
      </g>
     </g>
     <g id="text_2">
      <!-- 0.4 -->
      <g transform="translate(7.2 86.806991) scale(0.1 -0.1)">
       <defs>
        <path id="DejaVuSans-34" d="M 2419 4116 
L 825 1625 
L 2419 1625 
L 2419 4116 
z
M 2253 4666 
L 3047 4666 
L 3047 1625 
L 3713 1625 
L 3713 1100 
L 3047 1100 
L 3047 0 
L 2419 0 
L 2419 1100 
L 313 1100 
L 313 1709 
L 2253 4666 
z
" transform="scale(0.015625)"/>
       </defs>
       <use xlink:href="#DejaVuSans-30"/>
       <use xlink:href="#DejaVuSans-2e" x="63.623047"/>
       <use xlink:href="#DejaVuSans-34" x="95.410156"/>
      </g>
     </g>
    </g>
    <g id="ytick_3">
     <g id="line2d_10">
      <g>
       <use xlink:href="#m8929188192" x="30.103125" y="59.544583" style="stroke: #000000; stroke-width: 0.8"/>
      </g>
     </g>
     <g id="text_3">
      <!-- 0.6 -->
      <g transform="translate(7.2 63.343802) scale(0.1 -0.1)">
       <defs>
        <path id="DejaVuSans-36" d="M 2113 2584 
Q 1688 2584 1439 2293 
Q 1191 2003 1191 1497 
Q 1191 994 1439 701 
Q 1688 409 2113 409 
Q 2538 409 2786 701 
Q 3034 994 3034 1497 
Q 3034 2003 2786 2293 
Q 2538 2584 2113 2584 
z
M 3366 4563 
L 3366 3988 
Q 3128 4100 2886 4159 
Q 2644 4219 2406 4219 
Q 1781 4219 1451 3797 
Q 1122 3375 1075 2522 
Q 1259 2794 1537 2939 
Q 1816 3084 2150 3084 
Q 2853 3084 3261 2657 
Q 3669 2231 3669 1497 
Q 3669 778 3244 343 
Q 2819 -91 2113 -91 
Q 1303 -91 875 529 
Q 447 1150 447 2328 
Q 447 3434 972 4092 
Q 1497 4750 2381 4750 
Q 2619 4750 2861 4703 
Q 3103 4656 3366 4563 
z
" transform="scale(0.015625)"/>
       </defs>
       <use xlink:href="#DejaVuSans-30"/>
       <use xlink:href="#DejaVuSans-2e" x="63.623047"/>
       <use xlink:href="#DejaVuSans-36" x="95.410156"/>
      </g>
     </g>
    </g>
    <g id="ytick_4">
     <g id="line2d_11">
      <g>
       <use xlink:href="#m8929188192" x="30.103125" y="36.081395" style="stroke: #000000; stroke-width: 0.8"/>
      </g>
     </g>
     <g id="text_4">
      <!-- 0.8 -->
      <g transform="translate(7.2 39.880614) scale(0.1 -0.1)">
       <defs>
        <path id="DejaVuSans-38" d="M 2034 2216 
Q 1584 2216 1326 1975 
Q 1069 1734 1069 1313 
Q 1069 891 1326 650 
Q 1584 409 2034 409 
Q 2484 409 2743 651 
Q 3003 894 3003 1313 
Q 3003 1734 2745 1975 
Q 2488 2216 2034 2216 
z
M 1403 2484 
Q 997 2584 770 2862 
Q 544 3141 544 3541 
Q 544 4100 942 4425 
Q 1341 4750 2034 4750 
Q 2731 4750 3128 4425 
Q 3525 4100 3525 3541 
Q 3525 3141 3298 2862 
Q 3072 2584 2669 2484 
Q 3125 2378 3379 2068 
Q 3634 1759 3634 1313 
Q 3634 634 3220 271 
Q 2806 -91 2034 -91 
Q 1263 -91 848 271 
Q 434 634 434 1313 
Q 434 1759 690 2068 
Q 947 2378 1403 2484 
z
M 1172 3481 
Q 1172 3119 1398 2916 
Q 1625 2713 2034 2713 
Q 2441 2713 2670 2916 
Q 2900 3119 2900 3481 
Q 2900 3844 2670 4047 
Q 2441 4250 2034 4250 
Q 1625 4250 1398 4047 
Q 1172 3844 1172 3481 
z
" transform="scale(0.015625)"/>
       </defs>
       <use xlink:href="#DejaVuSans-30"/>
       <use xlink:href="#DejaVuSans-2e" x="63.623047"/>
       <use xlink:href="#DejaVuSans-38" x="95.410156"/>
      </g>
     </g>
    </g>
    <g id="ytick_5">
     <g id="line2d_12">
      <g>
       <use xlink:href="#m8929188192" x="30.103125" y="12.618206" style="stroke: #000000; stroke-width: 0.8"/>
      </g>
     </g>
     <g id="text_5">
      <!-- 1.0 -->
      <g transform="translate(7.2 16.417425) scale(0.1 -0.1)">
       <defs>
        <path id="DejaVuSans-31" d="M 794 531 
L 1825 531 
L 1825 4091 
L 703 3866 
L 703 4441 
L 1819 4666 
L 2450 4666 
L 2450 531 
L 3481 531 
L 3481 0 
L 794 0 
L 794 531 
z
" transform="scale(0.015625)"/>
       </defs>
       <use xlink:href="#DejaVuSans-31"/>
       <use xlink:href="#DejaVuSans-2e" x="63.623047"/>
       <use xlink:href="#DejaVuSans-30" x="95.410156"/>
      </g>
     </g>
    </g>
   </g>
   <g id="line2d_13">
    <path d="M 57.53358 12.619379 
L 110.743157 12.725984 
L 125.421661 12.961875 
L 134.595726 13.322472 
L 141.934978 13.855615 
L 147.439417 14.506727 
L 151.109043 15.110698 
L 154.778669 15.911571 
L 158.448295 16.969599 
L 162.117921 18.333209 
L 165.787547 20.107354 
L 169.457173 22.335364 
L 171.291986 23.666356 
L 173.126799 25.156196 
L 174.961612 26.82908 
L 176.796425 28.712798 
L 178.631238 30.808096 
L 182.300864 35.581944 
L 185.97049 41.017442 
L 189.640116 47.214035 
L 193.309743 53.990835 
L 198.814182 64.907471 
L 202.483808 72.148626 
L 206.153434 78.897989 
L 209.82306 85.091969 
L 211.657873 87.848874 
L 215.327499 92.791261 
L 217.162312 95.033297 
L 220.831938 98.912154 
L 222.666751 100.635031 
L 224.501564 102.1657 
L 226.336377 103.505015 
L 228.17119 104.674506 
L 231.840816 106.628881 
L 235.510442 108.109046 
L 239.180068 109.239694 
L 242.849694 110.056468 
L 246.51932 110.592554 
L 250.188946 110.911561 
L 253.858572 111.019905 
L 257.528198 110.965676 
L 263.032637 110.61425 
L 268.537076 110.02116 
L 275.876328 108.984167 
L 283.21558 107.761696 
L 292.389645 106.010219 
L 307.068149 102.844832 
L 341.929597 94.860669 
L 356.608101 91.61229 
L 369.451792 88.995401 
L 380.46067 86.975404 
L 391.469548 85.170598 
L 402.478426 83.62244 
L 413.487304 82.288594 
L 424.496182 81.235825 
L 433.670247 80.550397 
L 442.844312 80.102904 
L 452.018377 79.939235 
L 461.192442 79.992589 
L 468.531694 80.280617 
L 479.540573 80.926003 
L 490.549451 81.800223 
L 499.723516 82.762863 
L 532.75015 86.382352 
L 560.272345 89.191218 
L 571.281223 90.025644 
L 585.959727 90.869104 
L 604.307857 91.452815 
L 606.14267 91.478429 
L 606.14267 91.478429 
" clip-path="url(#pd306f64ad6)" style="fill: none; stroke: #1f77b4; stroke-width: 2; stroke-linecap: square"/>
   </g>
   <g id="line2d_14">
    <path d="M 57.53358 13.04339 
L 59.368393 12.859038 
L 61.203206 12.970157 
L 63.038019 12.487207 
L 64.872832 12.221364 
L 70.377271 12.487263 
L 79.551336 12.303498 
L 90.560214 12.605773 
L 101.569092 12.920313 
L 103.403905 12.658323 
L 105.238718 12.853562 
L 110.743157 12.46574 
L 112.57797 12.579621 
L 118.082409 12.593187 
L 119.917222 12.907671 
L 121.752035 13.053928 
L 123.586848 12.828865 
L 125.421661 12.776078 
L 127.256474 13.058193 
L 129.091287 12.915614 
L 130.9261 13.168375 
L 132.760913 13.207121 
L 134.595726 13.075451 
L 136.430539 13.408955 
L 140.100165 13.357573 
L 141.934978 13.846012 
L 147.439417 14.275894 
L 149.27423 14.775024 
L 151.109043 15.121115 
L 154.778669 16.785117 
L 156.613482 17.32688 
L 158.448295 18.033781 
L 162.117921 19.855556 
L 163.952734 20.502377 
L 165.787547 20.897555 
L 167.62236 21.526104 
L 169.457173 22.44676 
L 171.291986 23.723206 
L 173.126799 25.535164 
L 178.631238 32.288117 
L 182.300864 36.036144 
L 185.97049 40.766978 
L 187.805303 43.480915 
L 189.640116 46.826905 
L 191.474929 50.603007 
L 195.144556 58.996817 
L 196.979369 62.972495 
L 198.814182 66.536526 
L 202.483808 72.611864 
L 204.318621 75.787028 
L 206.153434 78.440158 
L 207.988247 80.889822 
L 209.82306 83.576631 
L 213.492686 89.950136 
L 215.327499 92.275181 
L 217.162312 95.164367 
L 218.997125 97.792827 
L 222.666751 101.309288 
L 226.336377 104.868935 
L 228.17119 106.408295 
L 231.840816 108.229231 
L 233.675629 109.411759 
L 239.180068 111.076265 
L 241.014881 111.234668 
L 242.849694 112.031248 
L 244.684507 112.02601 
L 246.51932 112.294644 
L 248.354133 112.218397 
L 252.023759 112.648636 
L 253.858572 112.450159 
L 255.693385 112.516092 
L 257.528198 112.262227 
L 261.197824 112.29349 
L 263.032637 111.960889 
L 264.86745 112.085105 
L 266.702263 111.600254 
L 268.537076 111.256631 
L 270.371889 111.331277 
L 272.206702 110.969251 
L 274.041515 110.771025 
L 275.876328 110.245512 
L 281.380767 109.55982 
L 283.21558 109.046104 
L 285.050393 108.752975 
L 286.885206 108.052766 
L 290.554832 107.2645 
L 294.224458 106.580417 
L 299.728897 105.223305 
L 301.56371 105.108752 
L 305.233336 104.386119 
L 310.737775 103.626319 
L 327.251092 99.952861 
L 329.085905 99.448682 
L 345.599223 95.940815 
L 352.938475 94.346137 
L 360.277727 92.730545 
L 378.625857 88.285568 
L 389.634735 86.112733 
L 398.8088 84.688091 
L 406.148052 83.513272 
L 411.652491 82.531262 
L 417.15693 81.940848 
L 430.000621 80.817529 
L 435.50506 80.575138 
L 441.009499 80.692495 
L 450.183564 81.179608 
L 453.85319 81.129492 
L 457.522816 81.026789 
L 461.192442 81.137957 
L 470.366507 82.084769 
L 474.036134 82.0976 
L 479.540573 81.747118 
L 483.210199 81.762023 
L 486.879825 81.967007 
L 490.549451 82.427727 
L 497.888703 83.75075 
L 501.558329 84.099015 
L 507.062768 84.1067 
L 510.732394 84.066447 
L 514.40202 84.224874 
L 518.071646 84.507535 
L 521.741272 85.023073 
L 534.584963 86.92103 
L 538.254589 87.702583 
L 541.924215 88.31873 
L 545.593841 88.621939 
L 549.263467 88.60494 
L 556.602719 88.776964 
L 558.437532 88.880727 
L 560.272345 89.198665 
L 562.107158 89.320172 
L 565.776784 89.757162 
L 573.116036 90.034509 
L 578.620475 90.529149 
L 580.455288 90.854031 
L 585.959727 91.237518 
L 600.638231 91.435856 
L 606.14267 91.485146 
L 606.14267 91.485146 
" clip-path="url(#pd306f64ad6)" style="fill: none; stroke-dasharray: 5.55,2.4; stroke-dashoffset: 0; stroke: #000000; stroke-width: 1.5"/>
   </g>
   <g id="patch_3">
    <path d="M 30.103125 117.67 
L 30.103125 7.2 
" style="fill: none; stroke: #000000; stroke-width: 0.8; stroke-linejoin: miter; stroke-linecap: square"/>
   </g>
   <g id="patch_4">
    <path d="M 633.573125 117.67 
L 633.573125 7.2 
" style="fill: none; stroke: #000000; stroke-width: 0.8; stroke-linejoin: miter; stroke-linecap: square"/>
   </g>
   <g id="patch_5">
    <path d="M 30.103125 117.67 
L 633.573125 117.67 
" style="fill: none; stroke: #000000; stroke-width: 0.8; stroke-linejoin: miter; stroke-linecap: square"/>
   </g>
   <g id="patch_6">
    <path d="M 30.103125 7.2 
L 633.573125 7.2 
" style="fill: none; stroke: #000000; stroke-width: 0.8; stroke-linejoin: miter; stroke-linecap: square"/>
   </g>
   <g id="legend_1">
    <g id="patch_7">
     <path d="M 588.173125 46.178125 
L 626.573125 46.178125 
Q 628.573125 46.178125 628.573125 44.178125 
L 628.573125 14.2 
Q 628.573125 12.2 626.573125 12.2 
L 588.173125 12.2 
Q 586.173125 12.2 586.173125 14.2 
L 586.173125 44.178125 
Q 586.173125 46.178125 588.173125 46.178125 
z
" style="fill: #ffffff; opacity: 0.8; stroke: #cccccc; stroke-linejoin: miter"/>
    </g>
    <g id="line2d_15">
     <path d="M 590.173125 20.298437 
L 600.173125 20.298437 
L 610.173125 20.298437 
" style="fill: none; stroke: #1f77b4; stroke-width: 2; stroke-linecap: square"/>
    </g>
    <g id="text_6">
     <!-- $S$ -->
     <g transform="translate(618.173125 23.798437) scale(0.1 -0.1)">
      <defs>
       <path id="DejaVuSans-Oblique-53" d="M 3859 4513 
L 3738 3897 
Q 3422 4066 3111 4152 
Q 2800 4238 2509 4238 
Q 1944 4238 1609 3991 
Q 1275 3744 1275 3334 
Q 1275 3109 1398 2989 
Q 1522 2869 2034 2731 
L 2413 2638 
Q 3053 2472 3303 2217 
Q 3553 1963 3553 1503 
Q 3553 797 2998 353 
Q 2444 -91 1538 -91 
Q 1166 -91 791 -17 
Q 416 56 38 206 
L 166 856 
Q 513 641 861 531 
Q 1209 422 1556 422 
Q 2147 422 2503 684 
Q 2859 947 2859 1369 
Q 2859 1650 2717 1795 
Q 2575 1941 2106 2059 
L 1728 2156 
Q 1081 2325 845 2545 
Q 609 2766 609 3163 
Q 609 3859 1145 4304 
Q 1681 4750 2541 4750 
Q 2875 4750 3203 4690 
Q 3531 4631 3859 4513 
z
" transform="scale(0.015625)"/>
      </defs>
      <use xlink:href="#DejaVuSans-Oblique-53" transform="translate(0 0.78125)"/>
     </g>
    </g>
    <g id="line2d_16">
     <path d="M 590.173125 36.598437 
L 600.173125 36.598437 
L 610.173125 36.598437 
" style="fill: none; stroke-dasharray: 5.55,2.4; stroke-dashoffset: 0; stroke: #000000; stroke-width: 1.5"/>
    </g>
    <g id="text_7">
     <!-- $\hat S$ -->
     <g transform="translate(618.173125 40.098437) scale(0.1 -0.1)">
      <defs>
       <path id="DejaVuSans-302" d="M -1831 5119 
L -1369 5119 
L -603 3944 
L -1038 3944 
L -1600 4709 
L -2163 3944 
L -2597 3944 
L -1831 5119 
z
M -1600 3584 
L -1600 3584 
z
" transform="scale(0.015625)"/>
      </defs>
      <use xlink:href="#DejaVuSans-302" transform="translate(62.503906 31.015625)"/>
      <use xlink:href="#DejaVuSans-Oblique-53" transform="translate(0 0.296875)"/>
     </g>
    </g>
   </g>
  </g>
  <g id="axes_2">
   <g id="patch_8">
    <path d="M 30.103125 242.44 
L 633.573125 242.44 
L 633.573125 131.97 
L 30.103125 131.97 
z
" style="fill: #ffffff"/>
   </g>
   <g id="matplotlib.axis_3">
    <g id="xtick_8">
     <g id="line2d_17">
      <g>
       <use xlink:href="#mea8ac293b1" x="57.53358" y="242.44" style="stroke: #000000; stroke-width: 0.8"/>
      </g>
     </g>
     <g id="text_8">
      <!-- 0 -->
      <g transform="translate(54.35233 257.038437) scale(0.1 -0.1)">
       <use xlink:href="#DejaVuSans-30"/>
      </g>
     </g>
    </g>
    <g id="xtick_9">
     <g id="line2d_18">
      <g>
       <use xlink:href="#mea8ac293b1" x="149.27423" y="242.44" style="stroke: #000000; stroke-width: 0.8"/>
      </g>
     </g>
     <g id="text_9">
      <!-- 50 -->
      <g transform="translate(142.91173 257.038437) scale(0.1 -0.1)">
       <defs>
        <path id="DejaVuSans-35" d="M 691 4666 
L 3169 4666 
L 3169 4134 
L 1269 4134 
L 1269 2991 
Q 1406 3038 1543 3061 
Q 1681 3084 1819 3084 
Q 2600 3084 3056 2656 
Q 3513 2228 3513 1497 
Q 3513 744 3044 326 
Q 2575 -91 1722 -91 
Q 1428 -91 1123 -41 
Q 819 9 494 109 
L 494 744 
Q 775 591 1075 516 
Q 1375 441 1709 441 
Q 2250 441 2565 725 
Q 2881 1009 2881 1497 
Q 2881 1984 2565 2268 
Q 2250 2553 1709 2553 
Q 1456 2553 1204 2497 
Q 953 2441 691 2322 
L 691 4666 
z
" transform="scale(0.015625)"/>
       </defs>
       <use xlink:href="#DejaVuSans-35"/>
       <use xlink:href="#DejaVuSans-30" x="63.623047"/>
      </g>
     </g>
    </g>
    <g id="xtick_10">
     <g id="line2d_19">
      <g>
       <use xlink:href="#mea8ac293b1" x="241.014881" y="242.44" style="stroke: #000000; stroke-width: 0.8"/>
      </g>
     </g>
     <g id="text_10">
      <!-- 100 -->
      <g transform="translate(231.471131 257.038437) scale(0.1 -0.1)">
       <use xlink:href="#DejaVuSans-31"/>
       <use xlink:href="#DejaVuSans-30" x="63.623047"/>
       <use xlink:href="#DejaVuSans-30" x="127.246094"/>
      </g>
     </g>
    </g>
    <g id="xtick_11">
     <g id="line2d_20">
      <g>
       <use xlink:href="#mea8ac293b1" x="332.755532" y="242.44" style="stroke: #000000; stroke-width: 0.8"/>
      </g>
     </g>
     <g id="text_11">
      <!-- 150 -->
      <g transform="translate(323.211782 257.038437) scale(0.1 -0.1)">
       <use xlink:href="#DejaVuSans-31"/>
       <use xlink:href="#DejaVuSans-35" x="63.623047"/>
       <use xlink:href="#DejaVuSans-30" x="127.246094"/>
      </g>
     </g>
    </g>
    <g id="xtick_12">
     <g id="line2d_21">
      <g>
       <use xlink:href="#mea8ac293b1" x="424.496182" y="242.44" style="stroke: #000000; stroke-width: 0.8"/>
      </g>
     </g>
     <g id="text_12">
      <!-- 200 -->
      <g transform="translate(414.952432 257.038437) scale(0.1 -0.1)">
       <use xlink:href="#DejaVuSans-32"/>
       <use xlink:href="#DejaVuSans-30" x="63.623047"/>
       <use xlink:href="#DejaVuSans-30" x="127.246094"/>
      </g>
     </g>
    </g>
    <g id="xtick_13">
     <g id="line2d_22">
      <g>
       <use xlink:href="#mea8ac293b1" x="516.236833" y="242.44" style="stroke: #000000; stroke-width: 0.8"/>
      </g>
     </g>
     <g id="text_13">
      <!-- 250 -->
      <g transform="translate(506.693083 257.038437) scale(0.1 -0.1)">
       <use xlink:href="#DejaVuSans-32"/>
       <use xlink:href="#DejaVuSans-35" x="63.623047"/>
       <use xlink:href="#DejaVuSans-30" x="127.246094"/>
      </g>
     </g>
    </g>
    <g id="xtick_14">
     <g id="line2d_23">
      <g>
       <use xlink:href="#mea8ac293b1" x="607.977483" y="242.44" style="stroke: #000000; stroke-width: 0.8"/>
      </g>
     </g>
     <g id="text_14">
      <!-- 300 -->
      <g transform="translate(598.433733 257.038437) scale(0.1 -0.1)">
       <defs>
        <path id="DejaVuSans-33" d="M 2597 2516 
Q 3050 2419 3304 2112 
Q 3559 1806 3559 1356 
Q 3559 666 3084 287 
Q 2609 -91 1734 -91 
Q 1441 -91 1130 -33 
Q 819 25 488 141 
L 488 750 
Q 750 597 1062 519 
Q 1375 441 1716 441 
Q 2309 441 2620 675 
Q 2931 909 2931 1356 
Q 2931 1769 2642 2001 
Q 2353 2234 1838 2234 
L 1294 2234 
L 1294 2753 
L 1863 2753 
Q 2328 2753 2575 2939 
Q 2822 3125 2822 3475 
Q 2822 3834 2567 4026 
Q 2313 4219 1838 4219 
Q 1578 4219 1281 4162 
Q 984 4106 628 3988 
L 628 4550 
Q 988 4650 1302 4700 
Q 1616 4750 1894 4750 
Q 2613 4750 3031 4423 
Q 3450 4097 3450 3541 
Q 3450 3153 3228 2886 
Q 3006 2619 2597 2516 
z
" transform="scale(0.015625)"/>
       </defs>
       <use xlink:href="#DejaVuSans-33"/>
       <use xlink:href="#DejaVuSans-30" x="63.623047"/>
       <use xlink:href="#DejaVuSans-30" x="127.246094"/>
      </g>
     </g>
    </g>
    <g id="text_15">
     <!-- time (days) -->
     <g transform="translate(303.249062 270.716562) scale(0.1 -0.1)">
      <defs>
       <path id="DejaVuSans-74" d="M 1172 4494 
L 1172 3500 
L 2356 3500 
L 2356 3053 
L 1172 3053 
L 1172 1153 
Q 1172 725 1289 603 
Q 1406 481 1766 481 
L 2356 481 
L 2356 0 
L 1766 0 
Q 1100 0 847 248 
Q 594 497 594 1153 
L 594 3053 
L 172 3053 
L 172 3500 
L 594 3500 
L 594 4494 
L 1172 4494 
z
" transform="scale(0.015625)"/>
       <path id="DejaVuSans-69" d="M 603 3500 
L 1178 3500 
L 1178 0 
L 603 0 
L 603 3500 
z
M 603 4863 
L 1178 4863 
L 1178 4134 
L 603 4134 
L 603 4863 
z
" transform="scale(0.015625)"/>
       <path id="DejaVuSans-6d" d="M 3328 2828 
Q 3544 3216 3844 3400 
Q 4144 3584 4550 3584 
Q 5097 3584 5394 3201 
Q 5691 2819 5691 2113 
L 5691 0 
L 5113 0 
L 5113 2094 
Q 5113 2597 4934 2840 
Q 4756 3084 4391 3084 
Q 3944 3084 3684 2787 
Q 3425 2491 3425 1978 
L 3425 0 
L 2847 0 
L 2847 2094 
Q 2847 2600 2669 2842 
Q 2491 3084 2119 3084 
Q 1678 3084 1418 2786 
Q 1159 2488 1159 1978 
L 1159 0 
L 581 0 
L 581 3500 
L 1159 3500 
L 1159 2956 
Q 1356 3278 1631 3431 
Q 1906 3584 2284 3584 
Q 2666 3584 2933 3390 
Q 3200 3197 3328 2828 
z
" transform="scale(0.015625)"/>
       <path id="DejaVuSans-65" d="M 3597 1894 
L 3597 1613 
L 953 1613 
Q 991 1019 1311 708 
Q 1631 397 2203 397 
Q 2534 397 2845 478 
Q 3156 559 3463 722 
L 3463 178 
Q 3153 47 2828 -22 
Q 2503 -91 2169 -91 
Q 1331 -91 842 396 
Q 353 884 353 1716 
Q 353 2575 817 3079 
Q 1281 3584 2069 3584 
Q 2775 3584 3186 3129 
Q 3597 2675 3597 1894 
z
M 3022 2063 
Q 3016 2534 2758 2815 
Q 2500 3097 2075 3097 
Q 1594 3097 1305 2825 
Q 1016 2553 972 2059 
L 3022 2063 
z
" transform="scale(0.015625)"/>
       <path id="DejaVuSans-20" transform="scale(0.015625)"/>
       <path id="DejaVuSans-28" d="M 1984 4856 
Q 1566 4138 1362 3434 
Q 1159 2731 1159 2009 
Q 1159 1288 1364 580 
Q 1569 -128 1984 -844 
L 1484 -844 
Q 1016 -109 783 600 
Q 550 1309 550 2009 
Q 550 2706 781 3412 
Q 1013 4119 1484 4856 
L 1984 4856 
z
" transform="scale(0.015625)"/>
       <path id="DejaVuSans-64" d="M 2906 2969 
L 2906 4863 
L 3481 4863 
L 3481 0 
L 2906 0 
L 2906 525 
Q 2725 213 2448 61 
Q 2172 -91 1784 -91 
Q 1150 -91 751 415 
Q 353 922 353 1747 
Q 353 2572 751 3078 
Q 1150 3584 1784 3584 
Q 2172 3584 2448 3432 
Q 2725 3281 2906 2969 
z
M 947 1747 
Q 947 1113 1208 752 
Q 1469 391 1925 391 
Q 2381 391 2643 752 
Q 2906 1113 2906 1747 
Q 2906 2381 2643 2742 
Q 2381 3103 1925 3103 
Q 1469 3103 1208 2742 
Q 947 2381 947 1747 
z
" transform="scale(0.015625)"/>
       <path id="DejaVuSans-61" d="M 2194 1759 
Q 1497 1759 1228 1600 
Q 959 1441 959 1056 
Q 959 750 1161 570 
Q 1363 391 1709 391 
Q 2188 391 2477 730 
Q 2766 1069 2766 1631 
L 2766 1759 
L 2194 1759 
z
M 3341 1997 
L 3341 0 
L 2766 0 
L 2766 531 
Q 2569 213 2275 61 
Q 1981 -91 1556 -91 
Q 1019 -91 701 211 
Q 384 513 384 1019 
Q 384 1609 779 1909 
Q 1175 2209 1959 2209 
L 2766 2209 
L 2766 2266 
Q 2766 2663 2505 2880 
Q 2244 3097 1772 3097 
Q 1472 3097 1187 3025 
Q 903 2953 641 2809 
L 641 3341 
Q 956 3463 1253 3523 
Q 1550 3584 1831 3584 
Q 2591 3584 2966 3190 
Q 3341 2797 3341 1997 
z
" transform="scale(0.015625)"/>
       <path id="DejaVuSans-79" d="M 2059 -325 
Q 1816 -950 1584 -1140 
Q 1353 -1331 966 -1331 
L 506 -1331 
L 506 -850 
L 844 -850 
Q 1081 -850 1212 -737 
Q 1344 -625 1503 -206 
L 1606 56 
L 191 3500 
L 800 3500 
L 1894 763 
L 2988 3500 
L 3597 3500 
L 2059 -325 
z
" transform="scale(0.015625)"/>
       <path id="DejaVuSans-73" d="M 2834 3397 
L 2834 2853 
Q 2591 2978 2328 3040 
Q 2066 3103 1784 3103 
Q 1356 3103 1142 2972 
Q 928 2841 928 2578 
Q 928 2378 1081 2264 
Q 1234 2150 1697 2047 
L 1894 2003 
Q 2506 1872 2764 1633 
Q 3022 1394 3022 966 
Q 3022 478 2636 193 
Q 2250 -91 1575 -91 
Q 1294 -91 989 -36 
Q 684 19 347 128 
L 347 722 
Q 666 556 975 473 
Q 1284 391 1588 391 
Q 1994 391 2212 530 
Q 2431 669 2431 922 
Q 2431 1156 2273 1281 
Q 2116 1406 1581 1522 
L 1381 1569 
Q 847 1681 609 1914 
Q 372 2147 372 2553 
Q 372 3047 722 3315 
Q 1072 3584 1716 3584 
Q 2034 3584 2315 3537 
Q 2597 3491 2834 3397 
z
" transform="scale(0.015625)"/>
       <path id="DejaVuSans-29" d="M 513 4856 
L 1013 4856 
Q 1481 4119 1714 3412 
Q 1947 2706 1947 2009 
Q 1947 1309 1714 600 
Q 1481 -109 1013 -844 
L 513 -844 
Q 928 -128 1133 580 
Q 1338 1288 1338 2009 
Q 1338 2731 1133 3434 
Q 928 4138 513 4856 
z
" transform="scale(0.015625)"/>
      </defs>
      <use xlink:href="#DejaVuSans-74"/>
      <use xlink:href="#DejaVuSans-69" x="39.208984"/>
      <use xlink:href="#DejaVuSans-6d" x="66.992188"/>
      <use xlink:href="#DejaVuSans-65" x="164.404297"/>
      <use xlink:href="#DejaVuSans-20" x="225.927734"/>
      <use xlink:href="#DejaVuSans-28" x="257.714844"/>
      <use xlink:href="#DejaVuSans-64" x="296.728516"/>
      <use xlink:href="#DejaVuSans-61" x="360.205078"/>
      <use xlink:href="#DejaVuSans-79" x="421.484375"/>
      <use xlink:href="#DejaVuSans-73" x="480.664062"/>
      <use xlink:href="#DejaVuSans-29" x="532.763672"/>
     </g>
    </g>
   </g>
   <g id="matplotlib.axis_4">
    <g id="ytick_6">
     <g id="line2d_24">
      <g>
       <use xlink:href="#m8929188192" x="30.103125" y="236.864126" style="stroke: #000000; stroke-width: 0.8"/>
      </g>
     </g>
     <g id="text_16">
      <!-- 0.0 -->
      <g transform="translate(7.2 240.663345) scale(0.1 -0.1)">
       <use xlink:href="#DejaVuSans-30"/>
       <use xlink:href="#DejaVuSans-2e" x="63.623047"/>
       <use xlink:href="#DejaVuSans-30" x="95.410156"/>
      </g>
     </g>
    </g>
    <g id="ytick_7">
     <g id="line2d_25">
      <g>
       <use xlink:href="#m8929188192" x="30.103125" y="207.6669" style="stroke: #000000; stroke-width: 0.8"/>
      </g>
     </g>
     <g id="text_17">
      <!-- 0.2 -->
      <g transform="translate(7.2 211.466119) scale(0.1 -0.1)">
       <use xlink:href="#DejaVuSans-30"/>
       <use xlink:href="#DejaVuSans-2e" x="63.623047"/>
       <use xlink:href="#DejaVuSans-32" x="95.410156"/>
      </g>
     </g>
    </g>
    <g id="ytick_8">
     <g id="line2d_26">
      <g>
       <use xlink:href="#m8929188192" x="30.103125" y="178.469675" style="stroke: #000000; stroke-width: 0.8"/>
      </g>
     </g>
     <g id="text_18">
      <!-- 0.4 -->
      <g transform="translate(7.2 182.268894) scale(0.1 -0.1)">
       <use xlink:href="#DejaVuSans-30"/>
       <use xlink:href="#DejaVuSans-2e" x="63.623047"/>
       <use xlink:href="#DejaVuSans-34" x="95.410156"/>
      </g>
     </g>
    </g>
    <g id="ytick_9">
     <g id="line2d_27">
      <g>
       <use xlink:href="#m8929188192" x="30.103125" y="149.272449" style="stroke: #000000; stroke-width: 0.8"/>
      </g>
     </g>
     <g id="text_19">
      <!-- 0.6 -->
      <g transform="translate(7.2 153.071668) scale(0.1 -0.1)">
       <use xlink:href="#DejaVuSans-30"/>
       <use xlink:href="#DejaVuSans-2e" x="63.623047"/>
       <use xlink:href="#DejaVuSans-36" x="95.410156"/>
      </g>
     </g>
    </g>
   </g>
   <g id="line2d_28">
    <path d="M 57.53358 236.864126 
L 123.586848 236.764917 
L 138.265352 236.547726 
L 147.439417 236.218753 
L 154.778669 235.730993 
L 160.283108 235.140147 
L 163.952734 234.589037 
L 167.62236 233.866865 
L 171.291986 232.929381 
L 174.961612 231.730644 
L 178.631238 230.210395 
L 182.300864 228.275978 
L 185.97049 225.85749 
L 187.805303 224.47061 
L 191.474929 221.27994 
L 195.144556 217.557904 
L 198.814182 213.30361 
L 202.483808 208.535411 
L 206.153434 203.335584 
L 211.657873 195.053712 
L 218.997125 183.844886 
L 224.501564 175.874205 
L 228.17119 170.839912 
L 231.840816 166.149229 
L 235.510442 161.829575 
L 239.180068 157.929455 
L 242.849694 154.427543 
L 246.51932 151.303643 
L 250.188946 148.557446 
L 253.858572 146.150389 
L 257.528198 144.079564 
L 261.197824 142.317825 
L 264.86745 140.845385 
L 268.537076 139.650299 
L 272.206702 138.709029 
L 275.876328 138.00342 
L 279.545954 137.506893 
L 283.21558 137.181457 
L 288.720019 136.991364 
L 294.224458 137.088314 
L 299.728897 137.445244 
L 305.233336 138.012401 
L 312.572588 139.035728 
L 319.91184 140.30762 
L 329.085905 142.140388 
L 341.929597 145.001248 
L 358.442914 148.933202 
L 380.46067 154.162161 
L 393.304361 156.986729 
L 404.313239 159.202874 
L 415.322117 161.194854 
L 426.330995 162.947838 
L 437.339873 164.450934 
L 446.513938 165.497245 
L 455.688003 166.313447 
L 464.862068 166.893012 
L 472.201321 167.172614 
L 479.540573 167.265692 
L 488.714638 167.178043 
L 499.723516 166.798842 
L 508.897581 166.238562 
L 519.906459 165.354507 
L 543.759028 163.155022 
L 576.785662 160.048946 
L 591.464166 158.995127 
L 606.14267 158.214697 
L 606.14267 158.214697 
" clip-path="url(#p5fdc8fd51d)" style="fill: none; stroke: #1f77b4; stroke-width: 2; stroke-linecap: square"/>
   </g>
   <g id="line2d_29">
    <path d="M 57.53358 236.507736 
L 59.368393 237.418636 
L 63.038019 236.736316 
L 66.707645 236.761945 
L 68.542458 236.909738 
L 70.377271 236.883222 
L 72.212084 236.735488 
L 81.386149 236.689412 
L 85.055775 236.785103 
L 88.725401 236.818216 
L 92.395027 236.901119 
L 105.238718 236.335586 
L 108.908344 236.333648 
L 112.57797 236.608209 
L 118.082409 236.915263 
L 123.586848 236.675484 
L 125.421661 236.787911 
L 127.256474 236.717255 
L 129.091287 236.797086 
L 132.760913 236.646924 
L 134.595726 236.741306 
L 138.265352 236.629547 
L 140.100165 236.755081 
L 152.943856 235.78172 
L 156.613482 234.87141 
L 162.117921 234.138749 
L 165.787547 234.011292 
L 167.62236 234.026755 
L 169.457173 233.824571 
L 171.291986 233.226186 
L 173.126799 232.173681 
L 178.631238 227.971566 
L 180.466051 227.184141 
L 184.135677 226.284222 
L 187.805303 225.014526 
L 189.640116 223.880994 
L 191.474929 222.226776 
L 195.144556 217.59471 
L 198.814182 212.810569 
L 202.483808 208.827289 
L 204.318621 206.670712 
L 207.988247 203.213343 
L 209.82306 201.15769 
L 213.492686 195.848756 
L 215.327499 193.780234 
L 218.997125 187.766422 
L 220.831938 185.490792 
L 222.666751 182.915363 
L 228.17119 174.111609 
L 230.006003 172.04524 
L 231.840816 169.769193 
L 233.675629 167.196513 
L 237.345255 163.624646 
L 239.180068 161.683456 
L 241.014881 160.051386 
L 242.849694 157.867565 
L 244.684507 156.664755 
L 246.51932 155.165921 
L 248.354133 153.90562 
L 250.188946 152.359964 
L 252.023759 151.038875 
L 253.858572 150.173472 
L 255.693385 149.179627 
L 257.528198 148.387604 
L 259.363011 147.419533 
L 261.197824 146.694267 
L 264.86745 145.742067 
L 266.702263 145.658994 
L 270.371889 144.703053 
L 275.876328 144.144124 
L 279.545954 143.189731 
L 281.380767 142.902844 
L 285.050393 142.758383 
L 286.885206 142.820502 
L 290.554832 142.457504 
L 292.389645 142.385943 
L 296.059271 142.747454 
L 297.894084 142.904471 
L 301.56371 142.800454 
L 305.233336 143.050543 
L 308.902962 143.169518 
L 314.407401 144.122614 
L 316.242214 144.472081 
L 319.91184 144.987242 
L 325.416279 145.970271 
L 329.085905 146.869479 
L 336.425158 148.085455 
L 340.094784 148.908229 
L 343.76441 149.633939 
L 349.268849 151.042686 
L 358.442914 153.094985 
L 363.947353 154.569863 
L 369.451792 156.047796 
L 385.965109 160.156586 
L 389.634735 161.315072 
L 393.304361 162.285457 
L 396.973987 163.270192 
L 398.8088 163.651803 
L 406.148052 165.607471 
L 411.652491 167.637111 
L 415.322117 168.629834 
L 418.991743 169.32963 
L 422.661369 170.073587 
L 426.330995 171.131344 
L 428.165808 171.702325 
L 435.50506 173.202481 
L 441.009499 174.054536 
L 444.679125 174.305268 
L 446.513938 174.513664 
L 448.348751 174.459802 
L 453.85319 174.699583 
L 455.688003 175.14548 
L 457.522816 175.316425 
L 459.357629 175.636773 
L 463.027255 175.907162 
L 466.696881 175.33321 
L 468.531694 175.137675 
L 470.366507 175.177771 
L 475.870947 174.83396 
L 477.70576 175.191889 
L 479.540573 175.358448 
L 483.210199 175.474286 
L 486.879825 175.015685 
L 488.714638 175.116578 
L 492.384264 175.00845 
L 499.723516 173.678703 
L 505.227955 173.040547 
L 507.062768 173.121436 
L 514.40202 172.592422 
L 516.236833 172.290708 
L 523.576085 171.511206 
L 529.080524 170.502351 
L 532.75015 170.486201 
L 538.254589 169.594755 
L 540.089402 168.954728 
L 543.759028 168.352022 
L 545.593841 168.301954 
L 549.263467 167.70808 
L 552.933093 167.388876 
L 556.602719 167.335179 
L 558.437532 167.012034 
L 560.272345 166.88112 
L 563.941971 166.092116 
L 567.611597 165.530516 
L 576.785662 165.441309 
L 584.124914 163.936836 
L 589.629353 164.168504 
L 593.298979 163.657676 
L 598.803418 163.653656 
L 606.14267 163.083842 
L 606.14267 163.083842 
" clip-path="url(#p5fdc8fd51d)" style="fill: none; stroke-dasharray: 5.55,2.4; stroke-dashoffset: 0; stroke: #000000; stroke-width: 1.5"/>
   </g>
   <g id="patch_9">
    <path d="M 30.103125 242.44 
L 30.103125 131.97 
" style="fill: none; stroke: #000000; stroke-width: 0.8; stroke-linejoin: miter; stroke-linecap: square"/>
   </g>
   <g id="patch_10">
    <path d="M 633.573125 242.44 
L 633.573125 131.97 
" style="fill: none; stroke: #000000; stroke-width: 0.8; stroke-linejoin: miter; stroke-linecap: square"/>
   </g>
   <g id="patch_11">
    <path d="M 30.103125 242.44 
L 633.573125 242.44 
" style="fill: none; stroke: #000000; stroke-width: 0.8; stroke-linejoin: miter; stroke-linecap: square"/>
   </g>
   <g id="patch_12">
    <path d="M 30.103125 131.97 
L 633.573125 131.97 
" style="fill: none; stroke: #000000; stroke-width: 0.8; stroke-linejoin: miter; stroke-linecap: square"/>
   </g>
   <g id="legend_2">
    <g id="patch_13">
     <path d="M 37.103125 170.648125 
L 76.103125 170.648125 
Q 78.103125 170.648125 78.103125 168.648125 
L 78.103125 138.97 
Q 78.103125 136.97 76.103125 136.97 
L 37.103125 136.97 
Q 35.103125 136.97 35.103125 138.97 
L 35.103125 168.648125 
Q 35.103125 170.648125 37.103125 170.648125 
z
" style="fill: #ffffff; opacity: 0.8; stroke: #cccccc; stroke-linejoin: miter"/>
    </g>
    <g id="line2d_30">
     <path d="M 39.103125 145.068437 
L 49.103125 145.068437 
L 59.103125 145.068437 
" style="fill: none; stroke: #1f77b4; stroke-width: 2; stroke-linecap: square"/>
    </g>
    <g id="text_20">
     <!-- $R$ -->
     <g transform="translate(67.103125 148.568437) scale(0.1 -0.1)">
      <defs>
       <path id="DejaVuSans-Oblique-52" d="M 1613 4147 
L 1294 2491 
L 2106 2491 
Q 2584 2491 2879 2755 
Q 3175 3019 3175 3444 
Q 3175 3784 2976 3965 
Q 2778 4147 2406 4147 
L 1613 4147 
z
M 2772 2241 
Q 2972 2194 3105 2009 
Q 3238 1825 3413 1275 
L 3809 0 
L 3144 0 
L 2778 1197 
Q 2638 1659 2453 1815 
Q 2269 1972 1888 1972 
L 1191 1972 
L 806 0 
L 172 0 
L 1081 4666 
L 2503 4666 
Q 3150 4666 3495 4373 
Q 3841 4081 3841 3531 
Q 3841 3044 3547 2687 
Q 3253 2331 2772 2241 
z
" transform="scale(0.015625)"/>
      </defs>
      <use xlink:href="#DejaVuSans-Oblique-52" transform="translate(0 0.09375)"/>
     </g>
    </g>
    <g id="line2d_31">
     <path d="M 39.103125 161.068437 
L 49.103125 161.068437 
L 59.103125 161.068437 
" style="fill: none; stroke-dasharray: 5.55,2.4; stroke-dashoffset: 0; stroke: #000000; stroke-width: 1.5"/>
    </g>
    <g id="text_21">
     <!-- $\hat R$ -->
     <g transform="translate(67.103125 164.568437) scale(0.1 -0.1)">
      <use xlink:href="#DejaVuSans-302" transform="translate(60.90625 30.015625)"/>
      <use xlink:href="#DejaVuSans-Oblique-52" transform="translate(0 0.609375)"/>
     </g>
    </g>
   </g>
  </g>
 </g>
 <defs>
  <clipPath id="pd306f64ad6">
   <rect x="30.103125" y="7.2" width="603.47" height="110.47"/>
  </clipPath>
  <clipPath id="p5fdc8fd51d">
   <rect x="30.103125" y="131.97" width="603.47" height="110.47"/>
  </clipPath>
 </defs>
</svg>
