<?xml version="1.0" encoding="utf-8" standalone="no"?>
<!DOCTYPE svg PUBLIC "-//W3C//DTD SVG 1.1//EN"
  "http://www.w3.org/Graphics/SVG/1.1/DTD/svg11.dtd">
<svg xmlns:xlink="http://www.w3.org/1999/xlink" width="640.745625pt" height="279.99625pt" viewBox="0 0 640.745625 279.99625" xmlns="http://www.w3.org/2000/svg" version="1.1">
 <metadata>
  <rdf:RDF xmlns:dc="http://purl.org/dc/elements/1.1/" xmlns:cc="http://creativecommons.org/ns#" xmlns:rdf="http://www.w3.org/1999/02/22-rdf-syntax-ns#">
   <cc:Work>
    <dc:type rdf:resource="http://purl.org/dc/dcmitype/StillImage"/>
    <dc:date>2025-07-11T19:08:31.266846</dc:date>
    <dc:format>image/svg+xml</dc:format>
    <dc:creator>
     <cc:Agent>
      <dc:title>Matplotlib v3.6.3, https://matplotlib.org/</dc:title>
     </cc:Agent>
    </dc:creator>
   </cc:Work>
  </rdf:RDF>
 </metadata>
 <defs>
  <style type="text/css">*{stroke-linejoin: round; stroke-linecap: butt}</style>
 </defs>
 <g id="figure_1">
  <g id="patch_1">
   <path d="M 0 279.99625 
L 640.745625 279.99625 
L 640.745625 0 
L 0 0 
z
" style="fill: #ffffff"/>
  </g>
  <g id="axes_1">
   <g id="patch_2">
    <path d="M 36.465625 117.67 
L 633.545625 117.67 
L 633.545625 7.2 
L 36.465625 7.2 
z
" style="fill: #ffffff"/>
   </g>
   <g id="matplotlib.axis_1">
    <g id="xtick_1">
     <g id="line2d_1">
      <defs>
       <path id="md6c24020b2" d="M 0 0 
L 0 3.5 
" style="stroke: #000000; stroke-width: 0.8"/>
      </defs>
      <g>
       <use xlink:href="#md6c24020b2" x="63.605625" y="117.67" style="stroke: #000000; stroke-width: 0.8"/>
      </g>
     </g>
    </g>
    <g id="xtick_2">
     <g id="line2d_2">
      <g>
       <use xlink:href="#md6c24020b2" x="154.374856" y="117.67" style="stroke: #000000; stroke-width: 0.8"/>
      </g>
     </g>
    </g>
    <g id="xtick_3">
     <g id="line2d_3">
      <g>
       <use xlink:href="#md6c24020b2" x="245.144087" y="117.67" style="stroke: #000000; stroke-width: 0.8"/>
      </g>
     </g>
    </g>
    <g id="xtick_4">
     <g id="line2d_4">
      <g>
       <use xlink:href="#md6c24020b2" x="335.913317" y="117.67" style="stroke: #000000; stroke-width: 0.8"/>
      </g>
     </g>
    </g>
    <g id="xtick_5">
     <g id="line2d_5">
      <g>
       <use xlink:href="#md6c24020b2" x="426.682548" y="117.67" style="stroke: #000000; stroke-width: 0.8"/>
      </g>
     </g>
    </g>
    <g id="xtick_6">
     <g id="line2d_6">
      <g>
       <use xlink:href="#md6c24020b2" x="517.451779" y="117.67" style="stroke: #000000; stroke-width: 0.8"/>
      </g>
     </g>
    </g>
    <g id="xtick_7">
     <g id="line2d_7">
      <g>
       <use xlink:href="#md6c24020b2" x="608.22101" y="117.67" style="stroke: #000000; stroke-width: 0.8"/>
      </g>
     </g>
    </g>
   </g>
   <g id="matplotlib.axis_2">
    <g id="ytick_1">
     <g id="line2d_8">
      <defs>
       <path id="m5e40cc22bf" d="M 0 0 
L -3.5 0 
" style="stroke: #000000; stroke-width: 0.8"/>
      </defs>
      <g>
       <use xlink:href="#m5e40cc22bf" x="36.465625" y="114.556866" style="stroke: #000000; stroke-width: 0.8"/>
      </g>
     </g>
     <g id="text_1">
      <!-- 0.00 -->
      <g transform="translate(7.2 118.356085) scale(0.1 -0.1)">
       <defs>
        <path id="DejaVuSans-30" d="M 2034 4250 
Q 1547 4250 1301 3770 
Q 1056 3291 1056 2328 
Q 1056 1369 1301 889 
Q 1547 409 2034 409 
Q 2525 409 2770 889 
Q 3016 1369 3016 2328 
Q 3016 3291 2770 3770 
Q 2525 4250 2034 4250 
z
M 2034 4750 
Q 2819 4750 3233 4129 
Q 3647 3509 3647 2328 
Q 3647 1150 3233 529 
Q 2819 -91 2034 -91 
Q 1250 -91 836 529 
Q 422 1150 422 2328 
Q 422 3509 836 4129 
Q 1250 4750 2034 4750 
z
" transform="scale(0.015625)"/>
        <path id="DejaVuSans-2e" d="M 684 794 
L 1344 794 
L 1344 0 
L 684 0 
L 684 794 
z
" transform="scale(0.015625)"/>
       </defs>
       <use xlink:href="#DejaVuSans-30"/>
       <use xlink:href="#DejaVuSans-2e" x="63.623047"/>
       <use xlink:href="#DejaVuSans-30" x="95.410156"/>
       <use xlink:href="#DejaVuSans-30" x="159.033203"/>
      </g>
     </g>
    </g>
    <g id="ytick_2">
     <g id="line2d_9">
      <g>
       <use xlink:href="#m5e40cc22bf" x="36.465625" y="88.995464" style="stroke: #000000; stroke-width: 0.8"/>
      </g>
     </g>
     <g id="text_2">
      <!-- 0.25 -->
      <g transform="translate(7.2 92.794682) scale(0.1 -0.1)">
       <defs>
        <path id="DejaVuSans-32" d="M 1228 531 
L 3431 531 
L 3431 0 
L 469 0 
L 469 531 
Q 828 903 1448 1529 
Q 2069 2156 2228 2338 
Q 2531 2678 2651 2914 
Q 2772 3150 2772 3378 
Q 2772 3750 2511 3984 
Q 2250 4219 1831 4219 
Q 1534 4219 1204 4116 
Q 875 4013 500 3803 
L 500 4441 
Q 881 4594 1212 4672 
Q 1544 4750 1819 4750 
Q 2544 4750 2975 4387 
Q 3406 4025 3406 3419 
Q 3406 3131 3298 2873 
Q 3191 2616 2906 2266 
Q 2828 2175 2409 1742 
Q 1991 1309 1228 531 
z
" transform="scale(0.015625)"/>
        <path id="DejaVuSans-35" d="M 691 4666 
L 3169 4666 
L 3169 4134 
L 1269 4134 
L 1269 2991 
Q 1406 3038 1543 3061 
Q 1681 3084 1819 3084 
Q 2600 3084 3056 2656 
Q 3513 2228 3513 1497 
Q 3513 744 3044 326 
Q 2575 -91 1722 -91 
Q 1428 -91 1123 -41 
Q 819 9 494 109 
L 494 744 
Q 775 591 1075 516 
Q 1375 441 1709 441 
Q 2250 441 2565 725 
Q 2881 1009 2881 1497 
Q 2881 1984 2565 2268 
Q 2250 2553 1709 2553 
Q 1456 2553 1204 2497 
Q 953 2441 691 2322 
L 691 4666 
z
" transform="scale(0.015625)"/>
       </defs>
       <use xlink:href="#DejaVuSans-30"/>
       <use xlink:href="#DejaVuSans-2e" x="63.623047"/>
       <use xlink:href="#DejaVuSans-32" x="95.410156"/>
       <use xlink:href="#DejaVuSans-35" x="159.033203"/>
      </g>
     </g>
    </g>
    <g id="ytick_3">
     <g id="line2d_10">
      <g>
       <use xlink:href="#m5e40cc22bf" x="36.465625" y="63.434061" style="stroke: #000000; stroke-width: 0.8"/>
      </g>
     </g>
     <g id="text_3">
      <!-- 0.50 -->
      <g transform="translate(7.2 67.233279) scale(0.1 -0.1)">
       <use xlink:href="#DejaVuSans-30"/>
       <use xlink:href="#DejaVuSans-2e" x="63.623047"/>
       <use xlink:href="#DejaVuSans-35" x="95.410156"/>
       <use xlink:href="#DejaVuSans-30" x="159.033203"/>
      </g>
     </g>
    </g>
    <g id="ytick_4">
     <g id="line2d_11">
      <g>
       <use xlink:href="#m5e40cc22bf" x="36.465625" y="37.872658" style="stroke: #000000; stroke-width: 0.8"/>
      </g>
     </g>
     <g id="text_4">
      <!-- 0.75 -->
      <g transform="translate(7.2 41.671876) scale(0.1 -0.1)">
       <defs>
        <path id="DejaVuSans-37" d="M 525 4666 
L 3525 4666 
L 3525 4397 
L 1831 0 
L 1172 0 
L 2766 4134 
L 525 4134 
L 525 4666 
z
" transform="scale(0.015625)"/>
       </defs>
       <use xlink:href="#DejaVuSans-30"/>
       <use xlink:href="#DejaVuSans-2e" x="63.623047"/>
       <use xlink:href="#DejaVuSans-37" x="95.410156"/>
       <use xlink:href="#DejaVuSans-35" x="159.033203"/>
      </g>
     </g>
    </g>
    <g id="ytick_5">
     <g id="line2d_12">
      <g>
       <use xlink:href="#m5e40cc22bf" x="36.465625" y="12.311255" style="stroke: #000000; stroke-width: 0.8"/>
      </g>
     </g>
     <g id="text_5">
      <!-- 1.00 -->
      <g transform="translate(7.2 16.110474) scale(0.1 -0.1)">
       <defs>
        <path id="DejaVuSans-31" d="M 794 531 
L 1825 531 
L 1825 4091 
L 703 3866 
L 703 4441 
L 1819 4666 
L 2450 4666 
L 2450 531 
L 3481 531 
L 3481 0 
L 794 0 
L 794 531 
z
" transform="scale(0.015625)"/>
       </defs>
       <use xlink:href="#DejaVuSans-31"/>
       <use xlink:href="#DejaVuSans-2e" x="63.623047"/>
       <use xlink:href="#DejaVuSans-30" x="95.410156"/>
       <use xlink:href="#DejaVuSans-30" x="159.033203"/>
      </g>
     </g>
    </g>
   </g>
   <g id="line2d_13">
    <path d="M 63.605625 12.312277 
L 89.02101 12.420282 
L 94.467163 12.597105 
L 98.097933 12.857523 
L 101.728702 13.346372 
L 103.544087 13.739046 
L 105.359471 14.279017 
L 107.174856 15.011581 
L 108.99024 16.002716 
L 110.805625 17.342824 
L 112.62101 19.165377 
L 114.436394 21.568279 
L 116.251779 24.711129 
L 118.067163 28.842888 
L 119.882548 34.145796 
L 121.697933 40.743266 
L 123.513317 48.594393 
L 125.328702 57.331786 
L 128.959471 76.006204 
L 130.774856 84.432846 
L 132.59024 91.561799 
L 134.405625 97.392123 
L 136.22101 101.919368 
L 138.036394 105.243002 
L 139.851779 107.583396 
L 141.667163 109.178816 
L 143.482548 110.286582 
L 145.297933 111.070824 
L 147.113317 111.612194 
L 148.928702 111.971025 
L 152.559471 112.326856 
L 156.19024 112.410417 
L 161.636394 112.253387 
L 168.897933 111.727042 
L 177.974856 110.820635 
L 187.051779 109.712923 
L 203.39024 107.413123 
L 225.174856 104.147343 
L 252.405625 100.121539 
L 265.113317 98.522234 
L 276.005625 97.348529 
L 286.897933 96.446842 
L 295.974856 95.844481 
L 305.051779 95.452344 
L 312.313317 95.354091 
L 321.39024 95.486638 
L 335.913317 96.073512 
L 348.62101 96.848955 
L 381.297933 99.028128 
L 392.19024 99.404162 
L 403.082548 99.501226 
L 417.605625 99.408833 
L 437.574856 98.939385 
L 455.728702 98.626572 
L 515.636394 98.351667 
L 575.544087 98.436461 
L 606.405625 98.736201 
L 606.405625 98.736201 
" clip-path="url(#pf1dbc49b59)" style="fill: none; stroke: #1f77b4; stroke-width: 2; stroke-linecap: square"/>
   </g>
   <g id="line2d_14">
    <path d="M 63.605625 12.290936 
L 65.42101 12.257564 
L 67.236394 12.95323 
L 69.051779 12.221364 
L 72.682548 12.596883 
L 76.313317 12.528078 
L 78.128702 12.720524 
L 81.759471 12.562182 
L 83.574856 12.360119 
L 87.205625 12.281246 
L 89.02101 12.493438 
L 90.836394 12.423634 
L 94.467163 12.660886 
L 98.097933 13.411668 
L 99.913317 13.638377 
L 103.544087 14.577864 
L 105.359471 15.150888 
L 107.174856 15.552125 
L 108.99024 16.069362 
L 110.805625 17.353751 
L 112.62101 18.914309 
L 114.436394 21.075072 
L 116.251779 24.320063 
L 118.067163 28.234934 
L 119.882548 33.009054 
L 121.697933 39.571777 
L 123.513317 47.135526 
L 125.328702 55.936812 
L 128.959471 74.730964 
L 130.774856 83.395637 
L 132.59024 91.144503 
L 134.405625 97.415489 
L 136.22101 101.831995 
L 138.036394 104.9104 
L 139.851779 107.044943 
L 141.667163 108.767415 
L 143.482548 110.320139 
L 145.297933 111.463536 
L 147.113317 112.186535 
L 150.744087 112.539155 
L 152.559471 112.648636 
L 154.374856 112.479732 
L 156.19024 112.496071 
L 158.005625 112.30939 
L 159.82101 112.298673 
L 163.451779 111.85079 
L 165.267163 111.793616 
L 167.082548 111.546346 
L 168.897933 111.566646 
L 170.713317 111.344654 
L 172.528702 111.307674 
L 177.974856 110.739346 
L 183.42101 109.870428 
L 210.651779 105.749621 
L 219.728702 104.573839 
L 225.174856 103.835409 
L 234.251779 102.680844 
L 243.328702 101.390578 
L 250.59024 100.415811 
L 254.22101 99.917189 
L 259.667163 99.303967 
L 265.113317 98.697997 
L 272.374856 97.888977 
L 283.267163 96.902732 
L 294.159471 96.116701 
L 295.974856 96.055875 
L 299.605625 95.807679 
L 308.682548 95.406488 
L 314.128702 95.311326 
L 332.282548 95.674031 
L 352.251779 96.926798 
L 359.513317 97.479552 
L 386.744087 98.975855 
L 390.374856 99.051973 
L 394.005625 99.181106 
L 399.451779 99.245291 
L 403.082548 99.321494 
L 412.159471 99.357487 
L 419.42101 99.26876 
L 424.867163 99.15274 
L 430.313317 98.915299 
L 457.544087 98.379932 
L 466.62101 98.347757 
L 473.882548 98.279382 
L 477.513317 98.267132 
L 533.79024 98.070652 
L 542.867163 97.935273 
L 553.759471 98.257552 
L 557.39024 98.327445 
L 571.913317 98.148004 
L 584.62101 98.405949 
L 590.067163 98.460042 
L 600.959471 98.39202 
L 606.405625 98.501404 
L 606.405625 98.501404 
" clip-path="url(#pf1dbc49b59)" style="fill: none; stroke-dasharray: 5.55,2.4; stroke-dashoffset: 0; stroke: #000000; stroke-width: 1.5"/>
   </g>
   <g id="patch_3">
    <path d="M 36.465625 117.67 
L 36.465625 7.2 
" style="fill: none; stroke: #000000; stroke-width: 0.8; stroke-linejoin: miter; stroke-linecap: square"/>
   </g>
   <g id="patch_4">
    <path d="M 633.545625 117.67 
L 633.545625 7.2 
" style="fill: none; stroke: #000000; stroke-width: 0.8; stroke-linejoin: miter; stroke-linecap: square"/>
   </g>
   <g id="patch_5">
    <path d="M 36.465625 117.67 
L 633.545625 117.67 
" style="fill: none; stroke: #000000; stroke-width: 0.8; stroke-linejoin: miter; stroke-linecap: square"/>
   </g>
   <g id="patch_6">
    <path d="M 36.465625 7.2 
L 633.545625 7.2 
" style="fill: none; stroke: #000000; stroke-width: 0.8; stroke-linejoin: miter; stroke-linecap: square"/>
   </g>
   <g id="legend_1">
    <g id="patch_7">
     <path d="M 588.145625 46.178125 
L 626.545625 46.178125 
Q 628.545625 46.178125 628.545625 44.178125 
L 628.545625 14.2 
Q 628.545625 12.2 626.545625 12.2 
L 588.145625 12.2 
Q 586.145625 12.2 586.145625 14.2 
L 586.145625 44.178125 
Q 586.145625 46.178125 588.145625 46.178125 
z
" style="fill: #ffffff; opacity: 0.8; stroke: #cccccc; stroke-linejoin: miter"/>
    </g>
    <g id="line2d_15">
     <path d="M 590.145625 20.298437 
L 600.145625 20.298437 
L 610.145625 20.298437 
" style="fill: none; stroke: #1f77b4; stroke-width: 2; stroke-linecap: square"/>
    </g>
    <g id="text_6">
     <!-- $S$ -->
     <g transform="translate(618.145625 23.798437) scale(0.1 -0.1)">
      <defs>
       <path id="DejaVuSans-Oblique-53" d="M 3859 4513 
L 3738 3897 
Q 3422 4066 3111 4152 
Q 2800 4238 2509 4238 
Q 1944 4238 1609 3991 
Q 1275 3744 1275 3334 
Q 1275 3109 1398 2989 
Q 1522 2869 2034 2731 
L 2413 2638 
Q 3053 2472 3303 2217 
Q 3553 1963 3553 1503 
Q 3553 797 2998 353 
Q 2444 -91 1538 -91 
Q 1166 -91 791 -17 
Q 416 56 38 206 
L 166 856 
Q 513 641 861 531 
Q 1209 422 1556 422 
Q 2147 422 2503 684 
Q 2859 947 2859 1369 
Q 2859 1650 2717 1795 
Q 2575 1941 2106 2059 
L 1728 2156 
Q 1081 2325 845 2545 
Q 609 2766 609 3163 
Q 609 3859 1145 4304 
Q 1681 4750 2541 4750 
Q 2875 4750 3203 4690 
Q 3531 4631 3859 4513 
z
" transform="scale(0.015625)"/>
      </defs>
      <use xlink:href="#DejaVuSans-Oblique-53" transform="translate(0 0.78125)"/>
     </g>
    </g>
    <g id="line2d_16">
     <path d="M 590.145625 36.598437 
L 600.145625 36.598437 
L 610.145625 36.598437 
" style="fill: none; stroke-dasharray: 5.55,2.4; stroke-dashoffset: 0; stroke: #000000; stroke-width: 1.5"/>
    </g>
    <g id="text_7">
     <!-- $\hat S$ -->
     <g transform="translate(618.145625 40.098437) scale(0.1 -0.1)">
      <defs>
       <path id="DejaVuSans-302" d="M -1831 5119 
L -1369 5119 
L -603 3944 
L -1038 3944 
L -1600 4709 
L -2163 3944 
L -2597 3944 
L -1831 5119 
z
M -1600 3584 
L -1600 3584 
z
" transform="scale(0.015625)"/>
      </defs>
      <use xlink:href="#DejaVuSans-302" transform="translate(62.503906 31.015625)"/>
      <use xlink:href="#DejaVuSans-Oblique-53" transform="translate(0 0.296875)"/>
     </g>
    </g>
   </g>
  </g>
  <g id="axes_2">
   <g id="patch_8">
    <path d="M 36.465625 242.44 
L 633.545625 242.44 
L 633.545625 131.97 
L 36.465625 131.97 
z
" style="fill: #ffffff"/>
   </g>
   <g id="matplotlib.axis_3">
    <g id="xtick_8">
     <g id="line2d_17">
      <g>
       <use xlink:href="#md6c24020b2" x="63.605625" y="242.44" style="stroke: #000000; stroke-width: 0.8"/>
      </g>
     </g>
     <g id="text_8">
      <!-- 0 -->
      <g transform="translate(60.424375 257.038437) scale(0.1 -0.1)">
       <use xlink:href="#DejaVuSans-30"/>
      </g>
     </g>
    </g>
    <g id="xtick_9">
     <g id="line2d_18">
      <g>
       <use xlink:href="#md6c24020b2" x="154.374856" y="242.44" style="stroke: #000000; stroke-width: 0.8"/>
      </g>
     </g>
     <g id="text_9">
      <!-- 50 -->
      <g transform="translate(148.012356 257.038437) scale(0.1 -0.1)">
       <use xlink:href="#DejaVuSans-35"/>
       <use xlink:href="#DejaVuSans-30" x="63.623047"/>
      </g>
     </g>
    </g>
    <g id="xtick_10">
     <g id="line2d_19">
      <g>
       <use xlink:href="#md6c24020b2" x="245.144087" y="242.44" style="stroke: #000000; stroke-width: 0.8"/>
      </g>
     </g>
     <g id="text_10">
      <!-- 100 -->
      <g transform="translate(235.600337 257.038437) scale(0.1 -0.1)">
       <use xlink:href="#DejaVuSans-31"/>
       <use xlink:href="#DejaVuSans-30" x="63.623047"/>
       <use xlink:href="#DejaVuSans-30" x="127.246094"/>
      </g>
     </g>
    </g>
    <g id="xtick_11">
     <g id="line2d_20">
      <g>
       <use xlink:href="#md6c24020b2" x="335.913317" y="242.44" style="stroke: #000000; stroke-width: 0.8"/>
      </g>
     </g>
     <g id="text_11">
      <!-- 150 -->
      <g transform="translate(326.369567 257.038437) scale(0.1 -0.1)">
       <use xlink:href="#DejaVuSans-31"/>
       <use xlink:href="#DejaVuSans-35" x="63.623047"/>
       <use xlink:href="#DejaVuSans-30" x="127.246094"/>
      </g>
     </g>
    </g>
    <g id="xtick_12">
     <g id="line2d_21">
      <g>
       <use xlink:href="#md6c24020b2" x="426.682548" y="242.44" style="stroke: #000000; stroke-width: 0.8"/>
      </g>
     </g>
     <g id="text_12">
      <!-- 200 -->
      <g transform="translate(417.138798 257.038437) scale(0.1 -0.1)">
       <use xlink:href="#DejaVuSans-32"/>
       <use xlink:href="#DejaVuSans-30" x="63.623047"/>
       <use xlink:href="#DejaVuSans-30" x="127.246094"/>
      </g>
     </g>
    </g>
    <g id="xtick_13">
     <g id="line2d_22">
      <g>
       <use xlink:href="#md6c24020b2" x="517.451779" y="242.44" style="stroke: #000000; stroke-width: 0.8"/>
      </g>
     </g>
     <g id="text_13">
      <!-- 250 -->
      <g transform="translate(507.908029 257.038437) scale(0.1 -0.1)">
       <use xlink:href="#DejaVuSans-32"/>
       <use xlink:href="#DejaVuSans-35" x="63.623047"/>
       <use xlink:href="#DejaVuSans-30" x="127.246094"/>
      </g>
     </g>
    </g>
    <g id="xtick_14">
     <g id="line2d_23">
      <g>
       <use xlink:href="#md6c24020b2" x="608.22101" y="242.44" style="stroke: #000000; stroke-width: 0.8"/>
      </g>
     </g>
     <g id="text_14">
      <!-- 300 -->
      <g transform="translate(598.67726 257.038437) scale(0.1 -0.1)">
       <defs>
        <path id="DejaVuSans-33" d="M 2597 2516 
Q 3050 2419 3304 2112 
Q 3559 1806 3559 1356 
Q 3559 666 3084 287 
Q 2609 -91 1734 -91 
Q 1441 -91 1130 -33 
Q 819 25 488 141 
L 488 750 
Q 750 597 1062 519 
Q 1375 441 1716 441 
Q 2309 441 2620 675 
Q 2931 909 2931 1356 
Q 2931 1769 2642 2001 
Q 2353 2234 1838 2234 
L 1294 2234 
L 1294 2753 
L 1863 2753 
Q 2328 2753 2575 2939 
Q 2822 3125 2822 3475 
Q 2822 3834 2567 4026 
Q 2313 4219 1838 4219 
Q 1578 4219 1281 4162 
Q 984 4106 628 3988 
L 628 4550 
Q 988 4650 1302 4700 
Q 1616 4750 1894 4750 
Q 2613 4750 3031 4423 
Q 3450 4097 3450 3541 
Q 3450 3153 3228 2886 
Q 3006 2619 2597 2516 
z
" transform="scale(0.015625)"/>
       </defs>
       <use xlink:href="#DejaVuSans-33"/>
       <use xlink:href="#DejaVuSans-30" x="63.623047"/>
       <use xlink:href="#DejaVuSans-30" x="127.246094"/>
      </g>
     </g>
    </g>
    <g id="text_15">
     <!-- time (days) -->
     <g transform="translate(306.416562 270.716562) scale(0.1 -0.1)">
      <defs>
       <path id="DejaVuSans-74" d="M 1172 4494 
L 1172 3500 
L 2356 3500 
L 2356 3053 
L 1172 3053 
L 1172 1153 
Q 1172 725 1289 603 
Q 1406 481 1766 481 
L 2356 481 
L 2356 0 
L 1766 0 
Q 1100 0 847 248 
Q 594 497 594 1153 
L 594 3053 
L 172 3053 
L 172 3500 
L 594 3500 
L 594 4494 
L 1172 4494 
z
" transform="scale(0.015625)"/>
       <path id="DejaVuSans-69" d="M 603 3500 
L 1178 3500 
L 1178 0 
L 603 0 
L 603 3500 
z
M 603 4863 
L 1178 4863 
L 1178 4134 
L 603 4134 
L 603 4863 
z
" transform="scale(0.015625)"/>
       <path id="DejaVuSans-6d" d="M 3328 2828 
Q 3544 3216 3844 3400 
Q 4144 3584 4550 3584 
Q 5097 3584 5394 3201 
Q 5691 2819 5691 2113 
L 5691 0 
L 5113 0 
L 5113 2094 
Q 5113 2597 4934 2840 
Q 4756 3084 4391 3084 
Q 3944 3084 3684 2787 
Q 3425 2491 3425 1978 
L 3425 0 
L 2847 0 
L 2847 2094 
Q 2847 2600 2669 2842 
Q 2491 3084 2119 3084 
Q 1678 3084 1418 2786 
Q 1159 2488 1159 1978 
L 1159 0 
L 581 0 
L 581 3500 
L 1159 3500 
L 1159 2956 
Q 1356 3278 1631 3431 
Q 1906 3584 2284 3584 
Q 2666 3584 2933 3390 
Q 3200 3197 3328 2828 
z
" transform="scale(0.015625)"/>
       <path id="DejaVuSans-65" d="M 3597 1894 
L 3597 1613 
L 953 1613 
Q 991 1019 1311 708 
Q 1631 397 2203 397 
Q 2534 397 2845 478 
Q 3156 559 3463 722 
L 3463 178 
Q 3153 47 2828 -22 
Q 2503 -91 2169 -91 
Q 1331 -91 842 396 
Q 353 884 353 1716 
Q 353 2575 817 3079 
Q 1281 3584 2069 3584 
Q 2775 3584 3186 3129 
Q 3597 2675 3597 1894 
z
M 3022 2063 
Q 3016 2534 2758 2815 
Q 2500 3097 2075 3097 
Q 1594 3097 1305 2825 
Q 1016 2553 972 2059 
L 3022 2063 
z
" transform="scale(0.015625)"/>
       <path id="DejaVuSans-20" transform="scale(0.015625)"/>
       <path id="DejaVuSans-28" d="M 1984 4856 
Q 1566 4138 1362 3434 
Q 1159 2731 1159 2009 
Q 1159 1288 1364 580 
Q 1569 -128 1984 -844 
L 1484 -844 
Q 1016 -109 783 600 
Q 550 1309 550 2009 
Q 550 2706 781 3412 
Q 1013 4119 1484 4856 
L 1984 4856 
z
" transform="scale(0.015625)"/>
       <path id="DejaVuSans-64" d="M 2906 2969 
L 2906 4863 
L 3481 4863 
L 3481 0 
L 2906 0 
L 2906 525 
Q 2725 213 2448 61 
Q 2172 -91 1784 -91 
Q 1150 -91 751 415 
Q 353 922 353 1747 
Q 353 2572 751 3078 
Q 1150 3584 1784 3584 
Q 2172 3584 2448 3432 
Q 2725 3281 2906 2969 
z
M 947 1747 
Q 947 1113 1208 752 
Q 1469 391 1925 391 
Q 2381 391 2643 752 
Q 2906 1113 2906 1747 
Q 2906 2381 2643 2742 
Q 2381 3103 1925 3103 
Q 1469 3103 1208 2742 
Q 947 2381 947 1747 
z
" transform="scale(0.015625)"/>
       <path id="DejaVuSans-61" d="M 2194 1759 
Q 1497 1759 1228 1600 
Q 959 1441 959 1056 
Q 959 750 1161 570 
Q 1363 391 1709 391 
Q 2188 391 2477 730 
Q 2766 1069 2766 1631 
L 2766 1759 
L 2194 1759 
z
M 3341 1997 
L 3341 0 
L 2766 0 
L 2766 531 
Q 2569 213 2275 61 
Q 1981 -91 1556 -91 
Q 1019 -91 701 211 
Q 384 513 384 1019 
Q 384 1609 779 1909 
Q 1175 2209 1959 2209 
L 2766 2209 
L 2766 2266 
Q 2766 2663 2505 2880 
Q 2244 3097 1772 3097 
Q 1472 3097 1187 3025 
Q 903 2953 641 2809 
L 641 3341 
Q 956 3463 1253 3523 
Q 1550 3584 1831 3584 
Q 2591 3584 2966 3190 
Q 3341 2797 3341 1997 
z
" transform="scale(0.015625)"/>
       <path id="DejaVuSans-79" d="M 2059 -325 
Q 1816 -950 1584 -1140 
Q 1353 -1331 966 -1331 
L 506 -1331 
L 506 -850 
L 844 -850 
Q 1081 -850 1212 -737 
Q 1344 -625 1503 -206 
L 1606 56 
L 191 3500 
L 800 3500 
L 1894 763 
L 2988 3500 
L 3597 3500 
L 2059 -325 
z
" transform="scale(0.015625)"/>
       <path id="DejaVuSans-73" d="M 2834 3397 
L 2834 2853 
Q 2591 2978 2328 3040 
Q 2066 3103 1784 3103 
Q 1356 3103 1142 2972 
Q 928 2841 928 2578 
Q 928 2378 1081 2264 
Q 1234 2150 1697 2047 
L 1894 2003 
Q 2506 1872 2764 1633 
Q 3022 1394 3022 966 
Q 3022 478 2636 193 
Q 2250 -91 1575 -91 
Q 1294 -91 989 -36 
Q 684 19 347 128 
L 347 722 
Q 666 556 975 473 
Q 1284 391 1588 391 
Q 1994 391 2212 530 
Q 2431 669 2431 922 
Q 2431 1156 2273 1281 
Q 2116 1406 1581 1522 
L 1381 1569 
Q 847 1681 609 1914 
Q 372 2147 372 2553 
Q 372 3047 722 3315 
Q 1072 3584 1716 3584 
Q 2034 3584 2315 3537 
Q 2597 3491 2834 3397 
z
" transform="scale(0.015625)"/>
       <path id="DejaVuSans-29" d="M 513 4856 
L 1013 4856 
Q 1481 4119 1714 3412 
Q 1947 2706 1947 2009 
Q 1947 1309 1714 600 
Q 1481 -109 1013 -844 
L 513 -844 
Q 928 -128 1133 580 
Q 1338 1288 1338 2009 
Q 1338 2731 1133 3434 
Q 928 4138 513 4856 
z
" transform="scale(0.015625)"/>
      </defs>
      <use xlink:href="#DejaVuSans-74"/>
      <use xlink:href="#DejaVuSans-69" x="39.208984"/>
      <use xlink:href="#DejaVuSans-6d" x="66.992188"/>
      <use xlink:href="#DejaVuSans-65" x="164.404297"/>
      <use xlink:href="#DejaVuSans-20" x="225.927734"/>
      <use xlink:href="#DejaVuSans-28" x="257.714844"/>
      <use xlink:href="#DejaVuSans-64" x="296.728516"/>
      <use xlink:href="#DejaVuSans-61" x="360.205078"/>
      <use xlink:href="#DejaVuSans-79" x="421.484375"/>
      <use xlink:href="#DejaVuSans-73" x="480.664062"/>
      <use xlink:href="#DejaVuSans-29" x="532.763672"/>
     </g>
    </g>
   </g>
   <g id="matplotlib.axis_4">
    <g id="ytick_6">
     <g id="line2d_24">
      <g>
       <use xlink:href="#m5e40cc22bf" x="36.465625" y="236.425421" style="stroke: #000000; stroke-width: 0.8"/>
      </g>
     </g>
     <g id="text_16">
      <!-- 0.0 -->
      <g transform="translate(13.5625 240.22464) scale(0.1 -0.1)">
       <use xlink:href="#DejaVuSans-30"/>
       <use xlink:href="#DejaVuSans-2e" x="63.623047"/>
       <use xlink:href="#DejaVuSans-30" x="95.410156"/>
      </g>
     </g>
    </g>
    <g id="ytick_7">
     <g id="line2d_25">
      <g>
       <use xlink:href="#m5e40cc22bf" x="36.465625" y="209.499699" style="stroke: #000000; stroke-width: 0.8"/>
      </g>
     </g>
     <g id="text_17">
      <!-- 0.2 -->
      <g transform="translate(13.5625 213.298918) scale(0.1 -0.1)">
       <use xlink:href="#DejaVuSans-30"/>
       <use xlink:href="#DejaVuSans-2e" x="63.623047"/>
       <use xlink:href="#DejaVuSans-32" x="95.410156"/>
      </g>
     </g>
    </g>
    <g id="ytick_8">
     <g id="line2d_26">
      <g>
       <use xlink:href="#m5e40cc22bf" x="36.465625" y="182.573977" style="stroke: #000000; stroke-width: 0.8"/>
      </g>
     </g>
     <g id="text_18">
      <!-- 0.4 -->
      <g transform="translate(13.5625 186.373196) scale(0.1 -0.1)">
       <defs>
        <path id="DejaVuSans-34" d="M 2419 4116 
L 825 1625 
L 2419 1625 
L 2419 4116 
z
M 2253 4666 
L 3047 4666 
L 3047 1625 
L 3713 1625 
L 3713 1100 
L 3047 1100 
L 3047 0 
L 2419 0 
L 2419 1100 
L 313 1100 
L 313 1709 
L 2253 4666 
z
" transform="scale(0.015625)"/>
       </defs>
       <use xlink:href="#DejaVuSans-30"/>
       <use xlink:href="#DejaVuSans-2e" x="63.623047"/>
       <use xlink:href="#DejaVuSans-34" x="95.410156"/>
      </g>
     </g>
    </g>
    <g id="ytick_9">
     <g id="line2d_27">
      <g>
       <use xlink:href="#m5e40cc22bf" x="36.465625" y="155.648255" style="stroke: #000000; stroke-width: 0.8"/>
      </g>
     </g>
     <g id="text_19">
      <!-- 0.6 -->
      <g transform="translate(13.5625 159.447474) scale(0.1 -0.1)">
       <defs>
        <path id="DejaVuSans-36" d="M 2113 2584 
Q 1688 2584 1439 2293 
Q 1191 2003 1191 1497 
Q 1191 994 1439 701 
Q 1688 409 2113 409 
Q 2538 409 2786 701 
Q 3034 994 3034 1497 
Q 3034 2003 2786 2293 
Q 2538 2584 2113 2584 
z
M 3366 4563 
L 3366 3988 
Q 3128 4100 2886 4159 
Q 2644 4219 2406 4219 
Q 1781 4219 1451 3797 
Q 1122 3375 1075 2522 
Q 1259 2794 1537 2939 
Q 1816 3084 2150 3084 
Q 2853 3084 3261 2657 
Q 3669 2231 3669 1497 
Q 3669 778 3244 343 
Q 2819 -91 2113 -91 
Q 1303 -91 875 529 
Q 447 1150 447 2328 
Q 447 3434 972 4092 
Q 1497 4750 2381 4750 
Q 2619 4750 2861 4703 
Q 3103 4656 3366 4563 
z
" transform="scale(0.015625)"/>
       </defs>
       <use xlink:href="#DejaVuSans-30"/>
       <use xlink:href="#DejaVuSans-2e" x="63.623047"/>
       <use xlink:href="#DejaVuSans-36" x="95.410156"/>
      </g>
     </g>
    </g>
   </g>
   <g id="line2d_28">
    <path d="M 63.605625 236.425421 
L 99.913317 236.316137 
L 105.359471 236.138552 
L 108.99024 235.881064 
L 112.62101 235.400802 
L 114.436394 235.024099 
L 116.251779 234.516452 
L 118.067163 233.837759 
L 119.882548 232.934888 
L 121.697933 231.746154 
L 123.513317 230.205873 
L 125.328702 228.256018 
L 127.144087 225.86161 
L 128.959471 223.008183 
L 130.774856 219.731896 
L 134.405625 212.246711 
L 143.482548 192.345265 
L 147.113317 185.163419 
L 150.744087 178.662775 
L 154.374856 172.845149 
L 158.005625 167.673299 
L 161.636394 163.097293 
L 165.267163 159.067297 
L 168.897933 155.53102 
L 172.528702 152.438195 
L 176.159471 149.742878 
L 179.79024 147.40418 
L 183.42101 145.388009 
L 187.051779 143.661927 
L 190.682548 142.195947 
L 194.313317 140.962221 
L 197.944087 139.937928 
L 201.574856 139.099105 
L 205.205625 138.425925 
L 210.651779 137.689924 
L 216.097933 137.237815 
L 221.544087 137.022934 
L 226.99024 137.005549 
L 234.251779 137.238692 
L 241.513317 137.707336 
L 250.59024 138.53872 
L 261.482548 139.765319 
L 306.867163 145.181802 
L 317.759471 146.125852 
L 326.836394 146.692961 
L 335.913317 147.05781 
L 344.99024 147.234932 
L 355.882548 147.223341 
L 368.59024 146.953909 
L 412.159471 145.743845 
L 424.867163 145.720281 
L 439.39024 145.917673 
L 466.62101 146.589524 
L 510.19024 147.579836 
L 553.759471 148.47753 
L 588.251779 148.975931 
L 606.405625 149.143703 
L 606.405625 149.143703 
" clip-path="url(#pa870343762)" style="fill: none; stroke: #1f77b4; stroke-width: 2; stroke-linecap: square"/>
   </g>
   <g id="line2d_29">
    <path d="M 63.605625 236.661686 
L 65.42101 236.956652 
L 67.236394 236.000976 
L 70.867163 237.418636 
L 72.682548 236.836967 
L 78.128702 236.036342 
L 79.944087 236.110861 
L 81.759471 236.319012 
L 83.574856 236.143559 
L 85.39024 236.475512 
L 87.205625 236.213727 
L 89.02101 236.227983 
L 90.836394 236.473255 
L 96.282548 236.37064 
L 98.097933 236.252602 
L 99.913317 236.293206 
L 103.544087 235.981091 
L 105.359471 236.290387 
L 107.174856 236.440979 
L 108.99024 236.477931 
L 114.436394 235.672503 
L 116.251779 234.91721 
L 125.328702 230.347012 
L 127.144087 228.984141 
L 128.959471 226.549716 
L 130.774856 222.409498 
L 132.59024 217.067369 
L 134.405625 212.60124 
L 136.22101 209.008008 
L 138.036394 205.911078 
L 139.851779 203.198381 
L 141.667163 200.144328 
L 145.297933 193.418782 
L 148.928702 185.853228 
L 150.744087 182.416636 
L 152.559471 179.309698 
L 154.374856 176.645069 
L 156.19024 173.730446 
L 158.005625 171.54098 
L 159.82101 169.013875 
L 161.636394 166.9892 
L 163.451779 165.282407 
L 165.267163 163.189925 
L 167.082548 162.023164 
L 168.897933 159.821548 
L 170.713317 158.707332 
L 172.528702 156.852358 
L 176.159471 154.129753 
L 177.974856 152.613116 
L 179.79024 151.937454 
L 185.236394 149.240022 
L 187.051779 148.636355 
L 192.497933 145.489969 
L 196.128702 145.095862 
L 197.944087 144.630586 
L 199.759471 143.699962 
L 201.574856 143.322024 
L 203.39024 142.759764 
L 208.836394 142.221979 
L 210.651779 142.405644 
L 214.282548 142.278873 
L 217.913317 142.515483 
L 225.174856 141.930305 
L 232.436394 141.766894 
L 236.067163 141.92151 
L 241.513317 141.500529 
L 261.482548 142.85662 
L 266.928702 143.702578 
L 270.559471 144.311155 
L 276.005625 145.546156 
L 279.636394 146.029343 
L 283.267163 146.446039 
L 285.082548 146.561832 
L 288.713317 146.63963 
L 294.159471 147.276148 
L 297.79024 147.567574 
L 301.42101 147.75196 
L 305.051779 148.054676 
L 308.682548 148.409792 
L 315.944087 148.701627 
L 319.574856 149.104015 
L 321.39024 149.11293 
L 325.02101 148.774152 
L 328.651779 148.83257 
L 334.097933 148.32913 
L 337.728702 148.447194 
L 341.359471 147.962001 
L 343.174856 147.984703 
L 355.882548 150.163705 
L 357.697933 150.226232 
L 361.328702 150.56196 
L 363.144087 150.722498 
L 364.959471 151.105973 
L 366.774856 151.286781 
L 375.851779 149.708692 
L 377.667163 149.574113 
L 379.482548 149.614156 
L 383.113317 149.053757 
L 384.928702 149.117247 
L 386.744087 149.044882 
L 390.374856 148.441136 
L 394.005625 148.574069 
L 397.636394 148.306533 
L 399.451779 148.367094 
L 403.082548 148.896148 
L 406.713317 148.832683 
L 408.528702 148.573283 
L 410.344087 148.48901 
L 413.974856 149.275586 
L 423.051779 149.727044 
L 424.867163 149.668867 
L 432.128702 148.201107 
L 433.944087 148.181977 
L 437.574856 148.332661 
L 441.205625 148.216915 
L 444.836394 148.08809 
L 446.651779 148.232844 
L 448.467163 148.511783 
L 450.282548 148.662315 
L 452.097933 148.677473 
L 459.359471 148.010076 
L 462.99024 148.111257 
L 466.62101 148.29383 
L 468.436394 148.158561 
L 470.251779 147.869639 
L 484.774856 148.053657 
L 486.59024 147.912964 
L 490.22101 148.00486 
L 492.036394 148.225502 
L 495.667163 148.351823 
L 499.297933 148.179754 
L 501.113317 148.149092 
L 504.744087 148.475577 
L 508.374856 148.892569 
L 512.005625 149.037757 
L 515.636394 149.349139 
L 519.267163 149.978837 
L 522.897933 149.761084 
L 526.528702 150.128445 
L 528.344087 150.189287 
L 530.159471 150.049629 
L 542.867163 148.039719 
L 544.682548 147.956424 
L 546.497933 148.235508 
L 550.128702 149.304491 
L 553.759471 150.48129 
L 555.574856 151.040493 
L 557.39024 151.449654 
L 559.205625 151.46799 
L 561.02101 150.975109 
L 564.651779 149.657664 
L 566.467163 149.391396 
L 568.282548 149.376462 
L 573.728702 148.877925 
L 579.174856 149.518953 
L 580.99024 149.429095 
L 582.805625 149.51994 
L 586.436394 150.001931 
L 588.251779 150.343301 
L 590.067163 150.385486 
L 591.882548 150.070637 
L 595.513317 149.735759 
L 600.959471 148.556464 
L 602.774856 148.388607 
L 606.405625 149.08945 
L 606.405625 149.08945 
" clip-path="url(#pa870343762)" style="fill: none; stroke-dasharray: 5.55,2.4; stroke-dashoffset: 0; stroke: #000000; stroke-width: 1.5"/>
   </g>
   <g id="patch_9">
    <path d="M 36.465625 242.44 
L 36.465625 131.97 
" style="fill: none; stroke: #000000; stroke-width: 0.8; stroke-linejoin: miter; stroke-linecap: square"/>
   </g>
   <g id="patch_10">
    <path d="M 633.545625 242.44 
L 633.545625 131.97 
" style="fill: none; stroke: #000000; stroke-width: 0.8; stroke-linejoin: miter; stroke-linecap: square"/>
   </g>
   <g id="patch_11">
    <path d="M 36.465625 242.44 
L 633.545625 242.44 
" style="fill: none; stroke: #000000; stroke-width: 0.8; stroke-linejoin: miter; stroke-linecap: square"/>
   </g>
   <g id="patch_12">
    <path d="M 36.465625 131.97 
L 633.545625 131.97 
" style="fill: none; stroke: #000000; stroke-width: 0.8; stroke-linejoin: miter; stroke-linecap: square"/>
   </g>
   <g id="legend_2">
    <g id="patch_13">
     <path d="M 43.465625 170.648125 
L 82.465625 170.648125 
Q 84.465625 170.648125 84.465625 168.648125 
L 84.465625 138.97 
Q 84.465625 136.97 82.465625 136.97 
L 43.465625 136.97 
Q 41.465625 136.97 41.465625 138.97 
L 41.465625 168.648125 
Q 41.465625 170.648125 43.465625 170.648125 
z
" style="fill: #ffffff; opacity: 0.8; stroke: #cccccc; stroke-linejoin: miter"/>
    </g>
    <g id="line2d_30">
     <path d="M 45.465625 145.068437 
L 55.465625 145.068437 
L 65.465625 145.068437 
" style="fill: none; stroke: #1f77b4; stroke-width: 2; stroke-linecap: square"/>
    </g>
    <g id="text_20">
     <!-- $R$ -->
     <g transform="translate(73.465625 148.568437) scale(0.1 -0.1)">
      <defs>
       <path id="DejaVuSans-Oblique-52" d="M 1613 4147 
L 1294 2491 
L 2106 2491 
Q 2584 2491 2879 2755 
Q 3175 3019 3175 3444 
Q 3175 3784 2976 3965 
Q 2778 4147 2406 4147 
L 1613 4147 
z
M 2772 2241 
Q 2972 2194 3105 2009 
Q 3238 1825 3413 1275 
L 3809 0 
L 3144 0 
L 2778 1197 
Q 2638 1659 2453 1815 
Q 2269 1972 1888 1972 
L 1191 1972 
L 806 0 
L 172 0 
L 1081 4666 
L 2503 4666 
Q 3150 4666 3495 4373 
Q 3841 4081 3841 3531 
Q 3841 3044 3547 2687 
Q 3253 2331 2772 2241 
z
" transform="scale(0.015625)"/>
      </defs>
      <use xlink:href="#DejaVuSans-Oblique-52" transform="translate(0 0.09375)"/>
     </g>
    </g>
    <g id="line2d_31">
     <path d="M 45.465625 161.068437 
L 55.465625 161.068437 
L 65.465625 161.068437 
" style="fill: none; stroke-dasharray: 5.55,2.4; stroke-dashoffset: 0; stroke: #000000; stroke-width: 1.5"/>
    </g>
    <g id="text_21">
     <!-- $\hat R$ -->
     <g transform="translate(73.465625 164.568437) scale(0.1 -0.1)">
      <use xlink:href="#DejaVuSans-302" transform="translate(60.90625 30.015625)"/>
      <use xlink:href="#DejaVuSans-Oblique-52" transform="translate(0 0.609375)"/>
     </g>
    </g>
   </g>
  </g>
 </g>
 <defs>
  <clipPath id="pf1dbc49b59">
   <rect x="36.465625" y="7.2" width="597.08" height="110.47"/>
  </clipPath>
  <clipPath id="pa870343762">
   <rect x="36.465625" y="131.97" width="597.08" height="110.47"/>
  </clipPath>
 </defs>
</svg>
