<?xml version="1.0" encoding="utf-8" standalone="no"?>
<!DOCTYPE svg PUBLIC "-//W3C//DTD SVG 1.1//EN"
  "http://www.w3.org/Graphics/SVG/1.1/DTD/svg11.dtd">
<svg xmlns:xlink="http://www.w3.org/1999/xlink" width="640.690625pt" height="351.99625pt" viewBox="0 0 640.690625 351.99625" xmlns="http://www.w3.org/2000/svg" version="1.1">
 <metadata>
  <rdf:RDF xmlns:dc="http://purl.org/dc/elements/1.1/" xmlns:cc="http://creativecommons.org/ns#" xmlns:rdf="http://www.w3.org/1999/02/22-rdf-syntax-ns#">
   <cc:Work>
    <dc:type rdf:resource="http://purl.org/dc/dcmitype/StillImage"/>
    <dc:date>2025-07-14T19:14:59.814280</dc:date>
    <dc:format>image/svg+xml</dc:format>
    <dc:creator>
     <cc:Agent>
      <dc:title>Matplotlib v3.6.3, https://matplotlib.org/</dc:title>
     </cc:Agent>
    </dc:creator>
   </cc:Work>
  </rdf:RDF>
 </metadata>
 <defs>
  <style type="text/css">*{stroke-linejoin: round; stroke-linecap: butt}</style>
 </defs>
 <g id="figure_1">
  <g id="patch_1">
   <path d="M 0 351.99625 
L 640.690625 351.99625 
L 640.690625 0 
L 0 0 
z
" style="fill: #ffffff"/>
  </g>
  <g id="axes_1">
   <g id="patch_2">
    <path d="M 49.190625 45.965057 
L 633.490625 45.965057 
L 633.490625 7.2 
L 49.190625 7.2 
z
" style="fill: #ffffff"/>
   </g>
   <g id="matplotlib.axis_1">
    <g id="xtick_1">
     <g id="line2d_1">
      <defs>
       <path id="m10d95835e7" d="M 0 0 
L 0 3.5 
" style="stroke: #000000; stroke-width: 0.8"/>
      </defs>
      <g>
       <use xlink:href="#m10d95835e7" x="134.835569" y="45.965057" style="stroke: #000000; stroke-width: 0.8"/>
      </g>
     </g>
    </g>
    <g id="xtick_2">
     <g id="line2d_2">
      <g>
       <use xlink:href="#m10d95835e7" x="253.007275" y="45.965057" style="stroke: #000000; stroke-width: 0.8"/>
      </g>
     </g>
    </g>
    <g id="xtick_3">
     <g id="line2d_3">
      <g>
       <use xlink:href="#m10d95835e7" x="371.178981" y="45.965057" style="stroke: #000000; stroke-width: 0.8"/>
      </g>
     </g>
    </g>
    <g id="xtick_4">
     <g id="line2d_4">
      <g>
       <use xlink:href="#m10d95835e7" x="489.350687" y="45.965057" style="stroke: #000000; stroke-width: 0.8"/>
      </g>
     </g>
    </g>
    <g id="xtick_5">
     <g id="line2d_5">
      <g>
       <use xlink:href="#m10d95835e7" x="607.522393" y="45.965057" style="stroke: #000000; stroke-width: 0.8"/>
      </g>
     </g>
    </g>
   </g>
   <g id="matplotlib.axis_2">
    <g id="ytick_1">
     <g id="line2d_6">
      <defs>
       <path id="m1550c484ce" d="M 0 0 
L -3.5 0 
" style="stroke: #000000; stroke-width: 0.8"/>
      </defs>
      <g>
       <use xlink:href="#m1550c484ce" x="49.190625" y="32.393008" style="stroke: #000000; stroke-width: 0.8"/>
      </g>
     </g>
     <g id="text_1">
      <!-- 0.0400 -->
      <g transform="translate(7.2 36.192226) scale(0.1 -0.1)">
       <defs>
        <path id="DejaVuSans-30" d="M 2034 4250 
Q 1547 4250 1301 3770 
Q 1056 3291 1056 2328 
Q 1056 1369 1301 889 
Q 1547 409 2034 409 
Q 2525 409 2770 889 
Q 3016 1369 3016 2328 
Q 3016 3291 2770 3770 
Q 2525 4250 2034 4250 
z
M 2034 4750 
Q 2819 4750 3233 4129 
Q 3647 3509 3647 2328 
Q 3647 1150 3233 529 
Q 2819 -91 2034 -91 
Q 1250 -91 836 529 
Q 422 1150 422 2328 
Q 422 3509 836 4129 
Q 1250 4750 2034 4750 
z
" transform="scale(0.015625)"/>
        <path id="DejaVuSans-2e" d="M 684 794 
L 1344 794 
L 1344 0 
L 684 0 
L 684 794 
z
" transform="scale(0.015625)"/>
        <path id="DejaVuSans-34" d="M 2419 4116 
L 825 1625 
L 2419 1625 
L 2419 4116 
z
M 2253 4666 
L 3047 4666 
L 3047 1625 
L 3713 1625 
L 3713 1100 
L 3047 1100 
L 3047 0 
L 2419 0 
L 2419 1100 
L 313 1100 
L 313 1709 
L 2253 4666 
z
" transform="scale(0.015625)"/>
       </defs>
       <use xlink:href="#DejaVuSans-30"/>
       <use xlink:href="#DejaVuSans-2e" x="63.623047"/>
       <use xlink:href="#DejaVuSans-30" x="95.410156"/>
       <use xlink:href="#DejaVuSans-34" x="159.033203"/>
       <use xlink:href="#DejaVuSans-30" x="222.65625"/>
       <use xlink:href="#DejaVuSans-30" x="286.279297"/>
      </g>
     </g>
    </g>
    <g id="ytick_2">
     <g id="line2d_7">
      <g>
       <use xlink:href="#m1550c484ce" x="49.190625" y="11.203207" style="stroke: #000000; stroke-width: 0.8"/>
      </g>
     </g>
     <g id="text_2">
      <!-- 0.0425 -->
      <g transform="translate(7.2 15.002426) scale(0.1 -0.1)">
       <defs>
        <path id="DejaVuSans-32" d="M 1228 531 
L 3431 531 
L 3431 0 
L 469 0 
L 469 531 
Q 828 903 1448 1529 
Q 2069 2156 2228 2338 
Q 2531 2678 2651 2914 
Q 2772 3150 2772 3378 
Q 2772 3750 2511 3984 
Q 2250 4219 1831 4219 
Q 1534 4219 1204 4116 
Q 875 4013 500 3803 
L 500 4441 
Q 881 4594 1212 4672 
Q 1544 4750 1819 4750 
Q 2544 4750 2975 4387 
Q 3406 4025 3406 3419 
Q 3406 3131 3298 2873 
Q 3191 2616 2906 2266 
Q 2828 2175 2409 1742 
Q 1991 1309 1228 531 
z
" transform="scale(0.015625)"/>
        <path id="DejaVuSans-35" d="M 691 4666 
L 3169 4666 
L 3169 4134 
L 1269 4134 
L 1269 2991 
Q 1406 3038 1543 3061 
Q 1681 3084 1819 3084 
Q 2600 3084 3056 2656 
Q 3513 2228 3513 1497 
Q 3513 744 3044 326 
Q 2575 -91 1722 -91 
Q 1428 -91 1123 -41 
Q 819 9 494 109 
L 494 744 
Q 775 591 1075 516 
Q 1375 441 1709 441 
Q 2250 441 2565 725 
Q 2881 1009 2881 1497 
Q 2881 1984 2565 2268 
Q 2250 2553 1709 2553 
Q 1456 2553 1204 2497 
Q 953 2441 691 2322 
L 691 4666 
z
" transform="scale(0.015625)"/>
       </defs>
       <use xlink:href="#DejaVuSans-30"/>
       <use xlink:href="#DejaVuSans-2e" x="63.623047"/>
       <use xlink:href="#DejaVuSans-30" x="95.410156"/>
       <use xlink:href="#DejaVuSans-34" x="159.033203"/>
       <use xlink:href="#DejaVuSans-32" x="222.65625"/>
       <use xlink:href="#DejaVuSans-35" x="286.279297"/>
      </g>
     </g>
    </g>
   </g>
   <g id="line2d_8">
    <path d="M 75.749716 23.449787 
L 76.340574 32.714215 
L 76.931433 24.676558 
L 77.522291 25.736361 
L 78.11315 22.007896 
L 78.704009 27.154924 
L 79.294867 24.04424 
L 79.885726 32.581369 
L 80.476584 23.926695 
L 81.067443 10.298999 
L 81.658301 33.439374 
L 82.24916 28.973183 
L 82.840018 8.962048 
L 83.430877 32.971908 
L 84.021735 19.38962 
L 84.612594 32.013325 
L 85.203452 20.23631 
L 85.794311 24.464818 
L 86.385169 25.488044 
L 87.566887 37.562764 
L 88.157745 27.817676 
L 88.748604 33.585918 
L 89.339462 29.033781 
L 89.930321 29.164402 
L 90.521179 22.434704 
L 91.112038 33.851997 
L 91.702896 21.914824 
L 92.884613 36.752928 
L 93.475472 15.06156 
L 94.06633 26.187971 
L 94.657189 22.550792 
L 95.248047 25.538205 
L 95.838906 30.754745 
L 96.429764 28.907731 
L 97.020623 28.912068 
L 97.611482 36.97925 
L 98.20234 25.111132 
L 98.793199 27.108113 
L 99.384057 30.641612 
L 99.974916 18.213947 
L 100.565774 30.018518 
L 101.156633 31.014874 
L 101.747491 33.563736 
L 102.33835 32.736185 
L 102.929208 27.028273 
L 103.520067 38.097081 
L 104.110925 31.043822 
L 104.701784 27.733288 
L 105.292642 20.961471 
L 105.883501 34.267541 
L 106.474359 35.689117 
L 107.065218 30.043168 
L 107.656077 27.538587 
L 108.246935 20.323994 
L 108.837794 33.019737 
L 109.428652 32.035528 
L 110.019511 31.509728 
L 110.610369 30.199129 
L 111.201228 27.908906 
L 111.792086 32.379726 
L 112.382945 30.988533 
L 112.973803 22.274337 
L 113.564662 29.749375 
L 114.15552 28.198162 
L 114.746379 33.483395 
L 115.337237 27.103832 
L 115.928096 34.174998 
L 116.518954 27.308057 
L 117.109813 25.088722 
L 117.700672 33.959486 
L 118.29153 27.533102 
L 118.882389 28.795177 
L 119.473247 20.845242 
L 120.064106 29.99946 
L 120.654964 30.243629 
L 121.245823 26.319078 
L 121.836681 26.845068 
L 123.018398 38.819 
L 123.609257 28.918382 
L 124.790974 26.125593 
L 125.381832 21.839154 
L 125.972691 33.476046 
L 126.563549 32.83375 
L 127.154408 22.232961 
L 127.745267 30.830866 
L 128.336125 28.550519 
L 128.926984 30.283146 
L 129.517842 30.781088 
L 130.108701 33.892731 
L 130.699559 31.897463 
L 131.290418 30.744998 
L 131.881276 28.840409 
L 132.472135 29.297387 
L 133.062993 26.723146 
L 133.653852 26.689787 
L 134.24471 24.024321 
L 134.835569 28.370963 
L 135.426427 21.806127 
L 136.017286 25.562683 
L 136.608144 32.601745 
L 137.199003 28.577579 
L 137.789862 27.133808 
L 138.38072 29.390617 
L 138.971579 32.201223 
L 139.562437 30.489237 
L 140.153296 34.640235 
L 140.744154 27.725855 
L 141.335013 27.76004 
L 141.925871 32.523231 
L 142.51673 26.741731 
L 143.107588 31.005638 
L 143.698447 31.389193 
L 144.289305 21.146345 
L 145.471022 30.342404 
L 146.061881 39.782897 
L 146.652739 36.037939 
L 147.243598 27.847295 
L 147.834457 35.251228 
L 148.425315 34.431899 
L 149.016174 41.211638 
L 149.607032 31.76888 
L 150.197891 38.700336 
L 150.788749 25.922008 
L 151.379608 27.458343 
L 151.970466 28.474049 
L 152.561325 34.117311 
L 153.152183 23.608051 
L 153.743042 34.101466 
L 154.3339 27.626868 
L 154.924759 40.009253 
L 156.106476 33.218542 
L 156.697334 31.686219 
L 157.288193 31.102806 
L 157.879052 33.22827 
L 158.46991 21.122073 
L 159.060769 30.629174 
L 159.651627 20.071182 
L 160.242486 35.543879 
L 160.833344 44.203009 
L 161.424203 28.87274 
L 162.015061 30.647027 
L 162.60592 31.505723 
L 163.196778 28.069913 
L 163.787637 28.148216 
L 164.378495 22.704889 
L 164.969354 34.038672 
L 165.560212 30.396277 
L 166.151071 35.832328 
L 166.741929 35.911371 
L 167.332788 35.359157 
L 167.923647 29.931086 
L 168.514505 35.291499 
L 169.105364 27.987811 
L 169.696222 32.417066 
L 170.287081 33.036352 
L 171.468798 32.575773 
L 172.059656 34.240102 
L 172.650515 32.882891 
L 173.241373 32.282647 
L 173.832232 33.191947 
L 174.42309 30.225124 
L 175.013949 30.668171 
L 175.604807 33.450944 
L 176.195666 32.370671 
L 176.786524 32.034998 
L 177.377383 32.256251 
L 177.968242 32.21657 
L 178.5591 32.426846 
L 179.149959 33.419111 
L 179.740817 32.038453 
L 180.331676 32.780122 
L 180.922534 32.654402 
L 181.513393 32.752109 
L 182.104251 32.446029 
L 183.285968 32.535899 
L 183.876827 32.319188 
L 184.467685 32.389769 
L 185.058544 32.609246 
L 185.649402 32.259409 
L 186.240261 32.259245 
L 186.831119 32.534817 
L 188.012837 32.319737 
L 190.967129 32.35375 
L 191.557988 32.466861 
L 192.739705 32.387058 
L 195.693997 32.395714 
L 196.875714 32.316512 
L 197.466573 32.39174 
L 198.64829 32.387737 
L 201.011724 32.37982 
L 214.010612 32.396938 
L 216.964905 32.387982 
L 218.73748 32.378237 
L 222.87349 32.387038 
L 263.05187 32.394002 
L 275.459899 32.394801 
L 288.458787 32.39051 
L 302.639391 32.390455 
L 324.501157 32.39254 
L 405.448775 32.392362 
L 476.351799 32.39372 
L 606.931534 32.392898 
L 606.931534 32.392898 
" clip-path="url(#p31650d93d4)" style="fill: none; stroke: #1f77b4; stroke-width: 2; stroke-linecap: square"/>
   </g>
   <g id="line2d_9">
    <path d="M 75.749716 32.393008 
L 606.931534 32.393008 
L 606.931534 32.393008 
" clip-path="url(#p31650d93d4)" style="fill: none; stroke-dasharray: 5.55,2.4; stroke-dashoffset: 0; stroke: #000000; stroke-width: 1.5"/>
   </g>
   <g id="patch_3">
    <path d="M 49.190625 45.965057 
L 49.190625 7.2 
" style="fill: none; stroke: #000000; stroke-width: 0.8; stroke-linejoin: miter; stroke-linecap: square"/>
   </g>
   <g id="patch_4">
    <path d="M 633.490625 45.965057 
L 633.490625 7.2 
" style="fill: none; stroke: #000000; stroke-width: 0.8; stroke-linejoin: miter; stroke-linecap: square"/>
   </g>
   <g id="patch_5">
    <path d="M 49.190625 45.965057 
L 633.490625 45.965057 
" style="fill: none; stroke: #000000; stroke-width: 0.8; stroke-linejoin: miter; stroke-linecap: square"/>
   </g>
   <g id="patch_6">
    <path d="M 49.190625 7.2 
L 633.490625 7.2 
" style="fill: none; stroke: #000000; stroke-width: 0.8; stroke-linejoin: miter; stroke-linecap: square"/>
   </g>
   <g id="legend_1">
    <g id="patch_7">
     <path d="M 551.090625 48.5 
L 626.490625 48.5 
Q 628.490625 48.5 628.490625 46.5 
L 628.490625 14.2 
Q 628.490625 12.2 626.490625 12.2 
L 551.090625 12.2 
Q 549.090625 12.2 549.090625 14.2 
L 549.090625 46.5 
Q 549.090625 48.5 551.090625 48.5 
z
" style="fill: #ffffff; opacity: 0.8; stroke: #cccccc; stroke-linejoin: miter"/>
    </g>
    <g id="line2d_10">
     <path d="M 553.090625 24.1 
L 563.090625 24.1 
L 573.090625 24.1 
" style="fill: none; stroke: #1f77b4; stroke-width: 2; stroke-linecap: square"/>
    </g>
    <g id="text_3">
     <!-- $\hat\beta$ -->
     <g transform="translate(581.090625 27.6) scale(0.1 -0.1)">
      <defs>
       <path id="DejaVuSans-302" d="M -1831 5119 
L -1369 5119 
L -603 3944 
L -1038 3944 
L -1600 4709 
L -2163 3944 
L -2597 3944 
L -1831 5119 
z
M -1600 3584 
L -1600 3584 
z
" transform="scale(0.015625)"/>
       <path id="DejaVuSans-Oblique-3b2" d="M 872 216 
L 572 -1331 
L -6 -1331 
L 928 3478 
Q 1206 4903 2538 4903 
Q 3888 4903 3659 3700 
Q 3503 2844 2894 2531 
Q 3713 2250 3553 1416 
Q 3272 -69 1759 -66 
Q 1097 -63 872 216 
z
M 1019 966 
Q 1259 422 1875 425 
Q 2775 425 2966 1406 
Q 3138 2288 1675 2219 
L 1778 2750 
Q 2909 2731 3106 3750 
Q 3241 4438 2509 4434 
Q 1691 4434 1503 3459 
L 1019 966 
z
" transform="scale(0.015625)"/>
      </defs>
      <use xlink:href="#DejaVuSans-302" transform="translate(62.785156 34.015625)"/>
      <use xlink:href="#DejaVuSans-Oblique-3b2" transform="translate(0 0.90625)"/>
     </g>
    </g>
    <g id="line2d_11">
     <path d="M 553.090625 38.9 
L 563.090625 38.9 
L 573.090625 38.9 
" style="fill: none; stroke-dasharray: 5.55,2.4; stroke-dashoffset: 0; stroke: #000000; stroke-width: 1.5"/>
    </g>
    <g id="text_4">
     <!-- $\beta$ = 0.04 -->
     <g transform="translate(581.090625 42.4) scale(0.1 -0.1)">
      <defs>
       <path id="DejaVuSans-20" transform="scale(0.015625)"/>
       <path id="DejaVuSans-3d" d="M 678 2906 
L 4684 2906 
L 4684 2381 
L 678 2381 
L 678 2906 
z
M 678 1631 
L 4684 1631 
L 4684 1100 
L 678 1100 
L 678 1631 
z
" transform="scale(0.015625)"/>
      </defs>
      <use xlink:href="#DejaVuSans-Oblique-3b2" transform="translate(0 0.390625)"/>
      <use xlink:href="#DejaVuSans-20" transform="translate(63.818359 0.390625)"/>
      <use xlink:href="#DejaVuSans-3d" transform="translate(95.605469 0.390625)"/>
      <use xlink:href="#DejaVuSans-20" transform="translate(179.394531 0.390625)"/>
      <use xlink:href="#DejaVuSans-30" transform="translate(211.181641 0.390625)"/>
      <use xlink:href="#DejaVuSans-2e" transform="translate(274.804688 0.390625)"/>
      <use xlink:href="#DejaVuSans-30" transform="translate(306.591797 0.390625)"/>
      <use xlink:href="#DejaVuSans-34" transform="translate(370.214844 0.390625)"/>
     </g>
    </g>
   </g>
  </g>
  <g id="axes_2">
   <g id="patch_8">
    <path d="M 49.190625 103.392529 
L 633.490625 103.392529 
L 633.490625 64.627471 
L 49.190625 64.627471 
z
" style="fill: #ffffff"/>
   </g>
   <g id="matplotlib.axis_3">
    <g id="xtick_6">
     <g id="line2d_12">
      <g>
       <use xlink:href="#m10d95835e7" x="134.835569" y="103.392529" style="stroke: #000000; stroke-width: 0.8"/>
      </g>
     </g>
    </g>
    <g id="xtick_7">
     <g id="line2d_13">
      <g>
       <use xlink:href="#m10d95835e7" x="253.007275" y="103.392529" style="stroke: #000000; stroke-width: 0.8"/>
      </g>
     </g>
    </g>
    <g id="xtick_8">
     <g id="line2d_14">
      <g>
       <use xlink:href="#m10d95835e7" x="371.178981" y="103.392529" style="stroke: #000000; stroke-width: 0.8"/>
      </g>
     </g>
    </g>
    <g id="xtick_9">
     <g id="line2d_15">
      <g>
       <use xlink:href="#m10d95835e7" x="489.350687" y="103.392529" style="stroke: #000000; stroke-width: 0.8"/>
      </g>
     </g>
    </g>
    <g id="xtick_10">
     <g id="line2d_16">
      <g>
       <use xlink:href="#m10d95835e7" x="607.522393" y="103.392529" style="stroke: #000000; stroke-width: 0.8"/>
      </g>
     </g>
    </g>
   </g>
   <g id="matplotlib.axis_4">
    <g id="ytick_3">
     <g id="line2d_17">
      <g>
       <use xlink:href="#m1550c484ce" x="49.190625" y="90.862966" style="stroke: #000000; stroke-width: 0.8"/>
      </g>
     </g>
     <g id="text_5">
      <!-- 0.0100 -->
      <g transform="translate(7.2 94.662185) scale(0.1 -0.1)">
       <defs>
        <path id="DejaVuSans-31" d="M 794 531 
L 1825 531 
L 1825 4091 
L 703 3866 
L 703 4441 
L 1819 4666 
L 2450 4666 
L 2450 531 
L 3481 531 
L 3481 0 
L 794 0 
L 794 531 
z
" transform="scale(0.015625)"/>
       </defs>
       <use xlink:href="#DejaVuSans-30"/>
       <use xlink:href="#DejaVuSans-2e" x="63.623047"/>
       <use xlink:href="#DejaVuSans-30" x="95.410156"/>
       <use xlink:href="#DejaVuSans-31" x="159.033203"/>
       <use xlink:href="#DejaVuSans-30" x="222.65625"/>
       <use xlink:href="#DejaVuSans-30" x="286.279297"/>
      </g>
     </g>
    </g>
    <g id="ytick_4">
     <g id="line2d_18">
      <g>
       <use xlink:href="#m1550c484ce" x="49.190625" y="71.536265" style="stroke: #000000; stroke-width: 0.8"/>
      </g>
     </g>
     <g id="text_6">
      <!-- 0.0125 -->
      <g transform="translate(7.2 75.335484) scale(0.1 -0.1)">
       <use xlink:href="#DejaVuSans-30"/>
       <use xlink:href="#DejaVuSans-2e" x="63.623047"/>
       <use xlink:href="#DejaVuSans-30" x="95.410156"/>
       <use xlink:href="#DejaVuSans-31" x="159.033203"/>
       <use xlink:href="#DejaVuSans-32" x="222.65625"/>
       <use xlink:href="#DejaVuSans-35" x="286.279297"/>
      </g>
     </g>
    </g>
   </g>
   <g id="line2d_19">
    <path d="M 75.749716 82.357218 
L 76.340574 92.785819 
L 76.931433 83.747938 
L 77.522291 84.909182 
L 78.11315 80.716385 
L 78.704009 86.416368 
L 79.294867 82.9437 
L 79.885726 92.37442 
L 80.476584 82.82238 
L 81.067443 67.788915 
L 81.658301 93.115629 
L 82.24916 88.236042 
L 82.840018 66.389519 
L 83.430877 92.440888 
L 84.021735 77.709353 
L 84.612594 91.32989 
L 85.203452 78.625548 
L 85.794311 83.141856 
L 86.385169 84.219619 
L 87.566887 97.10709 
L 88.157745 86.750339 
L 88.748604 92.86515 
L 89.339462 88.050079 
L 89.930321 88.182332 
L 90.521179 81.086484 
L 91.112038 93.066037 
L 91.702896 80.555587 
L 92.884613 96.034166 
L 93.475472 73.463678 
L 94.06633 84.988091 
L 94.657189 81.208968 
L 95.248047 84.281252 
L 95.838906 89.65193 
L 96.429764 87.749052 
L 97.020623 87.748858 
L 97.611482 96.01271 
L 98.20234 83.882342 
L 98.793199 85.910685 
L 99.384057 89.503064 
L 99.974916 76.868533 
L 100.565774 88.825847 
L 101.156633 89.832224 
L 101.747491 92.406849 
L 102.33835 91.574271 
L 102.929208 85.829145 
L 103.520067 96.945869 
L 104.110925 89.878594 
L 104.701784 86.563281 
L 105.292642 79.791207 
L 105.883501 93.054667 
L 106.474359 94.472741 
L 107.065218 88.863281 
L 107.656077 86.375723 
L 108.246935 79.223117 
L 108.837794 91.772018 
L 109.428652 90.800903 
L 110.019511 90.282511 
L 110.610369 88.991897 
L 111.201228 86.739366 
L 111.792086 91.124126 
L 112.382945 89.761138 
L 112.973803 81.233839 
L 113.564662 88.530544 
L 114.15552 87.015672 
L 114.746379 92.162056 
L 115.337237 85.956914 
L 115.928096 92.823172 
L 116.518954 86.162896 
L 117.109813 84.010164 
L 117.700672 92.588439 
L 118.29153 86.380553 
L 118.882389 87.595957 
L 119.473247 79.933446 
L 120.064106 88.738017 
L 120.654964 88.971701 
L 121.245823 85.203397 
L 121.836681 85.705102 
L 123.018398 97.162841 
L 123.609257 87.707611 
L 124.790974 85.041482 
L 125.381832 80.95866 
L 125.972691 92.020362 
L 126.563549 91.410764 
L 127.154408 81.353429 
L 127.745267 89.49862 
L 128.336125 87.339396 
L 128.926984 88.976773 
L 129.517842 89.446589 
L 130.108701 92.382618 
L 130.699559 90.50212 
L 131.290418 89.416684 
L 131.881276 87.624407 
L 132.472135 88.053038 
L 133.062993 85.635159 
L 133.653852 85.60251 
L 134.24471 83.103171 
L 134.835569 87.171024 
L 135.426427 81.029186 
L 136.017286 84.537723 
L 136.608144 91.109009 
L 137.199003 87.354845 
L 137.789862 86.00833 
L 138.38072 88.109143 
L 138.971579 90.723987 
L 139.562437 89.132195 
L 140.153296 92.988282 
L 140.744154 86.570108 
L 141.335013 86.60103 
L 141.925871 91.015143 
L 142.51673 85.660478 
L 143.107588 89.605847 
L 143.698447 89.960366 
L 144.289305 80.493967 
L 145.471022 88.981645 
L 146.061881 97.688927 
L 146.652739 94.237901 
L 147.243598 86.692926 
L 147.834457 93.508996 
L 148.425315 92.75549 
L 149.016174 98.990231 
L 149.607032 90.313482 
L 150.197891 96.679329 
L 150.788749 84.952368 
L 151.379608 86.360536 
L 151.970466 87.290724 
L 152.561325 92.458525 
L 153.152183 82.840492 
L 153.743042 92.436483 
L 154.3339 86.518576 
L 154.924759 97.829668 
L 156.106476 91.633268 
L 156.697334 90.235479 
L 157.288193 89.703138 
L 157.879052 91.640777 
L 158.46991 80.604345 
L 159.060769 89.265322 
L 159.651627 79.641444 
L 160.242486 93.73663 
L 160.833344 101.630481 
L 161.424203 87.66541 
L 162.015061 89.280251 
L 162.60592 90.061755 
L 163.196778 86.928168 
L 163.787637 86.995671 
L 164.378495 82.025744 
L 164.969354 92.358098 
L 165.560212 89.034956 
L 166.151071 93.996776 
L 166.741929 94.073473 
L 167.332788 93.573649 
L 167.923647 88.614155 
L 168.514505 93.514985 
L 169.105364 86.833133 
L 169.696222 90.882903 
L 170.287081 91.450657 
L 171.468798 91.030178 
L 172.059656 92.559785 
L 172.650515 91.316117 
L 173.241373 90.764895 
L 173.832232 91.602287 
L 174.42309 88.869178 
L 175.013949 89.271554 
L 175.604807 91.835977 
L 176.195666 90.841014 
L 176.786524 90.530339 
L 177.377383 90.733879 
L 177.968242 90.696492 
L 178.5591 90.890971 
L 179.149959 91.814014 
L 179.740817 90.53284 
L 180.331676 91.22319 
L 180.922534 91.10779 
L 181.513393 91.200914 
L 182.104251 90.915693 
L 183.285968 91.001392 
L 183.876827 90.797383 
L 184.467685 90.863855 
L 185.058544 91.072759 
L 185.649402 90.74065 
L 186.240261 90.739424 
L 186.831119 91.002998 
L 188.012837 90.796909 
L 190.967129 90.826577 
L 191.557988 90.937902 
L 192.739705 90.859734 
L 195.693997 90.868634 
L 196.875714 90.787007 
L 197.466573 90.863203 
L 198.64829 90.858525 
L 201.011724 90.849183 
L 211.056319 90.867811 
L 212.828895 90.86814 
L 214.010612 90.867908 
L 216.374046 90.879431 
L 219.328339 90.865192 
L 297.321665 90.862965 
L 367.042971 90.864601 
L 403.6762 90.861739 
L 433.809985 90.864475 
L 472.806648 90.862728 
L 543.709671 90.863605 
L 590.387495 90.862528 
L 606.931534 90.862851 
L 606.931534 90.862851 
" clip-path="url(#p0f4f0d6d7d)" style="fill: none; stroke: #1f77b4; stroke-width: 2; stroke-linecap: square"/>
   </g>
   <g id="line2d_20">
    <path d="M 75.749716 90.862966 
L 606.931534 90.862966 
L 606.931534 90.862966 
" clip-path="url(#p0f4f0d6d7d)" style="fill: none; stroke-dasharray: 5.55,2.4; stroke-dashoffset: 0; stroke: #000000; stroke-width: 1.5"/>
   </g>
   <g id="patch_9">
    <path d="M 49.190625 103.392529 
L 49.190625 64.627471 
" style="fill: none; stroke: #000000; stroke-width: 0.8; stroke-linejoin: miter; stroke-linecap: square"/>
   </g>
   <g id="patch_10">
    <path d="M 633.490625 103.392529 
L 633.490625 64.627471 
" style="fill: none; stroke: #000000; stroke-width: 0.8; stroke-linejoin: miter; stroke-linecap: square"/>
   </g>
   <g id="patch_11">
    <path d="M 49.190625 103.392529 
L 633.490625 103.392529 
" style="fill: none; stroke: #000000; stroke-width: 0.8; stroke-linejoin: miter; stroke-linecap: square"/>
   </g>
   <g id="patch_12">
    <path d="M 49.190625 64.627471 
L 633.490625 64.627471 
" style="fill: none; stroke: #000000; stroke-width: 0.8; stroke-linejoin: miter; stroke-linecap: square"/>
   </g>
   <g id="legend_2">
    <g id="patch_13">
     <path d="M 549.190625 103.625909 
L 626.490625 103.625909 
Q 628.490625 103.625909 628.490625 101.625909 
L 628.490625 71.627471 
Q 628.490625 69.627471 626.490625 69.627471 
L 549.190625 69.627471 
Q 547.190625 69.627471 547.190625 71.627471 
L 547.190625 101.625909 
Q 547.190625 103.625909 549.190625 103.625909 
z
" style="fill: #ffffff; opacity: 0.8; stroke: #cccccc; stroke-linejoin: miter"/>
    </g>
    <g id="line2d_21">
     <path d="M 551.190625 79.327471 
L 561.190625 79.327471 
L 571.190625 79.327471 
" style="fill: none; stroke: #1f77b4; stroke-width: 2; stroke-linecap: square"/>
    </g>
    <g id="text_7">
     <!-- $\hat\gamma_I$ -->
     <g transform="translate(579.190625 82.827471) scale(0.1 -0.1)">
      <defs>
       <path id="DejaVuSans-Oblique-3b3" d="M 1491 2950 
L 1838 788 
L 3456 3500 
L 4066 3500 
L 1972 0 
L 1713 -1331 
L 1138 -1331 
L 1397 0 
L 988 2613 
Q 925 3006 628 3006 
L 475 3006 
L 569 3500 
L 788 3500 
Q 1403 3500 1491 2950 
z
" transform="scale(0.015625)"/>
       <path id="DejaVuSans-Oblique-49" d="M 1081 4666 
L 1716 4666 
L 806 0 
L 172 0 
L 1081 4666 
z
" transform="scale(0.015625)"/>
      </defs>
      <use xlink:href="#DejaVuSans-302" transform="translate(59.601562 12.015625)"/>
      <use xlink:href="#DejaVuSans-Oblique-3b3" transform="translate(0 0.828125)"/>
      <use xlink:href="#DejaVuSans-Oblique-49" transform="translate(60.136719 -15.578125) scale(0.7)"/>
     </g>
    </g>
    <g id="line2d_22">
     <path d="M 551.190625 94.025909 
L 561.190625 94.025909 
L 571.190625 94.025909 
" style="fill: none; stroke-dasharray: 5.55,2.4; stroke-dashoffset: 0; stroke: #000000; stroke-width: 1.5"/>
    </g>
    <g id="text_8">
     <!-- $\gamma_I$ = 0.01 -->
     <g transform="translate(579.190625 97.525909) scale(0.1 -0.1)">
      <use xlink:href="#DejaVuSans-Oblique-3b3" transform="translate(0 0.78125)"/>
      <use xlink:href="#DejaVuSans-Oblique-49" transform="translate(59.179688 -15.625) scale(0.7)"/>
      <use xlink:href="#DejaVuSans-20" transform="translate(82.558594 0.78125)"/>
      <use xlink:href="#DejaVuSans-3d" transform="translate(114.345703 0.78125)"/>
      <use xlink:href="#DejaVuSans-20" transform="translate(198.134766 0.78125)"/>
      <use xlink:href="#DejaVuSans-30" transform="translate(229.921875 0.78125)"/>
      <use xlink:href="#DejaVuSans-2e" transform="translate(293.544922 0.78125)"/>
      <use xlink:href="#DejaVuSans-30" transform="translate(325.332031 0.78125)"/>
      <use xlink:href="#DejaVuSans-31" transform="translate(388.955078 0.78125)"/>
     </g>
    </g>
   </g>
  </g>
  <g id="axes_3">
   <g id="patch_14">
    <path d="M 49.190625 160.82 
L 633.490625 160.82 
L 633.490625 122.054943 
L 49.190625 122.054943 
z
" style="fill: #ffffff"/>
   </g>
   <g id="matplotlib.axis_5">
    <g id="xtick_11">
     <g id="line2d_23">
      <g>
       <use xlink:href="#m10d95835e7" x="134.835569" y="160.82" style="stroke: #000000; stroke-width: 0.8"/>
      </g>
     </g>
    </g>
    <g id="xtick_12">
     <g id="line2d_24">
      <g>
       <use xlink:href="#m10d95835e7" x="253.007275" y="160.82" style="stroke: #000000; stroke-width: 0.8"/>
      </g>
     </g>
    </g>
    <g id="xtick_13">
     <g id="line2d_25">
      <g>
       <use xlink:href="#m10d95835e7" x="371.178981" y="160.82" style="stroke: #000000; stroke-width: 0.8"/>
      </g>
     </g>
    </g>
    <g id="xtick_14">
     <g id="line2d_26">
      <g>
       <use xlink:href="#m10d95835e7" x="489.350687" y="160.82" style="stroke: #000000; stroke-width: 0.8"/>
      </g>
     </g>
    </g>
    <g id="xtick_15">
     <g id="line2d_27">
      <g>
       <use xlink:href="#m10d95835e7" x="607.522393" y="160.82" style="stroke: #000000; stroke-width: 0.8"/>
      </g>
     </g>
    </g>
   </g>
   <g id="matplotlib.axis_6">
    <g id="ytick_5">
     <g id="line2d_28">
      <g>
       <use xlink:href="#m1550c484ce" x="49.190625" y="158.95156" style="stroke: #000000; stroke-width: 0.8"/>
      </g>
     </g>
     <g id="text_9">
      <!-- 0.0018 -->
      <g transform="translate(7.2 162.750779) scale(0.1 -0.1)">
       <defs>
        <path id="DejaVuSans-38" d="M 2034 2216 
Q 1584 2216 1326 1975 
Q 1069 1734 1069 1313 
Q 1069 891 1326 650 
Q 1584 409 2034 409 
Q 2484 409 2743 651 
Q 3003 894 3003 1313 
Q 3003 1734 2745 1975 
Q 2488 2216 2034 2216 
z
M 1403 2484 
Q 997 2584 770 2862 
Q 544 3141 544 3541 
Q 544 4100 942 4425 
Q 1341 4750 2034 4750 
Q 2731 4750 3128 4425 
Q 3525 4100 3525 3541 
Q 3525 3141 3298 2862 
Q 3072 2584 2669 2484 
Q 3125 2378 3379 2068 
Q 3634 1759 3634 1313 
Q 3634 634 3220 271 
Q 2806 -91 2034 -91 
Q 1263 -91 848 271 
Q 434 634 434 1313 
Q 434 1759 690 2068 
Q 947 2378 1403 2484 
z
M 1172 3481 
Q 1172 3119 1398 2916 
Q 1625 2713 2034 2713 
Q 2441 2713 2670 2916 
Q 2900 3119 2900 3481 
Q 2900 3844 2670 4047 
Q 2441 4250 2034 4250 
Q 1625 4250 1398 4047 
Q 1172 3844 1172 3481 
z
" transform="scale(0.015625)"/>
       </defs>
       <use xlink:href="#DejaVuSans-30"/>
       <use xlink:href="#DejaVuSans-2e" x="63.623047"/>
       <use xlink:href="#DejaVuSans-30" x="95.410156"/>
       <use xlink:href="#DejaVuSans-30" x="159.033203"/>
       <use xlink:href="#DejaVuSans-31" x="222.65625"/>
       <use xlink:href="#DejaVuSans-38" x="286.279297"/>
      </g>
     </g>
    </g>
    <g id="ytick_6">
     <g id="line2d_29">
      <g>
       <use xlink:href="#m1550c484ce" x="49.190625" y="135.944423" style="stroke: #000000; stroke-width: 0.8"/>
      </g>
     </g>
     <g id="text_10">
      <!-- 0.0020 -->
      <g transform="translate(7.2 139.743641) scale(0.1 -0.1)">
       <use xlink:href="#DejaVuSans-30"/>
       <use xlink:href="#DejaVuSans-2e" x="63.623047"/>
       <use xlink:href="#DejaVuSans-30" x="95.410156"/>
       <use xlink:href="#DejaVuSans-30" x="159.033203"/>
       <use xlink:href="#DejaVuSans-32" x="222.65625"/>
       <use xlink:href="#DejaVuSans-30" x="286.279297"/>
      </g>
     </g>
    </g>
   </g>
   <g id="line2d_30">
    <path d="M 75.749716 138.547749 
L 76.340574 123.816991 
L 76.931433 136.524783 
L 77.522291 135.075889 
L 78.11315 140.973663 
L 78.704009 133.487341 
L 79.294867 138.219032 
L 79.885726 125.976527 
L 80.476584 138.324746 
L 81.067443 157.714996 
L 81.658301 126.282949 
L 82.24916 132.285988 
L 82.840018 159.057952 
L 83.430877 128.131256 
L 84.021735 145.585355 
L 84.612594 129.893587 
L 85.203452 144.514064 
L 85.794311 139.600779 
L 86.385169 138.524379 
L 87.566887 124.560006 
L 88.157745 135.501644 
L 88.748604 129.140286 
L 89.339462 134.082313 
L 89.930321 133.984689 
L 90.521179 141.123638 
L 91.112038 129.450642 
L 91.702896 141.547713 
L 92.884613 127.046961 
L 93.475472 147.822459 
L 94.06633 137.559708 
L 94.657189 141.003394 
L 95.248047 138.411416 
L 95.838906 133.840435 
L 96.429764 135.46888 
L 97.020623 135.499977 
L 97.611482 128.739529 
L 98.20234 138.484813 
L 98.793199 136.94028 
L 99.384057 134.181477 
L 99.974916 143.885124 
L 100.565774 134.993604 
L 101.156633 134.264558 
L 101.747491 132.397991 
L 102.33835 132.979349 
L 102.929208 137.008383 
L 103.520067 129.375299 
L 104.110925 134.117005 
L 104.701784 136.329796 
L 105.292642 140.785998 
L 105.883501 132.35113 
L 106.474359 131.441887 
L 107.065218 134.885319 
L 107.656077 136.407229 
L 108.246935 140.695268 
L 108.837794 133.430966 
L 109.428652 133.981638 
L 110.019511 134.272919 
L 110.610369 134.987663 
L 111.201228 136.21632 
L 111.792086 133.911245 
L 112.382945 134.618362 
L 112.973803 138.972287 
L 113.564662 135.371883 
L 114.15552 136.124846 
L 114.746379 133.672365 
L 115.337237 136.5835 
L 115.928096 133.442568 
L 116.518954 136.437354 
L 117.109813 137.407797 
L 117.700672 133.727033 
L 118.29153 136.346152 
L 118.882389 135.860316 
L 119.473247 138.976483 
L 120.064106 135.528176 
L 120.654964 135.445204 
L 121.245823 136.879042 
L 121.836681 136.712812 
L 123.018398 132.628303 
L 123.609257 135.870339 
L 124.790974 136.780272 
L 125.381832 138.108333 
L 125.972691 134.672768 
L 126.563549 134.855475 
L 127.154408 137.847535 
L 127.745267 135.509793 
L 128.336125 136.123666 
L 128.926984 135.682094 
L 129.517842 135.560972 
L 130.108701 134.798748 
L 130.699559 135.272038 
L 131.290418 135.540666 
L 131.881276 135.973916 
L 132.472135 135.881477 
L 133.062993 136.435043 
L 133.653852 136.453816 
L 134.24471 136.998205 
L 134.835569 136.173401 
L 135.426427 137.412701 
L 136.017286 136.751063 
L 136.608144 135.526746 
L 137.199003 136.210485 
L 137.789862 136.454996 
L 138.971579 135.679514 
L 139.562437 135.933754 
L 140.153296 135.342542 
L 140.744154 136.294086 
L 141.335013 136.297521 
L 141.925871 135.692963 
L 142.51673 136.409 
L 143.107588 135.909375 
L 143.698447 135.86757 
L 144.289305 137.002206 
L 145.471022 136.069893 
L 146.061881 135.140604 
L 146.652739 135.484893 
L 147.243598 136.229092 
L 147.834457 135.583924 
L 148.425315 135.648698 
L 149.016174 135.095021 
L 149.607032 135.813459 
L 150.197891 135.302181 
L 150.788749 136.186084 
L 151.970466 136.041998 
L 152.561325 135.72287 
L 153.152183 136.286732 
L 153.743042 135.777004 
L 154.3339 136.077843 
L 154.924759 135.542717 
L 156.697334 135.8422 
L 157.879052 135.794166 
L 158.46991 136.222328 
L 159.060769 135.931998 
L 159.651627 136.321186 
L 160.242486 135.813726 
L 160.833344 135.467617 
L 161.424203 136.00166 
L 162.60592 135.925812 
L 163.196778 136.089532 
L 163.787637 136.120103 
L 164.378495 136.436937 
L 164.969354 135.902916 
L 165.560212 136.10036 
L 166.151071 135.781101 
L 167.332788 135.73582 
L 167.923647 136.113043 
L 168.514505 135.70854 
L 169.105364 136.30374 
L 169.696222 135.957623 
L 170.877939 135.907005 
L 171.468798 135.928051 
L 172.059656 135.725818 
L 173.241373 135.933313 
L 173.832232 135.805788 
L 174.42309 136.233291 
L 175.013949 136.215106 
L 175.604807 135.799081 
L 176.786524 136.019689 
L 178.5591 135.962324 
L 179.149959 135.736852 
L 179.740817 136.027832 
L 180.331676 135.853834 
L 184.467685 135.916408 
L 185.058544 135.826652 
L 185.649402 135.963664 
L 186.240261 135.971959 
L 186.831119 135.848138 
L 188.603695 135.954343 
L 189.194554 135.937352 
L 189.785412 136.034004 
L 191.557988 135.878056 
L 193.921422 135.979887 
L 195.693997 135.920587 
L 196.875714 136.003009 
L 197.466573 135.934514 
L 198.64829 135.942767 
L 200.420866 135.976998 
L 204.556875 135.957478 
L 212.828895 135.931198 
L 213.419753 136.001517 
L 214.60147 135.898391 
L 218.73748 135.97221 
L 220.510056 135.887865 
L 221.691773 135.9268 
L 224.646065 135.963325 
L 225.827782 135.938617 
L 227.600358 135.938357 
L 235.281519 135.927165 
L 237.054095 135.9485 
L 240.599246 135.937902 
L 249.462124 135.954564 
L 250.643841 135.953089 
L 255.370709 135.944367 
L 258.325002 135.918364 
L 261.870153 135.950513 
L 265.415304 135.939112 
L 297.321665 135.94273 
L 324.501157 135.943804 
L 344.590347 135.94367 
L 374.724132 135.93809 
L 389.495595 135.947205 
L 409.584785 135.943083 
L 422.583673 135.94755 
L 474.579223 135.942456 
L 485.805536 135.944578 
L 574.434315 135.943012 
L 606.931534 135.944761 
L 606.931534 135.944761 
" clip-path="url(#p2df92000c5)" style="fill: none; stroke: #1f77b4; stroke-width: 2; stroke-linecap: square"/>
   </g>
   <g id="line2d_31">
    <path d="M 75.749716 135.944423 
L 606.931534 135.944423 
L 606.931534 135.944423 
" clip-path="url(#p2df92000c5)" style="fill: none; stroke-dasharray: 5.55,2.4; stroke-dashoffset: 0; stroke: #000000; stroke-width: 1.5"/>
   </g>
   <g id="patch_15">
    <path d="M 49.190625 160.82 
L 49.190625 122.054943 
" style="fill: none; stroke: #000000; stroke-width: 0.8; stroke-linejoin: miter; stroke-linecap: square"/>
   </g>
   <g id="patch_16">
    <path d="M 633.490625 160.82 
L 633.490625 122.054943 
" style="fill: none; stroke: #000000; stroke-width: 0.8; stroke-linejoin: miter; stroke-linecap: square"/>
   </g>
   <g id="patch_17">
    <path d="M 49.190625 160.82 
L 633.490625 160.82 
" style="fill: none; stroke: #000000; stroke-width: 0.8; stroke-linejoin: miter; stroke-linecap: square"/>
   </g>
   <g id="patch_18">
    <path d="M 49.190625 122.054943 
L 633.490625 122.054943 
" style="fill: none; stroke: #000000; stroke-width: 0.8; stroke-linejoin: miter; stroke-linecap: square"/>
   </g>
   <g id="legend_3">
    <g id="patch_19">
     <path d="M 542.390625 161.05338 
L 626.490625 161.05338 
Q 628.490625 161.05338 628.490625 159.05338 
L 628.490625 129.054943 
Q 628.490625 127.054943 626.490625 127.054943 
L 542.390625 127.054943 
Q 540.390625 127.054943 540.390625 129.054943 
L 540.390625 159.05338 
Q 540.390625 161.05338 542.390625 161.05338 
z
" style="fill: #ffffff; opacity: 0.8; stroke: #cccccc; stroke-linejoin: miter"/>
    </g>
    <g id="line2d_32">
     <path d="M 544.390625 136.754943 
L 554.390625 136.754943 
L 564.390625 136.754943 
" style="fill: none; stroke: #1f77b4; stroke-width: 2; stroke-linecap: square"/>
    </g>
    <g id="text_11">
     <!-- $\hat\mu_I$ -->
     <g transform="translate(572.390625 140.254943) scale(0.1 -0.1)">
      <defs>
       <path id="DejaVuSans-Oblique-3bc" d="M -84 -1331 
L 856 3500 
L 1434 3500 
L 1009 1322 
Q 997 1256 987 1175 
Q 978 1094 978 1013 
Q 978 722 1161 565 
Q 1344 409 1684 409 
Q 2147 409 2431 671 
Q 2716 934 2816 1459 
L 3213 3500 
L 3788 3500 
L 3266 809 
Q 3253 750 3248 706 
Q 3244 663 3244 628 
Q 3244 531 3283 486 
Q 3322 441 3406 441 
Q 3438 441 3492 456 
Q 3547 472 3647 513 
L 3559 50 
Q 3422 -19 3297 -55 
Q 3172 -91 3053 -91 
Q 2847 -91 2730 40 
Q 2613 172 2613 403 
Q 2438 153 2195 31 
Q 1953 -91 1625 -91 
Q 1334 -91 1117 43 
Q 900 178 831 397 
L 494 -1331 
L -84 -1331 
z
" transform="scale(0.015625)"/>
      </defs>
      <use xlink:href="#DejaVuSans-302" transform="translate(62.699219 12.015625)"/>
      <use xlink:href="#DejaVuSans-Oblique-3bc" transform="translate(0 0.828125)"/>
      <use xlink:href="#DejaVuSans-Oblique-49" transform="translate(64.580078 -15.578125) scale(0.7)"/>
     </g>
    </g>
    <g id="line2d_33">
     <path d="M 544.390625 151.45338 
L 554.390625 151.45338 
L 564.390625 151.45338 
" style="fill: none; stroke-dasharray: 5.55,2.4; stroke-dashoffset: 0; stroke: #000000; stroke-width: 1.5"/>
    </g>
    <g id="text_12">
     <!-- $\mu_I$ = 0.002 -->
     <g transform="translate(572.390625 154.95338) scale(0.1 -0.1)">
      <use xlink:href="#DejaVuSans-Oblique-3bc" transform="translate(0 0.78125)"/>
      <use xlink:href="#DejaVuSans-Oblique-49" transform="translate(63.623047 -15.625) scale(0.7)"/>
      <use xlink:href="#DejaVuSans-20" transform="translate(87.001953 0.78125)"/>
      <use xlink:href="#DejaVuSans-3d" transform="translate(118.789062 0.78125)"/>
      <use xlink:href="#DejaVuSans-20" transform="translate(202.578125 0.78125)"/>
      <use xlink:href="#DejaVuSans-30" transform="translate(234.365234 0.78125)"/>
      <use xlink:href="#DejaVuSans-2e" transform="translate(297.988281 0.78125)"/>
      <use xlink:href="#DejaVuSans-30" transform="translate(329.775391 0.78125)"/>
      <use xlink:href="#DejaVuSans-30" transform="translate(393.398438 0.78125)"/>
      <use xlink:href="#DejaVuSans-32" transform="translate(457.021484 0.78125)"/>
     </g>
    </g>
   </g>
  </g>
  <g id="axes_4">
   <g id="patch_20">
    <path d="M 49.190625 218.247471 
L 633.490625 218.247471 
L 633.490625 179.482414 
L 49.190625 179.482414 
z
" style="fill: #ffffff"/>
   </g>
   <g id="matplotlib.axis_7">
    <g id="xtick_16">
     <g id="line2d_34">
      <g>
       <use xlink:href="#m10d95835e7" x="134.835569" y="218.247471" style="stroke: #000000; stroke-width: 0.8"/>
      </g>
     </g>
    </g>
    <g id="xtick_17">
     <g id="line2d_35">
      <g>
       <use xlink:href="#m10d95835e7" x="253.007275" y="218.247471" style="stroke: #000000; stroke-width: 0.8"/>
      </g>
     </g>
    </g>
    <g id="xtick_18">
     <g id="line2d_36">
      <g>
       <use xlink:href="#m10d95835e7" x="371.178981" y="218.247471" style="stroke: #000000; stroke-width: 0.8"/>
      </g>
     </g>
    </g>
    <g id="xtick_19">
     <g id="line2d_37">
      <g>
       <use xlink:href="#m10d95835e7" x="489.350687" y="218.247471" style="stroke: #000000; stroke-width: 0.8"/>
      </g>
     </g>
    </g>
    <g id="xtick_20">
     <g id="line2d_38">
      <g>
       <use xlink:href="#m10d95835e7" x="607.522393" y="218.247471" style="stroke: #000000; stroke-width: 0.8"/>
      </g>
     </g>
    </g>
   </g>
   <g id="matplotlib.axis_8">
    <g id="ytick_7">
     <g id="line2d_39">
      <g>
       <use xlink:href="#m1550c484ce" x="49.190625" y="209.481565" style="stroke: #000000; stroke-width: 0.8"/>
      </g>
     </g>
     <g id="text_13">
      <!-- 0.00 -->
      <g transform="translate(19.925 213.280783) scale(0.1 -0.1)">
       <use xlink:href="#DejaVuSans-30"/>
       <use xlink:href="#DejaVuSans-2e" x="63.623047"/>
       <use xlink:href="#DejaVuSans-30" x="95.410156"/>
       <use xlink:href="#DejaVuSans-30" x="159.033203"/>
      </g>
     </g>
    </g>
    <g id="ytick_8">
     <g id="line2d_40">
      <g>
       <use xlink:href="#m1550c484ce" x="49.190625" y="183.655004" style="stroke: #000000; stroke-width: 0.8"/>
      </g>
     </g>
     <g id="text_14">
      <!-- 0.01 -->
      <g transform="translate(19.925 187.454223) scale(0.1 -0.1)">
       <use xlink:href="#DejaVuSans-30"/>
       <use xlink:href="#DejaVuSans-2e" x="63.623047"/>
       <use xlink:href="#DejaVuSans-30" x="95.410156"/>
       <use xlink:href="#DejaVuSans-31" x="159.033203"/>
      </g>
     </g>
    </g>
   </g>
   <g id="line2d_41">
    <path d="M 75.749716 198.007077 
L 76.340574 209.692969 
L 76.931433 199.624275 
L 77.522291 200.925105 
L 78.11315 196.311159 
L 78.704009 202.589634 
L 79.294867 198.800595 
L 79.885726 209.080434 
L 80.476584 198.722656 
L 81.067443 182.507272 
L 81.658301 209.775297 
L 82.24916 204.54545 
L 82.840018 181.244462 
L 83.430877 208.966286 
L 84.021735 193.366299 
L 84.612594 207.753281 
L 85.203452 194.397753 
L 85.794311 199.14476 
L 86.385169 200.279596 
L 87.566887 213.674729 
L 88.157745 202.960437 
L 88.748604 209.266413 
L 89.339462 204.316884 
L 89.930321 204.455077 
L 90.521179 197.210517 
L 91.112038 209.419946 
L 91.702896 196.712945 
L 92.884613 212.379921 
L 93.475472 189.639227 
L 94.06633 201.233122 
L 94.657189 197.450531 
L 95.248047 200.529643 
L 95.838906 205.890747 
L 96.429764 203.998355 
L 97.020623 204.000348 
L 97.611482 212.18631 
L 98.20234 200.196498 
L 98.793199 202.200979 
L 99.384057 205.738432 
L 99.974916 193.335108 
L 100.565774 205.05889 
L 101.156633 206.044028 
L 101.747491 208.556942 
L 102.33835 207.745081 
L 102.929208 202.15979 
L 103.520067 212.948862 
L 104.110925 206.100815 
L 104.701784 202.896019 
L 105.292642 196.362336 
L 105.883501 209.146226 
L 106.474359 210.509066 
L 107.065218 205.120966 
L 107.656077 202.736994 
L 108.246935 195.89261 
L 108.837794 207.890161 
L 109.428652 206.963079 
L 110.019511 206.469128 
L 110.610369 205.241406 
L 111.201228 203.102072 
L 111.792086 207.263299 
L 112.382945 205.971895 
L 112.973803 197.9046 
L 113.564662 204.801952 
L 114.15552 203.373228 
L 114.746379 208.224298 
L 115.337237 202.383574 
L 115.928096 208.839568 
L 116.518954 202.58564 
L 117.109813 200.568119 
L 117.700672 208.605149 
L 118.29153 202.796494 
L 118.882389 203.933488 
L 119.473247 196.781129 
L 120.064106 204.99417 
L 120.654964 205.212331 
L 121.245823 201.706198 
L 121.836681 202.173824 
L 123.018398 212.809747 
L 123.609257 204.045311 
L 124.790974 201.579431 
L 125.381832 197.807254 
L 125.972691 208.022833 
L 126.563549 207.460248 
L 127.154408 198.190353 
L 127.745267 205.692899 
L 128.336125 203.706391 
L 128.926984 205.212265 
L 129.517842 205.64412 
L 130.108701 208.339126 
L 130.699559 206.614268 
L 131.290418 205.619629 
L 131.881276 203.978671 
L 132.472135 204.371313 
L 133.062993 202.16101 
L 133.653852 202.131878 
L 134.24471 199.850719 
L 134.835569 203.562955 
L 135.426427 197.963912 
L 136.017286 201.161672 
L 136.608144 207.14536 
L 137.199003 203.729548 
L 137.789862 202.505591 
L 138.38072 204.415143 
L 138.971579 206.790071 
L 139.562437 205.345405 
L 140.153296 208.84319 
L 140.744154 203.024885 
L 141.335013 203.053329 
L 141.925871 207.050588 
L 142.51673 202.204785 
L 143.107588 205.773761 
L 143.698447 206.094356 
L 144.289305 197.5414 
L 145.471022 205.205842 
L 146.061881 213.06151 
L 146.652739 209.948959 
L 147.243598 203.148112 
L 147.834457 209.289245 
L 148.425315 208.61048 
L 149.016174 214.222295 
L 149.607032 206.415203 
L 150.197891 212.139862 
L 150.788749 201.598877 
L 151.379608 202.864429 
L 151.970466 203.700039 
L 152.561325 208.338038 
L 153.152183 199.711179 
L 153.743042 208.314323 
L 154.3339 203.011944 
L 154.924759 213.141288 
L 156.106476 207.5954 
L 156.697334 206.345617 
L 157.288193 205.870079 
L 157.879052 207.600656 
L 158.46991 197.7506 
L 159.060769 205.47838 
L 159.651627 196.90031 
L 160.242486 209.459594 
L 160.833344 216.485423 
L 161.424203 204.059509 
L 162.015061 205.496055 
L 162.60592 206.190758 
L 163.196778 203.410785 
L 163.787637 203.472591 
L 164.378495 199.073594 
L 164.969354 208.218621 
L 165.560212 205.281425 
L 166.151071 209.661505 
L 166.741929 209.726906 
L 167.332788 209.284579 
L 167.923647 204.923568 
L 168.514505 209.226132 
L 169.105364 203.369731 
L 169.696222 206.915457 
L 170.287081 207.411093 
L 171.468798 207.044074 
L 172.059656 208.371153 
L 172.650515 207.292356 
L 173.241373 206.815665 
L 173.832232 207.537288 
L 174.42309 205.187729 
L 175.013949 205.535439 
L 175.604807 207.728393 
L 176.195666 206.879692 
L 176.786524 206.616154 
L 177.377383 206.78883 
L 177.968242 206.75761 
L 178.5591 206.921041 
L 179.149959 207.691637 
L 179.740817 206.624624 
L 180.331676 207.196447 
L 180.922534 207.100547 
L 181.513393 207.176124 
L 182.104251 206.942949 
L 183.285968 207.011621 
L 183.876827 206.848029 
L 184.467685 206.901052 
L 185.058544 207.065926 
L 185.649402 206.804877 
L 186.240261 206.804345 
L 186.831119 207.008407 
L 188.012837 206.850262 
L 190.967129 206.873066 
L 191.557988 206.95369 
L 193.921422 206.853792 
L 195.693997 206.903543 
L 196.875714 206.849193 
L 198.64829 206.896312 
L 201.602583 206.887839 
L 204.556875 206.893645 
L 228.191217 206.901312 
L 283.731918 206.898577 
L 399.54019 206.898946 
L 606.931534 206.898904 
L 606.931534 206.898904 
" clip-path="url(#p20d3248057)" style="fill: none; stroke: #1f77b4; stroke-width: 2; stroke-linecap: square"/>
   </g>
   <g id="line2d_42">
    <path d="M 75.749716 206.898909 
L 606.931534 206.898909 
L 606.931534 206.898909 
" clip-path="url(#p20d3248057)" style="fill: none; stroke-dasharray: 5.55,2.4; stroke-dashoffset: 0; stroke: #000000; stroke-width: 1.5"/>
   </g>
   <g id="patch_21">
    <path d="M 49.190625 218.247471 
L 49.190625 179.482414 
" style="fill: none; stroke: #000000; stroke-width: 0.8; stroke-linejoin: miter; stroke-linecap: square"/>
   </g>
   <g id="patch_22">
    <path d="M 633.490625 218.247471 
L 633.490625 179.482414 
" style="fill: none; stroke: #000000; stroke-width: 0.8; stroke-linejoin: miter; stroke-linecap: square"/>
   </g>
   <g id="patch_23">
    <path d="M 49.190625 218.247471 
L 633.490625 218.247471 
" style="fill: none; stroke: #000000; stroke-width: 0.8; stroke-linejoin: miter; stroke-linecap: square"/>
   </g>
   <g id="patch_24">
    <path d="M 49.190625 179.482414 
L 633.490625 179.482414 
" style="fill: none; stroke: #000000; stroke-width: 0.8; stroke-linejoin: miter; stroke-linecap: square"/>
   </g>
   <g id="legend_4">
    <g id="patch_25">
     <path d="M 544.990625 218.460539 
L 626.490625 218.460539 
Q 628.490625 218.460539 628.490625 216.460539 
L 628.490625 186.482414 
Q 628.490625 184.482414 626.490625 184.482414 
L 544.990625 184.482414 
Q 542.990625 184.482414 542.990625 186.482414 
L 542.990625 216.460539 
Q 542.990625 218.460539 544.990625 218.460539 
z
" style="fill: #ffffff; opacity: 0.8; stroke: #cccccc; stroke-linejoin: miter"/>
    </g>
    <g id="line2d_43">
     <path d="M 546.990625 194.202726 
L 556.990625 194.202726 
L 566.990625 194.202726 
" style="fill: none; stroke: #1f77b4; stroke-width: 2; stroke-linecap: square"/>
    </g>
    <g id="text_15">
     <!-- $\hat\delta$ -->
     <g transform="translate(574.990625 197.702726) scale(0.1 -0.1)">
      <defs>
       <path id="DejaVuSans-Oblique-3b4" d="M 3472 4053 
Q 3197 4272 2450 4272 
Q 1659 4272 1588 3906 
Q 1531 3619 2328 3469 
Q 2953 3353 3253 3003 
Q 3616 2581 3447 1716 
Q 3284 888 2763 400 
Q 2238 -91 1488 -91 
Q 741 -91 406 400 
Q 72 888 241 1747 
Q 363 2384 891 2900 
Q 1097 3100 1353 3213 
Q 913 3459 1000 3900 
Q 1166 4750 2544 4750 
Q 3234 4750 3566 4531 
L 3472 4053 
z
M 1753 3056 
Q 1525 2966 1306 2738 
Q 969 2384 847 1747 
Q 722 1113 919 756 
Q 1119 397 1584 397 
Q 2044 397 2381 759 
Q 2722 1122 2838 1716 
Q 2956 2338 2731 2638 
Q 2491 2959 2103 2994 
Q 1906 3013 1753 3056 
z
" transform="scale(0.015625)"/>
      </defs>
      <use xlink:href="#DejaVuSans-302" transform="translate(59.417969 31.015625)"/>
      <use xlink:href="#DejaVuSans-Oblique-3b4" transform="translate(0 0.296875)"/>
     </g>
    </g>
    <g id="line2d_44">
     <path d="M 546.990625 208.880851 
L 556.990625 208.880851 
L 566.990625 208.880851 
" style="fill: none; stroke-dasharray: 5.55,2.4; stroke-dashoffset: 0; stroke: #000000; stroke-width: 1.5"/>
    </g>
    <g id="text_16">
     <!-- $\delta$ = 0.001 -->
     <g transform="translate(574.990625 212.380851) scale(0.1 -0.1)">
      <use xlink:href="#DejaVuSans-Oblique-3b4" transform="translate(0 0.78125)"/>
      <use xlink:href="#DejaVuSans-20" transform="translate(61.181641 0.78125)"/>
      <use xlink:href="#DejaVuSans-3d" transform="translate(92.96875 0.78125)"/>
      <use xlink:href="#DejaVuSans-20" transform="translate(176.757812 0.78125)"/>
      <use xlink:href="#DejaVuSans-30" transform="translate(208.544922 0.78125)"/>
      <use xlink:href="#DejaVuSans-2e" transform="translate(272.167969 0.78125)"/>
      <use xlink:href="#DejaVuSans-30" transform="translate(303.955078 0.78125)"/>
      <use xlink:href="#DejaVuSans-30" transform="translate(367.578125 0.78125)"/>
      <use xlink:href="#DejaVuSans-31" transform="translate(431.201172 0.78125)"/>
     </g>
    </g>
   </g>
  </g>
  <g id="axes_5">
   <g id="patch_26">
    <path d="M 49.190625 314.44 
L 633.490625 314.44 
L 633.490625 236.909885 
L 49.190625 236.909885 
z
" style="fill: #ffffff"/>
   </g>
   <g id="matplotlib.axis_9">
    <g id="xtick_21">
     <g id="line2d_45">
      <g>
       <use xlink:href="#m10d95835e7" x="134.835569" y="314.44" style="stroke: #000000; stroke-width: 0.8"/>
      </g>
     </g>
     <g id="text_17">
      <!-- 200 -->
      <g transform="translate(125.291819 329.038437) scale(0.1 -0.1)">
       <use xlink:href="#DejaVuSans-32"/>
       <use xlink:href="#DejaVuSans-30" x="63.623047"/>
       <use xlink:href="#DejaVuSans-30" x="127.246094"/>
      </g>
     </g>
    </g>
    <g id="xtick_22">
     <g id="line2d_46">
      <g>
       <use xlink:href="#m10d95835e7" x="253.007275" y="314.44" style="stroke: #000000; stroke-width: 0.8"/>
      </g>
     </g>
     <g id="text_18">
      <!-- 400 -->
      <g transform="translate(243.463525 329.038437) scale(0.1 -0.1)">
       <use xlink:href="#DejaVuSans-34"/>
       <use xlink:href="#DejaVuSans-30" x="63.623047"/>
       <use xlink:href="#DejaVuSans-30" x="127.246094"/>
      </g>
     </g>
    </g>
    <g id="xtick_23">
     <g id="line2d_47">
      <g>
       <use xlink:href="#m10d95835e7" x="371.178981" y="314.44" style="stroke: #000000; stroke-width: 0.8"/>
      </g>
     </g>
     <g id="text_19">
      <!-- 600 -->
      <g transform="translate(361.635231 329.038437) scale(0.1 -0.1)">
       <defs>
        <path id="DejaVuSans-36" d="M 2113 2584 
Q 1688 2584 1439 2293 
Q 1191 2003 1191 1497 
Q 1191 994 1439 701 
Q 1688 409 2113 409 
Q 2538 409 2786 701 
Q 3034 994 3034 1497 
Q 3034 2003 2786 2293 
Q 2538 2584 2113 2584 
z
M 3366 4563 
L 3366 3988 
Q 3128 4100 2886 4159 
Q 2644 4219 2406 4219 
Q 1781 4219 1451 3797 
Q 1122 3375 1075 2522 
Q 1259 2794 1537 2939 
Q 1816 3084 2150 3084 
Q 2853 3084 3261 2657 
Q 3669 2231 3669 1497 
Q 3669 778 3244 343 
Q 2819 -91 2113 -91 
Q 1303 -91 875 529 
Q 447 1150 447 2328 
Q 447 3434 972 4092 
Q 1497 4750 2381 4750 
Q 2619 4750 2861 4703 
Q 3103 4656 3366 4563 
z
" transform="scale(0.015625)"/>
       </defs>
       <use xlink:href="#DejaVuSans-36"/>
       <use xlink:href="#DejaVuSans-30" x="63.623047"/>
       <use xlink:href="#DejaVuSans-30" x="127.246094"/>
      </g>
     </g>
    </g>
    <g id="xtick_24">
     <g id="line2d_48">
      <g>
       <use xlink:href="#m10d95835e7" x="489.350687" y="314.44" style="stroke: #000000; stroke-width: 0.8"/>
      </g>
     </g>
     <g id="text_20">
      <!-- 800 -->
      <g transform="translate(479.806937 329.038437) scale(0.1 -0.1)">
       <use xlink:href="#DejaVuSans-38"/>
       <use xlink:href="#DejaVuSans-30" x="63.623047"/>
       <use xlink:href="#DejaVuSans-30" x="127.246094"/>
      </g>
     </g>
    </g>
    <g id="xtick_25">
     <g id="line2d_49">
      <g>
       <use xlink:href="#m10d95835e7" x="607.522393" y="314.44" style="stroke: #000000; stroke-width: 0.8"/>
      </g>
     </g>
     <g id="text_21">
      <!-- 1000 -->
      <g transform="translate(594.797393 329.038437) scale(0.1 -0.1)">
       <use xlink:href="#DejaVuSans-31"/>
       <use xlink:href="#DejaVuSans-30" x="63.623047"/>
       <use xlink:href="#DejaVuSans-30" x="127.246094"/>
       <use xlink:href="#DejaVuSans-30" x="190.869141"/>
      </g>
     </g>
    </g>
    <g id="text_22">
     <!-- time (days) -->
     <g transform="translate(312.751562 342.716562) scale(0.1 -0.1)">
      <defs>
       <path id="DejaVuSans-74" d="M 1172 4494 
L 1172 3500 
L 2356 3500 
L 2356 3053 
L 1172 3053 
L 1172 1153 
Q 1172 725 1289 603 
Q 1406 481 1766 481 
L 2356 481 
L 2356 0 
L 1766 0 
Q 1100 0 847 248 
Q 594 497 594 1153 
L 594 3053 
L 172 3053 
L 172 3500 
L 594 3500 
L 594 4494 
L 1172 4494 
z
" transform="scale(0.015625)"/>
       <path id="DejaVuSans-69" d="M 603 3500 
L 1178 3500 
L 1178 0 
L 603 0 
L 603 3500 
z
M 603 4863 
L 1178 4863 
L 1178 4134 
L 603 4134 
L 603 4863 
z
" transform="scale(0.015625)"/>
       <path id="DejaVuSans-6d" d="M 3328 2828 
Q 3544 3216 3844 3400 
Q 4144 3584 4550 3584 
Q 5097 3584 5394 3201 
Q 5691 2819 5691 2113 
L 5691 0 
L 5113 0 
L 5113 2094 
Q 5113 2597 4934 2840 
Q 4756 3084 4391 3084 
Q 3944 3084 3684 2787 
Q 3425 2491 3425 1978 
L 3425 0 
L 2847 0 
L 2847 2094 
Q 2847 2600 2669 2842 
Q 2491 3084 2119 3084 
Q 1678 3084 1418 2786 
Q 1159 2488 1159 1978 
L 1159 0 
L 581 0 
L 581 3500 
L 1159 3500 
L 1159 2956 
Q 1356 3278 1631 3431 
Q 1906 3584 2284 3584 
Q 2666 3584 2933 3390 
Q 3200 3197 3328 2828 
z
" transform="scale(0.015625)"/>
       <path id="DejaVuSans-65" d="M 3597 1894 
L 3597 1613 
L 953 1613 
Q 991 1019 1311 708 
Q 1631 397 2203 397 
Q 2534 397 2845 478 
Q 3156 559 3463 722 
L 3463 178 
Q 3153 47 2828 -22 
Q 2503 -91 2169 -91 
Q 1331 -91 842 396 
Q 353 884 353 1716 
Q 353 2575 817 3079 
Q 1281 3584 2069 3584 
Q 2775 3584 3186 3129 
Q 3597 2675 3597 1894 
z
M 3022 2063 
Q 3016 2534 2758 2815 
Q 2500 3097 2075 3097 
Q 1594 3097 1305 2825 
Q 1016 2553 972 2059 
L 3022 2063 
z
" transform="scale(0.015625)"/>
       <path id="DejaVuSans-28" d="M 1984 4856 
Q 1566 4138 1362 3434 
Q 1159 2731 1159 2009 
Q 1159 1288 1364 580 
Q 1569 -128 1984 -844 
L 1484 -844 
Q 1016 -109 783 600 
Q 550 1309 550 2009 
Q 550 2706 781 3412 
Q 1013 4119 1484 4856 
L 1984 4856 
z
" transform="scale(0.015625)"/>
       <path id="DejaVuSans-64" d="M 2906 2969 
L 2906 4863 
L 3481 4863 
L 3481 0 
L 2906 0 
L 2906 525 
Q 2725 213 2448 61 
Q 2172 -91 1784 -91 
Q 1150 -91 751 415 
Q 353 922 353 1747 
Q 353 2572 751 3078 
Q 1150 3584 1784 3584 
Q 2172 3584 2448 3432 
Q 2725 3281 2906 2969 
z
M 947 1747 
Q 947 1113 1208 752 
Q 1469 391 1925 391 
Q 2381 391 2643 752 
Q 2906 1113 2906 1747 
Q 2906 2381 2643 2742 
Q 2381 3103 1925 3103 
Q 1469 3103 1208 2742 
Q 947 2381 947 1747 
z
" transform="scale(0.015625)"/>
       <path id="DejaVuSans-61" d="M 2194 1759 
Q 1497 1759 1228 1600 
Q 959 1441 959 1056 
Q 959 750 1161 570 
Q 1363 391 1709 391 
Q 2188 391 2477 730 
Q 2766 1069 2766 1631 
L 2766 1759 
L 2194 1759 
z
M 3341 1997 
L 3341 0 
L 2766 0 
L 2766 531 
Q 2569 213 2275 61 
Q 1981 -91 1556 -91 
Q 1019 -91 701 211 
Q 384 513 384 1019 
Q 384 1609 779 1909 
Q 1175 2209 1959 2209 
L 2766 2209 
L 2766 2266 
Q 2766 2663 2505 2880 
Q 2244 3097 1772 3097 
Q 1472 3097 1187 3025 
Q 903 2953 641 2809 
L 641 3341 
Q 956 3463 1253 3523 
Q 1550 3584 1831 3584 
Q 2591 3584 2966 3190 
Q 3341 2797 3341 1997 
z
" transform="scale(0.015625)"/>
       <path id="DejaVuSans-79" d="M 2059 -325 
Q 1816 -950 1584 -1140 
Q 1353 -1331 966 -1331 
L 506 -1331 
L 506 -850 
L 844 -850 
Q 1081 -850 1212 -737 
Q 1344 -625 1503 -206 
L 1606 56 
L 191 3500 
L 800 3500 
L 1894 763 
L 2988 3500 
L 3597 3500 
L 2059 -325 
z
" transform="scale(0.015625)"/>
       <path id="DejaVuSans-73" d="M 2834 3397 
L 2834 2853 
Q 2591 2978 2328 3040 
Q 2066 3103 1784 3103 
Q 1356 3103 1142 2972 
Q 928 2841 928 2578 
Q 928 2378 1081 2264 
Q 1234 2150 1697 2047 
L 1894 2003 
Q 2506 1872 2764 1633 
Q 3022 1394 3022 966 
Q 3022 478 2636 193 
Q 2250 -91 1575 -91 
Q 1294 -91 989 -36 
Q 684 19 347 128 
L 347 722 
Q 666 556 975 473 
Q 1284 391 1588 391 
Q 1994 391 2212 530 
Q 2431 669 2431 922 
Q 2431 1156 2273 1281 
Q 2116 1406 1581 1522 
L 1381 1569 
Q 847 1681 609 1914 
Q 372 2147 372 2553 
Q 372 3047 722 3315 
Q 1072 3584 1716 3584 
Q 2034 3584 2315 3537 
Q 2597 3491 2834 3397 
z
" transform="scale(0.015625)"/>
       <path id="DejaVuSans-29" d="M 513 4856 
L 1013 4856 
Q 1481 4119 1714 3412 
Q 1947 2706 1947 2009 
Q 1947 1309 1714 600 
Q 1481 -109 1013 -844 
L 513 -844 
Q 928 -128 1133 580 
Q 1338 1288 1338 2009 
Q 1338 2731 1133 3434 
Q 928 4138 513 4856 
z
" transform="scale(0.015625)"/>
      </defs>
      <use xlink:href="#DejaVuSans-74"/>
      <use xlink:href="#DejaVuSans-69" x="39.208984"/>
      <use xlink:href="#DejaVuSans-6d" x="66.992188"/>
      <use xlink:href="#DejaVuSans-65" x="164.404297"/>
      <use xlink:href="#DejaVuSans-20" x="225.927734"/>
      <use xlink:href="#DejaVuSans-28" x="257.714844"/>
      <use xlink:href="#DejaVuSans-64" x="296.728516"/>
      <use xlink:href="#DejaVuSans-61" x="360.205078"/>
      <use xlink:href="#DejaVuSans-79" x="421.484375"/>
      <use xlink:href="#DejaVuSans-73" x="480.664062"/>
      <use xlink:href="#DejaVuSans-29" x="532.763672"/>
     </g>
    </g>
   </g>
   <g id="matplotlib.axis_10">
    <g id="ytick_9">
     <g id="line2d_50">
      <g>
       <use xlink:href="#m1550c484ce" x="49.190625" y="310.919408" style="stroke: #000000; stroke-width: 0.8"/>
      </g>
     </g>
     <g id="text_23">
      <!-- 0.00 -->
      <g transform="translate(19.925 314.718627) scale(0.1 -0.1)">
       <use xlink:href="#DejaVuSans-30"/>
       <use xlink:href="#DejaVuSans-2e" x="63.623047"/>
       <use xlink:href="#DejaVuSans-30" x="95.410156"/>
       <use xlink:href="#DejaVuSans-30" x="159.033203"/>
      </g>
     </g>
    </g>
    <g id="ytick_10">
     <g id="line2d_51">
      <g>
       <use xlink:href="#m1550c484ce" x="49.190625" y="282.153995" style="stroke: #000000; stroke-width: 0.8"/>
      </g>
     </g>
     <g id="text_24">
      <!-- 0.01 -->
      <g transform="translate(19.925 285.953214) scale(0.1 -0.1)">
       <use xlink:href="#DejaVuSans-30"/>
       <use xlink:href="#DejaVuSans-2e" x="63.623047"/>
       <use xlink:href="#DejaVuSans-30" x="95.410156"/>
       <use xlink:href="#DejaVuSans-31" x="159.033203"/>
      </g>
     </g>
    </g>
    <g id="ytick_11">
     <g id="line2d_52">
      <g>
       <use xlink:href="#m1550c484ce" x="49.190625" y="253.388582" style="stroke: #000000; stroke-width: 0.8"/>
      </g>
     </g>
     <g id="text_25">
      <!-- 0.02 -->
      <g transform="translate(19.925 257.187801) scale(0.1 -0.1)">
       <use xlink:href="#DejaVuSans-30"/>
       <use xlink:href="#DejaVuSans-2e" x="63.623047"/>
       <use xlink:href="#DejaVuSans-30" x="95.410156"/>
       <use xlink:href="#DejaVuSans-32" x="159.033203"/>
      </g>
     </g>
    </g>
   </g>
   <g id="line2d_53">
    <path d="M 75.749716 310.495429 
L 89.930321 310.116047 
L 100.565774 309.622175 
L 108.837794 309.036563 
L 115.928096 308.328625 
L 121.836681 307.539687 
L 127.154408 306.626812 
L 131.881276 305.611123 
L 136.608144 304.356339 
L 140.744154 303.018849 
L 144.289305 301.659194 
L 147.834457 300.067702 
L 151.379608 298.216512 
L 154.924759 296.086645 
L 158.46991 293.657042 
L 162.015061 290.913246 
L 165.560212 287.852298 
L 169.105364 284.487064 
L 177.968242 275.760125 
L 180.922534 273.334921 
L 183.876827 271.199337 
L 186.831119 269.339633 
L 189.785412 267.734588 
L 192.739705 266.359342 
L 196.284856 264.975024 
L 199.830007 263.838812 
L 203.966017 262.772529 
L 208.102027 261.931691 
L 212.828895 261.186528 
L 218.73748 260.498105 
L 225.827782 259.923939 
L 234.69066 259.458276 
L 245.916972 259.108008 
L 261.870153 258.851543 
L 287.27707 258.69476 
L 336.318327 258.656829 
L 503.531291 258.851269 
L 606.931534 258.978964 
L 606.931534 258.978964 
" clip-path="url(#pbe320d2df6)" style="fill: none; stroke: #1f77b4; stroke-width: 2; stroke-linecap: square"/>
   </g>
   <g id="line2d_54">
    <path d="M 75.749716 308.041394 
L 147.834457 307.949415 
L 149.607032 307.674096 
L 151.970466 306.990709 
L 154.924759 305.892695 
L 157.879052 304.544947 
L 160.242486 303.259212 
L 163.196778 301.375255 
L 165.560212 299.627542 
L 168.514505 297.138287 
L 170.877939 294.918579 
L 172.059656 293.73173 
L 172.650515 292.796863 
L 174.42309 286.492673 
L 176.195666 280.872695 
L 177.968242 275.871008 
L 179.740817 271.412519 
L 181.513393 267.434481 
L 183.285968 263.910225 
L 185.058544 260.781664 
L 187.421978 257.167879 
L 189.194554 254.823577 
L 191.557988 252.12368 
L 193.921422 249.857922 
L 196.284856 247.958193 
L 198.64829 246.372342 
L 201.011724 245.060231 
L 203.375158 243.980181 
L 205.738592 243.097492 
L 208.692885 242.231933 
L 211.647178 241.58156 
L 215.192329 241.034597 
L 219.328339 240.646885 
L 224.055207 240.454133 
L 229.372934 240.465477 
L 235.872377 240.708651 
L 244.144397 241.245868 
L 255.961567 242.255762 
L 280.186767 244.647837 
L 325.092015 249.087415 
L 356.407518 251.940972 
L 387.132161 254.520753 
L 419.62938 257.023393 
L 453.308316 259.39077 
L 488.759828 261.656415 
L 525.983916 263.809917 
L 565.571437 265.873032 
L 606.931534 267.805977 
L 606.931534 267.805977 
" clip-path="url(#pbe320d2df6)" style="fill: none; stroke: #ff7f0e; stroke-opacity: 0.5; stroke-width: 1.5; stroke-linecap: square"/>
   </g>
   <g id="line2d_55">
    <path d="M 75.749716 310.915904 
L 133.653852 310.801617 
L 146.061881 310.566994 
L 153.743042 310.221657 
L 159.651627 309.75567 
L 164.969354 309.110018 
L 169.696222 308.295671 
L 173.241373 307.485312 
L 180.922534 305.259881 
L 192.148846 302.06535 
L 201.011724 299.772185 
L 208.692885 298.002461 
L 215.783187 296.590458 
L 222.87349 295.413677 
L 229.963792 294.47304 
L 237.054095 293.752346 
L 244.735255 293.188563 
L 253.598133 292.768627 
L 263.642728 292.521574 
L 276.050757 292.45072 
L 292.594796 292.601169 
L 318.001713 293.084127 
L 429.673975 295.40929 
L 489.350687 296.333667 
L 556.708559 297.149383 
L 606.931534 297.63589 
L 606.931534 297.63589 
" clip-path="url(#pbe320d2df6)" style="fill: none; stroke-dasharray: 7.4,3.2; stroke-dashoffset: 0; stroke: #ff0000; stroke-width: 2"/>
   </g>
   <g id="line2d_56">
    <path d="M 75.749716 253.388582 
L 606.931534 253.388582 
L 606.931534 253.388582 
" clip-path="url(#pbe320d2df6)" style="fill: none; stroke-dasharray: 5.55,2.4; stroke-dashoffset: 0; stroke: #000000; stroke-opacity: 0.5; stroke-width: 1.5"/>
   </g>
   <g id="patch_27">
    <path d="M 49.190625 314.44 
L 49.190625 236.909885 
" style="fill: none; stroke: #000000; stroke-width: 0.8; stroke-linejoin: miter; stroke-linecap: square"/>
   </g>
   <g id="patch_28">
    <path d="M 633.490625 314.44 
L 633.490625 236.909885 
" style="fill: none; stroke: #000000; stroke-width: 0.8; stroke-linejoin: miter; stroke-linecap: square"/>
   </g>
   <g id="patch_29">
    <path d="M 49.190625 314.44 
L 633.490625 314.44 
" style="fill: none; stroke: #000000; stroke-width: 0.8; stroke-linejoin: miter; stroke-linecap: square"/>
   </g>
   <g id="patch_30">
    <path d="M 49.190625 236.909885 
L 633.490625 236.909885 
" style="fill: none; stroke: #000000; stroke-width: 0.8; stroke-linejoin: miter; stroke-linecap: square"/>
   </g>
   <g id="legend_5">
    <g id="patch_31">
     <path d="M 56.190625 303.622385 
L 106.690625 303.622385 
Q 108.690625 303.622385 108.690625 301.622385 
L 108.690625 243.909885 
Q 108.690625 241.909885 106.690625 241.909885 
L 56.190625 241.909885 
Q 54.190625 241.909885 54.190625 243.909885 
L 54.190625 301.622385 
Q 54.190625 303.622385 56.190625 303.622385 
z
" style="fill: #ffffff; opacity: 0.8; stroke: #cccccc; stroke-linejoin: miter"/>
    </g>
    <g id="line2d_57">
     <path d="M 58.190625 250.008323 
L 68.190625 250.008323 
L 78.190625 250.008323 
" style="fill: none; stroke: #1f77b4; stroke-width: 2; stroke-linecap: square"/>
    </g>
    <g id="text_26">
     <!-- $I$ -->
     <g transform="translate(86.190625 253.508323) scale(0.1 -0.1)">
      <use xlink:href="#DejaVuSans-Oblique-49" transform="translate(0 0.09375)"/>
     </g>
    </g>
    <g id="line2d_58">
     <path d="M 58.190625 264.686448 
L 68.190625 264.686448 
L 78.190625 264.686448 
" style="fill: none; stroke: #ff7f0e; stroke-opacity: 0.5; stroke-width: 1.5; stroke-linecap: square"/>
    </g>
    <g id="text_27">
     <!-- $u$ -->
     <g transform="translate(86.190625 268.186448) scale(0.1 -0.1)">
      <defs>
       <path id="DejaVuSans-Oblique-75" d="M 428 1388 
L 838 3500 
L 1416 3500 
L 1006 1409 
Q 975 1256 961 1147 
Q 947 1038 947 966 
Q 947 700 1109 554 
Q 1272 409 1569 409 
Q 2031 409 2368 721 
Q 2706 1034 2809 1563 
L 3194 3500 
L 3769 3500 
L 3091 0 
L 2516 0 
L 2631 550 
Q 2388 244 2052 76 
Q 1716 -91 1338 -91 
Q 878 -91 622 161 
Q 366 413 366 863 
Q 366 956 381 1097 
Q 397 1238 428 1388 
z
" transform="scale(0.015625)"/>
      </defs>
      <use xlink:href="#DejaVuSans-Oblique-75" transform="translate(0 0.3125)"/>
     </g>
    </g>
    <g id="line2d_59">
     <path d="M 58.190625 279.364573 
L 68.190625 279.364573 
L 78.190625 279.364573 
" style="fill: none; stroke-dasharray: 7.4,3.2; stroke-dashoffset: 0; stroke: #ff0000; stroke-width: 2"/>
    </g>
    <g id="text_28">
     <!-- $L$ -->
     <g transform="translate(86.190625 282.864573) scale(0.1 -0.1)">
      <defs>
       <path id="DejaVuSans-Oblique-4c" d="M 1075 4666 
L 1709 4666 
L 909 525 
L 3181 525 
L 3078 0 
L 172 0 
L 1075 4666 
z
" transform="scale(0.015625)"/>
      </defs>
      <use xlink:href="#DejaVuSans-Oblique-4c" transform="translate(0 0.09375)"/>
     </g>
    </g>
    <g id="line2d_60">
     <path d="M 58.190625 294.042698 
L 68.190625 294.042698 
L 78.190625 294.042698 
" style="fill: none; stroke-dasharray: 5.55,2.4; stroke-dashoffset: 0; stroke: #000000; stroke-opacity: 0.5; stroke-width: 1.5"/>
    </g>
    <g id="text_29">
     <!-- $I_{\max}$ -->
     <g transform="translate(86.190625 297.542698) scale(0.1 -0.1)">
      <defs>
       <path id="DejaVuSans-78" d="M 3513 3500 
L 2247 1797 
L 3578 0 
L 2900 0 
L 1881 1375 
L 863 0 
L 184 0 
L 1544 1831 
L 300 3500 
L 978 3500 
L 1906 2253 
L 2834 3500 
L 3513 3500 
z
" transform="scale(0.015625)"/>
      </defs>
      <use xlink:href="#DejaVuSans-Oblique-49" transform="translate(0 0.09375)"/>
      <use xlink:href="#DejaVuSans-6d" transform="translate(29.492188 -16.3125) scale(0.7)"/>
      <use xlink:href="#DejaVuSans-61" transform="translate(97.680664 -16.3125) scale(0.7)"/>
      <use xlink:href="#DejaVuSans-78" transform="translate(140.576172 -16.3125) scale(0.7)"/>
     </g>
    </g>
   </g>
  </g>
 </g>
 <defs>
  <clipPath id="p31650d93d4">
   <rect x="49.190625" y="7.2" width="584.3" height="38.765057"/>
  </clipPath>
  <clipPath id="p0f4f0d6d7d">
   <rect x="49.190625" y="64.627471" width="584.3" height="38.765057"/>
  </clipPath>
  <clipPath id="p2df92000c5">
   <rect x="49.190625" y="122.054943" width="584.3" height="38.765057"/>
  </clipPath>
  <clipPath id="p20d3248057">
   <rect x="49.190625" y="179.482414" width="584.3" height="38.765057"/>
  </clipPath>
  <clipPath id="pbe320d2df6">
   <rect x="49.190625" y="236.909885" width="584.3" height="77.530115"/>
  </clipPath>
 </defs>
</svg>
