<?xml version="1.0" encoding="utf-8" standalone="no"?>
<!DOCTYPE svg PUBLIC "-//W3C//DTD SVG 1.1//EN"
  "http://www.w3.org/Graphics/SVG/1.1/DTD/svg11.dtd">
<svg xmlns:xlink="http://www.w3.org/1999/xlink" width="601.665625pt" height="308.278125pt" viewBox="0 0 601.665625 308.278125" xmlns="http://www.w3.org/2000/svg" version="1.1">
 <metadata>
  <rdf:RDF xmlns:dc="http://purl.org/dc/elements/1.1/" xmlns:cc="http://creativecommons.org/ns#" xmlns:rdf="http://www.w3.org/1999/02/22-rdf-syntax-ns#">
   <cc:Work>
    <dc:type rdf:resource="http://purl.org/dc/dcmitype/StillImage"/>
    <dc:date>2025-06-05T16:10:10.194953</dc:date>
    <dc:format>image/svg+xml</dc:format>
    <dc:creator>
     <cc:Agent>
      <dc:title>Matplotlib v3.6.3, https://matplotlib.org/</dc:title>
     </cc:Agent>
    </dc:creator>
   </cc:Work>
  </rdf:RDF>
 </metadata>
 <defs>
  <style type="text/css">*{stroke-linejoin: round; stroke-linecap: butt}</style>
 </defs>
 <g id="figure_1">
  <g id="patch_1">
   <path d="M 0 308.278125 
L 601.665625 308.278125 
L 601.665625 0 
L 0 0 
z
" style="fill: #ffffff"/>
  </g>
  <g id="axes_1">
   <g id="patch_2">
    <path d="M 36.465625 67.46087 
L 594.465625 67.46087 
L 594.465625 7.2 
L 36.465625 7.2 
z
" style="fill: #ffffff"/>
   </g>
   <g id="matplotlib.axis_1">
    <g id="xtick_1">
     <g id="line2d_1">
      <defs>
       <path id="md260d726df" d="M 0 0 
L 0 3.5 
" style="stroke: #000000; stroke-width: 0.8"/>
      </defs>
      <g>
       <use xlink:href="#md260d726df" x="61.829261" y="67.46087" style="stroke: #000000; stroke-width: 0.8"/>
      </g>
     </g>
    </g>
    <g id="xtick_2">
     <g id="line2d_2">
      <g>
       <use xlink:href="#md260d726df" x="125.556991" y="67.46087" style="stroke: #000000; stroke-width: 0.8"/>
      </g>
     </g>
    </g>
    <g id="xtick_3">
     <g id="line2d_3">
      <g>
       <use xlink:href="#md260d726df" x="189.28472" y="67.46087" style="stroke: #000000; stroke-width: 0.8"/>
      </g>
     </g>
    </g>
    <g id="xtick_4">
     <g id="line2d_4">
      <g>
       <use xlink:href="#md260d726df" x="253.01245" y="67.46087" style="stroke: #000000; stroke-width: 0.8"/>
      </g>
     </g>
    </g>
    <g id="xtick_5">
     <g id="line2d_5">
      <g>
       <use xlink:href="#md260d726df" x="316.74018" y="67.46087" style="stroke: #000000; stroke-width: 0.8"/>
      </g>
     </g>
    </g>
    <g id="xtick_6">
     <g id="line2d_6">
      <g>
       <use xlink:href="#md260d726df" x="380.467909" y="67.46087" style="stroke: #000000; stroke-width: 0.8"/>
      </g>
     </g>
    </g>
    <g id="xtick_7">
     <g id="line2d_7">
      <g>
       <use xlink:href="#md260d726df" x="444.195639" y="67.46087" style="stroke: #000000; stroke-width: 0.8"/>
      </g>
     </g>
    </g>
    <g id="xtick_8">
     <g id="line2d_8">
      <g>
       <use xlink:href="#md260d726df" x="507.923368" y="67.46087" style="stroke: #000000; stroke-width: 0.8"/>
      </g>
     </g>
    </g>
    <g id="xtick_9">
     <g id="line2d_9">
      <g>
       <use xlink:href="#md260d726df" x="571.651098" y="67.46087" style="stroke: #000000; stroke-width: 0.8"/>
      </g>
     </g>
    </g>
   </g>
   <g id="matplotlib.axis_2">
    <g id="ytick_1">
     <g id="line2d_10">
      <defs>
       <path id="m952616286a" d="M 0 0 
L -3.5 0 
" style="stroke: #000000; stroke-width: 0.8"/>
      </defs>
      <g>
       <use xlink:href="#m952616286a" x="36.465625" y="64.721739" style="stroke: #000000; stroke-width: 0.8"/>
      </g>
     </g>
     <g id="text_1">
      <!-- 0.0 -->
      <g transform="translate(13.5625 68.520958) scale(0.1 -0.1)">
       <defs>
        <path id="DejaVuSans-30" d="M 2034 4250 
Q 1547 4250 1301 3770 
Q 1056 3291 1056 2328 
Q 1056 1369 1301 889 
Q 1547 409 2034 409 
Q 2525 409 2770 889 
Q 3016 1369 3016 2328 
Q 3016 3291 2770 3770 
Q 2525 4250 2034 4250 
z
M 2034 4750 
Q 2819 4750 3233 4129 
Q 3647 3509 3647 2328 
Q 3647 1150 3233 529 
Q 2819 -91 2034 -91 
Q 1250 -91 836 529 
Q 422 1150 422 2328 
Q 422 3509 836 4129 
Q 1250 4750 2034 4750 
z
" transform="scale(0.015625)"/>
        <path id="DejaVuSans-2e" d="M 684 794 
L 1344 794 
L 1344 0 
L 684 0 
L 684 794 
z
" transform="scale(0.015625)"/>
       </defs>
       <use xlink:href="#DejaVuSans-30"/>
       <use xlink:href="#DejaVuSans-2e" x="63.623047"/>
       <use xlink:href="#DejaVuSans-30" x="95.410156"/>
      </g>
     </g>
    </g>
    <g id="ytick_2">
     <g id="line2d_11">
      <g>
       <use xlink:href="#m952616286a" x="36.465625" y="43.11425" style="stroke: #000000; stroke-width: 0.8"/>
      </g>
     </g>
     <g id="text_2">
      <!-- 0.1 -->
      <g transform="translate(13.5625 46.913468) scale(0.1 -0.1)">
       <defs>
        <path id="DejaVuSans-31" d="M 794 531 
L 1825 531 
L 1825 4091 
L 703 3866 
L 703 4441 
L 1819 4666 
L 2450 4666 
L 2450 531 
L 3481 531 
L 3481 0 
L 794 0 
L 794 531 
z
" transform="scale(0.015625)"/>
       </defs>
       <use xlink:href="#DejaVuSans-30"/>
       <use xlink:href="#DejaVuSans-2e" x="63.623047"/>
       <use xlink:href="#DejaVuSans-31" x="95.410156"/>
      </g>
     </g>
    </g>
    <g id="ytick_3">
     <g id="line2d_12">
      <g>
       <use xlink:href="#m952616286a" x="36.465625" y="21.50676" style="stroke: #000000; stroke-width: 0.8"/>
      </g>
     </g>
     <g id="text_3">
      <!-- 0.2 -->
      <g transform="translate(13.5625 25.305979) scale(0.1 -0.1)">
       <defs>
        <path id="DejaVuSans-32" d="M 1228 531 
L 3431 531 
L 3431 0 
L 469 0 
L 469 531 
Q 828 903 1448 1529 
Q 2069 2156 2228 2338 
Q 2531 2678 2651 2914 
Q 2772 3150 2772 3378 
Q 2772 3750 2511 3984 
Q 2250 4219 1831 4219 
Q 1534 4219 1204 4116 
Q 875 4013 500 3803 
L 500 4441 
Q 881 4594 1212 4672 
Q 1544 4750 1819 4750 
Q 2544 4750 2975 4387 
Q 3406 4025 3406 3419 
Q 3406 3131 3298 2873 
Q 3191 2616 2906 2266 
Q 2828 2175 2409 1742 
Q 1991 1309 1228 531 
z
" transform="scale(0.015625)"/>
       </defs>
       <use xlink:href="#DejaVuSans-30"/>
       <use xlink:href="#DejaVuSans-2e" x="63.623047"/>
       <use xlink:href="#DejaVuSans-32" x="95.410156"/>
      </g>
     </g>
    </g>
   </g>
   <g id="line2d_13">
    <path d="M 61.829261 64.721739 
L 64.378371 9.93913 
L 69.476589 26.514519 
L 72.025698 29.135451 
L 77.123916 39.44279 
L 79.673026 37.865247 
L 82.222135 38.524095 
L 84.771244 43.87133 
L 87.320353 46.016547 
L 89.869462 46.086024 
L 92.418572 47.614626 
L 94.967681 51.716294 
L 97.51679 48.834843 
L 100.065899 49.797035 
L 102.615008 50.163468 
L 105.164117 51.123099 
L 107.713227 50.607202 
L 110.262336 51.358405 
L 112.811445 50.427449 
L 115.360554 50.54693 
L 117.909663 52.028208 
L 120.458773 51.222355 
L 123.007882 51.583704 
L 125.556991 53.753298 
L 128.1061 51.647732 
L 130.655209 52.637655 
L 133.204318 53.265311 
L 135.753428 53.14424 
L 138.302537 52.754052 
L 140.851646 53.180693 
L 143.400755 53.461997 
L 145.949864 53.02759 
L 148.498974 53.115916 
L 151.048083 53.018456 
L 153.597192 53.473658 
L 156.146301 53.526635 
L 158.69541 53.461717 
L 161.244519 54.446436 
L 163.793629 54.088642 
L 166.342738 53.844929 
L 168.891847 54.323964 
L 171.440956 54.047739 
L 176.539175 53.619772 
L 179.088284 54.739482 
L 184.186502 53.783209 
L 186.735611 54.326085 
L 189.28472 54.581029 
L 191.83383 54.474556 
L 194.382939 53.839415 
L 196.932048 54.545246 
L 202.030266 54.964478 
L 204.579376 54.752859 
L 207.128485 55.206538 
L 209.677594 54.85927 
L 212.226703 53.991576 
L 214.775812 54.670962 
L 217.324921 55.565687 
L 219.874031 55.095826 
L 222.42314 54.827712 
L 224.972249 55.157517 
L 227.521358 54.812902 
L 230.070467 55.124262 
L 232.619577 55.259574 
L 235.168686 54.89371 
L 237.717795 54.928265 
L 240.266904 54.798504 
L 242.816013 55.187317 
L 245.365122 55.372365 
L 247.914232 54.848115 
L 250.463341 55.47688 
L 253.01245 55.621455 
L 255.561559 54.957948 
L 258.110668 55.174776 
L 260.659778 55.050725 
L 263.208887 55.405437 
L 265.757996 54.822981 
L 268.307105 55.173949 
L 270.856214 55.032744 
L 273.405323 55.173438 
L 275.954433 55.540379 
L 278.503542 55.037793 
L 281.052651 55.776501 
L 283.60176 55.594002 
L 296.347306 55.29609 
L 298.896415 55.657671 
L 301.445524 55.312192 
L 303.994634 55.518654 
L 306.543743 55.53852 
L 309.092852 55.24252 
L 311.641961 55.116636 
L 314.19107 55.167116 
L 316.74018 55.555963 
L 321.838398 55.491001 
L 324.387507 55.806256 
L 326.936616 55.27297 
L 329.485726 55.540732 
L 334.583944 55.63853 
L 337.133053 55.212566 
L 339.682162 55.778694 
L 342.231271 55.419389 
L 344.780381 55.389946 
L 347.32949 55.69443 
L 349.878599 55.408395 
L 357.525927 55.538111 
L 360.075036 55.74331 
L 362.624145 55.54976 
L 365.173254 55.657373 
L 367.722363 55.600457 
L 370.271472 55.748404 
L 372.820582 55.514393 
L 383.017018 55.675349 
L 385.566128 55.454195 
L 388.115237 55.789933 
L 393.213455 55.575159 
L 395.762564 55.604313 
L 398.311673 55.519025 
L 403.409892 55.946704 
L 405.959001 55.73818 
L 411.057219 55.676496 
L 413.606329 55.684484 
L 416.155438 55.455284 
L 418.704547 55.660096 
L 428.900984 55.898191 
L 433.999202 55.510262 
L 436.548311 55.815216 
L 441.64653 55.993994 
L 444.195639 55.64438 
L 449.293857 55.82705 
L 451.842966 55.570871 
L 459.490294 55.586972 
L 462.039403 55.810692 
L 467.137621 55.723318 
L 472.23584 55.614718 
L 474.784949 55.913806 
L 477.334058 55.764253 
L 492.628713 55.891413 
L 495.177822 55.761533 
L 497.726932 56.044818 
L 500.276041 55.666838 
L 502.82515 55.947545 
L 507.923368 55.781921 
L 510.472477 55.713965 
L 520.668914 56.009218 
L 523.218023 55.711312 
L 525.767133 55.647697 
L 528.316242 55.832546 
L 530.865351 55.695615 
L 533.41446 55.808929 
L 535.963569 55.801436 
L 541.061788 56.027143 
L 546.160006 55.704857 
L 548.709115 55.897175 
L 553.807334 55.769037 
L 556.356443 55.94083 
L 561.454661 55.773714 
L 569.101989 55.876084 
L 569.101989 55.876084 
" clip-path="url(#p0715b261a1)" style="fill: none; stroke: #1f77b4; stroke-width: 1.5; stroke-linecap: square"/>
   </g>
   <g id="line2d_14">
    <path d="M 61.829261 56.078743 
L 569.101989 56.078743 
L 569.101989 56.078743 
" clip-path="url(#p0715b261a1)" style="fill: none; stroke-dasharray: 5.55,2.4; stroke-dashoffset: 0; stroke: #000000; stroke-width: 1.5"/>
   </g>
   <g id="patch_3">
    <path d="M 36.465625 67.46087 
L 36.465625 7.2 
" style="fill: none; stroke: #000000; stroke-width: 0.8; stroke-linejoin: miter; stroke-linecap: square"/>
   </g>
   <g id="patch_4">
    <path d="M 594.465625 67.46087 
L 594.465625 7.2 
" style="fill: none; stroke: #000000; stroke-width: 0.8; stroke-linejoin: miter; stroke-linecap: square"/>
   </g>
   <g id="patch_5">
    <path d="M 36.465625 67.46087 
L 594.465625 67.46087 
" style="fill: none; stroke: #000000; stroke-width: 0.8; stroke-linejoin: miter; stroke-linecap: square"/>
   </g>
   <g id="patch_6">
    <path d="M 36.465625 7.2 
L 594.465625 7.2 
" style="fill: none; stroke: #000000; stroke-width: 0.8; stroke-linejoin: miter; stroke-linecap: square"/>
   </g>
   <g id="legend_1">
    <g id="patch_7">
     <path d="M 512.065625 48.5 
L 587.465625 48.5 
Q 589.465625 48.5 589.465625 46.5 
L 589.465625 14.2 
Q 589.465625 12.2 587.465625 12.2 
L 512.065625 12.2 
Q 510.065625 12.2 510.065625 14.2 
L 510.065625 46.5 
Q 510.065625 48.5 512.065625 48.5 
z
" style="fill: #ffffff; opacity: 0.8; stroke: #cccccc; stroke-linejoin: miter"/>
    </g>
    <g id="line2d_15">
     <path d="M 514.065625 24.1 
L 524.065625 24.1 
L 534.065625 24.1 
" style="fill: none; stroke: #1f77b4; stroke-width: 1.5; stroke-linecap: square"/>
    </g>
    <g id="text_4">
     <!-- $\hat\beta$ -->
     <g transform="translate(542.065625 27.6) scale(0.1 -0.1)">
      <defs>
       <path id="DejaVuSans-302" d="M -1831 5119 
L -1369 5119 
L -603 3944 
L -1038 3944 
L -1600 4709 
L -2163 3944 
L -2597 3944 
L -1831 5119 
z
M -1600 3584 
L -1600 3584 
z
" transform="scale(0.015625)"/>
       <path id="DejaVuSans-Oblique-3b2" d="M 872 216 
L 572 -1331 
L -6 -1331 
L 928 3478 
Q 1206 4903 2538 4903 
Q 3888 4903 3659 3700 
Q 3503 2844 2894 2531 
Q 3713 2250 3553 1416 
Q 3272 -69 1759 -66 
Q 1097 -63 872 216 
z
M 1019 966 
Q 1259 422 1875 425 
Q 2775 425 2966 1406 
Q 3138 2288 1675 2219 
L 1778 2750 
Q 2909 2731 3106 3750 
Q 3241 4438 2509 4434 
Q 1691 4434 1503 3459 
L 1019 966 
z
" transform="scale(0.015625)"/>
      </defs>
      <use xlink:href="#DejaVuSans-302" transform="translate(62.785156 34.015625)"/>
      <use xlink:href="#DejaVuSans-Oblique-3b2" transform="translate(0 0.90625)"/>
     </g>
    </g>
    <g id="line2d_16">
     <path d="M 514.065625 38.9 
L 524.065625 38.9 
L 534.065625 38.9 
" style="fill: none; stroke-dasharray: 5.55,2.4; stroke-dashoffset: 0; stroke: #000000; stroke-width: 1.5"/>
    </g>
    <g id="text_5">
     <!-- $\beta$ = 0.04 -->
     <g transform="translate(542.065625 42.4) scale(0.1 -0.1)">
      <defs>
       <path id="DejaVuSans-20" transform="scale(0.015625)"/>
       <path id="DejaVuSans-3d" d="M 678 2906 
L 4684 2906 
L 4684 2381 
L 678 2381 
L 678 2906 
z
M 678 1631 
L 4684 1631 
L 4684 1100 
L 678 1100 
L 678 1631 
z
" transform="scale(0.015625)"/>
       <path id="DejaVuSans-34" d="M 2419 4116 
L 825 1625 
L 2419 1625 
L 2419 4116 
z
M 2253 4666 
L 3047 4666 
L 3047 1625 
L 3713 1625 
L 3713 1100 
L 3047 1100 
L 3047 0 
L 2419 0 
L 2419 1100 
L 313 1100 
L 313 1709 
L 2253 4666 
z
" transform="scale(0.015625)"/>
      </defs>
      <use xlink:href="#DejaVuSans-Oblique-3b2" transform="translate(0 0.390625)"/>
      <use xlink:href="#DejaVuSans-20" transform="translate(63.818359 0.390625)"/>
      <use xlink:href="#DejaVuSans-3d" transform="translate(95.605469 0.390625)"/>
      <use xlink:href="#DejaVuSans-20" transform="translate(179.394531 0.390625)"/>
      <use xlink:href="#DejaVuSans-30" transform="translate(211.181641 0.390625)"/>
      <use xlink:href="#DejaVuSans-2e" transform="translate(274.804688 0.390625)"/>
      <use xlink:href="#DejaVuSans-30" transform="translate(306.591797 0.390625)"/>
      <use xlink:href="#DejaVuSans-34" transform="translate(370.214844 0.390625)"/>
     </g>
    </g>
   </g>
  </g>
  <g id="axes_2">
   <g id="patch_8">
    <path d="M 36.465625 139.773913 
L 594.465625 139.773913 
L 594.465625 79.513043 
L 36.465625 79.513043 
z
" style="fill: #ffffff"/>
   </g>
   <g id="matplotlib.axis_3">
    <g id="xtick_10">
     <g id="line2d_17">
      <g>
       <use xlink:href="#md260d726df" x="61.829261" y="139.773913" style="stroke: #000000; stroke-width: 0.8"/>
      </g>
     </g>
    </g>
    <g id="xtick_11">
     <g id="line2d_18">
      <g>
       <use xlink:href="#md260d726df" x="125.556991" y="139.773913" style="stroke: #000000; stroke-width: 0.8"/>
      </g>
     </g>
    </g>
    <g id="xtick_12">
     <g id="line2d_19">
      <g>
       <use xlink:href="#md260d726df" x="189.28472" y="139.773913" style="stroke: #000000; stroke-width: 0.8"/>
      </g>
     </g>
    </g>
    <g id="xtick_13">
     <g id="line2d_20">
      <g>
       <use xlink:href="#md260d726df" x="253.01245" y="139.773913" style="stroke: #000000; stroke-width: 0.8"/>
      </g>
     </g>
    </g>
    <g id="xtick_14">
     <g id="line2d_21">
      <g>
       <use xlink:href="#md260d726df" x="316.74018" y="139.773913" style="stroke: #000000; stroke-width: 0.8"/>
      </g>
     </g>
    </g>
    <g id="xtick_15">
     <g id="line2d_22">
      <g>
       <use xlink:href="#md260d726df" x="380.467909" y="139.773913" style="stroke: #000000; stroke-width: 0.8"/>
      </g>
     </g>
    </g>
    <g id="xtick_16">
     <g id="line2d_23">
      <g>
       <use xlink:href="#md260d726df" x="444.195639" y="139.773913" style="stroke: #000000; stroke-width: 0.8"/>
      </g>
     </g>
    </g>
    <g id="xtick_17">
     <g id="line2d_24">
      <g>
       <use xlink:href="#md260d726df" x="507.923368" y="139.773913" style="stroke: #000000; stroke-width: 0.8"/>
      </g>
     </g>
    </g>
    <g id="xtick_18">
     <g id="line2d_25">
      <g>
       <use xlink:href="#md260d726df" x="571.651098" y="139.773913" style="stroke: #000000; stroke-width: 0.8"/>
      </g>
     </g>
    </g>
   </g>
   <g id="matplotlib.axis_4">
    <g id="ytick_4">
     <g id="line2d_26">
      <g>
       <use xlink:href="#m952616286a" x="36.465625" y="137.034783" style="stroke: #000000; stroke-width: 0.8"/>
      </g>
     </g>
     <g id="text_6">
      <!-- 0.00 -->
      <g transform="translate(7.2 140.834001) scale(0.1 -0.1)">
       <use xlink:href="#DejaVuSans-30"/>
       <use xlink:href="#DejaVuSans-2e" x="63.623047"/>
       <use xlink:href="#DejaVuSans-30" x="95.410156"/>
       <use xlink:href="#DejaVuSans-30" x="159.033203"/>
      </g>
     </g>
    </g>
    <g id="ytick_5">
     <g id="line2d_27">
      <g>
       <use xlink:href="#m952616286a" x="36.465625" y="114.116214" style="stroke: #000000; stroke-width: 0.8"/>
      </g>
     </g>
     <g id="text_7">
      <!-- 0.05 -->
      <g transform="translate(7.2 117.915432) scale(0.1 -0.1)">
       <defs>
        <path id="DejaVuSans-35" d="M 691 4666 
L 3169 4666 
L 3169 4134 
L 1269 4134 
L 1269 2991 
Q 1406 3038 1543 3061 
Q 1681 3084 1819 3084 
Q 2600 3084 3056 2656 
Q 3513 2228 3513 1497 
Q 3513 744 3044 326 
Q 2575 -91 1722 -91 
Q 1428 -91 1123 -41 
Q 819 9 494 109 
L 494 744 
Q 775 591 1075 516 
Q 1375 441 1709 441 
Q 2250 441 2565 725 
Q 2881 1009 2881 1497 
Q 2881 1984 2565 2268 
Q 2250 2553 1709 2553 
Q 1456 2553 1204 2497 
Q 953 2441 691 2322 
L 691 4666 
z
" transform="scale(0.015625)"/>
       </defs>
       <use xlink:href="#DejaVuSans-30"/>
       <use xlink:href="#DejaVuSans-2e" x="63.623047"/>
       <use xlink:href="#DejaVuSans-30" x="95.410156"/>
       <use xlink:href="#DejaVuSans-35" x="159.033203"/>
      </g>
     </g>
    </g>
    <g id="ytick_6">
     <g id="line2d_28">
      <g>
       <use xlink:href="#m952616286a" x="36.465625" y="91.197645" style="stroke: #000000; stroke-width: 0.8"/>
      </g>
     </g>
     <g id="text_8">
      <!-- 0.10 -->
      <g transform="translate(7.2 94.996863) scale(0.1 -0.1)">
       <use xlink:href="#DejaVuSans-30"/>
       <use xlink:href="#DejaVuSans-2e" x="63.623047"/>
       <use xlink:href="#DejaVuSans-31" x="95.410156"/>
       <use xlink:href="#DejaVuSans-30" x="159.033203"/>
      </g>
     </g>
    </g>
   </g>
   <g id="line2d_29">
    <path d="M 61.829261 137.034783 
L 64.378371 99.825145 
L 66.92748 82.252174 
L 69.476589 95.919291 
L 72.025698 88.761267 
L 74.574807 97.263539 
L 77.123916 111.620113 
L 79.673026 99.33585 
L 82.222135 94.357397 
L 84.771244 109.672209 
L 87.320353 114.926273 
L 89.869462 112.6539 
L 92.418572 116.175634 
L 94.967681 130.788216 
L 97.51679 119.52438 
L 100.065899 122.059384 
L 102.615008 122.605103 
L 105.164117 125.53736 
L 107.713227 123.124553 
L 110.262336 125.330755 
L 112.811445 121.396238 
L 115.360554 121.105286 
L 117.909663 125.886374 
L 120.458773 122.561652 
L 123.007882 123.322198 
L 125.556991 130.755944 
L 128.1061 123.099292 
L 130.655209 126.209225 
L 133.204318 128.192721 
L 135.753428 127.604452 
L 138.302537 126.034913 
L 140.851646 127.291537 
L 143.400755 128.096646 
L 145.949864 126.430386 
L 148.498974 126.526476 
L 151.048083 125.986421 
L 153.597192 127.341784 
L 156.146301 127.36522 
L 158.69541 126.989761 
L 161.244519 130.181909 
L 163.793629 128.920599 
L 166.342738 128.009721 
L 168.891847 129.503908 
L 171.440956 128.514409 
L 173.990065 127.884956 
L 176.539175 126.892559 
L 179.088284 130.451674 
L 181.637393 129.011902 
L 184.186502 127.21521 
L 186.735611 128.867531 
L 189.28472 129.621914 
L 191.83383 129.227194 
L 194.382939 127.131219 
L 196.932048 129.282665 
L 199.481157 129.751601 
L 202.030266 130.512096 
L 204.579376 129.817244 
L 207.128485 131.198954 
L 209.677594 130.100515 
L 212.226703 127.371493 
L 214.775812 129.39458 
L 217.324921 132.106146 
L 219.874031 130.666282 
L 222.42314 129.826635 
L 224.972249 130.795436 
L 227.521358 129.734499 
L 230.070467 130.639536 
L 232.619577 131.025518 
L 235.168686 129.919065 
L 237.717795 129.994153 
L 240.266904 129.584132 
L 242.816013 130.699892 
L 245.365122 131.22625 
L 247.914232 129.683941 
L 250.463341 131.486983 
L 253.01245 131.898602 
L 255.561559 129.981032 
L 258.110668 130.582739 
L 260.659778 130.212526 
L 263.208887 131.205407 
L 265.757996 129.543034 
L 268.307105 130.512538 
L 270.856214 130.100668 
L 273.405323 130.478194 
L 275.954433 131.489677 
L 278.503542 130.085114 
L 281.052651 132.11729 
L 283.60176 131.612135 
L 288.699979 131.329339 
L 293.798197 131.19934 
L 296.347306 130.770941 
L 298.896415 131.738698 
L 301.445524 130.805727 
L 303.994634 131.351219 
L 306.543743 131.39923 
L 309.092852 130.606267 
L 311.641961 130.263652 
L 314.19107 130.387213 
L 316.74018 131.403099 
L 319.289289 131.223667 
L 321.838398 131.223292 
L 324.387507 132.041322 
L 326.936616 130.652739 
L 329.485726 131.3403 
L 332.034835 131.535006 
L 334.583944 131.58593 
L 337.133053 130.488817 
L 339.682162 131.932126 
L 342.231271 131.013198 
L 344.780381 130.93372 
L 347.32949 131.701953 
L 349.878599 130.975918 
L 357.525927 131.29157 
L 360.075036 131.802045 
L 362.624145 131.317448 
L 365.173254 131.582487 
L 367.722363 131.439159 
L 370.271472 131.803093 
L 372.820582 131.22385 
L 380.467909 131.562945 
L 383.017018 131.6101 
L 385.566128 131.069171 
L 388.115237 131.883251 
L 390.664346 131.560702 
L 393.213455 131.359881 
L 395.762564 131.428387 
L 398.311673 131.221087 
L 400.860783 131.802328 
L 403.409892 132.245472 
L 405.959001 131.745985 
L 408.50811 131.803003 
L 411.057219 131.597079 
L 413.606329 131.614865 
L 416.155438 131.069606 
L 418.704547 131.552923 
L 421.253656 131.6934 
L 423.802765 131.602976 
L 426.351874 132.033719 
L 428.900984 132.110181 
L 431.450093 131.549868 
L 433.999202 131.199413 
L 436.548311 131.910721 
L 439.09742 132.00398 
L 441.64653 132.326171 
L 444.195639 131.513429 
L 446.744748 131.659058 
L 449.293857 131.935117 
L 451.842966 131.342274 
L 454.392075 131.413509 
L 456.941185 131.635566 
L 459.490294 131.377291 
L 462.039403 131.89029 
L 464.588512 131.906582 
L 467.137621 131.689383 
L 472.23584 131.440139 
L 474.784949 132.12109 
L 477.334058 131.780519 
L 482.432276 131.978223 
L 484.981386 132.060003 
L 487.530495 131.865235 
L 492.628713 132.066625 
L 495.177822 131.773764 
L 497.726932 132.410826 
L 500.276041 131.561447 
L 502.82515 132.190941 
L 505.374259 131.926078 
L 510.472477 131.667263 
L 520.668914 132.324191 
L 523.218023 131.662237 
L 525.767133 131.520734 
L 528.316242 131.930119 
L 530.865351 131.626738 
L 533.41446 131.877036 
L 535.963569 131.860276 
L 541.061788 132.357789 
L 543.610897 131.880373 
L 546.160006 131.64822 
L 548.709115 132.070514 
L 551.258224 131.871316 
L 553.807334 131.789073 
L 556.356443 132.16516 
L 561.454661 131.799419 
L 566.552879 132.066061 
L 569.101989 132.022532 
L 569.101989 132.022532 
" clip-path="url(#p9727f17049)" style="fill: none; stroke: #1f77b4; stroke-width: 1.5; stroke-linecap: square"/>
   </g>
   <g id="line2d_30">
    <path d="M 61.829261 132.451069 
L 569.101989 132.451069 
L 569.101989 132.451069 
" clip-path="url(#p9727f17049)" style="fill: none; stroke-dasharray: 5.55,2.4; stroke-dashoffset: 0; stroke: #000000; stroke-width: 1.5"/>
   </g>
   <g id="patch_9">
    <path d="M 36.465625 139.773913 
L 36.465625 79.513043 
" style="fill: none; stroke: #000000; stroke-width: 0.8; stroke-linejoin: miter; stroke-linecap: square"/>
   </g>
   <g id="patch_10">
    <path d="M 594.465625 139.773913 
L 594.465625 79.513043 
" style="fill: none; stroke: #000000; stroke-width: 0.8; stroke-linejoin: miter; stroke-linecap: square"/>
   </g>
   <g id="patch_11">
    <path d="M 36.465625 139.773913 
L 594.465625 139.773913 
" style="fill: none; stroke: #000000; stroke-width: 0.8; stroke-linejoin: miter; stroke-linecap: square"/>
   </g>
   <g id="patch_12">
    <path d="M 36.465625 79.513043 
L 594.465625 79.513043 
" style="fill: none; stroke: #000000; stroke-width: 0.8; stroke-linejoin: miter; stroke-linecap: square"/>
   </g>
   <g id="legend_2">
    <g id="patch_13">
     <path d="M 510.165625 118.511481 
L 587.465625 118.511481 
Q 589.465625 118.511481 589.465625 116.511481 
L 589.465625 86.513043 
Q 589.465625 84.513043 587.465625 84.513043 
L 510.165625 84.513043 
Q 508.165625 84.513043 508.165625 86.513043 
L 508.165625 116.511481 
Q 508.165625 118.511481 510.165625 118.511481 
z
" style="fill: #ffffff; opacity: 0.8; stroke: #cccccc; stroke-linejoin: miter"/>
    </g>
    <g id="line2d_31">
     <path d="M 512.165625 94.213043 
L 522.165625 94.213043 
L 532.165625 94.213043 
" style="fill: none; stroke: #1f77b4; stroke-width: 1.5; stroke-linecap: square"/>
    </g>
    <g id="text_9">
     <!-- $\hat\gamma_I$ -->
     <g transform="translate(540.165625 97.713043) scale(0.1 -0.1)">
      <defs>
       <path id="DejaVuSans-Oblique-3b3" d="M 1491 2950 
L 1838 788 
L 3456 3500 
L 4066 3500 
L 1972 0 
L 1713 -1331 
L 1138 -1331 
L 1397 0 
L 988 2613 
Q 925 3006 628 3006 
L 475 3006 
L 569 3500 
L 788 3500 
Q 1403 3500 1491 2950 
z
" transform="scale(0.015625)"/>
       <path id="DejaVuSans-Oblique-49" d="M 1081 4666 
L 1716 4666 
L 806 0 
L 172 0 
L 1081 4666 
z
" transform="scale(0.015625)"/>
      </defs>
      <use xlink:href="#DejaVuSans-302" transform="translate(59.601562 12.015625)"/>
      <use xlink:href="#DejaVuSans-Oblique-3b3" transform="translate(0 0.828125)"/>
      <use xlink:href="#DejaVuSans-Oblique-49" transform="translate(60.136719 -15.578125) scale(0.7)"/>
     </g>
    </g>
    <g id="line2d_32">
     <path d="M 512.165625 108.911481 
L 522.165625 108.911481 
L 532.165625 108.911481 
" style="fill: none; stroke-dasharray: 5.55,2.4; stroke-dashoffset: 0; stroke: #000000; stroke-width: 1.5"/>
    </g>
    <g id="text_10">
     <!-- $\gamma_I$ = 0.01 -->
     <g transform="translate(540.165625 112.411481) scale(0.1 -0.1)">
      <use xlink:href="#DejaVuSans-Oblique-3b3" transform="translate(0 0.78125)"/>
      <use xlink:href="#DejaVuSans-Oblique-49" transform="translate(59.179688 -15.625) scale(0.7)"/>
      <use xlink:href="#DejaVuSans-20" transform="translate(82.558594 0.78125)"/>
      <use xlink:href="#DejaVuSans-3d" transform="translate(114.345703 0.78125)"/>
      <use xlink:href="#DejaVuSans-20" transform="translate(198.134766 0.78125)"/>
      <use xlink:href="#DejaVuSans-30" transform="translate(229.921875 0.78125)"/>
      <use xlink:href="#DejaVuSans-2e" transform="translate(293.544922 0.78125)"/>
      <use xlink:href="#DejaVuSans-30" transform="translate(325.332031 0.78125)"/>
      <use xlink:href="#DejaVuSans-31" transform="translate(388.955078 0.78125)"/>
     </g>
    </g>
   </g>
  </g>
  <g id="axes_3">
   <g id="patch_14">
    <path d="M 36.465625 212.086957 
L 594.465625 212.086957 
L 594.465625 151.826087 
L 36.465625 151.826087 
z
" style="fill: #ffffff"/>
   </g>
   <g id="matplotlib.axis_5">
    <g id="xtick_19">
     <g id="line2d_33">
      <g>
       <use xlink:href="#md260d726df" x="61.829261" y="212.086957" style="stroke: #000000; stroke-width: 0.8"/>
      </g>
     </g>
    </g>
    <g id="xtick_20">
     <g id="line2d_34">
      <g>
       <use xlink:href="#md260d726df" x="125.556991" y="212.086957" style="stroke: #000000; stroke-width: 0.8"/>
      </g>
     </g>
    </g>
    <g id="xtick_21">
     <g id="line2d_35">
      <g>
       <use xlink:href="#md260d726df" x="189.28472" y="212.086957" style="stroke: #000000; stroke-width: 0.8"/>
      </g>
     </g>
    </g>
    <g id="xtick_22">
     <g id="line2d_36">
      <g>
       <use xlink:href="#md260d726df" x="253.01245" y="212.086957" style="stroke: #000000; stroke-width: 0.8"/>
      </g>
     </g>
    </g>
    <g id="xtick_23">
     <g id="line2d_37">
      <g>
       <use xlink:href="#md260d726df" x="316.74018" y="212.086957" style="stroke: #000000; stroke-width: 0.8"/>
      </g>
     </g>
    </g>
    <g id="xtick_24">
     <g id="line2d_38">
      <g>
       <use xlink:href="#md260d726df" x="380.467909" y="212.086957" style="stroke: #000000; stroke-width: 0.8"/>
      </g>
     </g>
    </g>
    <g id="xtick_25">
     <g id="line2d_39">
      <g>
       <use xlink:href="#md260d726df" x="444.195639" y="212.086957" style="stroke: #000000; stroke-width: 0.8"/>
      </g>
     </g>
    </g>
    <g id="xtick_26">
     <g id="line2d_40">
      <g>
       <use xlink:href="#md260d726df" x="507.923368" y="212.086957" style="stroke: #000000; stroke-width: 0.8"/>
      </g>
     </g>
    </g>
    <g id="xtick_27">
     <g id="line2d_41">
      <g>
       <use xlink:href="#md260d726df" x="571.651098" y="212.086957" style="stroke: #000000; stroke-width: 0.8"/>
      </g>
     </g>
    </g>
   </g>
   <g id="matplotlib.axis_6">
    <g id="ytick_7">
     <g id="line2d_42">
      <g>
       <use xlink:href="#m952616286a" x="36.465625" y="209.347826" style="stroke: #000000; stroke-width: 0.8"/>
      </g>
     </g>
     <g id="text_11">
      <!-- 0.00 -->
      <g transform="translate(7.2 213.147045) scale(0.1 -0.1)">
       <use xlink:href="#DejaVuSans-30"/>
       <use xlink:href="#DejaVuSans-2e" x="63.623047"/>
       <use xlink:href="#DejaVuSans-30" x="95.410156"/>
       <use xlink:href="#DejaVuSans-30" x="159.033203"/>
      </g>
     </g>
    </g>
    <g id="ytick_8">
     <g id="line2d_43">
      <g>
       <use xlink:href="#m952616286a" x="36.465625" y="171.916723" style="stroke: #000000; stroke-width: 0.8"/>
      </g>
     </g>
     <g id="text_12">
      <!-- 0.05 -->
      <g transform="translate(7.2 175.715942) scale(0.1 -0.1)">
       <use xlink:href="#DejaVuSans-30"/>
       <use xlink:href="#DejaVuSans-2e" x="63.623047"/>
       <use xlink:href="#DejaVuSans-30" x="95.410156"/>
       <use xlink:href="#DejaVuSans-35" x="159.033203"/>
      </g>
     </g>
    </g>
   </g>
   <g id="line2d_44">
    <path d="M 61.829261 209.347826 
L 64.378371 154.565217 
L 66.92748 183.265813 
L 69.476589 186.468603 
L 72.025698 196.854211 
L 74.574807 198.940913 
L 77.123916 196.042877 
L 79.673026 203.34158 
L 82.222135 208.548365 
L 84.771244 205.305135 
L 87.320353 204.730772 
L 89.869462 206.706776 
L 92.418572 206.478888 
L 94.967681 201.651413 
L 97.51679 205.85806 
L 100.065899 205.454756 
L 102.615008 205.643891 
L 105.164117 204.911747 
L 107.713227 205.98839 
L 110.262336 205.488091 
L 112.811445 207.088376 
L 115.360554 207.532949 
L 117.909663 206.19467 
L 120.458773 207.513705 
L 123.007882 207.518598 
L 125.556991 205.20649 
L 128.1061 207.811551 
L 130.655209 206.98678 
L 133.204318 206.45432 
L 135.753428 206.724982 
L 138.302537 207.33077 
L 140.851646 207.043664 
L 143.400755 206.873503 
L 145.949864 207.481677 
L 148.498974 207.556218 
L 151.048083 207.828406 
L 153.597192 207.510142 
L 156.146301 207.582777 
L 158.69541 207.776928 
L 161.244519 206.875994 
L 166.342738 207.607857 
L 168.891847 207.217511 
L 176.539175 208.130123 
L 179.088284 207.16335 
L 181.637393 207.597738 
L 184.186502 208.14977 
L 186.735611 207.740871 
L 189.28472 207.566467 
L 191.83383 207.704364 
L 194.382939 208.315733 
L 196.932048 207.781522 
L 202.030266 207.503776 
L 204.579376 207.704626 
L 207.128485 207.362195 
L 209.677594 207.657641 
L 212.226703 208.383134 
L 214.775812 207.907922 
L 217.324921 207.24351 
L 219.874031 207.605411 
L 222.42314 207.826642 
L 224.972249 207.60681 
L 227.521358 207.876233 
L 230.070467 207.67652 
L 232.619577 207.595716 
L 235.168686 207.865502 
L 237.717795 207.864044 
L 240.266904 207.9741 
L 242.816013 207.736468 
L 245.365122 207.627185 
L 247.914232 207.978543 
L 250.463341 207.595313 
L 253.01245 207.509617 
L 255.561559 207.926202 
L 258.110668 207.810434 
L 260.659778 207.897877 
L 263.208887 207.70151 
L 265.757996 208.050103 
L 268.307105 207.866338 
L 270.856214 207.958087 
L 273.405323 207.893506 
L 275.954433 207.703124 
L 278.503542 207.979548 
L 281.052651 207.599614 
L 286.150869 207.731677 
L 296.347306 207.866936 
L 298.896415 207.702963 
L 301.445524 207.866429 
L 306.543743 207.773802 
L 311.641961 207.970388 
L 314.19107 207.956929 
L 316.74018 207.800865 
L 321.838398 207.835186 
L 324.387507 207.713221 
L 326.936616 207.923472 
L 332.034835 207.799881 
L 334.583944 207.794599 
L 337.133053 207.952735 
L 339.682162 207.754666 
L 342.231271 207.882756 
L 344.780381 207.896667 
L 347.32949 207.79669 
L 352.427708 207.88074 
L 370.271472 207.80761 
L 375.369691 207.861925 
L 413.606329 207.850711 
L 418.704547 207.859075 
L 441.64653 207.805838 
L 446.744748 207.854654 
L 456.941185 207.858951 
L 472.23584 207.872838 
L 479.883167 207.851453 
L 520.668914 207.833894 
L 533.41446 207.852558 
L 569.101989 207.850136 
L 569.101989 207.850136 
" clip-path="url(#p072911dcd9)" style="fill: none; stroke: #1f77b4; stroke-width: 1.5; stroke-linecap: square"/>
   </g>
   <g id="line2d_45">
    <path d="M 61.829261 207.850582 
L 569.101989 207.850582 
L 569.101989 207.850582 
" clip-path="url(#p072911dcd9)" style="fill: none; stroke-dasharray: 5.55,2.4; stroke-dashoffset: 0; stroke: #000000; stroke-width: 1.5"/>
   </g>
   <g id="patch_15">
    <path d="M 36.465625 212.086957 
L 36.465625 151.826087 
" style="fill: none; stroke: #000000; stroke-width: 0.8; stroke-linejoin: miter; stroke-linecap: square"/>
   </g>
   <g id="patch_16">
    <path d="M 594.465625 212.086957 
L 594.465625 151.826087 
" style="fill: none; stroke: #000000; stroke-width: 0.8; stroke-linejoin: miter; stroke-linecap: square"/>
   </g>
   <g id="patch_17">
    <path d="M 36.465625 212.086957 
L 594.465625 212.086957 
" style="fill: none; stroke: #000000; stroke-width: 0.8; stroke-linejoin: miter; stroke-linecap: square"/>
   </g>
   <g id="patch_18">
    <path d="M 36.465625 151.826087 
L 594.465625 151.826087 
" style="fill: none; stroke: #000000; stroke-width: 0.8; stroke-linejoin: miter; stroke-linecap: square"/>
   </g>
   <g id="legend_3">
    <g id="patch_19">
     <path d="M 503.365625 190.824524 
L 587.465625 190.824524 
Q 589.465625 190.824524 589.465625 188.824524 
L 589.465625 158.826087 
Q 589.465625 156.826087 587.465625 156.826087 
L 503.365625 156.826087 
Q 501.365625 156.826087 501.365625 158.826087 
L 501.365625 188.824524 
Q 501.365625 190.824524 503.365625 190.824524 
z
" style="fill: #ffffff; opacity: 0.8; stroke: #cccccc; stroke-linejoin: miter"/>
    </g>
    <g id="line2d_46">
     <path d="M 505.365625 166.526087 
L 515.365625 166.526087 
L 525.365625 166.526087 
" style="fill: none; stroke: #1f77b4; stroke-width: 1.5; stroke-linecap: square"/>
    </g>
    <g id="text_13">
     <!-- $\hat\mu_I$ -->
     <g transform="translate(533.365625 170.026087) scale(0.1 -0.1)">
      <defs>
       <path id="DejaVuSans-Oblique-3bc" d="M -84 -1331 
L 856 3500 
L 1434 3500 
L 1009 1322 
Q 997 1256 987 1175 
Q 978 1094 978 1013 
Q 978 722 1161 565 
Q 1344 409 1684 409 
Q 2147 409 2431 671 
Q 2716 934 2816 1459 
L 3213 3500 
L 3788 3500 
L 3266 809 
Q 3253 750 3248 706 
Q 3244 663 3244 628 
Q 3244 531 3283 486 
Q 3322 441 3406 441 
Q 3438 441 3492 456 
Q 3547 472 3647 513 
L 3559 50 
Q 3422 -19 3297 -55 
Q 3172 -91 3053 -91 
Q 2847 -91 2730 40 
Q 2613 172 2613 403 
Q 2438 153 2195 31 
Q 1953 -91 1625 -91 
Q 1334 -91 1117 43 
Q 900 178 831 397 
L 494 -1331 
L -84 -1331 
z
" transform="scale(0.015625)"/>
      </defs>
      <use xlink:href="#DejaVuSans-302" transform="translate(62.699219 12.015625)"/>
      <use xlink:href="#DejaVuSans-Oblique-3bc" transform="translate(0 0.828125)"/>
      <use xlink:href="#DejaVuSans-Oblique-49" transform="translate(64.580078 -15.578125) scale(0.7)"/>
     </g>
    </g>
    <g id="line2d_47">
     <path d="M 505.365625 181.224524 
L 515.365625 181.224524 
L 525.365625 181.224524 
" style="fill: none; stroke-dasharray: 5.55,2.4; stroke-dashoffset: 0; stroke: #000000; stroke-width: 1.5"/>
    </g>
    <g id="text_14">
     <!-- $\mu_I$ = 0.002 -->
     <g transform="translate(533.365625 184.724524) scale(0.1 -0.1)">
      <use xlink:href="#DejaVuSans-Oblique-3bc" transform="translate(0 0.78125)"/>
      <use xlink:href="#DejaVuSans-Oblique-49" transform="translate(63.623047 -15.625) scale(0.7)"/>
      <use xlink:href="#DejaVuSans-20" transform="translate(87.001953 0.78125)"/>
      <use xlink:href="#DejaVuSans-3d" transform="translate(118.789062 0.78125)"/>
      <use xlink:href="#DejaVuSans-20" transform="translate(202.578125 0.78125)"/>
      <use xlink:href="#DejaVuSans-30" transform="translate(234.365234 0.78125)"/>
      <use xlink:href="#DejaVuSans-2e" transform="translate(297.988281 0.78125)"/>
      <use xlink:href="#DejaVuSans-30" transform="translate(329.775391 0.78125)"/>
      <use xlink:href="#DejaVuSans-30" transform="translate(393.398438 0.78125)"/>
      <use xlink:href="#DejaVuSans-32" transform="translate(457.021484 0.78125)"/>
     </g>
    </g>
   </g>
  </g>
  <g id="axes_4">
   <g id="patch_20">
    <path d="M 36.465625 284.4 
L 594.465625 284.4 
L 594.465625 224.13913 
L 36.465625 224.13913 
z
" style="fill: #ffffff"/>
   </g>
   <g id="matplotlib.axis_7">
    <g id="xtick_28">
     <g id="line2d_48">
      <g>
       <use xlink:href="#md260d726df" x="61.829261" y="284.4" style="stroke: #000000; stroke-width: 0.8"/>
      </g>
     </g>
     <g id="text_15">
      <!-- 0 -->
      <g transform="translate(58.648011 298.998438) scale(0.1 -0.1)">
       <use xlink:href="#DejaVuSans-30"/>
      </g>
     </g>
    </g>
    <g id="xtick_29">
     <g id="line2d_49">
      <g>
       <use xlink:href="#md260d726df" x="125.556991" y="284.4" style="stroke: #000000; stroke-width: 0.8"/>
      </g>
     </g>
     <g id="text_16">
      <!-- 25 -->
      <g transform="translate(119.194491 298.998438) scale(0.1 -0.1)">
       <use xlink:href="#DejaVuSans-32"/>
       <use xlink:href="#DejaVuSans-35" x="63.623047"/>
      </g>
     </g>
    </g>
    <g id="xtick_30">
     <g id="line2d_50">
      <g>
       <use xlink:href="#md260d726df" x="189.28472" y="284.4" style="stroke: #000000; stroke-width: 0.8"/>
      </g>
     </g>
     <g id="text_17">
      <!-- 50 -->
      <g transform="translate(182.92222 298.998438) scale(0.1 -0.1)">
       <use xlink:href="#DejaVuSans-35"/>
       <use xlink:href="#DejaVuSans-30" x="63.623047"/>
      </g>
     </g>
    </g>
    <g id="xtick_31">
     <g id="line2d_51">
      <g>
       <use xlink:href="#md260d726df" x="253.01245" y="284.4" style="stroke: #000000; stroke-width: 0.8"/>
      </g>
     </g>
     <g id="text_18">
      <!-- 75 -->
      <g transform="translate(246.64995 298.998438) scale(0.1 -0.1)">
       <defs>
        <path id="DejaVuSans-37" d="M 525 4666 
L 3525 4666 
L 3525 4397 
L 1831 0 
L 1172 0 
L 2766 4134 
L 525 4134 
L 525 4666 
z
" transform="scale(0.015625)"/>
       </defs>
       <use xlink:href="#DejaVuSans-37"/>
       <use xlink:href="#DejaVuSans-35" x="63.623047"/>
      </g>
     </g>
    </g>
    <g id="xtick_32">
     <g id="line2d_52">
      <g>
       <use xlink:href="#md260d726df" x="316.74018" y="284.4" style="stroke: #000000; stroke-width: 0.8"/>
      </g>
     </g>
     <g id="text_19">
      <!-- 100 -->
      <g transform="translate(307.19643 298.998438) scale(0.1 -0.1)">
       <use xlink:href="#DejaVuSans-31"/>
       <use xlink:href="#DejaVuSans-30" x="63.623047"/>
       <use xlink:href="#DejaVuSans-30" x="127.246094"/>
      </g>
     </g>
    </g>
    <g id="xtick_33">
     <g id="line2d_53">
      <g>
       <use xlink:href="#md260d726df" x="380.467909" y="284.4" style="stroke: #000000; stroke-width: 0.8"/>
      </g>
     </g>
     <g id="text_20">
      <!-- 125 -->
      <g transform="translate(370.924159 298.998438) scale(0.1 -0.1)">
       <use xlink:href="#DejaVuSans-31"/>
       <use xlink:href="#DejaVuSans-32" x="63.623047"/>
       <use xlink:href="#DejaVuSans-35" x="127.246094"/>
      </g>
     </g>
    </g>
    <g id="xtick_34">
     <g id="line2d_54">
      <g>
       <use xlink:href="#md260d726df" x="444.195639" y="284.4" style="stroke: #000000; stroke-width: 0.8"/>
      </g>
     </g>
     <g id="text_21">
      <!-- 150 -->
      <g transform="translate(434.651889 298.998438) scale(0.1 -0.1)">
       <use xlink:href="#DejaVuSans-31"/>
       <use xlink:href="#DejaVuSans-35" x="63.623047"/>
       <use xlink:href="#DejaVuSans-30" x="127.246094"/>
      </g>
     </g>
    </g>
    <g id="xtick_35">
     <g id="line2d_55">
      <g>
       <use xlink:href="#md260d726df" x="507.923368" y="284.4" style="stroke: #000000; stroke-width: 0.8"/>
      </g>
     </g>
     <g id="text_22">
      <!-- 175 -->
      <g transform="translate(498.379618 298.998438) scale(0.1 -0.1)">
       <use xlink:href="#DejaVuSans-31"/>
       <use xlink:href="#DejaVuSans-37" x="63.623047"/>
       <use xlink:href="#DejaVuSans-35" x="127.246094"/>
      </g>
     </g>
    </g>
    <g id="xtick_36">
     <g id="line2d_56">
      <g>
       <use xlink:href="#md260d726df" x="571.651098" y="284.4" style="stroke: #000000; stroke-width: 0.8"/>
      </g>
     </g>
     <g id="text_23">
      <!-- 200 -->
      <g transform="translate(562.107348 298.998438) scale(0.1 -0.1)">
       <use xlink:href="#DejaVuSans-32"/>
       <use xlink:href="#DejaVuSans-30" x="63.623047"/>
       <use xlink:href="#DejaVuSans-30" x="127.246094"/>
      </g>
     </g>
    </g>
   </g>
   <g id="matplotlib.axis_8">
    <g id="ytick_9">
     <g id="line2d_57">
      <g>
       <use xlink:href="#m952616286a" x="36.465625" y="281.38728" style="stroke: #000000; stroke-width: 0.8"/>
      </g>
     </g>
     <g id="text_24">
      <!-- 0 -->
      <g transform="translate(23.103125 285.186499) scale(0.1 -0.1)">
       <use xlink:href="#DejaVuSans-30"/>
      </g>
     </g>
    </g>
    <g id="ytick_10">
     <g id="line2d_58">
      <g>
       <use xlink:href="#m952616286a" x="36.465625" y="245.857054" style="stroke: #000000; stroke-width: 0.8"/>
      </g>
     </g>
     <g id="text_25">
      <!-- 10 -->
      <g transform="translate(16.740625 249.656273) scale(0.1 -0.1)">
       <use xlink:href="#DejaVuSans-31"/>
       <use xlink:href="#DejaVuSans-30" x="63.623047"/>
      </g>
     </g>
    </g>
   </g>
   <g id="line2d_59">
    <path d="M 61.829261 281.38728 
L 64.378371 281.38728 
L 66.92748 226.878261 
L 69.476589 263.210724 
L 72.025698 262.282187 
L 77.123916 277.16426 
L 79.673026 273.533538 
L 82.222135 272.840452 
L 84.771244 277.263139 
L 87.320353 278.686537 
L 89.869462 278.412291 
L 92.418572 279.198128 
L 94.967681 281.66087 
L 97.51679 279.977795 
L 100.065899 280.387088 
L 102.615008 280.497014 
L 105.164117 280.88244 
L 107.713227 280.627218 
L 110.262336 280.887614 
L 112.811445 280.504903 
L 115.360554 280.502602 
L 117.909663 280.965093 
L 120.458773 280.685014 
L 123.007882 280.766182 
L 125.556991 281.378663 
L 128.1061 280.786891 
L 133.204318 281.180956 
L 140.851646 281.131245 
L 143.400755 281.186365 
L 148.498974 281.098244 
L 153.597192 281.152416 
L 158.69541 281.140065 
L 161.244519 281.31018 
L 166.342738 281.202924 
L 168.891847 281.278111 
L 176.539175 281.160523 
L 179.088284 281.323326 
L 184.186502 281.183362 
L 189.28472 281.288659 
L 199.481157 281.296017 
L 209.677594 281.312161 
L 212.226703 281.212508 
L 219.874031 281.333685 
L 227.521358 281.302656 
L 235.168686 281.310457 
L 383.017018 281.365252 
L 400.860783 281.36978 
L 428.900984 281.376822 
L 454.392075 281.361262 
L 520.668914 281.381275 
L 538.512678 281.377463 
L 569.101989 281.374784 
L 569.101989 281.374784 
" clip-path="url(#p4dedfe1607)" style="fill: none; stroke: #1f77b4; stroke-width: 1.5; stroke-linecap: square"/>
   </g>
   <g id="line2d_60">
    <path d="M 61.829261 281.383727 
L 569.101989 281.383727 
L 569.101989 281.383727 
" clip-path="url(#p4dedfe1607)" style="fill: none; stroke-dasharray: 5.55,2.4; stroke-dashoffset: 0; stroke: #000000; stroke-width: 1.5"/>
   </g>
   <g id="patch_21">
    <path d="M 36.465625 284.4 
L 36.465625 224.13913 
" style="fill: none; stroke: #000000; stroke-width: 0.8; stroke-linejoin: miter; stroke-linecap: square"/>
   </g>
   <g id="patch_22">
    <path d="M 594.465625 284.4 
L 594.465625 224.13913 
" style="fill: none; stroke: #000000; stroke-width: 0.8; stroke-linejoin: miter; stroke-linecap: square"/>
   </g>
   <g id="patch_23">
    <path d="M 36.465625 284.4 
L 594.465625 284.4 
" style="fill: none; stroke: #000000; stroke-width: 0.8; stroke-linejoin: miter; stroke-linecap: square"/>
   </g>
   <g id="patch_24">
    <path d="M 36.465625 224.13913 
L 594.465625 224.13913 
" style="fill: none; stroke: #000000; stroke-width: 0.8; stroke-linejoin: miter; stroke-linecap: square"/>
   </g>
   <g id="legend_4">
    <g id="patch_25">
     <path d="M 505.965625 263.117255 
L 587.465625 263.117255 
Q 589.465625 263.117255 589.465625 261.117255 
L 589.465625 231.13913 
Q 589.465625 229.13913 587.465625 229.13913 
L 505.965625 229.13913 
Q 503.965625 229.13913 503.965625 231.13913 
L 503.965625 261.117255 
Q 503.965625 263.117255 505.965625 263.117255 
z
" style="fill: #ffffff; opacity: 0.8; stroke: #cccccc; stroke-linejoin: miter"/>
    </g>
    <g id="line2d_61">
     <path d="M 507.965625 238.859443 
L 517.965625 238.859443 
L 527.965625 238.859443 
" style="fill: none; stroke: #1f77b4; stroke-width: 1.5; stroke-linecap: square"/>
    </g>
    <g id="text_26">
     <!-- $\hat\delta$ -->
     <g transform="translate(535.965625 242.359443) scale(0.1 -0.1)">
      <defs>
       <path id="DejaVuSans-Oblique-3b4" d="M 3472 4053 
Q 3197 4272 2450 4272 
Q 1659 4272 1588 3906 
Q 1531 3619 2328 3469 
Q 2953 3353 3253 3003 
Q 3616 2581 3447 1716 
Q 3284 888 2763 400 
Q 2238 -91 1488 -91 
Q 741 -91 406 400 
Q 72 888 241 1747 
Q 363 2384 891 2900 
Q 1097 3100 1353 3213 
Q 913 3459 1000 3900 
Q 1166 4750 2544 4750 
Q 3234 4750 3566 4531 
L 3472 4053 
z
M 1753 3056 
Q 1525 2966 1306 2738 
Q 969 2384 847 1747 
Q 722 1113 919 756 
Q 1119 397 1584 397 
Q 2044 397 2381 759 
Q 2722 1122 2838 1716 
Q 2956 2338 2731 2638 
Q 2491 2959 2103 2994 
Q 1906 3013 1753 3056 
z
" transform="scale(0.015625)"/>
      </defs>
      <use xlink:href="#DejaVuSans-302" transform="translate(59.417969 31.015625)"/>
      <use xlink:href="#DejaVuSans-Oblique-3b4" transform="translate(0 0.296875)"/>
     </g>
    </g>
    <g id="line2d_62">
     <path d="M 507.965625 253.537568 
L 517.965625 253.537568 
L 527.965625 253.537568 
" style="fill: none; stroke-dasharray: 5.55,2.4; stroke-dashoffset: 0; stroke: #000000; stroke-width: 1.5"/>
    </g>
    <g id="text_27">
     <!-- $\delta$ = 0.001 -->
     <g transform="translate(535.965625 257.037568) scale(0.1 -0.1)">
      <use xlink:href="#DejaVuSans-Oblique-3b4" transform="translate(0 0.78125)"/>
      <use xlink:href="#DejaVuSans-20" transform="translate(61.181641 0.78125)"/>
      <use xlink:href="#DejaVuSans-3d" transform="translate(92.96875 0.78125)"/>
      <use xlink:href="#DejaVuSans-20" transform="translate(176.757812 0.78125)"/>
      <use xlink:href="#DejaVuSans-30" transform="translate(208.544922 0.78125)"/>
      <use xlink:href="#DejaVuSans-2e" transform="translate(272.167969 0.78125)"/>
      <use xlink:href="#DejaVuSans-30" transform="translate(303.955078 0.78125)"/>
      <use xlink:href="#DejaVuSans-30" transform="translate(367.578125 0.78125)"/>
      <use xlink:href="#DejaVuSans-31" transform="translate(431.201172 0.78125)"/>
     </g>
    </g>
   </g>
  </g>
 </g>
 <defs>
  <clipPath id="p0715b261a1">
   <rect x="36.465625" y="7.2" width="558" height="60.26087"/>
  </clipPath>
  <clipPath id="p9727f17049">
   <rect x="36.465625" y="79.513043" width="558" height="60.26087"/>
  </clipPath>
  <clipPath id="p072911dcd9">
   <rect x="36.465625" y="151.826087" width="558" height="60.26087"/>
  </clipPath>
  <clipPath id="p4dedfe1607">
   <rect x="36.465625" y="224.13913" width="558" height="60.26087"/>
  </clipPath>
 </defs>
</svg>
