<?xml version="1.0" encoding="utf-8" standalone="no"?>
<!DOCTYPE svg PUBLIC "-//W3C//DTD SVG 1.1//EN"
  "http://www.w3.org/Graphics/SVG/1.1/DTD/svg11.dtd">
<svg xmlns:xlink="http://www.w3.org/1999/xlink" width="640.718125pt" height="351.99625pt" viewBox="0 0 640.718125 351.99625" xmlns="http://www.w3.org/2000/svg" version="1.1">
 <metadata>
  <rdf:RDF xmlns:dc="http://purl.org/dc/elements/1.1/" xmlns:cc="http://creativecommons.org/ns#" xmlns:rdf="http://www.w3.org/1999/02/22-rdf-syntax-ns#">
   <cc:Work>
    <dc:type rdf:resource="http://purl.org/dc/dcmitype/StillImage"/>
    <dc:date>2025-06-06T16:22:56.345352</dc:date>
    <dc:format>image/svg+xml</dc:format>
    <dc:creator>
     <cc:Agent>
      <dc:title>Matplotlib v3.6.3, https://matplotlib.org/</dc:title>
     </cc:Agent>
    </dc:creator>
   </cc:Work>
  </rdf:RDF>
 </metadata>
 <defs>
  <style type="text/css">*{stroke-linejoin: round; stroke-linecap: butt}</style>
 </defs>
 <g id="figure_1">
  <g id="patch_1">
   <path d="M 0 351.99625 
L 640.718125 351.99625 
L 640.718125 0 
L 0 0 
z
" style="fill: #ffffff"/>
  </g>
  <g id="axes_1">
   <g id="patch_2">
    <path d="M 42.828125 45.965057 
L 633.518125 45.965057 
L 633.518125 7.2 
L 42.828125 7.2 
z
" style="fill: #ffffff"/>
   </g>
   <g id="matplotlib.axis_1">
    <g id="xtick_1">
     <g id="line2d_1">
      <defs>
       <path id="mb623233c8b" d="M 0 0 
L 0 3.5 
" style="stroke: #000000; stroke-width: 0.8"/>
      </defs>
      <g>
       <use xlink:href="#mb623233c8b" x="69.67767" y="45.965057" style="stroke: #000000; stroke-width: 0.8"/>
      </g>
     </g>
    </g>
    <g id="xtick_2">
     <g id="line2d_2">
      <g>
       <use xlink:href="#mb623233c8b" x="177.183358" y="45.965057" style="stroke: #000000; stroke-width: 0.8"/>
      </g>
     </g>
    </g>
    <g id="xtick_3">
     <g id="line2d_3">
      <g>
       <use xlink:href="#mb623233c8b" x="284.689045" y="45.965057" style="stroke: #000000; stroke-width: 0.8"/>
      </g>
     </g>
    </g>
    <g id="xtick_4">
     <g id="line2d_4">
      <g>
       <use xlink:href="#mb623233c8b" x="392.194733" y="45.965057" style="stroke: #000000; stroke-width: 0.8"/>
      </g>
     </g>
    </g>
    <g id="xtick_5">
     <g id="line2d_5">
      <g>
       <use xlink:href="#mb623233c8b" x="499.70042" y="45.965057" style="stroke: #000000; stroke-width: 0.8"/>
      </g>
     </g>
    </g>
    <g id="xtick_6">
     <g id="line2d_6">
      <g>
       <use xlink:href="#mb623233c8b" x="607.206108" y="45.965057" style="stroke: #000000; stroke-width: 0.8"/>
      </g>
     </g>
    </g>
   </g>
   <g id="matplotlib.axis_2">
    <g id="ytick_1">
     <g id="line2d_7">
      <defs>
       <path id="m0f6ab26e2c" d="M 0 0 
L -3.5 0 
" style="stroke: #000000; stroke-width: 0.8"/>
      </defs>
      <g>
       <use xlink:href="#m0f6ab26e2c" x="42.828125" y="44.203009" style="stroke: #000000; stroke-width: 0.8"/>
      </g>
     </g>
     <g id="text_1">
      <!-- 0.0 -->
      <g transform="translate(19.925 48.002228) scale(0.1 -0.1)">
       <defs>
        <path id="DejaVuSans-30" d="M 2034 4250 
Q 1547 4250 1301 3770 
Q 1056 3291 1056 2328 
Q 1056 1369 1301 889 
Q 1547 409 2034 409 
Q 2525 409 2770 889 
Q 3016 1369 3016 2328 
Q 3016 3291 2770 3770 
Q 2525 4250 2034 4250 
z
M 2034 4750 
Q 2819 4750 3233 4129 
Q 3647 3509 3647 2328 
Q 3647 1150 3233 529 
Q 2819 -91 2034 -91 
Q 1250 -91 836 529 
Q 422 1150 422 2328 
Q 422 3509 836 4129 
Q 1250 4750 2034 4750 
z
" transform="scale(0.015625)"/>
        <path id="DejaVuSans-2e" d="M 684 794 
L 1344 794 
L 1344 0 
L 684 0 
L 684 794 
z
" transform="scale(0.015625)"/>
       </defs>
       <use xlink:href="#DejaVuSans-30"/>
       <use xlink:href="#DejaVuSans-2e" x="63.623047"/>
       <use xlink:href="#DejaVuSans-30" x="95.410156"/>
      </g>
     </g>
    </g>
    <g id="ytick_2">
     <g id="line2d_8">
      <g>
       <use xlink:href="#m0f6ab26e2c" x="42.828125" y="11.733733" style="stroke: #000000; stroke-width: 0.8"/>
      </g>
     </g>
     <g id="text_2">
      <!-- 0.1 -->
      <g transform="translate(19.925 15.532951) scale(0.1 -0.1)">
       <defs>
        <path id="DejaVuSans-31" d="M 794 531 
L 1825 531 
L 1825 4091 
L 703 3866 
L 703 4441 
L 1819 4666 
L 2450 4666 
L 2450 531 
L 3481 531 
L 3481 0 
L 794 0 
L 794 531 
z
" transform="scale(0.015625)"/>
       </defs>
       <use xlink:href="#DejaVuSans-30"/>
       <use xlink:href="#DejaVuSans-2e" x="63.623047"/>
       <use xlink:href="#DejaVuSans-31" x="95.410156"/>
      </g>
     </g>
    </g>
   </g>
   <g id="line2d_9">
    <path d="M 69.67767 44.203009 
L 70.215199 8.962048 
L 71.290256 18.492458 
L 71.827784 29.203712 
L 72.365313 24.173618 
L 72.902841 25.289729 
L 73.44037 29.265455 
L 74.515426 31.200117 
L 75.052955 27.150556 
L 75.590483 29.557159 
L 76.128012 29.920614 
L 76.66554 33.61906 
L 77.203069 33.271091 
L 77.740597 28.978067 
L 78.278125 29.497476 
L 78.815654 28.532707 
L 79.353182 28.196582 
L 79.890711 29.733035 
L 80.428239 29.088983 
L 80.965768 30.746624 
L 81.503296 29.692059 
L 82.040825 30.727475 
L 82.578353 28.997133 
L 83.115881 29.428161 
L 83.65341 28.266735 
L 84.728467 29.340466 
L 85.265995 29.504851 
L 85.803524 29.280457 
L 86.341052 29.978721 
L 86.87858 30.309355 
L 87.416109 29.422128 
L 87.953637 30.915663 
L 88.491166 30.594909 
L 89.028694 31.079061 
L 89.566223 30.154796 
L 90.103751 28.964054 
L 90.64128 29.246048 
L 91.178808 29.339444 
L 92.253865 30.351572 
L 92.791393 29.207636 
L 93.328922 30.206784 
L 93.86645 30.351683 
L 94.403979 30.167445 
L 94.941507 30.14628 
L 95.479035 31.506644 
L 96.016564 30.803006 
L 96.554092 31.635621 
L 97.091621 31.358974 
L 97.629149 30.535203 
L 98.166678 30.64277 
L 98.704206 30.411419 
L 99.241735 31.669919 
L 99.779263 31.182909 
L 100.316791 30.892521 
L 100.85432 31.403656 
L 101.391848 30.036614 
L 101.929377 31.176646 
L 102.466905 31.089105 
L 103.004434 30.866178 
L 103.541962 30.192939 
L 104.07949 31.232395 
L 104.617019 30.695361 
L 105.154547 30.726608 
L 105.692076 30.56164 
L 106.229604 31.006849 
L 106.767133 30.575599 
L 107.84219 30.709992 
L 108.379718 30.582106 
L 109.454775 31.085094 
L 110.529832 30.413384 
L 111.06736 31.36282 
L 111.604889 30.643485 
L 112.142417 31.353846 
L 112.679945 31.509673 
L 113.217474 30.938228 
L 113.755002 30.871957 
L 114.292531 30.989143 
L 114.830059 30.627242 
L 115.367588 30.913283 
L 115.905116 31.023408 
L 116.980173 30.757361 
L 117.517701 31.302448 
L 118.592758 30.607598 
L 119.130287 31.140001 
L 119.667815 30.641451 
L 120.205344 30.816957 
L 120.742872 30.622291 
L 121.2804 31.168993 
L 121.817929 30.948046 
L 122.892986 31.434505 
L 123.430514 30.914443 
L 123.968043 30.870633 
L 124.505571 30.948376 
L 125.0431 30.590318 
L 125.580628 31.417874 
L 126.118156 31.150296 
L 126.655685 31.275695 
L 127.193213 30.936673 
L 128.805799 30.945994 
L 129.343327 31.300489 
L 129.880855 31.18848 
L 130.418384 30.871968 
L 130.955912 31.302214 
L 131.493441 30.859372 
L 132.030969 31.053759 
L 132.568498 30.950494 
L 134.718611 31.207794 
L 135.25614 31.02342 
L 135.793668 31.436232 
L 136.331197 30.854577 
L 136.868725 31.593858 
L 137.406254 30.641566 
L 137.943782 31.20877 
L 139.556367 31.082739 
L 140.093896 30.802748 
L 140.631424 31.390991 
L 141.168953 30.560271 
L 142.24401 31.022195 
L 142.781538 30.806742 
L 143.319066 30.897555 
L 143.856595 30.629621 
L 144.394123 30.760456 
L 144.931652 31.116908 
L 145.46918 30.968907 
L 146.544237 31.046421 
L 147.081765 30.885242 
L 147.619294 31.403154 
L 148.156822 30.952645 
L 149.231879 31.130146 
L 149.769408 30.989291 
L 150.306936 31.199536 
L 151.919521 30.956001 
L 152.45705 31.167293 
L 152.994578 31.034804 
L 154.607164 31.009429 
L 155.144692 31.202603 
L 155.68222 31.25384 
L 156.219749 31.070408 
L 157.294806 30.986289 
L 157.832334 30.950471 
L 158.907391 31.299301 
L 159.982448 30.989911 
L 160.519976 31.166828 
L 161.057505 30.981292 
L 161.595033 31.051415 
L 162.132562 31.394259 
L 162.67009 31.072806 
L 165.357732 31.184454 
L 165.895261 31.340527 
L 166.432789 30.966539 
L 166.970318 31.293757 
L 167.507846 31.041002 
L 168.045375 31.15978 
L 168.582903 31.04313 
L 169.120431 31.406373 
L 169.65796 31.047281 
L 171.270545 31.122881 
L 171.808074 31.31362 
L 172.88313 31.241616 
L 173.420659 30.840951 
L 173.958187 31.156744 
L 175.033244 31.306232 
L 175.570773 31.203795 
L 176.64583 31.337814 
L 177.183358 31.330035 
L 177.720886 31.050491 
L 178.258415 31.231514 
L 179.871 31.116426 
L 180.408529 30.914933 
L 180.946057 31.327333 
L 182.021114 31.127696 
L 182.558642 31.11236 
L 183.096171 31.253867 
L 183.633699 31.239559 
L 184.171228 31.018696 
L 185.783813 31.285869 
L 186.321341 30.748782 
L 186.85887 31.163442 
L 187.396398 31.117376 
L 188.471455 31.300885 
L 189.008984 31.177489 
L 189.546512 31.609631 
L 190.08404 31.07455 
L 190.621569 31.220213 
L 191.159097 31.143277 
L 191.696626 30.857775 
L 192.234154 30.873744 
L 192.771683 31.090155 
L 193.309211 31.158349 
L 193.84674 31.464669 
L 194.384268 31.178305 
L 195.459325 30.95751 
L 195.996853 31.030257 
L 196.534382 30.990278 
L 197.07191 31.14424 
L 197.609439 31.837609 
L 198.146967 31.15035 
L 198.684495 31.430678 
L 199.759552 31.008803 
L 200.297081 31.41525 
L 200.834609 31.165381 
L 201.372138 31.083136 
L 201.909666 31.245254 
L 202.447195 31.246458 
L 202.984723 31.131628 
L 203.522251 31.297863 
L 204.05978 31.318848 
L 204.597308 31.121859 
L 205.134837 31.283028 
L 206.209894 31.202032 
L 207.28495 31.267563 
L 208.360007 31.225599 
L 216.960462 31.229635 
L 220.185633 31.218628 
L 230.398673 31.219643 
L 284.151517 31.215048 
L 449.710276 31.215289 
L 606.66858 31.21529 
L 606.66858 31.21529 
" clip-path="url(#padb02d0c16)" style="fill: none; stroke: #1f77b4; stroke-width: 2; stroke-linecap: square"/>
   </g>
   <g id="line2d_10">
    <path d="M 69.67767 31.215299 
L 606.66858 31.215299 
L 606.66858 31.215299 
" clip-path="url(#padb02d0c16)" style="fill: none; stroke-dasharray: 5.55,2.4; stroke-dashoffset: 0; stroke: #000000; stroke-width: 1.5"/>
   </g>
   <g id="patch_3">
    <path d="M 42.828125 45.965057 
L 42.828125 7.2 
" style="fill: none; stroke: #000000; stroke-width: 0.8; stroke-linejoin: miter; stroke-linecap: square"/>
   </g>
   <g id="patch_4">
    <path d="M 633.518125 45.965057 
L 633.518125 7.2 
" style="fill: none; stroke: #000000; stroke-width: 0.8; stroke-linejoin: miter; stroke-linecap: square"/>
   </g>
   <g id="patch_5">
    <path d="M 42.828125 45.965057 
L 633.518125 45.965057 
" style="fill: none; stroke: #000000; stroke-width: 0.8; stroke-linejoin: miter; stroke-linecap: square"/>
   </g>
   <g id="patch_6">
    <path d="M 42.828125 7.2 
L 633.518125 7.2 
" style="fill: none; stroke: #000000; stroke-width: 0.8; stroke-linejoin: miter; stroke-linecap: square"/>
   </g>
   <g id="legend_1">
    <g id="patch_7">
     <path d="M 551.118125 48.5 
L 626.518125 48.5 
Q 628.518125 48.5 628.518125 46.5 
L 628.518125 14.2 
Q 628.518125 12.2 626.518125 12.2 
L 551.118125 12.2 
Q 549.118125 12.2 549.118125 14.2 
L 549.118125 46.5 
Q 549.118125 48.5 551.118125 48.5 
z
" style="fill: #ffffff; opacity: 0.8; stroke: #cccccc; stroke-linejoin: miter"/>
    </g>
    <g id="line2d_11">
     <path d="M 553.118125 24.1 
L 563.118125 24.1 
L 573.118125 24.1 
" style="fill: none; stroke: #1f77b4; stroke-width: 2; stroke-linecap: square"/>
    </g>
    <g id="text_3">
     <!-- $\hat\beta$ -->
     <g transform="translate(581.118125 27.6) scale(0.1 -0.1)">
      <defs>
       <path id="DejaVuSans-302" d="M -1831 5119 
L -1369 5119 
L -603 3944 
L -1038 3944 
L -1600 4709 
L -2163 3944 
L -2597 3944 
L -1831 5119 
z
M -1600 3584 
L -1600 3584 
z
" transform="scale(0.015625)"/>
       <path id="DejaVuSans-Oblique-3b2" d="M 872 216 
L 572 -1331 
L -6 -1331 
L 928 3478 
Q 1206 4903 2538 4903 
Q 3888 4903 3659 3700 
Q 3503 2844 2894 2531 
Q 3713 2250 3553 1416 
Q 3272 -69 1759 -66 
Q 1097 -63 872 216 
z
M 1019 966 
Q 1259 422 1875 425 
Q 2775 425 2966 1406 
Q 3138 2288 1675 2219 
L 1778 2750 
Q 2909 2731 3106 3750 
Q 3241 4438 2509 4434 
Q 1691 4434 1503 3459 
L 1019 966 
z
" transform="scale(0.015625)"/>
      </defs>
      <use xlink:href="#DejaVuSans-302" transform="translate(62.785156 34.015625)"/>
      <use xlink:href="#DejaVuSans-Oblique-3b2" transform="translate(0 0.90625)"/>
     </g>
    </g>
    <g id="line2d_12">
     <path d="M 553.118125 38.9 
L 563.118125 38.9 
L 573.118125 38.9 
" style="fill: none; stroke-dasharray: 5.55,2.4; stroke-dashoffset: 0; stroke: #000000; stroke-width: 1.5"/>
    </g>
    <g id="text_4">
     <!-- $\beta$ = 0.04 -->
     <g transform="translate(581.118125 42.4) scale(0.1 -0.1)">
      <defs>
       <path id="DejaVuSans-20" transform="scale(0.015625)"/>
       <path id="DejaVuSans-3d" d="M 678 2906 
L 4684 2906 
L 4684 2381 
L 678 2381 
L 678 2906 
z
M 678 1631 
L 4684 1631 
L 4684 1100 
L 678 1100 
L 678 1631 
z
" transform="scale(0.015625)"/>
       <path id="DejaVuSans-34" d="M 2419 4116 
L 825 1625 
L 2419 1625 
L 2419 4116 
z
M 2253 4666 
L 3047 4666 
L 3047 1625 
L 3713 1625 
L 3713 1100 
L 3047 1100 
L 3047 0 
L 2419 0 
L 2419 1100 
L 313 1100 
L 313 1709 
L 2253 4666 
z
" transform="scale(0.015625)"/>
      </defs>
      <use xlink:href="#DejaVuSans-Oblique-3b2" transform="translate(0 0.390625)"/>
      <use xlink:href="#DejaVuSans-20" transform="translate(63.818359 0.390625)"/>
      <use xlink:href="#DejaVuSans-3d" transform="translate(95.605469 0.390625)"/>
      <use xlink:href="#DejaVuSans-20" transform="translate(179.394531 0.390625)"/>
      <use xlink:href="#DejaVuSans-30" transform="translate(211.181641 0.390625)"/>
      <use xlink:href="#DejaVuSans-2e" transform="translate(274.804688 0.390625)"/>
      <use xlink:href="#DejaVuSans-30" transform="translate(306.591797 0.390625)"/>
      <use xlink:href="#DejaVuSans-34" transform="translate(370.214844 0.390625)"/>
     </g>
    </g>
   </g>
  </g>
  <g id="axes_2">
   <g id="patch_8">
    <path d="M 42.828125 103.392529 
L 633.518125 103.392529 
L 633.518125 64.627471 
L 42.828125 64.627471 
z
" style="fill: #ffffff"/>
   </g>
   <g id="matplotlib.axis_3">
    <g id="xtick_7">
     <g id="line2d_13">
      <g>
       <use xlink:href="#mb623233c8b" x="69.67767" y="103.392529" style="stroke: #000000; stroke-width: 0.8"/>
      </g>
     </g>
    </g>
    <g id="xtick_8">
     <g id="line2d_14">
      <g>
       <use xlink:href="#mb623233c8b" x="177.183358" y="103.392529" style="stroke: #000000; stroke-width: 0.8"/>
      </g>
     </g>
    </g>
    <g id="xtick_9">
     <g id="line2d_15">
      <g>
       <use xlink:href="#mb623233c8b" x="284.689045" y="103.392529" style="stroke: #000000; stroke-width: 0.8"/>
      </g>
     </g>
    </g>
    <g id="xtick_10">
     <g id="line2d_16">
      <g>
       <use xlink:href="#mb623233c8b" x="392.194733" y="103.392529" style="stroke: #000000; stroke-width: 0.8"/>
      </g>
     </g>
    </g>
    <g id="xtick_11">
     <g id="line2d_17">
      <g>
       <use xlink:href="#mb623233c8b" x="499.70042" y="103.392529" style="stroke: #000000; stroke-width: 0.8"/>
      </g>
     </g>
    </g>
    <g id="xtick_12">
     <g id="line2d_18">
      <g>
       <use xlink:href="#mb623233c8b" x="607.206108" y="103.392529" style="stroke: #000000; stroke-width: 0.8"/>
      </g>
     </g>
    </g>
   </g>
   <g id="matplotlib.axis_4">
    <g id="ytick_3">
     <g id="line2d_19">
      <g>
       <use xlink:href="#m0f6ab26e2c" x="42.828125" y="97.86459" style="stroke: #000000; stroke-width: 0.8"/>
      </g>
     </g>
     <g id="text_5">
      <!-- 0.00 -->
      <g transform="translate(13.5625 101.663809) scale(0.1 -0.1)">
       <use xlink:href="#DejaVuSans-30"/>
       <use xlink:href="#DejaVuSans-2e" x="63.623047"/>
       <use xlink:href="#DejaVuSans-30" x="95.410156"/>
       <use xlink:href="#DejaVuSans-30" x="159.033203"/>
      </g>
     </g>
    </g>
    <g id="ytick_4">
     <g id="line2d_20">
      <g>
       <use xlink:href="#m0f6ab26e2c" x="42.828125" y="72.77108" style="stroke: #000000; stroke-width: 0.8"/>
      </g>
     </g>
     <g id="text_6">
      <!-- 0.05 -->
      <g transform="translate(13.5625 76.570298) scale(0.1 -0.1)">
       <defs>
        <path id="DejaVuSans-35" d="M 691 4666 
L 3169 4666 
L 3169 4134 
L 1269 4134 
L 1269 2991 
Q 1406 3038 1543 3061 
Q 1681 3084 1819 3084 
Q 2600 3084 3056 2656 
Q 3513 2228 3513 1497 
Q 3513 744 3044 326 
Q 2575 -91 1722 -91 
Q 1428 -91 1123 -41 
Q 819 9 494 109 
L 494 744 
Q 775 591 1075 516 
Q 1375 441 1709 441 
Q 2250 441 2565 725 
Q 2881 1009 2881 1497 
Q 2881 1984 2565 2268 
Q 2250 2553 1709 2553 
Q 1456 2553 1204 2497 
Q 953 2441 691 2322 
L 691 4666 
z
" transform="scale(0.015625)"/>
       </defs>
       <use xlink:href="#DejaVuSans-30"/>
       <use xlink:href="#DejaVuSans-2e" x="63.623047"/>
       <use xlink:href="#DejaVuSans-30" x="95.410156"/>
       <use xlink:href="#DejaVuSans-35" x="159.033203"/>
      </g>
     </g>
    </g>
   </g>
   <g id="line2d_21">
    <path d="M 69.67767 97.86459 
L 70.215199 81.380547 
L 71.290256 66.389519 
L 71.827784 98.217121 
L 72.365313 81.352672 
L 72.902841 80.521912 
L 73.44037 90.186991 
L 73.977898 92.758718 
L 74.515426 96.077266 
L 75.052955 84.271105 
L 75.590483 90.049165 
L 76.128012 90.716748 
L 76.66554 101.354616 
L 77.203069 101.630481 
L 77.740597 90.532845 
L 78.278125 91.838057 
L 78.815654 89.102798 
L 79.353182 87.862575 
L 79.890711 91.710738 
L 80.428239 89.898538 
L 80.965768 94.230384 
L 81.503296 91.530551 
L 82.040825 94.271617 
L 82.578353 89.784101 
L 83.115881 90.771978 
L 83.65341 87.604985 
L 84.190938 88.62035 
L 84.728467 89.93217 
L 85.265995 90.22731 
L 85.803524 89.531998 
L 86.341052 91.188611 
L 86.87858 91.976346 
L 87.416109 89.687012 
L 87.953637 93.360799 
L 88.491166 92.584644 
L 89.028694 93.806491 
L 89.566223 91.540724 
L 90.103751 88.535837 
L 90.64128 89.094198 
L 91.178808 89.206536 
L 92.253865 91.511775 
L 92.791393 88.690752 
L 93.328922 90.996993 
L 93.86645 91.298874 
L 94.403979 90.81801 
L 94.941507 90.717524 
L 95.479035 93.904426 
L 96.016564 92.26573 
L 96.554092 94.218247 
L 97.091621 93.602544 
L 97.629149 91.6968 
L 98.166678 91.925225 
L 98.704206 91.373005 
L 99.241735 94.246871 
L 99.779263 93.158214 
L 100.316791 92.502776 
L 100.85432 93.660949 
L 101.391848 90.582534 
L 101.929377 93.1157 
L 102.466905 92.925392 
L 103.004434 92.430442 
L 103.541962 90.92885 
L 104.07949 93.203352 
L 104.617019 92.02622 
L 105.154547 92.084901 
L 105.692076 91.715659 
L 106.229604 92.670726 
L 106.767133 91.735631 
L 107.84219 92.001766 
L 108.379718 91.719657 
L 109.454775 92.770646 
L 110.529832 91.346827 
L 111.06736 93.320934 
L 111.604889 91.825895 
L 112.142417 93.292443 
L 112.679945 93.619113 
L 113.217474 92.44892 
L 113.755002 92.310157 
L 114.292531 92.545846 
L 114.830059 91.807207 
L 115.367588 92.379897 
L 115.905116 92.599342 
L 116.442645 92.425025 
L 116.980173 92.061406 
L 117.517701 93.145179 
L 118.592758 91.765346 
L 119.130287 92.810712 
L 119.667815 91.829576 
L 120.205344 92.168226 
L 120.742872 91.78433 
L 121.2804 92.843399 
L 121.817929 92.414828 
L 122.892986 93.352789 
L 123.430514 92.356477 
L 123.968043 92.270531 
L 124.505571 92.416452 
L 125.0431 91.733825 
L 125.580628 93.297993 
L 126.118156 92.794339 
L 126.655685 93.030434 
L 127.193213 92.394676 
L 127.730742 92.426252 
L 128.26827 92.271195 
L 128.805799 92.406883 
L 129.343327 93.063065 
L 129.880855 92.856688 
L 130.418384 92.27311 
L 130.955912 93.062571 
L 131.493441 92.25129 
L 132.030969 92.605066 
L 132.568498 92.416156 
L 134.181083 92.919989 
L 134.718611 92.881438 
L 135.25614 92.549847 
L 135.793668 93.290025 
L 136.331197 92.249906 
L 136.868725 93.568668 
L 137.406254 91.874108 
L 137.943782 92.879948 
L 139.018839 92.729366 
L 139.556367 92.656755 
L 140.093896 92.163625 
L 140.631424 93.19545 
L 141.168953 91.740563 
L 142.24401 92.544551 
L 142.781538 92.169063 
L 143.319066 92.325775 
L 143.856595 91.860604 
L 144.394123 92.08549 
L 144.931652 92.699723 
L 145.46918 92.444579 
L 146.006709 92.576943 
L 146.544237 92.576983 
L 147.081765 92.30063 
L 147.619294 93.185228 
L 148.156822 92.41706 
L 148.694351 92.644493 
L 149.231879 92.718485 
L 149.769408 92.47937 
L 150.306936 92.835072 
L 150.844465 92.653157 
L 151.381993 92.645021 
L 151.919521 92.423738 
L 152.45705 92.77874 
L 152.994578 92.556211 
L 153.532107 92.559873 
L 154.069635 92.710273 
L 154.607164 92.513462 
L 155.144692 92.835484 
L 155.68222 92.92083 
L 156.219749 92.615806 
L 156.757277 92.629716 
L 157.832334 92.416457 
L 158.907391 92.992455 
L 159.982448 92.482891 
L 160.519976 92.773525 
L 161.057505 92.468881 
L 161.595033 92.583637 
L 162.132562 93.144847 
L 162.67009 92.619381 
L 163.207619 92.632974 
L 163.745147 92.515789 
L 164.282675 92.707497 
L 164.820204 92.663057 
L 165.357732 92.800308 
L 165.895261 93.053568 
L 166.432789 92.447479 
L 166.970318 92.977058 
L 167.507846 92.568405 
L 168.045375 92.760137 
L 168.582903 92.571915 
L 169.120431 93.157159 
L 169.65796 92.579275 
L 171.270545 92.700458 
L 171.808074 93.006093 
L 172.88313 92.891035 
L 173.420659 92.250949 
L 173.958187 92.754776 
L 175.033244 92.992948 
L 175.570773 92.82999 
L 176.64583 93.043008 
L 177.183358 93.030716 
L 177.720886 92.587635 
L 178.258415 92.874267 
L 178.795943 92.84694 
L 179.333472 92.65481 
L 179.871 92.692234 
L 180.408529 92.374216 
L 180.946057 93.024394 
L 182.021114 92.710006 
L 182.558642 92.685857 
L 183.096171 92.908247 
L 183.633699 92.885787 
L 184.171228 92.53917 
L 185.783813 92.957777 
L 186.321341 92.117656 
L 186.85887 92.765552 
L 187.396398 92.693619 
L 187.933927 92.901108 
L 188.471455 92.979736 
L 189.008984 92.787687 
L 189.546512 93.459733 
L 190.08404 92.628449 
L 190.621569 92.854554 
L 191.159097 92.735184 
L 191.696626 92.292426 
L 192.234154 92.316967 
L 192.771683 92.652012 
L 193.309211 92.757532 
L 193.84674 93.231743 
L 194.384268 92.78869 
L 195.459325 92.446791 
L 195.996853 92.559082 
L 196.534382 92.496977 
L 197.07191 92.734978 
L 197.609439 93.808251 
L 198.146967 92.745096 
L 198.684495 93.179153 
L 199.759552 92.525839 
L 200.297081 93.155571 
L 200.834609 92.768446 
L 201.372138 92.640684 
L 201.909666 92.892067 
L 202.447195 92.894022 
L 202.984723 92.715587 
L 203.522251 92.973945 
L 204.05978 93.006897 
L 204.597308 92.700329 
L 205.134837 92.951309 
L 206.209894 92.825173 
L 207.28495 92.927802 
L 208.360007 92.862328 
L 211.585178 92.838 
L 213.197763 92.808949 
L 215.347877 92.827422 
L 217.497991 92.841456 
L 222.335747 92.833506 
L 228.786088 92.854649 
L 238.4616 92.842194 
L 248.137112 92.845931 
L 606.66858 92.845878 
L 606.66858 92.845878 
" clip-path="url(#pe5c82a910b)" style="fill: none; stroke: #1f77b4; stroke-width: 2; stroke-linecap: square"/>
   </g>
   <g id="line2d_22">
    <path d="M 69.67767 92.845888 
L 606.66858 92.845888 
L 606.66858 92.845888 
" clip-path="url(#pe5c82a910b)" style="fill: none; stroke-dasharray: 5.55,2.4; stroke-dashoffset: 0; stroke: #000000; stroke-width: 1.5"/>
   </g>
   <g id="patch_9">
    <path d="M 42.828125 103.392529 
L 42.828125 64.627471 
" style="fill: none; stroke: #000000; stroke-width: 0.8; stroke-linejoin: miter; stroke-linecap: square"/>
   </g>
   <g id="patch_10">
    <path d="M 633.518125 103.392529 
L 633.518125 64.627471 
" style="fill: none; stroke: #000000; stroke-width: 0.8; stroke-linejoin: miter; stroke-linecap: square"/>
   </g>
   <g id="patch_11">
    <path d="M 42.828125 103.392529 
L 633.518125 103.392529 
" style="fill: none; stroke: #000000; stroke-width: 0.8; stroke-linejoin: miter; stroke-linecap: square"/>
   </g>
   <g id="patch_12">
    <path d="M 42.828125 64.627471 
L 633.518125 64.627471 
" style="fill: none; stroke: #000000; stroke-width: 0.8; stroke-linejoin: miter; stroke-linecap: square"/>
   </g>
   <g id="legend_2">
    <g id="patch_13">
     <path d="M 549.218125 103.625909 
L 626.518125 103.625909 
Q 628.518125 103.625909 628.518125 101.625909 
L 628.518125 71.627471 
Q 628.518125 69.627471 626.518125 69.627471 
L 549.218125 69.627471 
Q 547.218125 69.627471 547.218125 71.627471 
L 547.218125 101.625909 
Q 547.218125 103.625909 549.218125 103.625909 
z
" style="fill: #ffffff; opacity: 0.8; stroke: #cccccc; stroke-linejoin: miter"/>
    </g>
    <g id="line2d_23">
     <path d="M 551.218125 79.327471 
L 561.218125 79.327471 
L 571.218125 79.327471 
" style="fill: none; stroke: #1f77b4; stroke-width: 2; stroke-linecap: square"/>
    </g>
    <g id="text_7">
     <!-- $\hat\gamma_I$ -->
     <g transform="translate(579.218125 82.827471) scale(0.1 -0.1)">
      <defs>
       <path id="DejaVuSans-Oblique-3b3" d="M 1491 2950 
L 1838 788 
L 3456 3500 
L 4066 3500 
L 1972 0 
L 1713 -1331 
L 1138 -1331 
L 1397 0 
L 988 2613 
Q 925 3006 628 3006 
L 475 3006 
L 569 3500 
L 788 3500 
Q 1403 3500 1491 2950 
z
" transform="scale(0.015625)"/>
       <path id="DejaVuSans-Oblique-49" d="M 1081 4666 
L 1716 4666 
L 806 0 
L 172 0 
L 1081 4666 
z
" transform="scale(0.015625)"/>
      </defs>
      <use xlink:href="#DejaVuSans-302" transform="translate(59.601562 12.015625)"/>
      <use xlink:href="#DejaVuSans-Oblique-3b3" transform="translate(0 0.828125)"/>
      <use xlink:href="#DejaVuSans-Oblique-49" transform="translate(60.136719 -15.578125) scale(0.7)"/>
     </g>
    </g>
    <g id="line2d_24">
     <path d="M 551.218125 94.025909 
L 561.218125 94.025909 
L 571.218125 94.025909 
" style="fill: none; stroke-dasharray: 5.55,2.4; stroke-dashoffset: 0; stroke: #000000; stroke-width: 1.5"/>
    </g>
    <g id="text_8">
     <!-- $\gamma_I$ = 0.01 -->
     <g transform="translate(579.218125 97.525909) scale(0.1 -0.1)">
      <use xlink:href="#DejaVuSans-Oblique-3b3" transform="translate(0 0.78125)"/>
      <use xlink:href="#DejaVuSans-Oblique-49" transform="translate(59.179688 -15.625) scale(0.7)"/>
      <use xlink:href="#DejaVuSans-20" transform="translate(82.558594 0.78125)"/>
      <use xlink:href="#DejaVuSans-3d" transform="translate(114.345703 0.78125)"/>
      <use xlink:href="#DejaVuSans-20" transform="translate(198.134766 0.78125)"/>
      <use xlink:href="#DejaVuSans-30" transform="translate(229.921875 0.78125)"/>
      <use xlink:href="#DejaVuSans-2e" transform="translate(293.544922 0.78125)"/>
      <use xlink:href="#DejaVuSans-30" transform="translate(325.332031 0.78125)"/>
      <use xlink:href="#DejaVuSans-31" transform="translate(388.955078 0.78125)"/>
     </g>
    </g>
   </g>
  </g>
  <g id="axes_3">
   <g id="patch_14">
    <path d="M 42.828125 160.82 
L 633.518125 160.82 
L 633.518125 122.054943 
L 42.828125 122.054943 
z
" style="fill: #ffffff"/>
   </g>
   <g id="matplotlib.axis_5">
    <g id="xtick_13">
     <g id="line2d_25">
      <g>
       <use xlink:href="#mb623233c8b" x="69.67767" y="160.82" style="stroke: #000000; stroke-width: 0.8"/>
      </g>
     </g>
    </g>
    <g id="xtick_14">
     <g id="line2d_26">
      <g>
       <use xlink:href="#mb623233c8b" x="177.183358" y="160.82" style="stroke: #000000; stroke-width: 0.8"/>
      </g>
     </g>
    </g>
    <g id="xtick_15">
     <g id="line2d_27">
      <g>
       <use xlink:href="#mb623233c8b" x="284.689045" y="160.82" style="stroke: #000000; stroke-width: 0.8"/>
      </g>
     </g>
    </g>
    <g id="xtick_16">
     <g id="line2d_28">
      <g>
       <use xlink:href="#mb623233c8b" x="392.194733" y="160.82" style="stroke: #000000; stroke-width: 0.8"/>
      </g>
     </g>
    </g>
    <g id="xtick_17">
     <g id="line2d_29">
      <g>
       <use xlink:href="#mb623233c8b" x="499.70042" y="160.82" style="stroke: #000000; stroke-width: 0.8"/>
      </g>
     </g>
    </g>
    <g id="xtick_18">
     <g id="line2d_30">
      <g>
       <use xlink:href="#mb623233c8b" x="607.206108" y="160.82" style="stroke: #000000; stroke-width: 0.8"/>
      </g>
     </g>
    </g>
   </g>
   <g id="matplotlib.axis_6">
    <g id="ytick_5">
     <g id="line2d_31">
      <g>
       <use xlink:href="#m0f6ab26e2c" x="42.828125" y="153.385966" style="stroke: #000000; stroke-width: 0.8"/>
      </g>
     </g>
     <g id="text_9">
      <!-- 0.000 -->
      <g transform="translate(7.2 157.185185) scale(0.1 -0.1)">
       <use xlink:href="#DejaVuSans-30"/>
       <use xlink:href="#DejaVuSans-2e" x="63.623047"/>
       <use xlink:href="#DejaVuSans-30" x="95.410156"/>
       <use xlink:href="#DejaVuSans-30" x="159.033203"/>
       <use xlink:href="#DejaVuSans-30" x="222.65625"/>
      </g>
     </g>
    </g>
    <g id="ytick_6">
     <g id="line2d_32">
      <g>
       <use xlink:href="#m0f6ab26e2c" x="42.828125" y="123.632795" style="stroke: #000000; stroke-width: 0.8"/>
      </g>
     </g>
     <g id="text_10">
      <!-- 0.025 -->
      <g transform="translate(7.2 127.432014) scale(0.1 -0.1)">
       <defs>
        <path id="DejaVuSans-32" d="M 1228 531 
L 3431 531 
L 3431 0 
L 469 0 
L 469 531 
Q 828 903 1448 1529 
Q 2069 2156 2228 2338 
Q 2531 2678 2651 2914 
Q 2772 3150 2772 3378 
Q 2772 3750 2511 3984 
Q 2250 4219 1831 4219 
Q 1534 4219 1204 4116 
Q 875 4013 500 3803 
L 500 4441 
Q 881 4594 1212 4672 
Q 1544 4750 1819 4750 
Q 2544 4750 2975 4387 
Q 3406 4025 3406 3419 
Q 3406 3131 3298 2873 
Q 3191 2616 2906 2266 
Q 2828 2175 2409 1742 
Q 1991 1309 1228 531 
z
" transform="scale(0.015625)"/>
       </defs>
       <use xlink:href="#DejaVuSans-30"/>
       <use xlink:href="#DejaVuSans-2e" x="63.623047"/>
       <use xlink:href="#DejaVuSans-30" x="95.410156"/>
       <use xlink:href="#DejaVuSans-32" x="159.033203"/>
       <use xlink:href="#DejaVuSans-35" x="222.65625"/>
      </g>
     </g>
    </g>
   </g>
   <g id="line2d_33">
    <path d="M 69.67767 153.385966 
L 70.215199 123.816991 
L 71.290256 159.057952 
L 71.827784 140.950489 
L 72.365313 151.728001 
L 72.902841 154.758495 
L 73.44037 150.584906 
L 73.977898 149.284997 
L 74.515426 147.146465 
L 75.052955 153.723409 
L 75.590483 151.282928 
L 76.128012 151.157475 
L 76.66554 145.322286 
L 77.203069 144.357485 
L 77.740597 149.648163 
L 78.278125 149.052492 
L 78.815654 150.527565 
L 79.353182 151.382085 
L 79.890711 149.635157 
L 80.428239 150.603538 
L 80.965768 148.505208 
L 81.503296 149.773714 
L 82.040825 148.421229 
L 82.578353 150.570908 
L 83.115881 150.18952 
L 83.65341 151.816098 
L 84.190938 151.513749 
L 84.728467 151.02456 
L 85.265995 150.975877 
L 85.803524 151.389066 
L 86.341052 150.704514 
L 86.87858 150.376443 
L 87.416109 151.464906 
L 87.953637 149.846064 
L 88.491166 150.178515 
L 89.028694 149.617066 
L 89.566223 150.609714 
L 90.103751 151.990371 
L 90.64128 151.845123 
L 91.178808 151.883087 
L 92.253865 151.004657 
L 92.791393 152.253094 
L 93.328922 151.349683 
L 93.86645 151.257294 
L 94.403979 151.489809 
L 94.941507 151.570167 
L 95.479035 150.284539 
L 96.016564 150.938016 
L 96.554092 150.148812 
L 97.091621 150.371856 
L 97.629149 151.121814 
L 98.166678 151.048104 
L 98.704206 151.278887 
L 99.241735 150.177728 
L 99.779263 150.576036 
L 100.316791 150.821012 
L 100.85432 150.384493 
L 101.391848 151.529283 
L 101.929377 150.614968 
L 102.466905 150.680187 
L 103.004434 150.858508 
L 103.541962 151.405152 
L 104.07949 150.613206 
L 104.617019 151.024754 
L 105.154547 151.012441 
L 105.692076 151.147929 
L 106.229604 150.831403 
L 106.767133 151.149835 
L 107.84219 151.080569 
L 108.379718 151.180702 
L 109.454775 150.856318 
L 110.529832 151.313576 
L 111.06736 150.712797 
L 111.604889 151.167229 
L 112.142417 150.730134 
L 112.679945 150.628366 
L 113.217474 150.968653 
L 114.830059 151.159639 
L 115.905116 150.946401 
L 116.980173 151.096693 
L 117.517701 150.810552 
L 118.592758 151.173295 
L 119.130287 150.909442 
L 119.667815 151.159178 
L 120.205344 151.079258 
L 120.742872 151.17772 
L 121.2804 150.923809 
L 121.817929 151.027087 
L 122.892986 150.806373 
L 123.430514 151.034706 
L 125.0431 151.179048 
L 125.580628 150.84086 
L 126.118156 150.947726 
L 126.655685 150.897573 
L 127.193213 151.030163 
L 136.868725 150.842326 
L 137.406254 151.106766 
L 137.943782 150.953375 
L 140.093896 151.058834 
L 140.631424 150.913138 
L 141.168953 151.11623 
L 142.24401 151.009237 
L 143.856595 151.100998 
L 147.619294 150.947483 
L 148.694351 151.008547 
L 155.68222 150.98744 
L 158.369863 151.005436 
L 160.519976 151.002755 
L 163.207619 151.012644 
L 170.733017 151.010815 
L 205.134837 151.003887 
L 245.986998 151.005825 
L 537.86494 151.005724 
L 606.66858 151.005711 
L 606.66858 151.005711 
" clip-path="url(#p00186d4094)" style="fill: none; stroke: #1f77b4; stroke-width: 2; stroke-linecap: square"/>
   </g>
   <g id="line2d_34">
    <path d="M 69.67767 151.005713 
L 606.66858 151.005713 
L 606.66858 151.005713 
" clip-path="url(#p00186d4094)" style="fill: none; stroke-dasharray: 5.55,2.4; stroke-dashoffset: 0; stroke: #000000; stroke-width: 1.5"/>
   </g>
   <g id="patch_15">
    <path d="M 42.828125 160.82 
L 42.828125 122.054943 
" style="fill: none; stroke: #000000; stroke-width: 0.8; stroke-linejoin: miter; stroke-linecap: square"/>
   </g>
   <g id="patch_16">
    <path d="M 633.518125 160.82 
L 633.518125 122.054943 
" style="fill: none; stroke: #000000; stroke-width: 0.8; stroke-linejoin: miter; stroke-linecap: square"/>
   </g>
   <g id="patch_17">
    <path d="M 42.828125 160.82 
L 633.518125 160.82 
" style="fill: none; stroke: #000000; stroke-width: 0.8; stroke-linejoin: miter; stroke-linecap: square"/>
   </g>
   <g id="patch_18">
    <path d="M 42.828125 122.054943 
L 633.518125 122.054943 
" style="fill: none; stroke: #000000; stroke-width: 0.8; stroke-linejoin: miter; stroke-linecap: square"/>
   </g>
   <g id="legend_3">
    <g id="patch_19">
     <path d="M 542.418125 161.05338 
L 626.518125 161.05338 
Q 628.518125 161.05338 628.518125 159.05338 
L 628.518125 129.054943 
Q 628.518125 127.054943 626.518125 127.054943 
L 542.418125 127.054943 
Q 540.418125 127.054943 540.418125 129.054943 
L 540.418125 159.05338 
Q 540.418125 161.05338 542.418125 161.05338 
z
" style="fill: #ffffff; opacity: 0.8; stroke: #cccccc; stroke-linejoin: miter"/>
    </g>
    <g id="line2d_35">
     <path d="M 544.418125 136.754943 
L 554.418125 136.754943 
L 564.418125 136.754943 
" style="fill: none; stroke: #1f77b4; stroke-width: 2; stroke-linecap: square"/>
    </g>
    <g id="text_11">
     <!-- $\hat\mu_I$ -->
     <g transform="translate(572.418125 140.254943) scale(0.1 -0.1)">
      <defs>
       <path id="DejaVuSans-Oblique-3bc" d="M -84 -1331 
L 856 3500 
L 1434 3500 
L 1009 1322 
Q 997 1256 987 1175 
Q 978 1094 978 1013 
Q 978 722 1161 565 
Q 1344 409 1684 409 
Q 2147 409 2431 671 
Q 2716 934 2816 1459 
L 3213 3500 
L 3788 3500 
L 3266 809 
Q 3253 750 3248 706 
Q 3244 663 3244 628 
Q 3244 531 3283 486 
Q 3322 441 3406 441 
Q 3438 441 3492 456 
Q 3547 472 3647 513 
L 3559 50 
Q 3422 -19 3297 -55 
Q 3172 -91 3053 -91 
Q 2847 -91 2730 40 
Q 2613 172 2613 403 
Q 2438 153 2195 31 
Q 1953 -91 1625 -91 
Q 1334 -91 1117 43 
Q 900 178 831 397 
L 494 -1331 
L -84 -1331 
z
" transform="scale(0.015625)"/>
      </defs>
      <use xlink:href="#DejaVuSans-302" transform="translate(62.699219 12.015625)"/>
      <use xlink:href="#DejaVuSans-Oblique-3bc" transform="translate(0 0.828125)"/>
      <use xlink:href="#DejaVuSans-Oblique-49" transform="translate(64.580078 -15.578125) scale(0.7)"/>
     </g>
    </g>
    <g id="line2d_36">
     <path d="M 544.418125 151.45338 
L 554.418125 151.45338 
L 564.418125 151.45338 
" style="fill: none; stroke-dasharray: 5.55,2.4; stroke-dashoffset: 0; stroke: #000000; stroke-width: 1.5"/>
    </g>
    <g id="text_12">
     <!-- $\mu_I$ = 0.002 -->
     <g transform="translate(572.418125 154.95338) scale(0.1 -0.1)">
      <use xlink:href="#DejaVuSans-Oblique-3bc" transform="translate(0 0.78125)"/>
      <use xlink:href="#DejaVuSans-Oblique-49" transform="translate(63.623047 -15.625) scale(0.7)"/>
      <use xlink:href="#DejaVuSans-20" transform="translate(87.001953 0.78125)"/>
      <use xlink:href="#DejaVuSans-3d" transform="translate(118.789062 0.78125)"/>
      <use xlink:href="#DejaVuSans-20" transform="translate(202.578125 0.78125)"/>
      <use xlink:href="#DejaVuSans-30" transform="translate(234.365234 0.78125)"/>
      <use xlink:href="#DejaVuSans-2e" transform="translate(297.988281 0.78125)"/>
      <use xlink:href="#DejaVuSans-30" transform="translate(329.775391 0.78125)"/>
      <use xlink:href="#DejaVuSans-30" transform="translate(393.398438 0.78125)"/>
      <use xlink:href="#DejaVuSans-32" transform="translate(457.021484 0.78125)"/>
     </g>
    </g>
   </g>
  </g>
  <g id="axes_4">
   <g id="patch_20">
    <path d="M 42.828125 218.247471 
L 633.518125 218.247471 
L 633.518125 179.482414 
L 42.828125 179.482414 
z
" style="fill: #ffffff"/>
   </g>
   <g id="matplotlib.axis_7">
    <g id="xtick_19">
     <g id="line2d_37">
      <g>
       <use xlink:href="#mb623233c8b" x="69.67767" y="218.247471" style="stroke: #000000; stroke-width: 0.8"/>
      </g>
     </g>
    </g>
    <g id="xtick_20">
     <g id="line2d_38">
      <g>
       <use xlink:href="#mb623233c8b" x="177.183358" y="218.247471" style="stroke: #000000; stroke-width: 0.8"/>
      </g>
     </g>
    </g>
    <g id="xtick_21">
     <g id="line2d_39">
      <g>
       <use xlink:href="#mb623233c8b" x="284.689045" y="218.247471" style="stroke: #000000; stroke-width: 0.8"/>
      </g>
     </g>
    </g>
    <g id="xtick_22">
     <g id="line2d_40">
      <g>
       <use xlink:href="#mb623233c8b" x="392.194733" y="218.247471" style="stroke: #000000; stroke-width: 0.8"/>
      </g>
     </g>
    </g>
    <g id="xtick_23">
     <g id="line2d_41">
      <g>
       <use xlink:href="#mb623233c8b" x="499.70042" y="218.247471" style="stroke: #000000; stroke-width: 0.8"/>
      </g>
     </g>
    </g>
    <g id="xtick_24">
     <g id="line2d_42">
      <g>
       <use xlink:href="#mb623233c8b" x="607.206108" y="218.247471" style="stroke: #000000; stroke-width: 0.8"/>
      </g>
     </g>
    </g>
   </g>
   <g id="matplotlib.axis_8">
    <g id="ytick_7">
     <g id="line2d_43">
      <g>
       <use xlink:href="#m0f6ab26e2c" x="42.828125" y="210.262746" style="stroke: #000000; stroke-width: 0.8"/>
      </g>
     </g>
     <g id="text_13">
      <!-- 0 -->
      <g transform="translate(29.465625 214.061965) scale(0.1 -0.1)">
       <use xlink:href="#DejaVuSans-30"/>
      </g>
     </g>
    </g>
    <g id="ytick_8">
     <g id="line2d_44">
      <g>
       <use xlink:href="#m0f6ab26e2c" x="42.828125" y="185.879224" style="stroke: #000000; stroke-width: 0.8"/>
      </g>
     </g>
     <g id="text_14">
      <!-- 5 -->
      <g transform="translate(29.465625 189.678443) scale(0.1 -0.1)">
       <use xlink:href="#DejaVuSans-35"/>
      </g>
     </g>
    </g>
   </g>
   <g id="line2d_45">
    <path d="M 69.67767 210.262746 
L 70.215199 210.262746 
L 70.752727 181.623617 
L 71.290256 181.244462 
L 71.827784 216.485423 
L 72.365313 204.524112 
L 72.902841 204.849688 
L 73.44037 209.453385 
L 74.515426 211.440615 
L 75.052955 208.152933 
L 75.590483 209.689549 
L 76.128012 209.868584 
L 76.66554 212.034288 
L 77.203069 212.002476 
L 77.740597 210.014207 
L 78.278125 210.233771 
L 78.815654 209.822721 
L 79.353182 209.662187 
L 79.890711 210.196794 
L 80.428239 209.968847 
L 80.965768 210.499454 
L 81.503296 210.18263 
L 82.040825 210.485419 
L 82.578353 210.008213 
L 83.115881 210.11373 
L 83.65341 209.810087 
L 85.265995 210.069628 
L 85.803524 210.014728 
L 86.87858 210.218073 
L 87.416109 210.043224 
L 87.953637 210.320415 
L 88.491166 210.263184 
L 89.028694 210.349353 
L 90.103751 209.991383 
L 92.253865 210.188881 
L 92.791393 210.020476 
L 93.328922 210.158672 
L 98.166678 210.217582 
L 98.704206 210.190647 
L 99.241735 210.330953 
L 100.316791 210.247078 
L 100.85432 210.301152 
L 101.391848 210.159233 
L 101.929377 210.274925 
L 110.529832 210.202722 
L 111.06736 210.277989 
L 112.142417 210.276526 
L 114.292531 210.248971 
L 116.442645 210.244707 
L 120.742872 210.223393 
L 122.892986 210.275543 
L 125.0431 210.222939 
L 126.655685 210.264585 
L 129.343327 210.265342 
L 140.093896 210.238461 
L 142.24401 210.24958 
L 147.081765 210.242637 
L 149.231879 210.254493 
L 157.832334 210.24618 
L 164.820204 210.252982 
L 179.871 210.253838 
L 186.321341 210.238767 
L 190.08404 210.252204 
L 200.297081 210.265831 
L 206.209894 210.257347 
L 235.236429 210.25778 
L 606.66858 210.257869 
L 606.66858 210.257869 
" clip-path="url(#pa6c0efacbd)" style="fill: none; stroke: #1f77b4; stroke-width: 2; stroke-linecap: square"/>
   </g>
   <g id="line2d_46">
    <path d="M 69.67767 210.257869 
L 606.66858 210.257869 
L 606.66858 210.257869 
" clip-path="url(#pa6c0efacbd)" style="fill: none; stroke-dasharray: 5.55,2.4; stroke-dashoffset: 0; stroke: #000000; stroke-width: 1.5"/>
   </g>
   <g id="patch_21">
    <path d="M 42.828125 218.247471 
L 42.828125 179.482414 
" style="fill: none; stroke: #000000; stroke-width: 0.8; stroke-linejoin: miter; stroke-linecap: square"/>
   </g>
   <g id="patch_22">
    <path d="M 633.518125 218.247471 
L 633.518125 179.482414 
" style="fill: none; stroke: #000000; stroke-width: 0.8; stroke-linejoin: miter; stroke-linecap: square"/>
   </g>
   <g id="patch_23">
    <path d="M 42.828125 218.247471 
L 633.518125 218.247471 
" style="fill: none; stroke: #000000; stroke-width: 0.8; stroke-linejoin: miter; stroke-linecap: square"/>
   </g>
   <g id="patch_24">
    <path d="M 42.828125 179.482414 
L 633.518125 179.482414 
" style="fill: none; stroke: #000000; stroke-width: 0.8; stroke-linejoin: miter; stroke-linecap: square"/>
   </g>
   <g id="legend_4">
    <g id="patch_25">
     <path d="M 545.018125 218.460539 
L 626.518125 218.460539 
Q 628.518125 218.460539 628.518125 216.460539 
L 628.518125 186.482414 
Q 628.518125 184.482414 626.518125 184.482414 
L 545.018125 184.482414 
Q 543.018125 184.482414 543.018125 186.482414 
L 543.018125 216.460539 
Q 543.018125 218.460539 545.018125 218.460539 
z
" style="fill: #ffffff; opacity: 0.8; stroke: #cccccc; stroke-linejoin: miter"/>
    </g>
    <g id="line2d_47">
     <path d="M 547.018125 194.202726 
L 557.018125 194.202726 
L 567.018125 194.202726 
" style="fill: none; stroke: #1f77b4; stroke-width: 2; stroke-linecap: square"/>
    </g>
    <g id="text_15">
     <!-- $\hat\delta$ -->
     <g transform="translate(575.018125 197.702726) scale(0.1 -0.1)">
      <defs>
       <path id="DejaVuSans-Oblique-3b4" d="M 3472 4053 
Q 3197 4272 2450 4272 
Q 1659 4272 1588 3906 
Q 1531 3619 2328 3469 
Q 2953 3353 3253 3003 
Q 3616 2581 3447 1716 
Q 3284 888 2763 400 
Q 2238 -91 1488 -91 
Q 741 -91 406 400 
Q 72 888 241 1747 
Q 363 2384 891 2900 
Q 1097 3100 1353 3213 
Q 913 3459 1000 3900 
Q 1166 4750 2544 4750 
Q 3234 4750 3566 4531 
L 3472 4053 
z
M 1753 3056 
Q 1525 2966 1306 2738 
Q 969 2384 847 1747 
Q 722 1113 919 756 
Q 1119 397 1584 397 
Q 2044 397 2381 759 
Q 2722 1122 2838 1716 
Q 2956 2338 2731 2638 
Q 2491 2959 2103 2994 
Q 1906 3013 1753 3056 
z
" transform="scale(0.015625)"/>
      </defs>
      <use xlink:href="#DejaVuSans-302" transform="translate(59.417969 31.015625)"/>
      <use xlink:href="#DejaVuSans-Oblique-3b4" transform="translate(0 0.296875)"/>
     </g>
    </g>
    <g id="line2d_48">
     <path d="M 547.018125 208.880851 
L 557.018125 208.880851 
L 567.018125 208.880851 
" style="fill: none; stroke-dasharray: 5.55,2.4; stroke-dashoffset: 0; stroke: #000000; stroke-width: 1.5"/>
    </g>
    <g id="text_16">
     <!-- $\delta$ = 0.001 -->
     <g transform="translate(575.018125 212.380851) scale(0.1 -0.1)">
      <use xlink:href="#DejaVuSans-Oblique-3b4" transform="translate(0 0.78125)"/>
      <use xlink:href="#DejaVuSans-20" transform="translate(61.181641 0.78125)"/>
      <use xlink:href="#DejaVuSans-3d" transform="translate(92.96875 0.78125)"/>
      <use xlink:href="#DejaVuSans-20" transform="translate(176.757812 0.78125)"/>
      <use xlink:href="#DejaVuSans-30" transform="translate(208.544922 0.78125)"/>
      <use xlink:href="#DejaVuSans-2e" transform="translate(272.167969 0.78125)"/>
      <use xlink:href="#DejaVuSans-30" transform="translate(303.955078 0.78125)"/>
      <use xlink:href="#DejaVuSans-30" transform="translate(367.578125 0.78125)"/>
      <use xlink:href="#DejaVuSans-31" transform="translate(431.201172 0.78125)"/>
     </g>
    </g>
   </g>
  </g>
  <g id="axes_5">
   <g id="patch_26">
    <path d="M 42.828125 314.44 
L 633.518125 314.44 
L 633.518125 236.909885 
L 42.828125 236.909885 
z
" style="fill: #ffffff"/>
   </g>
   <g id="matplotlib.axis_9">
    <g id="xtick_25">
     <g id="line2d_49">
      <g>
       <use xlink:href="#mb623233c8b" x="69.67767" y="314.44" style="stroke: #000000; stroke-width: 0.8"/>
      </g>
     </g>
     <g id="text_17">
      <!-- 0 -->
      <g transform="translate(66.49642 329.038438) scale(0.1 -0.1)">
       <use xlink:href="#DejaVuSans-30"/>
      </g>
     </g>
    </g>
    <g id="xtick_26">
     <g id="line2d_50">
      <g>
       <use xlink:href="#mb623233c8b" x="177.183358" y="314.44" style="stroke: #000000; stroke-width: 0.8"/>
      </g>
     </g>
     <g id="text_18">
      <!-- 200 -->
      <g transform="translate(167.639608 329.038438) scale(0.1 -0.1)">
       <use xlink:href="#DejaVuSans-32"/>
       <use xlink:href="#DejaVuSans-30" x="63.623047"/>
       <use xlink:href="#DejaVuSans-30" x="127.246094"/>
      </g>
     </g>
    </g>
    <g id="xtick_27">
     <g id="line2d_51">
      <g>
       <use xlink:href="#mb623233c8b" x="284.689045" y="314.44" style="stroke: #000000; stroke-width: 0.8"/>
      </g>
     </g>
     <g id="text_19">
      <!-- 400 -->
      <g transform="translate(275.145295 329.038438) scale(0.1 -0.1)">
       <use xlink:href="#DejaVuSans-34"/>
       <use xlink:href="#DejaVuSans-30" x="63.623047"/>
       <use xlink:href="#DejaVuSans-30" x="127.246094"/>
      </g>
     </g>
    </g>
    <g id="xtick_28">
     <g id="line2d_52">
      <g>
       <use xlink:href="#mb623233c8b" x="392.194733" y="314.44" style="stroke: #000000; stroke-width: 0.8"/>
      </g>
     </g>
     <g id="text_20">
      <!-- 600 -->
      <g transform="translate(382.650983 329.038438) scale(0.1 -0.1)">
       <defs>
        <path id="DejaVuSans-36" d="M 2113 2584 
Q 1688 2584 1439 2293 
Q 1191 2003 1191 1497 
Q 1191 994 1439 701 
Q 1688 409 2113 409 
Q 2538 409 2786 701 
Q 3034 994 3034 1497 
Q 3034 2003 2786 2293 
Q 2538 2584 2113 2584 
z
M 3366 4563 
L 3366 3988 
Q 3128 4100 2886 4159 
Q 2644 4219 2406 4219 
Q 1781 4219 1451 3797 
Q 1122 3375 1075 2522 
Q 1259 2794 1537 2939 
Q 1816 3084 2150 3084 
Q 2853 3084 3261 2657 
Q 3669 2231 3669 1497 
Q 3669 778 3244 343 
Q 2819 -91 2113 -91 
Q 1303 -91 875 529 
Q 447 1150 447 2328 
Q 447 3434 972 4092 
Q 1497 4750 2381 4750 
Q 2619 4750 2861 4703 
Q 3103 4656 3366 4563 
z
" transform="scale(0.015625)"/>
       </defs>
       <use xlink:href="#DejaVuSans-36"/>
       <use xlink:href="#DejaVuSans-30" x="63.623047"/>
       <use xlink:href="#DejaVuSans-30" x="127.246094"/>
      </g>
     </g>
    </g>
    <g id="xtick_29">
     <g id="line2d_53">
      <g>
       <use xlink:href="#mb623233c8b" x="499.70042" y="314.44" style="stroke: #000000; stroke-width: 0.8"/>
      </g>
     </g>
     <g id="text_21">
      <!-- 800 -->
      <g transform="translate(490.15667 329.038438) scale(0.1 -0.1)">
       <defs>
        <path id="DejaVuSans-38" d="M 2034 2216 
Q 1584 2216 1326 1975 
Q 1069 1734 1069 1313 
Q 1069 891 1326 650 
Q 1584 409 2034 409 
Q 2484 409 2743 651 
Q 3003 894 3003 1313 
Q 3003 1734 2745 1975 
Q 2488 2216 2034 2216 
z
M 1403 2484 
Q 997 2584 770 2862 
Q 544 3141 544 3541 
Q 544 4100 942 4425 
Q 1341 4750 2034 4750 
Q 2731 4750 3128 4425 
Q 3525 4100 3525 3541 
Q 3525 3141 3298 2862 
Q 3072 2584 2669 2484 
Q 3125 2378 3379 2068 
Q 3634 1759 3634 1313 
Q 3634 634 3220 271 
Q 2806 -91 2034 -91 
Q 1263 -91 848 271 
Q 434 634 434 1313 
Q 434 1759 690 2068 
Q 947 2378 1403 2484 
z
M 1172 3481 
Q 1172 3119 1398 2916 
Q 1625 2713 2034 2713 
Q 2441 2713 2670 2916 
Q 2900 3119 2900 3481 
Q 2900 3844 2670 4047 
Q 2441 4250 2034 4250 
Q 1625 4250 1398 4047 
Q 1172 3844 1172 3481 
z
" transform="scale(0.015625)"/>
       </defs>
       <use xlink:href="#DejaVuSans-38"/>
       <use xlink:href="#DejaVuSans-30" x="63.623047"/>
       <use xlink:href="#DejaVuSans-30" x="127.246094"/>
      </g>
     </g>
    </g>
    <g id="xtick_30">
     <g id="line2d_54">
      <g>
       <use xlink:href="#mb623233c8b" x="607.206108" y="314.44" style="stroke: #000000; stroke-width: 0.8"/>
      </g>
     </g>
     <g id="text_22">
      <!-- 1000 -->
      <g transform="translate(594.481108 329.038438) scale(0.1 -0.1)">
       <use xlink:href="#DejaVuSans-31"/>
       <use xlink:href="#DejaVuSans-30" x="63.623047"/>
       <use xlink:href="#DejaVuSans-30" x="127.246094"/>
       <use xlink:href="#DejaVuSans-30" x="190.869141"/>
      </g>
     </g>
    </g>
    <g id="text_23">
     <!-- time (days) -->
     <g transform="translate(309.584062 342.716563) scale(0.1 -0.1)">
      <defs>
       <path id="DejaVuSans-74" d="M 1172 4494 
L 1172 3500 
L 2356 3500 
L 2356 3053 
L 1172 3053 
L 1172 1153 
Q 1172 725 1289 603 
Q 1406 481 1766 481 
L 2356 481 
L 2356 0 
L 1766 0 
Q 1100 0 847 248 
Q 594 497 594 1153 
L 594 3053 
L 172 3053 
L 172 3500 
L 594 3500 
L 594 4494 
L 1172 4494 
z
" transform="scale(0.015625)"/>
       <path id="DejaVuSans-69" d="M 603 3500 
L 1178 3500 
L 1178 0 
L 603 0 
L 603 3500 
z
M 603 4863 
L 1178 4863 
L 1178 4134 
L 603 4134 
L 603 4863 
z
" transform="scale(0.015625)"/>
       <path id="DejaVuSans-6d" d="M 3328 2828 
Q 3544 3216 3844 3400 
Q 4144 3584 4550 3584 
Q 5097 3584 5394 3201 
Q 5691 2819 5691 2113 
L 5691 0 
L 5113 0 
L 5113 2094 
Q 5113 2597 4934 2840 
Q 4756 3084 4391 3084 
Q 3944 3084 3684 2787 
Q 3425 2491 3425 1978 
L 3425 0 
L 2847 0 
L 2847 2094 
Q 2847 2600 2669 2842 
Q 2491 3084 2119 3084 
Q 1678 3084 1418 2786 
Q 1159 2488 1159 1978 
L 1159 0 
L 581 0 
L 581 3500 
L 1159 3500 
L 1159 2956 
Q 1356 3278 1631 3431 
Q 1906 3584 2284 3584 
Q 2666 3584 2933 3390 
Q 3200 3197 3328 2828 
z
" transform="scale(0.015625)"/>
       <path id="DejaVuSans-65" d="M 3597 1894 
L 3597 1613 
L 953 1613 
Q 991 1019 1311 708 
Q 1631 397 2203 397 
Q 2534 397 2845 478 
Q 3156 559 3463 722 
L 3463 178 
Q 3153 47 2828 -22 
Q 2503 -91 2169 -91 
Q 1331 -91 842 396 
Q 353 884 353 1716 
Q 353 2575 817 3079 
Q 1281 3584 2069 3584 
Q 2775 3584 3186 3129 
Q 3597 2675 3597 1894 
z
M 3022 2063 
Q 3016 2534 2758 2815 
Q 2500 3097 2075 3097 
Q 1594 3097 1305 2825 
Q 1016 2553 972 2059 
L 3022 2063 
z
" transform="scale(0.015625)"/>
       <path id="DejaVuSans-28" d="M 1984 4856 
Q 1566 4138 1362 3434 
Q 1159 2731 1159 2009 
Q 1159 1288 1364 580 
Q 1569 -128 1984 -844 
L 1484 -844 
Q 1016 -109 783 600 
Q 550 1309 550 2009 
Q 550 2706 781 3412 
Q 1013 4119 1484 4856 
L 1984 4856 
z
" transform="scale(0.015625)"/>
       <path id="DejaVuSans-64" d="M 2906 2969 
L 2906 4863 
L 3481 4863 
L 3481 0 
L 2906 0 
L 2906 525 
Q 2725 213 2448 61 
Q 2172 -91 1784 -91 
Q 1150 -91 751 415 
Q 353 922 353 1747 
Q 353 2572 751 3078 
Q 1150 3584 1784 3584 
Q 2172 3584 2448 3432 
Q 2725 3281 2906 2969 
z
M 947 1747 
Q 947 1113 1208 752 
Q 1469 391 1925 391 
Q 2381 391 2643 752 
Q 2906 1113 2906 1747 
Q 2906 2381 2643 2742 
Q 2381 3103 1925 3103 
Q 1469 3103 1208 2742 
Q 947 2381 947 1747 
z
" transform="scale(0.015625)"/>
       <path id="DejaVuSans-61" d="M 2194 1759 
Q 1497 1759 1228 1600 
Q 959 1441 959 1056 
Q 959 750 1161 570 
Q 1363 391 1709 391 
Q 2188 391 2477 730 
Q 2766 1069 2766 1631 
L 2766 1759 
L 2194 1759 
z
M 3341 1997 
L 3341 0 
L 2766 0 
L 2766 531 
Q 2569 213 2275 61 
Q 1981 -91 1556 -91 
Q 1019 -91 701 211 
Q 384 513 384 1019 
Q 384 1609 779 1909 
Q 1175 2209 1959 2209 
L 2766 2209 
L 2766 2266 
Q 2766 2663 2505 2880 
Q 2244 3097 1772 3097 
Q 1472 3097 1187 3025 
Q 903 2953 641 2809 
L 641 3341 
Q 956 3463 1253 3523 
Q 1550 3584 1831 3584 
Q 2591 3584 2966 3190 
Q 3341 2797 3341 1997 
z
" transform="scale(0.015625)"/>
       <path id="DejaVuSans-79" d="M 2059 -325 
Q 1816 -950 1584 -1140 
Q 1353 -1331 966 -1331 
L 506 -1331 
L 506 -850 
L 844 -850 
Q 1081 -850 1212 -737 
Q 1344 -625 1503 -206 
L 1606 56 
L 191 3500 
L 800 3500 
L 1894 763 
L 2988 3500 
L 3597 3500 
L 2059 -325 
z
" transform="scale(0.015625)"/>
       <path id="DejaVuSans-73" d="M 2834 3397 
L 2834 2853 
Q 2591 2978 2328 3040 
Q 2066 3103 1784 3103 
Q 1356 3103 1142 2972 
Q 928 2841 928 2578 
Q 928 2378 1081 2264 
Q 1234 2150 1697 2047 
L 1894 2003 
Q 2506 1872 2764 1633 
Q 3022 1394 3022 966 
Q 3022 478 2636 193 
Q 2250 -91 1575 -91 
Q 1294 -91 989 -36 
Q 684 19 347 128 
L 347 722 
Q 666 556 975 473 
Q 1284 391 1588 391 
Q 1994 391 2212 530 
Q 2431 669 2431 922 
Q 2431 1156 2273 1281 
Q 2116 1406 1581 1522 
L 1381 1569 
Q 847 1681 609 1914 
Q 372 2147 372 2553 
Q 372 3047 722 3315 
Q 1072 3584 1716 3584 
Q 2034 3584 2315 3537 
Q 2597 3491 2834 3397 
z
" transform="scale(0.015625)"/>
       <path id="DejaVuSans-29" d="M 513 4856 
L 1013 4856 
Q 1481 4119 1714 3412 
Q 1947 2706 1947 2009 
Q 1947 1309 1714 600 
Q 1481 -109 1013 -844 
L 513 -844 
Q 928 -128 1133 580 
Q 1338 1288 1338 2009 
Q 1338 2731 1133 3434 
Q 928 4138 513 4856 
z
" transform="scale(0.015625)"/>
      </defs>
      <use xlink:href="#DejaVuSans-74"/>
      <use xlink:href="#DejaVuSans-69" x="39.208984"/>
      <use xlink:href="#DejaVuSans-6d" x="66.992188"/>
      <use xlink:href="#DejaVuSans-65" x="164.404297"/>
      <use xlink:href="#DejaVuSans-20" x="225.927734"/>
      <use xlink:href="#DejaVuSans-28" x="257.714844"/>
      <use xlink:href="#DejaVuSans-64" x="296.728516"/>
      <use xlink:href="#DejaVuSans-61" x="360.205078"/>
      <use xlink:href="#DejaVuSans-79" x="421.484375"/>
      <use xlink:href="#DejaVuSans-73" x="480.664062"/>
      <use xlink:href="#DejaVuSans-29" x="532.763672"/>
     </g>
    </g>
   </g>
   <g id="matplotlib.axis_10">
    <g id="ytick_9">
     <g id="line2d_55">
      <g>
       <use xlink:href="#m0f6ab26e2c" x="42.828125" y="310.915932" style="stroke: #000000; stroke-width: 0.8"/>
      </g>
     </g>
     <g id="text_24">
      <!-- 0.00 -->
      <g transform="translate(13.5625 314.715151) scale(0.1 -0.1)">
       <use xlink:href="#DejaVuSans-30"/>
       <use xlink:href="#DejaVuSans-2e" x="63.623047"/>
       <use xlink:href="#DejaVuSans-30" x="95.410156"/>
       <use xlink:href="#DejaVuSans-30" x="159.033203"/>
      </g>
     </g>
    </g>
    <g id="ytick_10">
     <g id="line2d_56">
      <g>
       <use xlink:href="#m0f6ab26e2c" x="42.828125" y="282.400795" style="stroke: #000000; stroke-width: 0.8"/>
      </g>
     </g>
     <g id="text_25">
      <!-- 0.01 -->
      <g transform="translate(13.5625 286.200014) scale(0.1 -0.1)">
       <use xlink:href="#DejaVuSans-30"/>
       <use xlink:href="#DejaVuSans-2e" x="63.623047"/>
       <use xlink:href="#DejaVuSans-30" x="95.410156"/>
       <use xlink:href="#DejaVuSans-31" x="159.033203"/>
      </g>
     </g>
    </g>
    <g id="ytick_11">
     <g id="line2d_57">
      <g>
       <use xlink:href="#m0f6ab26e2c" x="42.828125" y="253.885658" style="stroke: #000000; stroke-width: 0.8"/>
      </g>
     </g>
     <g id="text_26">
      <!-- 0.02 -->
      <g transform="translate(13.5625 257.684876) scale(0.1 -0.1)">
       <use xlink:href="#DejaVuSans-30"/>
       <use xlink:href="#DejaVuSans-2e" x="63.623047"/>
       <use xlink:href="#DejaVuSans-30" x="95.410156"/>
       <use xlink:href="#DejaVuSans-32" x="159.033203"/>
      </g>
     </g>
    </g>
   </g>
   <g id="line2d_58">
    <path d="M 69.67767 310.886647 
L 107.84219 310.721806 
L 126.118156 310.435775 
L 138.48131 310.030063 
L 147.619294 309.523093 
L 155.144692 308.894393 
L 161.595033 308.134427 
L 166.970318 307.287588 
L 171.808074 306.307824 
L 176.108301 305.21791 
L 179.871 304.055989 
L 183.633699 302.658776 
L 186.85887 301.245996 
L 190.08404 299.619163 
L 193.309211 297.762821 
L 196.534382 295.667429 
L 199.759552 293.334222 
L 203.522251 290.333732 
L 207.822479 286.608044 
L 223.948332 272.254066 
L 228.24856 268.936155 
L 232.011259 266.305573 
L 235.773958 263.921794 
L 240.074185 261.473021 
L 242.761827 260.138025 
L 244.911941 259.425972 
L 247.599583 258.843445 
L 250.824754 258.38777 
L 255.66251 257.939765 
L 263.187908 257.483973 
L 273.938477 257.073464 
L 287.376688 256.792726 
L 305.652655 256.649718 
L 333.604133 256.677755 
L 404.020359 257.047901 
L 521.739086 257.805132 
L 540.552582 258.450227 
L 572.804288 259.805344 
L 606.66858 261.296347 
L 606.66858 261.296347 
" clip-path="url(#p28d665a507)" style="fill: none; stroke: #1f77b4; stroke-width: 2; stroke-linecap: square"/>
   </g>
   <g id="line2d_59">
    <path d="M 69.67767 310.915904 
L 177.720886 310.799109 
L 191.696626 310.616851 
L 197.609439 310.316442 
L 201.909666 309.892848 
L 205.672365 309.300019 
L 208.897536 308.569693 
L 212.122706 307.588133 
L 214.810349 306.553552 
L 217.497991 305.310617 
L 220.723161 303.545498 
L 223.948332 301.503552 
L 227.711031 298.828028 
L 232.548787 295.062014 
L 242.224299 287.149098 
L 244.911941 284.6604 
L 250.287225 279.604628 
L 253.512396 276.901352 
L 256.737567 274.522605 
L 259.962737 272.460678 
L 263.187908 270.689544 
L 266.413079 269.178252 
L 269.638249 267.896464 
L 273.400948 266.653812 
L 277.163647 265.646104 
L 281.463875 264.738544 
L 285.764102 264.050221 
L 290.601858 263.49295 
L 295.977143 263.093593 
L 302.427484 262.855766 
L 309.415354 262.825278 
L 318.015809 263.02324 
L 328.228849 263.488154 
L 342.204588 264.366882 
L 364.243254 266.009611 
L 421.758797 270.362728 
L 454.010503 272.542912 
L 487.337266 274.568939 
L 514.213688 276.002839 
L 549.153037 277.542862 
L 579.254629 279.205309 
L 606.66858 280.775268 
L 606.66858 280.775268 
" clip-path="url(#p28d665a507)" style="fill: none; stroke: #ff7f0e; stroke-width: 2; stroke-linecap: square"/>
   </g>
   <g id="line2d_60">
    <path d="M 69.67767 308.063047 
L 183.633699 307.995286 
L 185.246285 307.754157 
L 187.396398 307.083896 
L 190.08404 305.97515 
L 192.771683 304.584781 
L 194.921796 303.238593 
L 197.07191 301.65982 
L 199.222024 299.829575 
L 201.372138 297.737457 
L 203.522251 295.378926 
L 206.209894 292.077253 
L 209.435064 287.666646 
L 213.735292 281.291729 
L 220.185633 271.696973 
L 223.410804 267.333091 
L 226.098446 264.058453 
L 228.786088 261.157574 
L 231.47373 258.641027 
L 234.161372 256.49278 
L 236.849015 254.684589 
L 239.536657 253.179044 
L 241.68677 252.163656 
L 243.836884 246.92936 
L 244.911941 245.13705 
L 245.986998 243.798455 
L 247.062055 242.805303 
L 248.137112 242.07421 
L 249.749697 241.329077 
L 251.362282 240.875188 
L 253.512396 240.559819 
L 256.200038 240.435832 
L 259.962737 240.518015 
L 265.87555 240.898897 
L 276.08859 241.81522 
L 290.601858 243.335539 
L 326.616264 247.416706 
L 359.405498 251.002236 
L 387.356977 253.823081 
L 414.770927 256.364967 
L 443.259935 258.782536 
L 472.823999 261.069288 
L 504.000648 263.258502 
L 509.375932 263.513071 
L 517.438859 263.578296 
L 528.189428 263.966267 
L 557.215963 265.323976 
L 606.66858 267.600756 
L 606.66858 267.600756 
" clip-path="url(#p28d665a507)" style="fill: none; stroke: #2ca02c; stroke-opacity: 0.5; stroke-width: 1.5; stroke-linecap: square"/>
   </g>
   <g id="line2d_61">
    <path d="M 69.67767 253.885658 
L 606.66858 253.885658 
L 606.66858 253.885658 
" clip-path="url(#p28d665a507)" style="fill: none; stroke-dasharray: 5.55,2.4; stroke-dashoffset: 0; stroke: #000000; stroke-opacity: 0.5; stroke-width: 1.5"/>
   </g>
   <g id="patch_27">
    <path d="M 42.828125 314.44 
L 42.828125 236.909885 
" style="fill: none; stroke: #000000; stroke-width: 0.8; stroke-linejoin: miter; stroke-linecap: square"/>
   </g>
   <g id="patch_28">
    <path d="M 633.518125 314.44 
L 633.518125 236.909885 
" style="fill: none; stroke: #000000; stroke-width: 0.8; stroke-linejoin: miter; stroke-linecap: square"/>
   </g>
   <g id="patch_29">
    <path d="M 42.828125 314.44 
L 633.518125 314.44 
" style="fill: none; stroke: #000000; stroke-width: 0.8; stroke-linejoin: miter; stroke-linecap: square"/>
   </g>
   <g id="patch_30">
    <path d="M 42.828125 236.909885 
L 633.518125 236.909885 
" style="fill: none; stroke: #000000; stroke-width: 0.8; stroke-linejoin: miter; stroke-linecap: square"/>
   </g>
   <g id="legend_5">
    <g id="patch_31">
     <path d="M 49.828125 303.622385 
L 100.328125 303.622385 
Q 102.328125 303.622385 102.328125 301.622385 
L 102.328125 243.909885 
Q 102.328125 241.909885 100.328125 241.909885 
L 49.828125 241.909885 
Q 47.828125 241.909885 47.828125 243.909885 
L 47.828125 301.622385 
Q 47.828125 303.622385 49.828125 303.622385 
z
" style="fill: #ffffff; opacity: 0.8; stroke: #cccccc; stroke-linejoin: miter"/>
    </g>
    <g id="line2d_62">
     <path d="M 51.828125 250.008323 
L 61.828125 250.008323 
L 71.828125 250.008323 
" style="fill: none; stroke: #1f77b4; stroke-width: 2; stroke-linecap: square"/>
    </g>
    <g id="text_27">
     <!-- $I$ -->
     <g transform="translate(79.828125 253.508323) scale(0.1 -0.1)">
      <use xlink:href="#DejaVuSans-Oblique-49" transform="translate(0 0.09375)"/>
     </g>
    </g>
    <g id="line2d_63">
     <path d="M 51.828125 264.686448 
L 61.828125 264.686448 
L 71.828125 264.686448 
" style="fill: none; stroke: #ff7f0e; stroke-width: 2; stroke-linecap: square"/>
    </g>
    <g id="text_28">
     <!-- $Q$ -->
     <g transform="translate(79.828125 268.186448) scale(0.1 -0.1)">
      <defs>
       <path id="DejaVuSans-Oblique-51" d="M 2309 -84 
Q 2275 -88 2237 -89 
Q 2200 -91 2125 -91 
Q 1250 -91 756 411 
Q 263 913 263 1797 
Q 263 2319 452 2844 
Q 641 3369 978 3788 
Q 1369 4269 1858 4509 
Q 2347 4750 2938 4750 
Q 3794 4750 4287 4245 
Q 4781 3741 4781 2869 
Q 4781 1928 4265 1147 
Q 3750 366 2919 44 
L 3553 -825 
L 2847 -825 
L 2309 -84 
z
M 2919 4238 
Q 2400 4238 2003 3986 
Q 1606 3734 1313 3219 
Q 1125 2891 1026 2522 
Q 928 2153 928 1778 
Q 928 1128 1239 775 
Q 1550 422 2119 422 
Q 2631 422 3032 676 
Q 3434 931 3719 1434 
Q 3909 1772 4009 2142 
Q 4109 2513 4109 2881 
Q 4109 3528 3796 3883 
Q 3484 4238 2919 4238 
z
" transform="scale(0.015625)"/>
      </defs>
      <use xlink:href="#DejaVuSans-Oblique-51" transform="translate(0 0.78125)"/>
     </g>
    </g>
    <g id="line2d_64">
     <path d="M 51.828125 279.364573 
L 61.828125 279.364573 
L 71.828125 279.364573 
" style="fill: none; stroke: #2ca02c; stroke-opacity: 0.5; stroke-width: 1.5; stroke-linecap: square"/>
    </g>
    <g id="text_29">
     <!-- $u$ -->
     <g transform="translate(79.828125 282.864573) scale(0.1 -0.1)">
      <defs>
       <path id="DejaVuSans-Oblique-75" d="M 428 1388 
L 838 3500 
L 1416 3500 
L 1006 1409 
Q 975 1256 961 1147 
Q 947 1038 947 966 
Q 947 700 1109 554 
Q 1272 409 1569 409 
Q 2031 409 2368 721 
Q 2706 1034 2809 1563 
L 3194 3500 
L 3769 3500 
L 3091 0 
L 2516 0 
L 2631 550 
Q 2388 244 2052 76 
Q 1716 -91 1338 -91 
Q 878 -91 622 161 
Q 366 413 366 863 
Q 366 956 381 1097 
Q 397 1238 428 1388 
z
" transform="scale(0.015625)"/>
      </defs>
      <use xlink:href="#DejaVuSans-Oblique-75" transform="translate(0 0.3125)"/>
     </g>
    </g>
    <g id="line2d_65">
     <path d="M 51.828125 294.042698 
L 61.828125 294.042698 
L 71.828125 294.042698 
" style="fill: none; stroke-dasharray: 5.55,2.4; stroke-dashoffset: 0; stroke: #000000; stroke-opacity: 0.5; stroke-width: 1.5"/>
    </g>
    <g id="text_30">
     <!-- $I_{\max}$ -->
     <g transform="translate(79.828125 297.542698) scale(0.1 -0.1)">
      <defs>
       <path id="DejaVuSans-78" d="M 3513 3500 
L 2247 1797 
L 3578 0 
L 2900 0 
L 1881 1375 
L 863 0 
L 184 0 
L 1544 1831 
L 300 3500 
L 978 3500 
L 1906 2253 
L 2834 3500 
L 3513 3500 
z
" transform="scale(0.015625)"/>
      </defs>
      <use xlink:href="#DejaVuSans-Oblique-49" transform="translate(0 0.09375)"/>
      <use xlink:href="#DejaVuSans-6d" transform="translate(29.492188 -16.3125) scale(0.7)"/>
      <use xlink:href="#DejaVuSans-61" transform="translate(97.680664 -16.3125) scale(0.7)"/>
      <use xlink:href="#DejaVuSans-78" transform="translate(140.576172 -16.3125) scale(0.7)"/>
     </g>
    </g>
   </g>
  </g>
 </g>
 <defs>
  <clipPath id="padb02d0c16">
   <rect x="42.828125" y="7.2" width="590.69" height="38.765057"/>
  </clipPath>
  <clipPath id="pe5c82a910b">
   <rect x="42.828125" y="64.627471" width="590.69" height="38.765057"/>
  </clipPath>
  <clipPath id="p00186d4094">
   <rect x="42.828125" y="122.054943" width="590.69" height="38.765057"/>
  </clipPath>
  <clipPath id="pa6c0efacbd">
   <rect x="42.828125" y="179.482414" width="590.69" height="38.765057"/>
  </clipPath>
  <clipPath id="p28d665a507">
   <rect x="42.828125" y="236.909885" width="590.69" height="77.530115"/>
  </clipPath>
 </defs>
</svg>
