<?xml version="1.0" encoding="utf-8" standalone="no"?>
<!DOCTYPE svg PUBLIC "-//W3C//DTD SVG 1.1//EN"
  "http://www.w3.org/Graphics/SVG/1.1/DTD/svg11.dtd">
<svg xmlns:xlink="http://www.w3.org/1999/xlink" width="601.665625pt" height="308.278125pt" viewBox="0 0 601.665625 308.278125" xmlns="http://www.w3.org/2000/svg" version="1.1">
 <metadata>
  <rdf:RDF xmlns:dc="http://purl.org/dc/elements/1.1/" xmlns:cc="http://creativecommons.org/ns#" xmlns:rdf="http://www.w3.org/1999/02/22-rdf-syntax-ns#">
   <cc:Work>
    <dc:type rdf:resource="http://purl.org/dc/dcmitype/StillImage"/>
    <dc:date>2025-05-29T12:10:07.317526</dc:date>
    <dc:format>image/svg+xml</dc:format>
    <dc:creator>
     <cc:Agent>
      <dc:title>Matplotlib v3.6.3, https://matplotlib.org/</dc:title>
     </cc:Agent>
    </dc:creator>
   </cc:Work>
  </rdf:RDF>
 </metadata>
 <defs>
  <style type="text/css">*{stroke-linejoin: round; stroke-linecap: butt}</style>
 </defs>
 <g id="figure_1">
  <g id="patch_1">
   <path d="M 0 308.278125 
L 601.665625 308.278125 
L 601.665625 0 
L 0 0 
z
" style="fill: #ffffff"/>
  </g>
  <g id="axes_1">
   <g id="patch_2">
    <path d="M 36.465625 67.46087 
L 594.465625 67.46087 
L 594.465625 7.2 
L 36.465625 7.2 
z
" style="fill: #ffffff"/>
   </g>
   <g id="matplotlib.axis_1">
    <g id="xtick_1">
     <g id="line2d_1">
      <defs>
       <path id="mf9a4abc98c" d="M 0 0 
L 0 3.5 
" style="stroke: #000000; stroke-width: 0.8"/>
      </defs>
      <g>
       <use xlink:href="#mf9a4abc98c" x="61.829261" y="67.46087" style="stroke: #000000; stroke-width: 0.8"/>
      </g>
     </g>
    </g>
    <g id="xtick_2">
     <g id="line2d_2">
      <g>
       <use xlink:href="#mf9a4abc98c" x="146.657477" y="67.46087" style="stroke: #000000; stroke-width: 0.8"/>
      </g>
     </g>
    </g>
    <g id="xtick_3">
     <g id="line2d_3">
      <g>
       <use xlink:href="#mf9a4abc98c" x="231.485692" y="67.46087" style="stroke: #000000; stroke-width: 0.8"/>
      </g>
     </g>
    </g>
    <g id="xtick_4">
     <g id="line2d_4">
      <g>
       <use xlink:href="#mf9a4abc98c" x="316.313907" y="67.46087" style="stroke: #000000; stroke-width: 0.8"/>
      </g>
     </g>
    </g>
    <g id="xtick_5">
     <g id="line2d_5">
      <g>
       <use xlink:href="#mf9a4abc98c" x="401.142122" y="67.46087" style="stroke: #000000; stroke-width: 0.8"/>
      </g>
     </g>
    </g>
    <g id="xtick_6">
     <g id="line2d_6">
      <g>
       <use xlink:href="#mf9a4abc98c" x="485.970338" y="67.46087" style="stroke: #000000; stroke-width: 0.8"/>
      </g>
     </g>
    </g>
    <g id="xtick_7">
     <g id="line2d_7">
      <g>
       <use xlink:href="#mf9a4abc98c" x="570.798553" y="67.46087" style="stroke: #000000; stroke-width: 0.8"/>
      </g>
     </g>
    </g>
   </g>
   <g id="matplotlib.axis_2">
    <g id="ytick_1">
     <g id="line2d_8">
      <defs>
       <path id="me3f2a040f2" d="M 0 0 
L -3.5 0 
" style="stroke: #000000; stroke-width: 0.8"/>
      </defs>
      <g>
       <use xlink:href="#me3f2a040f2" x="36.465625" y="64.721739" style="stroke: #000000; stroke-width: 0.8"/>
      </g>
     </g>
     <g id="text_1">
      <!-- 0.0 -->
      <g transform="translate(13.5625 68.520958) scale(0.1 -0.1)">
       <defs>
        <path id="DejaVuSans-30" d="M 2034 4250 
Q 1547 4250 1301 3770 
Q 1056 3291 1056 2328 
Q 1056 1369 1301 889 
Q 1547 409 2034 409 
Q 2525 409 2770 889 
Q 3016 1369 3016 2328 
Q 3016 3291 2770 3770 
Q 2525 4250 2034 4250 
z
M 2034 4750 
Q 2819 4750 3233 4129 
Q 3647 3509 3647 2328 
Q 3647 1150 3233 529 
Q 2819 -91 2034 -91 
Q 1250 -91 836 529 
Q 422 1150 422 2328 
Q 422 3509 836 4129 
Q 1250 4750 2034 4750 
z
" transform="scale(0.015625)"/>
        <path id="DejaVuSans-2e" d="M 684 794 
L 1344 794 
L 1344 0 
L 684 0 
L 684 794 
z
" transform="scale(0.015625)"/>
       </defs>
       <use xlink:href="#DejaVuSans-30"/>
       <use xlink:href="#DejaVuSans-2e" x="63.623047"/>
       <use xlink:href="#DejaVuSans-30" x="95.410156"/>
      </g>
     </g>
    </g>
    <g id="ytick_2">
     <g id="line2d_9">
      <g>
       <use xlink:href="#me3f2a040f2" x="36.465625" y="40.355836" style="stroke: #000000; stroke-width: 0.8"/>
      </g>
     </g>
     <g id="text_2">
      <!-- 0.1 -->
      <g transform="translate(13.5625 44.155055) scale(0.1 -0.1)">
       <defs>
        <path id="DejaVuSans-31" d="M 794 531 
L 1825 531 
L 1825 4091 
L 703 3866 
L 703 4441 
L 1819 4666 
L 2450 4666 
L 2450 531 
L 3481 531 
L 3481 0 
L 794 0 
L 794 531 
z
" transform="scale(0.015625)"/>
       </defs>
       <use xlink:href="#DejaVuSans-30"/>
       <use xlink:href="#DejaVuSans-2e" x="63.623047"/>
       <use xlink:href="#DejaVuSans-31" x="95.410156"/>
      </g>
     </g>
    </g>
    <g id="ytick_3">
     <g id="line2d_10">
      <g>
       <use xlink:href="#me3f2a040f2" x="36.465625" y="15.989933" style="stroke: #000000; stroke-width: 0.8"/>
      </g>
     </g>
     <g id="text_3">
      <!-- 0.2 -->
      <g transform="translate(13.5625 19.789151) scale(0.1 -0.1)">
       <defs>
        <path id="DejaVuSans-32" d="M 1228 531 
L 3431 531 
L 3431 0 
L 469 0 
L 469 531 
Q 828 903 1448 1529 
Q 2069 2156 2228 2338 
Q 2531 2678 2651 2914 
Q 2772 3150 2772 3378 
Q 2772 3750 2511 3984 
Q 2250 4219 1831 4219 
Q 1534 4219 1204 4116 
Q 875 4013 500 3803 
L 500 4441 
Q 881 4594 1212 4672 
Q 1544 4750 1819 4750 
Q 2544 4750 2975 4387 
Q 3406 4025 3406 3419 
Q 3406 3131 3298 2873 
Q 3191 2616 2906 2266 
Q 2828 2175 2409 1742 
Q 1991 1309 1228 531 
z
" transform="scale(0.015625)"/>
       </defs>
       <use xlink:href="#DejaVuSans-30"/>
       <use xlink:href="#DejaVuSans-2e" x="63.623047"/>
       <use xlink:href="#DejaVuSans-32" x="95.410156"/>
      </g>
     </g>
    </g>
   </g>
   <g id="line2d_11">
    <path d="M 61.829261 64.721739 
L 63.525826 9.93913 
L 65.22239 12.29445 
L 66.918954 18.148352 
L 68.615519 27.060147 
L 70.312083 26.967045 
L 72.008647 38.405687 
L 73.705212 35.159783 
L 75.401776 39.426284 
L 77.09834 44.237631 
L 78.794904 41.811869 
L 80.491469 41.669937 
L 82.188033 45.883584 
L 83.884597 43.203823 
L 85.581162 43.950582 
L 87.277726 48.840512 
L 88.97429 47.919205 
L 90.670855 45.125581 
L 94.063983 48.521312 
L 95.760547 48.885151 
L 97.457112 48.65978 
L 99.153676 48.826986 
L 100.85024 48.151142 
L 102.546805 51.148466 
L 104.243369 51.041024 
L 105.939933 50.548084 
L 107.636498 49.84631 
L 109.333062 49.672216 
L 111.029626 49.847267 
L 112.726191 50.607782 
L 114.422755 50.301221 
L 116.119319 51.810664 
L 117.815883 50.450772 
L 119.512448 50.774108 
L 121.209012 52.817359 
L 126.298705 50.938448 
L 127.995269 51.305741 
L 129.691834 52.173603 
L 131.388398 51.471241 
L 133.084962 52.687999 
L 134.781526 51.935596 
L 136.478091 53.382143 
L 138.174655 52.82728 
L 139.871219 52.991776 
L 141.567784 52.853543 
L 143.264348 52.873473 
L 144.960912 53.023393 
L 146.657477 52.466876 
L 148.354041 52.848864 
L 150.050605 53.488519 
L 151.74717 52.616949 
L 153.443734 53.74002 
L 155.140298 53.404606 
L 156.836862 53.462534 
L 158.533427 53.775865 
L 160.229991 53.761641 
L 161.926555 52.77619 
L 165.319684 53.298235 
L 167.016248 52.613782 
L 168.712813 53.401204 
L 170.409377 52.61993 
L 175.49907 53.953256 
L 177.195634 53.215762 
L 178.892198 53.100739 
L 180.588763 54.342661 
L 182.285327 53.987492 
L 183.981891 52.755307 
L 185.678456 53.352595 
L 189.071584 53.792028 
L 190.768149 53.432871 
L 192.464713 53.739447 
L 195.857841 52.982941 
L 197.554406 53.562542 
L 199.25097 52.964622 
L 200.947534 54.021601 
L 204.340663 53.650456 
L 207.733792 53.806501 
L 209.430356 54.364451 
L 211.12692 54.011399 
L 212.823485 54.345001 
L 214.520049 54.252316 
L 217.913177 54.317501 
L 219.609742 53.421989 
L 221.306306 53.911142 
L 226.395999 53.821332 
L 228.092563 54.029754 
L 229.789128 54.100777 
L 231.485692 53.933623 
L 233.182256 54.376021 
L 236.575385 54.237457 
L 238.271949 53.928196 
L 239.968513 54.332434 
L 241.665078 54.113223 
L 243.361642 54.046528 
L 246.754771 54.331349 
L 248.451335 54.127926 
L 251.844464 54.399133 
L 255.237592 54.395847 
L 256.934156 54.009854 
L 258.630721 53.998433 
L 260.327285 54.282075 
L 263.720414 54.170802 
L 265.416978 54.461369 
L 267.113542 54.236519 
L 270.506671 54.161529 
L 272.203235 54.456742 
L 273.8998 54.540542 
L 275.596364 54.510463 
L 277.292928 54.289141 
L 278.989492 54.334485 
L 282.382621 54.693131 
L 284.079185 54.68678 
L 285.77575 54.407171 
L 287.472314 54.476867 
L 289.168878 54.305369 
L 294.258571 54.257182 
L 295.955135 54.419137 
L 302.741393 54.600932 
L 304.437957 54.219873 
L 311.224214 54.554119 
L 312.920779 54.398219 
L 314.617343 54.469016 
L 316.313907 54.764002 
L 323.100164 54.639031 
L 324.796729 54.328266 
L 328.189857 54.381364 
L 329.886422 54.521914 
L 331.582986 54.450257 
L 333.27955 54.669538 
L 334.976115 54.444852 
L 336.672679 54.479095 
L 338.369243 54.712431 
L 340.065807 54.255058 
L 341.762372 54.554398 
L 343.458936 54.331899 
L 345.1555 54.775222 
L 346.852065 55.008677 
L 348.548629 54.544099 
L 351.941758 54.595077 
L 355.334886 54.412267 
L 360.424579 54.780478 
L 363.817708 54.555472 
L 365.514272 54.737511 
L 367.210836 54.742831 
L 368.907401 54.464988 
L 370.603965 54.488435 
L 372.300529 54.76399 
L 373.997094 54.546316 
L 375.693658 54.705273 
L 379.086786 54.568926 
L 380.783351 54.649113 
L 382.479915 54.886101 
L 384.176479 54.421149 
L 385.873044 54.791927 
L 389.266172 54.47891 
L 390.962737 54.733132 
L 394.355865 54.713514 
L 396.052429 54.569699 
L 399.445558 54.75792 
L 401.142122 54.653311 
L 402.838687 54.88765 
L 409.624944 54.681782 
L 411.321508 54.83458 
L 413.018073 54.710973 
L 416.411201 54.83228 
L 419.80433 54.740867 
L 421.500894 54.629651 
L 423.197458 54.309257 
L 424.894023 54.733201 
L 431.68028 54.440293 
L 433.376844 54.81487 
L 435.073409 54.946302 
L 438.466537 54.627835 
L 440.163101 54.749695 
L 441.859666 54.511464 
L 443.55623 54.792848 
L 445.252794 54.795512 
L 446.949359 54.471218 
L 448.645923 54.91291 
L 450.342487 54.89731 
L 452.039052 54.996547 
L 453.735616 54.593922 
L 455.43218 54.765597 
L 457.128744 54.748979 
L 458.825309 54.416084 
L 460.521873 55.016246 
L 462.218437 55.097857 
L 463.915002 54.639019 
L 467.30813 54.618935 
L 469.004695 54.767405 
L 472.397823 54.731561 
L 474.094388 55.128956 
L 477.487516 54.861272 
L 479.18408 54.821212 
L 480.880645 55.258358 
L 484.273773 54.619155 
L 485.970338 54.861375 
L 487.666902 54.819918 
L 489.363466 55.166623 
L 491.060031 54.805981 
L 492.756595 55.008748 
L 501.239416 54.834725 
L 502.935981 55.260267 
L 504.632545 54.936664 
L 506.329109 55.030365 
L 508.025674 54.917446 
L 509.722238 55.140686 
L 511.418802 55.23686 
L 514.811931 55.013999 
L 516.508495 54.913156 
L 521.598188 55.000349 
L 523.294752 54.887241 
L 526.687881 55.029968 
L 528.384445 54.960996 
L 530.08101 55.113599 
L 531.777574 54.847173 
L 533.474138 54.970949 
L 536.867267 54.99125 
L 538.563831 55.1134 
L 540.260395 54.888369 
L 541.95696 54.987112 
L 545.350088 54.96247 
L 548.743217 54.967994 
L 553.83291 54.961931 
L 560.619167 54.973578 
L 569.101989 54.980384 
L 569.101989 54.980384 
" clip-path="url(#p07a35f9409)" style="fill: none; stroke: #1f77b4; stroke-width: 2; stroke-linecap: square"/>
   </g>
   <g id="line2d_12">
    <path d="M 61.829261 54.975378 
L 569.101989 54.975378 
L 569.101989 54.975378 
" clip-path="url(#p07a35f9409)" style="fill: none; stroke-dasharray: 5.55,2.4; stroke-dashoffset: 0; stroke: #000000; stroke-width: 1.5"/>
   </g>
   <g id="patch_3">
    <path d="M 36.465625 67.46087 
L 36.465625 7.2 
" style="fill: none; stroke: #000000; stroke-width: 0.8; stroke-linejoin: miter; stroke-linecap: square"/>
   </g>
   <g id="patch_4">
    <path d="M 594.465625 67.46087 
L 594.465625 7.2 
" style="fill: none; stroke: #000000; stroke-width: 0.8; stroke-linejoin: miter; stroke-linecap: square"/>
   </g>
   <g id="patch_5">
    <path d="M 36.465625 67.46087 
L 594.465625 67.46087 
" style="fill: none; stroke: #000000; stroke-width: 0.8; stroke-linejoin: miter; stroke-linecap: square"/>
   </g>
   <g id="patch_6">
    <path d="M 36.465625 7.2 
L 594.465625 7.2 
" style="fill: none; stroke: #000000; stroke-width: 0.8; stroke-linejoin: miter; stroke-linecap: square"/>
   </g>
   <g id="legend_1">
    <g id="patch_7">
     <path d="M 512.065625 48.5 
L 587.465625 48.5 
Q 589.465625 48.5 589.465625 46.5 
L 589.465625 14.2 
Q 589.465625 12.2 587.465625 12.2 
L 512.065625 12.2 
Q 510.065625 12.2 510.065625 14.2 
L 510.065625 46.5 
Q 510.065625 48.5 512.065625 48.5 
z
" style="fill: #ffffff; opacity: 0.8; stroke: #cccccc; stroke-linejoin: miter"/>
    </g>
    <g id="line2d_13">
     <path d="M 514.065625 24.1 
L 524.065625 24.1 
L 534.065625 24.1 
" style="fill: none; stroke: #1f77b4; stroke-width: 2; stroke-linecap: square"/>
    </g>
    <g id="text_4">
     <!-- $\hat\beta$ -->
     <g transform="translate(542.065625 27.6) scale(0.1 -0.1)">
      <defs>
       <path id="DejaVuSans-302" d="M -1831 5119 
L -1369 5119 
L -603 3944 
L -1038 3944 
L -1600 4709 
L -2163 3944 
L -2597 3944 
L -1831 5119 
z
M -1600 3584 
L -1600 3584 
z
" transform="scale(0.015625)"/>
       <path id="DejaVuSans-Oblique-3b2" d="M 872 216 
L 572 -1331 
L -6 -1331 
L 928 3478 
Q 1206 4903 2538 4903 
Q 3888 4903 3659 3700 
Q 3503 2844 2894 2531 
Q 3713 2250 3553 1416 
Q 3272 -69 1759 -66 
Q 1097 -63 872 216 
z
M 1019 966 
Q 1259 422 1875 425 
Q 2775 425 2966 1406 
Q 3138 2288 1675 2219 
L 1778 2750 
Q 2909 2731 3106 3750 
Q 3241 4438 2509 4434 
Q 1691 4434 1503 3459 
L 1019 966 
z
" transform="scale(0.015625)"/>
      </defs>
      <use xlink:href="#DejaVuSans-302" transform="translate(62.785156 34.015625)"/>
      <use xlink:href="#DejaVuSans-Oblique-3b2" transform="translate(0 0.90625)"/>
     </g>
    </g>
    <g id="line2d_14">
     <path d="M 514.065625 38.9 
L 524.065625 38.9 
L 534.065625 38.9 
" style="fill: none; stroke-dasharray: 5.55,2.4; stroke-dashoffset: 0; stroke: #000000; stroke-width: 1.5"/>
    </g>
    <g id="text_5">
     <!-- $\beta$ = 0.04 -->
     <g transform="translate(542.065625 42.4) scale(0.1 -0.1)">
      <defs>
       <path id="DejaVuSans-20" transform="scale(0.015625)"/>
       <path id="DejaVuSans-3d" d="M 678 2906 
L 4684 2906 
L 4684 2381 
L 678 2381 
L 678 2906 
z
M 678 1631 
L 4684 1631 
L 4684 1100 
L 678 1100 
L 678 1631 
z
" transform="scale(0.015625)"/>
       <path id="DejaVuSans-34" d="M 2419 4116 
L 825 1625 
L 2419 1625 
L 2419 4116 
z
M 2253 4666 
L 3047 4666 
L 3047 1625 
L 3713 1625 
L 3713 1100 
L 3047 1100 
L 3047 0 
L 2419 0 
L 2419 1100 
L 313 1100 
L 313 1709 
L 2253 4666 
z
" transform="scale(0.015625)"/>
      </defs>
      <use xlink:href="#DejaVuSans-Oblique-3b2" transform="translate(0 0.390625)"/>
      <use xlink:href="#DejaVuSans-20" transform="translate(63.818359 0.390625)"/>
      <use xlink:href="#DejaVuSans-3d" transform="translate(95.605469 0.390625)"/>
      <use xlink:href="#DejaVuSans-20" transform="translate(179.394531 0.390625)"/>
      <use xlink:href="#DejaVuSans-30" transform="translate(211.181641 0.390625)"/>
      <use xlink:href="#DejaVuSans-2e" transform="translate(274.804688 0.390625)"/>
      <use xlink:href="#DejaVuSans-30" transform="translate(306.591797 0.390625)"/>
      <use xlink:href="#DejaVuSans-34" transform="translate(370.214844 0.390625)"/>
     </g>
    </g>
   </g>
  </g>
  <g id="axes_2">
   <g id="patch_8">
    <path d="M 36.465625 139.773913 
L 594.465625 139.773913 
L 594.465625 79.513043 
L 36.465625 79.513043 
z
" style="fill: #ffffff"/>
   </g>
   <g id="matplotlib.axis_3">
    <g id="xtick_8">
     <g id="line2d_15">
      <g>
       <use xlink:href="#mf9a4abc98c" x="61.829261" y="139.773913" style="stroke: #000000; stroke-width: 0.8"/>
      </g>
     </g>
    </g>
    <g id="xtick_9">
     <g id="line2d_16">
      <g>
       <use xlink:href="#mf9a4abc98c" x="146.657477" y="139.773913" style="stroke: #000000; stroke-width: 0.8"/>
      </g>
     </g>
    </g>
    <g id="xtick_10">
     <g id="line2d_17">
      <g>
       <use xlink:href="#mf9a4abc98c" x="231.485692" y="139.773913" style="stroke: #000000; stroke-width: 0.8"/>
      </g>
     </g>
    </g>
    <g id="xtick_11">
     <g id="line2d_18">
      <g>
       <use xlink:href="#mf9a4abc98c" x="316.313907" y="139.773913" style="stroke: #000000; stroke-width: 0.8"/>
      </g>
     </g>
    </g>
    <g id="xtick_12">
     <g id="line2d_19">
      <g>
       <use xlink:href="#mf9a4abc98c" x="401.142122" y="139.773913" style="stroke: #000000; stroke-width: 0.8"/>
      </g>
     </g>
    </g>
    <g id="xtick_13">
     <g id="line2d_20">
      <g>
       <use xlink:href="#mf9a4abc98c" x="485.970338" y="139.773913" style="stroke: #000000; stroke-width: 0.8"/>
      </g>
     </g>
    </g>
    <g id="xtick_14">
     <g id="line2d_21">
      <g>
       <use xlink:href="#mf9a4abc98c" x="570.798553" y="139.773913" style="stroke: #000000; stroke-width: 0.8"/>
      </g>
     </g>
    </g>
   </g>
   <g id="matplotlib.axis_4">
    <g id="ytick_4">
     <g id="line2d_22">
      <g>
       <use xlink:href="#me3f2a040f2" x="36.465625" y="137.034783" style="stroke: #000000; stroke-width: 0.8"/>
      </g>
     </g>
     <g id="text_6">
      <!-- 0.00 -->
      <g transform="translate(7.2 140.834001) scale(0.1 -0.1)">
       <use xlink:href="#DejaVuSans-30"/>
       <use xlink:href="#DejaVuSans-2e" x="63.623047"/>
       <use xlink:href="#DejaVuSans-30" x="95.410156"/>
       <use xlink:href="#DejaVuSans-30" x="159.033203"/>
      </g>
     </g>
    </g>
    <g id="ytick_5">
     <g id="line2d_23">
      <g>
       <use xlink:href="#me3f2a040f2" x="36.465625" y="103.333647" style="stroke: #000000; stroke-width: 0.8"/>
      </g>
     </g>
     <g id="text_7">
      <!-- 0.05 -->
      <g transform="translate(7.2 107.132866) scale(0.1 -0.1)">
       <defs>
        <path id="DejaVuSans-35" d="M 691 4666 
L 3169 4666 
L 3169 4134 
L 1269 4134 
L 1269 2991 
Q 1406 3038 1543 3061 
Q 1681 3084 1819 3084 
Q 2600 3084 3056 2656 
Q 3513 2228 3513 1497 
Q 3513 744 3044 326 
Q 2575 -91 1722 -91 
Q 1428 -91 1123 -41 
Q 819 9 494 109 
L 494 744 
Q 775 591 1075 516 
Q 1375 441 1709 441 
Q 2250 441 2565 725 
Q 2881 1009 2881 1497 
Q 2881 1984 2565 2268 
Q 2250 2553 1709 2553 
Q 1456 2553 1204 2497 
Q 953 2441 691 2322 
L 691 4666 
z
" transform="scale(0.015625)"/>
       </defs>
       <use xlink:href="#DejaVuSans-30"/>
       <use xlink:href="#DejaVuSans-2e" x="63.623047"/>
       <use xlink:href="#DejaVuSans-30" x="95.410156"/>
       <use xlink:href="#DejaVuSans-35" x="159.033203"/>
      </g>
     </g>
    </g>
   </g>
   <g id="line2d_24">
    <path d="M 61.829261 137.034783 
L 63.525826 88.767611 
L 65.22239 82.252174 
L 66.918954 85.81882 
L 68.615519 97.065685 
L 70.312083 94.536573 
L 72.008647 111.289432 
L 73.705212 105.385915 
L 75.401776 111.223176 
L 77.09834 118.216686 
L 78.794904 114.261571 
L 80.491469 113.707331 
L 82.188033 119.754117 
L 83.884597 115.605666 
L 85.581162 116.484994 
L 87.277726 123.475793 
L 88.97429 122.088293 
L 90.670855 117.992713 
L 94.063983 122.624133 
L 95.760547 123.087004 
L 97.457112 122.733684 
L 99.153676 122.92642 
L 100.85024 121.96846 
L 102.546805 126.003977 
L 104.243369 125.849127 
L 105.939933 125.181945 
L 107.636498 124.243832 
L 109.333062 124.006298 
L 111.029626 124.227448 
L 112.726191 125.204662 
L 114.422755 124.812104 
L 116.119319 126.726419 
L 117.815883 125.020022 
L 119.512448 125.428847 
L 121.209012 127.957057 
L 124.602141 126.301809 
L 126.298705 125.695481 
L 127.995269 126.14665 
L 129.691834 127.183285 
L 131.388398 126.37305 
L 133.084962 127.796065 
L 134.781526 126.942304 
L 136.478091 128.598475 
L 138.174655 127.979017 
L 139.871219 128.171278 
L 141.567784 128.027345 
L 143.264348 128.059336 
L 144.960912 128.231975 
L 146.657477 127.646655 
L 148.354041 128.067055 
L 150.050605 128.750169 
L 151.74717 127.852935 
L 153.443734 129.022064 
L 155.140298 128.686122 
L 156.836862 128.753044 
L 158.533427 129.072993 
L 160.229991 129.064072 
L 161.926555 128.110488 
L 165.319684 128.642309 
L 167.016248 128.009815 
L 168.712813 128.763778 
L 170.409377 128.05597 
L 175.49907 129.305339 
L 177.195634 128.66261 
L 178.892198 128.57809 
L 180.588763 129.662413 
L 182.285327 129.362465 
L 183.981891 128.334862 
L 185.678456 128.852346 
L 189.071584 129.237384 
L 190.768149 128.959958 
L 192.464713 129.216489 
L 195.857841 128.65678 
L 197.554406 129.118457 
L 199.25097 128.683053 
L 200.947534 129.488254 
L 204.340663 129.236747 
L 207.733792 129.372347 
L 209.430356 129.771265 
L 211.12692 129.533279 
L 212.823485 129.767718 
L 216.216613 129.745831 
L 217.913177 129.763923 
L 219.609742 129.194582 
L 221.306306 129.520183 
L 226.395999 129.497353 
L 229.789128 129.6843 
L 231.485692 129.595046 
L 233.182256 129.859 
L 238.271949 129.628099 
L 239.968513 129.857283 
L 243.361642 129.718304 
L 246.754771 129.880767 
L 248.451335 129.78365 
L 251.844464 129.931149 
L 263.720414 129.867082 
L 265.416978 130.000205 
L 268.810107 129.905583 
L 270.506671 129.889409 
L 273.8998 130.054616 
L 280.686057 130.050639 
L 284.079185 130.128352 
L 285.77575 130.029187 
L 289.168878 130.001756 
L 297.6517 130.073912 
L 323.100164 130.170856 
L 326.493293 130.10101 
L 341.762372 130.17833 
L 343.458936 130.135072 
L 346.852065 130.275042 
L 350.245193 130.199589 
L 411.321508 130.284623 
L 457.128744 130.365948 
L 458.825309 130.481959 
L 460.521873 130.278623 
L 462.218437 130.248426 
L 463.915002 130.418716 
L 467.30813 130.433541 
L 470.701259 130.392065 
L 472.397823 130.394196 
L 474.094388 130.231065 
L 479.18408 130.357149 
L 480.880645 130.180961 
L 484.273773 130.430467 
L 489.363466 130.230218 
L 491.060031 130.348551 
L 494.453159 130.291097 
L 501.239416 130.318737 
L 504.632545 130.299039 
L 524.991317 130.290041 
L 533.474138 130.292987 
L 536.867267 130.337021 
L 538.563831 130.666717 
L 540.260395 130.061022 
L 541.95696 130.326625 
L 545.350088 130.26033 
L 547.046653 130.384748 
L 550.439781 130.183992 
L 553.83291 130.258908 
L 557.226038 130.291685 
L 569.101989 130.307486 
L 569.101989 130.307486 
" clip-path="url(#p3d520e79c4)" style="fill: none; stroke: #1f77b4; stroke-width: 2; stroke-linecap: square"/>
   </g>
   <g id="line2d_25">
    <path d="M 61.829261 130.294556 
L 569.101989 130.294556 
L 569.101989 130.294556 
" clip-path="url(#p3d520e79c4)" style="fill: none; stroke-dasharray: 5.55,2.4; stroke-dashoffset: 0; stroke: #000000; stroke-width: 1.5"/>
   </g>
   <g id="patch_9">
    <path d="M 36.465625 139.773913 
L 36.465625 79.513043 
" style="fill: none; stroke: #000000; stroke-width: 0.8; stroke-linejoin: miter; stroke-linecap: square"/>
   </g>
   <g id="patch_10">
    <path d="M 594.465625 139.773913 
L 594.465625 79.513043 
" style="fill: none; stroke: #000000; stroke-width: 0.8; stroke-linejoin: miter; stroke-linecap: square"/>
   </g>
   <g id="patch_11">
    <path d="M 36.465625 139.773913 
L 594.465625 139.773913 
" style="fill: none; stroke: #000000; stroke-width: 0.8; stroke-linejoin: miter; stroke-linecap: square"/>
   </g>
   <g id="patch_12">
    <path d="M 36.465625 79.513043 
L 594.465625 79.513043 
" style="fill: none; stroke: #000000; stroke-width: 0.8; stroke-linejoin: miter; stroke-linecap: square"/>
   </g>
   <g id="legend_2">
    <g id="patch_13">
     <path d="M 510.165625 118.511481 
L 587.465625 118.511481 
Q 589.465625 118.511481 589.465625 116.511481 
L 589.465625 86.513043 
Q 589.465625 84.513043 587.465625 84.513043 
L 510.165625 84.513043 
Q 508.165625 84.513043 508.165625 86.513043 
L 508.165625 116.511481 
Q 508.165625 118.511481 510.165625 118.511481 
z
" style="fill: #ffffff; opacity: 0.8; stroke: #cccccc; stroke-linejoin: miter"/>
    </g>
    <g id="line2d_26">
     <path d="M 512.165625 94.213043 
L 522.165625 94.213043 
L 532.165625 94.213043 
" style="fill: none; stroke: #1f77b4; stroke-width: 2; stroke-linecap: square"/>
    </g>
    <g id="text_8">
     <!-- $\hat\gamma_I$ -->
     <g transform="translate(540.165625 97.713043) scale(0.1 -0.1)">
      <defs>
       <path id="DejaVuSans-Oblique-3b3" d="M 1491 2950 
L 1838 788 
L 3456 3500 
L 4066 3500 
L 1972 0 
L 1713 -1331 
L 1138 -1331 
L 1397 0 
L 988 2613 
Q 925 3006 628 3006 
L 475 3006 
L 569 3500 
L 788 3500 
Q 1403 3500 1491 2950 
z
" transform="scale(0.015625)"/>
       <path id="DejaVuSans-Oblique-49" d="M 1081 4666 
L 1716 4666 
L 806 0 
L 172 0 
L 1081 4666 
z
" transform="scale(0.015625)"/>
      </defs>
      <use xlink:href="#DejaVuSans-302" transform="translate(59.601562 12.015625)"/>
      <use xlink:href="#DejaVuSans-Oblique-3b3" transform="translate(0 0.828125)"/>
      <use xlink:href="#DejaVuSans-Oblique-49" transform="translate(60.136719 -15.578125) scale(0.7)"/>
     </g>
    </g>
    <g id="line2d_27">
     <path d="M 512.165625 108.911481 
L 522.165625 108.911481 
L 532.165625 108.911481 
" style="fill: none; stroke-dasharray: 5.55,2.4; stroke-dashoffset: 0; stroke: #000000; stroke-width: 1.5"/>
    </g>
    <g id="text_9">
     <!-- $\gamma_I$ = 0.01 -->
     <g transform="translate(540.165625 112.411481) scale(0.1 -0.1)">
      <use xlink:href="#DejaVuSans-Oblique-3b3" transform="translate(0 0.78125)"/>
      <use xlink:href="#DejaVuSans-Oblique-49" transform="translate(59.179688 -15.625) scale(0.7)"/>
      <use xlink:href="#DejaVuSans-20" transform="translate(82.558594 0.78125)"/>
      <use xlink:href="#DejaVuSans-3d" transform="translate(114.345703 0.78125)"/>
      <use xlink:href="#DejaVuSans-20" transform="translate(198.134766 0.78125)"/>
      <use xlink:href="#DejaVuSans-30" transform="translate(229.921875 0.78125)"/>
      <use xlink:href="#DejaVuSans-2e" transform="translate(293.544922 0.78125)"/>
      <use xlink:href="#DejaVuSans-30" transform="translate(325.332031 0.78125)"/>
      <use xlink:href="#DejaVuSans-31" transform="translate(388.955078 0.78125)"/>
     </g>
    </g>
   </g>
  </g>
  <g id="axes_3">
   <g id="patch_14">
    <path d="M 36.465625 212.086957 
L 594.465625 212.086957 
L 594.465625 151.826087 
L 36.465625 151.826087 
z
" style="fill: #ffffff"/>
   </g>
   <g id="matplotlib.axis_5">
    <g id="xtick_15">
     <g id="line2d_28">
      <g>
       <use xlink:href="#mf9a4abc98c" x="61.829261" y="212.086957" style="stroke: #000000; stroke-width: 0.8"/>
      </g>
     </g>
    </g>
    <g id="xtick_16">
     <g id="line2d_29">
      <g>
       <use xlink:href="#mf9a4abc98c" x="146.657477" y="212.086957" style="stroke: #000000; stroke-width: 0.8"/>
      </g>
     </g>
    </g>
    <g id="xtick_17">
     <g id="line2d_30">
      <g>
       <use xlink:href="#mf9a4abc98c" x="231.485692" y="212.086957" style="stroke: #000000; stroke-width: 0.8"/>
      </g>
     </g>
    </g>
    <g id="xtick_18">
     <g id="line2d_31">
      <g>
       <use xlink:href="#mf9a4abc98c" x="316.313907" y="212.086957" style="stroke: #000000; stroke-width: 0.8"/>
      </g>
     </g>
    </g>
    <g id="xtick_19">
     <g id="line2d_32">
      <g>
       <use xlink:href="#mf9a4abc98c" x="401.142122" y="212.086957" style="stroke: #000000; stroke-width: 0.8"/>
      </g>
     </g>
    </g>
    <g id="xtick_20">
     <g id="line2d_33">
      <g>
       <use xlink:href="#mf9a4abc98c" x="485.970338" y="212.086957" style="stroke: #000000; stroke-width: 0.8"/>
      </g>
     </g>
    </g>
    <g id="xtick_21">
     <g id="line2d_34">
      <g>
       <use xlink:href="#mf9a4abc98c" x="570.798553" y="212.086957" style="stroke: #000000; stroke-width: 0.8"/>
      </g>
     </g>
    </g>
   </g>
   <g id="matplotlib.axis_6">
    <g id="ytick_6">
     <g id="line2d_35">
      <g>
       <use xlink:href="#me3f2a040f2" x="36.465625" y="209.347826" style="stroke: #000000; stroke-width: 0.8"/>
      </g>
     </g>
     <g id="text_10">
      <!-- 0.00 -->
      <g transform="translate(7.2 213.147045) scale(0.1 -0.1)">
       <use xlink:href="#DejaVuSans-30"/>
       <use xlink:href="#DejaVuSans-2e" x="63.623047"/>
       <use xlink:href="#DejaVuSans-30" x="95.410156"/>
       <use xlink:href="#DejaVuSans-30" x="159.033203"/>
      </g>
     </g>
    </g>
    <g id="ytick_7">
     <g id="line2d_36">
      <g>
       <use xlink:href="#me3f2a040f2" x="36.465625" y="171.967382" style="stroke: #000000; stroke-width: 0.8"/>
      </g>
     </g>
     <g id="text_11">
      <!-- 0.05 -->
      <g transform="translate(7.2 175.7666) scale(0.1 -0.1)">
       <use xlink:href="#DejaVuSans-30"/>
       <use xlink:href="#DejaVuSans-2e" x="63.623047"/>
       <use xlink:href="#DejaVuSans-30" x="95.410156"/>
       <use xlink:href="#DejaVuSans-35" x="159.033203"/>
      </g>
     </g>
    </g>
   </g>
   <g id="line2d_37">
    <path d="M 61.829261 209.347826 
L 63.525826 161.791975 
L 65.22239 154.565217 
L 66.918954 158.173546 
L 68.615519 170.518875 
L 70.312083 167.149948 
L 72.008647 186.336603 
L 73.705212 179.063848 
L 75.401776 185.726806 
L 77.09834 194.031302 
L 78.794904 188.984472 
L 80.491469 188.028466 
L 82.188033 195.468296 
L 83.884597 189.953612 
L 85.581162 190.828002 
L 87.277726 199.860395 
L 88.97429 197.92237 
L 90.670855 192.206757 
L 92.367419 195.027837 
L 94.063983 198.193805 
L 95.760547 198.714968 
L 97.457112 198.076782 
L 99.153676 198.208373 
L 100.85024 196.640488 
L 102.546805 202.490599 
L 104.243369 202.197592 
L 105.939933 201.104751 
L 107.636498 199.547634 
L 109.333062 199.036555 
L 111.029626 199.238184 
L 112.726191 200.671046 
L 114.422755 199.906643 
L 116.119319 202.951315 
L 117.815883 200.00372 
L 119.512448 200.558841 
L 121.209012 204.804265 
L 122.905576 203.36691 
L 124.602141 201.779786 
L 126.298705 200.578961 
L 127.995269 201.263882 
L 129.691834 203.058432 
L 131.388398 201.454652 
L 133.084962 204.037871 
L 134.781526 202.329122 
L 136.478091 205.461167 
L 138.174655 204.203899 
L 139.871219 204.528834 
L 141.567784 204.181472 
L 143.264348 204.183881 
L 144.960912 204.480843 
L 146.657477 203.180122 
L 148.354041 203.993756 
L 150.050605 205.412845 
L 151.74717 203.388932 
L 153.443734 205.924927 
L 155.140298 205.133851 
L 156.836862 205.241974 
L 158.533427 205.947248 
L 160.229991 205.899184 
L 161.926555 203.572068 
L 165.319684 204.719363 
L 167.016248 203.066655 
L 168.712813 204.888392 
L 170.409377 202.996184 
L 173.802506 205.206713 
L 175.49907 206.085973 
L 177.195634 204.289758 
L 178.892198 203.977079 
L 180.588763 206.961391 
L 182.285327 206.090977 
L 183.981891 203.061659 
L 185.678456 204.482832 
L 189.071584 205.51214 
L 190.768149 204.603411 
L 192.464713 205.337325 
L 194.161277 204.300541 
L 195.857841 203.398981 
L 197.554406 204.813054 
L 199.25097 203.285348 
L 200.947534 205.910576 
L 202.644099 205.494541 
L 204.340663 204.938686 
L 206.037227 205.18828 
L 207.733792 205.292455 
L 209.430356 206.698661 
L 211.12692 205.787263 
L 212.823485 206.629362 
L 214.520049 206.383203 
L 217.913177 206.533664 
L 219.609742 204.202548 
L 221.306306 205.44851 
L 223.00287 205.267245 
L 224.699435 204.819249 
L 226.395999 205.16082 
L 228.092563 205.690161 
L 229.789128 205.863229 
L 231.485692 205.409941 
L 233.182256 206.563904 
L 234.878821 206.273354 
L 236.575385 206.180085 
L 238.271949 205.347463 
L 239.968513 206.4103 
L 241.665078 205.816508 
L 243.361642 205.626209 
L 246.754771 206.368107 
L 248.451335 205.812135 
L 251.844464 206.525113 
L 253.541028 206.383124 
L 255.237592 206.502274 
L 256.934156 205.445619 
L 258.630721 205.402054 
L 260.327285 206.163934 
L 262.023849 206.070843 
L 263.720414 205.842296 
L 265.416978 206.630099 
L 267.113542 206.006336 
L 270.506671 205.782113 
L 272.203235 206.588364 
L 273.8998 206.814809 
L 275.596364 206.72709 
L 277.292928 206.107921 
L 278.989492 206.226564 
L 280.686057 206.659526 
L 282.382621 207.214595 
L 284.079185 207.194536 
L 285.77575 206.410028 
L 287.472314 206.599626 
L 289.168878 206.113768 
L 290.865443 206.009897 
L 294.258571 205.957776 
L 295.955135 206.407558 
L 301.044828 206.741622 
L 302.741393 206.903963 
L 304.437957 205.819302 
L 306.134521 206.091043 
L 307.831086 206.161946 
L 309.52765 206.357647 
L 311.224214 206.748034 
L 312.920779 206.299519 
L 314.617343 206.497027 
L 316.313907 207.336925 
L 319.707036 207.140743 
L 321.4036 206.900243 
L 323.100164 206.970758 
L 324.796729 206.074377 
L 326.493293 206.088595 
L 328.189857 206.217423 
L 329.886422 206.618449 
L 331.582986 206.408157 
L 333.27955 207.038248 
L 334.976115 206.385921 
L 336.672679 206.48127 
L 338.369243 207.154302 
L 340.065807 205.825098 
L 341.762372 206.689557 
L 343.458936 206.039629 
L 345.1555 207.325515 
L 346.852065 208.00446 
L 348.548629 206.650058 
L 350.245193 206.838603 
L 351.941758 206.793507 
L 353.638322 206.614185 
L 355.334886 206.252994 
L 360.424579 207.32419 
L 363.817708 206.659305 
L 365.514272 207.192754 
L 367.210836 207.206927 
L 368.907401 206.385212 
L 370.603965 206.451044 
L 372.300529 207.263057 
L 373.997094 206.616868 
L 375.693658 207.085368 
L 379.086786 206.676087 
L 380.783351 206.911947 
L 382.479915 207.616159 
L 384.176479 206.227538 
L 385.873044 207.331946 
L 387.569608 206.755496 
L 389.266172 206.389989 
L 390.962737 207.149705 
L 392.659301 207.268411 
L 394.355865 207.086917 
L 396.052429 206.650587 
L 397.748994 206.991856 
L 399.445558 207.214448 
L 401.142122 206.894893 
L 402.838687 207.605128 
L 407.92838 207.087205 
L 409.624944 206.968641 
L 411.321508 207.436148 
L 413.018073 207.053055 
L 414.714637 207.345343 
L 416.411201 207.424144 
L 418.107765 207.368036 
L 419.80433 207.135254 
L 421.500894 206.783826 
L 423.197458 205.771898 
L 424.894023 207.100901 
L 426.590587 206.942268 
L 428.287151 206.971542 
L 429.983716 206.809005 
L 431.68028 206.148672 
L 433.376844 207.34538 
L 435.073409 207.76744 
L 438.466537 206.728832 
L 440.163101 207.121885 
L 441.859666 206.335089 
L 443.55623 207.256362 
L 445.252794 207.262103 
L 446.949359 206.17825 
L 448.645923 207.648402 
L 450.342487 207.594881 
L 452.039052 207.928913 
L 453.735616 206.562604 
L 455.43218 207.141579 
L 457.128744 207.081276 
L 458.825309 205.933205 
L 460.521873 207.99627 
L 462.218437 208.279565 
L 463.915002 206.686518 
L 465.611566 206.47728 
L 467.30813 206.608717 
L 469.004695 207.125504 
L 472.397823 206.996958 
L 474.094388 208.392464 
L 477.487516 207.452474 
L 479.18408 207.312425 
L 480.880645 208.842717 
L 484.273773 206.614738 
L 485.970338 207.457971 
L 487.666902 207.317027 
L 489.363466 208.507155 
L 491.060031 207.276104 
L 492.756595 207.965014 
L 494.453159 207.896667 
L 496.149724 207.565957 
L 497.846288 208.035479 
L 499.542852 207.781611 
L 501.239416 207.397366 
L 502.935981 208.764402 
L 504.632545 207.729745 
L 506.329109 208.024895 
L 508.025674 207.672725 
L 509.722238 208.359784 
L 511.418802 208.646478 
L 513.115367 208.153561 
L 516.508495 207.670134 
L 519.901624 208.027265 
L 521.598188 207.92408 
L 523.294752 207.604613 
L 526.687881 208.003764 
L 528.384445 207.813537 
L 530.08101 208.227816 
L 531.777574 207.508347 
L 533.474138 207.841084 
L 535.170703 207.758309 
L 538.563831 207.856881 
L 564.012296 207.851504 
L 569.101989 207.853544 
L 569.101989 207.853544 
" clip-path="url(#p987d715ccd)" style="fill: none; stroke: #1f77b4; stroke-width: 2; stroke-linecap: square"/>
   </g>
   <g id="line2d_38">
    <path d="M 61.829261 207.852608 
L 569.101989 207.852608 
L 569.101989 207.852608 
" clip-path="url(#p987d715ccd)" style="fill: none; stroke-dasharray: 5.55,2.4; stroke-dashoffset: 0; stroke: #000000; stroke-width: 1.5"/>
   </g>
   <g id="patch_15">
    <path d="M 36.465625 212.086957 
L 36.465625 151.826087 
" style="fill: none; stroke: #000000; stroke-width: 0.8; stroke-linejoin: miter; stroke-linecap: square"/>
   </g>
   <g id="patch_16">
    <path d="M 594.465625 212.086957 
L 594.465625 151.826087 
" style="fill: none; stroke: #000000; stroke-width: 0.8; stroke-linejoin: miter; stroke-linecap: square"/>
   </g>
   <g id="patch_17">
    <path d="M 36.465625 212.086957 
L 594.465625 212.086957 
" style="fill: none; stroke: #000000; stroke-width: 0.8; stroke-linejoin: miter; stroke-linecap: square"/>
   </g>
   <g id="patch_18">
    <path d="M 36.465625 151.826087 
L 594.465625 151.826087 
" style="fill: none; stroke: #000000; stroke-width: 0.8; stroke-linejoin: miter; stroke-linecap: square"/>
   </g>
   <g id="legend_3">
    <g id="patch_19">
     <path d="M 503.365625 190.824524 
L 587.465625 190.824524 
Q 589.465625 190.824524 589.465625 188.824524 
L 589.465625 158.826087 
Q 589.465625 156.826087 587.465625 156.826087 
L 503.365625 156.826087 
Q 501.365625 156.826087 501.365625 158.826087 
L 501.365625 188.824524 
Q 501.365625 190.824524 503.365625 190.824524 
z
" style="fill: #ffffff; opacity: 0.8; stroke: #cccccc; stroke-linejoin: miter"/>
    </g>
    <g id="line2d_39">
     <path d="M 505.365625 166.526087 
L 515.365625 166.526087 
L 525.365625 166.526087 
" style="fill: none; stroke: #1f77b4; stroke-width: 2; stroke-linecap: square"/>
    </g>
    <g id="text_12">
     <!-- $\hat\mu_I$ -->
     <g transform="translate(533.365625 170.026087) scale(0.1 -0.1)">
      <defs>
       <path id="DejaVuSans-Oblique-3bc" d="M -84 -1331 
L 856 3500 
L 1434 3500 
L 1009 1322 
Q 997 1256 987 1175 
Q 978 1094 978 1013 
Q 978 722 1161 565 
Q 1344 409 1684 409 
Q 2147 409 2431 671 
Q 2716 934 2816 1459 
L 3213 3500 
L 3788 3500 
L 3266 809 
Q 3253 750 3248 706 
Q 3244 663 3244 628 
Q 3244 531 3283 486 
Q 3322 441 3406 441 
Q 3438 441 3492 456 
Q 3547 472 3647 513 
L 3559 50 
Q 3422 -19 3297 -55 
Q 3172 -91 3053 -91 
Q 2847 -91 2730 40 
Q 2613 172 2613 403 
Q 2438 153 2195 31 
Q 1953 -91 1625 -91 
Q 1334 -91 1117 43 
Q 900 178 831 397 
L 494 -1331 
L -84 -1331 
z
" transform="scale(0.015625)"/>
      </defs>
      <use xlink:href="#DejaVuSans-302" transform="translate(62.699219 12.015625)"/>
      <use xlink:href="#DejaVuSans-Oblique-3bc" transform="translate(0 0.828125)"/>
      <use xlink:href="#DejaVuSans-Oblique-49" transform="translate(64.580078 -15.578125) scale(0.7)"/>
     </g>
    </g>
    <g id="line2d_40">
     <path d="M 505.365625 181.224524 
L 515.365625 181.224524 
L 525.365625 181.224524 
" style="fill: none; stroke-dasharray: 5.55,2.4; stroke-dashoffset: 0; stroke: #000000; stroke-width: 1.5"/>
    </g>
    <g id="text_13">
     <!-- $\mu_I$ = 0.002 -->
     <g transform="translate(533.365625 184.724524) scale(0.1 -0.1)">
      <use xlink:href="#DejaVuSans-Oblique-3bc" transform="translate(0 0.78125)"/>
      <use xlink:href="#DejaVuSans-Oblique-49" transform="translate(63.623047 -15.625) scale(0.7)"/>
      <use xlink:href="#DejaVuSans-20" transform="translate(87.001953 0.78125)"/>
      <use xlink:href="#DejaVuSans-3d" transform="translate(118.789062 0.78125)"/>
      <use xlink:href="#DejaVuSans-20" transform="translate(202.578125 0.78125)"/>
      <use xlink:href="#DejaVuSans-30" transform="translate(234.365234 0.78125)"/>
      <use xlink:href="#DejaVuSans-2e" transform="translate(297.988281 0.78125)"/>
      <use xlink:href="#DejaVuSans-30" transform="translate(329.775391 0.78125)"/>
      <use xlink:href="#DejaVuSans-30" transform="translate(393.398438 0.78125)"/>
      <use xlink:href="#DejaVuSans-32" transform="translate(457.021484 0.78125)"/>
     </g>
    </g>
   </g>
  </g>
  <g id="axes_4">
   <g id="patch_20">
    <path d="M 36.465625 284.4 
L 594.465625 284.4 
L 594.465625 224.13913 
L 36.465625 224.13913 
z
" style="fill: #ffffff"/>
   </g>
   <g id="matplotlib.axis_7">
    <g id="xtick_22">
     <g id="line2d_41">
      <g>
       <use xlink:href="#mf9a4abc98c" x="61.829261" y="284.4" style="stroke: #000000; stroke-width: 0.8"/>
      </g>
     </g>
     <g id="text_14">
      <!-- 0 -->
      <g transform="translate(58.648011 298.998438) scale(0.1 -0.1)">
       <use xlink:href="#DejaVuSans-30"/>
      </g>
     </g>
    </g>
    <g id="xtick_23">
     <g id="line2d_42">
      <g>
       <use xlink:href="#mf9a4abc98c" x="146.657477" y="284.4" style="stroke: #000000; stroke-width: 0.8"/>
      </g>
     </g>
     <g id="text_15">
      <!-- 50 -->
      <g transform="translate(140.294977 298.998438) scale(0.1 -0.1)">
       <use xlink:href="#DejaVuSans-35"/>
       <use xlink:href="#DejaVuSans-30" x="63.623047"/>
      </g>
     </g>
    </g>
    <g id="xtick_24">
     <g id="line2d_43">
      <g>
       <use xlink:href="#mf9a4abc98c" x="231.485692" y="284.4" style="stroke: #000000; stroke-width: 0.8"/>
      </g>
     </g>
     <g id="text_16">
      <!-- 100 -->
      <g transform="translate(221.941942 298.998438) scale(0.1 -0.1)">
       <use xlink:href="#DejaVuSans-31"/>
       <use xlink:href="#DejaVuSans-30" x="63.623047"/>
       <use xlink:href="#DejaVuSans-30" x="127.246094"/>
      </g>
     </g>
    </g>
    <g id="xtick_25">
     <g id="line2d_44">
      <g>
       <use xlink:href="#mf9a4abc98c" x="316.313907" y="284.4" style="stroke: #000000; stroke-width: 0.8"/>
      </g>
     </g>
     <g id="text_17">
      <!-- 150 -->
      <g transform="translate(306.770157 298.998438) scale(0.1 -0.1)">
       <use xlink:href="#DejaVuSans-31"/>
       <use xlink:href="#DejaVuSans-35" x="63.623047"/>
       <use xlink:href="#DejaVuSans-30" x="127.246094"/>
      </g>
     </g>
    </g>
    <g id="xtick_26">
     <g id="line2d_45">
      <g>
       <use xlink:href="#mf9a4abc98c" x="401.142122" y="284.4" style="stroke: #000000; stroke-width: 0.8"/>
      </g>
     </g>
     <g id="text_18">
      <!-- 200 -->
      <g transform="translate(391.598372 298.998438) scale(0.1 -0.1)">
       <use xlink:href="#DejaVuSans-32"/>
       <use xlink:href="#DejaVuSans-30" x="63.623047"/>
       <use xlink:href="#DejaVuSans-30" x="127.246094"/>
      </g>
     </g>
    </g>
    <g id="xtick_27">
     <g id="line2d_46">
      <g>
       <use xlink:href="#mf9a4abc98c" x="485.970338" y="284.4" style="stroke: #000000; stroke-width: 0.8"/>
      </g>
     </g>
     <g id="text_19">
      <!-- 250 -->
      <g transform="translate(476.426588 298.998438) scale(0.1 -0.1)">
       <use xlink:href="#DejaVuSans-32"/>
       <use xlink:href="#DejaVuSans-35" x="63.623047"/>
       <use xlink:href="#DejaVuSans-30" x="127.246094"/>
      </g>
     </g>
    </g>
    <g id="xtick_28">
     <g id="line2d_47">
      <g>
       <use xlink:href="#mf9a4abc98c" x="570.798553" y="284.4" style="stroke: #000000; stroke-width: 0.8"/>
      </g>
     </g>
     <g id="text_20">
      <!-- 300 -->
      <g transform="translate(561.254803 298.998438) scale(0.1 -0.1)">
       <defs>
        <path id="DejaVuSans-33" d="M 2597 2516 
Q 3050 2419 3304 2112 
Q 3559 1806 3559 1356 
Q 3559 666 3084 287 
Q 2609 -91 1734 -91 
Q 1441 -91 1130 -33 
Q 819 25 488 141 
L 488 750 
Q 750 597 1062 519 
Q 1375 441 1716 441 
Q 2309 441 2620 675 
Q 2931 909 2931 1356 
Q 2931 1769 2642 2001 
Q 2353 2234 1838 2234 
L 1294 2234 
L 1294 2753 
L 1863 2753 
Q 2328 2753 2575 2939 
Q 2822 3125 2822 3475 
Q 2822 3834 2567 4026 
Q 2313 4219 1838 4219 
Q 1578 4219 1281 4162 
Q 984 4106 628 3988 
L 628 4550 
Q 988 4650 1302 4700 
Q 1616 4750 1894 4750 
Q 2613 4750 3031 4423 
Q 3450 4097 3450 3541 
Q 3450 3153 3228 2886 
Q 3006 2619 2597 2516 
z
" transform="scale(0.015625)"/>
       </defs>
       <use xlink:href="#DejaVuSans-33"/>
       <use xlink:href="#DejaVuSans-30" x="63.623047"/>
       <use xlink:href="#DejaVuSans-30" x="127.246094"/>
      </g>
     </g>
    </g>
   </g>
   <g id="matplotlib.axis_8">
    <g id="ytick_8">
     <g id="line2d_48">
      <g>
       <use xlink:href="#me3f2a040f2" x="36.465625" y="281.653623" style="stroke: #000000; stroke-width: 0.8"/>
      </g>
     </g>
     <g id="text_21">
      <!-- 0 -->
      <g transform="translate(23.103125 285.452841) scale(0.1 -0.1)">
       <use xlink:href="#DejaVuSans-30"/>
      </g>
     </g>
    </g>
    <g id="ytick_9">
     <g id="line2d_49">
      <g>
       <use xlink:href="#me3f2a040f2" x="36.465625" y="247.179392" style="stroke: #000000; stroke-width: 0.8"/>
      </g>
     </g>
     <g id="text_22">
      <!-- 10 -->
      <g transform="translate(16.740625 250.978611) scale(0.1 -0.1)">
       <use xlink:href="#DejaVuSans-31"/>
       <use xlink:href="#DejaVuSans-30" x="63.623047"/>
      </g>
     </g>
    </g>
   </g>
   <g id="line2d_50">
    <path d="M 61.829261 281.653623 
L 63.525826 281.653623 
L 65.22239 226.878261 
L 68.615519 265.631815 
L 70.312083 264.166404 
L 72.008647 277.252528 
L 73.705212 273.839207 
L 77.09834 280.116029 
L 78.794904 278.600688 
L 80.491469 278.440018 
L 82.188033 280.372258 
L 83.884597 279.179381 
L 85.581162 279.425684 
L 87.277726 281.170526 
L 88.97429 280.84686 
L 90.670855 279.949536 
L 94.063983 280.880919 
L 95.760547 280.965581 
L 100.85024 280.769849 
L 102.546805 281.404628 
L 105.939933 281.279069 
L 109.333062 281.106036 
L 114.422755 281.202945 
L 116.119319 281.438072 
L 117.815883 281.228171 
L 119.512448 281.273129 
L 121.209012 281.564749 
L 126.298705 281.304781 
L 138.174655 281.527119 
L 144.960912 281.545466 
L 148.354041 281.525973 
L 150.050605 281.58751 
L 151.74717 281.504182 
L 153.443734 281.608731 
L 158.533427 281.610249 
L 270.506671 281.61579 
L 284.079185 281.640834 
L 299.348264 281.630722 
L 367.210836 281.641575 
L 384.176479 281.628564 
L 397.748994 281.639069 
L 457.128744 281.641611 
L 470.701259 281.641033 
L 569.101989 281.650347 
L 569.101989 281.650347 
" clip-path="url(#pda87845158)" style="fill: none; stroke: #1f77b4; stroke-width: 2; stroke-linecap: square"/>
   </g>
   <g id="line2d_51">
    <path d="M 61.829261 281.650175 
L 569.101989 281.650175 
L 569.101989 281.650175 
" clip-path="url(#pda87845158)" style="fill: none; stroke-dasharray: 5.55,2.4; stroke-dashoffset: 0; stroke: #000000; stroke-width: 1.5"/>
   </g>
   <g id="patch_21">
    <path d="M 36.465625 284.4 
L 36.465625 224.13913 
" style="fill: none; stroke: #000000; stroke-width: 0.8; stroke-linejoin: miter; stroke-linecap: square"/>
   </g>
   <g id="patch_22">
    <path d="M 594.465625 284.4 
L 594.465625 224.13913 
" style="fill: none; stroke: #000000; stroke-width: 0.8; stroke-linejoin: miter; stroke-linecap: square"/>
   </g>
   <g id="patch_23">
    <path d="M 36.465625 284.4 
L 594.465625 284.4 
" style="fill: none; stroke: #000000; stroke-width: 0.8; stroke-linejoin: miter; stroke-linecap: square"/>
   </g>
   <g id="patch_24">
    <path d="M 36.465625 224.13913 
L 594.465625 224.13913 
" style="fill: none; stroke: #000000; stroke-width: 0.8; stroke-linejoin: miter; stroke-linecap: square"/>
   </g>
   <g id="legend_4">
    <g id="patch_25">
     <path d="M 505.965625 263.117255 
L 587.465625 263.117255 
Q 589.465625 263.117255 589.465625 261.117255 
L 589.465625 231.13913 
Q 589.465625 229.13913 587.465625 229.13913 
L 505.965625 229.13913 
Q 503.965625 229.13913 503.965625 231.13913 
L 503.965625 261.117255 
Q 503.965625 263.117255 505.965625 263.117255 
z
" style="fill: #ffffff; opacity: 0.8; stroke: #cccccc; stroke-linejoin: miter"/>
    </g>
    <g id="line2d_52">
     <path d="M 507.965625 238.859443 
L 517.965625 238.859443 
L 527.965625 238.859443 
" style="fill: none; stroke: #1f77b4; stroke-width: 2; stroke-linecap: square"/>
    </g>
    <g id="text_23">
     <!-- $\hat\delta$ -->
     <g transform="translate(535.965625 242.359443) scale(0.1 -0.1)">
      <defs>
       <path id="DejaVuSans-Oblique-3b4" d="M 3472 4053 
Q 3197 4272 2450 4272 
Q 1659 4272 1588 3906 
Q 1531 3619 2328 3469 
Q 2953 3353 3253 3003 
Q 3616 2581 3447 1716 
Q 3284 888 2763 400 
Q 2238 -91 1488 -91 
Q 741 -91 406 400 
Q 72 888 241 1747 
Q 363 2384 891 2900 
Q 1097 3100 1353 3213 
Q 913 3459 1000 3900 
Q 1166 4750 2544 4750 
Q 3234 4750 3566 4531 
L 3472 4053 
z
M 1753 3056 
Q 1525 2966 1306 2738 
Q 969 2384 847 1747 
Q 722 1113 919 756 
Q 1119 397 1584 397 
Q 2044 397 2381 759 
Q 2722 1122 2838 1716 
Q 2956 2338 2731 2638 
Q 2491 2959 2103 2994 
Q 1906 3013 1753 3056 
z
" transform="scale(0.015625)"/>
      </defs>
      <use xlink:href="#DejaVuSans-302" transform="translate(59.417969 31.015625)"/>
      <use xlink:href="#DejaVuSans-Oblique-3b4" transform="translate(0 0.296875)"/>
     </g>
    </g>
    <g id="line2d_53">
     <path d="M 507.965625 253.537568 
L 517.965625 253.537568 
L 527.965625 253.537568 
" style="fill: none; stroke-dasharray: 5.55,2.4; stroke-dashoffset: 0; stroke: #000000; stroke-width: 1.5"/>
    </g>
    <g id="text_24">
     <!-- $\delta$ = 0.001 -->
     <g transform="translate(535.965625 257.037568) scale(0.1 -0.1)">
      <use xlink:href="#DejaVuSans-Oblique-3b4" transform="translate(0 0.78125)"/>
      <use xlink:href="#DejaVuSans-20" transform="translate(61.181641 0.78125)"/>
      <use xlink:href="#DejaVuSans-3d" transform="translate(92.96875 0.78125)"/>
      <use xlink:href="#DejaVuSans-20" transform="translate(176.757812 0.78125)"/>
      <use xlink:href="#DejaVuSans-30" transform="translate(208.544922 0.78125)"/>
      <use xlink:href="#DejaVuSans-2e" transform="translate(272.167969 0.78125)"/>
      <use xlink:href="#DejaVuSans-30" transform="translate(303.955078 0.78125)"/>
      <use xlink:href="#DejaVuSans-30" transform="translate(367.578125 0.78125)"/>
      <use xlink:href="#DejaVuSans-31" transform="translate(431.201172 0.78125)"/>
     </g>
    </g>
   </g>
  </g>
 </g>
 <defs>
  <clipPath id="p07a35f9409">
   <rect x="36.465625" y="7.2" width="558" height="60.26087"/>
  </clipPath>
  <clipPath id="p3d520e79c4">
   <rect x="36.465625" y="79.513043" width="558" height="60.26087"/>
  </clipPath>
  <clipPath id="p987d715ccd">
   <rect x="36.465625" y="151.826087" width="558" height="60.26087"/>
  </clipPath>
  <clipPath id="pda87845158">
   <rect x="36.465625" y="224.13913" width="558" height="60.26087"/>
  </clipPath>
 </defs>
</svg>
