<?xml version="1.0" encoding="utf-8" standalone="no"?>
<!DOCTYPE svg PUBLIC "-//W3C//DTD SVG 1.1//EN"
  "http://www.w3.org/Graphics/SVG/1.1/DTD/svg11.dtd">
<svg xmlns:xlink="http://www.w3.org/1999/xlink" width="640.745625pt" height="351.99625pt" viewBox="0 0 640.745625 351.99625" xmlns="http://www.w3.org/2000/svg" version="1.1">
 <metadata>
  <rdf:RDF xmlns:dc="http://purl.org/dc/elements/1.1/" xmlns:cc="http://creativecommons.org/ns#" xmlns:rdf="http://www.w3.org/1999/02/22-rdf-syntax-ns#">
   <cc:Work>
    <dc:type rdf:resource="http://purl.org/dc/dcmitype/StillImage"/>
    <dc:date>2025-07-14T19:15:08.123773</dc:date>
    <dc:format>image/svg+xml</dc:format>
    <dc:creator>
     <cc:Agent>
      <dc:title>Matplotlib v3.6.3, https://matplotlib.org/</dc:title>
     </cc:Agent>
    </dc:creator>
   </cc:Work>
  </rdf:RDF>
 </metadata>
 <defs>
  <style type="text/css">*{stroke-linejoin: round; stroke-linecap: butt}</style>
 </defs>
 <g id="figure_1">
  <g id="patch_1">
   <path d="M 0 351.99625 
L 640.745625 351.99625 
L 640.745625 0 
L 0 0 
z
" style="fill: #ffffff"/>
  </g>
  <g id="axes_1">
   <g id="patch_2">
    <path d="M 36.465625 45.965057 
L 633.545625 45.965057 
L 633.545625 7.2 
L 36.465625 7.2 
z
" style="fill: #ffffff"/>
   </g>
   <g id="matplotlib.axis_1">
    <g id="xtick_1">
     <g id="line2d_1">
      <defs>
       <path id="m7e14a4ab8b" d="M 0 0 
L 0 3.5 
" style="stroke: #000000; stroke-width: 0.8"/>
      </defs>
      <g>
       <use xlink:href="#m7e14a4ab8b" x="63.605625" y="45.965057" style="stroke: #000000; stroke-width: 0.8"/>
      </g>
     </g>
    </g>
    <g id="xtick_2">
     <g id="line2d_2">
      <g>
       <use xlink:href="#m7e14a4ab8b" x="172.601609" y="45.965057" style="stroke: #000000; stroke-width: 0.8"/>
      </g>
     </g>
    </g>
    <g id="xtick_3">
     <g id="line2d_3">
      <g>
       <use xlink:href="#m7e14a4ab8b" x="281.597593" y="45.965057" style="stroke: #000000; stroke-width: 0.8"/>
      </g>
     </g>
    </g>
    <g id="xtick_4">
     <g id="line2d_4">
      <g>
       <use xlink:href="#m7e14a4ab8b" x="390.593577" y="45.965057" style="stroke: #000000; stroke-width: 0.8"/>
      </g>
     </g>
    </g>
    <g id="xtick_5">
     <g id="line2d_5">
      <g>
       <use xlink:href="#m7e14a4ab8b" x="499.589561" y="45.965057" style="stroke: #000000; stroke-width: 0.8"/>
      </g>
     </g>
    </g>
    <g id="xtick_6">
     <g id="line2d_6">
      <g>
       <use xlink:href="#m7e14a4ab8b" x="608.585545" y="45.965057" style="stroke: #000000; stroke-width: 0.8"/>
      </g>
     </g>
    </g>
   </g>
   <g id="matplotlib.axis_2">
    <g id="ytick_1">
     <g id="line2d_7">
      <defs>
       <path id="m9002861e5a" d="M 0 0 
L -3.5 0 
" style="stroke: #000000; stroke-width: 0.8"/>
      </defs>
      <g>
       <use xlink:href="#m9002861e5a" x="36.465625" y="38.319126" style="stroke: #000000; stroke-width: 0.8"/>
      </g>
     </g>
     <g id="text_1">
      <!-- 0.0 -->
      <g transform="translate(13.5625 42.118345) scale(0.1 -0.1)">
       <defs>
        <path id="DejaVuSans-30" d="M 2034 4250 
Q 1547 4250 1301 3770 
Q 1056 3291 1056 2328 
Q 1056 1369 1301 889 
Q 1547 409 2034 409 
Q 2525 409 2770 889 
Q 3016 1369 3016 2328 
Q 3016 3291 2770 3770 
Q 2525 4250 2034 4250 
z
M 2034 4750 
Q 2819 4750 3233 4129 
Q 3647 3509 3647 2328 
Q 3647 1150 3233 529 
Q 2819 -91 2034 -91 
Q 1250 -91 836 529 
Q 422 1150 422 2328 
Q 422 3509 836 4129 
Q 1250 4750 2034 4750 
z
" transform="scale(0.015625)"/>
        <path id="DejaVuSans-2e" d="M 684 794 
L 1344 794 
L 1344 0 
L 684 0 
L 684 794 
z
" transform="scale(0.015625)"/>
       </defs>
       <use xlink:href="#DejaVuSans-30"/>
       <use xlink:href="#DejaVuSans-2e" x="63.623047"/>
       <use xlink:href="#DejaVuSans-30" x="95.410156"/>
      </g>
     </g>
    </g>
    <g id="ytick_2">
     <g id="line2d_8">
      <g>
       <use xlink:href="#m9002861e5a" x="36.465625" y="21.890538" style="stroke: #000000; stroke-width: 0.8"/>
      </g>
     </g>
     <g id="text_2">
      <!-- 2.5 -->
      <g transform="translate(13.5625 25.689757) scale(0.1 -0.1)">
       <defs>
        <path id="DejaVuSans-32" d="M 1228 531 
L 3431 531 
L 3431 0 
L 469 0 
L 469 531 
Q 828 903 1448 1529 
Q 2069 2156 2228 2338 
Q 2531 2678 2651 2914 
Q 2772 3150 2772 3378 
Q 2772 3750 2511 3984 
Q 2250 4219 1831 4219 
Q 1534 4219 1204 4116 
Q 875 4013 500 3803 
L 500 4441 
Q 881 4594 1212 4672 
Q 1544 4750 1819 4750 
Q 2544 4750 2975 4387 
Q 3406 4025 3406 3419 
Q 3406 3131 3298 2873 
Q 3191 2616 2906 2266 
Q 2828 2175 2409 1742 
Q 1991 1309 1228 531 
z
" transform="scale(0.015625)"/>
        <path id="DejaVuSans-35" d="M 691 4666 
L 3169 4666 
L 3169 4134 
L 1269 4134 
L 1269 2991 
Q 1406 3038 1543 3061 
Q 1681 3084 1819 3084 
Q 2600 3084 3056 2656 
Q 3513 2228 3513 1497 
Q 3513 744 3044 326 
Q 2575 -91 1722 -91 
Q 1428 -91 1123 -41 
Q 819 9 494 109 
L 494 744 
Q 775 591 1075 516 
Q 1375 441 1709 441 
Q 2250 441 2565 725 
Q 2881 1009 2881 1497 
Q 2881 1984 2565 2268 
Q 2250 2553 1709 2553 
Q 1456 2553 1204 2497 
Q 953 2441 691 2322 
L 691 4666 
z
" transform="scale(0.015625)"/>
       </defs>
       <use xlink:href="#DejaVuSans-32"/>
       <use xlink:href="#DejaVuSans-2e" x="63.623047"/>
       <use xlink:href="#DejaVuSans-35" x="95.410156"/>
      </g>
     </g>
    </g>
   </g>
   <g id="line2d_9">
    <path d="M 63.605625 37.03503 
L 102.844179 36.789711 
L 166.06185 36.686767 
L 299.03695 36.507901 
L 438.55181 36.198135 
L 445.091569 36.419167 
L 451.631328 36.868784 
L 455.991167 37.354539 
L 460.351007 38.034812 
L 464.710846 38.944381 
L 469.070685 40.102059 
L 475.610444 42.076448 
L 479.970284 43.008929 
L 484.330123 43.710404 
L 488.689962 44.120754 
L 493.049802 44.19774 
L 497.409641 43.910905 
L 501.76948 43.223941 
L 503.9494 42.711531 
L 506.12932 42.070825 
L 508.309239 41.286263 
L 510.489159 40.33828 
L 514.848998 38.818863 
L 523.568677 35.835413 
L 525.748597 34.964524 
L 527.928517 33.962664 
L 530.108436 32.775428 
L 532.288356 31.349396 
L 534.468276 29.64079 
L 536.648195 27.624149 
L 538.828115 25.304318 
L 543.187954 19.984425 
L 547.547794 14.615971 
L 549.727713 12.354638 
L 551.907633 10.601199 
L 554.087553 9.460685 
L 556.267472 8.962048 
L 558.447392 9.062351 
L 560.627312 9.666229 
L 562.807231 10.652293 
L 564.987151 11.898394 
L 569.34699 14.760552 
L 573.70683 17.655171 
L 578.066669 20.296726 
L 582.426509 22.594177 
L 586.786348 24.550622 
L 591.146187 26.203758 
L 595.506027 27.598557 
L 602.045786 29.328023 
L 606.405625 30.253738 
L 606.405625 30.253738 
" clip-path="url(#pee8d3a11a0)" style="fill: none; stroke: #1f77b4; stroke-width: 2; stroke-linecap: square"/>
   </g>
   <g id="line2d_10">
    <path d="M 63.605625 38.056269 
L 606.405625 38.056269 
L 606.405625 38.056269 
" clip-path="url(#pee8d3a11a0)" style="fill: none; stroke-dasharray: 5.55,2.4; stroke-dashoffset: 0; stroke: #000000; stroke-width: 1.5"/>
   </g>
   <g id="patch_3">
    <path d="M 36.465625 45.965057 
L 36.465625 7.2 
" style="fill: none; stroke: #000000; stroke-width: 0.8; stroke-linejoin: miter; stroke-linecap: square"/>
   </g>
   <g id="patch_4">
    <path d="M 633.545625 45.965057 
L 633.545625 7.2 
" style="fill: none; stroke: #000000; stroke-width: 0.8; stroke-linejoin: miter; stroke-linecap: square"/>
   </g>
   <g id="patch_5">
    <path d="M 36.465625 45.965057 
L 633.545625 45.965057 
" style="fill: none; stroke: #000000; stroke-width: 0.8; stroke-linejoin: miter; stroke-linecap: square"/>
   </g>
   <g id="patch_6">
    <path d="M 36.465625 7.2 
L 633.545625 7.2 
" style="fill: none; stroke: #000000; stroke-width: 0.8; stroke-linejoin: miter; stroke-linecap: square"/>
   </g>
   <g id="legend_1">
    <g id="patch_7">
     <path d="M 43.465625 48.5 
L 118.865625 48.5 
Q 120.865625 48.5 120.865625 46.5 
L 120.865625 14.2 
Q 120.865625 12.2 118.865625 12.2 
L 43.465625 12.2 
Q 41.465625 12.2 41.465625 14.2 
L 41.465625 46.5 
Q 41.465625 48.5 43.465625 48.5 
z
" style="fill: #ffffff; opacity: 0.8; stroke: #cccccc; stroke-linejoin: miter"/>
    </g>
    <g id="line2d_11">
     <path d="M 45.465625 24.1 
L 55.465625 24.1 
L 65.465625 24.1 
" style="fill: none; stroke: #1f77b4; stroke-width: 2; stroke-linecap: square"/>
    </g>
    <g id="text_3">
     <!-- $\hat\beta$ -->
     <g transform="translate(73.465625 27.6) scale(0.1 -0.1)">
      <defs>
       <path id="DejaVuSans-302" d="M -1831 5119 
L -1369 5119 
L -603 3944 
L -1038 3944 
L -1600 4709 
L -2163 3944 
L -2597 3944 
L -1831 5119 
z
M -1600 3584 
L -1600 3584 
z
" transform="scale(0.015625)"/>
       <path id="DejaVuSans-Oblique-3b2" d="M 872 216 
L 572 -1331 
L -6 -1331 
L 928 3478 
Q 1206 4903 2538 4903 
Q 3888 4903 3659 3700 
Q 3503 2844 2894 2531 
Q 3713 2250 3553 1416 
Q 3272 -69 1759 -66 
Q 1097 -63 872 216 
z
M 1019 966 
Q 1259 422 1875 425 
Q 2775 425 2966 1406 
Q 3138 2288 1675 2219 
L 1778 2750 
Q 2909 2731 3106 3750 
Q 3241 4438 2509 4434 
Q 1691 4434 1503 3459 
L 1019 966 
z
" transform="scale(0.015625)"/>
      </defs>
      <use xlink:href="#DejaVuSans-302" transform="translate(62.785156 34.015625)"/>
      <use xlink:href="#DejaVuSans-Oblique-3b2" transform="translate(0 0.90625)"/>
     </g>
    </g>
    <g id="line2d_12">
     <path d="M 45.465625 38.9 
L 55.465625 38.9 
L 65.465625 38.9 
" style="fill: none; stroke-dasharray: 5.55,2.4; stroke-dashoffset: 0; stroke: #000000; stroke-width: 1.5"/>
    </g>
    <g id="text_4">
     <!-- $\beta$ = 0.04 -->
     <g transform="translate(73.465625 42.4) scale(0.1 -0.1)">
      <defs>
       <path id="DejaVuSans-20" transform="scale(0.015625)"/>
       <path id="DejaVuSans-3d" d="M 678 2906 
L 4684 2906 
L 4684 2381 
L 678 2381 
L 678 2906 
z
M 678 1631 
L 4684 1631 
L 4684 1100 
L 678 1100 
L 678 1631 
z
" transform="scale(0.015625)"/>
       <path id="DejaVuSans-34" d="M 2419 4116 
L 825 1625 
L 2419 1625 
L 2419 4116 
z
M 2253 4666 
L 3047 4666 
L 3047 1625 
L 3713 1625 
L 3713 1100 
L 3047 1100 
L 3047 0 
L 2419 0 
L 2419 1100 
L 313 1100 
L 313 1709 
L 2253 4666 
z
" transform="scale(0.015625)"/>
      </defs>
      <use xlink:href="#DejaVuSans-Oblique-3b2" transform="translate(0 0.390625)"/>
      <use xlink:href="#DejaVuSans-20" transform="translate(63.818359 0.390625)"/>
      <use xlink:href="#DejaVuSans-3d" transform="translate(95.605469 0.390625)"/>
      <use xlink:href="#DejaVuSans-20" transform="translate(179.394531 0.390625)"/>
      <use xlink:href="#DejaVuSans-30" transform="translate(211.181641 0.390625)"/>
      <use xlink:href="#DejaVuSans-2e" transform="translate(274.804688 0.390625)"/>
      <use xlink:href="#DejaVuSans-30" transform="translate(306.591797 0.390625)"/>
      <use xlink:href="#DejaVuSans-34" transform="translate(370.214844 0.390625)"/>
     </g>
    </g>
   </g>
  </g>
  <g id="axes_2">
   <g id="patch_8">
    <path d="M 36.465625 103.392529 
L 633.545625 103.392529 
L 633.545625 64.627471 
L 36.465625 64.627471 
z
" style="fill: #ffffff"/>
   </g>
   <g id="matplotlib.axis_3">
    <g id="xtick_7">
     <g id="line2d_13">
      <g>
       <use xlink:href="#m7e14a4ab8b" x="63.605625" y="103.392529" style="stroke: #000000; stroke-width: 0.8"/>
      </g>
     </g>
    </g>
    <g id="xtick_8">
     <g id="line2d_14">
      <g>
       <use xlink:href="#m7e14a4ab8b" x="172.601609" y="103.392529" style="stroke: #000000; stroke-width: 0.8"/>
      </g>
     </g>
    </g>
    <g id="xtick_9">
     <g id="line2d_15">
      <g>
       <use xlink:href="#m7e14a4ab8b" x="281.597593" y="103.392529" style="stroke: #000000; stroke-width: 0.8"/>
      </g>
     </g>
    </g>
    <g id="xtick_10">
     <g id="line2d_16">
      <g>
       <use xlink:href="#m7e14a4ab8b" x="390.593577" y="103.392529" style="stroke: #000000; stroke-width: 0.8"/>
      </g>
     </g>
    </g>
    <g id="xtick_11">
     <g id="line2d_17">
      <g>
       <use xlink:href="#m7e14a4ab8b" x="499.589561" y="103.392529" style="stroke: #000000; stroke-width: 0.8"/>
      </g>
     </g>
    </g>
    <g id="xtick_12">
     <g id="line2d_18">
      <g>
       <use xlink:href="#m7e14a4ab8b" x="608.585545" y="103.392529" style="stroke: #000000; stroke-width: 0.8"/>
      </g>
     </g>
    </g>
   </g>
   <g id="matplotlib.axis_4">
    <g id="ytick_3">
     <g id="line2d_19">
      <g>
       <use xlink:href="#m9002861e5a" x="36.465625" y="94.57761" style="stroke: #000000; stroke-width: 0.8"/>
      </g>
     </g>
     <g id="text_5">
      <!-- 0.0 -->
      <g transform="translate(13.5625 98.376829) scale(0.1 -0.1)">
       <use xlink:href="#DejaVuSans-30"/>
       <use xlink:href="#DejaVuSans-2e" x="63.623047"/>
       <use xlink:href="#DejaVuSans-30" x="95.410156"/>
      </g>
     </g>
    </g>
    <g id="ytick_4">
     <g id="line2d_20">
      <g>
       <use xlink:href="#m9002861e5a" x="36.465625" y="75.419877" style="stroke: #000000; stroke-width: 0.8"/>
      </g>
     </g>
     <g id="text_6">
      <!-- 2.5 -->
      <g transform="translate(13.5625 79.219096) scale(0.1 -0.1)">
       <use xlink:href="#DejaVuSans-32"/>
       <use xlink:href="#DejaVuSans-2e" x="63.623047"/>
       <use xlink:href="#DejaVuSans-35" x="95.410156"/>
      </g>
     </g>
    </g>
   </g>
   <g id="line2d_21">
    <path d="M 63.605625 92.996234 
L 76.685143 92.435505 
L 91.944581 92.029564 
L 111.563858 91.762762 
L 139.902814 91.616679 
L 196.580725 91.605856 
L 327.375906 91.567572 
L 390.593577 91.653766 
L 432.012051 91.843554 
L 440.731729 92.110583 
L 447.271488 92.523769 
L 451.631328 92.96004 
L 455.991167 93.57131 
L 460.351007 94.399694 
L 464.710846 95.48129 
L 469.070685 96.833634 
L 475.610444 99.109907 
L 479.970284 100.190352 
L 484.330123 101.008373 
L 488.689962 101.502224 
L 493.049802 101.630481 
L 497.409641 101.364841 
L 499.589561 101.07487 
L 501.76948 100.671072 
L 503.9494 100.145042 
L 506.12932 99.483818 
L 508.309239 98.671685 
L 510.489159 97.688834 
L 514.848998 96.13766 
L 523.568677 93.134581 
L 525.748597 92.259309 
L 527.928517 91.250188 
L 530.108436 90.051612 
L 532.288356 88.609629 
L 534.468276 86.880891 
L 536.648195 84.841452 
L 538.828115 82.498862 
L 543.187954 77.149186 
L 547.547794 71.80093 
L 549.727713 69.576217 
L 551.907633 67.877443 
L 554.087553 66.807018 
L 556.267472 66.389519 
L 558.447392 66.576889 
L 560.627312 67.268868 
L 562.807231 68.340086 
L 564.987151 69.665617 
L 578.066669 78.380629 
L 582.426509 80.731085 
L 586.786348 82.722139 
L 591.146187 84.39528 
L 595.506027 85.798454 
L 599.865866 86.974889 
L 604.225705 87.99607 
L 606.405625 88.436989 
L 606.405625 88.436989 
" clip-path="url(#p75f46b4d28)" style="fill: none; stroke: #1f77b4; stroke-width: 2; stroke-linecap: square"/>
   </g>
   <g id="line2d_22">
    <path d="M 63.605625 94.500979 
L 606.405625 94.500979 
L 606.405625 94.500979 
" clip-path="url(#p75f46b4d28)" style="fill: none; stroke-dasharray: 5.55,2.4; stroke-dashoffset: 0; stroke: #000000; stroke-width: 1.5"/>
   </g>
   <g id="patch_9">
    <path d="M 36.465625 103.392529 
L 36.465625 64.627471 
" style="fill: none; stroke: #000000; stroke-width: 0.8; stroke-linejoin: miter; stroke-linecap: square"/>
   </g>
   <g id="patch_10">
    <path d="M 633.545625 103.392529 
L 633.545625 64.627471 
" style="fill: none; stroke: #000000; stroke-width: 0.8; stroke-linejoin: miter; stroke-linecap: square"/>
   </g>
   <g id="patch_11">
    <path d="M 36.465625 103.392529 
L 633.545625 103.392529 
" style="fill: none; stroke: #000000; stroke-width: 0.8; stroke-linejoin: miter; stroke-linecap: square"/>
   </g>
   <g id="patch_12">
    <path d="M 36.465625 64.627471 
L 633.545625 64.627471 
" style="fill: none; stroke: #000000; stroke-width: 0.8; stroke-linejoin: miter; stroke-linecap: square"/>
   </g>
   <g id="legend_2">
    <g id="patch_13">
     <path d="M 43.465625 103.625909 
L 120.765625 103.625909 
Q 122.765625 103.625909 122.765625 101.625909 
L 122.765625 71.627471 
Q 122.765625 69.627471 120.765625 69.627471 
L 43.465625 69.627471 
Q 41.465625 69.627471 41.465625 71.627471 
L 41.465625 101.625909 
Q 41.465625 103.625909 43.465625 103.625909 
z
" style="fill: #ffffff; opacity: 0.8; stroke: #cccccc; stroke-linejoin: miter"/>
    </g>
    <g id="line2d_23">
     <path d="M 45.465625 79.327471 
L 55.465625 79.327471 
L 65.465625 79.327471 
" style="fill: none; stroke: #1f77b4; stroke-width: 2; stroke-linecap: square"/>
    </g>
    <g id="text_7">
     <!-- $\hat\gamma_I$ -->
     <g transform="translate(73.465625 82.827471) scale(0.1 -0.1)">
      <defs>
       <path id="DejaVuSans-Oblique-3b3" d="M 1491 2950 
L 1838 788 
L 3456 3500 
L 4066 3500 
L 1972 0 
L 1713 -1331 
L 1138 -1331 
L 1397 0 
L 988 2613 
Q 925 3006 628 3006 
L 475 3006 
L 569 3500 
L 788 3500 
Q 1403 3500 1491 2950 
z
" transform="scale(0.015625)"/>
       <path id="DejaVuSans-Oblique-49" d="M 1081 4666 
L 1716 4666 
L 806 0 
L 172 0 
L 1081 4666 
z
" transform="scale(0.015625)"/>
      </defs>
      <use xlink:href="#DejaVuSans-302" transform="translate(59.601562 12.015625)"/>
      <use xlink:href="#DejaVuSans-Oblique-3b3" transform="translate(0 0.828125)"/>
      <use xlink:href="#DejaVuSans-Oblique-49" transform="translate(60.136719 -15.578125) scale(0.7)"/>
     </g>
    </g>
    <g id="line2d_24">
     <path d="M 45.465625 94.025909 
L 55.465625 94.025909 
L 65.465625 94.025909 
" style="fill: none; stroke-dasharray: 5.55,2.4; stroke-dashoffset: 0; stroke: #000000; stroke-width: 1.5"/>
    </g>
    <g id="text_8">
     <!-- $\gamma_I$ = 0.01 -->
     <g transform="translate(73.465625 97.525909) scale(0.1 -0.1)">
      <defs>
       <path id="DejaVuSans-31" d="M 794 531 
L 1825 531 
L 1825 4091 
L 703 3866 
L 703 4441 
L 1819 4666 
L 2450 4666 
L 2450 531 
L 3481 531 
L 3481 0 
L 794 0 
L 794 531 
z
" transform="scale(0.015625)"/>
      </defs>
      <use xlink:href="#DejaVuSans-Oblique-3b3" transform="translate(0 0.78125)"/>
      <use xlink:href="#DejaVuSans-Oblique-49" transform="translate(59.179688 -15.625) scale(0.7)"/>
      <use xlink:href="#DejaVuSans-20" transform="translate(82.558594 0.78125)"/>
      <use xlink:href="#DejaVuSans-3d" transform="translate(114.345703 0.78125)"/>
      <use xlink:href="#DejaVuSans-20" transform="translate(198.134766 0.78125)"/>
      <use xlink:href="#DejaVuSans-30" transform="translate(229.921875 0.78125)"/>
      <use xlink:href="#DejaVuSans-2e" transform="translate(293.544922 0.78125)"/>
      <use xlink:href="#DejaVuSans-30" transform="translate(325.332031 0.78125)"/>
      <use xlink:href="#DejaVuSans-31" transform="translate(388.955078 0.78125)"/>
     </g>
    </g>
   </g>
  </g>
  <g id="axes_3">
   <g id="patch_14">
    <path d="M 36.465625 160.82 
L 633.545625 160.82 
L 633.545625 122.054943 
L 36.465625 122.054943 
z
" style="fill: #ffffff"/>
   </g>
   <g id="matplotlib.axis_5">
    <g id="xtick_13">
     <g id="line2d_25">
      <g>
       <use xlink:href="#m7e14a4ab8b" x="63.605625" y="160.82" style="stroke: #000000; stroke-width: 0.8"/>
      </g>
     </g>
    </g>
    <g id="xtick_14">
     <g id="line2d_26">
      <g>
       <use xlink:href="#m7e14a4ab8b" x="172.601609" y="160.82" style="stroke: #000000; stroke-width: 0.8"/>
      </g>
     </g>
    </g>
    <g id="xtick_15">
     <g id="line2d_27">
      <g>
       <use xlink:href="#m7e14a4ab8b" x="281.597593" y="160.82" style="stroke: #000000; stroke-width: 0.8"/>
      </g>
     </g>
    </g>
    <g id="xtick_16">
     <g id="line2d_28">
      <g>
       <use xlink:href="#m7e14a4ab8b" x="390.593577" y="160.82" style="stroke: #000000; stroke-width: 0.8"/>
      </g>
     </g>
    </g>
    <g id="xtick_17">
     <g id="line2d_29">
      <g>
       <use xlink:href="#m7e14a4ab8b" x="499.589561" y="160.82" style="stroke: #000000; stroke-width: 0.8"/>
      </g>
     </g>
    </g>
    <g id="xtick_18">
     <g id="line2d_30">
      <g>
       <use xlink:href="#m7e14a4ab8b" x="608.585545" y="160.82" style="stroke: #000000; stroke-width: 0.8"/>
      </g>
     </g>
    </g>
   </g>
   <g id="matplotlib.axis_6">
    <g id="ytick_5">
     <g id="line2d_31">
      <g>
       <use xlink:href="#m9002861e5a" x="36.465625" y="147.740391" style="stroke: #000000; stroke-width: 0.8"/>
      </g>
     </g>
     <g id="text_9">
      <!-- 0.00 -->
      <g transform="translate(7.2 151.53961) scale(0.1 -0.1)">
       <use xlink:href="#DejaVuSans-30"/>
       <use xlink:href="#DejaVuSans-2e" x="63.623047"/>
       <use xlink:href="#DejaVuSans-30" x="95.410156"/>
       <use xlink:href="#DejaVuSans-30" x="159.033203"/>
      </g>
     </g>
    </g>
    <g id="ytick_6">
     <g id="line2d_32">
      <g>
       <use xlink:href="#m9002861e5a" x="36.465625" y="123.466254" style="stroke: #000000; stroke-width: 0.8"/>
      </g>
     </g>
     <g id="text_10">
      <!-- 0.25 -->
      <g transform="translate(7.2 127.265473) scale(0.1 -0.1)">
       <use xlink:href="#DejaVuSans-30"/>
       <use xlink:href="#DejaVuSans-2e" x="63.623047"/>
       <use xlink:href="#DejaVuSans-32" x="95.410156"/>
       <use xlink:href="#DejaVuSans-35" x="159.033203"/>
      </g>
     </g>
    </g>
   </g>
   <g id="line2d_33">
    <path d="M 63.605625 146.330662 
L 67.965464 148.451158 
L 72.325304 150.274948 
L 76.685143 151.824405 
L 81.044982 153.145561 
L 85.404822 154.257836 
L 91.944581 155.60066 
L 98.48434 156.617056 
L 105.024099 157.382151 
L 113.743778 158.097819 
L 122.463456 158.560967 
L 133.363055 158.892253 
L 146.442573 159.048484 
L 163.88193 159.008425 
L 196.580725 158.606564 
L 251.078717 157.658368 
L 292.497191 156.719259 
L 323.016067 155.805484 
L 349.175103 154.797698 
L 370.9743 153.732157 
L 388.413657 152.664063 
L 403.673095 151.49555 
L 416.752613 150.245183 
L 427.652211 148.968327 
L 436.37189 147.758824 
L 445.091569 146.360503 
L 453.811247 144.76589 
L 464.710846 142.518915 
L 497.409641 135.461798 
L 514.848998 131.936996 
L 523.568677 130.248377 
L 530.108436 129.170319 
L 538.828115 128.017609 
L 567.167071 124.819951 
L 573.70683 124.292086 
L 580.246589 123.95633 
L 586.786348 123.819895 
L 593.326107 123.870097 
L 602.045786 124.192946 
L 606.405625 124.421949 
L 606.405625 124.421949 
" clip-path="url(#p4176ce13e5)" style="fill: none; stroke: #1f77b4; stroke-width: 2; stroke-linecap: square"/>
   </g>
   <g id="line2d_34">
    <path d="M 63.605625 147.546198 
L 606.405625 147.546198 
L 606.405625 147.546198 
" clip-path="url(#p4176ce13e5)" style="fill: none; stroke-dasharray: 5.55,2.4; stroke-dashoffset: 0; stroke: #000000; stroke-width: 1.5"/>
   </g>
   <g id="patch_15">
    <path d="M 36.465625 160.82 
L 36.465625 122.054943 
" style="fill: none; stroke: #000000; stroke-width: 0.8; stroke-linejoin: miter; stroke-linecap: square"/>
   </g>
   <g id="patch_16">
    <path d="M 633.545625 160.82 
L 633.545625 122.054943 
" style="fill: none; stroke: #000000; stroke-width: 0.8; stroke-linejoin: miter; stroke-linecap: square"/>
   </g>
   <g id="patch_17">
    <path d="M 36.465625 160.82 
L 633.545625 160.82 
" style="fill: none; stroke: #000000; stroke-width: 0.8; stroke-linejoin: miter; stroke-linecap: square"/>
   </g>
   <g id="patch_18">
    <path d="M 36.465625 122.054943 
L 633.545625 122.054943 
" style="fill: none; stroke: #000000; stroke-width: 0.8; stroke-linejoin: miter; stroke-linecap: square"/>
   </g>
   <g id="legend_3">
    <g id="patch_19">
     <path d="M 43.465625 161.05338 
L 127.565625 161.05338 
Q 129.565625 161.05338 129.565625 159.05338 
L 129.565625 129.054943 
Q 129.565625 127.054943 127.565625 127.054943 
L 43.465625 127.054943 
Q 41.465625 127.054943 41.465625 129.054943 
L 41.465625 159.05338 
Q 41.465625 161.05338 43.465625 161.05338 
z
" style="fill: #ffffff; opacity: 0.8; stroke: #cccccc; stroke-linejoin: miter"/>
    </g>
    <g id="line2d_35">
     <path d="M 45.465625 136.754943 
L 55.465625 136.754943 
L 65.465625 136.754943 
" style="fill: none; stroke: #1f77b4; stroke-width: 2; stroke-linecap: square"/>
    </g>
    <g id="text_11">
     <!-- $\hat\mu_I$ -->
     <g transform="translate(73.465625 140.254943) scale(0.1 -0.1)">
      <defs>
       <path id="DejaVuSans-Oblique-3bc" d="M -84 -1331 
L 856 3500 
L 1434 3500 
L 1009 1322 
Q 997 1256 987 1175 
Q 978 1094 978 1013 
Q 978 722 1161 565 
Q 1344 409 1684 409 
Q 2147 409 2431 671 
Q 2716 934 2816 1459 
L 3213 3500 
L 3788 3500 
L 3266 809 
Q 3253 750 3248 706 
Q 3244 663 3244 628 
Q 3244 531 3283 486 
Q 3322 441 3406 441 
Q 3438 441 3492 456 
Q 3547 472 3647 513 
L 3559 50 
Q 3422 -19 3297 -55 
Q 3172 -91 3053 -91 
Q 2847 -91 2730 40 
Q 2613 172 2613 403 
Q 2438 153 2195 31 
Q 1953 -91 1625 -91 
Q 1334 -91 1117 43 
Q 900 178 831 397 
L 494 -1331 
L -84 -1331 
z
" transform="scale(0.015625)"/>
      </defs>
      <use xlink:href="#DejaVuSans-302" transform="translate(62.699219 12.015625)"/>
      <use xlink:href="#DejaVuSans-Oblique-3bc" transform="translate(0 0.828125)"/>
      <use xlink:href="#DejaVuSans-Oblique-49" transform="translate(64.580078 -15.578125) scale(0.7)"/>
     </g>
    </g>
    <g id="line2d_36">
     <path d="M 45.465625 151.45338 
L 55.465625 151.45338 
L 65.465625 151.45338 
" style="fill: none; stroke-dasharray: 5.55,2.4; stroke-dashoffset: 0; stroke: #000000; stroke-width: 1.5"/>
    </g>
    <g id="text_12">
     <!-- $\mu_I$ = 0.002 -->
     <g transform="translate(73.465625 154.95338) scale(0.1 -0.1)">
      <use xlink:href="#DejaVuSans-Oblique-3bc" transform="translate(0 0.78125)"/>
      <use xlink:href="#DejaVuSans-Oblique-49" transform="translate(63.623047 -15.625) scale(0.7)"/>
      <use xlink:href="#DejaVuSans-20" transform="translate(87.001953 0.78125)"/>
      <use xlink:href="#DejaVuSans-3d" transform="translate(118.789062 0.78125)"/>
      <use xlink:href="#DejaVuSans-20" transform="translate(202.578125 0.78125)"/>
      <use xlink:href="#DejaVuSans-30" transform="translate(234.365234 0.78125)"/>
      <use xlink:href="#DejaVuSans-2e" transform="translate(297.988281 0.78125)"/>
      <use xlink:href="#DejaVuSans-30" transform="translate(329.775391 0.78125)"/>
      <use xlink:href="#DejaVuSans-30" transform="translate(393.398438 0.78125)"/>
      <use xlink:href="#DejaVuSans-32" transform="translate(457.021484 0.78125)"/>
     </g>
    </g>
   </g>
  </g>
  <g id="axes_4">
   <g id="patch_20">
    <path d="M 36.465625 218.247471 
L 633.545625 218.247471 
L 633.545625 179.482414 
L 36.465625 179.482414 
z
" style="fill: #ffffff"/>
   </g>
   <g id="matplotlib.axis_7">
    <g id="xtick_19">
     <g id="line2d_37">
      <g>
       <use xlink:href="#m7e14a4ab8b" x="63.605625" y="218.247471" style="stroke: #000000; stroke-width: 0.8"/>
      </g>
     </g>
    </g>
    <g id="xtick_20">
     <g id="line2d_38">
      <g>
       <use xlink:href="#m7e14a4ab8b" x="172.601609" y="218.247471" style="stroke: #000000; stroke-width: 0.8"/>
      </g>
     </g>
    </g>
    <g id="xtick_21">
     <g id="line2d_39">
      <g>
       <use xlink:href="#m7e14a4ab8b" x="281.597593" y="218.247471" style="stroke: #000000; stroke-width: 0.8"/>
      </g>
     </g>
    </g>
    <g id="xtick_22">
     <g id="line2d_40">
      <g>
       <use xlink:href="#m7e14a4ab8b" x="390.593577" y="218.247471" style="stroke: #000000; stroke-width: 0.8"/>
      </g>
     </g>
    </g>
    <g id="xtick_23">
     <g id="line2d_41">
      <g>
       <use xlink:href="#m7e14a4ab8b" x="499.589561" y="218.247471" style="stroke: #000000; stroke-width: 0.8"/>
      </g>
     </g>
    </g>
    <g id="xtick_24">
     <g id="line2d_42">
      <g>
       <use xlink:href="#m7e14a4ab8b" x="608.585545" y="218.247471" style="stroke: #000000; stroke-width: 0.8"/>
      </g>
     </g>
    </g>
   </g>
   <g id="matplotlib.axis_8">
    <g id="ytick_7">
     <g id="line2d_43">
      <g>
       <use xlink:href="#m9002861e5a" x="36.465625" y="207.413247" style="stroke: #000000; stroke-width: 0.8"/>
      </g>
     </g>
     <g id="text_13">
      <!-- 0 -->
      <g transform="translate(23.103125 211.212466) scale(0.1 -0.1)">
       <use xlink:href="#DejaVuSans-30"/>
      </g>
     </g>
    </g>
    <g id="ytick_8">
     <g id="line2d_44">
      <g>
       <use xlink:href="#m9002861e5a" x="36.465625" y="187.965491" style="stroke: #000000; stroke-width: 0.8"/>
      </g>
     </g>
     <g id="text_14">
      <!-- 1 -->
      <g transform="translate(23.103125 191.76471) scale(0.1 -0.1)">
       <use xlink:href="#DejaVuSans-31"/>
      </g>
     </g>
    </g>
   </g>
   <g id="line2d_45">
    <path d="M 63.605625 207.098953 
L 370.9743 207.165525 
L 436.37189 207.485904 
L 442.911649 207.751123 
L 449.451408 208.240648 
L 453.811247 208.749163 
L 458.171087 209.448738 
L 462.530926 210.374753 
L 466.890766 211.549396 
L 471.250605 212.964618 
L 473.430525 213.747256 
L 477.790364 214.890074 
L 482.150203 215.730475 
L 486.510043 216.276237 
L 490.869882 216.485423 
L 495.229721 216.337856 
L 499.589561 215.816909 
L 503.9494 214.886223 
L 506.12932 214.244941 
L 508.309239 213.467962 
L 510.489159 212.536635 
L 514.848998 211.06026 
L 523.568677 208.20228 
L 525.748597 207.369008 
L 527.928517 206.408357 
L 530.108436 205.267027 
L 532.288356 203.892466 
L 534.468276 202.240948 
L 536.648195 200.285669 
L 538.828115 198.028072 
L 541.008035 195.507302 
L 547.547794 187.450348 
L 549.727713 185.136865 
L 551.907633 183.287622 
L 554.087553 182.009802 
L 556.267472 181.339551 
L 558.447392 181.244462 
L 560.627312 181.640773 
L 562.807231 182.417768 
L 564.987151 183.461816 
L 569.34699 185.962279 
L 575.886749 189.808992 
L 580.246589 192.093105 
L 584.606428 194.081021 
L 588.966268 195.785675 
L 593.326107 197.2394 
L 597.685946 198.47608 
L 604.225705 200.033888 
L 606.405625 200.472724 
L 606.405625 200.472724 
" clip-path="url(#p7be0dee29e)" style="fill: none; stroke: #1f77b4; stroke-width: 2; stroke-linecap: square"/>
   </g>
   <g id="line2d_46">
    <path d="M 63.605625 207.393799 
L 606.405625 207.393799 
L 606.405625 207.393799 
" clip-path="url(#p7be0dee29e)" style="fill: none; stroke-dasharray: 5.55,2.4; stroke-dashoffset: 0; stroke: #000000; stroke-width: 1.5"/>
   </g>
   <g id="patch_21">
    <path d="M 36.465625 218.247471 
L 36.465625 179.482414 
" style="fill: none; stroke: #000000; stroke-width: 0.8; stroke-linejoin: miter; stroke-linecap: square"/>
   </g>
   <g id="patch_22">
    <path d="M 633.545625 218.247471 
L 633.545625 179.482414 
" style="fill: none; stroke: #000000; stroke-width: 0.8; stroke-linejoin: miter; stroke-linecap: square"/>
   </g>
   <g id="patch_23">
    <path d="M 36.465625 218.247471 
L 633.545625 218.247471 
" style="fill: none; stroke: #000000; stroke-width: 0.8; stroke-linejoin: miter; stroke-linecap: square"/>
   </g>
   <g id="patch_24">
    <path d="M 36.465625 179.482414 
L 633.545625 179.482414 
" style="fill: none; stroke: #000000; stroke-width: 0.8; stroke-linejoin: miter; stroke-linecap: square"/>
   </g>
   <g id="legend_4">
    <g id="patch_25">
     <path d="M 43.465625 218.460539 
L 124.965625 218.460539 
Q 126.965625 218.460539 126.965625 216.460539 
L 126.965625 186.482414 
Q 126.965625 184.482414 124.965625 184.482414 
L 43.465625 184.482414 
Q 41.465625 184.482414 41.465625 186.482414 
L 41.465625 216.460539 
Q 41.465625 218.460539 43.465625 218.460539 
z
" style="fill: #ffffff; opacity: 0.8; stroke: #cccccc; stroke-linejoin: miter"/>
    </g>
    <g id="line2d_47">
     <path d="M 45.465625 194.202726 
L 55.465625 194.202726 
L 65.465625 194.202726 
" style="fill: none; stroke: #1f77b4; stroke-width: 2; stroke-linecap: square"/>
    </g>
    <g id="text_15">
     <!-- $\hat\delta$ -->
     <g transform="translate(73.465625 197.702726) scale(0.1 -0.1)">
      <defs>
       <path id="DejaVuSans-Oblique-3b4" d="M 3472 4053 
Q 3197 4272 2450 4272 
Q 1659 4272 1588 3906 
Q 1531 3619 2328 3469 
Q 2953 3353 3253 3003 
Q 3616 2581 3447 1716 
Q 3284 888 2763 400 
Q 2238 -91 1488 -91 
Q 741 -91 406 400 
Q 72 888 241 1747 
Q 363 2384 891 2900 
Q 1097 3100 1353 3213 
Q 913 3459 1000 3900 
Q 1166 4750 2544 4750 
Q 3234 4750 3566 4531 
L 3472 4053 
z
M 1753 3056 
Q 1525 2966 1306 2738 
Q 969 2384 847 1747 
Q 722 1113 919 756 
Q 1119 397 1584 397 
Q 2044 397 2381 759 
Q 2722 1122 2838 1716 
Q 2956 2338 2731 2638 
Q 2491 2959 2103 2994 
Q 1906 3013 1753 3056 
z
" transform="scale(0.015625)"/>
      </defs>
      <use xlink:href="#DejaVuSans-302" transform="translate(59.417969 31.015625)"/>
      <use xlink:href="#DejaVuSans-Oblique-3b4" transform="translate(0 0.296875)"/>
     </g>
    </g>
    <g id="line2d_48">
     <path d="M 45.465625 208.880851 
L 55.465625 208.880851 
L 65.465625 208.880851 
" style="fill: none; stroke-dasharray: 5.55,2.4; stroke-dashoffset: 0; stroke: #000000; stroke-width: 1.5"/>
    </g>
    <g id="text_16">
     <!-- $\delta$ = 0.001 -->
     <g transform="translate(73.465625 212.380851) scale(0.1 -0.1)">
      <use xlink:href="#DejaVuSans-Oblique-3b4" transform="translate(0 0.78125)"/>
      <use xlink:href="#DejaVuSans-20" transform="translate(61.181641 0.78125)"/>
      <use xlink:href="#DejaVuSans-3d" transform="translate(92.96875 0.78125)"/>
      <use xlink:href="#DejaVuSans-20" transform="translate(176.757812 0.78125)"/>
      <use xlink:href="#DejaVuSans-30" transform="translate(208.544922 0.78125)"/>
      <use xlink:href="#DejaVuSans-2e" transform="translate(272.167969 0.78125)"/>
      <use xlink:href="#DejaVuSans-30" transform="translate(303.955078 0.78125)"/>
      <use xlink:href="#DejaVuSans-30" transform="translate(367.578125 0.78125)"/>
      <use xlink:href="#DejaVuSans-31" transform="translate(431.201172 0.78125)"/>
     </g>
    </g>
   </g>
  </g>
  <g id="axes_5">
   <g id="patch_26">
    <path d="M 36.465625 314.44 
L 633.545625 314.44 
L 633.545625 236.909885 
L 36.465625 236.909885 
z
" style="fill: #ffffff"/>
   </g>
   <g id="matplotlib.axis_9">
    <g id="xtick_25">
     <g id="line2d_49">
      <g>
       <use xlink:href="#m7e14a4ab8b" x="63.605625" y="314.44" style="stroke: #000000; stroke-width: 0.8"/>
      </g>
     </g>
     <g id="text_17">
      <!-- 100 -->
      <g transform="translate(54.061875 329.038438) scale(0.1 -0.1)">
       <use xlink:href="#DejaVuSans-31"/>
       <use xlink:href="#DejaVuSans-30" x="63.623047"/>
       <use xlink:href="#DejaVuSans-30" x="127.246094"/>
      </g>
     </g>
    </g>
    <g id="xtick_26">
     <g id="line2d_50">
      <g>
       <use xlink:href="#m7e14a4ab8b" x="172.601609" y="314.44" style="stroke: #000000; stroke-width: 0.8"/>
      </g>
     </g>
     <g id="text_18">
      <!-- 150 -->
      <g transform="translate(163.057859 329.038438) scale(0.1 -0.1)">
       <use xlink:href="#DejaVuSans-31"/>
       <use xlink:href="#DejaVuSans-35" x="63.623047"/>
       <use xlink:href="#DejaVuSans-30" x="127.246094"/>
      </g>
     </g>
    </g>
    <g id="xtick_27">
     <g id="line2d_51">
      <g>
       <use xlink:href="#m7e14a4ab8b" x="281.597593" y="314.44" style="stroke: #000000; stroke-width: 0.8"/>
      </g>
     </g>
     <g id="text_19">
      <!-- 200 -->
      <g transform="translate(272.053843 329.038438) scale(0.1 -0.1)">
       <use xlink:href="#DejaVuSans-32"/>
       <use xlink:href="#DejaVuSans-30" x="63.623047"/>
       <use xlink:href="#DejaVuSans-30" x="127.246094"/>
      </g>
     </g>
    </g>
    <g id="xtick_28">
     <g id="line2d_52">
      <g>
       <use xlink:href="#m7e14a4ab8b" x="390.593577" y="314.44" style="stroke: #000000; stroke-width: 0.8"/>
      </g>
     </g>
     <g id="text_20">
      <!-- 250 -->
      <g transform="translate(381.049827 329.038438) scale(0.1 -0.1)">
       <use xlink:href="#DejaVuSans-32"/>
       <use xlink:href="#DejaVuSans-35" x="63.623047"/>
       <use xlink:href="#DejaVuSans-30" x="127.246094"/>
      </g>
     </g>
    </g>
    <g id="xtick_29">
     <g id="line2d_53">
      <g>
       <use xlink:href="#m7e14a4ab8b" x="499.589561" y="314.44" style="stroke: #000000; stroke-width: 0.8"/>
      </g>
     </g>
     <g id="text_21">
      <!-- 300 -->
      <g transform="translate(490.045811 329.038438) scale(0.1 -0.1)">
       <defs>
        <path id="DejaVuSans-33" d="M 2597 2516 
Q 3050 2419 3304 2112 
Q 3559 1806 3559 1356 
Q 3559 666 3084 287 
Q 2609 -91 1734 -91 
Q 1441 -91 1130 -33 
Q 819 25 488 141 
L 488 750 
Q 750 597 1062 519 
Q 1375 441 1716 441 
Q 2309 441 2620 675 
Q 2931 909 2931 1356 
Q 2931 1769 2642 2001 
Q 2353 2234 1838 2234 
L 1294 2234 
L 1294 2753 
L 1863 2753 
Q 2328 2753 2575 2939 
Q 2822 3125 2822 3475 
Q 2822 3834 2567 4026 
Q 2313 4219 1838 4219 
Q 1578 4219 1281 4162 
Q 984 4106 628 3988 
L 628 4550 
Q 988 4650 1302 4700 
Q 1616 4750 1894 4750 
Q 2613 4750 3031 4423 
Q 3450 4097 3450 3541 
Q 3450 3153 3228 2886 
Q 3006 2619 2597 2516 
z
" transform="scale(0.015625)"/>
       </defs>
       <use xlink:href="#DejaVuSans-33"/>
       <use xlink:href="#DejaVuSans-30" x="63.623047"/>
       <use xlink:href="#DejaVuSans-30" x="127.246094"/>
      </g>
     </g>
    </g>
    <g id="xtick_30">
     <g id="line2d_54">
      <g>
       <use xlink:href="#m7e14a4ab8b" x="608.585545" y="314.44" style="stroke: #000000; stroke-width: 0.8"/>
      </g>
     </g>
     <g id="text_22">
      <!-- 350 -->
      <g transform="translate(599.041795 329.038438) scale(0.1 -0.1)">
       <use xlink:href="#DejaVuSans-33"/>
       <use xlink:href="#DejaVuSans-35" x="63.623047"/>
       <use xlink:href="#DejaVuSans-30" x="127.246094"/>
      </g>
     </g>
    </g>
    <g id="text_23">
     <!-- time (days) -->
     <g transform="translate(306.416562 342.716563) scale(0.1 -0.1)">
      <defs>
       <path id="DejaVuSans-74" d="M 1172 4494 
L 1172 3500 
L 2356 3500 
L 2356 3053 
L 1172 3053 
L 1172 1153 
Q 1172 725 1289 603 
Q 1406 481 1766 481 
L 2356 481 
L 2356 0 
L 1766 0 
Q 1100 0 847 248 
Q 594 497 594 1153 
L 594 3053 
L 172 3053 
L 172 3500 
L 594 3500 
L 594 4494 
L 1172 4494 
z
" transform="scale(0.015625)"/>
       <path id="DejaVuSans-69" d="M 603 3500 
L 1178 3500 
L 1178 0 
L 603 0 
L 603 3500 
z
M 603 4863 
L 1178 4863 
L 1178 4134 
L 603 4134 
L 603 4863 
z
" transform="scale(0.015625)"/>
       <path id="DejaVuSans-6d" d="M 3328 2828 
Q 3544 3216 3844 3400 
Q 4144 3584 4550 3584 
Q 5097 3584 5394 3201 
Q 5691 2819 5691 2113 
L 5691 0 
L 5113 0 
L 5113 2094 
Q 5113 2597 4934 2840 
Q 4756 3084 4391 3084 
Q 3944 3084 3684 2787 
Q 3425 2491 3425 1978 
L 3425 0 
L 2847 0 
L 2847 2094 
Q 2847 2600 2669 2842 
Q 2491 3084 2119 3084 
Q 1678 3084 1418 2786 
Q 1159 2488 1159 1978 
L 1159 0 
L 581 0 
L 581 3500 
L 1159 3500 
L 1159 2956 
Q 1356 3278 1631 3431 
Q 1906 3584 2284 3584 
Q 2666 3584 2933 3390 
Q 3200 3197 3328 2828 
z
" transform="scale(0.015625)"/>
       <path id="DejaVuSans-65" d="M 3597 1894 
L 3597 1613 
L 953 1613 
Q 991 1019 1311 708 
Q 1631 397 2203 397 
Q 2534 397 2845 478 
Q 3156 559 3463 722 
L 3463 178 
Q 3153 47 2828 -22 
Q 2503 -91 2169 -91 
Q 1331 -91 842 396 
Q 353 884 353 1716 
Q 353 2575 817 3079 
Q 1281 3584 2069 3584 
Q 2775 3584 3186 3129 
Q 3597 2675 3597 1894 
z
M 3022 2063 
Q 3016 2534 2758 2815 
Q 2500 3097 2075 3097 
Q 1594 3097 1305 2825 
Q 1016 2553 972 2059 
L 3022 2063 
z
" transform="scale(0.015625)"/>
       <path id="DejaVuSans-28" d="M 1984 4856 
Q 1566 4138 1362 3434 
Q 1159 2731 1159 2009 
Q 1159 1288 1364 580 
Q 1569 -128 1984 -844 
L 1484 -844 
Q 1016 -109 783 600 
Q 550 1309 550 2009 
Q 550 2706 781 3412 
Q 1013 4119 1484 4856 
L 1984 4856 
z
" transform="scale(0.015625)"/>
       <path id="DejaVuSans-64" d="M 2906 2969 
L 2906 4863 
L 3481 4863 
L 3481 0 
L 2906 0 
L 2906 525 
Q 2725 213 2448 61 
Q 2172 -91 1784 -91 
Q 1150 -91 751 415 
Q 353 922 353 1747 
Q 353 2572 751 3078 
Q 1150 3584 1784 3584 
Q 2172 3584 2448 3432 
Q 2725 3281 2906 2969 
z
M 947 1747 
Q 947 1113 1208 752 
Q 1469 391 1925 391 
Q 2381 391 2643 752 
Q 2906 1113 2906 1747 
Q 2906 2381 2643 2742 
Q 2381 3103 1925 3103 
Q 1469 3103 1208 2742 
Q 947 2381 947 1747 
z
" transform="scale(0.015625)"/>
       <path id="DejaVuSans-61" d="M 2194 1759 
Q 1497 1759 1228 1600 
Q 959 1441 959 1056 
Q 959 750 1161 570 
Q 1363 391 1709 391 
Q 2188 391 2477 730 
Q 2766 1069 2766 1631 
L 2766 1759 
L 2194 1759 
z
M 3341 1997 
L 3341 0 
L 2766 0 
L 2766 531 
Q 2569 213 2275 61 
Q 1981 -91 1556 -91 
Q 1019 -91 701 211 
Q 384 513 384 1019 
Q 384 1609 779 1909 
Q 1175 2209 1959 2209 
L 2766 2209 
L 2766 2266 
Q 2766 2663 2505 2880 
Q 2244 3097 1772 3097 
Q 1472 3097 1187 3025 
Q 903 2953 641 2809 
L 641 3341 
Q 956 3463 1253 3523 
Q 1550 3584 1831 3584 
Q 2591 3584 2966 3190 
Q 3341 2797 3341 1997 
z
" transform="scale(0.015625)"/>
       <path id="DejaVuSans-79" d="M 2059 -325 
Q 1816 -950 1584 -1140 
Q 1353 -1331 966 -1331 
L 506 -1331 
L 506 -850 
L 844 -850 
Q 1081 -850 1212 -737 
Q 1344 -625 1503 -206 
L 1606 56 
L 191 3500 
L 800 3500 
L 1894 763 
L 2988 3500 
L 3597 3500 
L 2059 -325 
z
" transform="scale(0.015625)"/>
       <path id="DejaVuSans-73" d="M 2834 3397 
L 2834 2853 
Q 2591 2978 2328 3040 
Q 2066 3103 1784 3103 
Q 1356 3103 1142 2972 
Q 928 2841 928 2578 
Q 928 2378 1081 2264 
Q 1234 2150 1697 2047 
L 1894 2003 
Q 2506 1872 2764 1633 
Q 3022 1394 3022 966 
Q 3022 478 2636 193 
Q 2250 -91 1575 -91 
Q 1294 -91 989 -36 
Q 684 19 347 128 
L 347 722 
Q 666 556 975 473 
Q 1284 391 1588 391 
Q 1994 391 2212 530 
Q 2431 669 2431 922 
Q 2431 1156 2273 1281 
Q 2116 1406 1581 1522 
L 1381 1569 
Q 847 1681 609 1914 
Q 372 2147 372 2553 
Q 372 3047 722 3315 
Q 1072 3584 1716 3584 
Q 2034 3584 2315 3537 
Q 2597 3491 2834 3397 
z
" transform="scale(0.015625)"/>
       <path id="DejaVuSans-29" d="M 513 4856 
L 1013 4856 
Q 1481 4119 1714 3412 
Q 1947 2706 1947 2009 
Q 1947 1309 1714 600 
Q 1481 -109 1013 -844 
L 513 -844 
Q 928 -128 1133 580 
Q 1338 1288 1338 2009 
Q 1338 2731 1133 3434 
Q 928 4138 513 4856 
z
" transform="scale(0.015625)"/>
      </defs>
      <use xlink:href="#DejaVuSans-74"/>
      <use xlink:href="#DejaVuSans-69" x="39.208984"/>
      <use xlink:href="#DejaVuSans-6d" x="66.992188"/>
      <use xlink:href="#DejaVuSans-65" x="164.404297"/>
      <use xlink:href="#DejaVuSans-20" x="225.927734"/>
      <use xlink:href="#DejaVuSans-28" x="257.714844"/>
      <use xlink:href="#DejaVuSans-64" x="296.728516"/>
      <use xlink:href="#DejaVuSans-61" x="360.205078"/>
      <use xlink:href="#DejaVuSans-79" x="421.484375"/>
      <use xlink:href="#DejaVuSans-73" x="480.664062"/>
      <use xlink:href="#DejaVuSans-29" x="532.763672"/>
     </g>
    </g>
   </g>
   <g id="matplotlib.axis_10">
    <g id="ytick_9">
     <g id="line2d_55">
      <g>
       <use xlink:href="#m9002861e5a" x="36.465625" y="310.915904" style="stroke: #000000; stroke-width: 0.8"/>
      </g>
     </g>
     <g id="text_24">
      <!-- 0.00 -->
      <g transform="translate(7.2 314.715123) scale(0.1 -0.1)">
       <use xlink:href="#DejaVuSans-30"/>
       <use xlink:href="#DejaVuSans-2e" x="63.623047"/>
       <use xlink:href="#DejaVuSans-30" x="95.410156"/>
       <use xlink:href="#DejaVuSans-30" x="159.033203"/>
      </g>
     </g>
    </g>
    <g id="ytick_10">
     <g id="line2d_56">
      <g>
       <use xlink:href="#m9002861e5a" x="36.465625" y="272.440616" style="stroke: #000000; stroke-width: 0.8"/>
      </g>
     </g>
     <g id="text_25">
      <!-- 0.05 -->
      <g transform="translate(7.2 276.239835) scale(0.1 -0.1)">
       <use xlink:href="#DejaVuSans-30"/>
       <use xlink:href="#DejaVuSans-2e" x="63.623047"/>
       <use xlink:href="#DejaVuSans-30" x="95.410156"/>
       <use xlink:href="#DejaVuSans-35" x="159.033203"/>
      </g>
     </g>
    </g>
   </g>
   <g id="line2d_57">
    <path d="M 63.605625 310.802374 
L 155.162252 310.568542 
L 211.840163 310.222166 
L 253.258637 309.766468 
L 285.957432 309.204453 
L 314.296388 308.500822 
L 338.275505 307.685757 
L 360.074701 306.711095 
L 377.514059 305.726543 
L 394.953416 304.515588 
L 410.212854 303.231277 
L 423.292372 301.932332 
L 436.37189 300.420363 
L 449.451408 298.662817 
L 460.351007 296.984282 
L 471.250605 295.086325 
L 482.150203 292.855506 
L 490.869882 290.858756 
L 499.589561 288.654695 
L 508.309239 286.224926 
L 517.028918 283.656718 
L 525.748597 280.845798 
L 534.468276 277.774551 
L 543.187954 274.425241 
L 551.907633 270.780306 
L 560.627312 266.82271 
L 567.167071 263.639602 
L 573.70683 260.265264 
L 580.246589 256.694003 
L 586.786348 252.920857 
L 593.326107 248.941749 
L 602.045786 243.386749 
L 606.405625 240.433981 
L 606.405625 240.433981 
" clip-path="url(#p920650090a)" style="fill: none; stroke: #1f77b4; stroke-width: 2; stroke-linecap: square"/>
   </g>
   <g id="line2d_58">
    <path d="M 63.605625 310.146007 
L 471.250605 310.146007 
L 473.430525 310.915904 
L 508.309239 310.915904 
L 510.489159 310.146007 
L 597.685946 310.146007 
L 599.865866 309.262957 
L 602.045786 310.146007 
L 606.405625 310.146007 
L 606.405625 310.146007 
" clip-path="url(#p920650090a)" style="fill: none; stroke: #ff7f0e; stroke-opacity: 0.5; stroke-width: 1.5; stroke-linecap: square"/>
   </g>
   <g id="line2d_59">
    <path d="M 63.605625 310.914966 
L 329.555826 310.805332 
L 377.514059 310.56505 
L 405.853015 310.223516 
L 427.652211 309.751155 
L 445.091569 309.15443 
L 460.351007 308.391941 
L 471.250605 307.657619 
L 482.150203 306.676186 
L 490.869882 305.687269 
L 499.589561 304.475305 
L 508.309239 302.992871 
L 514.848998 301.722722 
L 521.388758 300.259473 
L 527.928517 298.575123 
L 534.468276 296.639185 
L 541.008035 294.417677 
L 547.547794 291.872883 
L 551.907633 289.976347 
L 556.267472 287.904352 
L 560.627312 285.642722 
L 564.987151 283.176444 
L 569.34699 280.489668 
L 573.70683 277.565712 
L 578.066669 274.387076 
L 582.426509 270.935471 
L 586.786348 267.19186 
L 591.146187 263.136509 
L 595.506027 258.749061 
L 602.045786 251.630223 
L 606.405625 246.33207 
L 606.405625 246.33207 
" clip-path="url(#p920650090a)" style="fill: none; stroke-dasharray: 7.4,3.2; stroke-dashoffset: 0; stroke: #ff0000; stroke-width: 2"/>
   </g>
   <g id="line2d_60">
    <path d="M 63.605625 295.525789 
L 606.405625 295.525789 
L 606.405625 295.525789 
" clip-path="url(#p920650090a)" style="fill: none; stroke-dasharray: 5.55,2.4; stroke-dashoffset: 0; stroke: #000000; stroke-opacity: 0.5; stroke-width: 1.5"/>
   </g>
   <g id="patch_27">
    <path d="M 36.465625 314.44 
L 36.465625 236.909885 
" style="fill: none; stroke: #000000; stroke-width: 0.8; stroke-linejoin: miter; stroke-linecap: square"/>
   </g>
   <g id="patch_28">
    <path d="M 633.545625 314.44 
L 633.545625 236.909885 
" style="fill: none; stroke: #000000; stroke-width: 0.8; stroke-linejoin: miter; stroke-linecap: square"/>
   </g>
   <g id="patch_29">
    <path d="M 36.465625 314.44 
L 633.545625 314.44 
" style="fill: none; stroke: #000000; stroke-width: 0.8; stroke-linejoin: miter; stroke-linecap: square"/>
   </g>
   <g id="patch_30">
    <path d="M 36.465625 236.909885 
L 633.545625 236.909885 
" style="fill: none; stroke: #000000; stroke-width: 0.8; stroke-linejoin: miter; stroke-linecap: square"/>
   </g>
   <g id="legend_5">
    <g id="patch_31">
     <path d="M 43.465625 303.622385 
L 93.965625 303.622385 
Q 95.965625 303.622385 95.965625 301.622385 
L 95.965625 243.909885 
Q 95.965625 241.909885 93.965625 241.909885 
L 43.465625 241.909885 
Q 41.465625 241.909885 41.465625 243.909885 
L 41.465625 301.622385 
Q 41.465625 303.622385 43.465625 303.622385 
z
" style="fill: #ffffff; opacity: 0.8; stroke: #cccccc; stroke-linejoin: miter"/>
    </g>
    <g id="line2d_61">
     <path d="M 45.465625 250.008323 
L 55.465625 250.008323 
L 65.465625 250.008323 
" style="fill: none; stroke: #1f77b4; stroke-width: 2; stroke-linecap: square"/>
    </g>
    <g id="text_26">
     <!-- $I$ -->
     <g transform="translate(73.465625 253.508323) scale(0.1 -0.1)">
      <use xlink:href="#DejaVuSans-Oblique-49" transform="translate(0 0.09375)"/>
     </g>
    </g>
    <g id="line2d_62">
     <path d="M 45.465625 264.686448 
L 55.465625 264.686448 
L 65.465625 264.686448 
" style="fill: none; stroke: #ff7f0e; stroke-opacity: 0.5; stroke-width: 1.5; stroke-linecap: square"/>
    </g>
    <g id="text_27">
     <!-- $u$ -->
     <g transform="translate(73.465625 268.186448) scale(0.1 -0.1)">
      <defs>
       <path id="DejaVuSans-Oblique-75" d="M 428 1388 
L 838 3500 
L 1416 3500 
L 1006 1409 
Q 975 1256 961 1147 
Q 947 1038 947 966 
Q 947 700 1109 554 
Q 1272 409 1569 409 
Q 2031 409 2368 721 
Q 2706 1034 2809 1563 
L 3194 3500 
L 3769 3500 
L 3091 0 
L 2516 0 
L 2631 550 
Q 2388 244 2052 76 
Q 1716 -91 1338 -91 
Q 878 -91 622 161 
Q 366 413 366 863 
Q 366 956 381 1097 
Q 397 1238 428 1388 
z
" transform="scale(0.015625)"/>
      </defs>
      <use xlink:href="#DejaVuSans-Oblique-75" transform="translate(0 0.3125)"/>
     </g>
    </g>
    <g id="line2d_63">
     <path d="M 45.465625 279.364573 
L 55.465625 279.364573 
L 65.465625 279.364573 
" style="fill: none; stroke-dasharray: 7.4,3.2; stroke-dashoffset: 0; stroke: #ff0000; stroke-width: 2"/>
    </g>
    <g id="text_28">
     <!-- $L$ -->
     <g transform="translate(73.465625 282.864573) scale(0.1 -0.1)">
      <defs>
       <path id="DejaVuSans-Oblique-4c" d="M 1075 4666 
L 1709 4666 
L 909 525 
L 3181 525 
L 3078 0 
L 172 0 
L 1075 4666 
z
" transform="scale(0.015625)"/>
      </defs>
      <use xlink:href="#DejaVuSans-Oblique-4c" transform="translate(0 0.09375)"/>
     </g>
    </g>
    <g id="line2d_64">
     <path d="M 45.465625 294.042698 
L 55.465625 294.042698 
L 65.465625 294.042698 
" style="fill: none; stroke-dasharray: 5.55,2.4; stroke-dashoffset: 0; stroke: #000000; stroke-opacity: 0.5; stroke-width: 1.5"/>
    </g>
    <g id="text_29">
     <!-- $I_{\max}$ -->
     <g transform="translate(73.465625 297.542698) scale(0.1 -0.1)">
      <defs>
       <path id="DejaVuSans-78" d="M 3513 3500 
L 2247 1797 
L 3578 0 
L 2900 0 
L 1881 1375 
L 863 0 
L 184 0 
L 1544 1831 
L 300 3500 
L 978 3500 
L 1906 2253 
L 2834 3500 
L 3513 3500 
z
" transform="scale(0.015625)"/>
      </defs>
      <use xlink:href="#DejaVuSans-Oblique-49" transform="translate(0 0.09375)"/>
      <use xlink:href="#DejaVuSans-6d" transform="translate(29.492188 -16.3125) scale(0.7)"/>
      <use xlink:href="#DejaVuSans-61" transform="translate(97.680664 -16.3125) scale(0.7)"/>
      <use xlink:href="#DejaVuSans-78" transform="translate(140.576172 -16.3125) scale(0.7)"/>
     </g>
    </g>
   </g>
  </g>
 </g>
 <defs>
  <clipPath id="pee8d3a11a0">
   <rect x="36.465625" y="7.2" width="597.08" height="38.765057"/>
  </clipPath>
  <clipPath id="p75f46b4d28">
   <rect x="36.465625" y="64.627471" width="597.08" height="38.765057"/>
  </clipPath>
  <clipPath id="p4176ce13e5">
   <rect x="36.465625" y="122.054943" width="597.08" height="38.765057"/>
  </clipPath>
  <clipPath id="p7be0dee29e">
   <rect x="36.465625" y="179.482414" width="597.08" height="38.765057"/>
  </clipPath>
  <clipPath id="p920650090a">
   <rect x="36.465625" y="236.909885" width="597.08" height="77.530115"/>
  </clipPath>
 </defs>
</svg>
