<?xml version="1.0" encoding="utf-8" standalone="no"?>
<!DOCTYPE svg PUBLIC "-//W3C//DTD SVG 1.1//EN"
  "http://www.w3.org/Graphics/SVG/1.1/DTD/svg11.dtd">
<svg xmlns:xlink="http://www.w3.org/1999/xlink" width="640.727812pt" height="351.97294pt" viewBox="0 0 640.727812 351.97294" xmlns="http://www.w3.org/2000/svg" version="1.1">
 <metadata>
  <rdf:RDF xmlns:dc="http://purl.org/dc/elements/1.1/" xmlns:cc="http://creativecommons.org/ns#" xmlns:rdf="http://www.w3.org/1999/02/22-rdf-syntax-ns#">
   <cc:Work>
    <dc:type rdf:resource="http://purl.org/dc/dcmitype/StillImage"/>
    <dc:date>2025-06-19T16:33:39.042297</dc:date>
    <dc:format>image/svg+xml</dc:format>
    <dc:creator>
     <cc:Agent>
      <dc:title>Matplotlib v3.6.3, https://matplotlib.org/</dc:title>
     </cc:Agent>
    </dc:creator>
   </cc:Work>
  </rdf:RDF>
 </metadata>
 <defs>
  <style type="text/css">*{stroke-linejoin: round; stroke-linecap: butt}</style>
 </defs>
 <g id="figure_1">
  <g id="patch_1">
   <path d="M 0 351.97294 
L 640.727812 351.97294 
L 640.727812 0 
L 0 0 
z
" style="fill: #ffffff"/>
  </g>
  <g id="axes_1">
   <g id="patch_2">
    <path d="M 51.207813 46.05269 
L 633.527812 46.05269 
L 633.527812 7.935397 
L 51.207813 7.935397 
z
" style="fill: #ffffff"/>
   </g>
   <g id="matplotlib.axis_1">
    <g id="xtick_1">
     <g id="line2d_1">
      <defs>
       <path id="m1a8fb89b43" d="M 0 0 
L 0 3.5 
" style="stroke: #000000; stroke-width: 0.8"/>
      </defs>
      <g>
       <use xlink:href="#m1a8fb89b43" x="136.562534" y="46.05269" style="stroke: #000000; stroke-width: 0.8"/>
      </g>
     </g>
    </g>
    <g id="xtick_2">
     <g id="line2d_2">
      <g>
       <use xlink:href="#m1a8fb89b43" x="254.333795" y="46.05269" style="stroke: #000000; stroke-width: 0.8"/>
      </g>
     </g>
    </g>
    <g id="xtick_3">
     <g id="line2d_3">
      <g>
       <use xlink:href="#m1a8fb89b43" x="372.105056" y="46.05269" style="stroke: #000000; stroke-width: 0.8"/>
      </g>
     </g>
    </g>
    <g id="xtick_4">
     <g id="line2d_4">
      <g>
       <use xlink:href="#m1a8fb89b43" x="489.876317" y="46.05269" style="stroke: #000000; stroke-width: 0.8"/>
      </g>
     </g>
    </g>
    <g id="xtick_5">
     <g id="line2d_5">
      <g>
       <use xlink:href="#m1a8fb89b43" x="607.647578" y="46.05269" style="stroke: #000000; stroke-width: 0.8"/>
      </g>
     </g>
    </g>
   </g>
   <g id="matplotlib.axis_2">
    <g id="ytick_1">
     <g id="line2d_6">
      <defs>
       <path id="mb7dd4e45cb" d="M 0 0 
L -3.5 0 
" style="stroke: #000000; stroke-width: 0.8"/>
      </defs>
      <g>
       <use xlink:href="#mb7dd4e45cb" x="51.207813" y="44.119907" style="stroke: #000000; stroke-width: 0.8"/>
      </g>
     </g>
     <g id="text_1">
      <!-- 0.038 -->
      <g transform="translate(15.579688 47.919126) scale(0.1 -0.1)">
       <defs>
        <path id="DejaVuSans-30" d="M 2034 4250 
Q 1547 4250 1301 3770 
Q 1056 3291 1056 2328 
Q 1056 1369 1301 889 
Q 1547 409 2034 409 
Q 2525 409 2770 889 
Q 3016 1369 3016 2328 
Q 3016 3291 2770 3770 
Q 2525 4250 2034 4250 
z
M 2034 4750 
Q 2819 4750 3233 4129 
Q 3647 3509 3647 2328 
Q 3647 1150 3233 529 
Q 2819 -91 2034 -91 
Q 1250 -91 836 529 
Q 422 1150 422 2328 
Q 422 3509 836 4129 
Q 1250 4750 2034 4750 
z
" transform="scale(0.015625)"/>
        <path id="DejaVuSans-2e" d="M 684 794 
L 1344 794 
L 1344 0 
L 684 0 
L 684 794 
z
" transform="scale(0.015625)"/>
        <path id="DejaVuSans-33" d="M 2597 2516 
Q 3050 2419 3304 2112 
Q 3559 1806 3559 1356 
Q 3559 666 3084 287 
Q 2609 -91 1734 -91 
Q 1441 -91 1130 -33 
Q 819 25 488 141 
L 488 750 
Q 750 597 1062 519 
Q 1375 441 1716 441 
Q 2309 441 2620 675 
Q 2931 909 2931 1356 
Q 2931 1769 2642 2001 
Q 2353 2234 1838 2234 
L 1294 2234 
L 1294 2753 
L 1863 2753 
Q 2328 2753 2575 2939 
Q 2822 3125 2822 3475 
Q 2822 3834 2567 4026 
Q 2313 4219 1838 4219 
Q 1578 4219 1281 4162 
Q 984 4106 628 3988 
L 628 4550 
Q 988 4650 1302 4700 
Q 1616 4750 1894 4750 
Q 2613 4750 3031 4423 
Q 3450 4097 3450 3541 
Q 3450 3153 3228 2886 
Q 3006 2619 2597 2516 
z
" transform="scale(0.015625)"/>
        <path id="DejaVuSans-38" d="M 2034 2216 
Q 1584 2216 1326 1975 
Q 1069 1734 1069 1313 
Q 1069 891 1326 650 
Q 1584 409 2034 409 
Q 2484 409 2743 651 
Q 3003 894 3003 1313 
Q 3003 1734 2745 1975 
Q 2488 2216 2034 2216 
z
M 1403 2484 
Q 997 2584 770 2862 
Q 544 3141 544 3541 
Q 544 4100 942 4425 
Q 1341 4750 2034 4750 
Q 2731 4750 3128 4425 
Q 3525 4100 3525 3541 
Q 3525 3141 3298 2862 
Q 3072 2584 2669 2484 
Q 3125 2378 3379 2068 
Q 3634 1759 3634 1313 
Q 3634 634 3220 271 
Q 2806 -91 2034 -91 
Q 1263 -91 848 271 
Q 434 634 434 1313 
Q 434 1759 690 2068 
Q 947 2378 1403 2484 
z
M 1172 3481 
Q 1172 3119 1398 2916 
Q 1625 2713 2034 2713 
Q 2441 2713 2670 2916 
Q 2900 3119 2900 3481 
Q 2900 3844 2670 4047 
Q 2441 4250 2034 4250 
Q 1625 4250 1398 4047 
Q 1172 3844 1172 3481 
z
" transform="scale(0.015625)"/>
       </defs>
       <use xlink:href="#DejaVuSans-30"/>
       <use xlink:href="#DejaVuSans-2e" x="63.623047"/>
       <use xlink:href="#DejaVuSans-30" x="95.410156"/>
       <use xlink:href="#DejaVuSans-33" x="159.033203"/>
       <use xlink:href="#DejaVuSans-38" x="222.65625"/>
      </g>
     </g>
    </g>
    <g id="ytick_2">
     <g id="line2d_7">
      <g>
       <use xlink:href="#mb7dd4e45cb" x="51.207813" y="27.559563" style="stroke: #000000; stroke-width: 0.8"/>
      </g>
     </g>
     <g id="text_2">
      <!-- 0.040 -->
      <g transform="translate(15.579688 31.358782) scale(0.1 -0.1)">
       <defs>
        <path id="DejaVuSans-34" d="M 2419 4116 
L 825 1625 
L 2419 1625 
L 2419 4116 
z
M 2253 4666 
L 3047 4666 
L 3047 1625 
L 3713 1625 
L 3713 1100 
L 3047 1100 
L 3047 0 
L 2419 0 
L 2419 1100 
L 313 1100 
L 313 1709 
L 2253 4666 
z
" transform="scale(0.015625)"/>
       </defs>
       <use xlink:href="#DejaVuSans-30"/>
       <use xlink:href="#DejaVuSans-2e" x="63.623047"/>
       <use xlink:href="#DejaVuSans-30" x="95.410156"/>
       <use xlink:href="#DejaVuSans-34" x="159.033203"/>
       <use xlink:href="#DejaVuSans-30" x="222.65625"/>
      </g>
     </g>
    </g>
    <g id="ytick_3">
     <g id="line2d_8">
      <g>
       <use xlink:href="#mb7dd4e45cb" x="51.207813" y="10.999219" style="stroke: #000000; stroke-width: 0.8"/>
      </g>
     </g>
     <g id="text_3">
      <!-- 0.042 -->
      <g transform="translate(15.579688 14.798437) scale(0.1 -0.1)">
       <defs>
        <path id="DejaVuSans-32" d="M 1228 531 
L 3431 531 
L 3431 0 
L 469 0 
L 469 531 
Q 828 903 1448 1529 
Q 2069 2156 2228 2338 
Q 2531 2678 2651 2914 
Q 2772 3150 2772 3378 
Q 2772 3750 2511 3984 
Q 2250 4219 1831 4219 
Q 1534 4219 1204 4116 
Q 875 4013 500 3803 
L 500 4441 
Q 881 4594 1212 4672 
Q 1544 4750 1819 4750 
Q 2544 4750 2975 4387 
Q 3406 4025 3406 3419 
Q 3406 3131 3298 2873 
Q 3191 2616 2906 2266 
Q 2828 2175 2409 1742 
Q 1991 1309 1228 531 
z
" transform="scale(0.015625)"/>
       </defs>
       <use xlink:href="#DejaVuSans-30"/>
       <use xlink:href="#DejaVuSans-2e" x="63.623047"/>
       <use xlink:href="#DejaVuSans-30" x="95.410156"/>
       <use xlink:href="#DejaVuSans-34" x="159.033203"/>
       <use xlink:href="#DejaVuSans-32" x="222.65625"/>
      </g>
     </g>
    </g>
   </g>
   <g id="line2d_9">
    <path d="M 77.676903 26.671514 
L 78.26576 25.675606 
L 78.854616 26.849743 
L 79.443472 33.152002 
L 80.032329 24.71661 
L 80.621185 24.237987 
L 81.210041 23.932867 
L 81.798898 21.358018 
L 82.387754 26.338982 
L 82.97661 29.537941 
L 83.565466 28.93274 
L 84.154323 29.381695 
L 84.743179 26.48678 
L 85.332035 26.427049 
L 85.920892 28.063065 
L 86.509748 17.841021 
L 87.098604 17.232687 
L 87.687461 20.003377 
L 88.276317 24.813144 
L 88.865173 31.67742 
L 89.45403 27.258742 
L 90.042886 31.435282 
L 91.220598 18.220023 
L 91.809455 14.974111 
L 92.398311 29.431291 
L 92.987167 21.283364 
L 93.576024 42.856881 
L 94.16488 25.286394 
L 94.753736 27.191258 
L 95.342593 29.907679 
L 95.931449 22.94703 
L 96.520305 28.732513 
L 97.109161 22.218677 
L 97.698018 22.669759 
L 98.286874 20.310587 
L 98.87573 29.211334 
L 99.464587 33.281962 
L 100.053443 30.993369 
L 100.642299 25.412136 
L 101.231156 26.271782 
L 101.820012 32.302145 
L 102.408868 32.555566 
L 102.997725 27.534211 
L 103.586581 27.582606 
L 104.175437 24.735283 
L 104.764293 26.361271 
L 105.35315 33.117702 
L 105.942006 19.745634 
L 106.530862 25.721746 
L 107.119719 22.342512 
L 107.708575 22.333392 
L 108.297431 24.436987 
L 108.886288 25.249205 
L 109.475144 33.182472 
L 110.064 25.337795 
L 110.652856 29.863779 
L 111.241713 31.035011 
L 111.830569 23.565272 
L 112.419425 24.18286 
L 113.008282 21.974843 
L 113.597138 26.383372 
L 114.185994 25.846411 
L 114.774851 21.563418 
L 115.363707 27.308141 
L 115.952563 27.072919 
L 116.54142 23.906686 
L 117.130276 23.20764 
L 117.719132 28.529355 
L 118.307988 17.693965 
L 118.896845 13.404488 
L 119.485701 23.362571 
L 120.074557 30.39973 
L 120.663414 30.640247 
L 121.25227 22.602164 
L 121.841126 26.701253 
L 122.429983 23.934733 
L 123.018839 32.779549 
L 123.607695 30.09171 
L 124.196552 19.550398 
L 124.785408 28.216415 
L 125.374264 28.919345 
L 125.96312 22.609834 
L 126.551977 20.644691 
L 127.140833 27.482024 
L 127.729689 30.673814 
L 128.318546 29.143309 
L 128.907402 35.202361 
L 129.496258 19.882302 
L 130.085115 25.714461 
L 130.673971 23.618769 
L 131.262827 25.362487 
L 131.851683 28.211297 
L 132.44054 23.343764 
L 133.029396 24.776283 
L 134.207109 28.782434 
L 134.795965 20.141521 
L 135.384821 26.242771 
L 135.973678 23.347532 
L 136.562534 21.611813 
L 137.15139 25.729728 
L 138.329103 20.057586 
L 138.917959 26.131728 
L 139.506815 28.212915 
L 140.095672 27.522189 
L 140.684528 28.198282 
L 141.273384 24.864893 
L 141.862241 23.319134 
L 142.451097 28.540061 
L 143.039953 30.723032 
L 143.62881 29.984272 
L 144.217666 28.447678 
L 144.806522 22.022802 
L 145.395378 33.977854 
L 145.984235 27.104127 
L 146.573091 29.750587 
L 147.161947 24.494475 
L 147.750804 23.8434 
L 148.33966 23.657201 
L 148.928516 30.446665 
L 149.517373 20.243775 
L 150.106229 31.176693 
L 150.695085 32.106734 
L 151.283942 44.320086 
L 151.872798 24.578637 
L 152.461654 40.335462 
L 153.05051 27.672985 
L 153.639367 9.668002 
L 154.228223 20.554079 
L 154.817079 14.877535 
L 155.405936 14.140855 
L 155.994792 40.084736 
L 157.172505 24.455705 
L 157.761361 25.916029 
L 158.350217 18.717256 
L 158.939073 34.321339 
L 159.52793 20.710081 
L 160.116786 36.738597 
L 160.705642 24.28468 
L 161.294499 26.69232 
L 161.883355 25.728382 
L 162.472211 37.821611 
L 163.061068 30.852801 
L 163.649924 25.982745 
L 164.23878 29.288144 
L 164.827637 29.208843 
L 165.416493 25.503199 
L 166.005349 26.125521 
L 166.594205 25.510613 
L 167.183062 29.727969 
L 167.771918 27.367313 
L 168.360774 28.836792 
L 168.949631 29.943112 
L 169.538487 27.402159 
L 170.127343 26.203718 
L 170.7162 28.253263 
L 171.305056 26.688893 
L 171.893912 26.991585 
L 172.482769 26.227061 
L 173.071625 26.825979 
L 173.660481 28.263579 
L 174.249337 27.07575 
L 174.838194 26.993682 
L 175.42705 27.970147 
L 176.015906 28.567626 
L 176.604763 27.647192 
L 177.193619 27.561728 
L 177.782475 27.297873 
L 178.371332 27.307831 
L 178.960188 27.698154 
L 179.549044 27.396294 
L 180.1379 27.437081 
L 180.726757 27.712047 
L 181.315613 27.528007 
L 181.904469 27.586363 
L 182.493326 27.442879 
L 183.671038 27.476267 
L 184.259895 27.637956 
L 184.848751 27.328271 
L 187.204176 27.745528 
L 188.381889 27.520639 
L 188.970745 27.614206 
L 191.32617 27.462243 
L 191.915027 27.627555 
L 193.681595 27.49983 
L 194.270452 27.644723 
L 195.448164 27.518528 
L 197.214733 27.66162 
L 197.80359 27.509048 
L 198.981302 27.600774 
L 199.570159 27.538705 
L 200.159015 27.689173 
L 201.336727 27.519661 
L 226.068692 27.560594 
L 229.012974 27.562303 
L 237.256962 27.541876 
L 246.678663 27.561352 
L 352.083942 27.558893 
L 380.349044 27.559953 
L 425.69098 27.559007 
L 514.019425 27.560037 
L 604.11444 27.559247 
L 607.058722 27.559588 
L 607.058722 27.559588 
" clip-path="url(#pc0b45ee92f)" style="fill: none; stroke: #1f77b4; stroke-width: 2; stroke-linecap: square"/>
   </g>
   <g id="line2d_10">
    <path d="M 77.676903 27.559563 
L 607.058722 27.559563 
L 607.058722 27.559563 
" clip-path="url(#pc0b45ee92f)" style="fill: none; stroke-dasharray: 5.55,2.4; stroke-dashoffset: 0; stroke: #000000; stroke-width: 1.5"/>
   </g>
   <g id="patch_3">
    <path d="M 51.207813 46.05269 
L 51.207813 7.935397 
" style="fill: none; stroke: #000000; stroke-width: 0.8; stroke-linejoin: miter; stroke-linecap: square"/>
   </g>
   <g id="patch_4">
    <path d="M 633.527812 46.05269 
L 633.527812 7.935397 
" style="fill: none; stroke: #000000; stroke-width: 0.8; stroke-linejoin: miter; stroke-linecap: square"/>
   </g>
   <g id="patch_5">
    <path d="M 51.207812 46.05269 
L 633.527812 46.05269 
" style="fill: none; stroke: #000000; stroke-width: 0.8; stroke-linejoin: miter; stroke-linecap: square"/>
   </g>
   <g id="patch_6">
    <path d="M 51.207812 7.935397 
L 633.527812 7.935397 
" style="fill: none; stroke: #000000; stroke-width: 0.8; stroke-linejoin: miter; stroke-linecap: square"/>
   </g>
   <g id="legend_1">
    <g id="patch_7">
     <path d="M 551.127813 49.235397 
L 626.527812 49.235397 
Q 628.527812 49.235397 628.527812 47.235397 
L 628.527812 14.935397 
Q 628.527812 12.935397 626.527812 12.935397 
L 551.127813 12.935397 
Q 549.127813 12.935397 549.127813 14.935397 
L 549.127813 47.235397 
Q 549.127813 49.235397 551.127813 49.235397 
z
" style="fill: #ffffff; opacity: 0.8; stroke: #cccccc; stroke-linejoin: miter"/>
    </g>
    <g id="line2d_11">
     <path d="M 553.127813 24.835397 
L 563.127813 24.835397 
L 573.127813 24.835397 
" style="fill: none; stroke: #1f77b4; stroke-width: 2; stroke-linecap: square"/>
    </g>
    <g id="text_4">
     <!-- $\hat\beta$ -->
     <g transform="translate(581.127813 28.335397) scale(0.1 -0.1)">
      <defs>
       <path id="DejaVuSans-302" d="M -1831 5119 
L -1369 5119 
L -603 3944 
L -1038 3944 
L -1600 4709 
L -2163 3944 
L -2597 3944 
L -1831 5119 
z
M -1600 3584 
L -1600 3584 
z
" transform="scale(0.015625)"/>
       <path id="DejaVuSans-Oblique-3b2" d="M 872 216 
L 572 -1331 
L -6 -1331 
L 928 3478 
Q 1206 4903 2538 4903 
Q 3888 4903 3659 3700 
Q 3503 2844 2894 2531 
Q 3713 2250 3553 1416 
Q 3272 -69 1759 -66 
Q 1097 -63 872 216 
z
M 1019 966 
Q 1259 422 1875 425 
Q 2775 425 2966 1406 
Q 3138 2288 1675 2219 
L 1778 2750 
Q 2909 2731 3106 3750 
Q 3241 4438 2509 4434 
Q 1691 4434 1503 3459 
L 1019 966 
z
" transform="scale(0.015625)"/>
      </defs>
      <use xlink:href="#DejaVuSans-302" transform="translate(62.785156 34.015625)"/>
      <use xlink:href="#DejaVuSans-Oblique-3b2" transform="translate(0 0.90625)"/>
     </g>
    </g>
    <g id="line2d_12">
     <path d="M 553.127813 39.635397 
L 563.127813 39.635397 
L 573.127813 39.635397 
" style="fill: none; stroke-dasharray: 5.55,2.4; stroke-dashoffset: 0; stroke: #000000; stroke-width: 1.5"/>
    </g>
    <g id="text_5">
     <!-- $\beta$ = 0.04 -->
     <g transform="translate(581.127813 43.135397) scale(0.1 -0.1)">
      <defs>
       <path id="DejaVuSans-20" transform="scale(0.015625)"/>
       <path id="DejaVuSans-3d" d="M 678 2906 
L 4684 2906 
L 4684 2381 
L 678 2381 
L 678 2906 
z
M 678 1631 
L 4684 1631 
L 4684 1100 
L 678 1100 
L 678 1631 
z
" transform="scale(0.015625)"/>
      </defs>
      <use xlink:href="#DejaVuSans-Oblique-3b2" transform="translate(0 0.390625)"/>
      <use xlink:href="#DejaVuSans-20" transform="translate(63.818359 0.390625)"/>
      <use xlink:href="#DejaVuSans-3d" transform="translate(95.605469 0.390625)"/>
      <use xlink:href="#DejaVuSans-20" transform="translate(179.394531 0.390625)"/>
      <use xlink:href="#DejaVuSans-30" transform="translate(211.181641 0.390625)"/>
      <use xlink:href="#DejaVuSans-2e" transform="translate(274.804688 0.390625)"/>
      <use xlink:href="#DejaVuSans-30" transform="translate(306.591797 0.390625)"/>
      <use xlink:href="#DejaVuSans-34" transform="translate(370.214844 0.390625)"/>
     </g>
    </g>
   </g>
  </g>
  <g id="axes_2">
   <g id="patch_8">
    <path d="M 51.207813 103.614367 
L 633.527812 103.614367 
L 633.527812 65.497074 
L 51.207813 65.497074 
z
" style="fill: #ffffff"/>
   </g>
   <g id="matplotlib.axis_3">
    <g id="xtick_6">
     <g id="line2d_13">
      <g>
       <use xlink:href="#m1a8fb89b43" x="136.562534" y="103.614367" style="stroke: #000000; stroke-width: 0.8"/>
      </g>
     </g>
    </g>
    <g id="xtick_7">
     <g id="line2d_14">
      <g>
       <use xlink:href="#m1a8fb89b43" x="254.333795" y="103.614367" style="stroke: #000000; stroke-width: 0.8"/>
      </g>
     </g>
    </g>
    <g id="xtick_8">
     <g id="line2d_15">
      <g>
       <use xlink:href="#m1a8fb89b43" x="372.105056" y="103.614367" style="stroke: #000000; stroke-width: 0.8"/>
      </g>
     </g>
    </g>
    <g id="xtick_9">
     <g id="line2d_16">
      <g>
       <use xlink:href="#m1a8fb89b43" x="489.876317" y="103.614367" style="stroke: #000000; stroke-width: 0.8"/>
      </g>
     </g>
    </g>
    <g id="xtick_10">
     <g id="line2d_17">
      <g>
       <use xlink:href="#m1a8fb89b43" x="607.647578" y="103.614367" style="stroke: #000000; stroke-width: 0.8"/>
      </g>
     </g>
    </g>
   </g>
   <g id="matplotlib.axis_4">
    <g id="ytick_4">
     <g id="line2d_18">
      <g>
       <use xlink:href="#mb7dd4e45cb" x="51.207813" y="100.705686" style="stroke: #000000; stroke-width: 0.8"/>
      </g>
     </g>
     <g id="text_6">
      <!-- 0.008 -->
      <g transform="translate(15.579688 104.504905) scale(0.1 -0.1)">
       <use xlink:href="#DejaVuSans-30"/>
       <use xlink:href="#DejaVuSans-2e" x="63.623047"/>
       <use xlink:href="#DejaVuSans-30" x="95.410156"/>
       <use xlink:href="#DejaVuSans-30" x="159.033203"/>
       <use xlink:href="#DejaVuSans-38" x="222.65625"/>
      </g>
     </g>
    </g>
    <g id="ytick_5">
     <g id="line2d_19">
      <g>
       <use xlink:href="#mb7dd4e45cb" x="51.207813" y="84.622159" style="stroke: #000000; stroke-width: 0.8"/>
      </g>
     </g>
     <g id="text_7">
      <!-- 0.010 -->
      <g transform="translate(15.579688 88.421378) scale(0.1 -0.1)">
       <defs>
        <path id="DejaVuSans-31" d="M 794 531 
L 1825 531 
L 1825 4091 
L 703 3866 
L 703 4441 
L 1819 4666 
L 2450 4666 
L 2450 531 
L 3481 531 
L 3481 0 
L 794 0 
L 794 531 
z
" transform="scale(0.015625)"/>
       </defs>
       <use xlink:href="#DejaVuSans-30"/>
       <use xlink:href="#DejaVuSans-2e" x="63.623047"/>
       <use xlink:href="#DejaVuSans-30" x="95.410156"/>
       <use xlink:href="#DejaVuSans-31" x="159.033203"/>
       <use xlink:href="#DejaVuSans-30" x="222.65625"/>
      </g>
     </g>
    </g>
    <g id="ytick_6">
     <g id="line2d_20">
      <g>
       <use xlink:href="#mb7dd4e45cb" x="51.207813" y="68.538632" style="stroke: #000000; stroke-width: 0.8"/>
      </g>
     </g>
     <g id="text_8">
      <!-- 0.012 -->
      <g transform="translate(15.579688 72.33785) scale(0.1 -0.1)">
       <use xlink:href="#DejaVuSans-30"/>
       <use xlink:href="#DejaVuSans-2e" x="63.623047"/>
       <use xlink:href="#DejaVuSans-30" x="95.410156"/>
       <use xlink:href="#DejaVuSans-31" x="159.033203"/>
       <use xlink:href="#DejaVuSans-32" x="222.65625"/>
      </g>
     </g>
    </g>
   </g>
   <g id="line2d_21">
    <path d="M 77.676903 84.07883 
L 78.26576 82.879384 
L 78.854616 84.280102 
L 79.443472 91.809993 
L 80.032329 81.793847 
L 80.621185 81.215037 
L 81.210041 80.841383 
L 81.798898 77.789964 
L 82.387754 83.623865 
L 82.97661 87.371884 
L 83.565466 86.674497 
L 84.154323 87.205262 
L 84.743179 83.850057 
L 85.332035 83.778984 
L 85.920892 85.667217 
L 86.509748 73.893824 
L 87.098604 73.164383 
L 87.687461 76.307077 
L 88.276317 81.780332 
L 88.865173 89.594908 
L 89.45403 84.586384 
L 90.042886 89.320525 
L 91.220598 74.408081 
L 91.809455 70.734236 
L 92.398311 86.923924 
L 92.987167 77.810205 
L 93.576024 101.881763 
L 94.16488 82.347992 
L 94.753736 84.460247 
L 95.342593 87.4713 
L 95.931449 79.778712 
L 96.520305 86.154045 
L 97.109161 78.985583 
L 97.698018 79.471722 
L 98.286874 76.877534 
L 98.87573 86.600283 
L 99.464587 91.046086 
L 100.053443 88.563405 
L 100.642299 82.503457 
L 101.231156 83.432963 
L 101.820012 89.958835 
L 102.408868 90.239859 
L 102.997725 84.83359 
L 103.586581 84.886067 
L 104.175437 81.828508 
L 104.764293 83.568329 
L 105.35315 90.796471 
L 105.942006 76.522045 
L 106.530862 82.884425 
L 107.119719 79.286571 
L 107.708575 79.271496 
L 108.297431 81.497041 
L 108.886288 82.353947 
L 109.475144 90.736229 
L 110.064 82.465097 
L 110.652856 87.23075 
L 111.241713 88.464795 
L 111.830569 80.62518 
L 112.419425 81.269425 
L 113.008282 78.955771 
L 113.597138 83.558691 
L 114.185994 82.997654 
L 114.774851 78.534042 
L 115.363707 84.506479 
L 115.952563 84.26209 
L 116.54142 80.977407 
L 117.130276 80.250977 
L 117.719132 85.753199 
L 118.307988 74.561156 
L 118.896845 70.130287 
L 119.485701 80.380784 
L 120.074557 87.618318 
L 120.663414 87.867081 
L 121.25227 79.62093 
L 121.841126 83.819118 
L 122.429983 80.987249 
L 123.018839 90.026734 
L 123.607695 87.285204 
L 124.196552 76.537688 
L 124.785408 85.360138 
L 125.374264 86.075515 
L 125.96312 79.665495 
L 126.551977 77.669173 
L 127.140833 84.597368 
L 127.729689 87.829131 
L 128.318546 86.282423 
L 128.907402 92.404183 
L 129.496258 76.947052 
L 130.085115 82.823563 
L 130.673971 80.712706 
L 131.262827 82.465455 
L 131.851683 85.327383 
L 132.44054 80.441606 
L 133.029396 81.87688 
L 134.207109 85.887281 
L 134.795965 77.248593 
L 135.384821 83.340751 
L 135.973678 80.451365 
L 136.562534 78.719936 
L 137.15139 82.819992 
L 138.329103 77.176406 
L 138.917959 83.208297 
L 139.506815 85.273443 
L 140.095672 84.588675 
L 140.684528 85.258495 
L 141.273384 81.958792 
L 141.862241 80.429272 
L 142.451097 85.588775 
L 143.039953 87.74492 
L 143.62881 87.016426 
L 144.217666 85.50158 
L 144.806522 79.170873 
L 145.395378 90.940719 
L 145.984235 84.17975 
L 146.573091 86.78083 
L 147.161947 81.619969 
L 147.750804 80.980729 
L 148.33966 80.797558 
L 148.928516 87.44382 
L 149.517373 77.465243 
L 150.106229 88.147019 
L 150.695085 89.055972 
L 151.283942 100.972601 
L 151.872798 81.731095 
L 152.461654 97.082767 
L 153.05051 84.756161 
L 153.639367 67.229678 
L 154.228223 77.814786 
L 154.817079 72.2891 
L 155.405936 71.565719 
L 155.994792 96.787836 
L 157.172505 81.601952 
L 157.761361 83.019632 
L 158.350217 76.017037 
L 158.939073 91.187093 
L 159.52793 77.951293 
L 160.116786 93.542241 
L 160.705642 81.429491 
L 161.294499 83.769955 
L 161.883355 82.82969 
L 162.472211 94.61366 
L 163.061068 87.834035 
L 163.649924 83.087935 
L 164.23878 86.312057 
L 164.827637 86.237867 
L 165.416493 82.61872 
L 166.005349 83.223152 
L 166.594205 82.617884 
L 167.183062 86.745439 
L 167.771918 84.435756 
L 168.360774 85.87778 
L 168.949631 86.968518 
L 169.538487 84.476266 
L 170.127343 83.295689 
L 170.7162 85.311768 
L 171.305056 83.770161 
L 171.893912 84.066159 
L 172.482769 83.307512 
L 173.071625 83.89564 
L 173.660481 85.319 
L 174.249337 84.141763 
L 174.838194 84.05789 
L 175.42705 85.02843 
L 176.015906 85.626899 
L 176.604763 84.711695 
L 177.193619 84.626574 
L 177.782475 84.361854 
L 178.371332 84.370376 
L 178.960188 84.761967 
L 179.549044 84.458256 
L 180.1379 84.498453 
L 180.726757 84.776172 
L 181.315613 84.590405 
L 181.904469 84.649541 
L 182.493326 84.503487 
L 183.671038 84.535791 
L 184.259895 84.70102 
L 184.848751 84.383161 
L 187.204176 84.812421 
L 188.381889 84.580119 
L 188.970745 84.677585 
L 191.32617 84.518116 
L 191.915027 84.692202 
L 193.681595 84.557192 
L 194.270452 84.711637 
L 195.448164 84.576772 
L 197.214733 84.731173 
L 197.80359 84.566382 
L 198.981302 84.66599 
L 199.570159 84.598411 
L 200.159015 84.76364 
L 201.336727 84.578535 
L 230.779543 84.637623 
L 233.134968 84.618279 
L 240.7901 84.622845 
L 259.044645 84.614179 
L 263.755496 84.6231 
L 289.076317 84.62373 
L 340.895672 84.621879 
L 379.171332 84.622313 
L 607.058722 84.622253 
L 607.058722 84.622253 
" clip-path="url(#p18efa29ea8)" style="fill: none; stroke: #1f77b4; stroke-width: 2; stroke-linecap: square"/>
   </g>
   <g id="line2d_22">
    <path d="M 77.676903 84.622159 
L 607.058722 84.622159 
L 607.058722 84.622159 
" clip-path="url(#p18efa29ea8)" style="fill: none; stroke-dasharray: 5.55,2.4; stroke-dashoffset: 0; stroke: #000000; stroke-width: 1.5"/>
   </g>
   <g id="patch_9">
    <path d="M 51.207813 103.614367 
L 51.207813 65.497074 
" style="fill: none; stroke: #000000; stroke-width: 0.8; stroke-linejoin: miter; stroke-linecap: square"/>
   </g>
   <g id="patch_10">
    <path d="M 633.527812 103.614367 
L 633.527812 65.497074 
" style="fill: none; stroke: #000000; stroke-width: 0.8; stroke-linejoin: miter; stroke-linecap: square"/>
   </g>
   <g id="patch_11">
    <path d="M 51.207812 103.614367 
L 633.527812 103.614367 
" style="fill: none; stroke: #000000; stroke-width: 0.8; stroke-linejoin: miter; stroke-linecap: square"/>
   </g>
   <g id="patch_12">
    <path d="M 51.207812 65.497074 
L 633.527812 65.497074 
" style="fill: none; stroke: #000000; stroke-width: 0.8; stroke-linejoin: miter; stroke-linecap: square"/>
   </g>
   <g id="legend_2">
    <g id="patch_13">
     <path d="M 549.227812 104.495512 
L 626.527812 104.495512 
Q 628.527812 104.495512 628.527812 102.495512 
L 628.527812 72.497074 
Q 628.527812 70.497074 626.527812 70.497074 
L 549.227812 70.497074 
Q 547.227812 70.497074 547.227812 72.497074 
L 547.227812 102.495512 
Q 547.227812 104.495512 549.227812 104.495512 
z
" style="fill: #ffffff; opacity: 0.8; stroke: #cccccc; stroke-linejoin: miter"/>
    </g>
    <g id="line2d_23">
     <path d="M 551.227812 80.197074 
L 561.227812 80.197074 
L 571.227812 80.197074 
" style="fill: none; stroke: #1f77b4; stroke-width: 2; stroke-linecap: square"/>
    </g>
    <g id="text_9">
     <!-- $\hat\gamma_I$ -->
     <g transform="translate(579.227812 83.697074) scale(0.1 -0.1)">
      <defs>
       <path id="DejaVuSans-Oblique-3b3" d="M 1491 2950 
L 1838 788 
L 3456 3500 
L 4066 3500 
L 1972 0 
L 1713 -1331 
L 1138 -1331 
L 1397 0 
L 988 2613 
Q 925 3006 628 3006 
L 475 3006 
L 569 3500 
L 788 3500 
Q 1403 3500 1491 2950 
z
" transform="scale(0.015625)"/>
       <path id="DejaVuSans-Oblique-49" d="M 1081 4666 
L 1716 4666 
L 806 0 
L 172 0 
L 1081 4666 
z
" transform="scale(0.015625)"/>
      </defs>
      <use xlink:href="#DejaVuSans-302" transform="translate(59.601562 12.015625)"/>
      <use xlink:href="#DejaVuSans-Oblique-3b3" transform="translate(0 0.828125)"/>
      <use xlink:href="#DejaVuSans-Oblique-49" transform="translate(60.136719 -15.578125) scale(0.7)"/>
     </g>
    </g>
    <g id="line2d_24">
     <path d="M 551.227812 94.895512 
L 561.227812 94.895512 
L 571.227812 94.895512 
" style="fill: none; stroke-dasharray: 5.55,2.4; stroke-dashoffset: 0; stroke: #000000; stroke-width: 1.5"/>
    </g>
    <g id="text_10">
     <!-- $\gamma_I$ = 0.01 -->
     <g transform="translate(579.227812 98.395512) scale(0.1 -0.1)">
      <use xlink:href="#DejaVuSans-Oblique-3b3" transform="translate(0 0.78125)"/>
      <use xlink:href="#DejaVuSans-Oblique-49" transform="translate(59.179688 -15.625) scale(0.7)"/>
      <use xlink:href="#DejaVuSans-20" transform="translate(82.558594 0.78125)"/>
      <use xlink:href="#DejaVuSans-3d" transform="translate(114.345703 0.78125)"/>
      <use xlink:href="#DejaVuSans-20" transform="translate(198.134766 0.78125)"/>
      <use xlink:href="#DejaVuSans-30" transform="translate(229.921875 0.78125)"/>
      <use xlink:href="#DejaVuSans-2e" transform="translate(293.544922 0.78125)"/>
      <use xlink:href="#DejaVuSans-30" transform="translate(325.332031 0.78125)"/>
      <use xlink:href="#DejaVuSans-31" transform="translate(388.955078 0.78125)"/>
     </g>
    </g>
   </g>
  </g>
  <g id="axes_3">
   <g id="patch_14">
    <path d="M 51.207813 161.176044 
L 633.527812 161.176044 
L 633.527812 123.058751 
L 51.207813 123.058751 
z
" style="fill: #ffffff"/>
   </g>
   <g id="matplotlib.axis_5">
    <g id="xtick_11">
     <g id="line2d_25">
      <g>
       <use xlink:href="#m1a8fb89b43" x="136.562534" y="161.176044" style="stroke: #000000; stroke-width: 0.8"/>
      </g>
     </g>
    </g>
    <g id="xtick_12">
     <g id="line2d_26">
      <g>
       <use xlink:href="#m1a8fb89b43" x="254.333795" y="161.176044" style="stroke: #000000; stroke-width: 0.8"/>
      </g>
     </g>
    </g>
    <g id="xtick_13">
     <g id="line2d_27">
      <g>
       <use xlink:href="#m1a8fb89b43" x="372.105056" y="161.176044" style="stroke: #000000; stroke-width: 0.8"/>
      </g>
     </g>
    </g>
    <g id="xtick_14">
     <g id="line2d_28">
      <g>
       <use xlink:href="#m1a8fb89b43" x="489.876317" y="161.176044" style="stroke: #000000; stroke-width: 0.8"/>
      </g>
     </g>
    </g>
    <g id="xtick_15">
     <g id="line2d_29">
      <g>
       <use xlink:href="#m1a8fb89b43" x="607.647578" y="161.176044" style="stroke: #000000; stroke-width: 0.8"/>
      </g>
     </g>
    </g>
   </g>
   <g id="matplotlib.axis_6">
    <g id="ytick_7">
     <g id="line2d_30">
      <g>
       <use xlink:href="#mb7dd4e45cb" x="51.207813" y="158.936491" style="stroke: #000000; stroke-width: 0.8"/>
      </g>
     </g>
     <g id="text_11">
      <!-- 0.0019 -->
      <g transform="translate(9.217188 162.73571) scale(0.1 -0.1)">
       <defs>
        <path id="DejaVuSans-39" d="M 703 97 
L 703 672 
Q 941 559 1184 500 
Q 1428 441 1663 441 
Q 2288 441 2617 861 
Q 2947 1281 2994 2138 
Q 2813 1869 2534 1725 
Q 2256 1581 1919 1581 
Q 1219 1581 811 2004 
Q 403 2428 403 3163 
Q 403 3881 828 4315 
Q 1253 4750 1959 4750 
Q 2769 4750 3195 4129 
Q 3622 3509 3622 2328 
Q 3622 1225 3098 567 
Q 2575 -91 1691 -91 
Q 1453 -91 1209 -44 
Q 966 3 703 97 
z
M 1959 2075 
Q 2384 2075 2632 2365 
Q 2881 2656 2881 3163 
Q 2881 3666 2632 3958 
Q 2384 4250 1959 4250 
Q 1534 4250 1286 3958 
Q 1038 3666 1038 3163 
Q 1038 2656 1286 2365 
Q 1534 2075 1959 2075 
z
" transform="scale(0.015625)"/>
       </defs>
       <use xlink:href="#DejaVuSans-30"/>
       <use xlink:href="#DejaVuSans-2e" x="63.623047"/>
       <use xlink:href="#DejaVuSans-30" x="95.410156"/>
       <use xlink:href="#DejaVuSans-30" x="159.033203"/>
       <use xlink:href="#DejaVuSans-31" x="222.65625"/>
       <use xlink:href="#DejaVuSans-39" x="286.279297"/>
      </g>
     </g>
    </g>
    <g id="ytick_8">
     <g id="line2d_31">
      <g>
       <use xlink:href="#mb7dd4e45cb" x="51.207813" y="145.259529" style="stroke: #000000; stroke-width: 0.8"/>
      </g>
     </g>
     <g id="text_12">
      <!-- 0.0020 -->
      <g transform="translate(9.217188 149.058748) scale(0.1 -0.1)">
       <use xlink:href="#DejaVuSans-30"/>
       <use xlink:href="#DejaVuSans-2e" x="63.623047"/>
       <use xlink:href="#DejaVuSans-30" x="95.410156"/>
       <use xlink:href="#DejaVuSans-30" x="159.033203"/>
       <use xlink:href="#DejaVuSans-32" x="222.65625"/>
       <use xlink:href="#DejaVuSans-30" x="286.279297"/>
      </g>
     </g>
    </g>
    <g id="ytick_9">
     <g id="line2d_32">
      <g>
       <use xlink:href="#mb7dd4e45cb" x="51.207813" y="131.582567" style="stroke: #000000; stroke-width: 0.8"/>
      </g>
     </g>
     <g id="text_13">
      <!-- 0.0021 -->
      <g transform="translate(9.217188 135.381786) scale(0.1 -0.1)">
       <use xlink:href="#DejaVuSans-30"/>
       <use xlink:href="#DejaVuSans-2e" x="63.623047"/>
       <use xlink:href="#DejaVuSans-30" x="95.410156"/>
       <use xlink:href="#DejaVuSans-30" x="159.033203"/>
       <use xlink:href="#DejaVuSans-32" x="222.65625"/>
       <use xlink:href="#DejaVuSans-31" x="286.279297"/>
      </g>
     </g>
    </g>
   </g>
   <g id="line2d_33">
    <path d="M 77.676903 142.545991 
L 78.26576 144.521877 
L 78.854616 142.30632 
L 79.443472 130.316278 
L 80.032329 145.834389 
L 80.621185 146.804239 
L 81.210041 147.462242 
L 81.798898 152.148879 
L 82.387754 143.669436 
L 82.97661 138.212669 
L 83.565466 139.145686 
L 84.154323 138.339442 
L 84.743179 142.966909 
L 85.332035 143.078162 
L 85.920892 140.530234 
L 86.509748 156.242427 
L 87.098604 157.422532 
L 87.687461 153.576112 
L 88.276317 146.747857 
L 88.865173 136.973428 
L 89.45403 143.079608 
L 90.042886 137.307172 
L 91.220598 155.002422 
L 91.809455 159.443439 
L 92.398311 141.139656 
L 92.987167 151.36579 
L 93.576024 124.791355 
L 94.16488 145.829883 
L 94.753736 143.595377 
L 95.342593 140.418057 
L 95.931449 148.364436 
L 96.520305 141.916887 
L 97.109161 149.096252 
L 97.698018 148.686726 
L 98.286874 151.269906 
L 98.87573 142.074676 
L 99.464587 137.875246 
L 100.053443 140.092943 
L 100.642299 145.54806 
L 101.231156 144.740852 
L 101.820012 139.03045 
L 102.408868 138.732557 
L 102.997725 143.252839 
L 103.586581 143.206162 
L 104.175437 145.701861 
L 104.764293 144.329724 
L 105.35315 138.637472 
L 105.942006 149.63911 
L 106.530862 144.866816 
L 107.119719 147.568034 
L 107.708575 147.621431 
L 108.297431 146.060317 
L 108.886288 145.477989 
L 109.475144 139.679573 
L 110.064 145.264856 
L 110.652856 142.096035 
L 111.241713 141.268866 
L 111.830569 146.282624 
L 112.419425 145.901846 
L 113.008282 147.353639 
L 113.597138 144.596447 
L 114.185994 144.936048 
L 114.774851 147.547021 
L 115.363707 144.168937 
L 115.952563 144.306089 
L 116.54142 146.10963 
L 117.130276 146.518987 
L 117.719132 143.644653 
L 118.307988 149.407934 
L 118.896845 151.693657 
L 119.485701 146.696086 
L 120.074557 143.215393 
L 120.663414 143.084041 
L 121.25227 146.886676 
L 121.841126 145.006894 
L 122.429983 146.264043 
L 123.018839 142.365484 
L 123.607695 143.503602 
L 124.196552 147.936077 
L 124.785408 144.402633 
L 125.374264 144.117666 
L 125.96312 146.580809 
L 126.551977 147.348745 
L 127.140833 144.830758 
L 127.729689 143.674428 
L 128.318546 144.203439 
L 128.907402 142.116241 
L 129.496258 147.212774 
L 130.085115 145.338747 
L 130.673971 146.007663 
L 131.262827 145.482729 
L 131.851683 144.636764 
L 132.44054 146.04957 
L 133.029396 145.656884 
L 134.207109 144.583089 
L 134.795965 146.809844 
L 135.384821 145.30154 
L 135.973678 146.007271 
L 136.562534 146.425832 
L 137.15139 145.502783 
L 138.329103 146.750638 
L 138.917959 145.51564 
L 139.506815 145.104305 
L 140.095672 145.23572 
L 140.684528 145.110267 
L 141.273384 145.707062 
L 141.862241 145.98092 
L 142.451097 145.115882 
L 143.039953 144.76122 
L 143.62881 144.869663 
L 144.217666 145.095058 
L 144.806522 146.01918 
L 145.395378 144.379328 
L 145.984235 145.271311 
L 146.573091 144.941611 
L 147.161947 145.555686 
L 148.33966 145.661799 
L 148.928516 145.026226 
L 149.517373 145.913713 
L 150.106229 145.049093 
L 150.695085 144.969133 
L 151.283942 144.110957 
L 151.872798 145.322243 
L 152.461654 144.385318 
L 153.05051 145.053049 
L 153.639367 146.026862 
L 154.228223 145.543492 
L 154.817079 145.867895 
L 155.405936 145.975477 
L 155.994792 144.759307 
L 157.172505 145.435744 
L 157.761361 145.382362 
L 158.350217 145.790868 
L 158.939073 144.976124 
L 159.52793 145.730139 
L 160.116786 144.783194 
L 160.705642 145.519272 
L 161.294499 145.386202 
L 161.883355 145.47073 
L 162.472211 144.514219 
L 163.649924 145.369299 
L 164.23878 145.068232 
L 164.827637 145.046391 
L 165.416493 145.43395 
L 166.005349 145.399106 
L 166.594205 145.5078 
L 167.183062 144.974564 
L 167.771918 145.269184 
L 168.949631 144.829585 
L 169.538487 145.211387 
L 170.127343 145.438968 
L 170.7162 145.073732 
L 171.305056 145.3795 
L 171.893912 145.340523 
L 172.482769 145.538864 
L 173.071625 145.438014 
L 173.660481 145.089854 
L 174.249337 145.389613 
L 174.838194 145.43299 
L 176.015906 144.949617 
L 176.604763 145.213728 
L 178.371332 145.346395 
L 178.960188 145.201126 
L 179.549044 145.321651 
L 180.1379 145.312694 
L 180.726757 145.192592 
L 181.904469 145.244872 
L 183.082182 145.336272 
L 184.259895 145.226497 
L 184.848751 145.410172 
L 187.204176 145.15196 
L 188.381889 145.300644 
L 189.559601 145.253292 
L 190.737314 145.292021 
L 191.32617 145.355077 
L 191.915027 145.214375 
L 193.681595 145.328103 
L 194.270452 145.18726 
L 195.448164 145.313287 
L 197.214733 145.156337 
L 197.80359 145.325608 
L 198.981302 145.218857 
L 199.570159 145.292864 
L 200.159015 145.100927 
L 201.336727 145.308876 
L 206.047578 145.232781 
L 206.636434 145.174735 
L 207.814147 145.29422 
L 208.991859 145.193984 
L 211.347285 145.305228 
L 213.70271 145.228934 
L 214.291566 145.3285 
L 214.880422 145.195876 
L 216.646991 145.329264 
L 217.235848 145.208326 
L 219.002417 145.306323 
L 219.591273 145.20137 
L 221.357842 145.289513 
L 223.124411 145.244612 
L 230.779543 145.218906 
L 231.957255 145.279622 
L 235.490393 145.257094 
L 238.434675 145.262865 
L 245.50095 145.262695 
L 251.389513 145.26356 
L 256.100364 145.257564 
L 259.044645 145.278212 
L 260.811214 145.267484 
L 272.58834 145.259633 
L 280.832329 145.255961 
L 287.898604 145.255278 
L 302.620012 145.259574 
L 390.359601 145.25653 
L 400.959015 145.260478 
L 476.332622 145.260467 
L 509.308575 145.258553 
L 532.273971 145.25993 
L 572.3162 145.258016 
L 591.159601 145.260371 
L 607.058722 145.258873 
L 607.058722 145.258873 
" clip-path="url(#p6b20803271)" style="fill: none; stroke: #1f77b4; stroke-width: 2; stroke-linecap: square"/>
   </g>
   <g id="line2d_34">
    <path d="M 77.676903 145.259529 
L 607.058722 145.259529 
L 607.058722 145.259529 
" clip-path="url(#p6b20803271)" style="fill: none; stroke-dasharray: 5.55,2.4; stroke-dashoffset: 0; stroke: #000000; stroke-width: 1.5"/>
   </g>
   <g id="patch_15">
    <path d="M 51.207813 161.176044 
L 51.207813 123.058751 
" style="fill: none; stroke: #000000; stroke-width: 0.8; stroke-linejoin: miter; stroke-linecap: square"/>
   </g>
   <g id="patch_16">
    <path d="M 633.527812 161.176044 
L 633.527812 123.058751 
" style="fill: none; stroke: #000000; stroke-width: 0.8; stroke-linejoin: miter; stroke-linecap: square"/>
   </g>
   <g id="patch_17">
    <path d="M 51.207812 161.176044 
L 633.527812 161.176044 
" style="fill: none; stroke: #000000; stroke-width: 0.8; stroke-linejoin: miter; stroke-linecap: square"/>
   </g>
   <g id="patch_18">
    <path d="M 51.207812 123.058751 
L 633.527812 123.058751 
" style="fill: none; stroke: #000000; stroke-width: 0.8; stroke-linejoin: miter; stroke-linecap: square"/>
   </g>
   <g id="legend_3">
    <g id="patch_19">
     <path d="M 542.427812 162.057188 
L 626.527812 162.057188 
Q 628.527812 162.057188 628.527812 160.057188 
L 628.527812 130.058751 
Q 628.527812 128.058751 626.527812 128.058751 
L 542.427812 128.058751 
Q 540.427812 128.058751 540.427812 130.058751 
L 540.427812 160.057188 
Q 540.427812 162.057188 542.427812 162.057188 
z
" style="fill: #ffffff; opacity: 0.8; stroke: #cccccc; stroke-linejoin: miter"/>
    </g>
    <g id="line2d_35">
     <path d="M 544.427812 137.758751 
L 554.427812 137.758751 
L 564.427812 137.758751 
" style="fill: none; stroke: #1f77b4; stroke-width: 2; stroke-linecap: square"/>
    </g>
    <g id="text_14">
     <!-- $\hat\mu_I$ -->
     <g transform="translate(572.427812 141.258751) scale(0.1 -0.1)">
      <defs>
       <path id="DejaVuSans-Oblique-3bc" d="M -84 -1331 
L 856 3500 
L 1434 3500 
L 1009 1322 
Q 997 1256 987 1175 
Q 978 1094 978 1013 
Q 978 722 1161 565 
Q 1344 409 1684 409 
Q 2147 409 2431 671 
Q 2716 934 2816 1459 
L 3213 3500 
L 3788 3500 
L 3266 809 
Q 3253 750 3248 706 
Q 3244 663 3244 628 
Q 3244 531 3283 486 
Q 3322 441 3406 441 
Q 3438 441 3492 456 
Q 3547 472 3647 513 
L 3559 50 
Q 3422 -19 3297 -55 
Q 3172 -91 3053 -91 
Q 2847 -91 2730 40 
Q 2613 172 2613 403 
Q 2438 153 2195 31 
Q 1953 -91 1625 -91 
Q 1334 -91 1117 43 
Q 900 178 831 397 
L 494 -1331 
L -84 -1331 
z
" transform="scale(0.015625)"/>
      </defs>
      <use xlink:href="#DejaVuSans-302" transform="translate(62.699219 12.015625)"/>
      <use xlink:href="#DejaVuSans-Oblique-3bc" transform="translate(0 0.828125)"/>
      <use xlink:href="#DejaVuSans-Oblique-49" transform="translate(64.580078 -15.578125) scale(0.7)"/>
     </g>
    </g>
    <g id="line2d_36">
     <path d="M 544.427812 152.457188 
L 554.427812 152.457188 
L 564.427812 152.457188 
" style="fill: none; stroke-dasharray: 5.55,2.4; stroke-dashoffset: 0; stroke: #000000; stroke-width: 1.5"/>
    </g>
    <g id="text_15">
     <!-- $\mu_I$ = 0.002 -->
     <g transform="translate(572.427812 155.957188) scale(0.1 -0.1)">
      <use xlink:href="#DejaVuSans-Oblique-3bc" transform="translate(0 0.78125)"/>
      <use xlink:href="#DejaVuSans-Oblique-49" transform="translate(63.623047 -15.625) scale(0.7)"/>
      <use xlink:href="#DejaVuSans-20" transform="translate(87.001953 0.78125)"/>
      <use xlink:href="#DejaVuSans-3d" transform="translate(118.789062 0.78125)"/>
      <use xlink:href="#DejaVuSans-20" transform="translate(202.578125 0.78125)"/>
      <use xlink:href="#DejaVuSans-30" transform="translate(234.365234 0.78125)"/>
      <use xlink:href="#DejaVuSans-2e" transform="translate(297.988281 0.78125)"/>
      <use xlink:href="#DejaVuSans-30" transform="translate(329.775391 0.78125)"/>
      <use xlink:href="#DejaVuSans-30" transform="translate(393.398438 0.78125)"/>
      <use xlink:href="#DejaVuSans-32" transform="translate(457.021484 0.78125)"/>
     </g>
    </g>
   </g>
  </g>
  <g id="axes_4">
   <g id="patch_20">
    <path d="M 51.207813 218.73772 
L 633.527812 218.73772 
L 633.527812 180.620428 
L 51.207813 180.620428 
z
" style="fill: #ffffff"/>
   </g>
   <g id="matplotlib.axis_7">
    <g id="xtick_16">
     <g id="line2d_37">
      <g>
       <use xlink:href="#m1a8fb89b43" x="136.562534" y="218.73772" style="stroke: #000000; stroke-width: 0.8"/>
      </g>
     </g>
    </g>
    <g id="xtick_17">
     <g id="line2d_38">
      <g>
       <use xlink:href="#m1a8fb89b43" x="254.333795" y="218.73772" style="stroke: #000000; stroke-width: 0.8"/>
      </g>
     </g>
    </g>
    <g id="xtick_18">
     <g id="line2d_39">
      <g>
       <use xlink:href="#m1a8fb89b43" x="372.105056" y="218.73772" style="stroke: #000000; stroke-width: 0.8"/>
      </g>
     </g>
    </g>
    <g id="xtick_19">
     <g id="line2d_40">
      <g>
       <use xlink:href="#m1a8fb89b43" x="489.876317" y="218.73772" style="stroke: #000000; stroke-width: 0.8"/>
      </g>
     </g>
    </g>
    <g id="xtick_20">
     <g id="line2d_41">
      <g>
       <use xlink:href="#m1a8fb89b43" x="607.647578" y="218.73772" style="stroke: #000000; stroke-width: 0.8"/>
      </g>
     </g>
    </g>
   </g>
   <g id="matplotlib.axis_8">
    <g id="ytick_10">
     <g id="line2d_42">
      <g>
       <use xlink:href="#mb7dd4e45cb" x="51.207813" y="215.455552" style="stroke: #000000; stroke-width: 0.8"/>
      </g>
     </g>
     <g id="text_16">
      <!-- −0.005 -->
      <g transform="translate(7.2 219.254771) scale(0.1 -0.1)">
       <defs>
        <path id="DejaVuSans-2212" d="M 678 2272 
L 4684 2272 
L 4684 1741 
L 678 1741 
L 678 2272 
z
" transform="scale(0.015625)"/>
        <path id="DejaVuSans-35" d="M 691 4666 
L 3169 4666 
L 3169 4134 
L 1269 4134 
L 1269 2991 
Q 1406 3038 1543 3061 
Q 1681 3084 1819 3084 
Q 2600 3084 3056 2656 
Q 3513 2228 3513 1497 
Q 3513 744 3044 326 
Q 2575 -91 1722 -91 
Q 1428 -91 1123 -41 
Q 819 9 494 109 
L 494 744 
Q 775 591 1075 516 
Q 1375 441 1709 441 
Q 2250 441 2565 725 
Q 2881 1009 2881 1497 
Q 2881 1984 2565 2268 
Q 2250 2553 1709 2553 
Q 1456 2553 1204 2497 
Q 953 2441 691 2322 
L 691 4666 
z
" transform="scale(0.015625)"/>
       </defs>
       <use xlink:href="#DejaVuSans-2212"/>
       <use xlink:href="#DejaVuSans-30" x="83.789062"/>
       <use xlink:href="#DejaVuSans-2e" x="147.412109"/>
       <use xlink:href="#DejaVuSans-30" x="179.199219"/>
       <use xlink:href="#DejaVuSans-30" x="242.822266"/>
       <use xlink:href="#DejaVuSans-35" x="306.445312"/>
      </g>
     </g>
    </g>
    <g id="ytick_11">
     <g id="line2d_43">
      <g>
       <use xlink:href="#mb7dd4e45cb" x="51.207813" y="201.420119" style="stroke: #000000; stroke-width: 0.8"/>
      </g>
     </g>
     <g id="text_17">
      <!-- 0.000 -->
      <g transform="translate(15.579688 205.219338) scale(0.1 -0.1)">
       <use xlink:href="#DejaVuSans-30"/>
       <use xlink:href="#DejaVuSans-2e" x="63.623047"/>
       <use xlink:href="#DejaVuSans-30" x="95.410156"/>
       <use xlink:href="#DejaVuSans-30" x="159.033203"/>
       <use xlink:href="#DejaVuSans-30" x="222.65625"/>
      </g>
     </g>
    </g>
    <g id="ytick_12">
     <g id="line2d_44">
      <g>
       <use xlink:href="#mb7dd4e45cb" x="51.207813" y="187.384686" style="stroke: #000000; stroke-width: 0.8"/>
      </g>
     </g>
     <g id="text_18">
      <!-- 0.005 -->
      <g transform="translate(15.579688 191.183904) scale(0.1 -0.1)">
       <use xlink:href="#DejaVuSans-30"/>
       <use xlink:href="#DejaVuSans-2e" x="63.623047"/>
       <use xlink:href="#DejaVuSans-30" x="95.410156"/>
       <use xlink:href="#DejaVuSans-30" x="159.033203"/>
       <use xlink:href="#DejaVuSans-35" x="222.65625"/>
      </g>
     </g>
    </g>
   </g>
   <g id="line2d_45">
    <path d="M 77.676903 198.202287 
L 78.26576 196.800947 
L 78.854616 198.434097 
L 79.443472 207.153376 
L 80.032329 195.593109 
L 80.621185 194.934458 
L 81.210041 194.514094 
L 81.798898 191.050429 
L 82.387754 197.670449 
L 82.97661 201.899422 
L 83.565466 201.110844 
L 84.154323 201.700909 
L 84.743179 197.956671 
L 85.332035 197.878699 
L 85.920892 199.968575 
L 86.509748 186.989719 
L 87.098604 186.203956 
L 87.687461 189.659624 
L 88.276317 195.640942 
L 88.865173 204.140129 
L 89.45403 198.706362 
L 90.042886 203.819794 
L 91.220598 187.785594 
L 91.809455 183.865059 
L 92.398311 201.15664 
L 92.987167 191.456585 
L 93.576024 217.005116 
L 94.16488 196.31828 
L 94.753736 198.549438 
L 95.342593 201.718655 
L 95.931449 193.640368 
L 96.520305 200.320394 
L 97.109161 192.831271 
L 97.698018 193.342442 
L 98.286874 190.649807 
L 98.87573 200.739336 
L 99.464587 205.338007 
L 100.053443 202.77003 
L 100.642299 196.524405 
L 101.231156 197.481306 
L 101.820012 204.176267 
L 102.408868 204.460392 
L 102.997725 198.933615 
L 103.586581 198.986924 
L 104.175437 195.875244 
L 104.764293 197.64394 
L 105.35315 204.972439 
L 105.942006 190.523863 
L 106.530862 196.955133 
L 107.119719 193.327947 
L 107.708575 193.315401 
L 108.297431 195.554563 
L 108.886288 196.415743 
L 109.475144 204.813164 
L 110.064 196.538484 
L 110.652856 201.298099 
L 111.241713 202.52733 
L 111.830569 194.721149 
L 112.419425 195.363132 
L 113.008282 193.067757 
L 113.597138 197.632488 
L 114.185994 197.077491 
L 114.774851 192.665625 
L 115.363707 198.56379 
L 115.952563 198.322856 
L 116.54142 195.088656 
L 117.130276 194.375403 
L 117.719132 199.781057 
L 118.307988 188.801156 
L 118.896845 184.462479 
L 119.485701 194.498849 
L 120.074557 201.575281 
L 120.663414 201.817372 
L 121.25227 193.773274 
L 121.841126 197.86499 
L 122.429983 195.108935 
L 123.018839 203.898671 
L 123.607695 201.234632 
L 124.196552 190.805855 
L 124.785408 199.359484 
L 125.374264 200.052065 
L 125.96312 193.85043 
L 126.551977 191.921935 
L 127.140833 198.613429 
L 127.729689 201.731266 
L 128.318546 200.239808 
L 128.907402 206.134908 
L 129.496258 191.26088 
L 130.085115 196.911736 
L 130.673971 194.884436 
L 131.262827 196.567315 
L 131.851683 199.312206 
L 132.44054 194.630459 
L 133.029396 196.005331 
L 134.207109 199.841307 
L 134.795965 191.588747 
L 135.384821 197.405264 
L 135.973678 194.649279 
L 136.562534 192.999416 
L 137.15139 196.905704 
L 138.329103 191.536086 
L 138.917959 197.27105 
L 139.506815 199.233102 
L 140.095672 198.582916 
L 140.684528 199.21843 
L 141.273384 196.089556 
L 141.862241 194.640409 
L 142.451097 199.527401 
L 143.039953 201.568194 
L 143.62881 200.878703 
L 144.217666 199.4462 
L 144.806522 193.463942 
L 145.395378 204.579951 
L 145.984235 198.198083 
L 146.573091 200.651587 
L 147.161947 195.786593 
L 147.750804 195.184753 
L 148.33966 195.012732 
L 148.928516 201.265012 
L 149.517373 191.884976 
L 150.106229 201.919521 
L 150.695085 202.772207 
L 151.283942 213.949494 
L 151.872798 195.910018 
L 152.461654 210.291352 
L 153.05051 198.749374 
L 153.639367 182.353032 
L 154.228223 192.253307 
L 154.817079 187.092757 
L 155.405936 186.42109 
L 155.994792 209.95598 
L 157.172505 195.798772 
L 157.761361 197.119539 
L 158.350217 190.608256 
L 158.939073 204.706839 
L 159.52793 192.418043 
L 160.116786 206.878297 
L 160.705642 195.653798 
L 161.294499 197.821149 
L 161.883355 196.952946 
L 162.472211 207.82834 
L 163.061068 201.573011 
L 163.649924 197.203275 
L 164.23878 200.166586 
L 164.827637 200.096928 
L 165.416493 196.781876 
L 166.005349 197.33635 
L 166.594205 196.785917 
L 167.183062 200.544791 
L 167.771918 198.444719 
L 168.360774 199.751422 
L 168.949631 200.735471 
L 169.538487 198.485407 
L 170.127343 197.424244 
L 170.7162 199.233735 
L 171.305056 197.854642 
L 171.893912 198.119858 
L 172.482769 197.447031 
L 173.071625 197.970083 
L 173.660481 199.226989 
L 174.249337 198.191001 
L 174.838194 198.118574 
L 175.42705 198.966095 
L 176.015906 199.484899 
L 176.604763 198.691232 
L 177.193619 198.617742 
L 177.782475 198.390892 
L 178.371332 198.398812 
L 178.960188 198.731778 
L 179.549044 198.474974 
L 180.1379 198.509181 
L 180.726757 198.741532 
L 181.315613 198.586764 
L 181.904469 198.635704 
L 183.082182 198.499446 
L 184.259895 198.676043 
L 184.848751 198.421229 
L 187.204176 198.760335 
L 188.381889 198.580283 
L 189.559601 198.628765 
L 190.737314 198.589455 
L 191.32617 198.535808 
L 191.915027 198.663744 
L 193.681595 198.56627 
L 194.270452 198.675931 
L 195.448164 198.581098 
L 197.214733 198.686447 
L 197.80359 198.575365 
L 200.159015 198.704312 
L 201.925584 198.587509 
L 206.636434 198.647517 
L 208.403003 198.626458 
L 213.70271 198.62237 
L 215.469279 198.617128 
L 239.612387 198.608132 
L 257.866933 198.611572 
L 293.198311 198.612421 
L 607.058722 198.613038 
L 607.058722 198.613038 
" clip-path="url(#pf242b28a11)" style="fill: none; stroke: #1f77b4; stroke-width: 2; stroke-linecap: square"/>
   </g>
   <g id="line2d_46">
    <path d="M 77.676903 198.613032 
L 607.058722 198.613032 
L 607.058722 198.613032 
" clip-path="url(#pf242b28a11)" style="fill: none; stroke-dasharray: 5.55,2.4; stroke-dashoffset: 0; stroke: #000000; stroke-width: 1.5"/>
   </g>
   <g id="patch_21">
    <path d="M 51.207813 218.73772 
L 51.207813 180.620428 
" style="fill: none; stroke: #000000; stroke-width: 0.8; stroke-linejoin: miter; stroke-linecap: square"/>
   </g>
   <g id="patch_22">
    <path d="M 633.527812 218.73772 
L 633.527812 180.620428 
" style="fill: none; stroke: #000000; stroke-width: 0.8; stroke-linejoin: miter; stroke-linecap: square"/>
   </g>
   <g id="patch_23">
    <path d="M 51.207812 218.73772 
L 633.527812 218.73772 
" style="fill: none; stroke: #000000; stroke-width: 0.8; stroke-linejoin: miter; stroke-linecap: square"/>
   </g>
   <g id="patch_24">
    <path d="M 51.207812 180.620428 
L 633.527812 180.620428 
" style="fill: none; stroke: #000000; stroke-width: 0.8; stroke-linejoin: miter; stroke-linecap: square"/>
   </g>
   <g id="legend_4">
    <g id="patch_25">
     <path d="M 545.027812 219.598553 
L 626.527812 219.598553 
Q 628.527812 219.598553 628.527812 217.598553 
L 628.527812 187.620428 
Q 628.527812 185.620428 626.527812 185.620428 
L 545.027812 185.620428 
Q 543.027812 185.620428 543.027812 187.620428 
L 543.027812 217.598553 
Q 543.027812 219.598553 545.027812 219.598553 
z
" style="fill: #ffffff; opacity: 0.8; stroke: #cccccc; stroke-linejoin: miter"/>
    </g>
    <g id="line2d_47">
     <path d="M 547.027812 195.34074 
L 557.027812 195.34074 
L 567.027812 195.34074 
" style="fill: none; stroke: #1f77b4; stroke-width: 2; stroke-linecap: square"/>
    </g>
    <g id="text_19">
     <!-- $\hat\delta$ -->
     <g transform="translate(575.027812 198.84074) scale(0.1 -0.1)">
      <defs>
       <path id="DejaVuSans-Oblique-3b4" d="M 3472 4053 
Q 3197 4272 2450 4272 
Q 1659 4272 1588 3906 
Q 1531 3619 2328 3469 
Q 2953 3353 3253 3003 
Q 3616 2581 3447 1716 
Q 3284 888 2763 400 
Q 2238 -91 1488 -91 
Q 741 -91 406 400 
Q 72 888 241 1747 
Q 363 2384 891 2900 
Q 1097 3100 1353 3213 
Q 913 3459 1000 3900 
Q 1166 4750 2544 4750 
Q 3234 4750 3566 4531 
L 3472 4053 
z
M 1753 3056 
Q 1525 2966 1306 2738 
Q 969 2384 847 1747 
Q 722 1113 919 756 
Q 1119 397 1584 397 
Q 2044 397 2381 759 
Q 2722 1122 2838 1716 
Q 2956 2338 2731 2638 
Q 2491 2959 2103 2994 
Q 1906 3013 1753 3056 
z
" transform="scale(0.015625)"/>
      </defs>
      <use xlink:href="#DejaVuSans-302" transform="translate(59.417969 31.015625)"/>
      <use xlink:href="#DejaVuSans-Oblique-3b4" transform="translate(0 0.296875)"/>
     </g>
    </g>
    <g id="line2d_48">
     <path d="M 547.027812 210.018865 
L 557.027812 210.018865 
L 567.027812 210.018865 
" style="fill: none; stroke-dasharray: 5.55,2.4; stroke-dashoffset: 0; stroke: #000000; stroke-width: 1.5"/>
    </g>
    <g id="text_20">
     <!-- $\delta$ = 0.001 -->
     <g transform="translate(575.027812 213.518865) scale(0.1 -0.1)">
      <use xlink:href="#DejaVuSans-Oblique-3b4" transform="translate(0 0.78125)"/>
      <use xlink:href="#DejaVuSans-20" transform="translate(61.181641 0.78125)"/>
      <use xlink:href="#DejaVuSans-3d" transform="translate(92.96875 0.78125)"/>
      <use xlink:href="#DejaVuSans-20" transform="translate(176.757812 0.78125)"/>
      <use xlink:href="#DejaVuSans-30" transform="translate(208.544922 0.78125)"/>
      <use xlink:href="#DejaVuSans-2e" transform="translate(272.167969 0.78125)"/>
      <use xlink:href="#DejaVuSans-30" transform="translate(303.955078 0.78125)"/>
      <use xlink:href="#DejaVuSans-30" transform="translate(367.578125 0.78125)"/>
      <use xlink:href="#DejaVuSans-31" transform="translate(431.201172 0.78125)"/>
     </g>
    </g>
   </g>
  </g>
  <g id="axes_5">
   <g id="patch_26">
    <path d="M 51.207813 314.41669 
L 633.527812 314.41669 
L 633.527812 238.182104 
L 51.207813 238.182104 
z
" style="fill: #ffffff"/>
   </g>
   <g id="matplotlib.axis_9">
    <g id="xtick_21">
     <g id="line2d_49">
      <g>
       <use xlink:href="#m1a8fb89b43" x="136.562534" y="314.41669" style="stroke: #000000; stroke-width: 0.8"/>
      </g>
     </g>
     <g id="text_21">
      <!-- 200 -->
      <g transform="translate(127.018784 329.015128) scale(0.1 -0.1)">
       <use xlink:href="#DejaVuSans-32"/>
       <use xlink:href="#DejaVuSans-30" x="63.623047"/>
       <use xlink:href="#DejaVuSans-30" x="127.246094"/>
      </g>
     </g>
    </g>
    <g id="xtick_22">
     <g id="line2d_50">
      <g>
       <use xlink:href="#m1a8fb89b43" x="254.333795" y="314.41669" style="stroke: #000000; stroke-width: 0.8"/>
      </g>
     </g>
     <g id="text_22">
      <!-- 400 -->
      <g transform="translate(244.790045 329.015128) scale(0.1 -0.1)">
       <use xlink:href="#DejaVuSans-34"/>
       <use xlink:href="#DejaVuSans-30" x="63.623047"/>
       <use xlink:href="#DejaVuSans-30" x="127.246094"/>
      </g>
     </g>
    </g>
    <g id="xtick_23">
     <g id="line2d_51">
      <g>
       <use xlink:href="#m1a8fb89b43" x="372.105056" y="314.41669" style="stroke: #000000; stroke-width: 0.8"/>
      </g>
     </g>
     <g id="text_23">
      <!-- 600 -->
      <g transform="translate(362.561306 329.015128) scale(0.1 -0.1)">
       <defs>
        <path id="DejaVuSans-36" d="M 2113 2584 
Q 1688 2584 1439 2293 
Q 1191 2003 1191 1497 
Q 1191 994 1439 701 
Q 1688 409 2113 409 
Q 2538 409 2786 701 
Q 3034 994 3034 1497 
Q 3034 2003 2786 2293 
Q 2538 2584 2113 2584 
z
M 3366 4563 
L 3366 3988 
Q 3128 4100 2886 4159 
Q 2644 4219 2406 4219 
Q 1781 4219 1451 3797 
Q 1122 3375 1075 2522 
Q 1259 2794 1537 2939 
Q 1816 3084 2150 3084 
Q 2853 3084 3261 2657 
Q 3669 2231 3669 1497 
Q 3669 778 3244 343 
Q 2819 -91 2113 -91 
Q 1303 -91 875 529 
Q 447 1150 447 2328 
Q 447 3434 972 4092 
Q 1497 4750 2381 4750 
Q 2619 4750 2861 4703 
Q 3103 4656 3366 4563 
z
" transform="scale(0.015625)"/>
       </defs>
       <use xlink:href="#DejaVuSans-36"/>
       <use xlink:href="#DejaVuSans-30" x="63.623047"/>
       <use xlink:href="#DejaVuSans-30" x="127.246094"/>
      </g>
     </g>
    </g>
    <g id="xtick_24">
     <g id="line2d_52">
      <g>
       <use xlink:href="#m1a8fb89b43" x="489.876317" y="314.41669" style="stroke: #000000; stroke-width: 0.8"/>
      </g>
     </g>
     <g id="text_24">
      <!-- 800 -->
      <g transform="translate(480.332567 329.015128) scale(0.1 -0.1)">
       <use xlink:href="#DejaVuSans-38"/>
       <use xlink:href="#DejaVuSans-30" x="63.623047"/>
       <use xlink:href="#DejaVuSans-30" x="127.246094"/>
      </g>
     </g>
    </g>
    <g id="xtick_25">
     <g id="line2d_53">
      <g>
       <use xlink:href="#m1a8fb89b43" x="607.647578" y="314.41669" style="stroke: #000000; stroke-width: 0.8"/>
      </g>
     </g>
     <g id="text_25">
      <!-- 1000 -->
      <g transform="translate(594.922578 329.015128) scale(0.1 -0.1)">
       <use xlink:href="#DejaVuSans-31"/>
       <use xlink:href="#DejaVuSans-30" x="63.623047"/>
       <use xlink:href="#DejaVuSans-30" x="127.246094"/>
       <use xlink:href="#DejaVuSans-30" x="190.869141"/>
      </g>
     </g>
    </g>
    <g id="text_26">
     <!-- time (days) -->
     <g transform="translate(313.77875 342.693253) scale(0.1 -0.1)">
      <defs>
       <path id="DejaVuSans-74" d="M 1172 4494 
L 1172 3500 
L 2356 3500 
L 2356 3053 
L 1172 3053 
L 1172 1153 
Q 1172 725 1289 603 
Q 1406 481 1766 481 
L 2356 481 
L 2356 0 
L 1766 0 
Q 1100 0 847 248 
Q 594 497 594 1153 
L 594 3053 
L 172 3053 
L 172 3500 
L 594 3500 
L 594 4494 
L 1172 4494 
z
" transform="scale(0.015625)"/>
       <path id="DejaVuSans-69" d="M 603 3500 
L 1178 3500 
L 1178 0 
L 603 0 
L 603 3500 
z
M 603 4863 
L 1178 4863 
L 1178 4134 
L 603 4134 
L 603 4863 
z
" transform="scale(0.015625)"/>
       <path id="DejaVuSans-6d" d="M 3328 2828 
Q 3544 3216 3844 3400 
Q 4144 3584 4550 3584 
Q 5097 3584 5394 3201 
Q 5691 2819 5691 2113 
L 5691 0 
L 5113 0 
L 5113 2094 
Q 5113 2597 4934 2840 
Q 4756 3084 4391 3084 
Q 3944 3084 3684 2787 
Q 3425 2491 3425 1978 
L 3425 0 
L 2847 0 
L 2847 2094 
Q 2847 2600 2669 2842 
Q 2491 3084 2119 3084 
Q 1678 3084 1418 2786 
Q 1159 2488 1159 1978 
L 1159 0 
L 581 0 
L 581 3500 
L 1159 3500 
L 1159 2956 
Q 1356 3278 1631 3431 
Q 1906 3584 2284 3584 
Q 2666 3584 2933 3390 
Q 3200 3197 3328 2828 
z
" transform="scale(0.015625)"/>
       <path id="DejaVuSans-65" d="M 3597 1894 
L 3597 1613 
L 953 1613 
Q 991 1019 1311 708 
Q 1631 397 2203 397 
Q 2534 397 2845 478 
Q 3156 559 3463 722 
L 3463 178 
Q 3153 47 2828 -22 
Q 2503 -91 2169 -91 
Q 1331 -91 842 396 
Q 353 884 353 1716 
Q 353 2575 817 3079 
Q 1281 3584 2069 3584 
Q 2775 3584 3186 3129 
Q 3597 2675 3597 1894 
z
M 3022 2063 
Q 3016 2534 2758 2815 
Q 2500 3097 2075 3097 
Q 1594 3097 1305 2825 
Q 1016 2553 972 2059 
L 3022 2063 
z
" transform="scale(0.015625)"/>
       <path id="DejaVuSans-28" d="M 1984 4856 
Q 1566 4138 1362 3434 
Q 1159 2731 1159 2009 
Q 1159 1288 1364 580 
Q 1569 -128 1984 -844 
L 1484 -844 
Q 1016 -109 783 600 
Q 550 1309 550 2009 
Q 550 2706 781 3412 
Q 1013 4119 1484 4856 
L 1984 4856 
z
" transform="scale(0.015625)"/>
       <path id="DejaVuSans-64" d="M 2906 2969 
L 2906 4863 
L 3481 4863 
L 3481 0 
L 2906 0 
L 2906 525 
Q 2725 213 2448 61 
Q 2172 -91 1784 -91 
Q 1150 -91 751 415 
Q 353 922 353 1747 
Q 353 2572 751 3078 
Q 1150 3584 1784 3584 
Q 2172 3584 2448 3432 
Q 2725 3281 2906 2969 
z
M 947 1747 
Q 947 1113 1208 752 
Q 1469 391 1925 391 
Q 2381 391 2643 752 
Q 2906 1113 2906 1747 
Q 2906 2381 2643 2742 
Q 2381 3103 1925 3103 
Q 1469 3103 1208 2742 
Q 947 2381 947 1747 
z
" transform="scale(0.015625)"/>
       <path id="DejaVuSans-61" d="M 2194 1759 
Q 1497 1759 1228 1600 
Q 959 1441 959 1056 
Q 959 750 1161 570 
Q 1363 391 1709 391 
Q 2188 391 2477 730 
Q 2766 1069 2766 1631 
L 2766 1759 
L 2194 1759 
z
M 3341 1997 
L 3341 0 
L 2766 0 
L 2766 531 
Q 2569 213 2275 61 
Q 1981 -91 1556 -91 
Q 1019 -91 701 211 
Q 384 513 384 1019 
Q 384 1609 779 1909 
Q 1175 2209 1959 2209 
L 2766 2209 
L 2766 2266 
Q 2766 2663 2505 2880 
Q 2244 3097 1772 3097 
Q 1472 3097 1187 3025 
Q 903 2953 641 2809 
L 641 3341 
Q 956 3463 1253 3523 
Q 1550 3584 1831 3584 
Q 2591 3584 2966 3190 
Q 3341 2797 3341 1997 
z
" transform="scale(0.015625)"/>
       <path id="DejaVuSans-79" d="M 2059 -325 
Q 1816 -950 1584 -1140 
Q 1353 -1331 966 -1331 
L 506 -1331 
L 506 -850 
L 844 -850 
Q 1081 -850 1212 -737 
Q 1344 -625 1503 -206 
L 1606 56 
L 191 3500 
L 800 3500 
L 1894 763 
L 2988 3500 
L 3597 3500 
L 2059 -325 
z
" transform="scale(0.015625)"/>
       <path id="DejaVuSans-73" d="M 2834 3397 
L 2834 2853 
Q 2591 2978 2328 3040 
Q 2066 3103 1784 3103 
Q 1356 3103 1142 2972 
Q 928 2841 928 2578 
Q 928 2378 1081 2264 
Q 1234 2150 1697 2047 
L 1894 2003 
Q 2506 1872 2764 1633 
Q 3022 1394 3022 966 
Q 3022 478 2636 193 
Q 2250 -91 1575 -91 
Q 1294 -91 989 -36 
Q 684 19 347 128 
L 347 722 
Q 666 556 975 473 
Q 1284 391 1588 391 
Q 1994 391 2212 530 
Q 2431 669 2431 922 
Q 2431 1156 2273 1281 
Q 2116 1406 1581 1522 
L 1381 1569 
Q 847 1681 609 1914 
Q 372 2147 372 2553 
Q 372 3047 722 3315 
Q 1072 3584 1716 3584 
Q 2034 3584 2315 3537 
Q 2597 3491 2834 3397 
z
" transform="scale(0.015625)"/>
       <path id="DejaVuSans-29" d="M 513 4856 
L 1013 4856 
Q 1481 4119 1714 3412 
Q 1947 2706 1947 2009 
Q 1947 1309 1714 600 
Q 1481 -109 1013 -844 
L 513 -844 
Q 928 -128 1133 580 
Q 1338 1288 1338 2009 
Q 1338 2731 1133 3434 
Q 928 4138 513 4856 
z
" transform="scale(0.015625)"/>
      </defs>
      <use xlink:href="#DejaVuSans-74"/>
      <use xlink:href="#DejaVuSans-69" x="39.208984"/>
      <use xlink:href="#DejaVuSans-6d" x="66.992188"/>
      <use xlink:href="#DejaVuSans-65" x="164.404297"/>
      <use xlink:href="#DejaVuSans-20" x="225.927734"/>
      <use xlink:href="#DejaVuSans-28" x="257.714844"/>
      <use xlink:href="#DejaVuSans-64" x="296.728516"/>
      <use xlink:href="#DejaVuSans-61" x="360.205078"/>
      <use xlink:href="#DejaVuSans-79" x="421.484375"/>
      <use xlink:href="#DejaVuSans-73" x="480.664062"/>
      <use xlink:href="#DejaVuSans-29" x="532.763672"/>
     </g>
    </g>
   </g>
   <g id="matplotlib.axis_10">
    <g id="ytick_13">
     <g id="line2d_54">
      <g>
       <use xlink:href="#mb7dd4e45cb" x="51.207813" y="310.959248" style="stroke: #000000; stroke-width: 0.8"/>
      </g>
     </g>
     <g id="text_27">
      <!-- 0.00 -->
      <g transform="translate(21.942188 314.758467) scale(0.1 -0.1)">
       <use xlink:href="#DejaVuSans-30"/>
       <use xlink:href="#DejaVuSans-2e" x="63.623047"/>
       <use xlink:href="#DejaVuSans-30" x="95.410156"/>
       <use xlink:href="#DejaVuSans-30" x="159.033203"/>
      </g>
     </g>
    </g>
    <g id="ytick_14">
     <g id="line2d_55">
      <g>
       <use xlink:href="#mb7dd4e45cb" x="51.207813" y="282.917611" style="stroke: #000000; stroke-width: 0.8"/>
      </g>
     </g>
     <g id="text_28">
      <!-- 0.01 -->
      <g transform="translate(21.942188 286.716829) scale(0.1 -0.1)">
       <use xlink:href="#DejaVuSans-30"/>
       <use xlink:href="#DejaVuSans-2e" x="63.623047"/>
       <use xlink:href="#DejaVuSans-30" x="95.410156"/>
       <use xlink:href="#DejaVuSans-31" x="159.033203"/>
      </g>
     </g>
    </g>
    <g id="ytick_15">
     <g id="line2d_56">
      <g>
       <use xlink:href="#mb7dd4e45cb" x="51.207813" y="254.875973" style="stroke: #000000; stroke-width: 0.8"/>
      </g>
     </g>
     <g id="text_29">
      <!-- 0.02 -->
      <g transform="translate(21.942188 258.675192) scale(0.1 -0.1)">
       <use xlink:href="#DejaVuSans-30"/>
       <use xlink:href="#DejaVuSans-2e" x="63.623047"/>
       <use xlink:href="#DejaVuSans-30" x="95.410156"/>
       <use xlink:href="#DejaVuSans-32" x="159.033203"/>
      </g>
     </g>
    </g>
   </g>
   <g id="line2d_57">
    <path d="M 77.676903 310.545936 
L 91.809455 310.1761 
L 102.408868 309.694655 
L 111.241713 309.074292 
L 118.307988 308.365597 
L 124.196552 307.575843 
L 129.496258 306.662081 
L 134.207109 305.645485 
L 138.917959 304.389767 
L 143.039953 303.051337 
L 147.161947 301.450072 
L 150.695085 299.850277 
L 154.228223 298.024794 
L 157.761361 295.964227 
L 161.294499 293.669783 
L 165.416493 290.719154 
L 170.127343 287.055349 
L 180.1379 278.85346 
L 185.437607 274.687769 
L 190.148458 271.267904 
L 194.270452 268.537552 
L 198.392446 266.056526 
L 202.51444 263.81054 
L 207.225291 261.502011 
L 208.991859 260.821988 
L 211.347285 260.188577 
L 214.291566 259.662974 
L 218.41356 259.188042 
L 224.89098 258.714073 
L 234.312681 258.270754 
L 247.267519 257.900271 
L 263.755496 257.666789 
L 286.720892 257.582152 
L 326.174264 257.694342 
L 509.897431 258.632475 
L 528.151977 259.146922 
L 558.772505 260.258811 
L 607.058722 262.163657 
L 607.058722 262.163657 
" clip-path="url(#p68bca7800e)" style="fill: none; stroke: #1f77b4; stroke-width: 2; stroke-linecap: square"/>
   </g>
   <g id="line2d_58">
    <path d="M 77.676903 310.951482 
L 141.273384 310.820667 
L 153.05051 310.647397 
L 159.52793 310.329106 
L 164.23878 309.884175 
L 168.360774 309.265936 
L 171.893912 308.50941 
L 175.42705 307.499408 
L 178.371332 306.441543 
L 181.315613 305.178001 
L 184.848751 303.394788 
L 188.381889 301.344939 
L 192.503883 298.675728 
L 197.80359 294.942976 
L 208.403003 287.121391 
L 212.524997 283.610438 
L 216.646991 280.168292 
L 220.180129 277.509833 
L 223.713267 275.170516 
L 227.246405 273.142817 
L 230.779543 271.401029 
L 234.312681 269.914862 
L 237.845818 268.654333 
L 241.967812 267.432278 
L 246.089807 266.441248 
L 250.800657 265.548747 
L 256.100364 264.800521 
L 261.400071 264.27503 
L 267.288634 263.902475 
L 274.354909 263.687416 
L 282.598898 263.679142 
L 292.020598 263.900065 
L 303.797725 264.407332 
L 319.696845 265.331391 
L 346.784235 267.16852 
L 401.547871 270.890997 
L 437.468106 273.087202 
L 473.977197 275.093747 
L 505.186581 276.603995 
L 545.817666 278.222482 
L 581.149044 279.987815 
L 607.058722 281.319093 
L 607.058722 281.319093 
" clip-path="url(#p68bca7800e)" style="fill: none; stroke: #ff7f0e; stroke-width: 2; stroke-linecap: square"/>
   </g>
   <g id="line2d_59">
    <path d="M 77.676903 308.153646 
L 143.62881 308.083806 
L 145.395378 307.847557 
L 147.750804 307.191036 
L 150.695085 306.100447 
L 153.639367 304.73419 
L 155.994792 303.408723 
L 158.350217 301.857743 
L 160.705642 300.05779 
L 163.061068 297.998921 
L 165.416493 295.681598 
L 168.360774 292.433338 
L 171.305056 288.84791 
L 175.42705 283.42454 
L 183.671038 272.392405 
L 187.204176 268.099355 
L 190.148458 264.880111 
L 193.092739 262.027969 
L 196.037021 259.552548 
L 198.392446 257.83483 
L 201.336727 255.993067 
L 204.281009 254.455306 
L 207.225291 253.178396 
L 209.580716 248.036933 
L 210.758428 246.273601 
L 211.936141 244.957346 
L 213.113854 243.982107 
L 214.291566 243.2625 
L 215.469279 242.733846 
L 217.235848 242.204705 
L 219.591273 241.825405 
L 222.535554 241.657275 
L 226.657549 241.708597 
L 232.546112 242.024966 
L 242.556669 242.801685 
L 257.278076 244.155313 
L 289.076317 247.37259 
L 328.529689 251.311785 
L 359.150217 254.142447 
L 389.770745 256.745197 
L 420.980129 259.172013 
L 453.367226 261.467595 
L 487.520892 263.665319 
L 500.47573 264.350085 
L 507.542006 264.371012 
L 518.14142 264.678969 
L 542.284528 265.669432 
L 607.058722 268.363322 
L 607.058722 268.363322 
" clip-path="url(#p68bca7800e)" style="fill: none; stroke: #2ca02c; stroke-opacity: 0.5; stroke-width: 1.5; stroke-linecap: square"/>
   </g>
   <g id="line2d_60">
    <path d="M 77.676903 254.875973 
L 607.058722 254.875973 
L 607.058722 254.875973 
" clip-path="url(#p68bca7800e)" style="fill: none; stroke-dasharray: 5.55,2.4; stroke-dashoffset: 0; stroke: #000000; stroke-opacity: 0.5; stroke-width: 1.5"/>
   </g>
   <g id="patch_27">
    <path d="M 51.207813 314.41669 
L 51.207813 238.182104 
" style="fill: none; stroke: #000000; stroke-width: 0.8; stroke-linejoin: miter; stroke-linecap: square"/>
   </g>
   <g id="patch_28">
    <path d="M 633.527812 314.41669 
L 633.527812 238.182104 
" style="fill: none; stroke: #000000; stroke-width: 0.8; stroke-linejoin: miter; stroke-linecap: square"/>
   </g>
   <g id="patch_29">
    <path d="M 51.207812 314.41669 
L 633.527812 314.41669 
" style="fill: none; stroke: #000000; stroke-width: 0.8; stroke-linejoin: miter; stroke-linecap: square"/>
   </g>
   <g id="patch_30">
    <path d="M 51.207812 238.182104 
L 633.527812 238.182104 
" style="fill: none; stroke: #000000; stroke-width: 0.8; stroke-linejoin: miter; stroke-linecap: square"/>
   </g>
   <g id="legend_5">
    <g id="patch_31">
     <path d="M 58.207813 304.894604 
L 108.707813 304.894604 
Q 110.707813 304.894604 110.707813 302.894604 
L 110.707813 245.182104 
Q 110.707813 243.182104 108.707813 243.182104 
L 58.207813 243.182104 
Q 56.207813 243.182104 56.207813 245.182104 
L 56.207813 302.894604 
Q 56.207813 304.894604 58.207813 304.894604 
z
" style="fill: #ffffff; opacity: 0.8; stroke: #cccccc; stroke-linejoin: miter"/>
    </g>
    <g id="line2d_61">
     <path d="M 60.207813 251.280542 
L 70.207813 251.280542 
L 80.207813 251.280542 
" style="fill: none; stroke: #1f77b4; stroke-width: 2; stroke-linecap: square"/>
    </g>
    <g id="text_30">
     <!-- $I$ -->
     <g transform="translate(88.207813 254.780542) scale(0.1 -0.1)">
      <use xlink:href="#DejaVuSans-Oblique-49" transform="translate(0 0.09375)"/>
     </g>
    </g>
    <g id="line2d_62">
     <path d="M 60.207813 265.958667 
L 70.207813 265.958667 
L 80.207813 265.958667 
" style="fill: none; stroke: #ff7f0e; stroke-width: 2; stroke-linecap: square"/>
    </g>
    <g id="text_31">
     <!-- $Q$ -->
     <g transform="translate(88.207813 269.458667) scale(0.1 -0.1)">
      <defs>
       <path id="DejaVuSans-Oblique-51" d="M 2309 -84 
Q 2275 -88 2237 -89 
Q 2200 -91 2125 -91 
Q 1250 -91 756 411 
Q 263 913 263 1797 
Q 263 2319 452 2844 
Q 641 3369 978 3788 
Q 1369 4269 1858 4509 
Q 2347 4750 2938 4750 
Q 3794 4750 4287 4245 
Q 4781 3741 4781 2869 
Q 4781 1928 4265 1147 
Q 3750 366 2919 44 
L 3553 -825 
L 2847 -825 
L 2309 -84 
z
M 2919 4238 
Q 2400 4238 2003 3986 
Q 1606 3734 1313 3219 
Q 1125 2891 1026 2522 
Q 928 2153 928 1778 
Q 928 1128 1239 775 
Q 1550 422 2119 422 
Q 2631 422 3032 676 
Q 3434 931 3719 1434 
Q 3909 1772 4009 2142 
Q 4109 2513 4109 2881 
Q 4109 3528 3796 3883 
Q 3484 4238 2919 4238 
z
" transform="scale(0.015625)"/>
      </defs>
      <use xlink:href="#DejaVuSans-Oblique-51" transform="translate(0 0.78125)"/>
     </g>
    </g>
    <g id="line2d_63">
     <path d="M 60.207813 280.636792 
L 70.207813 280.636792 
L 80.207813 280.636792 
" style="fill: none; stroke: #2ca02c; stroke-opacity: 0.5; stroke-width: 1.5; stroke-linecap: square"/>
    </g>
    <g id="text_32">
     <!-- $u$ -->
     <g transform="translate(88.207813 284.136792) scale(0.1 -0.1)">
      <defs>
       <path id="DejaVuSans-Oblique-75" d="M 428 1388 
L 838 3500 
L 1416 3500 
L 1006 1409 
Q 975 1256 961 1147 
Q 947 1038 947 966 
Q 947 700 1109 554 
Q 1272 409 1569 409 
Q 2031 409 2368 721 
Q 2706 1034 2809 1563 
L 3194 3500 
L 3769 3500 
L 3091 0 
L 2516 0 
L 2631 550 
Q 2388 244 2052 76 
Q 1716 -91 1338 -91 
Q 878 -91 622 161 
Q 366 413 366 863 
Q 366 956 381 1097 
Q 397 1238 428 1388 
z
" transform="scale(0.015625)"/>
      </defs>
      <use xlink:href="#DejaVuSans-Oblique-75" transform="translate(0 0.3125)"/>
     </g>
    </g>
    <g id="line2d_64">
     <path d="M 60.207813 295.314917 
L 70.207813 295.314917 
L 80.207813 295.314917 
" style="fill: none; stroke-dasharray: 5.55,2.4; stroke-dashoffset: 0; stroke: #000000; stroke-opacity: 0.5; stroke-width: 1.5"/>
    </g>
    <g id="text_33">
     <!-- $I_{\max}$ -->
     <g transform="translate(88.207813 298.814917) scale(0.1 -0.1)">
      <defs>
       <path id="DejaVuSans-78" d="M 3513 3500 
L 2247 1797 
L 3578 0 
L 2900 0 
L 1881 1375 
L 863 0 
L 184 0 
L 1544 1831 
L 300 3500 
L 978 3500 
L 1906 2253 
L 2834 3500 
L 3513 3500 
z
" transform="scale(0.015625)"/>
      </defs>
      <use xlink:href="#DejaVuSans-Oblique-49" transform="translate(0 0.09375)"/>
      <use xlink:href="#DejaVuSans-6d" transform="translate(29.492188 -16.3125) scale(0.7)"/>
      <use xlink:href="#DejaVuSans-61" transform="translate(97.680664 -16.3125) scale(0.7)"/>
      <use xlink:href="#DejaVuSans-78" transform="translate(140.576172 -16.3125) scale(0.7)"/>
     </g>
    </g>
   </g>
  </g>
 </g>
 <defs>
  <clipPath id="pc0b45ee92f">
   <rect x="51.207813" y="7.935397" width="582.32" height="38.117293"/>
  </clipPath>
  <clipPath id="p18efa29ea8">
   <rect x="51.207813" y="65.497074" width="582.32" height="38.117293"/>
  </clipPath>
  <clipPath id="p6b20803271">
   <rect x="51.207813" y="123.058751" width="582.32" height="38.117293"/>
  </clipPath>
  <clipPath id="pf242b28a11">
   <rect x="51.207813" y="180.620428" width="582.32" height="38.117293"/>
  </clipPath>
  <clipPath id="p68bca7800e">
   <rect x="51.207813" y="238.182104" width="582.32" height="76.234586"/>
  </clipPath>
 </defs>
</svg>
