<?xml version="1.0" encoding="utf-8" standalone="no"?>
<!DOCTYPE svg PUBLIC "-//W3C//DTD SVG 1.1//EN"
  "http://www.w3.org/Graphics/SVG/1.1/DTD/svg11.dtd">
<svg xmlns:xlink="http://www.w3.org/1999/xlink" width="553.18125pt" height="212.125721pt" viewBox="0 0 553.18125 212.125721" xmlns="http://www.w3.org/2000/svg" version="1.1">
 <metadata>
  <rdf:RDF xmlns:dc="http://purl.org/dc/elements/1.1/" xmlns:cc="http://creativecommons.org/ns#" xmlns:rdf="http://www.w3.org/1999/02/22-rdf-syntax-ns#">
   <cc:Work>
    <dc:type rdf:resource="http://purl.org/dc/dcmitype/StillImage"/>
    <dc:date>2025-06-05T14:02:12.430917</dc:date>
    <dc:format>image/svg+xml</dc:format>
    <dc:creator>
     <cc:Agent>
      <dc:title>Matplotlib v3.6.3, https://matplotlib.org/</dc:title>
     </cc:Agent>
    </dc:creator>
   </cc:Work>
  </rdf:RDF>
 </metadata>
 <defs>
  <style type="text/css">*{stroke-linejoin: round; stroke-linecap: butt}</style>
 </defs>
 <g id="figure_1">
  <g id="patch_1">
   <path d="M 0 212.125721 
L 553.18125 212.125721 
L 553.18125 0 
L 0 0 
z
" style="fill: #ffffff"/>
  </g>
  <g id="axes_1">
   <g id="patch_2">
    <path d="M 43.78125 174.569471 
L 545.98125 174.569471 
L 545.98125 8.249471 
L 43.78125 8.249471 
z
" style="fill: #ffffff"/>
   </g>
   <g id="matplotlib.axis_1">
    <g id="xtick_1">
     <g id="line2d_1">
      <defs>
       <path id="me2e144fca2" d="M 0 0 
L 0 3.5 
" style="stroke: #000000; stroke-width: 0.8"/>
      </defs>
      <g>
       <use xlink:href="#me2e144fca2" x="66.608523" y="174.569471" style="stroke: #000000; stroke-width: 0.8"/>
      </g>
     </g>
     <g id="text_1">
      <!-- 0 -->
      <g transform="translate(63.427273 189.167909) scale(0.1 -0.1)">
       <defs>
        <path id="DejaVuSans-30" d="M 2034 4250 
Q 1547 4250 1301 3770 
Q 1056 3291 1056 2328 
Q 1056 1369 1301 889 
Q 1547 409 2034 409 
Q 2525 409 2770 889 
Q 3016 1369 3016 2328 
Q 3016 3291 2770 3770 
Q 2525 4250 2034 4250 
z
M 2034 4750 
Q 2819 4750 3233 4129 
Q 3647 3509 3647 2328 
Q 3647 1150 3233 529 
Q 2819 -91 2034 -91 
Q 1250 -91 836 529 
Q 422 1150 422 2328 
Q 422 3509 836 4129 
Q 1250 4750 2034 4750 
z
" transform="scale(0.015625)"/>
       </defs>
       <use xlink:href="#DejaVuSans-30"/>
      </g>
     </g>
    </g>
    <g id="xtick_2">
     <g id="line2d_2">
      <g>
       <use xlink:href="#me2e144fca2" x="142.953916" y="174.569471" style="stroke: #000000; stroke-width: 0.8"/>
      </g>
     </g>
     <g id="text_2">
      <!-- 50 -->
      <g transform="translate(136.591416 189.167909) scale(0.1 -0.1)">
       <defs>
        <path id="DejaVuSans-35" d="M 691 4666 
L 3169 4666 
L 3169 4134 
L 1269 4134 
L 1269 2991 
Q 1406 3038 1543 3061 
Q 1681 3084 1819 3084 
Q 2600 3084 3056 2656 
Q 3513 2228 3513 1497 
Q 3513 744 3044 326 
Q 2575 -91 1722 -91 
Q 1428 -91 1123 -41 
Q 819 9 494 109 
L 494 744 
Q 775 591 1075 516 
Q 1375 441 1709 441 
Q 2250 441 2565 725 
Q 2881 1009 2881 1497 
Q 2881 1984 2565 2268 
Q 2250 2553 1709 2553 
Q 1456 2553 1204 2497 
Q 953 2441 691 2322 
L 691 4666 
z
" transform="scale(0.015625)"/>
       </defs>
       <use xlink:href="#DejaVuSans-35"/>
       <use xlink:href="#DejaVuSans-30" x="63.623047"/>
      </g>
     </g>
    </g>
    <g id="xtick_3">
     <g id="line2d_3">
      <g>
       <use xlink:href="#me2e144fca2" x="219.29931" y="174.569471" style="stroke: #000000; stroke-width: 0.8"/>
      </g>
     </g>
     <g id="text_3">
      <!-- 100 -->
      <g transform="translate(209.75556 189.167909) scale(0.1 -0.1)">
       <defs>
        <path id="DejaVuSans-31" d="M 794 531 
L 1825 531 
L 1825 4091 
L 703 3866 
L 703 4441 
L 1819 4666 
L 2450 4666 
L 2450 531 
L 3481 531 
L 3481 0 
L 794 0 
L 794 531 
z
" transform="scale(0.015625)"/>
       </defs>
       <use xlink:href="#DejaVuSans-31"/>
       <use xlink:href="#DejaVuSans-30" x="63.623047"/>
       <use xlink:href="#DejaVuSans-30" x="127.246094"/>
      </g>
     </g>
    </g>
    <g id="xtick_4">
     <g id="line2d_4">
      <g>
       <use xlink:href="#me2e144fca2" x="295.644704" y="174.569471" style="stroke: #000000; stroke-width: 0.8"/>
      </g>
     </g>
     <g id="text_4">
      <!-- 150 -->
      <g transform="translate(286.100954 189.167909) scale(0.1 -0.1)">
       <use xlink:href="#DejaVuSans-31"/>
       <use xlink:href="#DejaVuSans-35" x="63.623047"/>
       <use xlink:href="#DejaVuSans-30" x="127.246094"/>
      </g>
     </g>
    </g>
    <g id="xtick_5">
     <g id="line2d_5">
      <g>
       <use xlink:href="#me2e144fca2" x="371.990098" y="174.569471" style="stroke: #000000; stroke-width: 0.8"/>
      </g>
     </g>
     <g id="text_5">
      <!-- 200 -->
      <g transform="translate(362.446348 189.167909) scale(0.1 -0.1)">
       <defs>
        <path id="DejaVuSans-32" d="M 1228 531 
L 3431 531 
L 3431 0 
L 469 0 
L 469 531 
Q 828 903 1448 1529 
Q 2069 2156 2228 2338 
Q 2531 2678 2651 2914 
Q 2772 3150 2772 3378 
Q 2772 3750 2511 3984 
Q 2250 4219 1831 4219 
Q 1534 4219 1204 4116 
Q 875 4013 500 3803 
L 500 4441 
Q 881 4594 1212 4672 
Q 1544 4750 1819 4750 
Q 2544 4750 2975 4387 
Q 3406 4025 3406 3419 
Q 3406 3131 3298 2873 
Q 3191 2616 2906 2266 
Q 2828 2175 2409 1742 
Q 1991 1309 1228 531 
z
" transform="scale(0.015625)"/>
       </defs>
       <use xlink:href="#DejaVuSans-32"/>
       <use xlink:href="#DejaVuSans-30" x="63.623047"/>
       <use xlink:href="#DejaVuSans-30" x="127.246094"/>
      </g>
     </g>
    </g>
    <g id="xtick_6">
     <g id="line2d_6">
      <g>
       <use xlink:href="#me2e144fca2" x="448.335491" y="174.569471" style="stroke: #000000; stroke-width: 0.8"/>
      </g>
     </g>
     <g id="text_6">
      <!-- 250 -->
      <g transform="translate(438.791741 189.167909) scale(0.1 -0.1)">
       <use xlink:href="#DejaVuSans-32"/>
       <use xlink:href="#DejaVuSans-35" x="63.623047"/>
       <use xlink:href="#DejaVuSans-30" x="127.246094"/>
      </g>
     </g>
    </g>
    <g id="xtick_7">
     <g id="line2d_7">
      <g>
       <use xlink:href="#me2e144fca2" x="524.680885" y="174.569471" style="stroke: #000000; stroke-width: 0.8"/>
      </g>
     </g>
     <g id="text_7">
      <!-- 300 -->
      <g transform="translate(515.137135 189.167909) scale(0.1 -0.1)">
       <defs>
        <path id="DejaVuSans-33" d="M 2597 2516 
Q 3050 2419 3304 2112 
Q 3559 1806 3559 1356 
Q 3559 666 3084 287 
Q 2609 -91 1734 -91 
Q 1441 -91 1130 -33 
Q 819 25 488 141 
L 488 750 
Q 750 597 1062 519 
Q 1375 441 1716 441 
Q 2309 441 2620 675 
Q 2931 909 2931 1356 
Q 2931 1769 2642 2001 
Q 2353 2234 1838 2234 
L 1294 2234 
L 1294 2753 
L 1863 2753 
Q 2328 2753 2575 2939 
Q 2822 3125 2822 3475 
Q 2822 3834 2567 4026 
Q 2313 4219 1838 4219 
Q 1578 4219 1281 4162 
Q 984 4106 628 3988 
L 628 4550 
Q 988 4650 1302 4700 
Q 1616 4750 1894 4750 
Q 2613 4750 3031 4423 
Q 3450 4097 3450 3541 
Q 3450 3153 3228 2886 
Q 3006 2619 2597 2516 
z
" transform="scale(0.015625)"/>
       </defs>
       <use xlink:href="#DejaVuSans-33"/>
       <use xlink:href="#DejaVuSans-30" x="63.623047"/>
       <use xlink:href="#DejaVuSans-30" x="127.246094"/>
      </g>
     </g>
    </g>
    <g id="text_8">
     <!-- time (days) -->
     <g transform="translate(266.292188 202.846034) scale(0.1 -0.1)">
      <defs>
       <path id="DejaVuSans-74" d="M 1172 4494 
L 1172 3500 
L 2356 3500 
L 2356 3053 
L 1172 3053 
L 1172 1153 
Q 1172 725 1289 603 
Q 1406 481 1766 481 
L 2356 481 
L 2356 0 
L 1766 0 
Q 1100 0 847 248 
Q 594 497 594 1153 
L 594 3053 
L 172 3053 
L 172 3500 
L 594 3500 
L 594 4494 
L 1172 4494 
z
" transform="scale(0.015625)"/>
       <path id="DejaVuSans-69" d="M 603 3500 
L 1178 3500 
L 1178 0 
L 603 0 
L 603 3500 
z
M 603 4863 
L 1178 4863 
L 1178 4134 
L 603 4134 
L 603 4863 
z
" transform="scale(0.015625)"/>
       <path id="DejaVuSans-6d" d="M 3328 2828 
Q 3544 3216 3844 3400 
Q 4144 3584 4550 3584 
Q 5097 3584 5394 3201 
Q 5691 2819 5691 2113 
L 5691 0 
L 5113 0 
L 5113 2094 
Q 5113 2597 4934 2840 
Q 4756 3084 4391 3084 
Q 3944 3084 3684 2787 
Q 3425 2491 3425 1978 
L 3425 0 
L 2847 0 
L 2847 2094 
Q 2847 2600 2669 2842 
Q 2491 3084 2119 3084 
Q 1678 3084 1418 2786 
Q 1159 2488 1159 1978 
L 1159 0 
L 581 0 
L 581 3500 
L 1159 3500 
L 1159 2956 
Q 1356 3278 1631 3431 
Q 1906 3584 2284 3584 
Q 2666 3584 2933 3390 
Q 3200 3197 3328 2828 
z
" transform="scale(0.015625)"/>
       <path id="DejaVuSans-65" d="M 3597 1894 
L 3597 1613 
L 953 1613 
Q 991 1019 1311 708 
Q 1631 397 2203 397 
Q 2534 397 2845 478 
Q 3156 559 3463 722 
L 3463 178 
Q 3153 47 2828 -22 
Q 2503 -91 2169 -91 
Q 1331 -91 842 396 
Q 353 884 353 1716 
Q 353 2575 817 3079 
Q 1281 3584 2069 3584 
Q 2775 3584 3186 3129 
Q 3597 2675 3597 1894 
z
M 3022 2063 
Q 3016 2534 2758 2815 
Q 2500 3097 2075 3097 
Q 1594 3097 1305 2825 
Q 1016 2553 972 2059 
L 3022 2063 
z
" transform="scale(0.015625)"/>
       <path id="DejaVuSans-20" transform="scale(0.015625)"/>
       <path id="DejaVuSans-28" d="M 1984 4856 
Q 1566 4138 1362 3434 
Q 1159 2731 1159 2009 
Q 1159 1288 1364 580 
Q 1569 -128 1984 -844 
L 1484 -844 
Q 1016 -109 783 600 
Q 550 1309 550 2009 
Q 550 2706 781 3412 
Q 1013 4119 1484 4856 
L 1984 4856 
z
" transform="scale(0.015625)"/>
       <path id="DejaVuSans-64" d="M 2906 2969 
L 2906 4863 
L 3481 4863 
L 3481 0 
L 2906 0 
L 2906 525 
Q 2725 213 2448 61 
Q 2172 -91 1784 -91 
Q 1150 -91 751 415 
Q 353 922 353 1747 
Q 353 2572 751 3078 
Q 1150 3584 1784 3584 
Q 2172 3584 2448 3432 
Q 2725 3281 2906 2969 
z
M 947 1747 
Q 947 1113 1208 752 
Q 1469 391 1925 391 
Q 2381 391 2643 752 
Q 2906 1113 2906 1747 
Q 2906 2381 2643 2742 
Q 2381 3103 1925 3103 
Q 1469 3103 1208 2742 
Q 947 2381 947 1747 
z
" transform="scale(0.015625)"/>
       <path id="DejaVuSans-61" d="M 2194 1759 
Q 1497 1759 1228 1600 
Q 959 1441 959 1056 
Q 959 750 1161 570 
Q 1363 391 1709 391 
Q 2188 391 2477 730 
Q 2766 1069 2766 1631 
L 2766 1759 
L 2194 1759 
z
M 3341 1997 
L 3341 0 
L 2766 0 
L 2766 531 
Q 2569 213 2275 61 
Q 1981 -91 1556 -91 
Q 1019 -91 701 211 
Q 384 513 384 1019 
Q 384 1609 779 1909 
Q 1175 2209 1959 2209 
L 2766 2209 
L 2766 2266 
Q 2766 2663 2505 2880 
Q 2244 3097 1772 3097 
Q 1472 3097 1187 3025 
Q 903 2953 641 2809 
L 641 3341 
Q 956 3463 1253 3523 
Q 1550 3584 1831 3584 
Q 2591 3584 2966 3190 
Q 3341 2797 3341 1997 
z
" transform="scale(0.015625)"/>
       <path id="DejaVuSans-79" d="M 2059 -325 
Q 1816 -950 1584 -1140 
Q 1353 -1331 966 -1331 
L 506 -1331 
L 506 -850 
L 844 -850 
Q 1081 -850 1212 -737 
Q 1344 -625 1503 -206 
L 1606 56 
L 191 3500 
L 800 3500 
L 1894 763 
L 2988 3500 
L 3597 3500 
L 2059 -325 
z
" transform="scale(0.015625)"/>
       <path id="DejaVuSans-73" d="M 2834 3397 
L 2834 2853 
Q 2591 2978 2328 3040 
Q 2066 3103 1784 3103 
Q 1356 3103 1142 2972 
Q 928 2841 928 2578 
Q 928 2378 1081 2264 
Q 1234 2150 1697 2047 
L 1894 2003 
Q 2506 1872 2764 1633 
Q 3022 1394 3022 966 
Q 3022 478 2636 193 
Q 2250 -91 1575 -91 
Q 1294 -91 989 -36 
Q 684 19 347 128 
L 347 722 
Q 666 556 975 473 
Q 1284 391 1588 391 
Q 1994 391 2212 530 
Q 2431 669 2431 922 
Q 2431 1156 2273 1281 
Q 2116 1406 1581 1522 
L 1381 1569 
Q 847 1681 609 1914 
Q 372 2147 372 2553 
Q 372 3047 722 3315 
Q 1072 3584 1716 3584 
Q 2034 3584 2315 3537 
Q 2597 3491 2834 3397 
z
" transform="scale(0.015625)"/>
       <path id="DejaVuSans-29" d="M 513 4856 
L 1013 4856 
Q 1481 4119 1714 3412 
Q 1947 2706 1947 2009 
Q 1947 1309 1714 600 
Q 1481 -109 1013 -844 
L 513 -844 
Q 928 -128 1133 580 
Q 1338 1288 1338 2009 
Q 1338 2731 1133 3434 
Q 928 4138 513 4856 
z
" transform="scale(0.015625)"/>
      </defs>
      <use xlink:href="#DejaVuSans-74"/>
      <use xlink:href="#DejaVuSans-69" x="39.208984"/>
      <use xlink:href="#DejaVuSans-6d" x="66.992188"/>
      <use xlink:href="#DejaVuSans-65" x="164.404297"/>
      <use xlink:href="#DejaVuSans-20" x="225.927734"/>
      <use xlink:href="#DejaVuSans-28" x="257.714844"/>
      <use xlink:href="#DejaVuSans-64" x="296.728516"/>
      <use xlink:href="#DejaVuSans-61" x="360.205078"/>
      <use xlink:href="#DejaVuSans-79" x="421.484375"/>
      <use xlink:href="#DejaVuSans-73" x="480.664062"/>
      <use xlink:href="#DejaVuSans-29" x="532.763672"/>
     </g>
    </g>
   </g>
   <g id="matplotlib.axis_2">
    <g id="ytick_1">
     <g id="line2d_8">
      <defs>
       <path id="m82aafaeaee" d="M 0 0 
L -3.5 0 
" style="stroke: #000000; stroke-width: 0.8"/>
      </defs>
      <g>
       <use xlink:href="#m82aafaeaee" x="43.78125" y="167.013372" style="stroke: #000000; stroke-width: 0.8"/>
      </g>
     </g>
     <g id="text_9">
      <!-- 0.0 -->
      <g transform="translate(20.878125 170.81259) scale(0.1 -0.1)">
       <defs>
        <path id="DejaVuSans-2e" d="M 684 794 
L 1344 794 
L 1344 0 
L 684 0 
L 684 794 
z
" transform="scale(0.015625)"/>
       </defs>
       <use xlink:href="#DejaVuSans-30"/>
       <use xlink:href="#DejaVuSans-2e" x="63.623047"/>
       <use xlink:href="#DejaVuSans-30" x="95.410156"/>
      </g>
     </g>
    </g>
    <g id="ytick_2">
     <g id="line2d_9">
      <g>
       <use xlink:href="#m82aafaeaee" x="43.78125" y="128.009833" style="stroke: #000000; stroke-width: 0.8"/>
      </g>
     </g>
     <g id="text_10">
      <!-- 0.1 -->
      <g transform="translate(20.878125 131.809052) scale(0.1 -0.1)">
       <use xlink:href="#DejaVuSans-30"/>
       <use xlink:href="#DejaVuSans-2e" x="63.623047"/>
       <use xlink:href="#DejaVuSans-31" x="95.410156"/>
      </g>
     </g>
    </g>
    <g id="ytick_3">
     <g id="line2d_10">
      <g>
       <use xlink:href="#m82aafaeaee" x="43.78125" y="89.006295" style="stroke: #000000; stroke-width: 0.8"/>
      </g>
     </g>
     <g id="text_11">
      <!-- 0.2 -->
      <g transform="translate(20.878125 92.805514) scale(0.1 -0.1)">
       <use xlink:href="#DejaVuSans-30"/>
       <use xlink:href="#DejaVuSans-2e" x="63.623047"/>
       <use xlink:href="#DejaVuSans-32" x="95.410156"/>
      </g>
     </g>
    </g>
    <g id="ytick_4">
     <g id="line2d_11">
      <g>
       <use xlink:href="#m82aafaeaee" x="43.78125" y="50.002757" style="stroke: #000000; stroke-width: 0.8"/>
      </g>
     </g>
     <g id="text_12">
      <!-- 0.3 -->
      <g transform="translate(20.878125 53.801976) scale(0.1 -0.1)">
       <use xlink:href="#DejaVuSans-30"/>
       <use xlink:href="#DejaVuSans-2e" x="63.623047"/>
       <use xlink:href="#DejaVuSans-33" x="95.410156"/>
      </g>
     </g>
    </g>
    <g id="ytick_5">
     <g id="line2d_12">
      <g>
       <use xlink:href="#m82aafaeaee" x="43.78125" y="10.999219" style="stroke: #000000; stroke-width: 0.8"/>
      </g>
     </g>
     <g id="text_13">
      <!-- 0.4 -->
      <g transform="translate(20.878125 14.798437) scale(0.1 -0.1)">
       <defs>
        <path id="DejaVuSans-34" d="M 2419 4116 
L 825 1625 
L 2419 1625 
L 2419 4116 
z
M 2253 4666 
L 3047 4666 
L 3047 1625 
L 3713 1625 
L 3713 1100 
L 3047 1100 
L 3047 0 
L 2419 0 
L 2419 1100 
L 313 1100 
L 313 1709 
L 2253 4666 
z
" transform="scale(0.015625)"/>
       </defs>
       <use xlink:href="#DejaVuSans-30"/>
       <use xlink:href="#DejaVuSans-2e" x="63.623047"/>
       <use xlink:href="#DejaVuSans-34" x="95.410156"/>
      </g>
     </g>
    </g>
    <g id="text_14">
     <!-- Infected Population -->
     <g transform="translate(14.798438 139.705565) rotate(-90) scale(0.1 -0.1)">
      <defs>
       <path id="DejaVuSans-49" d="M 628 4666 
L 1259 4666 
L 1259 0 
L 628 0 
L 628 4666 
z
" transform="scale(0.015625)"/>
       <path id="DejaVuSans-6e" d="M 3513 2113 
L 3513 0 
L 2938 0 
L 2938 2094 
Q 2938 2591 2744 2837 
Q 2550 3084 2163 3084 
Q 1697 3084 1428 2787 
Q 1159 2491 1159 1978 
L 1159 0 
L 581 0 
L 581 3500 
L 1159 3500 
L 1159 2956 
Q 1366 3272 1645 3428 
Q 1925 3584 2291 3584 
Q 2894 3584 3203 3211 
Q 3513 2838 3513 2113 
z
" transform="scale(0.015625)"/>
       <path id="DejaVuSans-66" d="M 2375 4863 
L 2375 4384 
L 1825 4384 
Q 1516 4384 1395 4259 
Q 1275 4134 1275 3809 
L 1275 3500 
L 2222 3500 
L 2222 3053 
L 1275 3053 
L 1275 0 
L 697 0 
L 697 3053 
L 147 3053 
L 147 3500 
L 697 3500 
L 697 3744 
Q 697 4328 969 4595 
Q 1241 4863 1831 4863 
L 2375 4863 
z
" transform="scale(0.015625)"/>
       <path id="DejaVuSans-63" d="M 3122 3366 
L 3122 2828 
Q 2878 2963 2633 3030 
Q 2388 3097 2138 3097 
Q 1578 3097 1268 2742 
Q 959 2388 959 1747 
Q 959 1106 1268 751 
Q 1578 397 2138 397 
Q 2388 397 2633 464 
Q 2878 531 3122 666 
L 3122 134 
Q 2881 22 2623 -34 
Q 2366 -91 2075 -91 
Q 1284 -91 818 406 
Q 353 903 353 1747 
Q 353 2603 823 3093 
Q 1294 3584 2113 3584 
Q 2378 3584 2631 3529 
Q 2884 3475 3122 3366 
z
" transform="scale(0.015625)"/>
       <path id="DejaVuSans-50" d="M 1259 4147 
L 1259 2394 
L 2053 2394 
Q 2494 2394 2734 2622 
Q 2975 2850 2975 3272 
Q 2975 3691 2734 3919 
Q 2494 4147 2053 4147 
L 1259 4147 
z
M 628 4666 
L 2053 4666 
Q 2838 4666 3239 4311 
Q 3641 3956 3641 3272 
Q 3641 2581 3239 2228 
Q 2838 1875 2053 1875 
L 1259 1875 
L 1259 0 
L 628 0 
L 628 4666 
z
" transform="scale(0.015625)"/>
       <path id="DejaVuSans-6f" d="M 1959 3097 
Q 1497 3097 1228 2736 
Q 959 2375 959 1747 
Q 959 1119 1226 758 
Q 1494 397 1959 397 
Q 2419 397 2687 759 
Q 2956 1122 2956 1747 
Q 2956 2369 2687 2733 
Q 2419 3097 1959 3097 
z
M 1959 3584 
Q 2709 3584 3137 3096 
Q 3566 2609 3566 1747 
Q 3566 888 3137 398 
Q 2709 -91 1959 -91 
Q 1206 -91 779 398 
Q 353 888 353 1747 
Q 353 2609 779 3096 
Q 1206 3584 1959 3584 
z
" transform="scale(0.015625)"/>
       <path id="DejaVuSans-70" d="M 1159 525 
L 1159 -1331 
L 581 -1331 
L 581 3500 
L 1159 3500 
L 1159 2969 
Q 1341 3281 1617 3432 
Q 1894 3584 2278 3584 
Q 2916 3584 3314 3078 
Q 3713 2572 3713 1747 
Q 3713 922 3314 415 
Q 2916 -91 2278 -91 
Q 1894 -91 1617 61 
Q 1341 213 1159 525 
z
M 3116 1747 
Q 3116 2381 2855 2742 
Q 2594 3103 2138 3103 
Q 1681 3103 1420 2742 
Q 1159 2381 1159 1747 
Q 1159 1113 1420 752 
Q 1681 391 2138 391 
Q 2594 391 2855 752 
Q 3116 1113 3116 1747 
z
" transform="scale(0.015625)"/>
       <path id="DejaVuSans-75" d="M 544 1381 
L 544 3500 
L 1119 3500 
L 1119 1403 
Q 1119 906 1312 657 
Q 1506 409 1894 409 
Q 2359 409 2629 706 
Q 2900 1003 2900 1516 
L 2900 3500 
L 3475 3500 
L 3475 0 
L 2900 0 
L 2900 538 
Q 2691 219 2414 64 
Q 2138 -91 1772 -91 
Q 1169 -91 856 284 
Q 544 659 544 1381 
z
M 1991 3584 
L 1991 3584 
z
" transform="scale(0.015625)"/>
       <path id="DejaVuSans-6c" d="M 603 4863 
L 1178 4863 
L 1178 0 
L 603 0 
L 603 4863 
z
" transform="scale(0.015625)"/>
      </defs>
      <use xlink:href="#DejaVuSans-49"/>
      <use xlink:href="#DejaVuSans-6e" x="29.492188"/>
      <use xlink:href="#DejaVuSans-66" x="92.871094"/>
      <use xlink:href="#DejaVuSans-65" x="128.076172"/>
      <use xlink:href="#DejaVuSans-63" x="189.599609"/>
      <use xlink:href="#DejaVuSans-74" x="244.580078"/>
      <use xlink:href="#DejaVuSans-65" x="283.789062"/>
      <use xlink:href="#DejaVuSans-64" x="345.3125"/>
      <use xlink:href="#DejaVuSans-20" x="408.789062"/>
      <use xlink:href="#DejaVuSans-50" x="440.576172"/>
      <use xlink:href="#DejaVuSans-6f" x="497.253906"/>
      <use xlink:href="#DejaVuSans-70" x="558.435547"/>
      <use xlink:href="#DejaVuSans-75" x="621.912109"/>
      <use xlink:href="#DejaVuSans-6c" x="685.291016"/>
      <use xlink:href="#DejaVuSans-61" x="713.074219"/>
      <use xlink:href="#DejaVuSans-74" x="774.353516"/>
      <use xlink:href="#DejaVuSans-69" x="813.5625"/>
      <use xlink:href="#DejaVuSans-6f" x="841.345703"/>
      <use xlink:href="#DejaVuSans-6e" x="902.527344"/>
     </g>
    </g>
   </g>
   <g id="line2d_13">
    <path d="M 66.608523 167.009471 
L 104.78122 166.890951 
L 116.996483 166.646987 
L 124.631022 166.267686 
L 129.211746 165.904872 
L 135.319377 165.117096 
L 139.900101 164.16244 
L 142.953916 163.342945 
L 144.480824 162.856417 
L 149.061548 160.721828 
L 150.588456 159.939943 
L 153.642272 157.659861 
L 155.169179 156.375711 
L 158.222995 153.369781 
L 159.749903 151.304267 
L 164.330627 144.241891 
L 165.857535 141.438702 
L 168.91135 133.989452 
L 170.438258 129.644937 
L 171.965166 125.757121 
L 173.492074 121.372076 
L 175.018982 116.456843 
L 176.54589 110.132 
L 179.599705 99.321801 
L 181.126613 92.345741 
L 182.653521 84.326191 
L 184.180429 78.107811 
L 185.707337 72.469117 
L 190.288061 50.806708 
L 191.814968 45.142853 
L 193.341876 37.322288 
L 194.868784 30.47765 
L 196.395692 27.13978 
L 197.9226 21.752622 
L 199.449508 17.969944 
L 200.976416 15.809471 
L 202.503324 16.081193 
L 205.557139 17.469601 
L 207.084047 16.633236 
L 208.610955 18.132506 
L 211.664771 17.845234 
L 213.191679 19.012702 
L 214.718587 21.808108 
L 216.245494 22.319216 
L 217.772402 24.394329 
L 219.29931 27.943122 
L 222.353126 36.241442 
L 223.880034 39.340367 
L 225.406942 43.673497 
L 226.93385 45.940389 
L 228.460757 48.423205 
L 229.987665 52.217252 
L 231.514573 53.790929 
L 233.041481 58.944839 
L 234.568389 62.817939 
L 236.095297 66.331353 
L 237.622205 68.590849 
L 239.149113 73.968615 
L 240.67602 76.515359 
L 242.202928 78.784089 
L 243.729836 83.539747 
L 245.256744 87.006626 
L 246.783652 90.156703 
L 248.31056 92.777679 
L 249.837468 95.138251 
L 251.364376 96.414979 
L 252.891283 100.15356 
L 254.418191 102.212533 
L 257.472007 108.969978 
L 260.525823 112.569114 
L 262.052731 114.775463 
L 263.579639 115.906366 
L 265.106546 117.758122 
L 266.633454 118.718177 
L 268.160362 120.98616 
L 269.68727 122.186029 
L 271.214178 124.397686 
L 272.741086 125.104596 
L 274.267994 126.182927 
L 277.321809 129.964543 
L 280.375625 131.975019 
L 283.429441 133.362368 
L 284.956349 134.503563 
L 286.483257 135.051527 
L 289.537072 137.916841 
L 291.06398 138.979386 
L 292.590888 139.566475 
L 294.117796 140.316163 
L 295.644704 140.75531 
L 297.171612 141.867205 
L 298.69852 142.659129 
L 301.752335 143.16024 
L 303.279243 143.98277 
L 304.806151 144.327433 
L 306.333059 144.912908 
L 307.859967 145.093687 
L 309.386875 145.894315 
L 310.913783 146.197261 
L 312.440691 146.884306 
L 313.967598 147.219599 
L 315.494506 148.002195 
L 317.021414 148.614859 
L 323.129046 149.01217 
L 326.182861 150.093402 
L 329.236677 150.389774 
L 330.763585 150.806336 
L 332.290493 150.954971 
L 333.817401 150.96106 
L 335.344309 151.559723 
L 336.871217 151.655228 
L 338.398124 152.136205 
L 341.45194 152.423478 
L 342.978848 152.659622 
L 344.505756 153.135568 
L 346.032664 153.491269 
L 347.559572 153.694303 
L 349.08648 153.672683 
L 350.613387 154.093585 
L 352.140295 154.192073 
L 353.667203 154.153255 
L 355.194111 154.352081 
L 356.721019 154.279395 
L 358.247927 154.343388 
L 359.774835 154.26355 
L 361.301743 154.370471 
L 362.82865 154.748219 
L 364.355558 154.654308 
L 368.936282 155.653796 
L 370.46319 155.60243 
L 371.990098 155.769787 
L 375.043913 156.234292 
L 376.570821 156.194501 
L 378.097729 156.280953 
L 379.624637 156.484128 
L 382.678453 156.675149 
L 384.205361 156.894021 
L 385.732269 156.844418 
L 391.8399 157.598582 
L 393.366808 157.480735 
L 396.420624 157.752936 
L 397.947532 157.649476 
L 399.474439 157.824504 
L 408.635887 157.863782 
L 413.21661 157.543775 
L 414.743518 157.648454 
L 420.85115 157.423263 
L 422.378058 157.501979 
L 423.904965 157.335207 
L 425.431873 157.410727 
L 428.485689 157.055534 
L 430.012597 156.833904 
L 433.066413 156.853438 
L 436.120228 156.450035 
L 440.700952 156.292899 
L 442.22786 155.999628 
L 443.754768 156.06385 
L 449.862399 155.230928 
L 451.389307 155.027184 
L 452.916215 154.964707 
L 454.443123 154.771082 
L 455.970031 154.774252 
L 457.496939 154.536028 
L 459.023847 154.542715 
L 462.077662 154.306957 
L 465.131478 154.328231 
L 466.658386 153.982752 
L 469.712202 153.913545 
L 471.23911 153.647833 
L 474.292925 153.801397 
L 477.346741 153.02086 
L 480.400557 152.96724 
L 486.508188 151.930505 
L 488.035096 152.010211 
L 489.562004 151.642565 
L 491.088912 151.717535 
L 492.61582 151.429774 
L 494.142728 151.282671 
L 497.196543 150.75931 
L 498.723451 150.79356 
L 503.304175 149.98562 
L 504.831083 150.074439 
L 506.357991 149.974518 
L 509.411806 149.352266 
L 510.938714 148.81717 
L 513.99253 148.144181 
L 518.573254 146.5542 
L 520.100162 146.375534 
L 523.153977 145.163608 
L 523.153977 145.163608 
" clip-path="url(#p46a8436fdd)" style="fill: none; stroke: #1f77b4; stroke-width: 3; stroke-linecap: square"/>
   </g>
   <g id="line2d_14">
    <path d="M 66.608523 167.009471 
L 104.78122 166.890951 
L 116.996483 166.646987 
L 124.631022 166.267686 
L 129.211746 165.904872 
L 135.319377 165.117096 
L 139.900101 164.16244 
L 142.953916 163.342945 
L 144.480824 162.856417 
L 149.061548 160.721828 
L 150.588456 159.939943 
L 153.642272 157.659861 
L 155.169179 156.375711 
L 158.222995 153.369781 
L 159.749903 151.304267 
L 164.330627 144.241891 
L 165.857535 141.438702 
L 168.91135 133.989452 
L 170.438258 129.644937 
L 171.965166 125.757121 
L 173.492074 121.372076 
L 175.018982 116.456843 
L 176.54589 110.132 
L 179.599705 99.321801 
L 181.126613 92.345741 
L 182.653521 84.326191 
L 184.180429 78.107811 
L 185.707337 72.469117 
L 190.288061 50.806708 
L 191.814968 45.142853 
L 193.341876 37.322288 
L 194.868784 30.47765 
L 196.395692 27.13978 
L 197.9226 21.752622 
L 199.449508 17.969944 
L 200.976416 15.809471 
L 202.503324 16.081193 
L 205.557139 17.469601 
L 207.084047 16.633236 
L 208.610955 18.132506 
L 211.664771 17.845234 
L 213.191679 19.012702 
L 214.718587 21.808108 
L 216.245494 22.319216 
L 217.772402 24.394329 
L 219.29931 27.943122 
L 222.353126 36.241442 
L 223.880034 39.340367 
L 225.406942 43.673497 
L 226.93385 45.940389 
L 228.460757 48.423205 
L 229.987665 52.217252 
L 231.514573 53.790929 
L 233.041481 58.944839 
L 234.568389 62.817939 
L 236.095297 66.331353 
L 237.622205 68.590849 
L 239.149113 73.968615 
L 240.67602 76.515359 
L 242.202928 78.784089 
L 243.729836 83.539747 
L 245.256744 87.006626 
L 246.783652 90.156703 
L 248.31056 92.777679 
L 249.837468 95.138251 
L 251.364376 96.414979 
L 252.891283 100.15356 
L 254.418191 102.212533 
L 257.472007 108.969978 
L 260.525823 112.569114 
L 262.052731 114.775463 
L 263.579639 115.906366 
L 265.106546 117.758122 
L 266.633454 118.718177 
L 268.160362 120.98616 
L 269.68727 122.186029 
L 271.214178 124.397686 
L 272.741086 125.104596 
L 274.267994 126.182927 
L 277.321809 129.964543 
L 280.375625 131.975019 
L 283.429441 133.362368 
L 284.956349 134.503563 
L 286.483257 135.051527 
L 289.537072 137.916841 
L 291.06398 138.979386 
L 292.590888 139.566475 
L 294.117796 140.316163 
L 295.644704 140.75531 
L 297.171612 141.867205 
L 298.69852 142.659129 
L 301.752335 143.16024 
L 303.279243 143.98277 
L 304.806151 144.327433 
L 306.333059 144.912908 
L 307.859967 145.093687 
L 309.386875 145.894315 
L 310.913783 146.197261 
L 312.440691 146.884306 
L 313.967598 147.219599 
L 315.494506 148.002195 
L 317.021414 148.614859 
L 323.129046 149.01217 
L 326.182861 150.093402 
L 329.236677 150.389774 
L 330.763585 150.806336 
L 332.290493 150.954971 
L 333.817401 150.96106 
L 335.344309 151.559723 
L 336.871217 151.655228 
L 338.398124 152.136205 
L 341.45194 152.423478 
L 342.978848 152.659622 
L 344.505756 153.135568 
L 346.032664 153.491269 
L 347.559572 153.694303 
L 349.08648 153.672683 
L 350.613387 154.093585 
L 352.140295 154.192073 
L 353.667203 154.153255 
L 355.194111 154.352081 
L 356.721019 154.279395 
L 358.247927 154.343388 
L 359.774835 154.26355 
L 361.301743 154.370471 
L 362.82865 154.748219 
L 364.355558 154.654308 
L 368.936282 155.653796 
L 370.46319 155.60243 
L 371.990098 155.769787 
L 375.043913 156.234292 
L 376.570821 156.194501 
L 378.097729 156.280953 
L 379.624637 156.484128 
L 382.678453 156.675149 
L 384.205361 156.894021 
L 385.732269 156.844418 
L 391.8399 157.598582 
L 393.366808 157.480735 
L 396.420624 157.752936 
L 397.947532 157.649476 
L 399.474439 157.824504 
L 408.635887 157.863782 
L 413.21661 157.543775 
L 414.743518 157.648454 
L 420.85115 157.423263 
L 422.378058 157.501979 
L 423.904965 157.335207 
L 425.431873 157.410727 
L 428.485689 157.055534 
L 430.012597 156.833904 
L 433.066413 156.853438 
L 436.120228 156.450035 
L 440.700952 156.292899 
L 442.22786 155.999628 
L 443.754768 156.06385 
L 449.862399 155.230928 
L 451.389307 155.027184 
L 452.916215 154.964707 
L 454.443123 154.771082 
L 455.970031 154.774252 
L 457.496939 154.536028 
L 459.023847 154.542715 
L 462.077662 154.306957 
L 465.131478 154.328231 
L 466.658386 153.982752 
L 469.712202 153.913545 
L 471.23911 153.647833 
L 474.292925 153.801397 
L 477.346741 153.02086 
L 480.400557 152.96724 
L 486.508188 151.930505 
L 488.035096 152.010211 
L 489.562004 151.642565 
L 491.088912 151.717535 
L 492.61582 151.429774 
L 494.142728 151.282671 
L 497.196543 150.75931 
L 498.723451 150.79356 
L 503.304175 149.98562 
L 504.831083 150.074439 
L 506.357991 149.974518 
L 509.411806 149.352266 
L 510.938714 148.81717 
L 513.99253 148.144181 
L 518.573254 146.5542 
L 520.100162 146.375534 
L 521.627069 145.785148 
L 521.627069 145.785148 
" clip-path="url(#p46a8436fdd)" style="fill: none; stroke-dasharray: 5.55,2.4; stroke-dashoffset: 0; stroke: #000000; stroke-width: 1.5"/>
   </g>
   <g id="line2d_15">
    <path d="M 66.608523 151.983646 
L 68.135431 152.677125 
L 69.662338 151.587758 
L 71.189246 160.139901 
L 72.716154 157.777073 
L 74.243062 149.787354 
L 75.76997 149.677079 
L 77.296878 156.886288 
L 78.823786 152.057316 
L 80.350694 154.5927 
L 81.877601 155.802058 
L 83.404509 160.017738 
L 84.931417 151.780829 
L 86.458325 163.061528 
L 87.985233 158.530188 
L 89.512141 160.629978 
L 91.039049 161.005486 
L 92.565957 151.376452 
L 94.092864 157.454594 
L 95.619772 149.3518 
L 97.14668 160.340247 
L 98.673588 158.916242 
L 101.727404 151.842257 
L 103.254312 149.047995 
L 104.78122 154.373309 
L 106.308127 160.585127 
L 107.835035 158.244648 
L 109.361943 154.835879 
L 110.888851 157.408811 
L 112.415759 150.31027 
L 113.942667 149.532914 
L 115.469575 154.214379 
L 116.996483 161.614482 
L 118.52339 161.791949 
L 120.050298 150.055811 
L 121.577206 162.613086 
L 123.104114 150.545408 
L 124.631022 150.04788 
L 126.15793 157.09642 
L 127.684838 151.655006 
L 129.211746 159.383499 
L 130.738653 149.810107 
L 132.265561 159.369696 
L 133.792469 147.522609 
L 135.319377 161.000011 
L 136.846285 154.180153 
L 138.373193 149.806193 
L 139.900101 151.341509 
L 141.427009 150.55203 
L 142.953916 150.30949 
L 144.480824 162.048366 
L 146.007732 152.507976 
L 147.53464 155.610233 
L 149.061548 147.791645 
L 150.588456 159.196131 
L 152.115364 157.168604 
L 153.642272 153.702626 
L 155.169179 155.01958 
L 156.696087 149.800588 
L 158.222995 160.431858 
L 159.749903 159.009865 
L 161.276811 148.816408 
L 162.803719 153.945096 
L 164.330627 151.92139 
L 165.857535 159.635918 
L 167.384442 157.132732 
L 168.91135 158.01696 
L 170.438258 148.44474 
L 171.965166 150.612074 
L 173.492074 152.557275 
L 175.018982 160.861379 
L 176.54589 151.757072 
L 178.072798 148.360565 
L 179.599705 157.602214 
L 181.126613 161.302237 
L 182.653521 150.877405 
L 184.180429 148.555336 
L 185.707337 155.635666 
L 187.234245 156.273416 
L 188.761153 157.039353 
L 190.288061 152.431855 
L 191.814968 160.931362 
L 193.341876 158.931872 
L 194.868784 150.320211 
L 196.395692 158.201349 
L 197.9226 155.61437 
L 199.449508 153.305454 
L 200.976416 149.031339 
L 202.503324 149.892922 
L 204.030231 151.654207 
L 205.557139 157.282819 
L 207.084047 152.710816 
L 208.610955 158.235759 
L 210.137863 159.748735 
L 211.664771 157.354194 
L 213.191679 154.107957 
L 214.718587 161.074807 
L 217.772402 154.419142 
L 219.29931 152.909553 
L 220.826218 153.805168 
L 222.353126 156.828173 
L 223.880034 153.343224 
L 225.406942 159.868625 
L 226.93385 159.441518 
L 228.460757 155.324488 
L 229.987665 162.781939 
L 231.514573 150.661167 
L 233.041481 154.69683 
L 234.568389 155.745665 
L 236.095297 160.336417 
L 237.622205 147.944072 
L 239.149113 158.72556 
L 240.67602 159.740717 
L 242.202928 148.5952 
L 243.729836 153.5038 
L 245.256744 154.408794 
L 246.783652 156.510299 
L 248.31056 157.439885 
L 249.837468 162.932701 
L 251.364376 149.213969 
L 252.891283 157.857537 
L 254.418191 149.174198 
L 255.945099 148.720946 
L 257.472007 157.440421 
L 258.998915 157.536316 
L 260.525823 153.89167 
L 262.052731 161.194044 
L 263.579639 155.438305 
L 265.106546 161.89637 
L 266.633454 151.10433 
L 268.160362 159.171646 
L 269.68727 150.007283 
L 271.214178 162.687898 
L 272.741086 159.022129 
L 274.267994 151.202774 
L 275.794902 149.603376 
L 277.321809 158.766875 
L 278.848717 157.134606 
L 280.375625 160.730594 
L 281.902533 160.548757 
L 283.429441 155.025144 
L 284.956349 161.550958 
L 286.483257 150.017383 
L 288.010165 150.05306 
L 289.537072 153.482736 
L 291.06398 159.416613 
L 292.590888 156.786698 
L 294.117796 160.878478 
L 295.644704 150.630196 
L 297.171612 154.714131 
L 298.69852 162.708395 
L 300.225428 162.759694 
L 301.752335 153.085746 
L 303.279243 160.543674 
L 304.806151 156.157543 
L 306.333059 162.875488 
L 307.859967 151.660618 
L 309.386875 160.153289 
L 310.913783 152.713653 
L 312.440691 158.9286 
L 313.967598 149.840844 
L 315.494506 152.528397 
L 317.021414 162.704813 
L 318.548322 161.753493 
L 320.07523 162.866616 
L 321.602138 162.900288 
L 323.129046 153.585379 
L 324.655954 150.985545 
L 326.182861 160.358021 
L 327.709769 160.470195 
L 329.236677 153.819171 
L 330.763585 159.848467 
L 332.290493 163.109147 
L 333.817401 148.543013 
L 335.344309 160.512366 
L 336.871217 150.539201 
L 338.398124 159.194424 
L 339.925032 158.240898 
L 341.45194 155.935034 
L 342.978848 149.146641 
L 344.505756 151.914117 
L 346.032664 155.884386 
L 347.559572 162.202599 
L 349.08648 149.092516 
L 350.613387 158.255355 
L 352.140295 162.238348 
L 353.667203 154.856867 
L 355.194111 162.957594 
L 356.721019 158.589813 
L 358.247927 162.841142 
L 359.774835 156.947022 
L 361.301743 148.400978 
L 362.82865 162.87834 
L 364.355558 149.499334 
L 365.882466 147.797243 
L 367.409374 148.968666 
L 368.936282 161.002046 
L 370.46319 153.35236 
L 371.990098 149.04317 
L 373.517006 152.335581 
L 375.043913 160.020544 
L 378.097729 150.869257 
L 379.624637 154.916386 
L 381.151545 153.994453 
L 382.678453 149.508655 
L 384.205361 159.516536 
L 385.732269 149.602653 
L 387.259176 151.160828 
L 388.786084 148.156534 
L 390.312992 150.12621 
L 391.8399 161.681655 
L 393.366808 151.811112 
L 394.893716 150.088903 
L 396.420624 160.677221 
L 397.947532 148.87007 
L 399.474439 155.416129 
L 401.001347 152.749908 
L 402.528255 157.594809 
L 404.055163 156.186482 
L 405.582071 153.758291 
L 407.108979 156.336474 
L 408.635887 159.806179 
L 410.162795 155.919809 
L 411.689702 162.581804 
L 413.21661 150.326558 
L 414.743518 157.2596 
L 416.270426 156.792115 
L 417.797334 161.59867 
L 419.324242 150.860225 
L 420.85115 150.741553 
L 422.378058 160.647946 
L 423.904965 150.632149 
L 425.431873 158.54833 
L 426.958781 162.720319 
L 428.485689 161.969388 
L 430.012597 151.939702 
L 431.539505 153.524398 
L 433.066413 161.374753 
L 434.593321 159.700222 
L 436.120228 153.716085 
L 437.647136 153.662053 
L 439.174044 156.16467 
L 440.700952 163.04218 
L 442.22786 149.993696 
L 443.754768 158.625114 
L 445.281676 156.723879 
L 446.808584 162.785562 
L 448.335491 158.841481 
L 449.862399 158.536973 
L 451.389307 153.740964 
L 452.916215 157.895134 
L 454.443123 151.44718 
L 455.970031 159.064445 
L 457.496939 151.189215 
L 459.023847 155.113753 
L 460.550754 154.811424 
L 462.077662 150.584819 
L 463.60457 151.080013 
L 465.131478 161.685358 
L 466.658386 150.419079 
L 468.185294 153.598486 
L 469.712202 158.796555 
L 471.23911 147.586801 
L 472.766017 149.531277 
L 474.292925 162.130025 
L 475.819833 161.987312 
L 477.346741 151.256992 
L 478.873649 151.460803 
L 480.400557 158.127469 
L 481.927465 154.97081 
L 483.454373 159.54352 
L 484.98128 157.404978 
L 486.508188 148.367298 
L 488.035096 159.96488 
L 489.562004 148.48322 
L 491.088912 157.707001 
L 492.61582 154.034283 
L 494.142728 158.036903 
L 495.669636 155.507169 
L 497.196543 149.502261 
L 498.723451 156.874873 
L 500.250359 156.174084 
L 501.777267 157.027054 
L 503.304175 148.29074 
L 506.357991 157.08506 
L 507.884899 157.724858 
L 509.411806 162.182248 
L 510.938714 157.173672 
L 512.465622 157.911758 
L 513.99253 161.194453 
L 515.519438 161.388974 
L 517.046346 160.818147 
L 518.573254 153.963835 
L 520.100162 161.769052 
L 521.627069 162.086718 
L 523.153977 153.962666 
L 523.153977 153.962666 
" clip-path="url(#p46a8436fdd)" style="fill: none; stroke: #ff7f0e; stroke-opacity: 0.5; stroke-width: 1.5; stroke-linecap: square"/>
   </g>
   <g id="patch_3">
    <path d="M 43.78125 174.569471 
L 43.78125 8.249471 
" style="fill: none; stroke: #000000; stroke-width: 0.8; stroke-linejoin: miter; stroke-linecap: square"/>
   </g>
   <g id="patch_4">
    <path d="M 545.98125 174.569471 
L 545.98125 8.249471 
" style="fill: none; stroke: #000000; stroke-width: 0.8; stroke-linejoin: miter; stroke-linecap: square"/>
   </g>
   <g id="patch_5">
    <path d="M 43.78125 174.569471 
L 545.98125 174.569471 
" style="fill: none; stroke: #000000; stroke-width: 0.8; stroke-linejoin: miter; stroke-linecap: square"/>
   </g>
   <g id="patch_6">
    <path d="M 43.78125 8.249471 
L 545.98125 8.249471 
" style="fill: none; stroke: #000000; stroke-width: 0.8; stroke-linejoin: miter; stroke-linecap: square"/>
   </g>
   <g id="legend_1">
    <g id="patch_7">
     <path d="M 455.78125 61.805721 
L 538.98125 61.805721 
Q 540.98125 61.805721 540.98125 59.805721 
L 540.98125 15.249471 
Q 540.98125 13.249471 538.98125 13.249471 
L 455.78125 13.249471 
Q 453.78125 13.249471 453.78125 15.249471 
L 453.78125 59.805721 
Q 453.78125 61.805721 455.78125 61.805721 
z
" style="fill: #ffffff; opacity: 0.8; stroke: #cccccc; stroke-linejoin: miter"/>
    </g>
    <g id="line2d_16">
     <path d="M 457.78125 21.347909 
L 467.78125 21.347909 
L 477.78125 21.347909 
" style="fill: none; stroke: #1f77b4; stroke-width: 3; stroke-linecap: square"/>
    </g>
    <g id="text_15">
     <!-- $I$ - Exact -->
     <g transform="translate(485.78125 24.847909) scale(0.1 -0.1)">
      <defs>
       <path id="DejaVuSans-Oblique-49" d="M 1081 4666 
L 1716 4666 
L 806 0 
L 172 0 
L 1081 4666 
z
" transform="scale(0.015625)"/>
       <path id="DejaVuSans-2d" d="M 313 2009 
L 1997 2009 
L 1997 1497 
L 313 1497 
L 313 2009 
z
" transform="scale(0.015625)"/>
       <path id="DejaVuSans-45" d="M 628 4666 
L 3578 4666 
L 3578 4134 
L 1259 4134 
L 1259 2753 
L 3481 2753 
L 3481 2222 
L 1259 2222 
L 1259 531 
L 3634 531 
L 3634 0 
L 628 0 
L 628 4666 
z
" transform="scale(0.015625)"/>
       <path id="DejaVuSans-78" d="M 3513 3500 
L 2247 1797 
L 3578 0 
L 2900 0 
L 1881 1375 
L 863 0 
L 184 0 
L 1544 1831 
L 300 3500 
L 978 3500 
L 1906 2253 
L 2834 3500 
L 3513 3500 
z
" transform="scale(0.015625)"/>
      </defs>
      <use xlink:href="#DejaVuSans-Oblique-49" transform="translate(0 0.09375)"/>
      <use xlink:href="#DejaVuSans-20" transform="translate(29.492188 0.09375)"/>
      <use xlink:href="#DejaVuSans-2d" transform="translate(61.279297 0.09375)"/>
      <use xlink:href="#DejaVuSans-20" transform="translate(97.363281 0.09375)"/>
      <use xlink:href="#DejaVuSans-45" transform="translate(129.150391 0.09375)"/>
      <use xlink:href="#DejaVuSans-78" transform="translate(192.333984 0.09375)"/>
      <use xlink:href="#DejaVuSans-61" transform="translate(251.513672 0.09375)"/>
      <use xlink:href="#DejaVuSans-63" transform="translate(312.792969 0.09375)"/>
      <use xlink:href="#DejaVuSans-74" transform="translate(367.773438 0.09375)"/>
     </g>
    </g>
    <g id="line2d_17">
     <path d="M 457.78125 37.547909 
L 467.78125 37.547909 
L 477.78125 37.547909 
" style="fill: none; stroke-dasharray: 5.55,2.4; stroke-dashoffset: 0; stroke: #000000; stroke-width: 1.5"/>
    </g>
    <g id="text_16">
     <!-- $\hat{I}$ - Estim. -->
     <g transform="translate(485.78125 41.047909) scale(0.1 -0.1)">
      <defs>
       <path id="DejaVuSans-302" d="M -1831 5119 
L -1369 5119 
L -603 3944 
L -1038 3944 
L -1600 4709 
L -2163 3944 
L -2597 3944 
L -1831 5119 
z
M -1600 3584 
L -1600 3584 
z
" transform="scale(0.015625)"/>
      </defs>
      <use xlink:href="#DejaVuSans-302" transform="translate(42.951172 30.015625)"/>
      <use xlink:href="#DejaVuSans-Oblique-49" transform="translate(0 0.609375)"/>
      <use xlink:href="#DejaVuSans-20" transform="translate(29.492188 0.609375)"/>
      <use xlink:href="#DejaVuSans-2d" transform="translate(61.279297 0.609375)"/>
      <use xlink:href="#DejaVuSans-20" transform="translate(97.363281 0.609375)"/>
      <use xlink:href="#DejaVuSans-45" transform="translate(129.150391 0.609375)"/>
      <use xlink:href="#DejaVuSans-73" transform="translate(192.333984 0.609375)"/>
      <use xlink:href="#DejaVuSans-74" transform="translate(244.433594 0.609375)"/>
      <use xlink:href="#DejaVuSans-69" transform="translate(283.642578 0.609375)"/>
      <use xlink:href="#DejaVuSans-6d" transform="translate(311.425781 0.609375)"/>
      <use xlink:href="#DejaVuSans-2e" transform="translate(408.837891 0.609375)"/>
     </g>
    </g>
    <g id="line2d_18">
     <path d="M 457.78125 52.226034 
L 467.78125 52.226034 
L 477.78125 52.226034 
" style="fill: none; stroke: #ff7f0e; stroke-opacity: 0.5; stroke-width: 1.5; stroke-linecap: square"/>
    </g>
    <g id="text_17">
     <!-- $u$ - control -->
     <g transform="translate(485.78125 55.726034) scale(0.1 -0.1)">
      <defs>
       <path id="DejaVuSans-Oblique-75" d="M 428 1388 
L 838 3500 
L 1416 3500 
L 1006 1409 
Q 975 1256 961 1147 
Q 947 1038 947 966 
Q 947 700 1109 554 
Q 1272 409 1569 409 
Q 2031 409 2368 721 
Q 2706 1034 2809 1563 
L 3194 3500 
L 3769 3500 
L 3091 0 
L 2516 0 
L 2631 550 
Q 2388 244 2052 76 
Q 1716 -91 1338 -91 
Q 878 -91 622 161 
Q 366 413 366 863 
Q 366 956 381 1097 
Q 397 1238 428 1388 
z
" transform="scale(0.015625)"/>
       <path id="DejaVuSans-72" d="M 2631 2963 
Q 2534 3019 2420 3045 
Q 2306 3072 2169 3072 
Q 1681 3072 1420 2755 
Q 1159 2438 1159 1844 
L 1159 0 
L 581 0 
L 581 3500 
L 1159 3500 
L 1159 2956 
Q 1341 3275 1631 3429 
Q 1922 3584 2338 3584 
Q 2397 3584 2469 3576 
Q 2541 3569 2628 3553 
L 2631 2963 
z
" transform="scale(0.015625)"/>
      </defs>
      <use xlink:href="#DejaVuSans-Oblique-75" transform="translate(0 0.015625)"/>
      <use xlink:href="#DejaVuSans-20" transform="translate(63.378906 0.015625)"/>
      <use xlink:href="#DejaVuSans-2d" transform="translate(95.166016 0.015625)"/>
      <use xlink:href="#DejaVuSans-20" transform="translate(131.25 0.015625)"/>
      <use xlink:href="#DejaVuSans-63" transform="translate(163.037109 0.015625)"/>
      <use xlink:href="#DejaVuSans-6f" transform="translate(218.017578 0.015625)"/>
      <use xlink:href="#DejaVuSans-6e" transform="translate(279.199219 0.015625)"/>
      <use xlink:href="#DejaVuSans-74" transform="translate(342.578125 0.015625)"/>
      <use xlink:href="#DejaVuSans-72" transform="translate(381.787109 0.015625)"/>
      <use xlink:href="#DejaVuSans-6f" transform="translate(422.900391 0.015625)"/>
      <use xlink:href="#DejaVuSans-6c" transform="translate(484.082031 0.015625)"/>
     </g>
    </g>
   </g>
  </g>
 </g>
 <defs>
  <clipPath id="p46a8436fdd">
   <rect x="43.78125" y="8.249471" width="502.2" height="166.32"/>
  </clipPath>
 </defs>
</svg>
