<?xml version="1.0" encoding="utf-8" standalone="no"?>
<!DOCTYPE svg PUBLIC "-//W3C//DTD SVG 1.1//EN"
  "http://www.w3.org/Graphics/SVG/1.1/DTD/svg11.dtd">
<svg xmlns:xlink="http://www.w3.org/1999/xlink" width="553.18125pt" height="211.07625pt" viewBox="0 0 553.18125 211.07625" xmlns="http://www.w3.org/2000/svg" version="1.1">
 <metadata>
  <rdf:RDF xmlns:dc="http://purl.org/dc/elements/1.1/" xmlns:cc="http://creativecommons.org/ns#" xmlns:rdf="http://www.w3.org/1999/02/22-rdf-syntax-ns#">
   <cc:Work>
    <dc:type rdf:resource="http://purl.org/dc/dcmitype/StillImage"/>
    <dc:date>2025-05-28T16:22:13.833873</dc:date>
    <dc:format>image/svg+xml</dc:format>
    <dc:creator>
     <cc:Agent>
      <dc:title>Matplotlib v3.6.3, https://matplotlib.org/</dc:title>
     </cc:Agent>
    </dc:creator>
   </cc:Work>
  </rdf:RDF>
 </metadata>
 <defs>
  <style type="text/css">*{stroke-linejoin: round; stroke-linecap: butt}</style>
 </defs>
 <g id="figure_1">
  <g id="patch_1">
   <path d="M 0 211.07625 
L 553.18125 211.07625 
L 553.18125 0 
L 0 0 
z
" style="fill: #ffffff"/>
  </g>
  <g id="axes_1">
   <g id="patch_2">
    <path d="M 43.78125 173.52 
L 545.98125 173.52 
L 545.98125 7.2 
L 43.78125 7.2 
z
" style="fill: #ffffff"/>
   </g>
   <g id="matplotlib.axis_1">
    <g id="xtick_1">
     <g id="line2d_1">
      <defs>
       <path id="m2265abd559" d="M 0 0 
L 0 3.5 
" style="stroke: #000000; stroke-width: 0.8"/>
      </defs>
      <g>
       <use xlink:href="#m2265abd559" x="66.608523" y="173.52" style="stroke: #000000; stroke-width: 0.8"/>
      </g>
     </g>
     <g id="text_1">
      <!-- 0 -->
      <g transform="translate(63.427273 188.118438) scale(0.1 -0.1)">
       <defs>
        <path id="DejaVuSans-30" d="M 2034 4250 
Q 1547 4250 1301 3770 
Q 1056 3291 1056 2328 
Q 1056 1369 1301 889 
Q 1547 409 2034 409 
Q 2525 409 2770 889 
Q 3016 1369 3016 2328 
Q 3016 3291 2770 3770 
Q 2525 4250 2034 4250 
z
M 2034 4750 
Q 2819 4750 3233 4129 
Q 3647 3509 3647 2328 
Q 3647 1150 3233 529 
Q 2819 -91 2034 -91 
Q 1250 -91 836 529 
Q 422 1150 422 2328 
Q 422 3509 836 4129 
Q 1250 4750 2034 4750 
z
" transform="scale(0.015625)"/>
       </defs>
       <use xlink:href="#DejaVuSans-30"/>
      </g>
     </g>
    </g>
    <g id="xtick_2">
     <g id="line2d_2">
      <g>
       <use xlink:href="#m2265abd559" x="142.953916" y="173.52" style="stroke: #000000; stroke-width: 0.8"/>
      </g>
     </g>
     <g id="text_2">
      <!-- 50 -->
      <g transform="translate(136.591416 188.118438) scale(0.1 -0.1)">
       <defs>
        <path id="DejaVuSans-35" d="M 691 4666 
L 3169 4666 
L 3169 4134 
L 1269 4134 
L 1269 2991 
Q 1406 3038 1543 3061 
Q 1681 3084 1819 3084 
Q 2600 3084 3056 2656 
Q 3513 2228 3513 1497 
Q 3513 744 3044 326 
Q 2575 -91 1722 -91 
Q 1428 -91 1123 -41 
Q 819 9 494 109 
L 494 744 
Q 775 591 1075 516 
Q 1375 441 1709 441 
Q 2250 441 2565 725 
Q 2881 1009 2881 1497 
Q 2881 1984 2565 2268 
Q 2250 2553 1709 2553 
Q 1456 2553 1204 2497 
Q 953 2441 691 2322 
L 691 4666 
z
" transform="scale(0.015625)"/>
       </defs>
       <use xlink:href="#DejaVuSans-35"/>
       <use xlink:href="#DejaVuSans-30" x="63.623047"/>
      </g>
     </g>
    </g>
    <g id="xtick_3">
     <g id="line2d_3">
      <g>
       <use xlink:href="#m2265abd559" x="219.29931" y="173.52" style="stroke: #000000; stroke-width: 0.8"/>
      </g>
     </g>
     <g id="text_3">
      <!-- 100 -->
      <g transform="translate(209.75556 188.118438) scale(0.1 -0.1)">
       <defs>
        <path id="DejaVuSans-31" d="M 794 531 
L 1825 531 
L 1825 4091 
L 703 3866 
L 703 4441 
L 1819 4666 
L 2450 4666 
L 2450 531 
L 3481 531 
L 3481 0 
L 794 0 
L 794 531 
z
" transform="scale(0.015625)"/>
       </defs>
       <use xlink:href="#DejaVuSans-31"/>
       <use xlink:href="#DejaVuSans-30" x="63.623047"/>
       <use xlink:href="#DejaVuSans-30" x="127.246094"/>
      </g>
     </g>
    </g>
    <g id="xtick_4">
     <g id="line2d_4">
      <g>
       <use xlink:href="#m2265abd559" x="295.644704" y="173.52" style="stroke: #000000; stroke-width: 0.8"/>
      </g>
     </g>
     <g id="text_4">
      <!-- 150 -->
      <g transform="translate(286.100954 188.118438) scale(0.1 -0.1)">
       <use xlink:href="#DejaVuSans-31"/>
       <use xlink:href="#DejaVuSans-35" x="63.623047"/>
       <use xlink:href="#DejaVuSans-30" x="127.246094"/>
      </g>
     </g>
    </g>
    <g id="xtick_5">
     <g id="line2d_5">
      <g>
       <use xlink:href="#m2265abd559" x="371.990098" y="173.52" style="stroke: #000000; stroke-width: 0.8"/>
      </g>
     </g>
     <g id="text_5">
      <!-- 200 -->
      <g transform="translate(362.446348 188.118438) scale(0.1 -0.1)">
       <defs>
        <path id="DejaVuSans-32" d="M 1228 531 
L 3431 531 
L 3431 0 
L 469 0 
L 469 531 
Q 828 903 1448 1529 
Q 2069 2156 2228 2338 
Q 2531 2678 2651 2914 
Q 2772 3150 2772 3378 
Q 2772 3750 2511 3984 
Q 2250 4219 1831 4219 
Q 1534 4219 1204 4116 
Q 875 4013 500 3803 
L 500 4441 
Q 881 4594 1212 4672 
Q 1544 4750 1819 4750 
Q 2544 4750 2975 4387 
Q 3406 4025 3406 3419 
Q 3406 3131 3298 2873 
Q 3191 2616 2906 2266 
Q 2828 2175 2409 1742 
Q 1991 1309 1228 531 
z
" transform="scale(0.015625)"/>
       </defs>
       <use xlink:href="#DejaVuSans-32"/>
       <use xlink:href="#DejaVuSans-30" x="63.623047"/>
       <use xlink:href="#DejaVuSans-30" x="127.246094"/>
      </g>
     </g>
    </g>
    <g id="xtick_6">
     <g id="line2d_6">
      <g>
       <use xlink:href="#m2265abd559" x="448.335491" y="173.52" style="stroke: #000000; stroke-width: 0.8"/>
      </g>
     </g>
     <g id="text_6">
      <!-- 250 -->
      <g transform="translate(438.791741 188.118438) scale(0.1 -0.1)">
       <use xlink:href="#DejaVuSans-32"/>
       <use xlink:href="#DejaVuSans-35" x="63.623047"/>
       <use xlink:href="#DejaVuSans-30" x="127.246094"/>
      </g>
     </g>
    </g>
    <g id="xtick_7">
     <g id="line2d_7">
      <g>
       <use xlink:href="#m2265abd559" x="524.680885" y="173.52" style="stroke: #000000; stroke-width: 0.8"/>
      </g>
     </g>
     <g id="text_7">
      <!-- 300 -->
      <g transform="translate(515.137135 188.118438) scale(0.1 -0.1)">
       <defs>
        <path id="DejaVuSans-33" d="M 2597 2516 
Q 3050 2419 3304 2112 
Q 3559 1806 3559 1356 
Q 3559 666 3084 287 
Q 2609 -91 1734 -91 
Q 1441 -91 1130 -33 
Q 819 25 488 141 
L 488 750 
Q 750 597 1062 519 
Q 1375 441 1716 441 
Q 2309 441 2620 675 
Q 2931 909 2931 1356 
Q 2931 1769 2642 2001 
Q 2353 2234 1838 2234 
L 1294 2234 
L 1294 2753 
L 1863 2753 
Q 2328 2753 2575 2939 
Q 2822 3125 2822 3475 
Q 2822 3834 2567 4026 
Q 2313 4219 1838 4219 
Q 1578 4219 1281 4162 
Q 984 4106 628 3988 
L 628 4550 
Q 988 4650 1302 4700 
Q 1616 4750 1894 4750 
Q 2613 4750 3031 4423 
Q 3450 4097 3450 3541 
Q 3450 3153 3228 2886 
Q 3006 2619 2597 2516 
z
" transform="scale(0.015625)"/>
       </defs>
       <use xlink:href="#DejaVuSans-33"/>
       <use xlink:href="#DejaVuSans-30" x="63.623047"/>
       <use xlink:href="#DejaVuSans-30" x="127.246094"/>
      </g>
     </g>
    </g>
    <g id="text_8">
     <!-- time (days) -->
     <g transform="translate(266.292188 201.796563) scale(0.1 -0.1)">
      <defs>
       <path id="DejaVuSans-74" d="M 1172 4494 
L 1172 3500 
L 2356 3500 
L 2356 3053 
L 1172 3053 
L 1172 1153 
Q 1172 725 1289 603 
Q 1406 481 1766 481 
L 2356 481 
L 2356 0 
L 1766 0 
Q 1100 0 847 248 
Q 594 497 594 1153 
L 594 3053 
L 172 3053 
L 172 3500 
L 594 3500 
L 594 4494 
L 1172 4494 
z
" transform="scale(0.015625)"/>
       <path id="DejaVuSans-69" d="M 603 3500 
L 1178 3500 
L 1178 0 
L 603 0 
L 603 3500 
z
M 603 4863 
L 1178 4863 
L 1178 4134 
L 603 4134 
L 603 4863 
z
" transform="scale(0.015625)"/>
       <path id="DejaVuSans-6d" d="M 3328 2828 
Q 3544 3216 3844 3400 
Q 4144 3584 4550 3584 
Q 5097 3584 5394 3201 
Q 5691 2819 5691 2113 
L 5691 0 
L 5113 0 
L 5113 2094 
Q 5113 2597 4934 2840 
Q 4756 3084 4391 3084 
Q 3944 3084 3684 2787 
Q 3425 2491 3425 1978 
L 3425 0 
L 2847 0 
L 2847 2094 
Q 2847 2600 2669 2842 
Q 2491 3084 2119 3084 
Q 1678 3084 1418 2786 
Q 1159 2488 1159 1978 
L 1159 0 
L 581 0 
L 581 3500 
L 1159 3500 
L 1159 2956 
Q 1356 3278 1631 3431 
Q 1906 3584 2284 3584 
Q 2666 3584 2933 3390 
Q 3200 3197 3328 2828 
z
" transform="scale(0.015625)"/>
       <path id="DejaVuSans-65" d="M 3597 1894 
L 3597 1613 
L 953 1613 
Q 991 1019 1311 708 
Q 1631 397 2203 397 
Q 2534 397 2845 478 
Q 3156 559 3463 722 
L 3463 178 
Q 3153 47 2828 -22 
Q 2503 -91 2169 -91 
Q 1331 -91 842 396 
Q 353 884 353 1716 
Q 353 2575 817 3079 
Q 1281 3584 2069 3584 
Q 2775 3584 3186 3129 
Q 3597 2675 3597 1894 
z
M 3022 2063 
Q 3016 2534 2758 2815 
Q 2500 3097 2075 3097 
Q 1594 3097 1305 2825 
Q 1016 2553 972 2059 
L 3022 2063 
z
" transform="scale(0.015625)"/>
       <path id="DejaVuSans-20" transform="scale(0.015625)"/>
       <path id="DejaVuSans-28" d="M 1984 4856 
Q 1566 4138 1362 3434 
Q 1159 2731 1159 2009 
Q 1159 1288 1364 580 
Q 1569 -128 1984 -844 
L 1484 -844 
Q 1016 -109 783 600 
Q 550 1309 550 2009 
Q 550 2706 781 3412 
Q 1013 4119 1484 4856 
L 1984 4856 
z
" transform="scale(0.015625)"/>
       <path id="DejaVuSans-64" d="M 2906 2969 
L 2906 4863 
L 3481 4863 
L 3481 0 
L 2906 0 
L 2906 525 
Q 2725 213 2448 61 
Q 2172 -91 1784 -91 
Q 1150 -91 751 415 
Q 353 922 353 1747 
Q 353 2572 751 3078 
Q 1150 3584 1784 3584 
Q 2172 3584 2448 3432 
Q 2725 3281 2906 2969 
z
M 947 1747 
Q 947 1113 1208 752 
Q 1469 391 1925 391 
Q 2381 391 2643 752 
Q 2906 1113 2906 1747 
Q 2906 2381 2643 2742 
Q 2381 3103 1925 3103 
Q 1469 3103 1208 2742 
Q 947 2381 947 1747 
z
" transform="scale(0.015625)"/>
       <path id="DejaVuSans-61" d="M 2194 1759 
Q 1497 1759 1228 1600 
Q 959 1441 959 1056 
Q 959 750 1161 570 
Q 1363 391 1709 391 
Q 2188 391 2477 730 
Q 2766 1069 2766 1631 
L 2766 1759 
L 2194 1759 
z
M 3341 1997 
L 3341 0 
L 2766 0 
L 2766 531 
Q 2569 213 2275 61 
Q 1981 -91 1556 -91 
Q 1019 -91 701 211 
Q 384 513 384 1019 
Q 384 1609 779 1909 
Q 1175 2209 1959 2209 
L 2766 2209 
L 2766 2266 
Q 2766 2663 2505 2880 
Q 2244 3097 1772 3097 
Q 1472 3097 1187 3025 
Q 903 2953 641 2809 
L 641 3341 
Q 956 3463 1253 3523 
Q 1550 3584 1831 3584 
Q 2591 3584 2966 3190 
Q 3341 2797 3341 1997 
z
" transform="scale(0.015625)"/>
       <path id="DejaVuSans-79" d="M 2059 -325 
Q 1816 -950 1584 -1140 
Q 1353 -1331 966 -1331 
L 506 -1331 
L 506 -850 
L 844 -850 
Q 1081 -850 1212 -737 
Q 1344 -625 1503 -206 
L 1606 56 
L 191 3500 
L 800 3500 
L 1894 763 
L 2988 3500 
L 3597 3500 
L 2059 -325 
z
" transform="scale(0.015625)"/>
       <path id="DejaVuSans-73" d="M 2834 3397 
L 2834 2853 
Q 2591 2978 2328 3040 
Q 2066 3103 1784 3103 
Q 1356 3103 1142 2972 
Q 928 2841 928 2578 
Q 928 2378 1081 2264 
Q 1234 2150 1697 2047 
L 1894 2003 
Q 2506 1872 2764 1633 
Q 3022 1394 3022 966 
Q 3022 478 2636 193 
Q 2250 -91 1575 -91 
Q 1294 -91 989 -36 
Q 684 19 347 128 
L 347 722 
Q 666 556 975 473 
Q 1284 391 1588 391 
Q 1994 391 2212 530 
Q 2431 669 2431 922 
Q 2431 1156 2273 1281 
Q 2116 1406 1581 1522 
L 1381 1569 
Q 847 1681 609 1914 
Q 372 2147 372 2553 
Q 372 3047 722 3315 
Q 1072 3584 1716 3584 
Q 2034 3584 2315 3537 
Q 2597 3491 2834 3397 
z
" transform="scale(0.015625)"/>
       <path id="DejaVuSans-29" d="M 513 4856 
L 1013 4856 
Q 1481 4119 1714 3412 
Q 1947 2706 1947 2009 
Q 1947 1309 1714 600 
Q 1481 -109 1013 -844 
L 513 -844 
Q 928 -128 1133 580 
Q 1338 1288 1338 2009 
Q 1338 2731 1133 3434 
Q 928 4138 513 4856 
z
" transform="scale(0.015625)"/>
      </defs>
      <use xlink:href="#DejaVuSans-74"/>
      <use xlink:href="#DejaVuSans-69" x="39.208984"/>
      <use xlink:href="#DejaVuSans-6d" x="66.992188"/>
      <use xlink:href="#DejaVuSans-65" x="164.404297"/>
      <use xlink:href="#DejaVuSans-20" x="225.927734"/>
      <use xlink:href="#DejaVuSans-28" x="257.714844"/>
      <use xlink:href="#DejaVuSans-64" x="296.728516"/>
      <use xlink:href="#DejaVuSans-61" x="360.205078"/>
      <use xlink:href="#DejaVuSans-79" x="421.484375"/>
      <use xlink:href="#DejaVuSans-73" x="480.664062"/>
      <use xlink:href="#DejaVuSans-29" x="532.763672"/>
     </g>
    </g>
   </g>
   <g id="matplotlib.axis_2">
    <g id="ytick_1">
     <g id="line2d_8">
      <defs>
       <path id="mf3eca14f1f" d="M 0 0 
L -3.5 0 
" style="stroke: #000000; stroke-width: 0.8"/>
      </defs>
      <g>
       <use xlink:href="#mf3eca14f1f" x="43.78125" y="165.962923" style="stroke: #000000; stroke-width: 0.8"/>
      </g>
     </g>
     <g id="text_9">
      <!-- 0.0 -->
      <g transform="translate(20.878125 169.762141) scale(0.1 -0.1)">
       <defs>
        <path id="DejaVuSans-2e" d="M 684 794 
L 1344 794 
L 1344 0 
L 684 0 
L 684 794 
z
" transform="scale(0.015625)"/>
       </defs>
       <use xlink:href="#DejaVuSans-30"/>
       <use xlink:href="#DejaVuSans-2e" x="63.623047"/>
       <use xlink:href="#DejaVuSans-30" x="95.410156"/>
      </g>
     </g>
    </g>
    <g id="ytick_2">
     <g id="line2d_9">
      <g>
       <use xlink:href="#mf3eca14f1f" x="43.78125" y="136.736819" style="stroke: #000000; stroke-width: 0.8"/>
      </g>
     </g>
     <g id="text_10">
      <!-- 0.1 -->
      <g transform="translate(20.878125 140.536038) scale(0.1 -0.1)">
       <use xlink:href="#DejaVuSans-30"/>
       <use xlink:href="#DejaVuSans-2e" x="63.623047"/>
       <use xlink:href="#DejaVuSans-31" x="95.410156"/>
      </g>
     </g>
    </g>
    <g id="ytick_3">
     <g id="line2d_10">
      <g>
       <use xlink:href="#mf3eca14f1f" x="43.78125" y="107.510715" style="stroke: #000000; stroke-width: 0.8"/>
      </g>
     </g>
     <g id="text_11">
      <!-- 0.2 -->
      <g transform="translate(20.878125 111.309934) scale(0.1 -0.1)">
       <use xlink:href="#DejaVuSans-30"/>
       <use xlink:href="#DejaVuSans-2e" x="63.623047"/>
       <use xlink:href="#DejaVuSans-32" x="95.410156"/>
      </g>
     </g>
    </g>
    <g id="ytick_4">
     <g id="line2d_11">
      <g>
       <use xlink:href="#mf3eca14f1f" x="43.78125" y="78.284612" style="stroke: #000000; stroke-width: 0.8"/>
      </g>
     </g>
     <g id="text_12">
      <!-- 0.3 -->
      <g transform="translate(20.878125 82.08383) scale(0.1 -0.1)">
       <use xlink:href="#DejaVuSans-30"/>
       <use xlink:href="#DejaVuSans-2e" x="63.623047"/>
       <use xlink:href="#DejaVuSans-33" x="95.410156"/>
      </g>
     </g>
    </g>
    <g id="ytick_5">
     <g id="line2d_12">
      <g>
       <use xlink:href="#mf3eca14f1f" x="43.78125" y="49.058508" style="stroke: #000000; stroke-width: 0.8"/>
      </g>
     </g>
     <g id="text_13">
      <!-- 0.4 -->
      <g transform="translate(20.878125 52.857727) scale(0.1 -0.1)">
       <defs>
        <path id="DejaVuSans-34" d="M 2419 4116 
L 825 1625 
L 2419 1625 
L 2419 4116 
z
M 2253 4666 
L 3047 4666 
L 3047 1625 
L 3713 1625 
L 3713 1100 
L 3047 1100 
L 3047 0 
L 2419 0 
L 2419 1100 
L 313 1100 
L 313 1709 
L 2253 4666 
z
" transform="scale(0.015625)"/>
       </defs>
       <use xlink:href="#DejaVuSans-30"/>
       <use xlink:href="#DejaVuSans-2e" x="63.623047"/>
       <use xlink:href="#DejaVuSans-34" x="95.410156"/>
      </g>
     </g>
    </g>
    <g id="ytick_6">
     <g id="line2d_13">
      <g>
       <use xlink:href="#mf3eca14f1f" x="43.78125" y="19.832404" style="stroke: #000000; stroke-width: 0.8"/>
      </g>
     </g>
     <g id="text_14">
      <!-- 0.5 -->
      <g transform="translate(20.878125 23.631623) scale(0.1 -0.1)">
       <use xlink:href="#DejaVuSans-30"/>
       <use xlink:href="#DejaVuSans-2e" x="63.623047"/>
       <use xlink:href="#DejaVuSans-35" x="95.410156"/>
      </g>
     </g>
    </g>
    <g id="text_15">
     <!-- Infected Population -->
     <g transform="translate(14.798438 138.656094) rotate(-90) scale(0.1 -0.1)">
      <defs>
       <path id="DejaVuSans-49" d="M 628 4666 
L 1259 4666 
L 1259 0 
L 628 0 
L 628 4666 
z
" transform="scale(0.015625)"/>
       <path id="DejaVuSans-6e" d="M 3513 2113 
L 3513 0 
L 2938 0 
L 2938 2094 
Q 2938 2591 2744 2837 
Q 2550 3084 2163 3084 
Q 1697 3084 1428 2787 
Q 1159 2491 1159 1978 
L 1159 0 
L 581 0 
L 581 3500 
L 1159 3500 
L 1159 2956 
Q 1366 3272 1645 3428 
Q 1925 3584 2291 3584 
Q 2894 3584 3203 3211 
Q 3513 2838 3513 2113 
z
" transform="scale(0.015625)"/>
       <path id="DejaVuSans-66" d="M 2375 4863 
L 2375 4384 
L 1825 4384 
Q 1516 4384 1395 4259 
Q 1275 4134 1275 3809 
L 1275 3500 
L 2222 3500 
L 2222 3053 
L 1275 3053 
L 1275 0 
L 697 0 
L 697 3053 
L 147 3053 
L 147 3500 
L 697 3500 
L 697 3744 
Q 697 4328 969 4595 
Q 1241 4863 1831 4863 
L 2375 4863 
z
" transform="scale(0.015625)"/>
       <path id="DejaVuSans-63" d="M 3122 3366 
L 3122 2828 
Q 2878 2963 2633 3030 
Q 2388 3097 2138 3097 
Q 1578 3097 1268 2742 
Q 959 2388 959 1747 
Q 959 1106 1268 751 
Q 1578 397 2138 397 
Q 2388 397 2633 464 
Q 2878 531 3122 666 
L 3122 134 
Q 2881 22 2623 -34 
Q 2366 -91 2075 -91 
Q 1284 -91 818 406 
Q 353 903 353 1747 
Q 353 2603 823 3093 
Q 1294 3584 2113 3584 
Q 2378 3584 2631 3529 
Q 2884 3475 3122 3366 
z
" transform="scale(0.015625)"/>
       <path id="DejaVuSans-50" d="M 1259 4147 
L 1259 2394 
L 2053 2394 
Q 2494 2394 2734 2622 
Q 2975 2850 2975 3272 
Q 2975 3691 2734 3919 
Q 2494 4147 2053 4147 
L 1259 4147 
z
M 628 4666 
L 2053 4666 
Q 2838 4666 3239 4311 
Q 3641 3956 3641 3272 
Q 3641 2581 3239 2228 
Q 2838 1875 2053 1875 
L 1259 1875 
L 1259 0 
L 628 0 
L 628 4666 
z
" transform="scale(0.015625)"/>
       <path id="DejaVuSans-6f" d="M 1959 3097 
Q 1497 3097 1228 2736 
Q 959 2375 959 1747 
Q 959 1119 1226 758 
Q 1494 397 1959 397 
Q 2419 397 2687 759 
Q 2956 1122 2956 1747 
Q 2956 2369 2687 2733 
Q 2419 3097 1959 3097 
z
M 1959 3584 
Q 2709 3584 3137 3096 
Q 3566 2609 3566 1747 
Q 3566 888 3137 398 
Q 2709 -91 1959 -91 
Q 1206 -91 779 398 
Q 353 888 353 1747 
Q 353 2609 779 3096 
Q 1206 3584 1959 3584 
z
" transform="scale(0.015625)"/>
       <path id="DejaVuSans-70" d="M 1159 525 
L 1159 -1331 
L 581 -1331 
L 581 3500 
L 1159 3500 
L 1159 2969 
Q 1341 3281 1617 3432 
Q 1894 3584 2278 3584 
Q 2916 3584 3314 3078 
Q 3713 2572 3713 1747 
Q 3713 922 3314 415 
Q 2916 -91 2278 -91 
Q 1894 -91 1617 61 
Q 1341 213 1159 525 
z
M 3116 1747 
Q 3116 2381 2855 2742 
Q 2594 3103 2138 3103 
Q 1681 3103 1420 2742 
Q 1159 2381 1159 1747 
Q 1159 1113 1420 752 
Q 1681 391 2138 391 
Q 2594 391 2855 752 
Q 3116 1113 3116 1747 
z
" transform="scale(0.015625)"/>
       <path id="DejaVuSans-75" d="M 544 1381 
L 544 3500 
L 1119 3500 
L 1119 1403 
Q 1119 906 1312 657 
Q 1506 409 1894 409 
Q 2359 409 2629 706 
Q 2900 1003 2900 1516 
L 2900 3500 
L 3475 3500 
L 3475 0 
L 2900 0 
L 2900 538 
Q 2691 219 2414 64 
Q 2138 -91 1772 -91 
Q 1169 -91 856 284 
Q 544 659 544 1381 
z
M 1991 3584 
L 1991 3584 
z
" transform="scale(0.015625)"/>
       <path id="DejaVuSans-6c" d="M 603 4863 
L 1178 4863 
L 1178 0 
L 603 0 
L 603 4863 
z
" transform="scale(0.015625)"/>
      </defs>
      <use xlink:href="#DejaVuSans-49"/>
      <use xlink:href="#DejaVuSans-6e" x="29.492188"/>
      <use xlink:href="#DejaVuSans-66" x="92.871094"/>
      <use xlink:href="#DejaVuSans-65" x="128.076172"/>
      <use xlink:href="#DejaVuSans-63" x="189.599609"/>
      <use xlink:href="#DejaVuSans-74" x="244.580078"/>
      <use xlink:href="#DejaVuSans-65" x="283.789062"/>
      <use xlink:href="#DejaVuSans-64" x="345.3125"/>
      <use xlink:href="#DejaVuSans-20" x="408.789062"/>
      <use xlink:href="#DejaVuSans-50" x="440.576172"/>
      <use xlink:href="#DejaVuSans-6f" x="497.253906"/>
      <use xlink:href="#DejaVuSans-70" x="558.435547"/>
      <use xlink:href="#DejaVuSans-75" x="621.912109"/>
      <use xlink:href="#DejaVuSans-6c" x="685.291016"/>
      <use xlink:href="#DejaVuSans-61" x="713.074219"/>
      <use xlink:href="#DejaVuSans-74" x="774.353516"/>
      <use xlink:href="#DejaVuSans-69" x="813.5625"/>
      <use xlink:href="#DejaVuSans-6f" x="841.345703"/>
      <use xlink:href="#DejaVuSans-6e" x="902.527344"/>
     </g>
    </g>
   </g>
   <g id="line2d_14">
    <path d="M 66.608523 165.96 
L 104.78122 165.852899 
L 116.996483 165.611082 
L 123.104114 165.328124 
L 127.684838 164.964145 
L 132.265561 164.427131 
L 136.846285 163.584937 
L 138.373193 163.226124 
L 141.427009 162.254043 
L 146.007732 160.281709 
L 147.53464 159.334556 
L 149.061548 158.227452 
L 153.642272 154.237412 
L 155.169179 152.64864 
L 158.222995 148.518384 
L 162.803719 141.008137 
L 164.330627 137.8157 
L 165.857535 133.589781 
L 167.384442 129.876554 
L 171.965166 114.127273 
L 173.492074 108.554987 
L 175.018982 102.136961 
L 176.54589 94.77343 
L 178.072798 88.598437 
L 179.599705 80.805142 
L 181.126613 73.699389 
L 182.653521 67.248266 
L 184.180429 60.289299 
L 187.234245 44.885179 
L 190.288061 32.855932 
L 191.814968 26.357758 
L 193.341876 23.441613 
L 194.868784 21.302857 
L 196.395692 20.610279 
L 197.9226 17.549791 
L 199.449508 19.488864 
L 200.976416 17.194997 
L 202.503324 15.397571 
L 204.030231 14.76 
L 205.557139 19.313061 
L 207.084047 19.864002 
L 208.610955 24.575926 
L 210.137863 24.938148 
L 213.191679 31.913459 
L 214.718587 33.144177 
L 216.245494 36.886803 
L 217.772402 41.42759 
L 219.29931 42.898448 
L 220.826218 44.660838 
L 222.353126 47.801382 
L 223.880034 49.68337 
L 225.406942 54.264647 
L 226.93385 59.951253 
L 228.460757 64.608305 
L 229.987665 66.23715 
L 231.514573 70.00649 
L 233.041481 72.677929 
L 236.095297 81.642181 
L 237.622205 85.306097 
L 239.149113 87.578578 
L 240.67602 90.567477 
L 242.202928 91.819074 
L 245.256744 96.757786 
L 246.783652 100.093496 
L 248.31056 103.032996 
L 249.837468 104.91839 
L 251.364376 106.453614 
L 252.891283 107.799487 
L 254.418191 110.230276 
L 255.945099 112.218028 
L 257.472007 113.782016 
L 258.998915 116.450241 
L 260.525823 118.837465 
L 265.106546 122.726572 
L 266.633454 124.647511 
L 269.68727 127.908604 
L 271.214178 128.785201 
L 272.741086 129.851678 
L 274.267994 130.266007 
L 275.794902 131.98821 
L 277.321809 132.680742 
L 278.848717 133.177932 
L 283.429441 136.776607 
L 286.483257 138.756934 
L 288.010165 139.566077 
L 291.06398 140.689217 
L 292.590888 141.696638 
L 294.117796 142.48973 
L 297.171612 143.77731 
L 298.69852 144.564967 
L 300.225428 144.883611 
L 303.279243 146.338162 
L 304.806151 146.619139 
L 306.333059 147.171259 
L 307.859967 147.244863 
L 309.386875 147.898163 
L 312.440691 148.641897 
L 313.967598 148.846735 
L 317.021414 149.609179 
L 318.548322 149.82055 
L 320.07523 149.823386 
L 321.602138 150.333773 
L 324.655954 150.605127 
L 326.182861 151.111883 
L 327.709769 151.132307 
L 330.763585 151.658469 
L 335.344309 152.231214 
L 338.398124 152.495739 
L 341.45194 152.928717 
L 344.505756 153.554331 
L 346.032664 153.473785 
L 347.559572 153.792352 
L 349.08648 153.936566 
L 352.140295 153.70299 
L 353.667203 153.949593 
L 355.194111 153.879745 
L 356.721019 154.082061 
L 359.774835 153.882144 
L 361.301743 153.972285 
L 365.882466 153.686944 
L 367.409374 153.526338 
L 368.936282 153.596568 
L 370.46319 153.812259 
L 371.990098 153.853661 
L 373.517006 154.120971 
L 381.151545 154.184018 
L 384.205361 154.537704 
L 387.259176 154.790632 
L 388.786084 154.679359 
L 390.312992 154.791616 
L 397.947532 154.716537 
L 405.582071 153.939008 
L 408.635887 154.151429 
L 410.162795 154.076225 
L 411.689702 154.183138 
L 413.21661 154.029642 
L 416.270426 153.920266 
L 417.797334 153.795279 
L 419.324242 153.502467 
L 422.378058 153.28771 
L 423.904965 153.364793 
L 425.431873 153.193232 
L 428.485689 153.212063 
L 436.120228 153.241659 
L 437.647136 152.965284 
L 440.700952 153.065113 
L 443.754768 152.395915 
L 445.281676 152.508914 
L 446.808584 152.153238 
L 448.335491 152.277009 
L 449.862399 151.913834 
L 451.389307 151.837099 
L 452.916215 151.464737 
L 454.443123 151.32076 
L 455.970031 150.947926 
L 462.077662 150.103427 
L 465.131478 149.579608 
L 466.658386 149.637029 
L 469.712202 148.95899 
L 471.23911 148.958615 
L 474.292925 148.153101 
L 475.819833 148.036163 
L 477.346741 147.554073 
L 480.400557 147.180504 
L 481.927465 147.270851 
L 483.454373 146.904786 
L 489.562004 146.961183 
L 491.088912 147.074486 
L 492.61582 146.554834 
L 494.142728 146.21097 
L 495.669636 146.241132 
L 497.196543 145.772486 
L 498.723451 145.89751 
L 500.250359 145.599753 
L 501.777267 145.783715 
L 503.304175 145.77058 
L 504.831083 145.950151 
L 506.357991 145.633429 
L 507.884899 145.84802 
L 509.411806 145.699414 
L 510.938714 145.3604 
L 513.99253 145.605571 
L 515.519438 145.575186 
L 517.046346 145.830793 
L 520.100162 145.05544 
L 521.627069 145.000986 
L 523.153977 145.170283 
L 523.153977 145.170283 
" clip-path="url(#p4e8ca7eadd)" style="fill: none; stroke: #1f77b4; stroke-width: 3; stroke-linecap: square"/>
   </g>
   <g id="line2d_15">
    <path d="M 66.608523 165.96 
L 104.78122 165.852899 
L 116.996483 165.611082 
L 123.104114 165.328124 
L 127.684838 164.964145 
L 132.265561 164.427131 
L 136.846285 163.584937 
L 138.373193 163.226124 
L 141.427009 162.254043 
L 146.007732 160.281709 
L 147.53464 159.334556 
L 149.061548 158.227452 
L 153.642272 154.237412 
L 155.169179 152.64864 
L 158.222995 148.518384 
L 162.803719 141.008137 
L 164.330627 137.8157 
L 165.857535 133.589781 
L 167.384442 129.876554 
L 171.965166 114.127273 
L 173.492074 108.554987 
L 175.018982 102.136961 
L 176.54589 94.77343 
L 178.072798 88.598437 
L 179.599705 80.805142 
L 181.126613 73.699389 
L 182.653521 67.248266 
L 184.180429 60.289299 
L 187.234245 44.885179 
L 190.288061 32.855932 
L 191.814968 26.357758 
L 193.341876 23.441613 
L 194.868784 21.302857 
L 196.395692 20.610279 
L 197.9226 17.549791 
L 199.449508 19.488864 
L 200.976416 17.194997 
L 202.503324 15.397571 
L 204.030231 14.76 
L 205.557139 19.313061 
L 207.084047 19.864002 
L 208.610955 24.575926 
L 210.137863 24.938148 
L 213.191679 31.913459 
L 214.718587 33.144177 
L 216.245494 36.886803 
L 217.772402 41.42759 
L 219.29931 42.898448 
L 220.826218 44.660838 
L 222.353126 47.801382 
L 223.880034 49.68337 
L 225.406942 54.264647 
L 226.93385 59.951253 
L 228.460757 64.608305 
L 229.987665 66.23715 
L 231.514573 70.00649 
L 233.041481 72.677929 
L 236.095297 81.642181 
L 237.622205 85.306097 
L 239.149113 87.578578 
L 240.67602 90.567477 
L 242.202928 91.819074 
L 245.256744 96.757786 
L 246.783652 100.093496 
L 248.31056 103.032996 
L 249.837468 104.91839 
L 251.364376 106.453614 
L 252.891283 107.799487 
L 254.418191 110.230276 
L 255.945099 112.218028 
L 257.472007 113.782016 
L 258.998915 116.450241 
L 260.525823 118.837465 
L 265.106546 122.726572 
L 266.633454 124.647511 
L 269.68727 127.908604 
L 271.214178 128.785201 
L 272.741086 129.851678 
L 274.267994 130.266007 
L 275.794902 131.98821 
L 277.321809 132.680742 
L 278.848717 133.177932 
L 283.429441 136.776607 
L 286.483257 138.756934 
L 288.010165 139.566077 
L 291.06398 140.689217 
L 292.590888 141.696638 
L 294.117796 142.48973 
L 297.171612 143.77731 
L 298.69852 144.564967 
L 300.225428 144.883611 
L 303.279243 146.338162 
L 304.806151 146.619139 
L 306.333059 147.171259 
L 307.859967 147.244863 
L 309.386875 147.898163 
L 312.440691 148.641897 
L 313.967598 148.846735 
L 317.021414 149.609179 
L 318.548322 149.82055 
L 320.07523 149.823386 
L 321.602138 150.333773 
L 324.655954 150.605127 
L 326.182861 151.111883 
L 327.709769 151.132307 
L 330.763585 151.658469 
L 335.344309 152.231214 
L 338.398124 152.495739 
L 341.45194 152.928717 
L 344.505756 153.554331 
L 346.032664 153.473785 
L 347.559572 153.792352 
L 349.08648 153.936566 
L 352.140295 153.70299 
L 353.667203 153.949593 
L 355.194111 153.879745 
L 356.721019 154.082061 
L 359.774835 153.882144 
L 361.301743 153.972285 
L 365.882466 153.686944 
L 367.409374 153.526338 
L 368.936282 153.596568 
L 370.46319 153.812259 
L 371.990098 153.853661 
L 373.517006 154.120971 
L 381.151545 154.184018 
L 384.205361 154.537704 
L 387.259176 154.790632 
L 388.786084 154.679359 
L 390.312992 154.791616 
L 397.947532 154.716537 
L 405.582071 153.939008 
L 408.635887 154.151429 
L 410.162795 154.076225 
L 411.689702 154.183138 
L 413.21661 154.029642 
L 416.270426 153.920266 
L 417.797334 153.795279 
L 419.324242 153.502467 
L 422.378058 153.28771 
L 423.904965 153.364793 
L 425.431873 153.193232 
L 428.485689 153.212063 
L 436.120228 153.241659 
L 437.647136 152.965284 
L 440.700952 153.065113 
L 443.754768 152.395915 
L 445.281676 152.508914 
L 446.808584 152.153238 
L 448.335491 152.277009 
L 449.862399 151.913834 
L 451.389307 151.837099 
L 452.916215 151.464737 
L 454.443123 151.32076 
L 455.970031 150.947926 
L 462.077662 150.103427 
L 465.131478 149.579608 
L 466.658386 149.637029 
L 469.712202 148.95899 
L 471.23911 148.958615 
L 474.292925 148.153101 
L 475.819833 148.036163 
L 477.346741 147.554073 
L 480.400557 147.180504 
L 481.927465 147.270851 
L 483.454373 146.904786 
L 489.562004 146.961183 
L 491.088912 147.074486 
L 492.61582 146.554834 
L 494.142728 146.21097 
L 495.669636 146.241132 
L 497.196543 145.772486 
L 498.723451 145.89751 
L 500.250359 145.599753 
L 501.777267 145.783715 
L 503.304175 145.77058 
L 504.831083 145.950151 
L 506.357991 145.633429 
L 507.884899 145.84802 
L 509.411806 145.699414 
L 510.938714 145.3604 
L 513.99253 145.605571 
L 515.519438 145.575186 
L 517.046346 145.830793 
L 520.100162 145.05544 
L 521.627069 145.000986 
L 521.627069 145.000986 
" clip-path="url(#p4e8ca7eadd)" style="fill: none; stroke-dasharray: 5.55,2.4; stroke-dashoffset: 0; stroke: #000000; stroke-width: 1.5"/>
   </g>
   <g id="line2d_16">
    <path d="M 66.608523 165.550574 
L 68.135431 157.770074 
L 69.662338 156.390611 
L 71.189246 159.69516 
L 72.716154 156.644766 
L 74.243062 164.965432 
L 75.76997 158.313607 
L 77.296878 160.069046 
L 78.823786 160.590001 
L 80.350694 157.653475 
L 81.877601 164.326116 
L 83.404509 154.619576 
L 84.931417 162.134898 
L 86.458325 156.695428 
L 87.985233 154.505123 
L 89.512141 158.845799 
L 91.039049 158.692832 
L 92.565957 159.037369 
L 94.092864 161.494255 
L 95.619772 156.762111 
L 97.14668 160.791464 
L 98.673588 164.503645 
L 100.200496 157.537154 
L 101.727404 160.441825 
L 103.254312 162.188905 
L 106.308127 160.255986 
L 107.835035 164.335243 
L 109.361943 158.870373 
L 110.888851 159.089974 
L 112.415759 157.542371 
L 113.942667 161.034101 
L 115.469575 155.356514 
L 116.996483 157.149061 
L 118.52339 156.62252 
L 120.050298 163.070122 
L 121.577206 165.298197 
L 123.104114 158.673221 
L 124.631022 164.902986 
L 126.15793 161.821868 
L 127.684838 162.309449 
L 129.211746 155.369188 
L 130.738653 160.266519 
L 132.265561 163.224197 
L 133.792469 161.753898 
L 135.319377 155.802228 
L 136.846285 158.640161 
L 138.373193 165.647651 
L 139.900101 159.692084 
L 141.427009 164.674532 
L 142.953916 158.269865 
L 144.480824 156.109247 
L 146.007732 164.103384 
L 147.53464 164.414403 
L 149.061548 164.479586 
L 150.588456 160.17559 
L 152.115364 154.339799 
L 153.642272 156.496252 
L 155.169179 163.420701 
L 156.696087 156.348665 
L 158.222995 159.188883 
L 159.749903 154.659812 
L 161.276811 154.566338 
L 162.803719 157.964255 
L 164.330627 165.335387 
L 165.857535 155.955379 
L 167.384442 165.002514 
L 168.91135 158.764101 
L 170.438258 163.115584 
L 171.965166 158.939149 
L 175.018982 164.511785 
L 176.54589 157.949827 
L 178.072798 163.96513 
L 179.599705 160.900991 
L 181.126613 159.023128 
L 182.653521 161.306723 
L 184.180429 164.699522 
L 185.707337 164.221512 
L 187.234245 161.181873 
L 190.288061 165.376016 
L 191.814968 159.117375 
L 193.341876 159.212328 
L 194.868784 157.898292 
L 196.395692 164.182143 
L 197.9226 155.591191 
L 199.449508 165.254143 
L 200.976416 165.327852 
L 202.503324 164.05453 
L 204.030231 154.940684 
L 205.557139 163.472511 
L 207.084047 155.859872 
L 208.610955 165.174011 
L 210.137863 159.366681 
L 211.664771 159.427643 
L 213.191679 164.704967 
L 214.718587 159.523232 
L 216.245494 157.806065 
L 217.772402 164.920044 
L 219.29931 164.429556 
L 220.826218 161.263291 
L 222.353126 164.364242 
L 223.880034 157.667225 
L 225.406942 154.445019 
L 226.93385 156.603256 
L 228.460757 164.839637 
L 229.987665 158.565087 
L 231.514573 161.538853 
L 233.041481 156.11211 
L 234.568389 154.583796 
L 236.095297 157.08878 
L 237.622205 161.566268 
L 239.149113 158.65879 
L 240.67602 164.946973 
L 242.202928 160.011521 
L 243.729836 159.742112 
L 245.256744 155.660469 
L 246.783652 156.676789 
L 248.31056 160.927687 
L 249.837468 162.292209 
L 251.364376 162.986989 
L 252.891283 157.333801 
L 255.945099 160.935572 
L 257.472007 154.435906 
L 258.998915 155.226313 
L 260.525823 161.204567 
L 262.052731 160.803261 
L 263.579639 160.705356 
L 265.106546 156.039952 
L 266.633454 157.033758 
L 268.160362 157.231522 
L 269.68727 162.043989 
L 271.214178 160.303457 
L 272.741086 165.243556 
L 274.267994 154.404576 
L 275.794902 162.45522 
L 277.321809 163.950871 
L 278.848717 157.376794 
L 280.375625 158.084465 
L 281.902533 155.580648 
L 283.429441 157.837913 
L 284.956349 157.725422 
L 286.483257 159.020743 
L 288.010165 161.663977 
L 289.537072 160.867043 
L 291.06398 155.736367 
L 292.590888 157.723491 
L 294.117796 159.056825 
L 295.644704 158.896345 
L 297.171612 156.556456 
L 298.69852 162.463802 
L 300.225428 156.580862 
L 301.752335 156.168482 
L 303.279243 162.274832 
L 304.806151 157.995776 
L 306.333059 165.071364 
L 307.859967 155.893007 
L 309.386875 159.707924 
L 310.913783 159.953884 
L 312.440691 162.268842 
L 313.967598 158.33033 
L 315.494506 159.582921 
L 317.021414 161.575785 
L 318.548322 165.177273 
L 320.07523 155.861947 
L 321.602138 163.448995 
L 323.129046 161.296103 
L 324.655954 155.089739 
L 326.182861 164.208356 
L 327.709769 158.856133 
L 329.236677 159.530205 
L 330.763585 160.036976 
L 332.290493 159.240759 
L 333.817401 161.210841 
L 335.344309 161.47198 
L 336.871217 160.48545 
L 338.398124 159.1996 
L 339.925032 158.452574 
L 341.45194 155.140525 
L 342.978848 157.301294 
L 344.505756 165.032119 
L 346.032664 155.556934 
L 347.559572 159.427241 
L 349.08648 165.546414 
L 350.613387 165.516995 
L 352.140295 156.647726 
L 353.667203 164.107936 
L 355.194111 157.397007 
L 356.721019 165.132387 
L 358.247927 163.997552 
L 359.774835 159.762499 
L 361.301743 163.28608 
L 365.882466 165.323972 
L 367.409374 159.743937 
L 368.936282 156.1933 
L 370.46319 160.192236 
L 371.990098 154.633337 
L 373.517006 160.871105 
L 375.043913 162.231788 
L 376.570821 157.423544 
L 378.097729 160.12999 
L 379.624637 161.704011 
L 381.151545 154.775563 
L 382.678453 157.247055 
L 384.205361 157.131281 
L 385.732269 156.830298 
L 387.259176 162.997837 
L 388.786084 157.081609 
L 390.312992 160.124752 
L 391.8399 161.74452 
L 393.366808 156.767093 
L 394.893716 159.01294 
L 396.420624 162.875104 
L 397.947532 163.549462 
L 399.474439 160.974855 
L 401.001347 163.673995 
L 402.528255 164.383325 
L 404.055163 163.368492 
L 405.582071 156.553725 
L 407.108979 156.193491 
L 408.635887 160.712653 
L 410.162795 156.14659 
L 411.689702 162.508776 
L 413.21661 158.698184 
L 414.743518 161.159079 
L 416.270426 161.515431 
L 417.797334 165.446118 
L 419.324242 162.068895 
L 420.85115 159.580052 
L 422.378058 156.444362 
L 423.904965 162.142388 
L 425.431873 157.168093 
L 426.958781 158.552426 
L 428.485689 158.355646 
L 430.012597 159.549237 
L 431.539505 158.652252 
L 433.066413 157.550753 
L 434.593321 154.650697 
L 436.120228 164.077002 
L 437.647136 155.894246 
L 439.174044 157.16353 
L 440.700952 165.6119 
L 442.22786 164.477072 
L 443.754768 155.057655 
L 445.281676 165.179598 
L 446.808584 154.794753 
L 448.335491 165.135009 
L 449.862399 158.940441 
L 451.389307 165.017305 
L 452.916215 160.186081 
L 454.443123 164.700528 
L 455.970031 160.878382 
L 457.496939 159.743956 
L 459.023847 160.569199 
L 460.550754 163.767083 
L 462.077662 161.446531 
L 463.60457 162.470886 
L 465.131478 156.137636 
L 466.658386 164.120257 
L 468.185294 162.215918 
L 469.712202 157.167146 
L 471.23911 164.428105 
L 472.766017 163.595593 
L 474.292925 159.101612 
L 475.819833 165.056751 
L 477.346741 159.633756 
L 478.873649 160.715271 
L 480.400557 155.850617 
L 481.927465 163.004768 
L 483.454373 157.185614 
L 484.98128 157.354806 
L 486.508188 155.472028 
L 488.035096 158.512114 
L 489.562004 155.669044 
L 491.088912 165.478404 
L 492.61582 162.640723 
L 494.142728 157.046156 
L 495.669636 164.470527 
L 497.196543 155.748322 
L 498.723451 161.931998 
L 500.250359 154.990028 
L 501.777267 157.858513 
L 503.304175 155.104845 
L 504.831083 162.364628 
L 506.357991 154.687511 
L 507.884899 159.967658 
L 509.411806 162.731485 
L 510.938714 155.756283 
L 512.465622 156.545985 
L 513.99253 158.385449 
L 515.519438 154.319127 
L 517.046346 163.363582 
L 518.573254 163.851543 
L 520.100162 158.843523 
L 521.627069 155.759588 
L 523.153977 164.128251 
L 523.153977 164.128251 
" clip-path="url(#p4e8ca7eadd)" style="fill: none; stroke: #ff7f0e; stroke-opacity: 0.5; stroke-width: 1.5; stroke-linecap: square"/>
   </g>
   <g id="patch_3">
    <path d="M 43.78125 173.52 
L 43.78125 7.2 
" style="fill: none; stroke: #000000; stroke-width: 0.8; stroke-linejoin: miter; stroke-linecap: square"/>
   </g>
   <g id="patch_4">
    <path d="M 545.98125 173.52 
L 545.98125 7.2 
" style="fill: none; stroke: #000000; stroke-width: 0.8; stroke-linejoin: miter; stroke-linecap: square"/>
   </g>
   <g id="patch_5">
    <path d="M 43.78125 173.52 
L 545.98125 173.52 
" style="fill: none; stroke: #000000; stroke-width: 0.8; stroke-linejoin: miter; stroke-linecap: square"/>
   </g>
   <g id="patch_6">
    <path d="M 43.78125 7.2 
L 545.98125 7.2 
" style="fill: none; stroke: #000000; stroke-width: 0.8; stroke-linejoin: miter; stroke-linecap: square"/>
   </g>
   <g id="legend_1">
    <g id="patch_7">
     <path d="M 455.78125 60.75625 
L 538.98125 60.75625 
Q 540.98125 60.75625 540.98125 58.75625 
L 540.98125 14.2 
Q 540.98125 12.2 538.98125 12.2 
L 455.78125 12.2 
Q 453.78125 12.2 453.78125 14.2 
L 453.78125 58.75625 
Q 453.78125 60.75625 455.78125 60.75625 
z
" style="fill: #ffffff; opacity: 0.8; stroke: #cccccc; stroke-linejoin: miter"/>
    </g>
    <g id="line2d_17">
     <path d="M 457.78125 20.298438 
L 467.78125 20.298438 
L 477.78125 20.298438 
" style="fill: none; stroke: #1f77b4; stroke-width: 3; stroke-linecap: square"/>
    </g>
    <g id="text_16">
     <!-- $I$ - Exact -->
     <g transform="translate(485.78125 23.798438) scale(0.1 -0.1)">
      <defs>
       <path id="DejaVuSans-Oblique-49" d="M 1081 4666 
L 1716 4666 
L 806 0 
L 172 0 
L 1081 4666 
z
" transform="scale(0.015625)"/>
       <path id="DejaVuSans-2d" d="M 313 2009 
L 1997 2009 
L 1997 1497 
L 313 1497 
L 313 2009 
z
" transform="scale(0.015625)"/>
       <path id="DejaVuSans-45" d="M 628 4666 
L 3578 4666 
L 3578 4134 
L 1259 4134 
L 1259 2753 
L 3481 2753 
L 3481 2222 
L 1259 2222 
L 1259 531 
L 3634 531 
L 3634 0 
L 628 0 
L 628 4666 
z
" transform="scale(0.015625)"/>
       <path id="DejaVuSans-78" d="M 3513 3500 
L 2247 1797 
L 3578 0 
L 2900 0 
L 1881 1375 
L 863 0 
L 184 0 
L 1544 1831 
L 300 3500 
L 978 3500 
L 1906 2253 
L 2834 3500 
L 3513 3500 
z
" transform="scale(0.015625)"/>
      </defs>
      <use xlink:href="#DejaVuSans-Oblique-49" transform="translate(0 0.09375)"/>
      <use xlink:href="#DejaVuSans-20" transform="translate(29.492188 0.09375)"/>
      <use xlink:href="#DejaVuSans-2d" transform="translate(61.279297 0.09375)"/>
      <use xlink:href="#DejaVuSans-20" transform="translate(97.363281 0.09375)"/>
      <use xlink:href="#DejaVuSans-45" transform="translate(129.150391 0.09375)"/>
      <use xlink:href="#DejaVuSans-78" transform="translate(192.333984 0.09375)"/>
      <use xlink:href="#DejaVuSans-61" transform="translate(251.513672 0.09375)"/>
      <use xlink:href="#DejaVuSans-63" transform="translate(312.792969 0.09375)"/>
      <use xlink:href="#DejaVuSans-74" transform="translate(367.773438 0.09375)"/>
     </g>
    </g>
    <g id="line2d_18">
     <path d="M 457.78125 36.498438 
L 467.78125 36.498438 
L 477.78125 36.498438 
" style="fill: none; stroke-dasharray: 5.55,2.4; stroke-dashoffset: 0; stroke: #000000; stroke-width: 1.5"/>
    </g>
    <g id="text_17">
     <!-- $\hat{I}$ - Estim. -->
     <g transform="translate(485.78125 39.998438) scale(0.1 -0.1)">
      <defs>
       <path id="DejaVuSans-302" d="M -1831 5119 
L -1369 5119 
L -603 3944 
L -1038 3944 
L -1600 4709 
L -2163 3944 
L -2597 3944 
L -1831 5119 
z
M -1600 3584 
L -1600 3584 
z
" transform="scale(0.015625)"/>
      </defs>
      <use xlink:href="#DejaVuSans-302" transform="translate(42.951172 30.015625)"/>
      <use xlink:href="#DejaVuSans-Oblique-49" transform="translate(0 0.609375)"/>
      <use xlink:href="#DejaVuSans-20" transform="translate(29.492188 0.609375)"/>
      <use xlink:href="#DejaVuSans-2d" transform="translate(61.279297 0.609375)"/>
      <use xlink:href="#DejaVuSans-20" transform="translate(97.363281 0.609375)"/>
      <use xlink:href="#DejaVuSans-45" transform="translate(129.150391 0.609375)"/>
      <use xlink:href="#DejaVuSans-73" transform="translate(192.333984 0.609375)"/>
      <use xlink:href="#DejaVuSans-74" transform="translate(244.433594 0.609375)"/>
      <use xlink:href="#DejaVuSans-69" transform="translate(283.642578 0.609375)"/>
      <use xlink:href="#DejaVuSans-6d" transform="translate(311.425781 0.609375)"/>
      <use xlink:href="#DejaVuSans-2e" transform="translate(408.837891 0.609375)"/>
     </g>
    </g>
    <g id="line2d_19">
     <path d="M 457.78125 51.176563 
L 467.78125 51.176563 
L 477.78125 51.176563 
" style="fill: none; stroke: #ff7f0e; stroke-opacity: 0.5; stroke-width: 1.5; stroke-linecap: square"/>
    </g>
    <g id="text_18">
     <!-- $u$ - control -->
     <g transform="translate(485.78125 54.676563) scale(0.1 -0.1)">
      <defs>
       <path id="DejaVuSans-Oblique-75" d="M 428 1388 
L 838 3500 
L 1416 3500 
L 1006 1409 
Q 975 1256 961 1147 
Q 947 1038 947 966 
Q 947 700 1109 554 
Q 1272 409 1569 409 
Q 2031 409 2368 721 
Q 2706 1034 2809 1563 
L 3194 3500 
L 3769 3500 
L 3091 0 
L 2516 0 
L 2631 550 
Q 2388 244 2052 76 
Q 1716 -91 1338 -91 
Q 878 -91 622 161 
Q 366 413 366 863 
Q 366 956 381 1097 
Q 397 1238 428 1388 
z
" transform="scale(0.015625)"/>
       <path id="DejaVuSans-72" d="M 2631 2963 
Q 2534 3019 2420 3045 
Q 2306 3072 2169 3072 
Q 1681 3072 1420 2755 
Q 1159 2438 1159 1844 
L 1159 0 
L 581 0 
L 581 3500 
L 1159 3500 
L 1159 2956 
Q 1341 3275 1631 3429 
Q 1922 3584 2338 3584 
Q 2397 3584 2469 3576 
Q 2541 3569 2628 3553 
L 2631 2963 
z
" transform="scale(0.015625)"/>
      </defs>
      <use xlink:href="#DejaVuSans-Oblique-75" transform="translate(0 0.015625)"/>
      <use xlink:href="#DejaVuSans-20" transform="translate(63.378906 0.015625)"/>
      <use xlink:href="#DejaVuSans-2d" transform="translate(95.166016 0.015625)"/>
      <use xlink:href="#DejaVuSans-20" transform="translate(131.25 0.015625)"/>
      <use xlink:href="#DejaVuSans-63" transform="translate(163.037109 0.015625)"/>
      <use xlink:href="#DejaVuSans-6f" transform="translate(218.017578 0.015625)"/>
      <use xlink:href="#DejaVuSans-6e" transform="translate(279.199219 0.015625)"/>
      <use xlink:href="#DejaVuSans-74" transform="translate(342.578125 0.015625)"/>
      <use xlink:href="#DejaVuSans-72" transform="translate(381.787109 0.015625)"/>
      <use xlink:href="#DejaVuSans-6f" transform="translate(422.900391 0.015625)"/>
      <use xlink:href="#DejaVuSans-6c" transform="translate(484.082031 0.015625)"/>
     </g>
    </g>
   </g>
  </g>
 </g>
 <defs>
  <clipPath id="p4e8ca7eadd">
   <rect x="43.78125" y="7.2" width="502.2" height="166.32"/>
  </clipPath>
 </defs>
</svg>
