<?xml version="1.0" encoding="utf-8" standalone="no"?>
<!DOCTYPE svg PUBLIC "-//W3C//DTD SVG 1.1//EN"
  "http://www.w3.org/Graphics/SVG/1.1/DTD/svg11.dtd">
<svg xmlns:xlink="http://www.w3.org/1999/xlink" width="608.98125pt" height="266.51625pt" viewBox="0 0 608.98125 266.51625" xmlns="http://www.w3.org/2000/svg" version="1.1">
 <metadata>
  <rdf:RDF xmlns:dc="http://purl.org/dc/elements/1.1/" xmlns:cc="http://creativecommons.org/ns#" xmlns:rdf="http://www.w3.org/1999/02/22-rdf-syntax-ns#">
   <cc:Work>
    <dc:type rdf:resource="http://purl.org/dc/dcmitype/StillImage"/>
    <dc:date>2025-05-28T16:21:55.244530</dc:date>
    <dc:format>image/svg+xml</dc:format>
    <dc:creator>
     <cc:Agent>
      <dc:title>Matplotlib v3.6.3, https://matplotlib.org/</dc:title>
     </cc:Agent>
    </dc:creator>
   </cc:Work>
  </rdf:RDF>
 </metadata>
 <defs>
  <style type="text/css">*{stroke-linejoin: round; stroke-linecap: butt}</style>
 </defs>
 <g id="figure_1">
  <g id="patch_1">
   <path d="M 0 266.51625 
L 608.98125 266.51625 
L 608.98125 0 
L 0 0 
z
" style="fill: #ffffff"/>
  </g>
  <g id="axes_1">
   <g id="patch_2">
    <path d="M 43.78125 228.96 
L 601.78125 228.96 
L 601.78125 7.2 
L 43.78125 7.2 
z
" style="fill: #ffffff"/>
   </g>
   <g id="matplotlib.axis_1">
    <g id="xtick_1">
     <g id="line2d_1">
      <defs>
       <path id="m720623f89d" d="M 0 0 
L 0 3.5 
" style="stroke: #000000; stroke-width: 0.8"/>
      </defs>
      <g>
       <use xlink:href="#m720623f89d" x="69.144886" y="228.96" style="stroke: #000000; stroke-width: 0.8"/>
      </g>
     </g>
     <g id="text_1">
      <!-- 0 -->
      <g transform="translate(65.963636 243.558437) scale(0.1 -0.1)">
       <defs>
        <path id="DejaVuSans-30" d="M 2034 4250 
Q 1547 4250 1301 3770 
Q 1056 3291 1056 2328 
Q 1056 1369 1301 889 
Q 1547 409 2034 409 
Q 2525 409 2770 889 
Q 3016 1369 3016 2328 
Q 3016 3291 2770 3770 
Q 2525 4250 2034 4250 
z
M 2034 4750 
Q 2819 4750 3233 4129 
Q 3647 3509 3647 2328 
Q 3647 1150 3233 529 
Q 2819 -91 2034 -91 
Q 1250 -91 836 529 
Q 422 1150 422 2328 
Q 422 3509 836 4129 
Q 1250 4750 2034 4750 
z
" transform="scale(0.015625)"/>
       </defs>
       <use xlink:href="#DejaVuSans-30"/>
      </g>
     </g>
    </g>
    <g id="xtick_2">
     <g id="line2d_2">
      <g>
       <use xlink:href="#m720623f89d" x="153.973102" y="228.96" style="stroke: #000000; stroke-width: 0.8"/>
      </g>
     </g>
     <g id="text_2">
      <!-- 50 -->
      <g transform="translate(147.610602 243.558437) scale(0.1 -0.1)">
       <defs>
        <path id="DejaVuSans-35" d="M 691 4666 
L 3169 4666 
L 3169 4134 
L 1269 4134 
L 1269 2991 
Q 1406 3038 1543 3061 
Q 1681 3084 1819 3084 
Q 2600 3084 3056 2656 
Q 3513 2228 3513 1497 
Q 3513 744 3044 326 
Q 2575 -91 1722 -91 
Q 1428 -91 1123 -41 
Q 819 9 494 109 
L 494 744 
Q 775 591 1075 516 
Q 1375 441 1709 441 
Q 2250 441 2565 725 
Q 2881 1009 2881 1497 
Q 2881 1984 2565 2268 
Q 2250 2553 1709 2553 
Q 1456 2553 1204 2497 
Q 953 2441 691 2322 
L 691 4666 
z
" transform="scale(0.015625)"/>
       </defs>
       <use xlink:href="#DejaVuSans-35"/>
       <use xlink:href="#DejaVuSans-30" x="63.623047"/>
      </g>
     </g>
    </g>
    <g id="xtick_3">
     <g id="line2d_3">
      <g>
       <use xlink:href="#m720623f89d" x="238.801317" y="228.96" style="stroke: #000000; stroke-width: 0.8"/>
      </g>
     </g>
     <g id="text_3">
      <!-- 100 -->
      <g transform="translate(229.257567 243.558437) scale(0.1 -0.1)">
       <defs>
        <path id="DejaVuSans-31" d="M 794 531 
L 1825 531 
L 1825 4091 
L 703 3866 
L 703 4441 
L 1819 4666 
L 2450 4666 
L 2450 531 
L 3481 531 
L 3481 0 
L 794 0 
L 794 531 
z
" transform="scale(0.015625)"/>
       </defs>
       <use xlink:href="#DejaVuSans-31"/>
       <use xlink:href="#DejaVuSans-30" x="63.623047"/>
       <use xlink:href="#DejaVuSans-30" x="127.246094"/>
      </g>
     </g>
    </g>
    <g id="xtick_4">
     <g id="line2d_4">
      <g>
       <use xlink:href="#m720623f89d" x="323.629532" y="228.96" style="stroke: #000000; stroke-width: 0.8"/>
      </g>
     </g>
     <g id="text_4">
      <!-- 150 -->
      <g transform="translate(314.085782 243.558437) scale(0.1 -0.1)">
       <use xlink:href="#DejaVuSans-31"/>
       <use xlink:href="#DejaVuSans-35" x="63.623047"/>
       <use xlink:href="#DejaVuSans-30" x="127.246094"/>
      </g>
     </g>
    </g>
    <g id="xtick_5">
     <g id="line2d_5">
      <g>
       <use xlink:href="#m720623f89d" x="408.457747" y="228.96" style="stroke: #000000; stroke-width: 0.8"/>
      </g>
     </g>
     <g id="text_5">
      <!-- 200 -->
      <g transform="translate(398.913997 243.558437) scale(0.1 -0.1)">
       <defs>
        <path id="DejaVuSans-32" d="M 1228 531 
L 3431 531 
L 3431 0 
L 469 0 
L 469 531 
Q 828 903 1448 1529 
Q 2069 2156 2228 2338 
Q 2531 2678 2651 2914 
Q 2772 3150 2772 3378 
Q 2772 3750 2511 3984 
Q 2250 4219 1831 4219 
Q 1534 4219 1204 4116 
Q 875 4013 500 3803 
L 500 4441 
Q 881 4594 1212 4672 
Q 1544 4750 1819 4750 
Q 2544 4750 2975 4387 
Q 3406 4025 3406 3419 
Q 3406 3131 3298 2873 
Q 3191 2616 2906 2266 
Q 2828 2175 2409 1742 
Q 1991 1309 1228 531 
z
" transform="scale(0.015625)"/>
       </defs>
       <use xlink:href="#DejaVuSans-32"/>
       <use xlink:href="#DejaVuSans-30" x="63.623047"/>
       <use xlink:href="#DejaVuSans-30" x="127.246094"/>
      </g>
     </g>
    </g>
    <g id="xtick_6">
     <g id="line2d_6">
      <g>
       <use xlink:href="#m720623f89d" x="493.285963" y="228.96" style="stroke: #000000; stroke-width: 0.8"/>
      </g>
     </g>
     <g id="text_6">
      <!-- 250 -->
      <g transform="translate(483.742213 243.558437) scale(0.1 -0.1)">
       <use xlink:href="#DejaVuSans-32"/>
       <use xlink:href="#DejaVuSans-35" x="63.623047"/>
       <use xlink:href="#DejaVuSans-30" x="127.246094"/>
      </g>
     </g>
    </g>
    <g id="xtick_7">
     <g id="line2d_7">
      <g>
       <use xlink:href="#m720623f89d" x="578.114178" y="228.96" style="stroke: #000000; stroke-width: 0.8"/>
      </g>
     </g>
     <g id="text_7">
      <!-- 300 -->
      <g transform="translate(568.570428 243.558437) scale(0.1 -0.1)">
       <defs>
        <path id="DejaVuSans-33" d="M 2597 2516 
Q 3050 2419 3304 2112 
Q 3559 1806 3559 1356 
Q 3559 666 3084 287 
Q 2609 -91 1734 -91 
Q 1441 -91 1130 -33 
Q 819 25 488 141 
L 488 750 
Q 750 597 1062 519 
Q 1375 441 1716 441 
Q 2309 441 2620 675 
Q 2931 909 2931 1356 
Q 2931 1769 2642 2001 
Q 2353 2234 1838 2234 
L 1294 2234 
L 1294 2753 
L 1863 2753 
Q 2328 2753 2575 2939 
Q 2822 3125 2822 3475 
Q 2822 3834 2567 4026 
Q 2313 4219 1838 4219 
Q 1578 4219 1281 4162 
Q 984 4106 628 3988 
L 628 4550 
Q 988 4650 1302 4700 
Q 1616 4750 1894 4750 
Q 2613 4750 3031 4423 
Q 3450 4097 3450 3541 
Q 3450 3153 3228 2886 
Q 3006 2619 2597 2516 
z
" transform="scale(0.015625)"/>
       </defs>
       <use xlink:href="#DejaVuSans-33"/>
       <use xlink:href="#DejaVuSans-30" x="63.623047"/>
       <use xlink:href="#DejaVuSans-30" x="127.246094"/>
      </g>
     </g>
    </g>
    <g id="text_8">
     <!-- time (days) -->
     <g transform="translate(294.192187 257.236562) scale(0.1 -0.1)">
      <defs>
       <path id="DejaVuSans-74" d="M 1172 4494 
L 1172 3500 
L 2356 3500 
L 2356 3053 
L 1172 3053 
L 1172 1153 
Q 1172 725 1289 603 
Q 1406 481 1766 481 
L 2356 481 
L 2356 0 
L 1766 0 
Q 1100 0 847 248 
Q 594 497 594 1153 
L 594 3053 
L 172 3053 
L 172 3500 
L 594 3500 
L 594 4494 
L 1172 4494 
z
" transform="scale(0.015625)"/>
       <path id="DejaVuSans-69" d="M 603 3500 
L 1178 3500 
L 1178 0 
L 603 0 
L 603 3500 
z
M 603 4863 
L 1178 4863 
L 1178 4134 
L 603 4134 
L 603 4863 
z
" transform="scale(0.015625)"/>
       <path id="DejaVuSans-6d" d="M 3328 2828 
Q 3544 3216 3844 3400 
Q 4144 3584 4550 3584 
Q 5097 3584 5394 3201 
Q 5691 2819 5691 2113 
L 5691 0 
L 5113 0 
L 5113 2094 
Q 5113 2597 4934 2840 
Q 4756 3084 4391 3084 
Q 3944 3084 3684 2787 
Q 3425 2491 3425 1978 
L 3425 0 
L 2847 0 
L 2847 2094 
Q 2847 2600 2669 2842 
Q 2491 3084 2119 3084 
Q 1678 3084 1418 2786 
Q 1159 2488 1159 1978 
L 1159 0 
L 581 0 
L 581 3500 
L 1159 3500 
L 1159 2956 
Q 1356 3278 1631 3431 
Q 1906 3584 2284 3584 
Q 2666 3584 2933 3390 
Q 3200 3197 3328 2828 
z
" transform="scale(0.015625)"/>
       <path id="DejaVuSans-65" d="M 3597 1894 
L 3597 1613 
L 953 1613 
Q 991 1019 1311 708 
Q 1631 397 2203 397 
Q 2534 397 2845 478 
Q 3156 559 3463 722 
L 3463 178 
Q 3153 47 2828 -22 
Q 2503 -91 2169 -91 
Q 1331 -91 842 396 
Q 353 884 353 1716 
Q 353 2575 817 3079 
Q 1281 3584 2069 3584 
Q 2775 3584 3186 3129 
Q 3597 2675 3597 1894 
z
M 3022 2063 
Q 3016 2534 2758 2815 
Q 2500 3097 2075 3097 
Q 1594 3097 1305 2825 
Q 1016 2553 972 2059 
L 3022 2063 
z
" transform="scale(0.015625)"/>
       <path id="DejaVuSans-20" transform="scale(0.015625)"/>
       <path id="DejaVuSans-28" d="M 1984 4856 
Q 1566 4138 1362 3434 
Q 1159 2731 1159 2009 
Q 1159 1288 1364 580 
Q 1569 -128 1984 -844 
L 1484 -844 
Q 1016 -109 783 600 
Q 550 1309 550 2009 
Q 550 2706 781 3412 
Q 1013 4119 1484 4856 
L 1984 4856 
z
" transform="scale(0.015625)"/>
       <path id="DejaVuSans-64" d="M 2906 2969 
L 2906 4863 
L 3481 4863 
L 3481 0 
L 2906 0 
L 2906 525 
Q 2725 213 2448 61 
Q 2172 -91 1784 -91 
Q 1150 -91 751 415 
Q 353 922 353 1747 
Q 353 2572 751 3078 
Q 1150 3584 1784 3584 
Q 2172 3584 2448 3432 
Q 2725 3281 2906 2969 
z
M 947 1747 
Q 947 1113 1208 752 
Q 1469 391 1925 391 
Q 2381 391 2643 752 
Q 2906 1113 2906 1747 
Q 2906 2381 2643 2742 
Q 2381 3103 1925 3103 
Q 1469 3103 1208 2742 
Q 947 2381 947 1747 
z
" transform="scale(0.015625)"/>
       <path id="DejaVuSans-61" d="M 2194 1759 
Q 1497 1759 1228 1600 
Q 959 1441 959 1056 
Q 959 750 1161 570 
Q 1363 391 1709 391 
Q 2188 391 2477 730 
Q 2766 1069 2766 1631 
L 2766 1759 
L 2194 1759 
z
M 3341 1997 
L 3341 0 
L 2766 0 
L 2766 531 
Q 2569 213 2275 61 
Q 1981 -91 1556 -91 
Q 1019 -91 701 211 
Q 384 513 384 1019 
Q 384 1609 779 1909 
Q 1175 2209 1959 2209 
L 2766 2209 
L 2766 2266 
Q 2766 2663 2505 2880 
Q 2244 3097 1772 3097 
Q 1472 3097 1187 3025 
Q 903 2953 641 2809 
L 641 3341 
Q 956 3463 1253 3523 
Q 1550 3584 1831 3584 
Q 2591 3584 2966 3190 
Q 3341 2797 3341 1997 
z
" transform="scale(0.015625)"/>
       <path id="DejaVuSans-79" d="M 2059 -325 
Q 1816 -950 1584 -1140 
Q 1353 -1331 966 -1331 
L 506 -1331 
L 506 -850 
L 844 -850 
Q 1081 -850 1212 -737 
Q 1344 -625 1503 -206 
L 1606 56 
L 191 3500 
L 800 3500 
L 1894 763 
L 2988 3500 
L 3597 3500 
L 2059 -325 
z
" transform="scale(0.015625)"/>
       <path id="DejaVuSans-73" d="M 2834 3397 
L 2834 2853 
Q 2591 2978 2328 3040 
Q 2066 3103 1784 3103 
Q 1356 3103 1142 2972 
Q 928 2841 928 2578 
Q 928 2378 1081 2264 
Q 1234 2150 1697 2047 
L 1894 2003 
Q 2506 1872 2764 1633 
Q 3022 1394 3022 966 
Q 3022 478 2636 193 
Q 2250 -91 1575 -91 
Q 1294 -91 989 -36 
Q 684 19 347 128 
L 347 722 
Q 666 556 975 473 
Q 1284 391 1588 391 
Q 1994 391 2212 530 
Q 2431 669 2431 922 
Q 2431 1156 2273 1281 
Q 2116 1406 1581 1522 
L 1381 1569 
Q 847 1681 609 1914 
Q 372 2147 372 2553 
Q 372 3047 722 3315 
Q 1072 3584 1716 3584 
Q 2034 3584 2315 3537 
Q 2597 3491 2834 3397 
z
" transform="scale(0.015625)"/>
       <path id="DejaVuSans-29" d="M 513 4856 
L 1013 4856 
Q 1481 4119 1714 3412 
Q 1947 2706 1947 2009 
Q 1947 1309 1714 600 
Q 1481 -109 1013 -844 
L 513 -844 
Q 928 -128 1133 580 
Q 1338 1288 1338 2009 
Q 1338 2731 1133 3434 
Q 928 4138 513 4856 
z
" transform="scale(0.015625)"/>
      </defs>
      <use xlink:href="#DejaVuSans-74"/>
      <use xlink:href="#DejaVuSans-69" x="39.208984"/>
      <use xlink:href="#DejaVuSans-6d" x="66.992188"/>
      <use xlink:href="#DejaVuSans-65" x="164.404297"/>
      <use xlink:href="#DejaVuSans-20" x="225.927734"/>
      <use xlink:href="#DejaVuSans-28" x="257.714844"/>
      <use xlink:href="#DejaVuSans-64" x="296.728516"/>
      <use xlink:href="#DejaVuSans-61" x="360.205078"/>
      <use xlink:href="#DejaVuSans-79" x="421.484375"/>
      <use xlink:href="#DejaVuSans-73" x="480.664062"/>
      <use xlink:href="#DejaVuSans-29" x="532.763672"/>
     </g>
    </g>
   </g>
   <g id="matplotlib.axis_2">
    <g id="ytick_1">
     <g id="line2d_8">
      <defs>
       <path id="me9753eeb83" d="M 0 0 
L -3.5 0 
" style="stroke: #000000; stroke-width: 0.8"/>
      </defs>
      <g>
       <use xlink:href="#me9753eeb83" x="43.78125" y="218.88" style="stroke: #000000; stroke-width: 0.8"/>
      </g>
     </g>
     <g id="text_9">
      <!-- 0.0 -->
      <g transform="translate(20.878125 222.679219) scale(0.1 -0.1)">
       <defs>
        <path id="DejaVuSans-2e" d="M 684 794 
L 1344 794 
L 1344 0 
L 684 0 
L 684 794 
z
" transform="scale(0.015625)"/>
       </defs>
       <use xlink:href="#DejaVuSans-30"/>
       <use xlink:href="#DejaVuSans-2e" x="63.623047"/>
       <use xlink:href="#DejaVuSans-30" x="95.410156"/>
      </g>
     </g>
    </g>
    <g id="ytick_2">
     <g id="line2d_9">
      <g>
       <use xlink:href="#me9753eeb83" x="43.78125" y="178.559597" style="stroke: #000000; stroke-width: 0.8"/>
      </g>
     </g>
     <g id="text_10">
      <!-- 0.2 -->
      <g transform="translate(20.878125 182.358816) scale(0.1 -0.1)">
       <use xlink:href="#DejaVuSans-30"/>
       <use xlink:href="#DejaVuSans-2e" x="63.623047"/>
       <use xlink:href="#DejaVuSans-32" x="95.410156"/>
      </g>
     </g>
    </g>
    <g id="ytick_3">
     <g id="line2d_10">
      <g>
       <use xlink:href="#me9753eeb83" x="43.78125" y="138.239194" style="stroke: #000000; stroke-width: 0.8"/>
      </g>
     </g>
     <g id="text_11">
      <!-- 0.4 -->
      <g transform="translate(20.878125 142.038412) scale(0.1 -0.1)">
       <defs>
        <path id="DejaVuSans-34" d="M 2419 4116 
L 825 1625 
L 2419 1625 
L 2419 4116 
z
M 2253 4666 
L 3047 4666 
L 3047 1625 
L 3713 1625 
L 3713 1100 
L 3047 1100 
L 3047 0 
L 2419 0 
L 2419 1100 
L 313 1100 
L 313 1709 
L 2253 4666 
z
" transform="scale(0.015625)"/>
       </defs>
       <use xlink:href="#DejaVuSans-30"/>
       <use xlink:href="#DejaVuSans-2e" x="63.623047"/>
       <use xlink:href="#DejaVuSans-34" x="95.410156"/>
      </g>
     </g>
    </g>
    <g id="ytick_4">
     <g id="line2d_11">
      <g>
       <use xlink:href="#me9753eeb83" x="43.78125" y="97.91879" style="stroke: #000000; stroke-width: 0.8"/>
      </g>
     </g>
     <g id="text_12">
      <!-- 0.6 -->
      <g transform="translate(20.878125 101.718009) scale(0.1 -0.1)">
       <defs>
        <path id="DejaVuSans-36" d="M 2113 2584 
Q 1688 2584 1439 2293 
Q 1191 2003 1191 1497 
Q 1191 994 1439 701 
Q 1688 409 2113 409 
Q 2538 409 2786 701 
Q 3034 994 3034 1497 
Q 3034 2003 2786 2293 
Q 2538 2584 2113 2584 
z
M 3366 4563 
L 3366 3988 
Q 3128 4100 2886 4159 
Q 2644 4219 2406 4219 
Q 1781 4219 1451 3797 
Q 1122 3375 1075 2522 
Q 1259 2794 1537 2939 
Q 1816 3084 2150 3084 
Q 2853 3084 3261 2657 
Q 3669 2231 3669 1497 
Q 3669 778 3244 343 
Q 2819 -91 2113 -91 
Q 1303 -91 875 529 
Q 447 1150 447 2328 
Q 447 3434 972 4092 
Q 1497 4750 2381 4750 
Q 2619 4750 2861 4703 
Q 3103 4656 3366 4563 
z
" transform="scale(0.015625)"/>
       </defs>
       <use xlink:href="#DejaVuSans-30"/>
       <use xlink:href="#DejaVuSans-2e" x="63.623047"/>
       <use xlink:href="#DejaVuSans-36" x="95.410156"/>
      </g>
     </g>
    </g>
    <g id="ytick_5">
     <g id="line2d_12">
      <g>
       <use xlink:href="#me9753eeb83" x="43.78125" y="57.598387" style="stroke: #000000; stroke-width: 0.8"/>
      </g>
     </g>
     <g id="text_13">
      <!-- 0.8 -->
      <g transform="translate(20.878125 61.397606) scale(0.1 -0.1)">
       <defs>
        <path id="DejaVuSans-38" d="M 2034 2216 
Q 1584 2216 1326 1975 
Q 1069 1734 1069 1313 
Q 1069 891 1326 650 
Q 1584 409 2034 409 
Q 2484 409 2743 651 
Q 3003 894 3003 1313 
Q 3003 1734 2745 1975 
Q 2488 2216 2034 2216 
z
M 1403 2484 
Q 997 2584 770 2862 
Q 544 3141 544 3541 
Q 544 4100 942 4425 
Q 1341 4750 2034 4750 
Q 2731 4750 3128 4425 
Q 3525 4100 3525 3541 
Q 3525 3141 3298 2862 
Q 3072 2584 2669 2484 
Q 3125 2378 3379 2068 
Q 3634 1759 3634 1313 
Q 3634 634 3220 271 
Q 2806 -91 2034 -91 
Q 1263 -91 848 271 
Q 434 634 434 1313 
Q 434 1759 690 2068 
Q 947 2378 1403 2484 
z
M 1172 3481 
Q 1172 3119 1398 2916 
Q 1625 2713 2034 2713 
Q 2441 2713 2670 2916 
Q 2900 3119 2900 3481 
Q 2900 3844 2670 4047 
Q 2441 4250 2034 4250 
Q 1625 4250 1398 4047 
Q 1172 3844 1172 3481 
z
" transform="scale(0.015625)"/>
       </defs>
       <use xlink:href="#DejaVuSans-30"/>
       <use xlink:href="#DejaVuSans-2e" x="63.623047"/>
       <use xlink:href="#DejaVuSans-38" x="95.410156"/>
      </g>
     </g>
    </g>
    <g id="ytick_6">
     <g id="line2d_13">
      <g>
       <use xlink:href="#me9753eeb83" x="43.78125" y="17.277984" style="stroke: #000000; stroke-width: 0.8"/>
      </g>
     </g>
     <g id="text_14">
      <!-- 1.0 -->
      <g transform="translate(20.878125 21.077203) scale(0.1 -0.1)">
       <use xlink:href="#DejaVuSans-31"/>
       <use xlink:href="#DejaVuSans-2e" x="63.623047"/>
       <use xlink:href="#DejaVuSans-30" x="95.410156"/>
      </g>
     </g>
    </g>
    <g id="text_15">
     <!-- Population -->
     <g transform="translate(14.798438 144.346406) rotate(-90) scale(0.1 -0.1)">
      <defs>
       <path id="DejaVuSans-50" d="M 1259 4147 
L 1259 2394 
L 2053 2394 
Q 2494 2394 2734 2622 
Q 2975 2850 2975 3272 
Q 2975 3691 2734 3919 
Q 2494 4147 2053 4147 
L 1259 4147 
z
M 628 4666 
L 2053 4666 
Q 2838 4666 3239 4311 
Q 3641 3956 3641 3272 
Q 3641 2581 3239 2228 
Q 2838 1875 2053 1875 
L 1259 1875 
L 1259 0 
L 628 0 
L 628 4666 
z
" transform="scale(0.015625)"/>
       <path id="DejaVuSans-6f" d="M 1959 3097 
Q 1497 3097 1228 2736 
Q 959 2375 959 1747 
Q 959 1119 1226 758 
Q 1494 397 1959 397 
Q 2419 397 2687 759 
Q 2956 1122 2956 1747 
Q 2956 2369 2687 2733 
Q 2419 3097 1959 3097 
z
M 1959 3584 
Q 2709 3584 3137 3096 
Q 3566 2609 3566 1747 
Q 3566 888 3137 398 
Q 2709 -91 1959 -91 
Q 1206 -91 779 398 
Q 353 888 353 1747 
Q 353 2609 779 3096 
Q 1206 3584 1959 3584 
z
" transform="scale(0.015625)"/>
       <path id="DejaVuSans-70" d="M 1159 525 
L 1159 -1331 
L 581 -1331 
L 581 3500 
L 1159 3500 
L 1159 2969 
Q 1341 3281 1617 3432 
Q 1894 3584 2278 3584 
Q 2916 3584 3314 3078 
Q 3713 2572 3713 1747 
Q 3713 922 3314 415 
Q 2916 -91 2278 -91 
Q 1894 -91 1617 61 
Q 1341 213 1159 525 
z
M 3116 1747 
Q 3116 2381 2855 2742 
Q 2594 3103 2138 3103 
Q 1681 3103 1420 2742 
Q 1159 2381 1159 1747 
Q 1159 1113 1420 752 
Q 1681 391 2138 391 
Q 2594 391 2855 752 
Q 3116 1113 3116 1747 
z
" transform="scale(0.015625)"/>
       <path id="DejaVuSans-75" d="M 544 1381 
L 544 3500 
L 1119 3500 
L 1119 1403 
Q 1119 906 1312 657 
Q 1506 409 1894 409 
Q 2359 409 2629 706 
Q 2900 1003 2900 1516 
L 2900 3500 
L 3475 3500 
L 3475 0 
L 2900 0 
L 2900 538 
Q 2691 219 2414 64 
Q 2138 -91 1772 -91 
Q 1169 -91 856 284 
Q 544 659 544 1381 
z
M 1991 3584 
L 1991 3584 
z
" transform="scale(0.015625)"/>
       <path id="DejaVuSans-6c" d="M 603 4863 
L 1178 4863 
L 1178 0 
L 603 0 
L 603 4863 
z
" transform="scale(0.015625)"/>
       <path id="DejaVuSans-6e" d="M 3513 2113 
L 3513 0 
L 2938 0 
L 2938 2094 
Q 2938 2591 2744 2837 
Q 2550 3084 2163 3084 
Q 1697 3084 1428 2787 
Q 1159 2491 1159 1978 
L 1159 0 
L 581 0 
L 581 3500 
L 1159 3500 
L 1159 2956 
Q 1366 3272 1645 3428 
Q 1925 3584 2291 3584 
Q 2894 3584 3203 3211 
Q 3513 2838 3513 2113 
z
" transform="scale(0.015625)"/>
      </defs>
      <use xlink:href="#DejaVuSans-50"/>
      <use xlink:href="#DejaVuSans-6f" x="56.677734"/>
      <use xlink:href="#DejaVuSans-70" x="117.859375"/>
      <use xlink:href="#DejaVuSans-75" x="181.335938"/>
      <use xlink:href="#DejaVuSans-6c" x="244.714844"/>
      <use xlink:href="#DejaVuSans-61" x="272.498047"/>
      <use xlink:href="#DejaVuSans-74" x="333.777344"/>
      <use xlink:href="#DejaVuSans-69" x="372.986328"/>
      <use xlink:href="#DejaVuSans-6f" x="400.769531"/>
      <use xlink:href="#DejaVuSans-6e" x="461.951172"/>
     </g>
    </g>
   </g>
   <g id="line2d_14">
    <path d="M 69.144886 17.28 
L 113.255558 17.388594 
L 126.828073 17.636607 
L 135.310894 18.016748 
L 140.400587 18.430157 
L 145.49028 19.06574 
L 148.883409 19.673051 
L 152.276537 20.480505 
L 155.669666 21.567888 
L 159.062795 22.99987 
L 160.759359 23.885014 
L 162.455923 24.913349 
L 164.152487 26.106465 
L 165.849052 27.470803 
L 167.545616 29.000708 
L 169.24218 30.72384 
L 170.938745 32.700484 
L 172.635309 34.913799 
L 174.331873 37.405668 
L 176.028438 40.162754 
L 177.725002 43.20053 
L 179.421566 46.568061 
L 181.118131 50.366584 
L 182.814695 54.506444 
L 184.511259 59.116931 
L 186.207823 64.118553 
L 189.600952 75.40579 
L 192.994081 88.271698 
L 196.387209 102.287701 
L 204.870031 138.604573 
L 208.263159 152.03761 
L 209.959724 158.294159 
L 211.656288 164.062849 
L 213.352852 169.33759 
L 215.049417 174.101644 
L 216.745981 178.473183 
L 218.442545 182.334557 
L 220.13911 185.853288 
L 221.835674 189.041468 
L 223.532238 191.901271 
L 225.228802 194.368236 
L 226.925367 196.565255 
L 228.621931 198.457639 
L 230.318495 200.148703 
L 232.01506 201.619696 
L 233.711624 202.897406 
L 235.408188 204.031652 
L 237.104753 205.01226 
L 240.497881 206.592382 
L 243.89101 207.806271 
L 247.284138 208.703727 
L 250.677267 209.288403 
L 254.070396 209.678473 
L 257.463524 209.896994 
L 262.553217 209.933165 
L 269.339474 209.659461 
L 276.125732 209.069034 
L 282.911989 208.273755 
L 291.39481 206.990604 
L 299.877632 205.470576 
L 310.057018 203.463964 
L 321.932968 200.841375 
L 335.505482 197.577015 
L 396.581797 182.451649 
L 406.761183 180.235365 
L 423.726826 176.775222 
L 437.299341 174.163163 
L 445.782162 172.706006 
L 461.051241 170.432346 
L 471.230627 169.207107 
L 484.803141 167.79589 
L 491.589398 167.219118 
L 501.768784 166.603574 
L 510.251606 166.366681 
L 518.734427 166.36433 
L 525.520684 166.52547 
L 539.093199 167.210651 
L 549.272585 167.842881 
L 576.417614 169.783558 
L 576.417614 169.783558 
" clip-path="url(#p40bdeb6808)" style="fill: none; stroke: #1f77b4; stroke-width: 1.5; stroke-linecap: square"/>
   </g>
   <g id="line2d_15">
    <path d="M 69.144886 218.877984 
L 116.648687 218.76029 
L 130.221201 218.507412 
L 138.704023 218.077605 
L 143.793716 217.643367 
L 148.883409 216.992153 
L 152.276537 216.321611 
L 157.36623 214.961092 
L 160.759359 213.544063 
L 165.849052 210.791728 
L 167.545616 209.695792 
L 170.938745 206.846736 
L 176.028438 201.666159 
L 177.725002 199.464012 
L 179.421566 196.548968 
L 181.118131 193.987579 
L 184.511259 187.146022 
L 189.600952 174.852775 
L 191.297516 169.773402 
L 192.994081 165.513884 
L 194.690645 160.13806 
L 196.387209 155.236503 
L 198.083774 150.786511 
L 199.780338 145.986207 
L 203.173466 135.360426 
L 206.566595 127.062637 
L 208.263159 122.580189 
L 209.959724 120.568629 
L 211.656288 119.093312 
L 213.352852 118.615571 
L 215.049417 116.504442 
L 216.745981 117.842017 
L 218.442545 116.259705 
L 220.13911 115.019839 
L 221.835674 114.580041 
L 223.532238 117.720749 
L 225.228802 118.100788 
L 226.925367 121.351079 
L 228.621931 121.60094 
L 232.01506 126.412518 
L 233.711624 127.261469 
L 235.408188 129.843137 
L 237.104753 132.975377 
L 238.801317 133.989977 
L 240.497881 135.205675 
L 242.194446 137.372027 
L 243.89101 138.670224 
L 245.587574 141.830394 
L 247.284138 145.753022 
L 248.980703 148.965462 
L 250.677267 150.089042 
L 252.373831 152.689137 
L 254.070396 154.531899 
L 257.463524 160.715451 
L 259.160089 163.242824 
L 260.856653 164.810385 
L 262.553217 166.872131 
L 264.249781 167.735484 
L 267.64291 171.142213 
L 269.339474 173.44319 
L 271.036039 175.47086 
L 272.732603 176.771407 
L 276.125732 178.758792 
L 277.822296 180.435553 
L 279.51886 181.806707 
L 281.215425 182.885548 
L 282.911989 184.726092 
L 284.608553 186.372803 
L 289.698246 189.055513 
L 291.39481 190.380579 
L 294.787939 192.630085 
L 296.484503 193.234763 
L 298.181068 193.97042 
L 299.877632 194.256225 
L 301.574196 195.444203 
L 303.27076 195.921912 
L 304.967325 196.264874 
L 310.057018 198.747244 
L 313.450146 200.113277 
L 315.146711 200.671424 
L 318.539839 201.446168 
L 320.236404 202.141087 
L 323.629532 203.137237 
L 327.022661 204.119664 
L 328.719225 204.339466 
L 332.112354 205.342817 
L 333.808918 205.536635 
L 335.505482 205.917488 
L 337.202047 205.96826 
L 338.898611 206.418907 
L 342.29174 206.931935 
L 343.988304 207.073233 
L 347.381432 207.599168 
L 349.077997 207.744972 
L 350.774561 207.746928 
L 352.471125 208.098994 
L 355.864254 208.286174 
L 357.560818 208.635735 
L 359.257383 208.649823 
L 364.347075 209.154637 
L 367.740204 209.407851 
L 372.829897 209.730934 
L 376.223026 210.142458 
L 377.91959 210.320539 
L 379.616154 210.264978 
L 381.312719 210.484726 
L 383.009283 210.584205 
L 386.402411 210.423084 
L 388.098976 210.593191 
L 389.79554 210.545009 
L 391.492104 210.684567 
L 394.885233 210.546664 
L 398.278362 210.567655 
L 405.064619 210.349674 
L 406.761183 210.498458 
L 408.457747 210.527017 
L 410.154312 210.711408 
L 418.637133 210.754897 
L 422.030262 210.998871 
L 425.42339 211.17334 
L 427.119955 211.096585 
L 430.513083 211.167923 
L 432.209648 211.116561 
L 435.602776 211.210304 
L 447.478726 210.655455 
L 449.175291 210.732418 
L 450.871855 210.680541 
L 452.568419 210.75429 
L 455.961548 210.646368 
L 459.354677 210.486745 
L 462.747805 210.175269 
L 471.230627 210.084442 
L 484.803141 209.983075 
L 488.19627 209.521462 
L 489.892834 209.599409 
L 491.589398 209.354063 
L 493.285963 209.43944 
L 494.982527 209.188922 
L 496.679091 209.13599 
L 498.375656 208.879134 
L 500.07222 208.779818 
L 501.768784 208.522637 
L 510.251606 207.780206 
L 511.94817 207.57877 
L 513.644734 207.618379 
L 517.037863 207.150667 
L 518.734427 207.150408 
L 522.127556 206.594764 
L 523.82412 206.5141 
L 525.520684 206.181554 
L 528.913813 205.923865 
L 530.610377 205.986186 
L 532.306942 205.733674 
L 540.789763 205.850734 
L 542.486328 205.492277 
L 544.182892 205.255079 
L 545.879456 205.275885 
L 547.57602 204.952612 
L 549.272585 205.038854 
L 550.969149 204.833461 
L 552.665713 204.960358 
L 554.362278 204.951297 
L 556.058842 205.075166 
L 557.755406 204.856691 
L 559.451971 205.004716 
L 561.148535 204.902207 
L 562.845099 204.668355 
L 566.238228 204.837474 
L 567.934792 204.816515 
L 569.631356 204.992833 
L 573.024485 204.457993 
L 574.721049 204.420431 
L 576.417614 204.537212 
L 576.417614 204.537212 
" clip-path="url(#p40bdeb6808)" style="fill: none; stroke: #ff7f0e; stroke-width: 1.5; stroke-linecap: square"/>
   </g>
   <g id="line2d_16">
    <path d="M 69.144886 218.88 
L 137.007459 218.779293 
L 150.579973 218.556176 
L 159.062795 218.209265 
L 165.849052 217.687564 
L 170.938745 217.034163 
L 174.331873 216.420216 
L 177.725002 215.609148 
L 181.118131 214.577056 
L 184.511259 213.278394 
L 187.904388 211.661997 
L 191.297516 209.664277 
L 194.690645 207.25016 
L 198.083774 204.379302 
L 201.476902 201.009411 
L 204.870031 197.228158 
L 208.263159 193.037889 
L 211.656288 188.51733 
L 215.049417 183.631642 
L 220.13911 175.935614 
L 238.801317 147.751398 
L 243.89101 140.72791 
L 250.677267 131.936887 
L 255.76696 125.793064 
L 260.856653 119.988413 
L 264.249781 116.358112 
L 269.339474 111.346616 
L 274.429167 106.727246 
L 277.822296 103.917135 
L 282.911989 100.045561 
L 288.001682 96.53037 
L 293.091375 93.412192 
L 298.181068 90.636643 
L 303.27076 88.233046 
L 308.360453 86.169344 
L 313.450146 84.38303 
L 318.539839 82.863467 
L 323.629532 81.604296 
L 328.719225 80.573833 
L 333.808918 79.761942 
L 338.898611 79.158654 
L 343.988304 78.742534 
L 350.774561 78.457636 
L 357.560818 78.451179 
L 364.347075 78.667193 
L 371.133333 79.078463 
L 379.616154 79.814868 
L 388.098976 80.762972 
L 398.278362 82.146164 
L 410.154312 84.010348 
L 432.209648 87.670619 
L 476.32032 95.063418 
L 491.589398 97.284063 
L 506.858477 99.313489 
L 520.430992 100.879185 
L 532.306942 102.008162 
L 540.789763 102.611069 
L 554.362278 103.284706 
L 566.238228 103.579366 
L 576.417614 103.668851 
L 576.417614 103.668851 
" clip-path="url(#p40bdeb6808)" style="fill: none; stroke: #2ca02c; stroke-width: 1.5; stroke-linecap: square"/>
   </g>
   <g id="line2d_17">
    <path d="M 69.144886 218.88 
L 143.793716 218.769852 
L 155.669666 218.573503 
L 159.062795 218.46204 
L 164.152487 218.339878 
L 167.545616 217.848153 
L 169.24218 217.810571 
L 174.331873 216.817335 
L 176.028438 216.302063 
L 177.725002 215.936646 
L 179.421566 216.015634 
L 181.118131 215.368418 
L 182.814695 215.430593 
L 184.511259 214.871885 
L 186.207823 214.727051 
L 187.904388 214.038007 
L 189.600952 213.669444 
L 191.297516 213.664473 
L 192.994081 212.531925 
L 194.690645 212.427404 
L 196.387209 211.674556 
L 198.083774 210.458752 
L 199.780338 209.719182 
L 201.476902 209.779666 
L 203.173466 209.685938 
L 204.870031 208.696612 
L 206.566595 208.325668 
L 208.263159 208.574012 
L 211.656288 204.967876 
L 213.352852 202.784766 
L 215.049417 202.833748 
L 216.745981 199.858551 
L 220.13911 200.928358 
L 221.835674 200.986194 
L 223.532238 197.786305 
L 225.228802 197.789149 
L 226.925367 195.170079 
L 228.621931 195.878923 
L 232.01506 193.498418 
L 233.711624 194.141063 
L 235.408188 193.136633 
L 237.104753 191.707137 
L 238.801317 192.51469 
L 240.497881 193.150287 
L 242.194446 192.859701 
L 243.89101 193.480681 
L 245.587574 192.245335 
L 247.284138 190.300858 
L 248.980703 189.13071 
L 250.677267 190.081719 
L 252.373831 189.521182 
L 254.070396 189.722937 
L 255.76696 188.74949 
L 257.463524 187.596153 
L 259.160089 187.112697 
L 260.856653 187.578174 
L 262.553217 187.510251 
L 264.249781 188.615622 
L 267.64291 188.995448 
L 269.339474 188.537917 
L 271.036039 188.338259 
L 272.732603 188.842594 
L 276.125732 190.329995 
L 277.822296 190.315951 
L 279.51886 190.580754 
L 281.215425 191.103304 
L 282.911989 190.822497 
L 284.608553 190.718164 
L 288.001682 191.914444 
L 289.698246 192.467641 
L 291.39481 192.537934 
L 294.787939 193.001958 
L 296.484503 193.710973 
L 298.181068 194.246298 
L 299.877632 195.194967 
L 301.574196 195.192232 
L 304.967325 196.667013 
L 313.450146 198.010963 
L 315.146711 198.420821 
L 318.539839 199.496197 
L 320.236404 199.680902 
L 323.629532 200.387787 
L 325.326096 200.765324 
L 327.022661 201.015475 
L 328.719225 201.571201 
L 332.112354 202.043365 
L 333.808918 202.562839 
L 335.505482 202.868098 
L 337.202047 203.485043 
L 338.898611 203.671359 
L 349.077997 205.794015 
L 350.774561 206.300608 
L 352.471125 206.431587 
L 355.864254 207.17125 
L 357.560818 207.25718 
L 359.257383 207.672215 
L 367.740204 208.829789 
L 371.133333 209.32136 
L 374.526461 209.647831 
L 377.91959 209.811113 
L 379.616154 210.155677 
L 381.312719 210.206635 
L 383.009283 210.374504 
L 386.402411 211.033541 
L 388.098976 211.0857 
L 389.79554 211.35267 
L 391.492104 211.416999 
L 394.885233 211.938415 
L 398.278362 212.250654 
L 403.368054 212.930601 
L 408.457747 213.025948 
L 410.154312 212.942158 
L 418.637133 213.357712 
L 422.030262 213.26541 
L 425.42339 213.244363 
L 427.119955 213.397237 
L 430.513083 213.456846 
L 432.209648 213.567882 
L 435.602776 213.577529 
L 445.782162 214.345814 
L 449.175291 214.178996 
L 450.871855 214.225372 
L 452.568419 214.140812 
L 454.264984 214.239083 
L 457.658112 214.280278 
L 461.051241 214.513652 
L 464.444369 214.564419 
L 466.140934 214.456597 
L 467.837498 214.524355 
L 472.927191 214.35221 
L 478.016884 214.240895 
L 479.713448 214.087774 
L 481.410013 214.227631 
L 484.803141 214.036793 
L 488.19627 214.369072 
L 489.892834 214.204821 
L 491.589398 214.371629 
L 493.285963 214.192458 
L 494.982527 214.357904 
L 496.679091 214.310451 
L 498.375656 214.466276 
L 500.07222 214.449561 
L 501.768784 214.587582 
L 517.037863 214.597409 
L 518.734427 214.419993 
L 522.127556 214.621773 
L 523.82412 214.507944 
L 525.520684 214.648857 
L 528.913813 214.495083 
L 530.610377 214.22658 
L 532.306942 214.286864 
L 540.789763 213.264301 
L 542.486328 213.472944 
L 544.182892 213.542452 
L 545.879456 213.345601 
L 547.57602 213.503043 
L 549.272585 213.236733 
L 550.969149 213.277207 
L 552.665713 212.979546 
L 554.362278 212.835472 
L 556.058842 212.565819 
L 557.755406 212.654737 
L 559.451971 212.368954 
L 561.148535 212.351278 
L 562.845099 212.464407 
L 566.238228 212.049145 
L 567.934792 211.965129 
L 569.631356 211.688343 
L 573.024485 212.045363 
L 574.721049 211.974267 
L 576.417614 211.752593 
L 576.417614 211.752593 
" clip-path="url(#p40bdeb6808)" style="fill: none; stroke: #d62728; stroke-width: 1.5; stroke-linecap: square"/>
   </g>
   <g id="line2d_18">
    <path d="M 69.144886 218.88 
L 165.849052 218.77066 
L 179.421566 218.545873 
L 189.600952 218.157568 
L 198.083774 217.589365 
L 206.566595 216.762474 
L 216.745981 215.50571 
L 240.497881 212.495012 
L 252.373831 211.235553 
L 264.249781 210.197646 
L 277.822296 209.237743 
L 293.091375 208.391994 
L 311.753582 207.611041 
L 333.808918 206.940409 
L 360.953947 206.351619 
L 399.974926 205.744597 
L 550.969149 203.575484 
L 576.417614 203.05577 
L 576.417614 203.05577 
" clip-path="url(#p40bdeb6808)" style="fill: none; stroke: #9467bd; stroke-width: 1.5; stroke-linecap: square"/>
   </g>
   <g id="line2d_19">
    <path d="M 69.144886 218.595562 
L 70.841451 213.228563 
L 72.538015 212.277008 
L 74.234579 214.55649 
L 75.931144 212.452324 
L 77.627708 218.191929 
L 79.324272 213.603493 
L 81.020837 214.814397 
L 82.717401 215.173752 
L 84.413965 213.148133 
L 86.110529 217.750929 
L 87.807094 211.055346 
L 89.503658 216.239424 
L 91.200222 212.487271 
L 92.896787 210.976396 
L 94.593351 213.970599 
L 96.289915 213.865083 
L 97.98648 214.102745 
L 99.683044 215.797507 
L 101.379608 212.533269 
L 103.076172 215.312722 
L 104.772737 217.873389 
L 106.469301 213.067895 
L 108.165865 215.07154 
L 109.86243 216.276678 
L 113.255558 214.943348 
L 114.952123 217.757225 
L 116.648687 213.987551 
L 118.345251 214.139031 
L 120.041816 213.071493 
L 121.73838 215.480093 
L 123.434944 211.563686 
L 125.131508 212.800188 
L 126.828073 212.436979 
L 128.524637 216.884542 
L 130.221201 218.421471 
L 131.917766 213.851555 
L 133.61433 218.148854 
L 135.310894 216.023496 
L 137.007459 216.35983 
L 138.704023 211.572429 
L 140.400587 214.950614 
L 142.097151 216.990824 
L 143.793716 215.97661 
L 145.49028 211.871141 
L 147.186844 213.82875 
L 148.883409 218.662525 
L 150.579973 214.554368 
L 152.276537 217.991266 
L 153.973102 213.57332 
L 155.669666 212.082923 
L 157.36623 217.597288 
L 159.062795 217.811829 
L 160.759359 217.856793 
L 162.455923 214.887891 
L 164.152487 210.862355 
L 165.849052 212.349879 
L 167.545616 217.126372 
L 169.24218 212.248073 
L 170.938745 214.207259 
L 172.635309 211.083101 
L 174.331873 211.018622 
L 176.028438 213.362509 
L 177.725002 218.447125 
L 179.421566 211.976784 
L 181.118131 218.217509 
L 182.814695 213.914244 
L 184.511259 216.915902 
L 186.207823 214.034992 
L 189.600952 217.879004 
L 191.297516 213.352557 
L 192.994081 217.50192 
L 194.690645 215.388274 
L 196.387209 214.092921 
L 198.083774 215.668148 
L 199.780338 218.008505 
L 201.476902 217.678773 
L 203.173466 215.582026 
L 206.566595 218.475151 
L 208.263159 214.157933 
L 209.959724 214.223432 
L 211.656288 213.317008 
L 213.352852 217.651616 
L 215.049417 211.725567 
L 216.745981 218.391083 
L 218.442545 218.441928 
L 220.13911 217.563588 
L 221.835674 211.276846 
L 223.532238 217.162111 
L 225.228802 211.910904 
L 226.925367 218.335808 
L 228.621931 214.329905 
L 230.318495 214.371956 
L 232.01506 218.012261 
L 233.711624 214.437893 
L 235.408188 213.25339 
L 237.104753 218.160621 
L 238.801317 217.822282 
L 240.497881 215.638189 
L 242.194446 217.777228 
L 243.89101 213.157618 
L 245.587574 210.934936 
L 247.284138 212.42369 
L 248.980703 218.105156 
L 250.677267 213.776964 
L 252.373831 215.828271 
L 254.070396 212.084898 
L 255.76696 211.030664 
L 257.463524 212.758606 
L 259.160089 215.847182 
L 260.856653 213.8416 
L 262.553217 218.179196 
L 264.249781 214.774716 
L 265.946346 214.588877 
L 267.64291 211.773355 
L 269.339474 212.474414 
L 271.036039 215.406689 
L 272.732603 216.347937 
L 274.429167 216.827198 
L 276.125732 212.927621 
L 279.51886 215.412127 
L 281.215425 210.92865 
L 282.911989 211.473874 
L 284.608553 215.59768 
L 286.305117 215.320859 
L 288.001682 215.253324 
L 289.698246 212.035123 
L 291.39481 212.720651 
L 293.091375 212.857069 
L 294.787939 216.176715 
L 296.484503 214.976094 
L 298.181068 218.38378 
L 299.877632 210.907039 
L 301.574196 216.460382 
L 303.27076 217.492084 
L 304.967325 212.957278 
L 306.663889 213.44543 
L 308.360453 211.718294 
L 310.057018 213.275359 
L 311.753582 213.197762 
L 313.450146 214.091276 
L 315.146711 215.914582 
L 316.843275 215.364856 
L 318.539839 211.825709 
L 320.236404 213.19643 
L 321.932968 214.116165 
L 323.629532 214.005466 
L 325.326096 212.391408 
L 327.022661 216.466302 
L 328.719225 212.408243 
L 330.415789 212.123783 
L 332.112354 216.335951 
L 333.808918 213.384253 
L 335.505482 218.265002 
L 337.202047 211.93376 
L 338.898611 214.565295 
L 340.595175 214.734958 
L 342.29174 216.331819 
L 343.988304 213.615028 
L 345.684868 214.479067 
L 347.381432 215.853747 
L 349.077997 218.338058 
L 350.774561 211.912335 
L 352.471125 217.14589 
L 354.16769 215.660823 
L 355.864254 211.379665 
L 357.560818 217.669698 
L 359.257383 213.977728 
L 360.953947 214.442703 
L 362.650511 214.792275 
L 364.347075 214.243044 
L 366.04364 215.602008 
L 367.740204 215.782143 
L 369.436768 215.101633 
L 371.133333 214.214652 
L 372.829897 213.699352 
L 374.526461 211.414697 
L 376.223026 212.905198 
L 377.91959 218.23793 
L 379.616154 211.701936 
L 381.312719 214.371679 
L 383.009283 218.592692 
L 384.705847 218.572399 
L 386.402411 212.454366 
L 388.098976 217.600428 
L 389.79554 212.971221 
L 391.492104 218.307095 
L 393.188669 217.524285 
L 394.885233 214.60294 
L 396.581797 217.033511 
L 401.67149 218.439251 
L 403.368054 214.590136 
L 405.064619 212.140903 
L 406.761183 214.899374 
L 408.457747 211.064838 
L 410.154312 215.367658 
L 411.850876 216.306259 
L 413.54744 212.989526 
L 415.244005 214.856436 
L 416.940569 215.942197 
L 418.637133 211.162946 
L 420.333698 212.867784 
L 422.030262 212.787923 
L 423.726826 212.580304 
L 425.42339 216.834681 
L 427.119955 212.753659 
L 428.816519 214.852823 
L 430.513083 215.970141 
L 432.209648 212.536705 
L 433.906212 214.085894 
L 435.602776 216.750019 
L 437.299341 217.215192 
L 438.995905 215.439225 
L 440.692469 217.301095 
L 442.389034 217.790392 
L 444.085598 217.090359 
L 445.782162 212.389524 
L 447.478726 212.141034 
L 449.175291 215.258358 
L 450.871855 212.108682 
L 452.568419 216.497325 
L 454.264984 213.868775 
L 455.961548 215.566303 
L 457.658112 215.812115 
L 459.354677 218.523508 
L 461.051241 216.193895 
L 462.747805 214.477088 
L 464.444369 212.314085 
L 466.140934 216.244591 
L 467.837498 212.813316 
L 469.534062 213.768231 
L 471.230627 213.632492 
L 472.927191 214.455832 
L 474.623755 213.837091 
L 476.32032 213.077275 
L 478.016884 211.076813 
L 479.713448 217.57909 
L 481.410013 211.934614 
L 483.106577 212.810168 
L 484.803141 218.637864 
L 486.499705 217.855058 
L 488.19627 211.357534 
L 489.892834 218.339662 
L 491.589398 211.176183 
L 493.285963 218.308904 
L 494.982527 214.035884 
L 496.679091 218.227712 
L 498.375656 214.895128 
L 500.07222 218.009198 
L 501.768784 215.372678 
L 503.465349 214.590149 
L 505.161913 215.159403 
L 506.858477 217.365307 
L 508.555041 215.764587 
L 510.251606 216.471189 
L 511.94817 212.102505 
L 513.644734 217.608927 
L 515.341299 216.295312 
L 517.037863 212.812663 
L 518.734427 217.821281 
L 520.430992 217.247013 
L 522.127556 214.14706 
L 523.82412 218.254922 
L 525.520684 214.514133 
L 527.217249 215.260164 
L 528.913813 211.904519 
L 530.610377 216.839461 
L 532.306942 212.825402 
L 534.003506 212.942111 
L 535.70007 211.643368 
L 537.396635 213.740423 
L 539.093199 211.77927 
L 540.789763 218.545779 
L 542.486328 216.588343 
L 544.182892 212.729204 
L 545.879456 217.850544 
L 547.57602 211.833956 
L 549.272585 216.099464 
L 550.969149 211.310884 
L 552.665713 213.289568 
L 554.362278 211.390085 
L 556.058842 216.397892 
L 557.755406 211.102207 
L 559.451971 214.744459 
L 561.148535 216.650951 
L 562.845099 211.839448 
L 564.541663 212.384185 
L 566.238228 213.653049 
L 567.934792 210.848096 
L 569.631356 217.086972 
L 571.327921 217.423568 
L 573.024485 213.96903 
L 574.721049 211.841728 
L 576.417614 217.614441 
L 576.417614 217.614441 
" clip-path="url(#p40bdeb6808)" style="fill: none; stroke: #8c564b; stroke-width: 1.5; stroke-linecap: square"/>
   </g>
   <g id="patch_3">
    <path d="M 43.78125 228.96 
L 43.78125 7.2 
" style="fill: none; stroke: #000000; stroke-width: 0.8; stroke-linejoin: miter; stroke-linecap: square"/>
   </g>
   <g id="patch_4">
    <path d="M 601.78125 228.96 
L 601.78125 7.2 
" style="fill: none; stroke: #000000; stroke-width: 0.8; stroke-linejoin: miter; stroke-linecap: square"/>
   </g>
   <g id="patch_5">
    <path d="M 43.78125 228.96 
L 601.78125 228.96 
" style="fill: none; stroke: #000000; stroke-width: 0.8; stroke-linejoin: miter; stroke-linecap: square"/>
   </g>
   <g id="patch_6">
    <path d="M 43.78125 7.2 
L 601.78125 7.2 
" style="fill: none; stroke: #000000; stroke-width: 0.8; stroke-linejoin: miter; stroke-linecap: square"/>
   </g>
   <g id="legend_1">
    <g id="patch_7">
     <path d="M 50.78125 163.63625 
L 163.08125 163.63625 
Q 165.08125 163.63625 165.08125 161.63625 
L 165.08125 74.52375 
Q 165.08125 72.52375 163.08125 72.52375 
L 50.78125 72.52375 
Q 48.78125 72.52375 48.78125 74.52375 
L 48.78125 161.63625 
Q 48.78125 163.63625 50.78125 163.63625 
z
" style="fill: #ffffff; opacity: 0.8; stroke: #cccccc; stroke-linejoin: miter"/>
    </g>
    <g id="line2d_20">
     <path d="M 52.78125 80.62375 
L 62.78125 80.62375 
L 72.78125 80.62375 
" style="fill: none; stroke: #1f77b4; stroke-width: 1.5; stroke-linecap: square"/>
    </g>
    <g id="text_16">
     <!-- $S$ - Susceptible -->
     <g transform="translate(80.78125 84.12375) scale(0.1 -0.1)">
      <defs>
       <path id="DejaVuSans-Oblique-53" d="M 3859 4513 
L 3738 3897 
Q 3422 4066 3111 4152 
Q 2800 4238 2509 4238 
Q 1944 4238 1609 3991 
Q 1275 3744 1275 3334 
Q 1275 3109 1398 2989 
Q 1522 2869 2034 2731 
L 2413 2638 
Q 3053 2472 3303 2217 
Q 3553 1963 3553 1503 
Q 3553 797 2998 353 
Q 2444 -91 1538 -91 
Q 1166 -91 791 -17 
Q 416 56 38 206 
L 166 856 
Q 513 641 861 531 
Q 1209 422 1556 422 
Q 2147 422 2503 684 
Q 2859 947 2859 1369 
Q 2859 1650 2717 1795 
Q 2575 1941 2106 2059 
L 1728 2156 
Q 1081 2325 845 2545 
Q 609 2766 609 3163 
Q 609 3859 1145 4304 
Q 1681 4750 2541 4750 
Q 2875 4750 3203 4690 
Q 3531 4631 3859 4513 
z
" transform="scale(0.015625)"/>
       <path id="DejaVuSans-2d" d="M 313 2009 
L 1997 2009 
L 1997 1497 
L 313 1497 
L 313 2009 
z
" transform="scale(0.015625)"/>
       <path id="DejaVuSans-53" d="M 3425 4513 
L 3425 3897 
Q 3066 4069 2747 4153 
Q 2428 4238 2131 4238 
Q 1616 4238 1336 4038 
Q 1056 3838 1056 3469 
Q 1056 3159 1242 3001 
Q 1428 2844 1947 2747 
L 2328 2669 
Q 3034 2534 3370 2195 
Q 3706 1856 3706 1288 
Q 3706 609 3251 259 
Q 2797 -91 1919 -91 
Q 1588 -91 1214 -16 
Q 841 59 441 206 
L 441 856 
Q 825 641 1194 531 
Q 1563 422 1919 422 
Q 2459 422 2753 634 
Q 3047 847 3047 1241 
Q 3047 1584 2836 1778 
Q 2625 1972 2144 2069 
L 1759 2144 
Q 1053 2284 737 2584 
Q 422 2884 422 3419 
Q 422 4038 858 4394 
Q 1294 4750 2059 4750 
Q 2388 4750 2728 4690 
Q 3069 4631 3425 4513 
z
" transform="scale(0.015625)"/>
       <path id="DejaVuSans-63" d="M 3122 3366 
L 3122 2828 
Q 2878 2963 2633 3030 
Q 2388 3097 2138 3097 
Q 1578 3097 1268 2742 
Q 959 2388 959 1747 
Q 959 1106 1268 751 
Q 1578 397 2138 397 
Q 2388 397 2633 464 
Q 2878 531 3122 666 
L 3122 134 
Q 2881 22 2623 -34 
Q 2366 -91 2075 -91 
Q 1284 -91 818 406 
Q 353 903 353 1747 
Q 353 2603 823 3093 
Q 1294 3584 2113 3584 
Q 2378 3584 2631 3529 
Q 2884 3475 3122 3366 
z
" transform="scale(0.015625)"/>
       <path id="DejaVuSans-62" d="M 3116 1747 
Q 3116 2381 2855 2742 
Q 2594 3103 2138 3103 
Q 1681 3103 1420 2742 
Q 1159 2381 1159 1747 
Q 1159 1113 1420 752 
Q 1681 391 2138 391 
Q 2594 391 2855 752 
Q 3116 1113 3116 1747 
z
M 1159 2969 
Q 1341 3281 1617 3432 
Q 1894 3584 2278 3584 
Q 2916 3584 3314 3078 
Q 3713 2572 3713 1747 
Q 3713 922 3314 415 
Q 2916 -91 2278 -91 
Q 1894 -91 1617 61 
Q 1341 213 1159 525 
L 1159 0 
L 581 0 
L 581 4863 
L 1159 4863 
L 1159 2969 
z
" transform="scale(0.015625)"/>
      </defs>
      <use xlink:href="#DejaVuSans-Oblique-53" transform="translate(0 0.015625)"/>
      <use xlink:href="#DejaVuSans-20" transform="translate(63.476562 0.015625)"/>
      <use xlink:href="#DejaVuSans-2d" transform="translate(95.263672 0.015625)"/>
      <use xlink:href="#DejaVuSans-20" transform="translate(131.347656 0.015625)"/>
      <use xlink:href="#DejaVuSans-53" transform="translate(163.134766 0.015625)"/>
      <use xlink:href="#DejaVuSans-75" transform="translate(226.611328 0.015625)"/>
      <use xlink:href="#DejaVuSans-73" transform="translate(289.990234 0.015625)"/>
      <use xlink:href="#DejaVuSans-63" transform="translate(342.089844 0.015625)"/>
      <use xlink:href="#DejaVuSans-65" transform="translate(397.070312 0.015625)"/>
      <use xlink:href="#DejaVuSans-70" transform="translate(458.59375 0.015625)"/>
      <use xlink:href="#DejaVuSans-74" transform="translate(522.070312 0.015625)"/>
      <use xlink:href="#DejaVuSans-69" transform="translate(561.279297 0.015625)"/>
      <use xlink:href="#DejaVuSans-62" transform="translate(589.0625 0.015625)"/>
      <use xlink:href="#DejaVuSans-6c" transform="translate(652.539062 0.015625)"/>
      <use xlink:href="#DejaVuSans-65" transform="translate(680.322266 0.015625)"/>
     </g>
    </g>
    <g id="line2d_21">
     <path d="M 52.78125 95.322187 
L 62.78125 95.322187 
L 72.78125 95.322187 
" style="fill: none; stroke: #ff7f0e; stroke-width: 1.5; stroke-linecap: square"/>
    </g>
    <g id="text_17">
     <!-- $I$ - Infected -->
     <g transform="translate(80.78125 98.822187) scale(0.1 -0.1)">
      <defs>
       <path id="DejaVuSans-Oblique-49" d="M 1081 4666 
L 1716 4666 
L 806 0 
L 172 0 
L 1081 4666 
z
" transform="scale(0.015625)"/>
       <path id="DejaVuSans-49" d="M 628 4666 
L 1259 4666 
L 1259 0 
L 628 0 
L 628 4666 
z
" transform="scale(0.015625)"/>
       <path id="DejaVuSans-66" d="M 2375 4863 
L 2375 4384 
L 1825 4384 
Q 1516 4384 1395 4259 
Q 1275 4134 1275 3809 
L 1275 3500 
L 2222 3500 
L 2222 3053 
L 1275 3053 
L 1275 0 
L 697 0 
L 697 3053 
L 147 3053 
L 147 3500 
L 697 3500 
L 697 3744 
Q 697 4328 969 4595 
Q 1241 4863 1831 4863 
L 2375 4863 
z
" transform="scale(0.015625)"/>
      </defs>
      <use xlink:href="#DejaVuSans-Oblique-49" transform="translate(0 0.015625)"/>
      <use xlink:href="#DejaVuSans-20" transform="translate(29.492188 0.015625)"/>
      <use xlink:href="#DejaVuSans-2d" transform="translate(61.279297 0.015625)"/>
      <use xlink:href="#DejaVuSans-20" transform="translate(97.363281 0.015625)"/>
      <use xlink:href="#DejaVuSans-49" transform="translate(129.150391 0.015625)"/>
      <use xlink:href="#DejaVuSans-6e" transform="translate(158.642578 0.015625)"/>
      <use xlink:href="#DejaVuSans-66" transform="translate(222.021484 0.015625)"/>
      <use xlink:href="#DejaVuSans-65" transform="translate(257.226562 0.015625)"/>
      <use xlink:href="#DejaVuSans-63" transform="translate(318.75 0.015625)"/>
      <use xlink:href="#DejaVuSans-74" transform="translate(373.730469 0.015625)"/>
      <use xlink:href="#DejaVuSans-65" transform="translate(412.939453 0.015625)"/>
      <use xlink:href="#DejaVuSans-64" transform="translate(474.462891 0.015625)"/>
     </g>
    </g>
    <g id="line2d_22">
     <path d="M 52.78125 110.000312 
L 62.78125 110.000312 
L 72.78125 110.000312 
" style="fill: none; stroke: #2ca02c; stroke-width: 1.5; stroke-linecap: square"/>
    </g>
    <g id="text_18">
     <!-- $R$ - Recovered -->
     <g transform="translate(80.78125 113.500312) scale(0.1 -0.1)">
      <defs>
       <path id="DejaVuSans-Oblique-52" d="M 1613 4147 
L 1294 2491 
L 2106 2491 
Q 2584 2491 2879 2755 
Q 3175 3019 3175 3444 
Q 3175 3784 2976 3965 
Q 2778 4147 2406 4147 
L 1613 4147 
z
M 2772 2241 
Q 2972 2194 3105 2009 
Q 3238 1825 3413 1275 
L 3809 0 
L 3144 0 
L 2778 1197 
Q 2638 1659 2453 1815 
Q 2269 1972 1888 1972 
L 1191 1972 
L 806 0 
L 172 0 
L 1081 4666 
L 2503 4666 
Q 3150 4666 3495 4373 
Q 3841 4081 3841 3531 
Q 3841 3044 3547 2687 
Q 3253 2331 2772 2241 
z
" transform="scale(0.015625)"/>
       <path id="DejaVuSans-52" d="M 2841 2188 
Q 3044 2119 3236 1894 
Q 3428 1669 3622 1275 
L 4263 0 
L 3584 0 
L 2988 1197 
Q 2756 1666 2539 1819 
Q 2322 1972 1947 1972 
L 1259 1972 
L 1259 0 
L 628 0 
L 628 4666 
L 2053 4666 
Q 2853 4666 3247 4331 
Q 3641 3997 3641 3322 
Q 3641 2881 3436 2590 
Q 3231 2300 2841 2188 
z
M 1259 4147 
L 1259 2491 
L 2053 2491 
Q 2509 2491 2742 2702 
Q 2975 2913 2975 3322 
Q 2975 3731 2742 3939 
Q 2509 4147 2053 4147 
L 1259 4147 
z
" transform="scale(0.015625)"/>
       <path id="DejaVuSans-76" d="M 191 3500 
L 800 3500 
L 1894 563 
L 2988 3500 
L 3597 3500 
L 2284 0 
L 1503 0 
L 191 3500 
z
" transform="scale(0.015625)"/>
       <path id="DejaVuSans-72" d="M 2631 2963 
Q 2534 3019 2420 3045 
Q 2306 3072 2169 3072 
Q 1681 3072 1420 2755 
Q 1159 2438 1159 1844 
L 1159 0 
L 581 0 
L 581 3500 
L 1159 3500 
L 1159 2956 
Q 1341 3275 1631 3429 
Q 1922 3584 2338 3584 
Q 2397 3584 2469 3576 
Q 2541 3569 2628 3553 
L 2631 2963 
z
" transform="scale(0.015625)"/>
      </defs>
      <use xlink:href="#DejaVuSans-Oblique-52" transform="translate(0 0.015625)"/>
      <use xlink:href="#DejaVuSans-20" transform="translate(69.482422 0.015625)"/>
      <use xlink:href="#DejaVuSans-2d" transform="translate(101.269531 0.015625)"/>
      <use xlink:href="#DejaVuSans-20" transform="translate(137.353516 0.015625)"/>
      <use xlink:href="#DejaVuSans-52" transform="translate(169.140625 0.015625)"/>
      <use xlink:href="#DejaVuSans-65" transform="translate(238.623047 0.015625)"/>
      <use xlink:href="#DejaVuSans-63" transform="translate(300.146484 0.015625)"/>
      <use xlink:href="#DejaVuSans-6f" transform="translate(355.126953 0.015625)"/>
      <use xlink:href="#DejaVuSans-76" transform="translate(416.308594 0.015625)"/>
      <use xlink:href="#DejaVuSans-65" transform="translate(475.488281 0.015625)"/>
      <use xlink:href="#DejaVuSans-72" transform="translate(537.011719 0.015625)"/>
      <use xlink:href="#DejaVuSans-65" transform="translate(578.125 0.015625)"/>
      <use xlink:href="#DejaVuSans-64" transform="translate(639.648438 0.015625)"/>
     </g>
    </g>
    <g id="line2d_23">
     <path d="M 52.78125 124.678437 
L 62.78125 124.678437 
L 72.78125 124.678437 
" style="fill: none; stroke: #d62728; stroke-width: 1.5; stroke-linecap: square"/>
    </g>
    <g id="text_19">
     <!-- $Q$ - Quarantined -->
     <g transform="translate(80.78125 128.178437) scale(0.1 -0.1)">
      <defs>
       <path id="DejaVuSans-Oblique-51" d="M 2309 -84 
Q 2275 -88 2237 -89 
Q 2200 -91 2125 -91 
Q 1250 -91 756 411 
Q 263 913 263 1797 
Q 263 2319 452 2844 
Q 641 3369 978 3788 
Q 1369 4269 1858 4509 
Q 2347 4750 2938 4750 
Q 3794 4750 4287 4245 
Q 4781 3741 4781 2869 
Q 4781 1928 4265 1147 
Q 3750 366 2919 44 
L 3553 -825 
L 2847 -825 
L 2309 -84 
z
M 2919 4238 
Q 2400 4238 2003 3986 
Q 1606 3734 1313 3219 
Q 1125 2891 1026 2522 
Q 928 2153 928 1778 
Q 928 1128 1239 775 
Q 1550 422 2119 422 
Q 2631 422 3032 676 
Q 3434 931 3719 1434 
Q 3909 1772 4009 2142 
Q 4109 2513 4109 2881 
Q 4109 3528 3796 3883 
Q 3484 4238 2919 4238 
z
" transform="scale(0.015625)"/>
       <path id="DejaVuSans-51" d="M 2522 4238 
Q 1834 4238 1429 3725 
Q 1025 3213 1025 2328 
Q 1025 1447 1429 934 
Q 1834 422 2522 422 
Q 3209 422 3611 934 
Q 4013 1447 4013 2328 
Q 4013 3213 3611 3725 
Q 3209 4238 2522 4238 
z
M 3406 84 
L 4238 -825 
L 3475 -825 
L 2784 -78 
Q 2681 -84 2626 -87 
Q 2572 -91 2522 -91 
Q 1538 -91 948 567 
Q 359 1225 359 2328 
Q 359 3434 948 4092 
Q 1538 4750 2522 4750 
Q 3503 4750 4090 4092 
Q 4678 3434 4678 2328 
Q 4678 1516 4351 937 
Q 4025 359 3406 84 
z
" transform="scale(0.015625)"/>
      </defs>
      <use xlink:href="#DejaVuSans-Oblique-51" transform="translate(0 0.015625)"/>
      <use xlink:href="#DejaVuSans-20" transform="translate(78.710938 0.015625)"/>
      <use xlink:href="#DejaVuSans-2d" transform="translate(110.498047 0.015625)"/>
      <use xlink:href="#DejaVuSans-20" transform="translate(146.582031 0.015625)"/>
      <use xlink:href="#DejaVuSans-51" transform="translate(178.369141 0.015625)"/>
      <use xlink:href="#DejaVuSans-75" transform="translate(257.080078 0.015625)"/>
      <use xlink:href="#DejaVuSans-61" transform="translate(320.458984 0.015625)"/>
      <use xlink:href="#DejaVuSans-72" transform="translate(381.738281 0.015625)"/>
      <use xlink:href="#DejaVuSans-61" transform="translate(422.851562 0.015625)"/>
      <use xlink:href="#DejaVuSans-6e" transform="translate(484.130859 0.015625)"/>
      <use xlink:href="#DejaVuSans-74" transform="translate(547.509766 0.015625)"/>
      <use xlink:href="#DejaVuSans-69" transform="translate(586.71875 0.015625)"/>
      <use xlink:href="#DejaVuSans-6e" transform="translate(614.501953 0.015625)"/>
      <use xlink:href="#DejaVuSans-65" transform="translate(677.880859 0.015625)"/>
      <use xlink:href="#DejaVuSans-64" transform="translate(739.404297 0.015625)"/>
     </g>
    </g>
    <g id="line2d_24">
     <path d="M 52.78125 139.356562 
L 62.78125 139.356562 
L 72.78125 139.356562 
" style="fill: none; stroke: #9467bd; stroke-width: 1.5; stroke-linecap: square"/>
    </g>
    <g id="text_20">
     <!-- $D$ - Deceased -->
     <g transform="translate(80.78125 142.856562) scale(0.1 -0.1)">
      <defs>
       <path id="DejaVuSans-Oblique-44" d="M 1081 4666 
L 2438 4666 
Q 3519 4666 4070 4208 
Q 4622 3750 4622 2847 
Q 4622 2250 4412 1698 
Q 4203 1147 3834 769 
Q 3463 381 2891 190 
Q 2319 0 1538 0 
L 172 0 
L 1081 4666 
z
M 1613 4147 
L 909 519 
L 1734 519 
Q 2794 519 3375 1128 
Q 3956 1738 3956 2847 
Q 3956 3519 3581 3833 
Q 3206 4147 2406 4147 
L 1613 4147 
z
" transform="scale(0.015625)"/>
       <path id="DejaVuSans-44" d="M 1259 4147 
L 1259 519 
L 2022 519 
Q 2988 519 3436 956 
Q 3884 1394 3884 2338 
Q 3884 3275 3436 3711 
Q 2988 4147 2022 4147 
L 1259 4147 
z
M 628 4666 
L 1925 4666 
Q 3281 4666 3915 4102 
Q 4550 3538 4550 2338 
Q 4550 1131 3912 565 
Q 3275 0 1925 0 
L 628 0 
L 628 4666 
z
" transform="scale(0.015625)"/>
      </defs>
      <use xlink:href="#DejaVuSans-Oblique-44" transform="translate(0 0.015625)"/>
      <use xlink:href="#DejaVuSans-20" transform="translate(77.001953 0.015625)"/>
      <use xlink:href="#DejaVuSans-2d" transform="translate(108.789062 0.015625)"/>
      <use xlink:href="#DejaVuSans-20" transform="translate(144.873047 0.015625)"/>
      <use xlink:href="#DejaVuSans-44" transform="translate(176.660156 0.015625)"/>
      <use xlink:href="#DejaVuSans-65" transform="translate(253.662109 0.015625)"/>
      <use xlink:href="#DejaVuSans-63" transform="translate(315.185547 0.015625)"/>
      <use xlink:href="#DejaVuSans-65" transform="translate(370.166016 0.015625)"/>
      <use xlink:href="#DejaVuSans-61" transform="translate(431.689453 0.015625)"/>
      <use xlink:href="#DejaVuSans-73" transform="translate(492.96875 0.015625)"/>
      <use xlink:href="#DejaVuSans-65" transform="translate(545.068359 0.015625)"/>
      <use xlink:href="#DejaVuSans-64" transform="translate(606.591797 0.015625)"/>
     </g>
    </g>
    <g id="line2d_25">
     <path d="M 52.78125 154.03625 
L 62.78125 154.03625 
L 72.78125 154.03625 
" style="fill: none; stroke: #8c564b; stroke-width: 1.5; stroke-linecap: square"/>
    </g>
    <g id="text_21">
     <!-- $u$ - Testing Rate -->
     <g transform="translate(80.78125 157.53625) scale(0.1 -0.1)">
      <defs>
       <path id="DejaVuSans-Oblique-75" d="M 428 1388 
L 838 3500 
L 1416 3500 
L 1006 1409 
Q 975 1256 961 1147 
Q 947 1038 947 966 
Q 947 700 1109 554 
Q 1272 409 1569 409 
Q 2031 409 2368 721 
Q 2706 1034 2809 1563 
L 3194 3500 
L 3769 3500 
L 3091 0 
L 2516 0 
L 2631 550 
Q 2388 244 2052 76 
Q 1716 -91 1338 -91 
Q 878 -91 622 161 
Q 366 413 366 863 
Q 366 956 381 1097 
Q 397 1238 428 1388 
z
" transform="scale(0.015625)"/>
       <path id="DejaVuSans-54" d="M -19 4666 
L 3928 4666 
L 3928 4134 
L 2272 4134 
L 2272 0 
L 1638 0 
L 1638 4134 
L -19 4134 
L -19 4666 
z
" transform="scale(0.015625)"/>
       <path id="DejaVuSans-67" d="M 2906 1791 
Q 2906 2416 2648 2759 
Q 2391 3103 1925 3103 
Q 1463 3103 1205 2759 
Q 947 2416 947 1791 
Q 947 1169 1205 825 
Q 1463 481 1925 481 
Q 2391 481 2648 825 
Q 2906 1169 2906 1791 
z
M 3481 434 
Q 3481 -459 3084 -895 
Q 2688 -1331 1869 -1331 
Q 1566 -1331 1297 -1286 
Q 1028 -1241 775 -1147 
L 775 -588 
Q 1028 -725 1275 -790 
Q 1522 -856 1778 -856 
Q 2344 -856 2625 -561 
Q 2906 -266 2906 331 
L 2906 616 
Q 2728 306 2450 153 
Q 2172 0 1784 0 
Q 1141 0 747 490 
Q 353 981 353 1791 
Q 353 2603 747 3093 
Q 1141 3584 1784 3584 
Q 2172 3584 2450 3431 
Q 2728 3278 2906 2969 
L 2906 3500 
L 3481 3500 
L 3481 434 
z
" transform="scale(0.015625)"/>
      </defs>
      <use xlink:href="#DejaVuSans-Oblique-75" transform="translate(0 0.015625)"/>
      <use xlink:href="#DejaVuSans-20" transform="translate(63.378906 0.015625)"/>
      <use xlink:href="#DejaVuSans-2d" transform="translate(95.166016 0.015625)"/>
      <use xlink:href="#DejaVuSans-20" transform="translate(131.25 0.015625)"/>
      <use xlink:href="#DejaVuSans-54" transform="translate(163.037109 0.015625)"/>
      <use xlink:href="#DejaVuSans-65" transform="translate(224.121094 0.015625)"/>
      <use xlink:href="#DejaVuSans-73" transform="translate(285.644531 0.015625)"/>
      <use xlink:href="#DejaVuSans-74" transform="translate(337.744141 0.015625)"/>
      <use xlink:href="#DejaVuSans-69" transform="translate(376.953125 0.015625)"/>
      <use xlink:href="#DejaVuSans-6e" transform="translate(404.736328 0.015625)"/>
      <use xlink:href="#DejaVuSans-67" transform="translate(468.115234 0.015625)"/>
      <use xlink:href="#DejaVuSans-20" transform="translate(531.591797 0.015625)"/>
      <use xlink:href="#DejaVuSans-52" transform="translate(563.378906 0.015625)"/>
      <use xlink:href="#DejaVuSans-61" transform="translate(632.861328 0.015625)"/>
      <use xlink:href="#DejaVuSans-74" transform="translate(694.140625 0.015625)"/>
      <use xlink:href="#DejaVuSans-65" transform="translate(733.349609 0.015625)"/>
     </g>
    </g>
   </g>
  </g>
 </g>
 <defs>
  <clipPath id="p40bdeb6808">
   <rect x="43.78125" y="7.2" width="558" height="221.76"/>
  </clipPath>
 </defs>
</svg>
