<?xml version="1.0" encoding="utf-8" standalone="no"?>
<!DOCTYPE svg PUBLIC "-//W3C//DTD SVG 1.1//EN"
  "http://www.w3.org/Graphics/SVG/1.1/DTD/svg11.dtd">
<svg xmlns:xlink="http://www.w3.org/1999/xlink" width="608.98125pt" height="266.51625pt" viewBox="0 0 608.98125 266.51625" xmlns="http://www.w3.org/2000/svg" version="1.1">
 <metadata>
  <rdf:RDF xmlns:dc="http://purl.org/dc/elements/1.1/" xmlns:cc="http://creativecommons.org/ns#" xmlns:rdf="http://www.w3.org/1999/02/22-rdf-syntax-ns#">
   <cc:Work>
    <dc:type rdf:resource="http://purl.org/dc/dcmitype/StillImage"/>
    <dc:date>2025-06-05T14:02:05.660307</dc:date>
    <dc:format>image/svg+xml</dc:format>
    <dc:creator>
     <cc:Agent>
      <dc:title>Matplotlib v3.6.3, https://matplotlib.org/</dc:title>
     </cc:Agent>
    </dc:creator>
   </cc:Work>
  </rdf:RDF>
 </metadata>
 <defs>
  <style type="text/css">*{stroke-linejoin: round; stroke-linecap: butt}</style>
 </defs>
 <g id="figure_1">
  <g id="patch_1">
   <path d="M 0 266.51625 
L 608.98125 266.51625 
L 608.98125 0 
L 0 0 
z
" style="fill: #ffffff"/>
  </g>
  <g id="axes_1">
   <g id="patch_2">
    <path d="M 43.78125 228.96 
L 601.78125 228.96 
L 601.78125 7.2 
L 43.78125 7.2 
z
" style="fill: #ffffff"/>
   </g>
   <g id="matplotlib.axis_1">
    <g id="xtick_1">
     <g id="line2d_1">
      <defs>
       <path id="m7e7062a436" d="M 0 0 
L 0 3.5 
" style="stroke: #000000; stroke-width: 0.8"/>
      </defs>
      <g>
       <use xlink:href="#m7e7062a436" x="69.144886" y="228.96" style="stroke: #000000; stroke-width: 0.8"/>
      </g>
     </g>
     <g id="text_1">
      <!-- 0 -->
      <g transform="translate(65.963636 243.558437) scale(0.1 -0.1)">
       <defs>
        <path id="DejaVuSans-30" d="M 2034 4250 
Q 1547 4250 1301 3770 
Q 1056 3291 1056 2328 
Q 1056 1369 1301 889 
Q 1547 409 2034 409 
Q 2525 409 2770 889 
Q 3016 1369 3016 2328 
Q 3016 3291 2770 3770 
Q 2525 4250 2034 4250 
z
M 2034 4750 
Q 2819 4750 3233 4129 
Q 3647 3509 3647 2328 
Q 3647 1150 3233 529 
Q 2819 -91 2034 -91 
Q 1250 -91 836 529 
Q 422 1150 422 2328 
Q 422 3509 836 4129 
Q 1250 4750 2034 4750 
z
" transform="scale(0.015625)"/>
       </defs>
       <use xlink:href="#DejaVuSans-30"/>
      </g>
     </g>
    </g>
    <g id="xtick_2">
     <g id="line2d_2">
      <g>
       <use xlink:href="#m7e7062a436" x="153.973102" y="228.96" style="stroke: #000000; stroke-width: 0.8"/>
      </g>
     </g>
     <g id="text_2">
      <!-- 50 -->
      <g transform="translate(147.610602 243.558437) scale(0.1 -0.1)">
       <defs>
        <path id="DejaVuSans-35" d="M 691 4666 
L 3169 4666 
L 3169 4134 
L 1269 4134 
L 1269 2991 
Q 1406 3038 1543 3061 
Q 1681 3084 1819 3084 
Q 2600 3084 3056 2656 
Q 3513 2228 3513 1497 
Q 3513 744 3044 326 
Q 2575 -91 1722 -91 
Q 1428 -91 1123 -41 
Q 819 9 494 109 
L 494 744 
Q 775 591 1075 516 
Q 1375 441 1709 441 
Q 2250 441 2565 725 
Q 2881 1009 2881 1497 
Q 2881 1984 2565 2268 
Q 2250 2553 1709 2553 
Q 1456 2553 1204 2497 
Q 953 2441 691 2322 
L 691 4666 
z
" transform="scale(0.015625)"/>
       </defs>
       <use xlink:href="#DejaVuSans-35"/>
       <use xlink:href="#DejaVuSans-30" x="63.623047"/>
      </g>
     </g>
    </g>
    <g id="xtick_3">
     <g id="line2d_3">
      <g>
       <use xlink:href="#m7e7062a436" x="238.801317" y="228.96" style="stroke: #000000; stroke-width: 0.8"/>
      </g>
     </g>
     <g id="text_3">
      <!-- 100 -->
      <g transform="translate(229.257567 243.558437) scale(0.1 -0.1)">
       <defs>
        <path id="DejaVuSans-31" d="M 794 531 
L 1825 531 
L 1825 4091 
L 703 3866 
L 703 4441 
L 1819 4666 
L 2450 4666 
L 2450 531 
L 3481 531 
L 3481 0 
L 794 0 
L 794 531 
z
" transform="scale(0.015625)"/>
       </defs>
       <use xlink:href="#DejaVuSans-31"/>
       <use xlink:href="#DejaVuSans-30" x="63.623047"/>
       <use xlink:href="#DejaVuSans-30" x="127.246094"/>
      </g>
     </g>
    </g>
    <g id="xtick_4">
     <g id="line2d_4">
      <g>
       <use xlink:href="#m7e7062a436" x="323.629532" y="228.96" style="stroke: #000000; stroke-width: 0.8"/>
      </g>
     </g>
     <g id="text_4">
      <!-- 150 -->
      <g transform="translate(314.085782 243.558437) scale(0.1 -0.1)">
       <use xlink:href="#DejaVuSans-31"/>
       <use xlink:href="#DejaVuSans-35" x="63.623047"/>
       <use xlink:href="#DejaVuSans-30" x="127.246094"/>
      </g>
     </g>
    </g>
    <g id="xtick_5">
     <g id="line2d_5">
      <g>
       <use xlink:href="#m7e7062a436" x="408.457747" y="228.96" style="stroke: #000000; stroke-width: 0.8"/>
      </g>
     </g>
     <g id="text_5">
      <!-- 200 -->
      <g transform="translate(398.913997 243.558437) scale(0.1 -0.1)">
       <defs>
        <path id="DejaVuSans-32" d="M 1228 531 
L 3431 531 
L 3431 0 
L 469 0 
L 469 531 
Q 828 903 1448 1529 
Q 2069 2156 2228 2338 
Q 2531 2678 2651 2914 
Q 2772 3150 2772 3378 
Q 2772 3750 2511 3984 
Q 2250 4219 1831 4219 
Q 1534 4219 1204 4116 
Q 875 4013 500 3803 
L 500 4441 
Q 881 4594 1212 4672 
Q 1544 4750 1819 4750 
Q 2544 4750 2975 4387 
Q 3406 4025 3406 3419 
Q 3406 3131 3298 2873 
Q 3191 2616 2906 2266 
Q 2828 2175 2409 1742 
Q 1991 1309 1228 531 
z
" transform="scale(0.015625)"/>
       </defs>
       <use xlink:href="#DejaVuSans-32"/>
       <use xlink:href="#DejaVuSans-30" x="63.623047"/>
       <use xlink:href="#DejaVuSans-30" x="127.246094"/>
      </g>
     </g>
    </g>
    <g id="xtick_6">
     <g id="line2d_6">
      <g>
       <use xlink:href="#m7e7062a436" x="493.285963" y="228.96" style="stroke: #000000; stroke-width: 0.8"/>
      </g>
     </g>
     <g id="text_6">
      <!-- 250 -->
      <g transform="translate(483.742213 243.558437) scale(0.1 -0.1)">
       <use xlink:href="#DejaVuSans-32"/>
       <use xlink:href="#DejaVuSans-35" x="63.623047"/>
       <use xlink:href="#DejaVuSans-30" x="127.246094"/>
      </g>
     </g>
    </g>
    <g id="xtick_7">
     <g id="line2d_7">
      <g>
       <use xlink:href="#m7e7062a436" x="578.114178" y="228.96" style="stroke: #000000; stroke-width: 0.8"/>
      </g>
     </g>
     <g id="text_7">
      <!-- 300 -->
      <g transform="translate(568.570428 243.558437) scale(0.1 -0.1)">
       <defs>
        <path id="DejaVuSans-33" d="M 2597 2516 
Q 3050 2419 3304 2112 
Q 3559 1806 3559 1356 
Q 3559 666 3084 287 
Q 2609 -91 1734 -91 
Q 1441 -91 1130 -33 
Q 819 25 488 141 
L 488 750 
Q 750 597 1062 519 
Q 1375 441 1716 441 
Q 2309 441 2620 675 
Q 2931 909 2931 1356 
Q 2931 1769 2642 2001 
Q 2353 2234 1838 2234 
L 1294 2234 
L 1294 2753 
L 1863 2753 
Q 2328 2753 2575 2939 
Q 2822 3125 2822 3475 
Q 2822 3834 2567 4026 
Q 2313 4219 1838 4219 
Q 1578 4219 1281 4162 
Q 984 4106 628 3988 
L 628 4550 
Q 988 4650 1302 4700 
Q 1616 4750 1894 4750 
Q 2613 4750 3031 4423 
Q 3450 4097 3450 3541 
Q 3450 3153 3228 2886 
Q 3006 2619 2597 2516 
z
" transform="scale(0.015625)"/>
       </defs>
       <use xlink:href="#DejaVuSans-33"/>
       <use xlink:href="#DejaVuSans-30" x="63.623047"/>
       <use xlink:href="#DejaVuSans-30" x="127.246094"/>
      </g>
     </g>
    </g>
    <g id="text_8">
     <!-- time (days) -->
     <g transform="translate(294.192187 257.236562) scale(0.1 -0.1)">
      <defs>
       <path id="DejaVuSans-74" d="M 1172 4494 
L 1172 3500 
L 2356 3500 
L 2356 3053 
L 1172 3053 
L 1172 1153 
Q 1172 725 1289 603 
Q 1406 481 1766 481 
L 2356 481 
L 2356 0 
L 1766 0 
Q 1100 0 847 248 
Q 594 497 594 1153 
L 594 3053 
L 172 3053 
L 172 3500 
L 594 3500 
L 594 4494 
L 1172 4494 
z
" transform="scale(0.015625)"/>
       <path id="DejaVuSans-69" d="M 603 3500 
L 1178 3500 
L 1178 0 
L 603 0 
L 603 3500 
z
M 603 4863 
L 1178 4863 
L 1178 4134 
L 603 4134 
L 603 4863 
z
" transform="scale(0.015625)"/>
       <path id="DejaVuSans-6d" d="M 3328 2828 
Q 3544 3216 3844 3400 
Q 4144 3584 4550 3584 
Q 5097 3584 5394 3201 
Q 5691 2819 5691 2113 
L 5691 0 
L 5113 0 
L 5113 2094 
Q 5113 2597 4934 2840 
Q 4756 3084 4391 3084 
Q 3944 3084 3684 2787 
Q 3425 2491 3425 1978 
L 3425 0 
L 2847 0 
L 2847 2094 
Q 2847 2600 2669 2842 
Q 2491 3084 2119 3084 
Q 1678 3084 1418 2786 
Q 1159 2488 1159 1978 
L 1159 0 
L 581 0 
L 581 3500 
L 1159 3500 
L 1159 2956 
Q 1356 3278 1631 3431 
Q 1906 3584 2284 3584 
Q 2666 3584 2933 3390 
Q 3200 3197 3328 2828 
z
" transform="scale(0.015625)"/>
       <path id="DejaVuSans-65" d="M 3597 1894 
L 3597 1613 
L 953 1613 
Q 991 1019 1311 708 
Q 1631 397 2203 397 
Q 2534 397 2845 478 
Q 3156 559 3463 722 
L 3463 178 
Q 3153 47 2828 -22 
Q 2503 -91 2169 -91 
Q 1331 -91 842 396 
Q 353 884 353 1716 
Q 353 2575 817 3079 
Q 1281 3584 2069 3584 
Q 2775 3584 3186 3129 
Q 3597 2675 3597 1894 
z
M 3022 2063 
Q 3016 2534 2758 2815 
Q 2500 3097 2075 3097 
Q 1594 3097 1305 2825 
Q 1016 2553 972 2059 
L 3022 2063 
z
" transform="scale(0.015625)"/>
       <path id="DejaVuSans-20" transform="scale(0.015625)"/>
       <path id="DejaVuSans-28" d="M 1984 4856 
Q 1566 4138 1362 3434 
Q 1159 2731 1159 2009 
Q 1159 1288 1364 580 
Q 1569 -128 1984 -844 
L 1484 -844 
Q 1016 -109 783 600 
Q 550 1309 550 2009 
Q 550 2706 781 3412 
Q 1013 4119 1484 4856 
L 1984 4856 
z
" transform="scale(0.015625)"/>
       <path id="DejaVuSans-64" d="M 2906 2969 
L 2906 4863 
L 3481 4863 
L 3481 0 
L 2906 0 
L 2906 525 
Q 2725 213 2448 61 
Q 2172 -91 1784 -91 
Q 1150 -91 751 415 
Q 353 922 353 1747 
Q 353 2572 751 3078 
Q 1150 3584 1784 3584 
Q 2172 3584 2448 3432 
Q 2725 3281 2906 2969 
z
M 947 1747 
Q 947 1113 1208 752 
Q 1469 391 1925 391 
Q 2381 391 2643 752 
Q 2906 1113 2906 1747 
Q 2906 2381 2643 2742 
Q 2381 3103 1925 3103 
Q 1469 3103 1208 2742 
Q 947 2381 947 1747 
z
" transform="scale(0.015625)"/>
       <path id="DejaVuSans-61" d="M 2194 1759 
Q 1497 1759 1228 1600 
Q 959 1441 959 1056 
Q 959 750 1161 570 
Q 1363 391 1709 391 
Q 2188 391 2477 730 
Q 2766 1069 2766 1631 
L 2766 1759 
L 2194 1759 
z
M 3341 1997 
L 3341 0 
L 2766 0 
L 2766 531 
Q 2569 213 2275 61 
Q 1981 -91 1556 -91 
Q 1019 -91 701 211 
Q 384 513 384 1019 
Q 384 1609 779 1909 
Q 1175 2209 1959 2209 
L 2766 2209 
L 2766 2266 
Q 2766 2663 2505 2880 
Q 2244 3097 1772 3097 
Q 1472 3097 1187 3025 
Q 903 2953 641 2809 
L 641 3341 
Q 956 3463 1253 3523 
Q 1550 3584 1831 3584 
Q 2591 3584 2966 3190 
Q 3341 2797 3341 1997 
z
" transform="scale(0.015625)"/>
       <path id="DejaVuSans-79" d="M 2059 -325 
Q 1816 -950 1584 -1140 
Q 1353 -1331 966 -1331 
L 506 -1331 
L 506 -850 
L 844 -850 
Q 1081 -850 1212 -737 
Q 1344 -625 1503 -206 
L 1606 56 
L 191 3500 
L 800 3500 
L 1894 763 
L 2988 3500 
L 3597 3500 
L 2059 -325 
z
" transform="scale(0.015625)"/>
       <path id="DejaVuSans-73" d="M 2834 3397 
L 2834 2853 
Q 2591 2978 2328 3040 
Q 2066 3103 1784 3103 
Q 1356 3103 1142 2972 
Q 928 2841 928 2578 
Q 928 2378 1081 2264 
Q 1234 2150 1697 2047 
L 1894 2003 
Q 2506 1872 2764 1633 
Q 3022 1394 3022 966 
Q 3022 478 2636 193 
Q 2250 -91 1575 -91 
Q 1294 -91 989 -36 
Q 684 19 347 128 
L 347 722 
Q 666 556 975 473 
Q 1284 391 1588 391 
Q 1994 391 2212 530 
Q 2431 669 2431 922 
Q 2431 1156 2273 1281 
Q 2116 1406 1581 1522 
L 1381 1569 
Q 847 1681 609 1914 
Q 372 2147 372 2553 
Q 372 3047 722 3315 
Q 1072 3584 1716 3584 
Q 2034 3584 2315 3537 
Q 2597 3491 2834 3397 
z
" transform="scale(0.015625)"/>
       <path id="DejaVuSans-29" d="M 513 4856 
L 1013 4856 
Q 1481 4119 1714 3412 
Q 1947 2706 1947 2009 
Q 1947 1309 1714 600 
Q 1481 -109 1013 -844 
L 513 -844 
Q 928 -128 1133 580 
Q 1338 1288 1338 2009 
Q 1338 2731 1133 3434 
Q 928 4138 513 4856 
z
" transform="scale(0.015625)"/>
      </defs>
      <use xlink:href="#DejaVuSans-74"/>
      <use xlink:href="#DejaVuSans-69" x="39.208984"/>
      <use xlink:href="#DejaVuSans-6d" x="66.992188"/>
      <use xlink:href="#DejaVuSans-65" x="164.404297"/>
      <use xlink:href="#DejaVuSans-20" x="225.927734"/>
      <use xlink:href="#DejaVuSans-28" x="257.714844"/>
      <use xlink:href="#DejaVuSans-64" x="296.728516"/>
      <use xlink:href="#DejaVuSans-61" x="360.205078"/>
      <use xlink:href="#DejaVuSans-79" x="421.484375"/>
      <use xlink:href="#DejaVuSans-73" x="480.664062"/>
      <use xlink:href="#DejaVuSans-29" x="532.763672"/>
     </g>
    </g>
   </g>
   <g id="matplotlib.axis_2">
    <g id="ytick_1">
     <g id="line2d_8">
      <defs>
       <path id="m388de1d0cb" d="M 0 0 
L -3.5 0 
" style="stroke: #000000; stroke-width: 0.8"/>
      </defs>
      <g>
       <use xlink:href="#m388de1d0cb" x="43.78125" y="218.88" style="stroke: #000000; stroke-width: 0.8"/>
      </g>
     </g>
     <g id="text_9">
      <!-- 0.0 -->
      <g transform="translate(20.878125 222.679219) scale(0.1 -0.1)">
       <defs>
        <path id="DejaVuSans-2e" d="M 684 794 
L 1344 794 
L 1344 0 
L 684 0 
L 684 794 
z
" transform="scale(0.015625)"/>
       </defs>
       <use xlink:href="#DejaVuSans-30"/>
       <use xlink:href="#DejaVuSans-2e" x="63.623047"/>
       <use xlink:href="#DejaVuSans-30" x="95.410156"/>
      </g>
     </g>
    </g>
    <g id="ytick_2">
     <g id="line2d_9">
      <g>
       <use xlink:href="#m388de1d0cb" x="43.78125" y="178.559597" style="stroke: #000000; stroke-width: 0.8"/>
      </g>
     </g>
     <g id="text_10">
      <!-- 0.2 -->
      <g transform="translate(20.878125 182.358816) scale(0.1 -0.1)">
       <use xlink:href="#DejaVuSans-30"/>
       <use xlink:href="#DejaVuSans-2e" x="63.623047"/>
       <use xlink:href="#DejaVuSans-32" x="95.410156"/>
      </g>
     </g>
    </g>
    <g id="ytick_3">
     <g id="line2d_10">
      <g>
       <use xlink:href="#m388de1d0cb" x="43.78125" y="138.239194" style="stroke: #000000; stroke-width: 0.8"/>
      </g>
     </g>
     <g id="text_11">
      <!-- 0.4 -->
      <g transform="translate(20.878125 142.038412) scale(0.1 -0.1)">
       <defs>
        <path id="DejaVuSans-34" d="M 2419 4116 
L 825 1625 
L 2419 1625 
L 2419 4116 
z
M 2253 4666 
L 3047 4666 
L 3047 1625 
L 3713 1625 
L 3713 1100 
L 3047 1100 
L 3047 0 
L 2419 0 
L 2419 1100 
L 313 1100 
L 313 1709 
L 2253 4666 
z
" transform="scale(0.015625)"/>
       </defs>
       <use xlink:href="#DejaVuSans-30"/>
       <use xlink:href="#DejaVuSans-2e" x="63.623047"/>
       <use xlink:href="#DejaVuSans-34" x="95.410156"/>
      </g>
     </g>
    </g>
    <g id="ytick_4">
     <g id="line2d_11">
      <g>
       <use xlink:href="#m388de1d0cb" x="43.78125" y="97.91879" style="stroke: #000000; stroke-width: 0.8"/>
      </g>
     </g>
     <g id="text_12">
      <!-- 0.6 -->
      <g transform="translate(20.878125 101.718009) scale(0.1 -0.1)">
       <defs>
        <path id="DejaVuSans-36" d="M 2113 2584 
Q 1688 2584 1439 2293 
Q 1191 2003 1191 1497 
Q 1191 994 1439 701 
Q 1688 409 2113 409 
Q 2538 409 2786 701 
Q 3034 994 3034 1497 
Q 3034 2003 2786 2293 
Q 2538 2584 2113 2584 
z
M 3366 4563 
L 3366 3988 
Q 3128 4100 2886 4159 
Q 2644 4219 2406 4219 
Q 1781 4219 1451 3797 
Q 1122 3375 1075 2522 
Q 1259 2794 1537 2939 
Q 1816 3084 2150 3084 
Q 2853 3084 3261 2657 
Q 3669 2231 3669 1497 
Q 3669 778 3244 343 
Q 2819 -91 2113 -91 
Q 1303 -91 875 529 
Q 447 1150 447 2328 
Q 447 3434 972 4092 
Q 1497 4750 2381 4750 
Q 2619 4750 2861 4703 
Q 3103 4656 3366 4563 
z
" transform="scale(0.015625)"/>
       </defs>
       <use xlink:href="#DejaVuSans-30"/>
       <use xlink:href="#DejaVuSans-2e" x="63.623047"/>
       <use xlink:href="#DejaVuSans-36" x="95.410156"/>
      </g>
     </g>
    </g>
    <g id="ytick_5">
     <g id="line2d_12">
      <g>
       <use xlink:href="#m388de1d0cb" x="43.78125" y="57.598387" style="stroke: #000000; stroke-width: 0.8"/>
      </g>
     </g>
     <g id="text_13">
      <!-- 0.8 -->
      <g transform="translate(20.878125 61.397606) scale(0.1 -0.1)">
       <defs>
        <path id="DejaVuSans-38" d="M 2034 2216 
Q 1584 2216 1326 1975 
Q 1069 1734 1069 1313 
Q 1069 891 1326 650 
Q 1584 409 2034 409 
Q 2484 409 2743 651 
Q 3003 894 3003 1313 
Q 3003 1734 2745 1975 
Q 2488 2216 2034 2216 
z
M 1403 2484 
Q 997 2584 770 2862 
Q 544 3141 544 3541 
Q 544 4100 942 4425 
Q 1341 4750 2034 4750 
Q 2731 4750 3128 4425 
Q 3525 4100 3525 3541 
Q 3525 3141 3298 2862 
Q 3072 2584 2669 2484 
Q 3125 2378 3379 2068 
Q 3634 1759 3634 1313 
Q 3634 634 3220 271 
Q 2806 -91 2034 -91 
Q 1263 -91 848 271 
Q 434 634 434 1313 
Q 434 1759 690 2068 
Q 947 2378 1403 2484 
z
M 1172 3481 
Q 1172 3119 1398 2916 
Q 1625 2713 2034 2713 
Q 2441 2713 2670 2916 
Q 2900 3119 2900 3481 
Q 2900 3844 2670 4047 
Q 2441 4250 2034 4250 
Q 1625 4250 1398 4047 
Q 1172 3844 1172 3481 
z
" transform="scale(0.015625)"/>
       </defs>
       <use xlink:href="#DejaVuSans-30"/>
       <use xlink:href="#DejaVuSans-2e" x="63.623047"/>
       <use xlink:href="#DejaVuSans-38" x="95.410156"/>
      </g>
     </g>
    </g>
    <g id="ytick_6">
     <g id="line2d_13">
      <g>
       <use xlink:href="#m388de1d0cb" x="43.78125" y="17.277984" style="stroke: #000000; stroke-width: 0.8"/>
      </g>
     </g>
     <g id="text_14">
      <!-- 1.0 -->
      <g transform="translate(20.878125 21.077203) scale(0.1 -0.1)">
       <use xlink:href="#DejaVuSans-31"/>
       <use xlink:href="#DejaVuSans-2e" x="63.623047"/>
       <use xlink:href="#DejaVuSans-30" x="95.410156"/>
      </g>
     </g>
    </g>
    <g id="text_15">
     <!-- Population -->
     <g transform="translate(14.798438 144.346406) rotate(-90) scale(0.1 -0.1)">
      <defs>
       <path id="DejaVuSans-50" d="M 1259 4147 
L 1259 2394 
L 2053 2394 
Q 2494 2394 2734 2622 
Q 2975 2850 2975 3272 
Q 2975 3691 2734 3919 
Q 2494 4147 2053 4147 
L 1259 4147 
z
M 628 4666 
L 2053 4666 
Q 2838 4666 3239 4311 
Q 3641 3956 3641 3272 
Q 3641 2581 3239 2228 
Q 2838 1875 2053 1875 
L 1259 1875 
L 1259 0 
L 628 0 
L 628 4666 
z
" transform="scale(0.015625)"/>
       <path id="DejaVuSans-6f" d="M 1959 3097 
Q 1497 3097 1228 2736 
Q 959 2375 959 1747 
Q 959 1119 1226 758 
Q 1494 397 1959 397 
Q 2419 397 2687 759 
Q 2956 1122 2956 1747 
Q 2956 2369 2687 2733 
Q 2419 3097 1959 3097 
z
M 1959 3584 
Q 2709 3584 3137 3096 
Q 3566 2609 3566 1747 
Q 3566 888 3137 398 
Q 2709 -91 1959 -91 
Q 1206 -91 779 398 
Q 353 888 353 1747 
Q 353 2609 779 3096 
Q 1206 3584 1959 3584 
z
" transform="scale(0.015625)"/>
       <path id="DejaVuSans-70" d="M 1159 525 
L 1159 -1331 
L 581 -1331 
L 581 3500 
L 1159 3500 
L 1159 2969 
Q 1341 3281 1617 3432 
Q 1894 3584 2278 3584 
Q 2916 3584 3314 3078 
Q 3713 2572 3713 1747 
Q 3713 922 3314 415 
Q 2916 -91 2278 -91 
Q 1894 -91 1617 61 
Q 1341 213 1159 525 
z
M 3116 1747 
Q 3116 2381 2855 2742 
Q 2594 3103 2138 3103 
Q 1681 3103 1420 2742 
Q 1159 2381 1159 1747 
Q 1159 1113 1420 752 
Q 1681 391 2138 391 
Q 2594 391 2855 752 
Q 3116 1113 3116 1747 
z
" transform="scale(0.015625)"/>
       <path id="DejaVuSans-75" d="M 544 1381 
L 544 3500 
L 1119 3500 
L 1119 1403 
Q 1119 906 1312 657 
Q 1506 409 1894 409 
Q 2359 409 2629 706 
Q 2900 1003 2900 1516 
L 2900 3500 
L 3475 3500 
L 3475 0 
L 2900 0 
L 2900 538 
Q 2691 219 2414 64 
Q 2138 -91 1772 -91 
Q 1169 -91 856 284 
Q 544 659 544 1381 
z
M 1991 3584 
L 1991 3584 
z
" transform="scale(0.015625)"/>
       <path id="DejaVuSans-6c" d="M 603 4863 
L 1178 4863 
L 1178 0 
L 603 0 
L 603 4863 
z
" transform="scale(0.015625)"/>
       <path id="DejaVuSans-6e" d="M 3513 2113 
L 3513 0 
L 2938 0 
L 2938 2094 
Q 2938 2591 2744 2837 
Q 2550 3084 2163 3084 
Q 1697 3084 1428 2787 
Q 1159 2491 1159 1978 
L 1159 0 
L 581 0 
L 581 3500 
L 1159 3500 
L 1159 2956 
Q 1366 3272 1645 3428 
Q 1925 3584 2291 3584 
Q 2894 3584 3203 3211 
Q 3513 2838 3513 2113 
z
" transform="scale(0.015625)"/>
      </defs>
      <use xlink:href="#DejaVuSans-50"/>
      <use xlink:href="#DejaVuSans-6f" x="56.677734"/>
      <use xlink:href="#DejaVuSans-70" x="117.859375"/>
      <use xlink:href="#DejaVuSans-75" x="181.335938"/>
      <use xlink:href="#DejaVuSans-6c" x="244.714844"/>
      <use xlink:href="#DejaVuSans-61" x="272.498047"/>
      <use xlink:href="#DejaVuSans-74" x="333.777344"/>
      <use xlink:href="#DejaVuSans-69" x="372.986328"/>
      <use xlink:href="#DejaVuSans-6f" x="400.769531"/>
      <use xlink:href="#DejaVuSans-6e" x="461.951172"/>
     </g>
    </g>
   </g>
   <g id="line2d_14">
    <path d="M 69.144886 17.28 
L 114.952123 17.39006 
L 128.524637 17.617421 
L 137.007459 17.95711 
L 143.793716 18.451082 
L 148.883409 19.042042 
L 153.973102 19.918811 
L 157.36623 20.712882 
L 160.759359 21.75601 
L 164.152487 23.098274 
L 167.545616 24.843725 
L 169.24218 25.897062 
L 170.938745 27.09104 
L 172.635309 28.4262 
L 174.331873 29.952799 
L 176.028438 31.688877 
L 177.725002 33.613049 
L 179.421566 35.765184 
L 181.118131 38.153849 
L 182.814695 40.842998 
L 184.511259 43.841405 
L 186.207823 47.176769 
L 187.904388 50.788044 
L 189.600952 54.698057 
L 191.297516 58.927182 
L 194.690645 68.499471 
L 198.083774 79.19581 
L 201.476902 91.114621 
L 206.566595 109.889298 
L 213.352852 135.106942 
L 216.745981 146.665237 
L 220.13911 157.071208 
L 221.835674 161.68981 
L 223.532238 165.918497 
L 225.228802 169.789884 
L 226.925367 173.3726 
L 228.621931 176.631092 
L 230.318495 179.629745 
L 232.01506 182.390024 
L 233.711624 184.904203 
L 235.408188 187.16577 
L 237.104753 189.237506 
L 238.801317 191.111008 
L 240.497881 192.784087 
L 242.194446 194.268066 
L 245.587574 196.765297 
L 248.980703 198.74415 
L 252.373831 200.327864 
L 255.76696 201.572999 
L 259.160089 202.498204 
L 262.553217 203.178481 
L 265.946346 203.654855 
L 269.339474 203.934858 
L 274.429167 204.082675 
L 279.51886 203.989611 
L 284.608553 203.641492 
L 291.39481 202.925347 
L 298.181068 201.987676 
L 304.967325 200.859959 
L 315.146711 198.898744 
L 323.629532 197.04709 
L 335.505482 194.255227 
L 350.774561 190.452494 
L 423.726826 171.968993 
L 449.175291 165.861625 
L 461.051241 163.27174 
L 474.623755 160.606029 
L 484.803141 158.865342 
L 493.285963 157.594204 
L 501.768784 156.540394 
L 511.94817 155.481003 
L 522.127556 154.616353 
L 528.913813 154.166557 
L 537.396635 153.786796 
L 545.879456 153.586657 
L 556.058842 153.597652 
L 564.541663 153.788072 
L 571.327921 154.175711 
L 576.417614 154.619967 
L 576.417614 154.619967 
" clip-path="url(#p558e57ef96)" style="fill: none; stroke: #1f77b4; stroke-width: 1.5; stroke-linecap: square"/>
   </g>
   <g id="line2d_15">
    <path d="M 69.144886 218.877984 
L 118.345251 218.768468 
L 131.917766 218.540513 
L 140.400587 218.216701 
L 145.49028 217.89985 
L 152.276537 217.206271 
L 155.669666 216.731348 
L 162.455923 215.223876 
L 165.849052 214.045345 
L 169.24218 212.613223 
L 170.938745 211.827882 
L 174.331873 209.571361 
L 176.028438 208.465762 
L 179.421566 205.66093 
L 182.814695 201.810551 
L 184.511259 199.564953 
L 186.207823 197.555413 
L 187.904388 195.288865 
L 189.600952 192.748273 
L 191.297516 189.47908 
L 194.690645 183.891489 
L 196.387209 180.285694 
L 198.083774 176.140538 
L 199.780338 172.926374 
L 201.476902 170.011838 
L 206.566595 158.814943 
L 208.263159 155.887402 
L 209.959724 151.845097 
L 211.656288 148.307231 
L 213.352852 146.581949 
L 215.049417 143.797427 
L 216.745981 141.842232 
L 218.442545 140.725523 
L 220.13911 140.865971 
L 223.532238 141.583614 
L 225.228802 141.151312 
L 226.925367 141.926257 
L 230.318495 141.777771 
L 232.01506 142.381214 
L 233.711624 143.826107 
L 235.408188 144.090289 
L 237.104753 145.162876 
L 238.801317 146.997181 
L 242.194446 151.286428 
L 243.89101 152.888204 
L 245.587574 155.127919 
L 248.980703 157.582954 
L 250.677267 159.544027 
L 252.373831 160.357431 
L 254.070396 163.02139 
L 255.76696 165.023324 
L 257.463524 166.839342 
L 259.160089 168.007233 
L 260.856653 170.7869 
L 262.553217 172.103265 
L 264.249781 173.275929 
L 265.946346 175.73404 
L 267.64291 177.526005 
L 269.339474 179.154221 
L 272.732603 181.72909 
L 274.429167 182.389007 
L 276.125732 184.32141 
L 277.822296 185.385655 
L 281.215425 188.878452 
L 284.608553 190.738778 
L 286.305117 191.879199 
L 288.001682 192.463742 
L 289.698246 193.42088 
L 291.39481 193.917115 
L 293.091375 195.089393 
L 294.787939 195.709583 
L 296.484503 196.852747 
L 298.181068 197.218136 
L 299.877632 197.775504 
L 303.27076 199.730151 
L 308.360453 201.130144 
L 310.057018 201.486424 
L 311.753582 202.076286 
L 313.450146 202.359518 
L 316.843275 203.840546 
L 318.539839 204.389756 
L 323.629532 205.307698 
L 325.326096 205.882416 
L 327.022661 206.291746 
L 330.415789 206.550761 
L 332.112354 206.975911 
L 333.808918 207.154061 
L 335.505482 207.456682 
L 337.202047 207.550124 
L 338.898611 207.963953 
L 340.595175 208.12054 
L 342.29174 208.475661 
L 343.988304 208.648968 
L 347.381432 209.370152 
L 354.16769 209.575515 
L 357.560818 210.134383 
L 360.953947 210.287572 
L 362.650511 210.502885 
L 366.04364 210.58286 
L 367.740204 210.892297 
L 369.436768 210.941662 
L 371.133333 211.19027 
L 376.223026 211.460815 
L 379.616154 211.890677 
L 381.312719 211.995622 
L 383.009283 211.984447 
L 384.705847 212.202003 
L 391.492104 212.298045 
L 399.974926 212.49183 
L 405.064619 213.008447 
L 406.761183 212.981897 
L 418.637133 213.481924 
L 427.119955 213.810345 
L 430.513083 214.013671 
L 432.209648 213.952758 
L 438.995905 214.130446 
L 452.568419 214.081289 
L 454.264984 213.985342 
L 457.658112 214.005153 
L 471.230627 213.732979 
L 472.927191 213.618423 
L 476.32032 213.62852 
L 479.713448 213.420008 
L 484.803141 213.338788 
L 486.499705 213.187201 
L 488.19627 213.220397 
L 503.465349 212.430694 
L 506.858477 212.371582 
L 510.251606 212.322503 
L 511.94817 212.323287 
L 513.644734 212.144716 
L 517.037863 212.108944 
L 518.734427 211.971602 
L 522.127556 212.050976 
L 525.520684 211.647532 
L 528.913813 211.619816 
L 535.70007 211.083947 
L 537.396635 211.125146 
L 539.093199 210.935117 
L 540.789763 210.973867 
L 547.57602 210.478579 
L 549.272585 210.496282 
L 554.362278 210.078673 
L 557.755406 210.072934 
L 561.148535 209.751304 
L 562.845099 209.474723 
L 566.238228 209.126867 
L 571.327921 208.305035 
L 573.024485 208.212686 
L 576.417614 207.586265 
L 576.417614 207.586265 
" clip-path="url(#p558e57ef96)" style="fill: none; stroke: #ff7f0e; stroke-width: 1.5; stroke-linecap: square"/>
   </g>
   <g id="line2d_16">
    <path d="M 69.144886 218.88 
L 138.704023 218.780802 
L 152.276537 218.579875 
L 160.759359 218.285409 
L 167.545616 217.864962 
L 172.635309 217.370317 
L 177.725002 216.648518 
L 181.118131 215.986089 
L 184.511259 215.150143 
L 187.904388 214.088949 
L 191.297516 212.74004 
L 194.690645 211.087124 
L 198.083774 209.053573 
L 201.476902 206.643412 
L 204.870031 203.768012 
L 208.263159 200.476415 
L 211.656288 196.765333 
L 215.049417 192.672739 
L 218.442545 188.223195 
L 221.835674 183.432497 
L 226.925367 175.750925 
L 240.497881 154.881089 
L 247.284138 144.831955 
L 252.373831 137.727993 
L 257.463524 131.049505 
L 262.553217 124.781359 
L 267.64291 118.965353 
L 272.732603 113.579108 
L 276.125732 110.275238 
L 281.215425 105.684812 
L 284.608553 102.848914 
L 288.001682 100.222029 
L 291.39481 97.803126 
L 296.484503 94.537208 
L 299.877632 92.576046 
L 304.967325 89.951487 
L 310.057018 87.68017 
L 315.146711 85.761703 
L 320.236404 84.124459 
L 325.326096 82.773241 
L 330.415789 81.678807 
L 335.505482 80.838563 
L 340.595175 80.217369 
L 345.684868 79.788991 
L 350.774561 79.525101 
L 355.864254 79.44139 
L 362.650511 79.545961 
L 369.436768 79.870671 
L 377.91959 80.528257 
L 386.402411 81.407852 
L 394.885233 82.498925 
L 406.761183 84.287523 
L 420.333698 86.562075 
L 437.299341 89.657187 
L 457.658112 93.62768 
L 489.892834 99.96249 
L 505.161913 102.737247 
L 517.037863 104.676189 
L 530.610377 106.641473 
L 542.486328 108.146365 
L 554.362278 109.415546 
L 564.541663 110.306734 
L 576.417614 111.165187 
L 576.417614 111.165187 
" clip-path="url(#p558e57ef96)" style="fill: none; stroke: #2ca02c; stroke-width: 1.5; stroke-linecap: square"/>
   </g>
   <g id="line2d_17">
    <path d="M 69.144886 218.88 
L 140.400587 218.774358 
L 157.36623 218.434303 
L 167.545616 217.911964 
L 174.331873 217.377015 
L 179.421566 216.364937 
L 181.118131 216.218018 
L 184.511259 215.671764 
L 187.904388 214.15089 
L 189.600952 213.470412 
L 191.297516 213.280032 
L 192.994081 212.359609 
L 194.690645 211.08371 
L 196.387209 210.559121 
L 198.083774 210.335155 
L 199.780338 208.91734 
L 201.476902 207.1511 
L 206.566595 204.396677 
L 208.263159 202.744954 
L 209.959724 202.424217 
L 211.656288 201.709947 
L 213.352852 199.393469 
L 215.049417 198.558995 
L 216.745981 197.197826 
L 218.442545 195.379278 
L 220.13911 192.739606 
L 221.835674 190.386967 
L 223.532238 188.497136 
L 225.228802 187.814453 
L 226.925367 186.237838 
L 228.621931 185.844349 
L 230.318495 185.764583 
L 232.01506 185.212888 
L 233.711624 184.062063 
L 235.408188 184.346849 
L 237.104753 183.982445 
L 238.801317 183.032921 
L 240.497881 181.903343 
L 242.194446 181.059655 
L 243.89101 180.845183 
L 245.587574 180.091698 
L 248.980703 180.872305 
L 250.677267 180.593623 
L 252.373831 181.519637 
L 254.070396 180.597858 
L 255.76696 180.403522 
L 257.463524 180.425195 
L 259.160089 181.110967 
L 260.856653 180.172266 
L 262.553217 180.737359 
L 264.249781 181.429002 
L 265.946346 180.810986 
L 267.64291 180.877379 
L 269.339474 181.09907 
L 272.732603 182.165876 
L 274.429167 183.282471 
L 276.125732 183.07669 
L 277.822296 183.733385 
L 281.215425 183.599621 
L 284.608553 185.021264 
L 286.305117 185.462736 
L 288.001682 186.429992 
L 289.698246 186.976488 
L 291.39481 187.950525 
L 293.091375 188.20043 
L 294.787939 188.979978 
L 296.484503 189.195616 
L 298.181068 190.168395 
L 299.877632 190.901751 
L 303.27076 191.429351 
L 310.057018 194.296156 
L 311.753582 194.76948 
L 313.450146 195.522677 
L 316.843275 196.023074 
L 318.539839 196.438478 
L 323.629532 198.253825 
L 325.326096 198.529402 
L 327.022661 198.953916 
L 330.415789 200.285284 
L 332.112354 200.607407 
L 333.808918 201.159125 
L 335.505482 201.559313 
L 337.202047 202.148272 
L 338.898611 202.388301 
L 340.595175 202.872465 
L 342.29174 203.134304 
L 343.988304 203.564213 
L 347.381432 203.997444 
L 352.471125 205.435318 
L 354.16769 205.888044 
L 359.257383 206.62096 
L 360.953947 206.978209 
L 362.650511 207.175516 
L 366.04364 207.884946 
L 367.740204 207.942827 
L 369.436768 208.258114 
L 371.133333 208.358315 
L 376.223026 209.079757 
L 379.616154 209.263287 
L 389.79554 210.46346 
L 394.885233 211.187869 
L 396.581797 211.333162 
L 398.278362 211.33074 
L 399.974926 211.573049 
L 405.064619 211.598625 
L 406.761183 211.806667 
L 427.119955 212.744203 
L 430.513083 212.78752 
L 432.209648 212.97079 
L 442.389034 213.364477 
L 450.871855 213.83513 
L 462.747805 214.292799 
L 464.444369 214.274076 
L 466.140934 214.382685 
L 469.534062 214.434696 
L 472.927191 214.672113 
L 476.32032 214.633685 
L 479.713448 214.801341 
L 484.803141 214.779144 
L 486.499705 214.890861 
L 488.19627 214.806003 
L 498.375656 214.975121 
L 503.465349 214.930986 
L 506.858477 214.800582 
L 510.251606 214.656338 
L 511.94817 214.561628 
L 513.644734 214.649114 
L 517.037863 214.482818 
L 518.734427 214.520458 
L 522.127556 214.233559 
L 525.520684 214.434189 
L 528.913813 214.222224 
L 535.70007 214.258173 
L 537.396635 214.074969 
L 539.093199 214.131834 
L 540.789763 213.949056 
L 545.879456 213.913366 
L 547.57602 213.872399 
L 549.272585 213.700519 
L 554.362278 213.662685 
L 557.755406 213.353805 
L 561.148535 213.36931 
L 562.845099 213.482177 
L 567.934792 213.541396 
L 571.327921 213.667946 
L 573.024485 213.52783 
L 576.417614 213.681565 
L 576.417614 213.681565 
" clip-path="url(#p558e57ef96)" style="fill: none; stroke: #d62728; stroke-width: 1.5; stroke-linecap: square"/>
   </g>
   <g id="line2d_18">
    <path d="M 69.144886 218.88 
L 170.938745 218.770146 
L 186.207823 218.527881 
L 196.387209 218.158416 
L 204.870031 217.649751 
L 213.352852 216.937975 
L 225.228802 215.696887 
L 248.980703 213.182619 
L 262.553217 211.99752 
L 276.125732 211.041222 
L 291.39481 210.201871 
L 308.360453 209.49045 
L 328.719225 208.858863 
L 355.864254 208.262066 
L 391.492104 207.722188 
L 442.389034 207.188229 
L 547.57602 206.154818 
L 576.417614 205.745 
L 576.417614 205.745 
" clip-path="url(#p558e57ef96)" style="fill: none; stroke: #9467bd; stroke-width: 1.5; stroke-linecap: square"/>
   </g>
   <g id="line2d_19">
    <path d="M 69.144886 211.111415 
L 70.841451 211.469861 
L 72.538015 210.906788 
L 74.234579 215.327231 
L 75.931144 214.105929 
L 77.627708 209.976193 
L 79.324272 209.919194 
L 81.020837 213.645499 
L 82.717401 211.149494 
L 84.413965 212.459987 
L 86.110529 213.085081 
L 87.807094 215.264088 
L 89.503658 211.006583 
L 91.200222 216.837366 
L 92.896787 214.4952 
L 94.593351 215.580543 
L 96.289915 215.774636 
L 97.98648 210.797568 
L 99.683044 213.939246 
L 101.379608 209.751063 
L 103.076172 215.430786 
L 104.772737 214.694744 
L 108.165865 211.038334 
L 109.86243 209.594032 
L 111.558994 212.346587 
L 113.255558 215.55736 
L 114.952123 214.34761 
L 116.648687 212.585681 
L 118.345251 213.915582 
L 120.041816 210.246478 
L 121.73838 209.844677 
L 123.434944 212.264439 
L 125.131508 216.089415 
L 126.828073 216.181144 
L 128.524637 210.114953 
L 130.221201 216.605574 
L 131.917766 210.368017 
L 133.61433 210.110853 
L 135.310894 213.754113 
L 137.007459 210.941547 
L 138.704023 214.936261 
L 140.400587 209.987953 
L 142.097151 214.929127 
L 143.793716 208.805588 
L 145.49028 215.771806 
L 147.186844 212.246748 
L 148.883409 209.98593 
L 150.579973 210.779507 
L 152.276537 210.37144 
L 153.973102 210.246075 
L 155.669666 216.313681 
L 157.36623 211.382432 
L 159.062795 212.98593 
L 160.759359 208.944648 
L 162.455923 214.839414 
L 164.152487 213.791423 
L 165.849052 211.999924 
L 167.545616 212.680633 
L 169.24218 209.983033 
L 170.938745 215.478138 
L 172.635309 214.743136 
L 174.331873 209.474329 
L 176.028438 212.125252 
L 177.725002 211.079236 
L 179.421566 215.066732 
L 181.118131 213.772882 
L 182.814695 214.229922 
L 184.511259 209.282221 
L 187.904388 211.407913 
L 189.600952 215.70015 
L 191.297516 210.994303 
L 192.994081 209.238712 
L 194.690645 214.015548 
L 196.387209 215.928021 
L 198.083774 210.53962 
L 199.780338 209.339385 
L 201.476902 212.999076 
L 204.870031 213.724616 
L 206.566595 211.343086 
L 208.263159 215.736323 
L 209.959724 214.702824 
L 211.656288 210.251616 
L 213.352852 214.32523 
L 215.049417 212.988068 
L 216.745981 211.794633 
L 218.442545 209.585423 
L 220.13911 210.030759 
L 221.835674 210.941134 
L 223.532238 213.850459 
L 225.228802 211.487276 
L 226.925367 214.343016 
L 228.621931 215.125045 
L 230.318495 213.887351 
L 232.01506 212.209432 
L 233.711624 215.810467 
L 237.104753 212.370278 
L 238.801317 211.589999 
L 240.497881 212.052926 
L 242.194446 213.615461 
L 243.89101 211.814156 
L 245.587574 215.187013 
L 247.284138 214.96625 
L 248.980703 212.838234 
L 250.677267 216.692852 
L 252.373831 210.42785 
L 254.070396 212.513809 
L 255.76696 213.055932 
L 257.463524 215.428807 
L 259.160089 209.023434 
L 260.856653 214.596185 
L 262.553217 215.1209 
L 264.249781 209.359991 
L 265.946346 211.897155 
L 267.64291 212.364929 
L 269.339474 213.451158 
L 271.036039 213.931643 
L 272.732603 216.770778 
L 274.429167 209.679821 
L 276.125732 214.14752 
L 277.822296 209.659264 
L 279.51886 209.424986 
L 281.215425 213.931921 
L 282.911989 213.981486 
L 284.608553 212.097637 
L 286.305117 215.872098 
L 288.001682 212.897064 
L 289.698246 216.235117 
L 291.39481 210.656913 
L 293.091375 214.826758 
L 294.787939 210.08987 
L 296.484503 216.644243 
L 298.181068 214.749475 
L 299.877632 210.707797 
L 301.574196 209.881098 
L 303.27076 214.61754 
L 304.967325 213.77385 
L 306.663889 215.632549 
L 308.360453 215.538561 
L 310.057018 212.683509 
L 311.753582 216.05658 
L 313.450146 210.09509 
L 315.146711 210.113531 
L 316.843275 211.886267 
L 318.539839 214.953377 
L 320.236404 213.594023 
L 321.932968 215.708988 
L 323.629532 210.411842 
L 325.326096 212.522752 
L 327.022661 216.654838 
L 328.719225 216.681354 
L 330.415789 211.68107 
L 332.112354 215.535934 
L 333.808918 213.268825 
L 335.505482 216.741205 
L 337.202047 210.944448 
L 338.898611 215.334151 
L 340.595175 211.488742 
L 342.29174 214.701132 
L 343.988304 210.003841 
L 345.684868 211.392987 
L 347.381432 216.652986 
L 349.077997 216.161267 
L 350.774561 216.736619 
L 352.471125 216.754024 
L 354.16769 211.939321 
L 355.864254 210.595515 
L 357.560818 215.439973 
L 359.257383 215.497954 
L 360.953947 212.060164 
L 362.650511 215.176594 
L 364.347075 216.861979 
L 366.04364 209.333016 
L 367.740204 215.519752 
L 369.436768 210.364808 
L 371.133333 214.838532 
L 372.829897 214.345672 
L 374.526461 213.153814 
L 376.223026 209.64502 
L 377.91959 211.075477 
L 379.616154 213.127635 
L 381.312719 216.393401 
L 383.009283 209.617044 
L 384.705847 214.353144 
L 386.402411 216.411879 
L 388.098976 212.59653 
L 389.79554 216.783644 
L 391.492104 214.526019 
L 393.188669 216.723452 
L 394.885233 213.676891 
L 396.581797 209.259601 
L 398.278362 216.742679 
L 399.974926 209.82732 
L 401.67149 208.947542 
L 403.368054 209.553028 
L 405.064619 215.772858 
L 406.761183 211.818878 
L 408.457747 209.591538 
L 410.154312 211.293324 
L 411.850876 215.265538 
L 415.244005 210.535408 
L 416.940569 212.627294 
L 418.637133 212.150764 
L 420.333698 209.832138 
L 422.030262 215.005025 
L 423.726826 209.880724 
L 425.42339 210.686116 
L 427.119955 209.133252 
L 428.816519 210.151341 
L 430.513083 216.124135 
L 432.209648 211.022236 
L 433.906212 210.132058 
L 435.602776 215.604962 
L 437.299341 209.502066 
L 438.995905 212.885602 
L 440.692469 211.507481 
L 442.389034 214.011721 
L 444.085598 213.283783 
L 445.782162 212.028696 
L 447.478726 213.361311 
L 449.175291 215.154736 
L 450.871855 213.145944 
L 452.568419 216.589405 
L 454.264984 210.254897 
L 455.961548 213.838457 
L 457.658112 213.596823 
L 459.354677 216.081242 
L 461.051241 210.53074 
L 462.747805 210.4694 
L 464.444369 215.58983 
L 466.140934 210.412851 
L 467.837498 214.504578 
L 469.534062 216.661001 
L 471.230627 216.272859 
L 472.927191 211.088701 
L 474.623755 211.907801 
L 476.32032 215.965503 
L 478.016884 215.099969 
L 479.713448 212.00688 
L 481.410013 211.978953 
L 483.106577 213.272508 
L 484.803141 216.827365 
L 486.499705 210.082847 
L 488.19627 214.544266 
L 489.892834 213.561553 
L 491.589398 216.694724 
L 493.285963 214.656102 
L 494.982527 214.498707 
L 496.679091 212.01974 
L 498.375656 214.166953 
L 500.07222 210.834126 
L 501.768784 214.771348 
L 503.465349 210.700789 
L 505.161913 212.729309 
L 506.858477 212.573041 
L 508.555041 210.388387 
L 510.251606 210.644344 
L 511.94817 216.126049 
L 513.644734 210.302719 
L 515.341299 211.946096 
L 517.037863 214.632881 
L 518.734427 208.838768 
L 520.430992 209.843831 
L 522.127556 216.355889 
L 523.82412 216.282123 
L 525.520684 210.735821 
L 527.217249 210.841167 
L 528.913813 214.287042 
L 530.610377 212.655425 
L 532.306942 215.018973 
L 534.003506 213.9136 
L 535.70007 209.242192 
L 537.396635 215.236766 
L 539.093199 209.30211 
L 540.789763 214.06971 
L 542.486328 212.171351 
L 544.182892 214.240231 
L 545.879456 212.932658 
L 547.57602 209.828833 
L 549.272585 213.639599 
L 550.969149 213.277374 
L 552.665713 213.718259 
L 554.362278 209.202621 
L 557.755406 213.748241 
L 559.451971 214.07894 
L 561.148535 216.382882 
L 562.845099 213.794043 
L 564.541663 214.175545 
L 566.238228 215.872309 
L 567.934792 215.972854 
L 569.631356 215.677804 
L 571.327921 212.134938 
L 573.024485 216.169309 
L 574.721049 216.333504 
L 576.417614 212.134334 
L 576.417614 212.134334 
" clip-path="url(#p558e57ef96)" style="fill: none; stroke: #8c564b; stroke-width: 1.5; stroke-linecap: square"/>
   </g>
   <g id="patch_3">
    <path d="M 43.78125 228.96 
L 43.78125 7.2 
" style="fill: none; stroke: #000000; stroke-width: 0.8; stroke-linejoin: miter; stroke-linecap: square"/>
   </g>
   <g id="patch_4">
    <path d="M 601.78125 228.96 
L 601.78125 7.2 
" style="fill: none; stroke: #000000; stroke-width: 0.8; stroke-linejoin: miter; stroke-linecap: square"/>
   </g>
   <g id="patch_5">
    <path d="M 43.78125 228.96 
L 601.78125 228.96 
" style="fill: none; stroke: #000000; stroke-width: 0.8; stroke-linejoin: miter; stroke-linecap: square"/>
   </g>
   <g id="patch_6">
    <path d="M 43.78125 7.2 
L 601.78125 7.2 
" style="fill: none; stroke: #000000; stroke-width: 0.8; stroke-linejoin: miter; stroke-linecap: square"/>
   </g>
   <g id="legend_1">
    <g id="patch_7">
     <path d="M 50.78125 163.63625 
L 163.08125 163.63625 
Q 165.08125 163.63625 165.08125 161.63625 
L 165.08125 74.52375 
Q 165.08125 72.52375 163.08125 72.52375 
L 50.78125 72.52375 
Q 48.78125 72.52375 48.78125 74.52375 
L 48.78125 161.63625 
Q 48.78125 163.63625 50.78125 163.63625 
z
" style="fill: #ffffff; opacity: 0.8; stroke: #cccccc; stroke-linejoin: miter"/>
    </g>
    <g id="line2d_20">
     <path d="M 52.78125 80.62375 
L 62.78125 80.62375 
L 72.78125 80.62375 
" style="fill: none; stroke: #1f77b4; stroke-width: 1.5; stroke-linecap: square"/>
    </g>
    <g id="text_16">
     <!-- $S$ - Susceptible -->
     <g transform="translate(80.78125 84.12375) scale(0.1 -0.1)">
      <defs>
       <path id="DejaVuSans-Oblique-53" d="M 3859 4513 
L 3738 3897 
Q 3422 4066 3111 4152 
Q 2800 4238 2509 4238 
Q 1944 4238 1609 3991 
Q 1275 3744 1275 3334 
Q 1275 3109 1398 2989 
Q 1522 2869 2034 2731 
L 2413 2638 
Q 3053 2472 3303 2217 
Q 3553 1963 3553 1503 
Q 3553 797 2998 353 
Q 2444 -91 1538 -91 
Q 1166 -91 791 -17 
Q 416 56 38 206 
L 166 856 
Q 513 641 861 531 
Q 1209 422 1556 422 
Q 2147 422 2503 684 
Q 2859 947 2859 1369 
Q 2859 1650 2717 1795 
Q 2575 1941 2106 2059 
L 1728 2156 
Q 1081 2325 845 2545 
Q 609 2766 609 3163 
Q 609 3859 1145 4304 
Q 1681 4750 2541 4750 
Q 2875 4750 3203 4690 
Q 3531 4631 3859 4513 
z
" transform="scale(0.015625)"/>
       <path id="DejaVuSans-2d" d="M 313 2009 
L 1997 2009 
L 1997 1497 
L 313 1497 
L 313 2009 
z
" transform="scale(0.015625)"/>
       <path id="DejaVuSans-53" d="M 3425 4513 
L 3425 3897 
Q 3066 4069 2747 4153 
Q 2428 4238 2131 4238 
Q 1616 4238 1336 4038 
Q 1056 3838 1056 3469 
Q 1056 3159 1242 3001 
Q 1428 2844 1947 2747 
L 2328 2669 
Q 3034 2534 3370 2195 
Q 3706 1856 3706 1288 
Q 3706 609 3251 259 
Q 2797 -91 1919 -91 
Q 1588 -91 1214 -16 
Q 841 59 441 206 
L 441 856 
Q 825 641 1194 531 
Q 1563 422 1919 422 
Q 2459 422 2753 634 
Q 3047 847 3047 1241 
Q 3047 1584 2836 1778 
Q 2625 1972 2144 2069 
L 1759 2144 
Q 1053 2284 737 2584 
Q 422 2884 422 3419 
Q 422 4038 858 4394 
Q 1294 4750 2059 4750 
Q 2388 4750 2728 4690 
Q 3069 4631 3425 4513 
z
" transform="scale(0.015625)"/>
       <path id="DejaVuSans-63" d="M 3122 3366 
L 3122 2828 
Q 2878 2963 2633 3030 
Q 2388 3097 2138 3097 
Q 1578 3097 1268 2742 
Q 959 2388 959 1747 
Q 959 1106 1268 751 
Q 1578 397 2138 397 
Q 2388 397 2633 464 
Q 2878 531 3122 666 
L 3122 134 
Q 2881 22 2623 -34 
Q 2366 -91 2075 -91 
Q 1284 -91 818 406 
Q 353 903 353 1747 
Q 353 2603 823 3093 
Q 1294 3584 2113 3584 
Q 2378 3584 2631 3529 
Q 2884 3475 3122 3366 
z
" transform="scale(0.015625)"/>
       <path id="DejaVuSans-62" d="M 3116 1747 
Q 3116 2381 2855 2742 
Q 2594 3103 2138 3103 
Q 1681 3103 1420 2742 
Q 1159 2381 1159 1747 
Q 1159 1113 1420 752 
Q 1681 391 2138 391 
Q 2594 391 2855 752 
Q 3116 1113 3116 1747 
z
M 1159 2969 
Q 1341 3281 1617 3432 
Q 1894 3584 2278 3584 
Q 2916 3584 3314 3078 
Q 3713 2572 3713 1747 
Q 3713 922 3314 415 
Q 2916 -91 2278 -91 
Q 1894 -91 1617 61 
Q 1341 213 1159 525 
L 1159 0 
L 581 0 
L 581 4863 
L 1159 4863 
L 1159 2969 
z
" transform="scale(0.015625)"/>
      </defs>
      <use xlink:href="#DejaVuSans-Oblique-53" transform="translate(0 0.015625)"/>
      <use xlink:href="#DejaVuSans-20" transform="translate(63.476562 0.015625)"/>
      <use xlink:href="#DejaVuSans-2d" transform="translate(95.263672 0.015625)"/>
      <use xlink:href="#DejaVuSans-20" transform="translate(131.347656 0.015625)"/>
      <use xlink:href="#DejaVuSans-53" transform="translate(163.134766 0.015625)"/>
      <use xlink:href="#DejaVuSans-75" transform="translate(226.611328 0.015625)"/>
      <use xlink:href="#DejaVuSans-73" transform="translate(289.990234 0.015625)"/>
      <use xlink:href="#DejaVuSans-63" transform="translate(342.089844 0.015625)"/>
      <use xlink:href="#DejaVuSans-65" transform="translate(397.070312 0.015625)"/>
      <use xlink:href="#DejaVuSans-70" transform="translate(458.59375 0.015625)"/>
      <use xlink:href="#DejaVuSans-74" transform="translate(522.070312 0.015625)"/>
      <use xlink:href="#DejaVuSans-69" transform="translate(561.279297 0.015625)"/>
      <use xlink:href="#DejaVuSans-62" transform="translate(589.0625 0.015625)"/>
      <use xlink:href="#DejaVuSans-6c" transform="translate(652.539062 0.015625)"/>
      <use xlink:href="#DejaVuSans-65" transform="translate(680.322266 0.015625)"/>
     </g>
    </g>
    <g id="line2d_21">
     <path d="M 52.78125 95.322187 
L 62.78125 95.322187 
L 72.78125 95.322187 
" style="fill: none; stroke: #ff7f0e; stroke-width: 1.5; stroke-linecap: square"/>
    </g>
    <g id="text_17">
     <!-- $I$ - Infected -->
     <g transform="translate(80.78125 98.822187) scale(0.1 -0.1)">
      <defs>
       <path id="DejaVuSans-Oblique-49" d="M 1081 4666 
L 1716 4666 
L 806 0 
L 172 0 
L 1081 4666 
z
" transform="scale(0.015625)"/>
       <path id="DejaVuSans-49" d="M 628 4666 
L 1259 4666 
L 1259 0 
L 628 0 
L 628 4666 
z
" transform="scale(0.015625)"/>
       <path id="DejaVuSans-66" d="M 2375 4863 
L 2375 4384 
L 1825 4384 
Q 1516 4384 1395 4259 
Q 1275 4134 1275 3809 
L 1275 3500 
L 2222 3500 
L 2222 3053 
L 1275 3053 
L 1275 0 
L 697 0 
L 697 3053 
L 147 3053 
L 147 3500 
L 697 3500 
L 697 3744 
Q 697 4328 969 4595 
Q 1241 4863 1831 4863 
L 2375 4863 
z
" transform="scale(0.015625)"/>
      </defs>
      <use xlink:href="#DejaVuSans-Oblique-49" transform="translate(0 0.015625)"/>
      <use xlink:href="#DejaVuSans-20" transform="translate(29.492188 0.015625)"/>
      <use xlink:href="#DejaVuSans-2d" transform="translate(61.279297 0.015625)"/>
      <use xlink:href="#DejaVuSans-20" transform="translate(97.363281 0.015625)"/>
      <use xlink:href="#DejaVuSans-49" transform="translate(129.150391 0.015625)"/>
      <use xlink:href="#DejaVuSans-6e" transform="translate(158.642578 0.015625)"/>
      <use xlink:href="#DejaVuSans-66" transform="translate(222.021484 0.015625)"/>
      <use xlink:href="#DejaVuSans-65" transform="translate(257.226562 0.015625)"/>
      <use xlink:href="#DejaVuSans-63" transform="translate(318.75 0.015625)"/>
      <use xlink:href="#DejaVuSans-74" transform="translate(373.730469 0.015625)"/>
      <use xlink:href="#DejaVuSans-65" transform="translate(412.939453 0.015625)"/>
      <use xlink:href="#DejaVuSans-64" transform="translate(474.462891 0.015625)"/>
     </g>
    </g>
    <g id="line2d_22">
     <path d="M 52.78125 110.000312 
L 62.78125 110.000312 
L 72.78125 110.000312 
" style="fill: none; stroke: #2ca02c; stroke-width: 1.5; stroke-linecap: square"/>
    </g>
    <g id="text_18">
     <!-- $R$ - Recovered -->
     <g transform="translate(80.78125 113.500312) scale(0.1 -0.1)">
      <defs>
       <path id="DejaVuSans-Oblique-52" d="M 1613 4147 
L 1294 2491 
L 2106 2491 
Q 2584 2491 2879 2755 
Q 3175 3019 3175 3444 
Q 3175 3784 2976 3965 
Q 2778 4147 2406 4147 
L 1613 4147 
z
M 2772 2241 
Q 2972 2194 3105 2009 
Q 3238 1825 3413 1275 
L 3809 0 
L 3144 0 
L 2778 1197 
Q 2638 1659 2453 1815 
Q 2269 1972 1888 1972 
L 1191 1972 
L 806 0 
L 172 0 
L 1081 4666 
L 2503 4666 
Q 3150 4666 3495 4373 
Q 3841 4081 3841 3531 
Q 3841 3044 3547 2687 
Q 3253 2331 2772 2241 
z
" transform="scale(0.015625)"/>
       <path id="DejaVuSans-52" d="M 2841 2188 
Q 3044 2119 3236 1894 
Q 3428 1669 3622 1275 
L 4263 0 
L 3584 0 
L 2988 1197 
Q 2756 1666 2539 1819 
Q 2322 1972 1947 1972 
L 1259 1972 
L 1259 0 
L 628 0 
L 628 4666 
L 2053 4666 
Q 2853 4666 3247 4331 
Q 3641 3997 3641 3322 
Q 3641 2881 3436 2590 
Q 3231 2300 2841 2188 
z
M 1259 4147 
L 1259 2491 
L 2053 2491 
Q 2509 2491 2742 2702 
Q 2975 2913 2975 3322 
Q 2975 3731 2742 3939 
Q 2509 4147 2053 4147 
L 1259 4147 
z
" transform="scale(0.015625)"/>
       <path id="DejaVuSans-76" d="M 191 3500 
L 800 3500 
L 1894 563 
L 2988 3500 
L 3597 3500 
L 2284 0 
L 1503 0 
L 191 3500 
z
" transform="scale(0.015625)"/>
       <path id="DejaVuSans-72" d="M 2631 2963 
Q 2534 3019 2420 3045 
Q 2306 3072 2169 3072 
Q 1681 3072 1420 2755 
Q 1159 2438 1159 1844 
L 1159 0 
L 581 0 
L 581 3500 
L 1159 3500 
L 1159 2956 
Q 1341 3275 1631 3429 
Q 1922 3584 2338 3584 
Q 2397 3584 2469 3576 
Q 2541 3569 2628 3553 
L 2631 2963 
z
" transform="scale(0.015625)"/>
      </defs>
      <use xlink:href="#DejaVuSans-Oblique-52" transform="translate(0 0.015625)"/>
      <use xlink:href="#DejaVuSans-20" transform="translate(69.482422 0.015625)"/>
      <use xlink:href="#DejaVuSans-2d" transform="translate(101.269531 0.015625)"/>
      <use xlink:href="#DejaVuSans-20" transform="translate(137.353516 0.015625)"/>
      <use xlink:href="#DejaVuSans-52" transform="translate(169.140625 0.015625)"/>
      <use xlink:href="#DejaVuSans-65" transform="translate(238.623047 0.015625)"/>
      <use xlink:href="#DejaVuSans-63" transform="translate(300.146484 0.015625)"/>
      <use xlink:href="#DejaVuSans-6f" transform="translate(355.126953 0.015625)"/>
      <use xlink:href="#DejaVuSans-76" transform="translate(416.308594 0.015625)"/>
      <use xlink:href="#DejaVuSans-65" transform="translate(475.488281 0.015625)"/>
      <use xlink:href="#DejaVuSans-72" transform="translate(537.011719 0.015625)"/>
      <use xlink:href="#DejaVuSans-65" transform="translate(578.125 0.015625)"/>
      <use xlink:href="#DejaVuSans-64" transform="translate(639.648438 0.015625)"/>
     </g>
    </g>
    <g id="line2d_23">
     <path d="M 52.78125 124.678437 
L 62.78125 124.678437 
L 72.78125 124.678437 
" style="fill: none; stroke: #d62728; stroke-width: 1.5; stroke-linecap: square"/>
    </g>
    <g id="text_19">
     <!-- $Q$ - Quarantined -->
     <g transform="translate(80.78125 128.178437) scale(0.1 -0.1)">
      <defs>
       <path id="DejaVuSans-Oblique-51" d="M 2309 -84 
Q 2275 -88 2237 -89 
Q 2200 -91 2125 -91 
Q 1250 -91 756 411 
Q 263 913 263 1797 
Q 263 2319 452 2844 
Q 641 3369 978 3788 
Q 1369 4269 1858 4509 
Q 2347 4750 2938 4750 
Q 3794 4750 4287 4245 
Q 4781 3741 4781 2869 
Q 4781 1928 4265 1147 
Q 3750 366 2919 44 
L 3553 -825 
L 2847 -825 
L 2309 -84 
z
M 2919 4238 
Q 2400 4238 2003 3986 
Q 1606 3734 1313 3219 
Q 1125 2891 1026 2522 
Q 928 2153 928 1778 
Q 928 1128 1239 775 
Q 1550 422 2119 422 
Q 2631 422 3032 676 
Q 3434 931 3719 1434 
Q 3909 1772 4009 2142 
Q 4109 2513 4109 2881 
Q 4109 3528 3796 3883 
Q 3484 4238 2919 4238 
z
" transform="scale(0.015625)"/>
       <path id="DejaVuSans-51" d="M 2522 4238 
Q 1834 4238 1429 3725 
Q 1025 3213 1025 2328 
Q 1025 1447 1429 934 
Q 1834 422 2522 422 
Q 3209 422 3611 934 
Q 4013 1447 4013 2328 
Q 4013 3213 3611 3725 
Q 3209 4238 2522 4238 
z
M 3406 84 
L 4238 -825 
L 3475 -825 
L 2784 -78 
Q 2681 -84 2626 -87 
Q 2572 -91 2522 -91 
Q 1538 -91 948 567 
Q 359 1225 359 2328 
Q 359 3434 948 4092 
Q 1538 4750 2522 4750 
Q 3503 4750 4090 4092 
Q 4678 3434 4678 2328 
Q 4678 1516 4351 937 
Q 4025 359 3406 84 
z
" transform="scale(0.015625)"/>
      </defs>
      <use xlink:href="#DejaVuSans-Oblique-51" transform="translate(0 0.015625)"/>
      <use xlink:href="#DejaVuSans-20" transform="translate(78.710938 0.015625)"/>
      <use xlink:href="#DejaVuSans-2d" transform="translate(110.498047 0.015625)"/>
      <use xlink:href="#DejaVuSans-20" transform="translate(146.582031 0.015625)"/>
      <use xlink:href="#DejaVuSans-51" transform="translate(178.369141 0.015625)"/>
      <use xlink:href="#DejaVuSans-75" transform="translate(257.080078 0.015625)"/>
      <use xlink:href="#DejaVuSans-61" transform="translate(320.458984 0.015625)"/>
      <use xlink:href="#DejaVuSans-72" transform="translate(381.738281 0.015625)"/>
      <use xlink:href="#DejaVuSans-61" transform="translate(422.851562 0.015625)"/>
      <use xlink:href="#DejaVuSans-6e" transform="translate(484.130859 0.015625)"/>
      <use xlink:href="#DejaVuSans-74" transform="translate(547.509766 0.015625)"/>
      <use xlink:href="#DejaVuSans-69" transform="translate(586.71875 0.015625)"/>
      <use xlink:href="#DejaVuSans-6e" transform="translate(614.501953 0.015625)"/>
      <use xlink:href="#DejaVuSans-65" transform="translate(677.880859 0.015625)"/>
      <use xlink:href="#DejaVuSans-64" transform="translate(739.404297 0.015625)"/>
     </g>
    </g>
    <g id="line2d_24">
     <path d="M 52.78125 139.356562 
L 62.78125 139.356562 
L 72.78125 139.356562 
" style="fill: none; stroke: #9467bd; stroke-width: 1.5; stroke-linecap: square"/>
    </g>
    <g id="text_20">
     <!-- $D$ - Deceased -->
     <g transform="translate(80.78125 142.856562) scale(0.1 -0.1)">
      <defs>
       <path id="DejaVuSans-Oblique-44" d="M 1081 4666 
L 2438 4666 
Q 3519 4666 4070 4208 
Q 4622 3750 4622 2847 
Q 4622 2250 4412 1698 
Q 4203 1147 3834 769 
Q 3463 381 2891 190 
Q 2319 0 1538 0 
L 172 0 
L 1081 4666 
z
M 1613 4147 
L 909 519 
L 1734 519 
Q 2794 519 3375 1128 
Q 3956 1738 3956 2847 
Q 3956 3519 3581 3833 
Q 3206 4147 2406 4147 
L 1613 4147 
z
" transform="scale(0.015625)"/>
       <path id="DejaVuSans-44" d="M 1259 4147 
L 1259 519 
L 2022 519 
Q 2988 519 3436 956 
Q 3884 1394 3884 2338 
Q 3884 3275 3436 3711 
Q 2988 4147 2022 4147 
L 1259 4147 
z
M 628 4666 
L 1925 4666 
Q 3281 4666 3915 4102 
Q 4550 3538 4550 2338 
Q 4550 1131 3912 565 
Q 3275 0 1925 0 
L 628 0 
L 628 4666 
z
" transform="scale(0.015625)"/>
      </defs>
      <use xlink:href="#DejaVuSans-Oblique-44" transform="translate(0 0.015625)"/>
      <use xlink:href="#DejaVuSans-20" transform="translate(77.001953 0.015625)"/>
      <use xlink:href="#DejaVuSans-2d" transform="translate(108.789062 0.015625)"/>
      <use xlink:href="#DejaVuSans-20" transform="translate(144.873047 0.015625)"/>
      <use xlink:href="#DejaVuSans-44" transform="translate(176.660156 0.015625)"/>
      <use xlink:href="#DejaVuSans-65" transform="translate(253.662109 0.015625)"/>
      <use xlink:href="#DejaVuSans-63" transform="translate(315.185547 0.015625)"/>
      <use xlink:href="#DejaVuSans-65" transform="translate(370.166016 0.015625)"/>
      <use xlink:href="#DejaVuSans-61" transform="translate(431.689453 0.015625)"/>
      <use xlink:href="#DejaVuSans-73" transform="translate(492.96875 0.015625)"/>
      <use xlink:href="#DejaVuSans-65" transform="translate(545.068359 0.015625)"/>
      <use xlink:href="#DejaVuSans-64" transform="translate(606.591797 0.015625)"/>
     </g>
    </g>
    <g id="line2d_25">
     <path d="M 52.78125 154.03625 
L 62.78125 154.03625 
L 72.78125 154.03625 
" style="fill: none; stroke: #8c564b; stroke-width: 1.5; stroke-linecap: square"/>
    </g>
    <g id="text_21">
     <!-- $u$ - Testing Rate -->
     <g transform="translate(80.78125 157.53625) scale(0.1 -0.1)">
      <defs>
       <path id="DejaVuSans-Oblique-75" d="M 428 1388 
L 838 3500 
L 1416 3500 
L 1006 1409 
Q 975 1256 961 1147 
Q 947 1038 947 966 
Q 947 700 1109 554 
Q 1272 409 1569 409 
Q 2031 409 2368 721 
Q 2706 1034 2809 1563 
L 3194 3500 
L 3769 3500 
L 3091 0 
L 2516 0 
L 2631 550 
Q 2388 244 2052 76 
Q 1716 -91 1338 -91 
Q 878 -91 622 161 
Q 366 413 366 863 
Q 366 956 381 1097 
Q 397 1238 428 1388 
z
" transform="scale(0.015625)"/>
       <path id="DejaVuSans-54" d="M -19 4666 
L 3928 4666 
L 3928 4134 
L 2272 4134 
L 2272 0 
L 1638 0 
L 1638 4134 
L -19 4134 
L -19 4666 
z
" transform="scale(0.015625)"/>
       <path id="DejaVuSans-67" d="M 2906 1791 
Q 2906 2416 2648 2759 
Q 2391 3103 1925 3103 
Q 1463 3103 1205 2759 
Q 947 2416 947 1791 
Q 947 1169 1205 825 
Q 1463 481 1925 481 
Q 2391 481 2648 825 
Q 2906 1169 2906 1791 
z
M 3481 434 
Q 3481 -459 3084 -895 
Q 2688 -1331 1869 -1331 
Q 1566 -1331 1297 -1286 
Q 1028 -1241 775 -1147 
L 775 -588 
Q 1028 -725 1275 -790 
Q 1522 -856 1778 -856 
Q 2344 -856 2625 -561 
Q 2906 -266 2906 331 
L 2906 616 
Q 2728 306 2450 153 
Q 2172 0 1784 0 
Q 1141 0 747 490 
Q 353 981 353 1791 
Q 353 2603 747 3093 
Q 1141 3584 1784 3584 
Q 2172 3584 2450 3431 
Q 2728 3278 2906 2969 
L 2906 3500 
L 3481 3500 
L 3481 434 
z
" transform="scale(0.015625)"/>
      </defs>
      <use xlink:href="#DejaVuSans-Oblique-75" transform="translate(0 0.015625)"/>
      <use xlink:href="#DejaVuSans-20" transform="translate(63.378906 0.015625)"/>
      <use xlink:href="#DejaVuSans-2d" transform="translate(95.166016 0.015625)"/>
      <use xlink:href="#DejaVuSans-20" transform="translate(131.25 0.015625)"/>
      <use xlink:href="#DejaVuSans-54" transform="translate(163.037109 0.015625)"/>
      <use xlink:href="#DejaVuSans-65" transform="translate(224.121094 0.015625)"/>
      <use xlink:href="#DejaVuSans-73" transform="translate(285.644531 0.015625)"/>
      <use xlink:href="#DejaVuSans-74" transform="translate(337.744141 0.015625)"/>
      <use xlink:href="#DejaVuSans-69" transform="translate(376.953125 0.015625)"/>
      <use xlink:href="#DejaVuSans-6e" transform="translate(404.736328 0.015625)"/>
      <use xlink:href="#DejaVuSans-67" transform="translate(468.115234 0.015625)"/>
      <use xlink:href="#DejaVuSans-20" transform="translate(531.591797 0.015625)"/>
      <use xlink:href="#DejaVuSans-52" transform="translate(563.378906 0.015625)"/>
      <use xlink:href="#DejaVuSans-61" transform="translate(632.861328 0.015625)"/>
      <use xlink:href="#DejaVuSans-74" transform="translate(694.140625 0.015625)"/>
      <use xlink:href="#DejaVuSans-65" transform="translate(733.349609 0.015625)"/>
     </g>
    </g>
   </g>
  </g>
 </g>
 <defs>
  <clipPath id="p558e57ef96">
   <rect x="43.78125" y="7.2" width="558" height="221.76"/>
  </clipPath>
 </defs>
</svg>
