<?xml version="1.0" encoding="utf-8" standalone="no"?>
<!DOCTYPE svg PUBLIC "-//W3C//DTD SVG 1.1//EN"
  "http://www.w3.org/Graphics/SVG/1.1/DTD/svg11.dtd">
<svg xmlns:xlink="http://www.w3.org/1999/xlink" width="639.912853pt" height="280.474375pt" viewBox="0 0 639.912853 280.474375" xmlns="http://www.w3.org/2000/svg" version="1.1">
 <metadata>
  <rdf:RDF xmlns:dc="http://purl.org/dc/elements/1.1/" xmlns:cc="http://creativecommons.org/ns#" xmlns:rdf="http://www.w3.org/1999/02/22-rdf-syntax-ns#">
   <cc:Work>
    <dc:type rdf:resource="http://purl.org/dc/dcmitype/StillImage"/>
    <dc:date>2025-07-14T21:24:43.768472</dc:date>
    <dc:format>image/svg+xml</dc:format>
    <dc:creator>
     <cc:Agent>
      <dc:title>Matplotlib v3.6.3, https://matplotlib.org/</dc:title>
     </cc:Agent>
    </dc:creator>
   </cc:Work>
  </rdf:RDF>
 </metadata>
 <defs>
  <style type="text/css">*{stroke-linejoin: round; stroke-linecap: butt}</style>
 </defs>
 <g id="figure_1">
  <g id="patch_1">
   <path d="M 0 280.474375 
L 639.912853 280.474375 
L 639.912853 0 
L 0 0 
z
" style="fill: #ffffff"/>
  </g>
  <g id="axes_1">
   <g id="patch_2">
    <path d="M 58.441875 123.674749 
L 321.826027 123.674749 
L 321.826027 22.318125 
L 58.441875 22.318125 
z
" style="fill: #ffffff"/>
   </g>
   <g id="matplotlib.axis_1">
    <g id="xtick_1">
     <g id="line2d_1">
      <defs>
       <path id="m373962db91" d="M 0 0 
L 0 3.5 
" style="stroke: #000000; stroke-width: 0.8"/>
      </defs>
      <g>
       <use xlink:href="#m373962db91" x="70.413882" y="123.674749" style="stroke: #000000; stroke-width: 0.8"/>
      </g>
     </g>
    </g>
    <g id="xtick_2">
     <g id="line2d_2">
      <g>
       <use xlink:href="#m373962db91" x="118.349846" y="123.674749" style="stroke: #000000; stroke-width: 0.8"/>
      </g>
     </g>
    </g>
    <g id="xtick_3">
     <g id="line2d_3">
      <g>
       <use xlink:href="#m373962db91" x="166.285809" y="123.674749" style="stroke: #000000; stroke-width: 0.8"/>
      </g>
     </g>
    </g>
    <g id="xtick_4">
     <g id="line2d_4">
      <g>
       <use xlink:href="#m373962db91" x="214.221773" y="123.674749" style="stroke: #000000; stroke-width: 0.8"/>
      </g>
     </g>
    </g>
    <g id="xtick_5">
     <g id="line2d_5">
      <g>
       <use xlink:href="#m373962db91" x="262.157737" y="123.674749" style="stroke: #000000; stroke-width: 0.8"/>
      </g>
     </g>
    </g>
    <g id="xtick_6">
     <g id="line2d_6">
      <g>
       <use xlink:href="#m373962db91" x="310.0937" y="123.674749" style="stroke: #000000; stroke-width: 0.8"/>
      </g>
     </g>
    </g>
   </g>
   <g id="matplotlib.axis_2">
    <g id="ytick_1">
     <g id="line2d_7">
      <defs>
       <path id="ma5390b4f97" d="M 0 0 
L -3.5 0 
" style="stroke: #000000; stroke-width: 0.8"/>
      </defs>
      <g>
       <use xlink:href="#ma5390b4f97" x="58.441875" y="119.10183" style="stroke: #000000; stroke-width: 0.8"/>
      </g>
     </g>
     <g id="text_1">
      <!-- 0.000 -->
      <g transform="translate(22.81375 122.901049) scale(0.1 -0.1)">
       <defs>
        <path id="DejaVuSans-30" d="M 2034 4250 
Q 1547 4250 1301 3770 
Q 1056 3291 1056 2328 
Q 1056 1369 1301 889 
Q 1547 409 2034 409 
Q 2525 409 2770 889 
Q 3016 1369 3016 2328 
Q 3016 3291 2770 3770 
Q 2525 4250 2034 4250 
z
M 2034 4750 
Q 2819 4750 3233 4129 
Q 3647 3509 3647 2328 
Q 3647 1150 3233 529 
Q 2819 -91 2034 -91 
Q 1250 -91 836 529 
Q 422 1150 422 2328 
Q 422 3509 836 4129 
Q 1250 4750 2034 4750 
z
" transform="scale(0.015625)"/>
        <path id="DejaVuSans-2e" d="M 684 794 
L 1344 794 
L 1344 0 
L 684 0 
L 684 794 
z
" transform="scale(0.015625)"/>
       </defs>
       <use xlink:href="#DejaVuSans-30"/>
       <use xlink:href="#DejaVuSans-2e" x="63.623047"/>
       <use xlink:href="#DejaVuSans-30" x="95.410156"/>
       <use xlink:href="#DejaVuSans-30" x="159.033203"/>
       <use xlink:href="#DejaVuSans-30" x="222.65625"/>
      </g>
     </g>
    </g>
    <g id="ytick_2">
     <g id="line2d_8">
      <g>
       <use xlink:href="#ma5390b4f97" x="58.441875" y="84.938162" style="stroke: #000000; stroke-width: 0.8"/>
      </g>
     </g>
     <g id="text_2">
      <!-- 0.001 -->
      <g transform="translate(22.81375 88.73738) scale(0.1 -0.1)">
       <defs>
        <path id="DejaVuSans-31" d="M 794 531 
L 1825 531 
L 1825 4091 
L 703 3866 
L 703 4441 
L 1819 4666 
L 2450 4666 
L 2450 531 
L 3481 531 
L 3481 0 
L 794 0 
L 794 531 
z
" transform="scale(0.015625)"/>
       </defs>
       <use xlink:href="#DejaVuSans-30"/>
       <use xlink:href="#DejaVuSans-2e" x="63.623047"/>
       <use xlink:href="#DejaVuSans-30" x="95.410156"/>
       <use xlink:href="#DejaVuSans-30" x="159.033203"/>
       <use xlink:href="#DejaVuSans-31" x="222.65625"/>
      </g>
     </g>
    </g>
    <g id="ytick_3">
     <g id="line2d_9">
      <g>
       <use xlink:href="#ma5390b4f97" x="58.441875" y="50.774494" style="stroke: #000000; stroke-width: 0.8"/>
      </g>
     </g>
     <g id="text_3">
      <!-- 0.002 -->
      <g transform="translate(22.81375 54.573712) scale(0.1 -0.1)">
       <defs>
        <path id="DejaVuSans-32" d="M 1228 531 
L 3431 531 
L 3431 0 
L 469 0 
L 469 531 
Q 828 903 1448 1529 
Q 2069 2156 2228 2338 
Q 2531 2678 2651 2914 
Q 2772 3150 2772 3378 
Q 2772 3750 2511 3984 
Q 2250 4219 1831 4219 
Q 1534 4219 1204 4116 
Q 875 4013 500 3803 
L 500 4441 
Q 881 4594 1212 4672 
Q 1544 4750 1819 4750 
Q 2544 4750 2975 4387 
Q 3406 4025 3406 3419 
Q 3406 3131 3298 2873 
Q 3191 2616 2906 2266 
Q 2828 2175 2409 1742 
Q 1991 1309 1228 531 
z
" transform="scale(0.015625)"/>
       </defs>
       <use xlink:href="#DejaVuSans-30"/>
       <use xlink:href="#DejaVuSans-2e" x="63.623047"/>
       <use xlink:href="#DejaVuSans-30" x="95.410156"/>
       <use xlink:href="#DejaVuSans-30" x="159.033203"/>
       <use xlink:href="#DejaVuSans-32" x="222.65625"/>
      </g>
     </g>
    </g>
    <g id="text_4">
     <!-- Running Cost -->
     <g transform="translate(16.318125 112.827062) rotate(-90) scale(0.12 -0.12)">
      <defs>
       <path id="DejaVuSans-52" d="M 2841 2188 
Q 3044 2119 3236 1894 
Q 3428 1669 3622 1275 
L 4263 0 
L 3584 0 
L 2988 1197 
Q 2756 1666 2539 1819 
Q 2322 1972 1947 1972 
L 1259 1972 
L 1259 0 
L 628 0 
L 628 4666 
L 2053 4666 
Q 2853 4666 3247 4331 
Q 3641 3997 3641 3322 
Q 3641 2881 3436 2590 
Q 3231 2300 2841 2188 
z
M 1259 4147 
L 1259 2491 
L 2053 2491 
Q 2509 2491 2742 2702 
Q 2975 2913 2975 3322 
Q 2975 3731 2742 3939 
Q 2509 4147 2053 4147 
L 1259 4147 
z
" transform="scale(0.015625)"/>
       <path id="DejaVuSans-75" d="M 544 1381 
L 544 3500 
L 1119 3500 
L 1119 1403 
Q 1119 906 1312 657 
Q 1506 409 1894 409 
Q 2359 409 2629 706 
Q 2900 1003 2900 1516 
L 2900 3500 
L 3475 3500 
L 3475 0 
L 2900 0 
L 2900 538 
Q 2691 219 2414 64 
Q 2138 -91 1772 -91 
Q 1169 -91 856 284 
Q 544 659 544 1381 
z
M 1991 3584 
L 1991 3584 
z
" transform="scale(0.015625)"/>
       <path id="DejaVuSans-6e" d="M 3513 2113 
L 3513 0 
L 2938 0 
L 2938 2094 
Q 2938 2591 2744 2837 
Q 2550 3084 2163 3084 
Q 1697 3084 1428 2787 
Q 1159 2491 1159 1978 
L 1159 0 
L 581 0 
L 581 3500 
L 1159 3500 
L 1159 2956 
Q 1366 3272 1645 3428 
Q 1925 3584 2291 3584 
Q 2894 3584 3203 3211 
Q 3513 2838 3513 2113 
z
" transform="scale(0.015625)"/>
       <path id="DejaVuSans-69" d="M 603 3500 
L 1178 3500 
L 1178 0 
L 603 0 
L 603 3500 
z
M 603 4863 
L 1178 4863 
L 1178 4134 
L 603 4134 
L 603 4863 
z
" transform="scale(0.015625)"/>
       <path id="DejaVuSans-67" d="M 2906 1791 
Q 2906 2416 2648 2759 
Q 2391 3103 1925 3103 
Q 1463 3103 1205 2759 
Q 947 2416 947 1791 
Q 947 1169 1205 825 
Q 1463 481 1925 481 
Q 2391 481 2648 825 
Q 2906 1169 2906 1791 
z
M 3481 434 
Q 3481 -459 3084 -895 
Q 2688 -1331 1869 -1331 
Q 1566 -1331 1297 -1286 
Q 1028 -1241 775 -1147 
L 775 -588 
Q 1028 -725 1275 -790 
Q 1522 -856 1778 -856 
Q 2344 -856 2625 -561 
Q 2906 -266 2906 331 
L 2906 616 
Q 2728 306 2450 153 
Q 2172 0 1784 0 
Q 1141 0 747 490 
Q 353 981 353 1791 
Q 353 2603 747 3093 
Q 1141 3584 1784 3584 
Q 2172 3584 2450 3431 
Q 2728 3278 2906 2969 
L 2906 3500 
L 3481 3500 
L 3481 434 
z
" transform="scale(0.015625)"/>
       <path id="DejaVuSans-20" transform="scale(0.015625)"/>
       <path id="DejaVuSans-43" d="M 4122 4306 
L 4122 3641 
Q 3803 3938 3442 4084 
Q 3081 4231 2675 4231 
Q 1875 4231 1450 3742 
Q 1025 3253 1025 2328 
Q 1025 1406 1450 917 
Q 1875 428 2675 428 
Q 3081 428 3442 575 
Q 3803 722 4122 1019 
L 4122 359 
Q 3791 134 3420 21 
Q 3050 -91 2638 -91 
Q 1578 -91 968 557 
Q 359 1206 359 2328 
Q 359 3453 968 4101 
Q 1578 4750 2638 4750 
Q 3056 4750 3426 4639 
Q 3797 4528 4122 4306 
z
" transform="scale(0.015625)"/>
       <path id="DejaVuSans-6f" d="M 1959 3097 
Q 1497 3097 1228 2736 
Q 959 2375 959 1747 
Q 959 1119 1226 758 
Q 1494 397 1959 397 
Q 2419 397 2687 759 
Q 2956 1122 2956 1747 
Q 2956 2369 2687 2733 
Q 2419 3097 1959 3097 
z
M 1959 3584 
Q 2709 3584 3137 3096 
Q 3566 2609 3566 1747 
Q 3566 888 3137 398 
Q 2709 -91 1959 -91 
Q 1206 -91 779 398 
Q 353 888 353 1747 
Q 353 2609 779 3096 
Q 1206 3584 1959 3584 
z
" transform="scale(0.015625)"/>
       <path id="DejaVuSans-73" d="M 2834 3397 
L 2834 2853 
Q 2591 2978 2328 3040 
Q 2066 3103 1784 3103 
Q 1356 3103 1142 2972 
Q 928 2841 928 2578 
Q 928 2378 1081 2264 
Q 1234 2150 1697 2047 
L 1894 2003 
Q 2506 1872 2764 1633 
Q 3022 1394 3022 966 
Q 3022 478 2636 193 
Q 2250 -91 1575 -91 
Q 1294 -91 989 -36 
Q 684 19 347 128 
L 347 722 
Q 666 556 975 473 
Q 1284 391 1588 391 
Q 1994 391 2212 530 
Q 2431 669 2431 922 
Q 2431 1156 2273 1281 
Q 2116 1406 1581 1522 
L 1381 1569 
Q 847 1681 609 1914 
Q 372 2147 372 2553 
Q 372 3047 722 3315 
Q 1072 3584 1716 3584 
Q 2034 3584 2315 3537 
Q 2597 3491 2834 3397 
z
" transform="scale(0.015625)"/>
       <path id="DejaVuSans-74" d="M 1172 4494 
L 1172 3500 
L 2356 3500 
L 2356 3053 
L 1172 3053 
L 1172 1153 
Q 1172 725 1289 603 
Q 1406 481 1766 481 
L 2356 481 
L 2356 0 
L 1766 0 
Q 1100 0 847 248 
Q 594 497 594 1153 
L 594 3053 
L 172 3053 
L 172 3500 
L 594 3500 
L 594 4494 
L 1172 4494 
z
" transform="scale(0.015625)"/>
      </defs>
      <use xlink:href="#DejaVuSans-52"/>
      <use xlink:href="#DejaVuSans-75" x="64.982422"/>
      <use xlink:href="#DejaVuSans-6e" x="128.361328"/>
      <use xlink:href="#DejaVuSans-6e" x="191.740234"/>
      <use xlink:href="#DejaVuSans-69" x="255.119141"/>
      <use xlink:href="#DejaVuSans-6e" x="282.902344"/>
      <use xlink:href="#DejaVuSans-67" x="346.28125"/>
      <use xlink:href="#DejaVuSans-20" x="409.757812"/>
      <use xlink:href="#DejaVuSans-43" x="441.544922"/>
      <use xlink:href="#DejaVuSans-6f" x="511.369141"/>
      <use xlink:href="#DejaVuSans-73" x="572.550781"/>
      <use xlink:href="#DejaVuSans-74" x="624.650391"/>
     </g>
    </g>
   </g>
   <g id="line2d_10">
    <path d="M 70.413882 119.067595 
L 106.365855 118.961138 
L 111.638811 118.724644 
L 114.514968 118.396877 
L 116.672087 117.929438 
L 118.349846 117.363656 
L 119.787924 116.67625 
L 121.226003 115.741987 
L 122.664082 114.500334 
L 123.862481 113.190679 
L 125.30056 111.254087 
L 126.738639 108.904424 
L 128.416398 105.662203 
L 130.333837 101.392803 
L 132.730635 95.471927 
L 140.879749 74.839941 
L 143.755906 68.399146 
L 146.392384 63.070444 
L 148.789183 58.726001 
L 151.185981 54.859852 
L 153.343099 51.781333 
L 155.500217 49.068679 
L 157.657336 46.703353 
L 159.814454 44.663312 
L 161.971573 42.924288 
L 164.128691 41.460926 
L 166.285809 40.247722 
L 168.682607 39.162801 
L 171.079406 38.323354 
L 173.715884 37.647306 
L 176.352362 37.194703 
L 179.228519 36.917119 
L 182.584037 36.829873 
L 186.179234 36.964353 
L 190.253791 37.338166 
L 195.047387 38.000972 
L 201.039383 39.060797 
L 209.188497 40.742414 
L 227.164483 44.753616 
L 242.983351 48.161368 
L 256.405421 50.824716 
L 269.587811 53.214905 
L 283.249561 55.463542 
L 297.39067 57.564773 
L 309.85402 59.243539 
L 309.85402 59.243539 
" clip-path="url(#pae67030300)" style="fill: none; stroke: #1f77b4; stroke-width: 1.5; stroke-linecap: square"/>
   </g>
   <g id="line2d_11">
    <path d="M 70.413882 119.06763 
L 106.365855 118.961251 
L 111.638811 118.724669 
L 114.754648 118.383184 
L 117.151446 117.900652 
L 118.829205 117.343415 
L 120.267284 116.66888 
L 121.705363 115.745687 
L 122.903762 114.73063 
L 124.102161 113.435262 
L 125.30056 111.801683 
L 126.498959 109.773074 
L 127.697358 107.301733 
L 128.895758 104.358901 
L 130.333837 100.207618 
L 132.011595 94.602669 
L 134.408393 85.633498 
L 138.48295 70.227071 
L 140.400389 63.856538 
L 142.078148 59.018863 
L 143.516227 55.471939 
L 144.954305 52.485453 
L 146.392384 50.04192 
L 147.590783 48.396228 
L 148.789183 47.078321 
L 149.987582 46.058807 
L 151.185981 45.306306 
L 152.38438 44.78879 
L 153.822459 44.433552 
L 155.260538 44.319263 
L 156.938296 44.426927 
L 158.855735 44.786505 
L 161.252533 45.470656 
L 165.08741 46.829764 
L 172.757164 49.569444 
L 177.550761 51.016317 
L 182.823717 52.362212 
L 189.055392 53.71468 
L 197.683865 55.34492 
L 210.386896 57.500417 
L 225.007365 59.758599 
L 240.107193 61.863693 
L 255.926061 63.840639 
L 272.703649 65.712122 
L 290.679635 67.49326 
L 309.85402 69.171992 
L 309.85402 69.171992 
" clip-path="url(#pae67030300)" style="fill: none; stroke: #ff7f0e; stroke-width: 1.5; stroke-linecap: square"/>
   </g>
   <g id="line2d_12">
    <path d="M 70.413882 119.06763 
L 106.365855 118.961251 
L 111.638811 118.724669 
L 114.754648 118.383184 
L 117.151446 117.903599 
L 119.068885 117.285402 
L 120.506964 116.593745 
L 121.945043 115.649687 
L 123.143442 114.611976 
L 124.341841 113.285701 
L 125.54024 111.606214 
L 126.738639 109.504281 
L 127.937038 106.911744 
L 129.135437 103.769942 
L 130.333837 100.040196 
L 131.771915 94.780281 
L 133.449674 87.650496 
L 135.606793 77.31838 
L 140.640069 52.706484 
L 142.317827 45.737489 
L 143.755906 40.604711 
L 145.193985 36.325746 
L 146.392384 33.426134 
L 147.590783 31.117937 
L 148.549503 29.676114 
L 149.508222 28.56975 
L 150.466941 27.772067 
L 151.425661 27.253631 
L 152.38438 26.983577 
L 153.343099 26.930686 
L 154.541498 27.123329 
L 155.739897 27.550421 
L 157.177976 28.298959 
L 159.095415 29.568812 
L 162.450932 32.131415 
L 166.765169 35.364931 
L 169.641327 37.240347 
L 172.517485 38.837971 
L 175.393642 40.172747 
L 178.50948 41.368746 
L 182.104677 42.503728 
L 186.658594 43.694571 
L 193.609309 45.250621 
L 210.147216 48.655569 
L 224.767685 51.476915 
L 237.710395 53.744229 
L 251.372145 55.908597 
L 265.992614 57.997559 
L 281.571802 59.997146 
L 298.109709 61.895063 
L 309.85402 63.118053 
L 309.85402 63.118053 
" clip-path="url(#pae67030300)" style="fill: none; stroke: #2ca02c; stroke-width: 1.5; stroke-linecap: square"/>
   </g>
   <g id="patch_3">
    <path d="M 58.441875 123.674749 
L 58.441875 22.318125 
" style="fill: none; stroke: #000000; stroke-width: 0.8; stroke-linejoin: miter; stroke-linecap: square"/>
   </g>
   <g id="patch_4">
    <path d="M 321.826027 123.674749 
L 321.826027 22.318125 
" style="fill: none; stroke: #000000; stroke-width: 0.8; stroke-linejoin: miter; stroke-linecap: square"/>
   </g>
   <g id="patch_5">
    <path d="M 58.441875 123.674749 
L 321.826027 123.674749 
" style="fill: none; stroke: #000000; stroke-width: 0.8; stroke-linejoin: miter; stroke-linecap: square"/>
   </g>
   <g id="patch_6">
    <path d="M 58.441875 22.318125 
L 321.826027 22.318125 
" style="fill: none; stroke: #000000; stroke-width: 0.8; stroke-linejoin: miter; stroke-linecap: square"/>
   </g>
   <g id="text_5">
    <!-- Exact Predictions -->
    <g transform="translate(138.626764 16.318125) scale(0.12 -0.12)">
     <defs>
      <path id="DejaVuSans-45" d="M 628 4666 
L 3578 4666 
L 3578 4134 
L 1259 4134 
L 1259 2753 
L 3481 2753 
L 3481 2222 
L 1259 2222 
L 1259 531 
L 3634 531 
L 3634 0 
L 628 0 
L 628 4666 
z
" transform="scale(0.015625)"/>
      <path id="DejaVuSans-78" d="M 3513 3500 
L 2247 1797 
L 3578 0 
L 2900 0 
L 1881 1375 
L 863 0 
L 184 0 
L 1544 1831 
L 300 3500 
L 978 3500 
L 1906 2253 
L 2834 3500 
L 3513 3500 
z
" transform="scale(0.015625)"/>
      <path id="DejaVuSans-61" d="M 2194 1759 
Q 1497 1759 1228 1600 
Q 959 1441 959 1056 
Q 959 750 1161 570 
Q 1363 391 1709 391 
Q 2188 391 2477 730 
Q 2766 1069 2766 1631 
L 2766 1759 
L 2194 1759 
z
M 3341 1997 
L 3341 0 
L 2766 0 
L 2766 531 
Q 2569 213 2275 61 
Q 1981 -91 1556 -91 
Q 1019 -91 701 211 
Q 384 513 384 1019 
Q 384 1609 779 1909 
Q 1175 2209 1959 2209 
L 2766 2209 
L 2766 2266 
Q 2766 2663 2505 2880 
Q 2244 3097 1772 3097 
Q 1472 3097 1187 3025 
Q 903 2953 641 2809 
L 641 3341 
Q 956 3463 1253 3523 
Q 1550 3584 1831 3584 
Q 2591 3584 2966 3190 
Q 3341 2797 3341 1997 
z
" transform="scale(0.015625)"/>
      <path id="DejaVuSans-63" d="M 3122 3366 
L 3122 2828 
Q 2878 2963 2633 3030 
Q 2388 3097 2138 3097 
Q 1578 3097 1268 2742 
Q 959 2388 959 1747 
Q 959 1106 1268 751 
Q 1578 397 2138 397 
Q 2388 397 2633 464 
Q 2878 531 3122 666 
L 3122 134 
Q 2881 22 2623 -34 
Q 2366 -91 2075 -91 
Q 1284 -91 818 406 
Q 353 903 353 1747 
Q 353 2603 823 3093 
Q 1294 3584 2113 3584 
Q 2378 3584 2631 3529 
Q 2884 3475 3122 3366 
z
" transform="scale(0.015625)"/>
      <path id="DejaVuSans-50" d="M 1259 4147 
L 1259 2394 
L 2053 2394 
Q 2494 2394 2734 2622 
Q 2975 2850 2975 3272 
Q 2975 3691 2734 3919 
Q 2494 4147 2053 4147 
L 1259 4147 
z
M 628 4666 
L 2053 4666 
Q 2838 4666 3239 4311 
Q 3641 3956 3641 3272 
Q 3641 2581 3239 2228 
Q 2838 1875 2053 1875 
L 1259 1875 
L 1259 0 
L 628 0 
L 628 4666 
z
" transform="scale(0.015625)"/>
      <path id="DejaVuSans-72" d="M 2631 2963 
Q 2534 3019 2420 3045 
Q 2306 3072 2169 3072 
Q 1681 3072 1420 2755 
Q 1159 2438 1159 1844 
L 1159 0 
L 581 0 
L 581 3500 
L 1159 3500 
L 1159 2956 
Q 1341 3275 1631 3429 
Q 1922 3584 2338 3584 
Q 2397 3584 2469 3576 
Q 2541 3569 2628 3553 
L 2631 2963 
z
" transform="scale(0.015625)"/>
      <path id="DejaVuSans-65" d="M 3597 1894 
L 3597 1613 
L 953 1613 
Q 991 1019 1311 708 
Q 1631 397 2203 397 
Q 2534 397 2845 478 
Q 3156 559 3463 722 
L 3463 178 
Q 3153 47 2828 -22 
Q 2503 -91 2169 -91 
Q 1331 -91 842 396 
Q 353 884 353 1716 
Q 353 2575 817 3079 
Q 1281 3584 2069 3584 
Q 2775 3584 3186 3129 
Q 3597 2675 3597 1894 
z
M 3022 2063 
Q 3016 2534 2758 2815 
Q 2500 3097 2075 3097 
Q 1594 3097 1305 2825 
Q 1016 2553 972 2059 
L 3022 2063 
z
" transform="scale(0.015625)"/>
      <path id="DejaVuSans-64" d="M 2906 2969 
L 2906 4863 
L 3481 4863 
L 3481 0 
L 2906 0 
L 2906 525 
Q 2725 213 2448 61 
Q 2172 -91 1784 -91 
Q 1150 -91 751 415 
Q 353 922 353 1747 
Q 353 2572 751 3078 
Q 1150 3584 1784 3584 
Q 2172 3584 2448 3432 
Q 2725 3281 2906 2969 
z
M 947 1747 
Q 947 1113 1208 752 
Q 1469 391 1925 391 
Q 2381 391 2643 752 
Q 2906 1113 2906 1747 
Q 2906 2381 2643 2742 
Q 2381 3103 1925 3103 
Q 1469 3103 1208 2742 
Q 947 2381 947 1747 
z
" transform="scale(0.015625)"/>
     </defs>
     <use xlink:href="#DejaVuSans-45"/>
     <use xlink:href="#DejaVuSans-78" x="63.183594"/>
     <use xlink:href="#DejaVuSans-61" x="122.363281"/>
     <use xlink:href="#DejaVuSans-63" x="183.642578"/>
     <use xlink:href="#DejaVuSans-74" x="238.623047"/>
     <use xlink:href="#DejaVuSans-20" x="277.832031"/>
     <use xlink:href="#DejaVuSans-50" x="309.619141"/>
     <use xlink:href="#DejaVuSans-72" x="368.171875"/>
     <use xlink:href="#DejaVuSans-65" x="407.035156"/>
     <use xlink:href="#DejaVuSans-64" x="468.558594"/>
     <use xlink:href="#DejaVuSans-69" x="532.035156"/>
     <use xlink:href="#DejaVuSans-63" x="559.818359"/>
     <use xlink:href="#DejaVuSans-74" x="614.798828"/>
     <use xlink:href="#DejaVuSans-69" x="654.007812"/>
     <use xlink:href="#DejaVuSans-6f" x="681.791016"/>
     <use xlink:href="#DejaVuSans-6e" x="742.972656"/>
     <use xlink:href="#DejaVuSans-73" x="806.351562"/>
    </g>
   </g>
   <g id="legend_1">
    <g id="patch_7">
     <path d="M 239.657277 118.674749 
L 314.826027 118.674749 
Q 316.826027 118.674749 316.826027 116.674749 
L 316.826027 73.640374 
Q 316.826027 71.640374 314.826027 71.640374 
L 239.657277 71.640374 
Q 237.657277 71.640374 237.657277 73.640374 
L 237.657277 116.674749 
Q 237.657277 118.674749 239.657277 118.674749 
z
" style="fill: #ffffff; opacity: 0.8; stroke: #cccccc; stroke-linejoin: miter"/>
    </g>
    <g id="line2d_13">
     <path d="M 241.657277 79.738812 
L 251.657277 79.738812 
L 261.657277 79.738812 
" style="fill: none; stroke: #1f77b4; stroke-width: 1.5; stroke-linecap: square"/>
    </g>
    <g id="text_6">
     <!-- casadi -->
     <g transform="translate(269.657277 83.238812) scale(0.1 -0.1)">
      <use xlink:href="#DejaVuSans-63"/>
      <use xlink:href="#DejaVuSans-61" x="54.980469"/>
      <use xlink:href="#DejaVuSans-73" x="116.259766"/>
      <use xlink:href="#DejaVuSans-61" x="168.359375"/>
      <use xlink:href="#DejaVuSans-64" x="229.638672"/>
      <use xlink:href="#DejaVuSans-69" x="293.115234"/>
     </g>
    </g>
    <g id="line2d_14">
     <path d="M 241.657277 94.416937 
L 251.657277 94.416937 
L 261.657277 94.416937 
" style="fill: none; stroke: #ff7f0e; stroke-width: 1.5; stroke-linecap: square"/>
    </g>
    <g id="text_7">
     <!-- sweep -->
     <g transform="translate(269.657277 97.916937) scale(0.1 -0.1)">
      <defs>
       <path id="DejaVuSans-77" d="M 269 3500 
L 844 3500 
L 1563 769 
L 2278 3500 
L 2956 3500 
L 3675 769 
L 4391 3500 
L 4966 3500 
L 4050 0 
L 3372 0 
L 2619 2869 
L 1863 0 
L 1184 0 
L 269 3500 
z
" transform="scale(0.015625)"/>
       <path id="DejaVuSans-70" d="M 1159 525 
L 1159 -1331 
L 581 -1331 
L 581 3500 
L 1159 3500 
L 1159 2969 
Q 1341 3281 1617 3432 
Q 1894 3584 2278 3584 
Q 2916 3584 3314 3078 
Q 3713 2572 3713 1747 
Q 3713 922 3314 415 
Q 2916 -91 2278 -91 
Q 1894 -91 1617 61 
Q 1341 213 1159 525 
z
M 3116 1747 
Q 3116 2381 2855 2742 
Q 2594 3103 2138 3103 
Q 1681 3103 1420 2742 
Q 1159 2381 1159 1747 
Q 1159 1113 1420 752 
Q 1681 391 2138 391 
Q 2594 391 2855 752 
Q 3116 1113 3116 1747 
z
" transform="scale(0.015625)"/>
      </defs>
      <use xlink:href="#DejaVuSans-73"/>
      <use xlink:href="#DejaVuSans-77" x="52.099609"/>
      <use xlink:href="#DejaVuSans-65" x="133.886719"/>
      <use xlink:href="#DejaVuSans-65" x="195.410156"/>
      <use xlink:href="#DejaVuSans-70" x="256.933594"/>
     </g>
    </g>
    <g id="line2d_15">
     <path d="M 241.657277 109.095062 
L 251.657277 109.095062 
L 261.657277 109.095062 
" style="fill: none; stroke: #2ca02c; stroke-width: 1.5; stroke-linecap: square"/>
    </g>
    <g id="text_8">
     <!-- shooting -->
     <g transform="translate(269.657277 112.595062) scale(0.1 -0.1)">
      <defs>
       <path id="DejaVuSans-68" d="M 3513 2113 
L 3513 0 
L 2938 0 
L 2938 2094 
Q 2938 2591 2744 2837 
Q 2550 3084 2163 3084 
Q 1697 3084 1428 2787 
Q 1159 2491 1159 1978 
L 1159 0 
L 581 0 
L 581 4863 
L 1159 4863 
L 1159 2956 
Q 1366 3272 1645 3428 
Q 1925 3584 2291 3584 
Q 2894 3584 3203 3211 
Q 3513 2838 3513 2113 
z
" transform="scale(0.015625)"/>
      </defs>
      <use xlink:href="#DejaVuSans-73"/>
      <use xlink:href="#DejaVuSans-68" x="52.099609"/>
      <use xlink:href="#DejaVuSans-6f" x="115.478516"/>
      <use xlink:href="#DejaVuSans-6f" x="176.660156"/>
      <use xlink:href="#DejaVuSans-74" x="237.841797"/>
      <use xlink:href="#DejaVuSans-69" x="277.050781"/>
      <use xlink:href="#DejaVuSans-6e" x="304.833984"/>
      <use xlink:href="#DejaVuSans-67" x="368.212891"/>
     </g>
    </g>
   </g>
  </g>
  <g id="axes_2">
   <g id="patch_8">
    <path d="M 368.336027 123.674749 
L 631.72018 123.674749 
L 631.72018 22.318125 
L 368.336027 22.318125 
z
" style="fill: #ffffff"/>
   </g>
   <g id="matplotlib.axis_3">
    <g id="xtick_7">
     <g id="line2d_16">
      <g>
       <use xlink:href="#m373962db91" x="380.308034" y="123.674749" style="stroke: #000000; stroke-width: 0.8"/>
      </g>
     </g>
    </g>
    <g id="xtick_8">
     <g id="line2d_17">
      <g>
       <use xlink:href="#m373962db91" x="428.243998" y="123.674749" style="stroke: #000000; stroke-width: 0.8"/>
      </g>
     </g>
    </g>
    <g id="xtick_9">
     <g id="line2d_18">
      <g>
       <use xlink:href="#m373962db91" x="476.179962" y="123.674749" style="stroke: #000000; stroke-width: 0.8"/>
      </g>
     </g>
    </g>
    <g id="xtick_10">
     <g id="line2d_19">
      <g>
       <use xlink:href="#m373962db91" x="524.115925" y="123.674749" style="stroke: #000000; stroke-width: 0.8"/>
      </g>
     </g>
    </g>
    <g id="xtick_11">
     <g id="line2d_20">
      <g>
       <use xlink:href="#m373962db91" x="572.051889" y="123.674749" style="stroke: #000000; stroke-width: 0.8"/>
      </g>
     </g>
    </g>
    <g id="xtick_12">
     <g id="line2d_21">
      <g>
       <use xlink:href="#m373962db91" x="619.987853" y="123.674749" style="stroke: #000000; stroke-width: 0.8"/>
      </g>
     </g>
    </g>
   </g>
   <g id="matplotlib.axis_4">
    <g id="ytick_4">
     <g id="line2d_22">
      <g>
       <use xlink:href="#ma5390b4f97" x="368.336027" y="119.100279" style="stroke: #000000; stroke-width: 0.8"/>
      </g>
     </g>
     <g id="text_9">
      <!-- 0.000 -->
      <g transform="translate(332.707902 122.899498) scale(0.1 -0.1)">
       <use xlink:href="#DejaVuSans-30"/>
       <use xlink:href="#DejaVuSans-2e" x="63.623047"/>
       <use xlink:href="#DejaVuSans-30" x="95.410156"/>
       <use xlink:href="#DejaVuSans-30" x="159.033203"/>
       <use xlink:href="#DejaVuSans-30" x="222.65625"/>
      </g>
     </g>
    </g>
    <g id="ytick_5">
     <g id="line2d_23">
      <g>
       <use xlink:href="#ma5390b4f97" x="368.336027" y="86.485796" style="stroke: #000000; stroke-width: 0.8"/>
      </g>
     </g>
     <g id="text_10">
      <!-- 0.001 -->
      <g transform="translate(332.707902 90.285015) scale(0.1 -0.1)">
       <use xlink:href="#DejaVuSans-30"/>
       <use xlink:href="#DejaVuSans-2e" x="63.623047"/>
       <use xlink:href="#DejaVuSans-30" x="95.410156"/>
       <use xlink:href="#DejaVuSans-30" x="159.033203"/>
       <use xlink:href="#DejaVuSans-31" x="222.65625"/>
      </g>
     </g>
    </g>
    <g id="ytick_6">
     <g id="line2d_24">
      <g>
       <use xlink:href="#ma5390b4f97" x="368.336027" y="53.871313" style="stroke: #000000; stroke-width: 0.8"/>
      </g>
     </g>
     <g id="text_11">
      <!-- 0.002 -->
      <g transform="translate(332.707902 57.670531) scale(0.1 -0.1)">
       <use xlink:href="#DejaVuSans-30"/>
       <use xlink:href="#DejaVuSans-2e" x="63.623047"/>
       <use xlink:href="#DejaVuSans-30" x="95.410156"/>
       <use xlink:href="#DejaVuSans-30" x="159.033203"/>
       <use xlink:href="#DejaVuSans-32" x="222.65625"/>
      </g>
     </g>
    </g>
   </g>
   <g id="line2d_25">
    <path d="M 380.308034 119.067431 
L 416.499687 118.960074 
L 421.053603 118.740238 
L 424.169441 118.381103 
L 426.326559 117.934398 
L 428.243998 117.321648 
L 429.921757 116.557075 
L 431.359836 115.680474 
L 432.797914 114.548915 
L 434.235993 113.118285 
L 435.674072 111.361628 
L 437.112151 109.273003 
L 438.78991 106.430744 
L 440.707348 102.684341 
L 442.864467 97.928037 
L 445.980304 90.413122 
L 455.088138 68.062407 
L 458.203975 61.199821 
L 460.840453 55.898278 
L 463.237251 51.535853 
L 465.63405 47.627693 
L 468.030848 44.172896 
L 470.187966 41.44662 
L 472.345084 39.072134 
L 474.502203 37.031131 
L 476.659321 35.301366 
L 478.81644 33.861098 
L 480.973558 32.687703 
L 483.130676 31.756023 
L 485.527474 30.976 
L 487.924273 30.435593 
L 490.560751 30.083417 
L 493.197229 29.950255 
L 496.073386 30.017918 
L 499.428904 30.330097 
L 503.024101 30.888627 
L 507.338338 31.793525 
L 512.371614 33.081397 
L 518.842969 34.970003 
L 529.868241 38.454637 
L 546.885508 43.792628 
L 557.6711 46.924021 
L 567.977332 49.679989 
L 578.283564 52.201276 
L 588.829476 54.549074 
L 599.854748 56.772004 
L 611.359379 58.863234 
L 619.748173 60.255432 
L 619.748173 60.255432 
" clip-path="url(#pc567575bba)" style="fill: none; stroke: #1f77b4; stroke-width: 1.5; stroke-linecap: square"/>
   </g>
   <g id="line2d_26">
    <path d="M 380.308034 119.06763 
L 416.499687 118.960522 
L 421.772643 118.72234 
L 424.88848 118.37857 
L 427.045599 117.937933 
L 428.963037 117.308255 
L 430.401116 116.629167 
L 431.839195 115.707156 
L 433.037594 114.70069 
L 434.235993 113.424535 
L 435.434392 111.826686 
L 436.632792 109.859255 
L 437.831191 107.485271 
L 439.26927 104.07396 
L 440.707348 100.060216 
L 442.385107 94.708239 
L 444.781905 86.226609 
L 449.096142 70.852738 
L 451.25326 64.075008 
L 452.931019 59.4657 
L 454.608778 55.504244 
L 456.046857 52.636549 
L 457.484936 50.243098 
L 458.923015 48.297755 
L 460.361094 46.767693 
L 461.559493 45.782867 
L 462.757892 45.03707 
L 464.195971 44.422193 
L 465.63405 44.070724 
L 467.072128 43.938995 
L 468.749887 44.009992 
L 470.667326 44.319701 
L 473.064124 44.947247 
L 476.419641 46.081118 
L 488.882992 50.495419 
L 494.155948 52.026876 
L 500.147943 53.531502 
L 507.817698 55.210151 
L 517.64457 57.125137 
L 530.58728 59.405115 
L 544.00935 61.543246 
L 558.150459 63.571104 
L 573.250288 65.508266 
L 589.308836 67.342387 
L 606.805463 69.111347 
L 619.748173 70.285604 
L 619.748173 70.285604 
" clip-path="url(#pc567575bba)" style="fill: none; stroke: #ff7f0e; stroke-width: 1.5; stroke-linecap: square"/>
   </g>
   <g id="line2d_27">
    <path d="M 380.308034 119.06763 
L 416.499687 118.960522 
L 421.772643 118.72234 
L 424.88848 118.37857 
L 427.285279 117.895811 
L 428.963037 117.357335 
L 430.640796 116.566087 
L 432.078875 115.621509 
L 433.277274 114.586807 
L 434.475673 113.268619 
L 435.674072 111.605801 
L 436.872471 109.534804 
L 438.07087 106.995042 
L 439.26927 103.935419 
L 440.467669 100.322387 
L 441.905748 95.249559 
L 443.583506 88.398508 
L 445.740625 78.501629 
L 451.013581 53.7928 
L 452.691339 47.051007 
L 454.369098 41.248345 
L 455.807177 37.098555 
L 457.005576 34.232986 
L 458.203975 31.893437 
L 459.402374 30.054582 
L 460.600773 28.683021 
L 461.559493 27.894699 
L 462.518212 27.35579 
L 463.476931 27.041463 
L 464.43565 26.926147 
L 465.63405 27.022406 
L 466.832449 27.340922 
L 468.270528 27.954136 
L 470.187966 29.053045 
L 472.824444 30.866579 
L 480.014839 35.952474 
L 483.130676 37.822212 
L 486.246514 39.424961 
L 489.362352 40.784877 
L 492.957549 42.10856 
L 497.271786 43.44458 
L 503.024101 44.965249 
L 511.892255 47.045754 
L 526.033364 50.122053 
L 539.215754 52.762059 
L 551.679104 55.02359 
L 564.621815 57.144677 
L 578.762924 59.229499 
L 593.623073 61.192157 
L 609.68162 63.083958 
L 619.748173 64.162302 
L 619.748173 64.162302 
" clip-path="url(#pc567575bba)" style="fill: none; stroke: #2ca02c; stroke-width: 1.5; stroke-linecap: square"/>
   </g>
   <g id="patch_9">
    <path d="M 368.336027 123.674749 
L 368.336027 22.318125 
" style="fill: none; stroke: #000000; stroke-width: 0.8; stroke-linejoin: miter; stroke-linecap: square"/>
   </g>
   <g id="patch_10">
    <path d="M 631.72018 123.674749 
L 631.72018 22.318125 
" style="fill: none; stroke: #000000; stroke-width: 0.8; stroke-linejoin: miter; stroke-linecap: square"/>
   </g>
   <g id="patch_11">
    <path d="M 368.336027 123.674749 
L 631.72018 123.674749 
" style="fill: none; stroke: #000000; stroke-width: 0.8; stroke-linejoin: miter; stroke-linecap: square"/>
   </g>
   <g id="patch_12">
    <path d="M 368.336027 22.318125 
L 631.72018 22.318125 
" style="fill: none; stroke: #000000; stroke-width: 0.8; stroke-linejoin: miter; stroke-linecap: square"/>
   </g>
   <g id="text_12">
    <!-- LSTM Predictions -->
    <g transform="translate(449.197791 16.318125) scale(0.12 -0.12)">
     <defs>
      <path id="DejaVuSans-4c" d="M 628 4666 
L 1259 4666 
L 1259 531 
L 3531 531 
L 3531 0 
L 628 0 
L 628 4666 
z
" transform="scale(0.015625)"/>
      <path id="DejaVuSans-53" d="M 3425 4513 
L 3425 3897 
Q 3066 4069 2747 4153 
Q 2428 4238 2131 4238 
Q 1616 4238 1336 4038 
Q 1056 3838 1056 3469 
Q 1056 3159 1242 3001 
Q 1428 2844 1947 2747 
L 2328 2669 
Q 3034 2534 3370 2195 
Q 3706 1856 3706 1288 
Q 3706 609 3251 259 
Q 2797 -91 1919 -91 
Q 1588 -91 1214 -16 
Q 841 59 441 206 
L 441 856 
Q 825 641 1194 531 
Q 1563 422 1919 422 
Q 2459 422 2753 634 
Q 3047 847 3047 1241 
Q 3047 1584 2836 1778 
Q 2625 1972 2144 2069 
L 1759 2144 
Q 1053 2284 737 2584 
Q 422 2884 422 3419 
Q 422 4038 858 4394 
Q 1294 4750 2059 4750 
Q 2388 4750 2728 4690 
Q 3069 4631 3425 4513 
z
" transform="scale(0.015625)"/>
      <path id="DejaVuSans-54" d="M -19 4666 
L 3928 4666 
L 3928 4134 
L 2272 4134 
L 2272 0 
L 1638 0 
L 1638 4134 
L -19 4134 
L -19 4666 
z
" transform="scale(0.015625)"/>
      <path id="DejaVuSans-4d" d="M 628 4666 
L 1569 4666 
L 2759 1491 
L 3956 4666 
L 4897 4666 
L 4897 0 
L 4281 0 
L 4281 4097 
L 3078 897 
L 2444 897 
L 1241 4097 
L 1241 0 
L 628 0 
L 628 4666 
z
" transform="scale(0.015625)"/>
     </defs>
     <use xlink:href="#DejaVuSans-4c"/>
     <use xlink:href="#DejaVuSans-53" x="55.712891"/>
     <use xlink:href="#DejaVuSans-54" x="119.189453"/>
     <use xlink:href="#DejaVuSans-4d" x="180.273438"/>
     <use xlink:href="#DejaVuSans-20" x="266.552734"/>
     <use xlink:href="#DejaVuSans-50" x="298.339844"/>
     <use xlink:href="#DejaVuSans-72" x="356.892578"/>
     <use xlink:href="#DejaVuSans-65" x="395.755859"/>
     <use xlink:href="#DejaVuSans-64" x="457.279297"/>
     <use xlink:href="#DejaVuSans-69" x="520.755859"/>
     <use xlink:href="#DejaVuSans-63" x="548.539062"/>
     <use xlink:href="#DejaVuSans-74" x="603.519531"/>
     <use xlink:href="#DejaVuSans-69" x="642.728516"/>
     <use xlink:href="#DejaVuSans-6f" x="670.511719"/>
     <use xlink:href="#DejaVuSans-6e" x="731.693359"/>
     <use xlink:href="#DejaVuSans-73" x="795.072266"/>
    </g>
   </g>
   <g id="legend_2">
    <g id="patch_13">
     <path d="M 549.55143 118.674749 
L 624.72018 118.674749 
Q 626.72018 118.674749 626.72018 116.674749 
L 626.72018 73.640374 
Q 626.72018 71.640374 624.72018 71.640374 
L 549.55143 71.640374 
Q 547.55143 71.640374 547.55143 73.640374 
L 547.55143 116.674749 
Q 547.55143 118.674749 549.55143 118.674749 
z
" style="fill: #ffffff; opacity: 0.8; stroke: #cccccc; stroke-linejoin: miter"/>
    </g>
    <g id="line2d_28">
     <path d="M 551.55143 79.738812 
L 561.55143 79.738812 
L 571.55143 79.738812 
" style="fill: none; stroke: #1f77b4; stroke-width: 1.5; stroke-linecap: square"/>
    </g>
    <g id="text_13">
     <!-- casadi -->
     <g transform="translate(579.55143 83.238812) scale(0.1 -0.1)">
      <use xlink:href="#DejaVuSans-63"/>
      <use xlink:href="#DejaVuSans-61" x="54.980469"/>
      <use xlink:href="#DejaVuSans-73" x="116.259766"/>
      <use xlink:href="#DejaVuSans-61" x="168.359375"/>
      <use xlink:href="#DejaVuSans-64" x="229.638672"/>
      <use xlink:href="#DejaVuSans-69" x="293.115234"/>
     </g>
    </g>
    <g id="line2d_29">
     <path d="M 551.55143 94.416937 
L 561.55143 94.416937 
L 571.55143 94.416937 
" style="fill: none; stroke: #ff7f0e; stroke-width: 1.5; stroke-linecap: square"/>
    </g>
    <g id="text_14">
     <!-- sweep -->
     <g transform="translate(579.55143 97.916937) scale(0.1 -0.1)">
      <use xlink:href="#DejaVuSans-73"/>
      <use xlink:href="#DejaVuSans-77" x="52.099609"/>
      <use xlink:href="#DejaVuSans-65" x="133.886719"/>
      <use xlink:href="#DejaVuSans-65" x="195.410156"/>
      <use xlink:href="#DejaVuSans-70" x="256.933594"/>
     </g>
    </g>
    <g id="line2d_30">
     <path d="M 551.55143 109.095062 
L 561.55143 109.095062 
L 571.55143 109.095062 
" style="fill: none; stroke: #2ca02c; stroke-width: 1.5; stroke-linecap: square"/>
    </g>
    <g id="text_15">
     <!-- shooting -->
     <g transform="translate(579.55143 112.595062) scale(0.1 -0.1)">
      <use xlink:href="#DejaVuSans-73"/>
      <use xlink:href="#DejaVuSans-68" x="52.099609"/>
      <use xlink:href="#DejaVuSans-6f" x="115.478516"/>
      <use xlink:href="#DejaVuSans-6f" x="176.660156"/>
      <use xlink:href="#DejaVuSans-74" x="237.841797"/>
      <use xlink:href="#DejaVuSans-69" x="277.050781"/>
      <use xlink:href="#DejaVuSans-6e" x="304.833984"/>
      <use xlink:href="#DejaVuSans-67" x="368.212891"/>
     </g>
    </g>
   </g>
  </g>
  <g id="axes_3">
   <g id="patch_14">
    <path d="M 58.441875 242.918125 
L 321.826027 242.918125 
L 321.826027 141.561501 
L 58.441875 141.561501 
z
" style="fill: #ffffff"/>
   </g>
   <g id="matplotlib.axis_5">
    <g id="xtick_13">
     <g id="line2d_31">
      <g>
       <use xlink:href="#m373962db91" x="70.413882" y="242.918125" style="stroke: #000000; stroke-width: 0.8"/>
      </g>
     </g>
     <g id="text_16">
      <!-- 0 -->
      <g transform="translate(67.232632 257.516563) scale(0.1 -0.1)">
       <use xlink:href="#DejaVuSans-30"/>
      </g>
     </g>
    </g>
    <g id="xtick_14">
     <g id="line2d_32">
      <g>
       <use xlink:href="#m373962db91" x="118.349846" y="242.918125" style="stroke: #000000; stroke-width: 0.8"/>
      </g>
     </g>
     <g id="text_17">
      <!-- 200 -->
      <g transform="translate(108.806096 257.516563) scale(0.1 -0.1)">
       <use xlink:href="#DejaVuSans-32"/>
       <use xlink:href="#DejaVuSans-30" x="63.623047"/>
       <use xlink:href="#DejaVuSans-30" x="127.246094"/>
      </g>
     </g>
    </g>
    <g id="xtick_15">
     <g id="line2d_33">
      <g>
       <use xlink:href="#m373962db91" x="166.285809" y="242.918125" style="stroke: #000000; stroke-width: 0.8"/>
      </g>
     </g>
     <g id="text_18">
      <!-- 400 -->
      <g transform="translate(156.742059 257.516563) scale(0.1 -0.1)">
       <defs>
        <path id="DejaVuSans-34" d="M 2419 4116 
L 825 1625 
L 2419 1625 
L 2419 4116 
z
M 2253 4666 
L 3047 4666 
L 3047 1625 
L 3713 1625 
L 3713 1100 
L 3047 1100 
L 3047 0 
L 2419 0 
L 2419 1100 
L 313 1100 
L 313 1709 
L 2253 4666 
z
" transform="scale(0.015625)"/>
       </defs>
       <use xlink:href="#DejaVuSans-34"/>
       <use xlink:href="#DejaVuSans-30" x="63.623047"/>
       <use xlink:href="#DejaVuSans-30" x="127.246094"/>
      </g>
     </g>
    </g>
    <g id="xtick_16">
     <g id="line2d_34">
      <g>
       <use xlink:href="#m373962db91" x="214.221773" y="242.918125" style="stroke: #000000; stroke-width: 0.8"/>
      </g>
     </g>
     <g id="text_19">
      <!-- 600 -->
      <g transform="translate(204.678023 257.516563) scale(0.1 -0.1)">
       <defs>
        <path id="DejaVuSans-36" d="M 2113 2584 
Q 1688 2584 1439 2293 
Q 1191 2003 1191 1497 
Q 1191 994 1439 701 
Q 1688 409 2113 409 
Q 2538 409 2786 701 
Q 3034 994 3034 1497 
Q 3034 2003 2786 2293 
Q 2538 2584 2113 2584 
z
M 3366 4563 
L 3366 3988 
Q 3128 4100 2886 4159 
Q 2644 4219 2406 4219 
Q 1781 4219 1451 3797 
Q 1122 3375 1075 2522 
Q 1259 2794 1537 2939 
Q 1816 3084 2150 3084 
Q 2853 3084 3261 2657 
Q 3669 2231 3669 1497 
Q 3669 778 3244 343 
Q 2819 -91 2113 -91 
Q 1303 -91 875 529 
Q 447 1150 447 2328 
Q 447 3434 972 4092 
Q 1497 4750 2381 4750 
Q 2619 4750 2861 4703 
Q 3103 4656 3366 4563 
z
" transform="scale(0.015625)"/>
       </defs>
       <use xlink:href="#DejaVuSans-36"/>
       <use xlink:href="#DejaVuSans-30" x="63.623047"/>
       <use xlink:href="#DejaVuSans-30" x="127.246094"/>
      </g>
     </g>
    </g>
    <g id="xtick_17">
     <g id="line2d_35">
      <g>
       <use xlink:href="#m373962db91" x="262.157737" y="242.918125" style="stroke: #000000; stroke-width: 0.8"/>
      </g>
     </g>
     <g id="text_20">
      <!-- 800 -->
      <g transform="translate(252.613987 257.516563) scale(0.1 -0.1)">
       <defs>
        <path id="DejaVuSans-38" d="M 2034 2216 
Q 1584 2216 1326 1975 
Q 1069 1734 1069 1313 
Q 1069 891 1326 650 
Q 1584 409 2034 409 
Q 2484 409 2743 651 
Q 3003 894 3003 1313 
Q 3003 1734 2745 1975 
Q 2488 2216 2034 2216 
z
M 1403 2484 
Q 997 2584 770 2862 
Q 544 3141 544 3541 
Q 544 4100 942 4425 
Q 1341 4750 2034 4750 
Q 2731 4750 3128 4425 
Q 3525 4100 3525 3541 
Q 3525 3141 3298 2862 
Q 3072 2584 2669 2484 
Q 3125 2378 3379 2068 
Q 3634 1759 3634 1313 
Q 3634 634 3220 271 
Q 2806 -91 2034 -91 
Q 1263 -91 848 271 
Q 434 634 434 1313 
Q 434 1759 690 2068 
Q 947 2378 1403 2484 
z
M 1172 3481 
Q 1172 3119 1398 2916 
Q 1625 2713 2034 2713 
Q 2441 2713 2670 2916 
Q 2900 3119 2900 3481 
Q 2900 3844 2670 4047 
Q 2441 4250 2034 4250 
Q 1625 4250 1398 4047 
Q 1172 3844 1172 3481 
z
" transform="scale(0.015625)"/>
       </defs>
       <use xlink:href="#DejaVuSans-38"/>
       <use xlink:href="#DejaVuSans-30" x="63.623047"/>
       <use xlink:href="#DejaVuSans-30" x="127.246094"/>
      </g>
     </g>
    </g>
    <g id="xtick_18">
     <g id="line2d_36">
      <g>
       <use xlink:href="#m373962db91" x="310.0937" y="242.918125" style="stroke: #000000; stroke-width: 0.8"/>
      </g>
     </g>
     <g id="text_21">
      <!-- 1000 -->
      <g transform="translate(297.3687 257.516563) scale(0.1 -0.1)">
       <use xlink:href="#DejaVuSans-31"/>
       <use xlink:href="#DejaVuSans-30" x="63.623047"/>
       <use xlink:href="#DejaVuSans-30" x="127.246094"/>
       <use xlink:href="#DejaVuSans-30" x="190.869141"/>
      </g>
     </g>
    </g>
    <g id="text_22">
     <!-- time (days) -->
     <g transform="translate(161.544889 271.194688) scale(0.1 -0.1)">
      <defs>
       <path id="DejaVuSans-6d" d="M 3328 2828 
Q 3544 3216 3844 3400 
Q 4144 3584 4550 3584 
Q 5097 3584 5394 3201 
Q 5691 2819 5691 2113 
L 5691 0 
L 5113 0 
L 5113 2094 
Q 5113 2597 4934 2840 
Q 4756 3084 4391 3084 
Q 3944 3084 3684 2787 
Q 3425 2491 3425 1978 
L 3425 0 
L 2847 0 
L 2847 2094 
Q 2847 2600 2669 2842 
Q 2491 3084 2119 3084 
Q 1678 3084 1418 2786 
Q 1159 2488 1159 1978 
L 1159 0 
L 581 0 
L 581 3500 
L 1159 3500 
L 1159 2956 
Q 1356 3278 1631 3431 
Q 1906 3584 2284 3584 
Q 2666 3584 2933 3390 
Q 3200 3197 3328 2828 
z
" transform="scale(0.015625)"/>
       <path id="DejaVuSans-28" d="M 1984 4856 
Q 1566 4138 1362 3434 
Q 1159 2731 1159 2009 
Q 1159 1288 1364 580 
Q 1569 -128 1984 -844 
L 1484 -844 
Q 1016 -109 783 600 
Q 550 1309 550 2009 
Q 550 2706 781 3412 
Q 1013 4119 1484 4856 
L 1984 4856 
z
" transform="scale(0.015625)"/>
       <path id="DejaVuSans-79" d="M 2059 -325 
Q 1816 -950 1584 -1140 
Q 1353 -1331 966 -1331 
L 506 -1331 
L 506 -850 
L 844 -850 
Q 1081 -850 1212 -737 
Q 1344 -625 1503 -206 
L 1606 56 
L 191 3500 
L 800 3500 
L 1894 763 
L 2988 3500 
L 3597 3500 
L 2059 -325 
z
" transform="scale(0.015625)"/>
       <path id="DejaVuSans-29" d="M 513 4856 
L 1013 4856 
Q 1481 4119 1714 3412 
Q 1947 2706 1947 2009 
Q 1947 1309 1714 600 
Q 1481 -109 1013 -844 
L 513 -844 
Q 928 -128 1133 580 
Q 1338 1288 1338 2009 
Q 1338 2731 1133 3434 
Q 928 4138 513 4856 
z
" transform="scale(0.015625)"/>
      </defs>
      <use xlink:href="#DejaVuSans-74"/>
      <use xlink:href="#DejaVuSans-69" x="39.208984"/>
      <use xlink:href="#DejaVuSans-6d" x="66.992188"/>
      <use xlink:href="#DejaVuSans-65" x="164.404297"/>
      <use xlink:href="#DejaVuSans-20" x="225.927734"/>
      <use xlink:href="#DejaVuSans-28" x="257.714844"/>
      <use xlink:href="#DejaVuSans-64" x="296.728516"/>
      <use xlink:href="#DejaVuSans-61" x="360.205078"/>
      <use xlink:href="#DejaVuSans-79" x="421.484375"/>
      <use xlink:href="#DejaVuSans-73" x="480.664062"/>
      <use xlink:href="#DejaVuSans-29" x="532.763672"/>
     </g>
    </g>
   </g>
   <g id="matplotlib.axis_6">
    <g id="ytick_7">
     <g id="line2d_37">
      <g>
       <use xlink:href="#ma5390b4f97" x="58.441875" y="230.019994" style="stroke: #000000; stroke-width: 0.8"/>
      </g>
     </g>
     <g id="text_23">
      <!-- −0.3 -->
      <g transform="translate(27.159063 233.819213) scale(0.1 -0.1)">
       <defs>
        <path id="DejaVuSans-2212" d="M 678 2272 
L 4684 2272 
L 4684 1741 
L 678 1741 
L 678 2272 
z
" transform="scale(0.015625)"/>
        <path id="DejaVuSans-33" d="M 2597 2516 
Q 3050 2419 3304 2112 
Q 3559 1806 3559 1356 
Q 3559 666 3084 287 
Q 2609 -91 1734 -91 
Q 1441 -91 1130 -33 
Q 819 25 488 141 
L 488 750 
Q 750 597 1062 519 
Q 1375 441 1716 441 
Q 2309 441 2620 675 
Q 2931 909 2931 1356 
Q 2931 1769 2642 2001 
Q 2353 2234 1838 2234 
L 1294 2234 
L 1294 2753 
L 1863 2753 
Q 2328 2753 2575 2939 
Q 2822 3125 2822 3475 
Q 2822 3834 2567 4026 
Q 2313 4219 1838 4219 
Q 1578 4219 1281 4162 
Q 984 4106 628 3988 
L 628 4550 
Q 988 4650 1302 4700 
Q 1616 4750 1894 4750 
Q 2613 4750 3031 4423 
Q 3450 4097 3450 3541 
Q 3450 3153 3228 2886 
Q 3006 2619 2597 2516 
z
" transform="scale(0.015625)"/>
       </defs>
       <use xlink:href="#DejaVuSans-2212"/>
       <use xlink:href="#DejaVuSans-30" x="83.789062"/>
       <use xlink:href="#DejaVuSans-2e" x="147.412109"/>
       <use xlink:href="#DejaVuSans-33" x="179.199219"/>
      </g>
     </g>
    </g>
    <g id="ytick_8">
     <g id="line2d_38">
      <g>
       <use xlink:href="#ma5390b4f97" x="58.441875" y="207.49929" style="stroke: #000000; stroke-width: 0.8"/>
      </g>
     </g>
     <g id="text_24">
      <!-- −0.2 -->
      <g transform="translate(27.159063 211.298509) scale(0.1 -0.1)">
       <use xlink:href="#DejaVuSans-2212"/>
       <use xlink:href="#DejaVuSans-30" x="83.789062"/>
       <use xlink:href="#DejaVuSans-2e" x="147.412109"/>
       <use xlink:href="#DejaVuSans-32" x="179.199219"/>
      </g>
     </g>
    </g>
    <g id="ytick_9">
     <g id="line2d_39">
      <g>
       <use xlink:href="#ma5390b4f97" x="58.441875" y="184.978586" style="stroke: #000000; stroke-width: 0.8"/>
      </g>
     </g>
     <g id="text_25">
      <!-- −0.1 -->
      <g transform="translate(27.159063 188.777805) scale(0.1 -0.1)">
       <use xlink:href="#DejaVuSans-2212"/>
       <use xlink:href="#DejaVuSans-30" x="83.789062"/>
       <use xlink:href="#DejaVuSans-2e" x="147.412109"/>
       <use xlink:href="#DejaVuSans-31" x="179.199219"/>
      </g>
     </g>
    </g>
    <g id="ytick_10">
     <g id="line2d_40">
      <g>
       <use xlink:href="#ma5390b4f97" x="58.441875" y="162.457881" style="stroke: #000000; stroke-width: 0.8"/>
      </g>
     </g>
     <g id="text_26">
      <!-- 0.0 -->
      <g transform="translate(35.53875 166.2571) scale(0.1 -0.1)">
       <use xlink:href="#DejaVuSans-30"/>
       <use xlink:href="#DejaVuSans-2e" x="63.623047"/>
       <use xlink:href="#DejaVuSans-30" x="95.410156"/>
      </g>
     </g>
    </g>
    <g id="text_27">
     <!-- Cumulated Cost -->
     <g transform="translate(20.663437 240.321375) rotate(-90) scale(0.12 -0.12)">
      <defs>
       <path id="DejaVuSans-6c" d="M 603 4863 
L 1178 4863 
L 1178 0 
L 603 0 
L 603 4863 
z
" transform="scale(0.015625)"/>
      </defs>
      <use xlink:href="#DejaVuSans-43"/>
      <use xlink:href="#DejaVuSans-75" x="69.824219"/>
      <use xlink:href="#DejaVuSans-6d" x="133.203125"/>
      <use xlink:href="#DejaVuSans-75" x="230.615234"/>
      <use xlink:href="#DejaVuSans-6c" x="293.994141"/>
      <use xlink:href="#DejaVuSans-61" x="321.777344"/>
      <use xlink:href="#DejaVuSans-74" x="383.056641"/>
      <use xlink:href="#DejaVuSans-65" x="422.265625"/>
      <use xlink:href="#DejaVuSans-64" x="483.789062"/>
      <use xlink:href="#DejaVuSans-20" x="547.265625"/>
      <use xlink:href="#DejaVuSans-43" x="579.052734"/>
      <use xlink:href="#DejaVuSans-6f" x="648.876953"/>
      <use xlink:href="#DejaVuSans-73" x="710.058594"/>
      <use xlink:href="#DejaVuSans-74" x="762.158203"/>
     </g>
    </g>
   </g>
   <g id="line2d_41">
    <path d="M 70.413882 162.457881 
L 309.85402 162.457881 
L 309.85402 162.457881 
" clip-path="url(#pf96514e664)" style="fill: none; stroke: #1f77b4; stroke-width: 1.5; stroke-linecap: square"/>
   </g>
   <g id="line2d_42">
    <path d="M 70.413882 162.457883 
L 131.052876 162.349392 
L 133.689354 161.970853 
L 136.086152 161.409471 
L 138.96231 160.486015 
L 143.516227 158.72648 
L 147.590783 157.251474 
L 150.227261 156.526644 
L 152.62406 156.093844 
L 154.781178 155.91401 
L 156.938296 155.942851 
L 159.095415 156.180559 
L 161.492213 156.680622 
L 163.889011 157.41186 
L 166.525489 158.456368 
L 169.401647 159.844884 
L 172.517485 161.592869 
L 176.352362 164.016469 
L 180.906278 167.17312 
L 187.137953 171.783129 
L 210.626576 189.405285 
L 218.29633 194.75196 
L 225.486724 199.498693 
L 232.677119 203.980536 
L 239.867513 208.200923 
L 247.057908 212.16958 
L 254.487982 216.020108 
L 262.157737 219.74513 
L 270.067171 223.340446 
L 278.216284 226.804437 
L 286.844758 230.229501 
L 295.952591 233.599195 
L 305.300104 236.820931 
L 309.85402 238.311006 
L 309.85402 238.311006 
" clip-path="url(#pf96514e664)" style="fill: none; stroke: #ff7f0e; stroke-width: 1.5; stroke-linecap: square"/>
   </g>
   <g id="line2d_43">
    <path d="M 70.413882 162.457883 
L 124.821201 162.567235 
L 129.375117 162.511327 
L 132.011595 162.249891 
L 134.168714 161.795586 
L 136.086152 161.155698 
L 138.003591 160.271723 
L 139.921029 159.152243 
L 142.317827 157.479176 
L 145.913025 154.641763 
L 150.227261 151.283285 
L 152.863739 149.524026 
L 155.020858 148.336485 
L 157.177976 147.405514 
L 159.335095 146.739946 
L 161.492213 146.334378 
L 163.649331 146.173314 
L 165.80645 146.235011 
L 168.203248 146.534342 
L 170.839726 147.102802 
L 173.715884 147.956226 
L 177.071401 149.18955 
L 181.145958 150.932037 
L 186.658594 153.550282 
L 197.444186 158.987628 
L 208.709137 164.565067 
L 217.097931 168.468632 
L 225.007365 171.900534 
L 232.677119 174.982713 
L 240.346873 177.822421 
L 248.016627 180.42765 
L 255.926061 182.882324 
L 264.075175 185.182545 
L 272.703649 187.386038 
L 281.811482 189.477268 
L 291.398674 191.444903 
L 301.465227 193.281433 
L 309.85402 194.65189 
L 309.85402 194.65189 
" clip-path="url(#pf96514e664)" style="fill: none; stroke: #2ca02c; stroke-width: 1.5; stroke-linecap: square"/>
   </g>
   <g id="patch_15">
    <path d="M 58.441875 242.918125 
L 58.441875 141.561501 
" style="fill: none; stroke: #000000; stroke-width: 0.8; stroke-linejoin: miter; stroke-linecap: square"/>
   </g>
   <g id="patch_16">
    <path d="M 321.826027 242.918125 
L 321.826027 141.561501 
" style="fill: none; stroke: #000000; stroke-width: 0.8; stroke-linejoin: miter; stroke-linecap: square"/>
   </g>
   <g id="patch_17">
    <path d="M 58.441875 242.918125 
L 321.826027 242.918125 
" style="fill: none; stroke: #000000; stroke-width: 0.8; stroke-linejoin: miter; stroke-linecap: square"/>
   </g>
   <g id="patch_18">
    <path d="M 58.441875 141.561501 
L 321.826027 141.561501 
" style="fill: none; stroke: #000000; stroke-width: 0.8; stroke-linejoin: miter; stroke-linecap: square"/>
   </g>
   <g id="legend_3">
    <g id="patch_19">
     <path d="M 65.441875 237.918125 
L 140.610625 237.918125 
Q 142.610625 237.918125 142.610625 235.918125 
L 142.610625 192.88375 
Q 142.610625 190.88375 140.610625 190.88375 
L 65.441875 190.88375 
Q 63.441875 190.88375 63.441875 192.88375 
L 63.441875 235.918125 
Q 63.441875 237.918125 65.441875 237.918125 
z
" style="fill: #ffffff; opacity: 0.8; stroke: #cccccc; stroke-linejoin: miter"/>
    </g>
    <g id="line2d_44">
     <path d="M 67.441875 198.982188 
L 77.441875 198.982188 
L 87.441875 198.982188 
" style="fill: none; stroke: #1f77b4; stroke-width: 1.5; stroke-linecap: square"/>
    </g>
    <g id="text_28">
     <!-- casadi -->
     <g transform="translate(95.441875 202.482188) scale(0.1 -0.1)">
      <use xlink:href="#DejaVuSans-63"/>
      <use xlink:href="#DejaVuSans-61" x="54.980469"/>
      <use xlink:href="#DejaVuSans-73" x="116.259766"/>
      <use xlink:href="#DejaVuSans-61" x="168.359375"/>
      <use xlink:href="#DejaVuSans-64" x="229.638672"/>
      <use xlink:href="#DejaVuSans-69" x="293.115234"/>
     </g>
    </g>
    <g id="line2d_45">
     <path d="M 67.441875 213.660313 
L 77.441875 213.660313 
L 87.441875 213.660313 
" style="fill: none; stroke: #ff7f0e; stroke-width: 1.5; stroke-linecap: square"/>
    </g>
    <g id="text_29">
     <!-- sweep -->
     <g transform="translate(95.441875 217.160313) scale(0.1 -0.1)">
      <use xlink:href="#DejaVuSans-73"/>
      <use xlink:href="#DejaVuSans-77" x="52.099609"/>
      <use xlink:href="#DejaVuSans-65" x="133.886719"/>
      <use xlink:href="#DejaVuSans-65" x="195.410156"/>
      <use xlink:href="#DejaVuSans-70" x="256.933594"/>
     </g>
    </g>
    <g id="line2d_46">
     <path d="M 67.441875 228.338438 
L 77.441875 228.338438 
L 87.441875 228.338438 
" style="fill: none; stroke: #2ca02c; stroke-width: 1.5; stroke-linecap: square"/>
    </g>
    <g id="text_30">
     <!-- shooting -->
     <g transform="translate(95.441875 231.838438) scale(0.1 -0.1)">
      <use xlink:href="#DejaVuSans-73"/>
      <use xlink:href="#DejaVuSans-68" x="52.099609"/>
      <use xlink:href="#DejaVuSans-6f" x="115.478516"/>
      <use xlink:href="#DejaVuSans-6f" x="176.660156"/>
      <use xlink:href="#DejaVuSans-74" x="237.841797"/>
      <use xlink:href="#DejaVuSans-69" x="277.050781"/>
      <use xlink:href="#DejaVuSans-6e" x="304.833984"/>
      <use xlink:href="#DejaVuSans-67" x="368.212891"/>
     </g>
    </g>
   </g>
  </g>
  <g id="axes_4">
   <g id="patch_20">
    <path d="M 368.336027 242.918125 
L 631.72018 242.918125 
L 631.72018 141.561501 
L 368.336027 141.561501 
z
" style="fill: #ffffff"/>
   </g>
   <g id="matplotlib.axis_7">
    <g id="xtick_19">
     <g id="line2d_47">
      <g>
       <use xlink:href="#m373962db91" x="380.308034" y="242.918125" style="stroke: #000000; stroke-width: 0.8"/>
      </g>
     </g>
     <g id="text_31">
      <!-- 0 -->
      <g transform="translate(377.126784 257.516563) scale(0.1 -0.1)">
       <use xlink:href="#DejaVuSans-30"/>
      </g>
     </g>
    </g>
    <g id="xtick_20">
     <g id="line2d_48">
      <g>
       <use xlink:href="#m373962db91" x="428.243998" y="242.918125" style="stroke: #000000; stroke-width: 0.8"/>
      </g>
     </g>
     <g id="text_32">
      <!-- 200 -->
      <g transform="translate(418.700248 257.516563) scale(0.1 -0.1)">
       <use xlink:href="#DejaVuSans-32"/>
       <use xlink:href="#DejaVuSans-30" x="63.623047"/>
       <use xlink:href="#DejaVuSans-30" x="127.246094"/>
      </g>
     </g>
    </g>
    <g id="xtick_21">
     <g id="line2d_49">
      <g>
       <use xlink:href="#m373962db91" x="476.179962" y="242.918125" style="stroke: #000000; stroke-width: 0.8"/>
      </g>
     </g>
     <g id="text_33">
      <!-- 400 -->
      <g transform="translate(466.636212 257.516563) scale(0.1 -0.1)">
       <use xlink:href="#DejaVuSans-34"/>
       <use xlink:href="#DejaVuSans-30" x="63.623047"/>
       <use xlink:href="#DejaVuSans-30" x="127.246094"/>
      </g>
     </g>
    </g>
    <g id="xtick_22">
     <g id="line2d_50">
      <g>
       <use xlink:href="#m373962db91" x="524.115925" y="242.918125" style="stroke: #000000; stroke-width: 0.8"/>
      </g>
     </g>
     <g id="text_34">
      <!-- 600 -->
      <g transform="translate(514.572175 257.516563) scale(0.1 -0.1)">
       <use xlink:href="#DejaVuSans-36"/>
       <use xlink:href="#DejaVuSans-30" x="63.623047"/>
       <use xlink:href="#DejaVuSans-30" x="127.246094"/>
      </g>
     </g>
    </g>
    <g id="xtick_23">
     <g id="line2d_51">
      <g>
       <use xlink:href="#m373962db91" x="572.051889" y="242.918125" style="stroke: #000000; stroke-width: 0.8"/>
      </g>
     </g>
     <g id="text_35">
      <!-- 800 -->
      <g transform="translate(562.508139 257.516563) scale(0.1 -0.1)">
       <use xlink:href="#DejaVuSans-38"/>
       <use xlink:href="#DejaVuSans-30" x="63.623047"/>
       <use xlink:href="#DejaVuSans-30" x="127.246094"/>
      </g>
     </g>
    </g>
    <g id="xtick_24">
     <g id="line2d_52">
      <g>
       <use xlink:href="#m373962db91" x="619.987853" y="242.918125" style="stroke: #000000; stroke-width: 0.8"/>
      </g>
     </g>
     <g id="text_36">
      <!-- 1000 -->
      <g transform="translate(607.262853 257.516563) scale(0.1 -0.1)">
       <use xlink:href="#DejaVuSans-31"/>
       <use xlink:href="#DejaVuSans-30" x="63.623047"/>
       <use xlink:href="#DejaVuSans-30" x="127.246094"/>
       <use xlink:href="#DejaVuSans-30" x="190.869141"/>
      </g>
     </g>
    </g>
    <g id="text_37">
     <!-- time (days) -->
     <g transform="translate(471.439041 271.194688) scale(0.1 -0.1)">
      <use xlink:href="#DejaVuSans-74"/>
      <use xlink:href="#DejaVuSans-69" x="39.208984"/>
      <use xlink:href="#DejaVuSans-6d" x="66.992188"/>
      <use xlink:href="#DejaVuSans-65" x="164.404297"/>
      <use xlink:href="#DejaVuSans-20" x="225.927734"/>
      <use xlink:href="#DejaVuSans-28" x="257.714844"/>
      <use xlink:href="#DejaVuSans-64" x="296.728516"/>
      <use xlink:href="#DejaVuSans-61" x="360.205078"/>
      <use xlink:href="#DejaVuSans-79" x="421.484375"/>
      <use xlink:href="#DejaVuSans-73" x="480.664062"/>
      <use xlink:href="#DejaVuSans-29" x="532.763672"/>
     </g>
    </g>
   </g>
   <g id="matplotlib.axis_8">
    <g id="ytick_11">
     <g id="line2d_53">
      <g>
       <use xlink:href="#ma5390b4f97" x="368.336027" y="241.648221" style="stroke: #000000; stroke-width: 0.8"/>
      </g>
     </g>
     <g id="text_38">
      <!-- −0.3 -->
      <g transform="translate(337.053215 245.44744) scale(0.1 -0.1)">
       <use xlink:href="#DejaVuSans-2212"/>
       <use xlink:href="#DejaVuSans-30" x="83.789062"/>
       <use xlink:href="#DejaVuSans-2e" x="147.412109"/>
       <use xlink:href="#DejaVuSans-33" x="179.199219"/>
      </g>
     </g>
    </g>
    <g id="ytick_12">
     <g id="line2d_54">
      <g>
       <use xlink:href="#ma5390b4f97" x="368.336027" y="216.720369" style="stroke: #000000; stroke-width: 0.8"/>
      </g>
     </g>
     <g id="text_39">
      <!-- −0.2 -->
      <g transform="translate(337.053215 220.519587) scale(0.1 -0.1)">
       <use xlink:href="#DejaVuSans-2212"/>
       <use xlink:href="#DejaVuSans-30" x="83.789062"/>
       <use xlink:href="#DejaVuSans-2e" x="147.412109"/>
       <use xlink:href="#DejaVuSans-32" x="179.199219"/>
      </g>
     </g>
    </g>
    <g id="ytick_13">
     <g id="line2d_55">
      <g>
       <use xlink:href="#ma5390b4f97" x="368.336027" y="191.792516" style="stroke: #000000; stroke-width: 0.8"/>
      </g>
     </g>
     <g id="text_40">
      <!-- −0.1 -->
      <g transform="translate(337.053215 195.591735) scale(0.1 -0.1)">
       <use xlink:href="#DejaVuSans-2212"/>
       <use xlink:href="#DejaVuSans-30" x="83.789062"/>
       <use xlink:href="#DejaVuSans-2e" x="147.412109"/>
       <use xlink:href="#DejaVuSans-31" x="179.199219"/>
      </g>
     </g>
    </g>
    <g id="ytick_14">
     <g id="line2d_56">
      <g>
       <use xlink:href="#ma5390b4f97" x="368.336027" y="166.864663" style="stroke: #000000; stroke-width: 0.8"/>
      </g>
     </g>
     <g id="text_41">
      <!-- 0.0 -->
      <g transform="translate(345.432902 170.663882) scale(0.1 -0.1)">
       <use xlink:href="#DejaVuSans-30"/>
       <use xlink:href="#DejaVuSans-2e" x="63.623047"/>
       <use xlink:href="#DejaVuSans-30" x="95.410156"/>
      </g>
     </g>
    </g>
    <g id="ytick_15">
     <g id="line2d_57">
      <g>
       <use xlink:href="#ma5390b4f97" x="368.336027" y="141.93681" style="stroke: #000000; stroke-width: 0.8"/>
      </g>
     </g>
     <g id="text_42">
      <!-- 0.1 -->
      <g transform="translate(345.432902 145.736029) scale(0.1 -0.1)">
       <use xlink:href="#DejaVuSans-30"/>
       <use xlink:href="#DejaVuSans-2e" x="63.623047"/>
       <use xlink:href="#DejaVuSans-31" x="95.410156"/>
      </g>
     </g>
    </g>
   </g>
   <g id="line2d_58">
    <path d="M 380.308034 166.864663 
L 619.748173 166.864663 
L 619.748173 166.864663 
" clip-path="url(#p1c1107fdd6)" style="fill: none; stroke: #1f77b4; stroke-width: 1.5; stroke-linecap: square"/>
   </g>
   <g id="line2d_59">
    <path d="M 380.308034 166.864665 
L 441.186708 166.760495 
L 443.823186 166.37302 
L 446.219984 165.794827 
L 448.856462 164.921015 
L 452.21198 163.554424 
L 458.923015 160.758062 
L 461.559493 159.915139 
L 463.956291 159.367082 
L 466.353089 159.058225 
L 468.510207 158.996974 
L 470.667326 159.142355 
L 473.064124 159.538704 
L 475.460922 160.167034 
L 478.0974 161.10134 
L 480.973558 162.375088 
L 484.089396 164.006861 
L 487.684593 166.14921 
L 491.99883 168.99052 
L 497.751145 173.070064 
L 509.016097 181.412605 
L 519.322329 188.919573 
L 527.231763 194.410859 
L 534.661837 199.302176 
L 541.852232 203.774678 
L 549.042626 207.990328 
L 556.472701 212.084772 
L 563.902775 215.926229 
L 571.572529 219.642767 
L 579.481963 223.229707 
L 587.631077 226.685136 
L 596.259551 230.101044 
L 605.367384 233.460926 
L 614.714897 236.672463 
L 619.748173 238.311006 
L 619.748173 238.311006 
" clip-path="url(#p1c1107fdd6)" style="fill: none; stroke: #ff7f0e; stroke-width: 1.5; stroke-linecap: square"/>
   </g>
   <g id="line2d_60">
    <path d="M 380.308034 166.864665 
L 433.996314 166.975566 
L 439.02959 166.945129 
L 441.426388 166.732849 
L 443.583506 166.313259 
L 445.500945 165.695027 
L 447.418383 164.811065 
L 449.335822 163.656953 
L 451.49294 162.067246 
L 454.129418 159.806201 
L 463.476931 151.453937 
L 465.873729 149.773085 
L 468.030848 148.530353 
L 470.187966 147.557388 
L 472.345084 146.852694 
L 474.502203 146.40419 
L 476.659321 146.192642 
L 478.81644 146.194515 
L 481.213238 146.415892 
L 483.849716 146.885607 
L 486.965553 147.68792 
L 490.560751 148.866473 
L 494.874987 150.52814 
L 500.866983 153.095581 
L 526.992083 164.571897 
L 535.141197 167.768982 
L 542.810951 170.543873 
L 550.480705 173.088411 
L 558.390139 175.477394 
L 566.539253 177.70195 
L 574.928047 179.758469 
L 583.55652 181.647216 
L 592.664353 183.41505 
L 602.251546 185.051056 
L 612.557778 186.581176 
L 619.748173 187.523334 
L 619.748173 187.523334 
" clip-path="url(#p1c1107fdd6)" style="fill: none; stroke: #2ca02c; stroke-width: 1.5; stroke-linecap: square"/>
   </g>
   <g id="patch_21">
    <path d="M 368.336027 242.918125 
L 368.336027 141.561501 
" style="fill: none; stroke: #000000; stroke-width: 0.8; stroke-linejoin: miter; stroke-linecap: square"/>
   </g>
   <g id="patch_22">
    <path d="M 631.72018 242.918125 
L 631.72018 141.561501 
" style="fill: none; stroke: #000000; stroke-width: 0.8; stroke-linejoin: miter; stroke-linecap: square"/>
   </g>
   <g id="patch_23">
    <path d="M 368.336027 242.918125 
L 631.72018 242.918125 
" style="fill: none; stroke: #000000; stroke-width: 0.8; stroke-linejoin: miter; stroke-linecap: square"/>
   </g>
   <g id="patch_24">
    <path d="M 368.336027 141.561501 
L 631.72018 141.561501 
" style="fill: none; stroke: #000000; stroke-width: 0.8; stroke-linejoin: miter; stroke-linecap: square"/>
   </g>
   <g id="legend_4">
    <g id="patch_25">
     <path d="M 375.336027 237.918125 
L 450.504777 237.918125 
Q 452.504777 237.918125 452.504777 235.918125 
L 452.504777 192.88375 
Q 452.504777 190.88375 450.504777 190.88375 
L 375.336027 190.88375 
Q 373.336027 190.88375 373.336027 192.88375 
L 373.336027 235.918125 
Q 373.336027 237.918125 375.336027 237.918125 
z
" style="fill: #ffffff; opacity: 0.8; stroke: #cccccc; stroke-linejoin: miter"/>
    </g>
    <g id="line2d_61">
     <path d="M 377.336027 198.982188 
L 387.336027 198.982188 
L 397.336027 198.982188 
" style="fill: none; stroke: #1f77b4; stroke-width: 1.5; stroke-linecap: square"/>
    </g>
    <g id="text_43">
     <!-- casadi -->
     <g transform="translate(405.336027 202.482188) scale(0.1 -0.1)">
      <use xlink:href="#DejaVuSans-63"/>
      <use xlink:href="#DejaVuSans-61" x="54.980469"/>
      <use xlink:href="#DejaVuSans-73" x="116.259766"/>
      <use xlink:href="#DejaVuSans-61" x="168.359375"/>
      <use xlink:href="#DejaVuSans-64" x="229.638672"/>
      <use xlink:href="#DejaVuSans-69" x="293.115234"/>
     </g>
    </g>
    <g id="line2d_62">
     <path d="M 377.336027 213.660313 
L 387.336027 213.660313 
L 397.336027 213.660313 
" style="fill: none; stroke: #ff7f0e; stroke-width: 1.5; stroke-linecap: square"/>
    </g>
    <g id="text_44">
     <!-- sweep -->
     <g transform="translate(405.336027 217.160313) scale(0.1 -0.1)">
      <use xlink:href="#DejaVuSans-73"/>
      <use xlink:href="#DejaVuSans-77" x="52.099609"/>
      <use xlink:href="#DejaVuSans-65" x="133.886719"/>
      <use xlink:href="#DejaVuSans-65" x="195.410156"/>
      <use xlink:href="#DejaVuSans-70" x="256.933594"/>
     </g>
    </g>
    <g id="line2d_63">
     <path d="M 377.336027 228.338438 
L 387.336027 228.338438 
L 397.336027 228.338438 
" style="fill: none; stroke: #2ca02c; stroke-width: 1.5; stroke-linecap: square"/>
    </g>
    <g id="text_45">
     <!-- shooting -->
     <g transform="translate(405.336027 231.838438) scale(0.1 -0.1)">
      <use xlink:href="#DejaVuSans-73"/>
      <use xlink:href="#DejaVuSans-68" x="52.099609"/>
      <use xlink:href="#DejaVuSans-6f" x="115.478516"/>
      <use xlink:href="#DejaVuSans-6f" x="176.660156"/>
      <use xlink:href="#DejaVuSans-74" x="237.841797"/>
      <use xlink:href="#DejaVuSans-69" x="277.050781"/>
      <use xlink:href="#DejaVuSans-6e" x="304.833984"/>
      <use xlink:href="#DejaVuSans-67" x="368.212891"/>
     </g>
    </g>
   </g>
  </g>
 </g>
 <defs>
  <clipPath id="pae67030300">
   <rect x="58.441875" y="22.318125" width="263.384152" height="101.356624"/>
  </clipPath>
  <clipPath id="pc567575bba">
   <rect x="368.336027" y="22.318125" width="263.384152" height="101.356624"/>
  </clipPath>
  <clipPath id="pf96514e664">
   <rect x="58.441875" y="141.561501" width="263.384152" height="101.356624"/>
  </clipPath>
  <clipPath id="p1c1107fdd6">
   <rect x="368.336027" y="141.561501" width="263.384152" height="101.356624"/>
  </clipPath>
 </defs>
</svg>
