<?xml version="1.0" encoding="utf-8" standalone="no"?>
<!DOCTYPE svg PUBLIC "-//W3C//DTD SVG 1.1//EN"
  "http://www.w3.org/Graphics/SVG/1.1/DTD/svg11.dtd">
<svg xmlns:xlink="http://www.w3.org/1999/xlink" width="624.698186pt" height="352.474375pt" viewBox="0 0 624.698186 352.474375" xmlns="http://www.w3.org/2000/svg" version="1.1">
 <metadata>
  <rdf:RDF xmlns:dc="http://purl.org/dc/elements/1.1/" xmlns:cc="http://creativecommons.org/ns#" xmlns:rdf="http://www.w3.org/1999/02/22-rdf-syntax-ns#">
   <cc:Work>
    <dc:type rdf:resource="http://purl.org/dc/dcmitype/StillImage"/>
    <dc:date>2025-06-19T16:36:45.649338</dc:date>
    <dc:format>image/svg+xml</dc:format>
    <dc:creator>
     <cc:Agent>
      <dc:title>Matplotlib v3.6.3, https://matplotlib.org/</dc:title>
     </cc:Agent>
    </dc:creator>
   </cc:Work>
  </rdf:RDF>
 </metadata>
 <defs>
  <style type="text/css">*{stroke-linejoin: round; stroke-linecap: butt}</style>
 </defs>
 <g id="figure_1">
  <g id="patch_1">
   <path d="M 0 352.474375 
L 624.698186 352.474375 
L 624.698186 0 
L 0 0 
z
" style="fill: #ffffff"/>
  </g>
  <g id="axes_1">
   <g id="patch_2">
    <path d="M 50.14375 110.318125 
L 318.057271 110.318125 
L 318.057271 22.318125 
L 50.14375 22.318125 
z
" style="fill: #ffffff"/>
   </g>
   <g id="matplotlib.axis_1">
    <g id="xtick_1">
     <g id="line2d_1">
      <defs>
       <path id="me203091b42" d="M 0 0 
L 0 3.5 
" style="stroke: #000000; stroke-width: 0.8"/>
      </defs>
      <g>
       <use xlink:href="#me203091b42" x="62.321637" y="110.318125" style="stroke: #000000; stroke-width: 0.8"/>
      </g>
     </g>
    </g>
    <g id="xtick_2">
     <g id="line2d_2">
      <g>
       <use xlink:href="#me203091b42" x="111.081947" y="110.318125" style="stroke: #000000; stroke-width: 0.8"/>
      </g>
     </g>
    </g>
    <g id="xtick_3">
     <g id="line2d_3">
      <g>
       <use xlink:href="#me203091b42" x="159.842257" y="110.318125" style="stroke: #000000; stroke-width: 0.8"/>
      </g>
     </g>
    </g>
    <g id="xtick_4">
     <g id="line2d_4">
      <g>
       <use xlink:href="#me203091b42" x="208.602566" y="110.318125" style="stroke: #000000; stroke-width: 0.8"/>
      </g>
     </g>
    </g>
    <g id="xtick_5">
     <g id="line2d_5">
      <g>
       <use xlink:href="#me203091b42" x="257.362876" y="110.318125" style="stroke: #000000; stroke-width: 0.8"/>
      </g>
     </g>
    </g>
    <g id="xtick_6">
     <g id="line2d_6">
      <g>
       <use xlink:href="#me203091b42" x="306.123186" y="110.318125" style="stroke: #000000; stroke-width: 0.8"/>
      </g>
     </g>
    </g>
   </g>
   <g id="matplotlib.axis_2">
    <g id="ytick_1">
     <g id="line2d_7">
      <defs>
       <path id="m0f48486263" d="M 0 0 
L -3.5 0 
" style="stroke: #000000; stroke-width: 0.8"/>
      </defs>
      <g>
       <use xlink:href="#m0f48486263" x="50.14375" y="106.347261" style="stroke: #000000; stroke-width: 0.8"/>
      </g>
     </g>
     <g id="text_1">
      <!-- 0.00 -->
      <g transform="translate(20.878125 110.146479) scale(0.1 -0.1)">
       <defs>
        <path id="DejaVuSans-30" d="M 2034 4250 
Q 1547 4250 1301 3770 
Q 1056 3291 1056 2328 
Q 1056 1369 1301 889 
Q 1547 409 2034 409 
Q 2525 409 2770 889 
Q 3016 1369 3016 2328 
Q 3016 3291 2770 3770 
Q 2525 4250 2034 4250 
z
M 2034 4750 
Q 2819 4750 3233 4129 
Q 3647 3509 3647 2328 
Q 3647 1150 3233 529 
Q 2819 -91 2034 -91 
Q 1250 -91 836 529 
Q 422 1150 422 2328 
Q 422 3509 836 4129 
Q 1250 4750 2034 4750 
z
" transform="scale(0.015625)"/>
        <path id="DejaVuSans-2e" d="M 684 794 
L 1344 794 
L 1344 0 
L 684 0 
L 684 794 
z
" transform="scale(0.015625)"/>
       </defs>
       <use xlink:href="#DejaVuSans-30"/>
       <use xlink:href="#DejaVuSans-2e" x="63.623047"/>
       <use xlink:href="#DejaVuSans-30" x="95.410156"/>
       <use xlink:href="#DejaVuSans-30" x="159.033203"/>
      </g>
     </g>
    </g>
    <g id="ytick_2">
     <g id="line2d_8">
      <g>
       <use xlink:href="#m0f48486263" x="50.14375" y="77.977648" style="stroke: #000000; stroke-width: 0.8"/>
      </g>
     </g>
     <g id="text_2">
      <!-- 0.01 -->
      <g transform="translate(20.878125 81.776866) scale(0.1 -0.1)">
       <defs>
        <path id="DejaVuSans-31" d="M 794 531 
L 1825 531 
L 1825 4091 
L 703 3866 
L 703 4441 
L 1819 4666 
L 2450 4666 
L 2450 531 
L 3481 531 
L 3481 0 
L 794 0 
L 794 531 
z
" transform="scale(0.015625)"/>
       </defs>
       <use xlink:href="#DejaVuSans-30"/>
       <use xlink:href="#DejaVuSans-2e" x="63.623047"/>
       <use xlink:href="#DejaVuSans-30" x="95.410156"/>
       <use xlink:href="#DejaVuSans-31" x="159.033203"/>
      </g>
     </g>
    </g>
    <g id="ytick_3">
     <g id="line2d_9">
      <g>
       <use xlink:href="#m0f48486263" x="50.14375" y="49.608035" style="stroke: #000000; stroke-width: 0.8"/>
      </g>
     </g>
     <g id="text_3">
      <!-- 0.02 -->
      <g transform="translate(20.878125 53.407253) scale(0.1 -0.1)">
       <defs>
        <path id="DejaVuSans-32" d="M 1228 531 
L 3431 531 
L 3431 0 
L 469 0 
L 469 531 
Q 828 903 1448 1529 
Q 2069 2156 2228 2338 
Q 2531 2678 2651 2914 
Q 2772 3150 2772 3378 
Q 2772 3750 2511 3984 
Q 2250 4219 1831 4219 
Q 1534 4219 1204 4116 
Q 875 4013 500 3803 
L 500 4441 
Q 881 4594 1212 4672 
Q 1544 4750 1819 4750 
Q 2544 4750 2975 4387 
Q 3406 4025 3406 3419 
Q 3406 3131 3298 2873 
Q 3191 2616 2906 2266 
Q 2828 2175 2409 1742 
Q 1991 1309 1228 531 
z
" transform="scale(0.015625)"/>
       </defs>
       <use xlink:href="#DejaVuSans-30"/>
       <use xlink:href="#DejaVuSans-2e" x="63.623047"/>
       <use xlink:href="#DejaVuSans-30" x="95.410156"/>
       <use xlink:href="#DejaVuSans-32" x="159.033203"/>
      </g>
     </g>
    </g>
    <g id="text_4">
     <!-- Translation -->
     <g transform="translate(14.798438 93.557969) rotate(-90) scale(0.1 -0.1)">
      <defs>
       <path id="DejaVuSans-54" d="M -19 4666 
L 3928 4666 
L 3928 4134 
L 2272 4134 
L 2272 0 
L 1638 0 
L 1638 4134 
L -19 4134 
L -19 4666 
z
" transform="scale(0.015625)"/>
       <path id="DejaVuSans-72" d="M 2631 2963 
Q 2534 3019 2420 3045 
Q 2306 3072 2169 3072 
Q 1681 3072 1420 2755 
Q 1159 2438 1159 1844 
L 1159 0 
L 581 0 
L 581 3500 
L 1159 3500 
L 1159 2956 
Q 1341 3275 1631 3429 
Q 1922 3584 2338 3584 
Q 2397 3584 2469 3576 
Q 2541 3569 2628 3553 
L 2631 2963 
z
" transform="scale(0.015625)"/>
       <path id="DejaVuSans-61" d="M 2194 1759 
Q 1497 1759 1228 1600 
Q 959 1441 959 1056 
Q 959 750 1161 570 
Q 1363 391 1709 391 
Q 2188 391 2477 730 
Q 2766 1069 2766 1631 
L 2766 1759 
L 2194 1759 
z
M 3341 1997 
L 3341 0 
L 2766 0 
L 2766 531 
Q 2569 213 2275 61 
Q 1981 -91 1556 -91 
Q 1019 -91 701 211 
Q 384 513 384 1019 
Q 384 1609 779 1909 
Q 1175 2209 1959 2209 
L 2766 2209 
L 2766 2266 
Q 2766 2663 2505 2880 
Q 2244 3097 1772 3097 
Q 1472 3097 1187 3025 
Q 903 2953 641 2809 
L 641 3341 
Q 956 3463 1253 3523 
Q 1550 3584 1831 3584 
Q 2591 3584 2966 3190 
Q 3341 2797 3341 1997 
z
" transform="scale(0.015625)"/>
       <path id="DejaVuSans-6e" d="M 3513 2113 
L 3513 0 
L 2938 0 
L 2938 2094 
Q 2938 2591 2744 2837 
Q 2550 3084 2163 3084 
Q 1697 3084 1428 2787 
Q 1159 2491 1159 1978 
L 1159 0 
L 581 0 
L 581 3500 
L 1159 3500 
L 1159 2956 
Q 1366 3272 1645 3428 
Q 1925 3584 2291 3584 
Q 2894 3584 3203 3211 
Q 3513 2838 3513 2113 
z
" transform="scale(0.015625)"/>
       <path id="DejaVuSans-73" d="M 2834 3397 
L 2834 2853 
Q 2591 2978 2328 3040 
Q 2066 3103 1784 3103 
Q 1356 3103 1142 2972 
Q 928 2841 928 2578 
Q 928 2378 1081 2264 
Q 1234 2150 1697 2047 
L 1894 2003 
Q 2506 1872 2764 1633 
Q 3022 1394 3022 966 
Q 3022 478 2636 193 
Q 2250 -91 1575 -91 
Q 1294 -91 989 -36 
Q 684 19 347 128 
L 347 722 
Q 666 556 975 473 
Q 1284 391 1588 391 
Q 1994 391 2212 530 
Q 2431 669 2431 922 
Q 2431 1156 2273 1281 
Q 2116 1406 1581 1522 
L 1381 1569 
Q 847 1681 609 1914 
Q 372 2147 372 2553 
Q 372 3047 722 3315 
Q 1072 3584 1716 3584 
Q 2034 3584 2315 3537 
Q 2597 3491 2834 3397 
z
" transform="scale(0.015625)"/>
       <path id="DejaVuSans-6c" d="M 603 4863 
L 1178 4863 
L 1178 0 
L 603 0 
L 603 4863 
z
" transform="scale(0.015625)"/>
       <path id="DejaVuSans-74" d="M 1172 4494 
L 1172 3500 
L 2356 3500 
L 2356 3053 
L 1172 3053 
L 1172 1153 
Q 1172 725 1289 603 
Q 1406 481 1766 481 
L 2356 481 
L 2356 0 
L 1766 0 
Q 1100 0 847 248 
Q 594 497 594 1153 
L 594 3053 
L 172 3053 
L 172 3500 
L 594 3500 
L 594 4494 
L 1172 4494 
z
" transform="scale(0.015625)"/>
       <path id="DejaVuSans-69" d="M 603 3500 
L 1178 3500 
L 1178 0 
L 603 0 
L 603 3500 
z
M 603 4863 
L 1178 4863 
L 1178 4134 
L 603 4134 
L 603 4863 
z
" transform="scale(0.015625)"/>
       <path id="DejaVuSans-6f" d="M 1959 3097 
Q 1497 3097 1228 2736 
Q 959 2375 959 1747 
Q 959 1119 1226 758 
Q 1494 397 1959 397 
Q 2419 397 2687 759 
Q 2956 1122 2956 1747 
Q 2956 2369 2687 2733 
Q 2419 3097 1959 3097 
z
M 1959 3584 
Q 2709 3584 3137 3096 
Q 3566 2609 3566 1747 
Q 3566 888 3137 398 
Q 2709 -91 1959 -91 
Q 1206 -91 779 398 
Q 353 888 353 1747 
Q 353 2609 779 3096 
Q 1206 3584 1959 3584 
z
" transform="scale(0.015625)"/>
      </defs>
      <use xlink:href="#DejaVuSans-54"/>
      <use xlink:href="#DejaVuSans-72" x="46.333984"/>
      <use xlink:href="#DejaVuSans-61" x="87.447266"/>
      <use xlink:href="#DejaVuSans-6e" x="148.726562"/>
      <use xlink:href="#DejaVuSans-73" x="212.105469"/>
      <use xlink:href="#DejaVuSans-6c" x="264.205078"/>
      <use xlink:href="#DejaVuSans-61" x="291.988281"/>
      <use xlink:href="#DejaVuSans-74" x="353.267578"/>
      <use xlink:href="#DejaVuSans-69" x="392.476562"/>
      <use xlink:href="#DejaVuSans-6f" x="420.259766"/>
      <use xlink:href="#DejaVuSans-6e" x="481.441406"/>
     </g>
    </g>
   </g>
   <g id="line2d_10">
    <path d="M 62.321637 106.318125 
L 79.631547 106.154118 
L 87.9208 105.86953 
L 93.528236 105.465859 
L 97.672862 104.961434 
L 101.086083 104.335886 
L 104.011702 103.579723 
L 106.449718 102.737114 
L 108.643931 101.762229 
L 110.594344 100.677649 
L 112.544756 99.337862 
L 114.251367 97.909867 
L 115.957978 96.193173 
L 117.664589 94.130409 
L 119.127398 92.035426 
L 120.590207 89.585741 
L 122.053017 86.722993 
L 123.515826 83.37984 
L 124.978635 79.478819 
L 126.441445 74.931135 
L 127.904254 69.635433 
L 129.367063 63.476607 
L 130.342269 59.300048 
L 131.073674 57.064929 
L 131.805079 55.430635 
L 132.536483 54.235422 
L 133.511689 53.125264 
L 134.486896 52.392949 
L 135.705903 51.816532 
L 137.168713 51.422128 
L 139.119125 51.160621 
L 142.044744 51.026692 
L 222.011651 50.634062 
L 305.879384 50.395206 
L 305.879384 50.395206 
" clip-path="url(#pb7cc1a3e7a)" style="fill: none; stroke: #1f77b4; stroke-width: 2; stroke-linecap: square"/>
   </g>
   <g id="line2d_11">
    <path d="M 62.321637 103.510299 
L 129.610865 103.510299 
L 129.854666 102.2008 
L 130.586071 79.406263 
L 131.317475 64.621389 
L 132.04888 54.717887 
L 132.780285 47.950452 
L 133.511689 43.272706 
L 134.243094 40.023631 
L 134.974499 37.769292 
L 135.705903 36.216637 
L 136.437308 35.163569 
L 137.168713 34.468553 
L 137.900117 34.031337 
L 138.875323 33.728673 
L 140.094331 33.641247 
L 142.288545 33.671946 
L 153.015813 37.103776 
L 163.743081 40.301913 
L 174.714151 43.33955 
L 185.929022 46.216301 
L 197.631497 48.990091 
L 209.821574 51.651459 
L 222.499255 54.193126 
L 235.90834 56.65253 
L 249.805028 58.975841 
L 264.433121 61.197282 
L 280.03642 63.339023 
L 296.371124 65.35603 
L 305.879384 66.434233 
L 305.879384 66.434233 
" clip-path="url(#pb7cc1a3e7a)" style="fill: none; stroke: #ff7f0e; stroke-opacity: 0.5; stroke-width: 1.5; stroke-linecap: square"/>
   </g>
   <g id="line2d_12">
    <path d="M 62.321637 49.608035 
L 305.879384 49.608035 
L 305.879384 49.608035 
" clip-path="url(#pb7cc1a3e7a)" style="fill: none; stroke-dasharray: 5.55,2.4; stroke-dashoffset: 0; stroke: #808080; stroke-width: 1.5"/>
   </g>
   <g id="patch_3">
    <path d="M 50.14375 110.318125 
L 50.14375 22.318125 
" style="fill: none; stroke: #000000; stroke-width: 0.8; stroke-linejoin: miter; stroke-linecap: square"/>
   </g>
   <g id="patch_4">
    <path d="M 318.057271 110.318125 
L 318.057271 22.318125 
" style="fill: none; stroke: #000000; stroke-width: 0.8; stroke-linejoin: miter; stroke-linecap: square"/>
   </g>
   <g id="patch_5">
    <path d="M 50.14375 110.318125 
L 318.057271 110.318125 
" style="fill: none; stroke: #000000; stroke-width: 0.8; stroke-linejoin: miter; stroke-linecap: square"/>
   </g>
   <g id="patch_6">
    <path d="M 50.14375 22.318125 
L 318.057271 22.318125 
" style="fill: none; stroke: #000000; stroke-width: 0.8; stroke-linejoin: miter; stroke-linecap: square"/>
   </g>
   <g id="text_5">
    <!-- $\frac{d}{dt}\hat{x}(t) = f(t,\tilde{x}(t)) + g(t,\tilde{x}(t), u(t))$ -->
    <g transform="translate(141.55714 97.836377) scale(0.1 -0.1)">
     <defs>
      <path id="DejaVuSans-Oblique-64" d="M 2675 525 
Q 2444 222 2128 65 
Q 1813 -91 1428 -91 
Q 903 -91 598 267 
Q 294 625 294 1247 
Q 294 1766 478 2236 
Q 663 2706 1013 3078 
Q 1244 3325 1534 3454 
Q 1825 3584 2144 3584 
Q 2481 3584 2739 3421 
Q 2997 3259 3138 2956 
L 3513 4863 
L 4091 4863 
L 3144 0 
L 2566 0 
L 2675 525 
z
M 891 1350 
Q 891 897 1095 644 
Q 1300 391 1663 391 
Q 1931 391 2161 520 
Q 2391 650 2566 903 
Q 2750 1166 2856 1509 
Q 2963 1853 2963 2188 
Q 2963 2622 2758 2865 
Q 2553 3109 2194 3109 
Q 1922 3109 1687 2981 
Q 1453 2853 1288 2613 
Q 1106 2353 998 2009 
Q 891 1666 891 1350 
z
" transform="scale(0.015625)"/>
      <path id="DejaVuSans-Oblique-74" d="M 2706 3500 
L 2619 3053 
L 1472 3053 
L 1100 1153 
Q 1081 1047 1072 975 
Q 1063 903 1063 863 
Q 1063 663 1183 572 
Q 1303 481 1569 481 
L 2150 481 
L 2053 0 
L 1503 0 
Q 991 0 739 200 
Q 488 400 488 806 
Q 488 878 497 964 
Q 506 1050 525 1153 
L 897 3053 
L 409 3053 
L 500 3500 
L 978 3500 
L 1172 4494 
L 1747 4494 
L 1556 3500 
L 2706 3500 
z
" transform="scale(0.015625)"/>
      <path id="DejaVuSans-302" d="M -1831 5119 
L -1369 5119 
L -603 3944 
L -1038 3944 
L -1600 4709 
L -2163 3944 
L -2597 3944 
L -1831 5119 
z
M -1600 3584 
L -1600 3584 
z
" transform="scale(0.015625)"/>
      <path id="DejaVuSans-Oblique-78" d="M 3841 3500 
L 2234 1784 
L 3219 0 
L 2559 0 
L 1819 1388 
L 531 0 
L -166 0 
L 1556 1844 
L 641 3500 
L 1300 3500 
L 1972 2234 
L 3144 3500 
L 3841 3500 
z
" transform="scale(0.015625)"/>
      <path id="DejaVuSans-28" d="M 1984 4856 
Q 1566 4138 1362 3434 
Q 1159 2731 1159 2009 
Q 1159 1288 1364 580 
Q 1569 -128 1984 -844 
L 1484 -844 
Q 1016 -109 783 600 
Q 550 1309 550 2009 
Q 550 2706 781 3412 
Q 1013 4119 1484 4856 
L 1984 4856 
z
" transform="scale(0.015625)"/>
      <path id="DejaVuSans-29" d="M 513 4856 
L 1013 4856 
Q 1481 4119 1714 3412 
Q 1947 2706 1947 2009 
Q 1947 1309 1714 600 
Q 1481 -109 1013 -844 
L 513 -844 
Q 928 -128 1133 580 
Q 1338 1288 1338 2009 
Q 1338 2731 1133 3434 
Q 928 4138 513 4856 
z
" transform="scale(0.015625)"/>
      <path id="DejaVuSans-3d" d="M 678 2906 
L 4684 2906 
L 4684 2381 
L 678 2381 
L 678 2906 
z
M 678 1631 
L 4684 1631 
L 4684 1100 
L 678 1100 
L 678 1631 
z
" transform="scale(0.015625)"/>
      <path id="DejaVuSans-Oblique-66" d="M 3059 4863 
L 2969 4384 
L 2419 4384 
Q 2106 4384 1964 4261 
Q 1822 4138 1753 3809 
L 1691 3500 
L 2638 3500 
L 2553 3053 
L 1606 3053 
L 1013 0 
L 434 0 
L 1031 3053 
L 481 3053 
L 563 3500 
L 1113 3500 
L 1159 3744 
Q 1278 4363 1576 4613 
Q 1875 4863 2516 4863 
L 3059 4863 
z
" transform="scale(0.015625)"/>
      <path id="DejaVuSans-2c" d="M 750 794 
L 1409 794 
L 1409 256 
L 897 -744 
L 494 -744 
L 750 256 
L 750 794 
z
" transform="scale(0.015625)"/>
      <path id="DejaVuSans-303" d="M -1619 4281 
L -1797 4453 
Q -1866 4516 -1917 4545 
Q -1969 4575 -2009 4575 
Q -2128 4575 -2184 4461 
Q -2241 4347 -2247 4091 
L -2638 4091 
Q -2631 4513 -2472 4742 
Q -2313 4972 -2028 4972 
Q -1909 4972 -1809 4928 
Q -1709 4884 -1594 4781 
L -1416 4609 
Q -1347 4547 -1295 4517 
Q -1244 4488 -1203 4488 
Q -1084 4488 -1028 4602 
Q -972 4716 -966 4972 
L -575 4972 
Q -581 4550 -740 4320 
Q -900 4091 -1184 4091 
Q -1303 4091 -1403 4134 
Q -1503 4178 -1619 4281 
z
" transform="scale(0.015625)"/>
      <path id="DejaVuSans-2b" d="M 2944 4013 
L 2944 2272 
L 4684 2272 
L 4684 1741 
L 2944 1741 
L 2944 0 
L 2419 0 
L 2419 1741 
L 678 1741 
L 678 2272 
L 2419 2272 
L 2419 4013 
L 2944 4013 
z
" transform="scale(0.015625)"/>
      <path id="DejaVuSans-Oblique-67" d="M 3816 3500 
L 3219 434 
Q 3047 -456 2561 -893 
Q 2075 -1331 1253 -1331 
Q 950 -1331 690 -1286 
Q 431 -1241 206 -1147 
L 313 -588 
Q 525 -725 762 -790 
Q 1000 -856 1269 -856 
Q 1816 -856 2167 -557 
Q 2519 -259 2631 300 
L 2681 563 
Q 2441 288 2122 144 
Q 1803 0 1434 0 
Q 903 0 598 351 
Q 294 703 294 1319 
Q 294 1803 478 2267 
Q 663 2731 997 3091 
Q 1219 3328 1514 3456 
Q 1809 3584 2131 3584 
Q 2484 3584 2746 3420 
Q 3009 3256 3138 2956 
L 3238 3500 
L 3816 3500 
z
M 2950 2216 
Q 2950 2641 2750 2872 
Q 2550 3103 2181 3103 
Q 1953 3103 1747 3012 
Q 1541 2922 1394 2759 
Q 1156 2491 1023 2127 
Q 891 1763 891 1375 
Q 891 944 1092 712 
Q 1294 481 1672 481 
Q 2219 481 2584 976 
Q 2950 1472 2950 2216 
z
" transform="scale(0.015625)"/>
      <path id="DejaVuSans-Oblique-75" d="M 428 1388 
L 838 3500 
L 1416 3500 
L 1006 1409 
Q 975 1256 961 1147 
Q 947 1038 947 966 
Q 947 700 1109 554 
Q 1272 409 1569 409 
Q 2031 409 2368 721 
Q 2706 1034 2809 1563 
L 3194 3500 
L 3769 3500 
L 3091 0 
L 2516 0 
L 2631 550 
Q 2388 244 2052 76 
Q 1716 -91 1338 -91 
Q 878 -91 622 161 
Q 366 413 366 863 
Q 366 956 381 1097 
Q 397 1238 428 1388 
z
" transform="scale(0.015625)"/>
     </defs>
     <use xlink:href="#DejaVuSans-Oblique-64" transform="translate(14 44.810938) scale(0.7)"/>
     <use xlink:href="#DejaVuSans-Oblique-64" transform="translate(0 -40.623437) scale(0.7)"/>
     <use xlink:href="#DejaVuSans-Oblique-74" transform="translate(44.433594 -40.623437) scale(0.7)"/>
     <use xlink:href="#DejaVuSans-302" transform="translate(146.75293 11.20625)"/>
     <use xlink:href="#DejaVuSans-Oblique-78" transform="translate(84.379883 0.01875)"/>
     <use xlink:href="#DejaVuSans-28" transform="translate(143.55957 0.01875)"/>
     <use xlink:href="#DejaVuSans-Oblique-74" transform="translate(182.573242 0.01875)"/>
     <use xlink:href="#DejaVuSans-29" transform="translate(221.782227 0.01875)"/>
     <use xlink:href="#DejaVuSans-3d" transform="translate(280.27832 0.01875)"/>
     <use xlink:href="#DejaVuSans-Oblique-66" transform="translate(383.549805 0.01875)"/>
     <use xlink:href="#DejaVuSans-28" transform="translate(418.754883 0.01875)"/>
     <use xlink:href="#DejaVuSans-Oblique-74" transform="translate(457.768555 0.01875)"/>
     <use xlink:href="#DejaVuSans-2c" transform="translate(496.977539 0.01875)"/>
     <use xlink:href="#DejaVuSans-303" transform="translate(610.260742 3.284375)"/>
     <use xlink:href="#DejaVuSans-Oblique-78" transform="translate(548.24707 0.01875)"/>
     <use xlink:href="#DejaVuSans-28" transform="translate(607.426758 0.01875)"/>
     <use xlink:href="#DejaVuSans-Oblique-74" transform="translate(646.44043 0.01875)"/>
     <use xlink:href="#DejaVuSans-29" transform="translate(685.649414 0.01875)"/>
     <use xlink:href="#DejaVuSans-29" transform="translate(724.663086 0.01875)"/>
     <use xlink:href="#DejaVuSans-2b" transform="translate(783.15918 0.01875)"/>
     <use xlink:href="#DejaVuSans-Oblique-67" transform="translate(886.430664 0.01875)"/>
     <use xlink:href="#DejaVuSans-28" transform="translate(949.907227 0.01875)"/>
     <use xlink:href="#DejaVuSans-Oblique-74" transform="translate(988.920898 0.01875)"/>
     <use xlink:href="#DejaVuSans-2c" transform="translate(1028.129883 0.01875)"/>
     <use xlink:href="#DejaVuSans-303" transform="translate(1141.413086 3.284375)"/>
     <use xlink:href="#DejaVuSans-Oblique-78" transform="translate(1079.399414 0.01875)"/>
     <use xlink:href="#DejaVuSans-28" transform="translate(1138.579102 0.01875)"/>
     <use xlink:href="#DejaVuSans-Oblique-74" transform="translate(1177.592773 0.01875)"/>
     <use xlink:href="#DejaVuSans-29" transform="translate(1216.801758 0.01875)"/>
     <use xlink:href="#DejaVuSans-2c" transform="translate(1255.81543 0.01875)"/>
     <use xlink:href="#DejaVuSans-Oblique-75" transform="translate(1307.084961 0.01875)"/>
     <use xlink:href="#DejaVuSans-28" transform="translate(1370.463867 0.01875)"/>
     <use xlink:href="#DejaVuSans-Oblique-74" transform="translate(1409.477539 0.01875)"/>
     <use xlink:href="#DejaVuSans-29" transform="translate(1448.686523 0.01875)"/>
     <use xlink:href="#DejaVuSans-29" transform="translate(1487.700195 0.01875)"/>
     <path d="M 0 18.815625 
L 0 25.065625 
L 71.879883 25.065625 
L 71.879883 18.815625 
L 0 18.815625 
z
"/>
    </g>
   </g>
   <g id="text_6">
    <!-- Exact Predictions -->
    <g transform="translate(132.593323 16.318125) scale(0.12 -0.12)">
     <defs>
      <path id="DejaVuSans-45" d="M 628 4666 
L 3578 4666 
L 3578 4134 
L 1259 4134 
L 1259 2753 
L 3481 2753 
L 3481 2222 
L 1259 2222 
L 1259 531 
L 3634 531 
L 3634 0 
L 628 0 
L 628 4666 
z
" transform="scale(0.015625)"/>
      <path id="DejaVuSans-78" d="M 3513 3500 
L 2247 1797 
L 3578 0 
L 2900 0 
L 1881 1375 
L 863 0 
L 184 0 
L 1544 1831 
L 300 3500 
L 978 3500 
L 1906 2253 
L 2834 3500 
L 3513 3500 
z
" transform="scale(0.015625)"/>
      <path id="DejaVuSans-63" d="M 3122 3366 
L 3122 2828 
Q 2878 2963 2633 3030 
Q 2388 3097 2138 3097 
Q 1578 3097 1268 2742 
Q 959 2388 959 1747 
Q 959 1106 1268 751 
Q 1578 397 2138 397 
Q 2388 397 2633 464 
Q 2878 531 3122 666 
L 3122 134 
Q 2881 22 2623 -34 
Q 2366 -91 2075 -91 
Q 1284 -91 818 406 
Q 353 903 353 1747 
Q 353 2603 823 3093 
Q 1294 3584 2113 3584 
Q 2378 3584 2631 3529 
Q 2884 3475 3122 3366 
z
" transform="scale(0.015625)"/>
      <path id="DejaVuSans-20" transform="scale(0.015625)"/>
      <path id="DejaVuSans-50" d="M 1259 4147 
L 1259 2394 
L 2053 2394 
Q 2494 2394 2734 2622 
Q 2975 2850 2975 3272 
Q 2975 3691 2734 3919 
Q 2494 4147 2053 4147 
L 1259 4147 
z
M 628 4666 
L 2053 4666 
Q 2838 4666 3239 4311 
Q 3641 3956 3641 3272 
Q 3641 2581 3239 2228 
Q 2838 1875 2053 1875 
L 1259 1875 
L 1259 0 
L 628 0 
L 628 4666 
z
" transform="scale(0.015625)"/>
      <path id="DejaVuSans-65" d="M 3597 1894 
L 3597 1613 
L 953 1613 
Q 991 1019 1311 708 
Q 1631 397 2203 397 
Q 2534 397 2845 478 
Q 3156 559 3463 722 
L 3463 178 
Q 3153 47 2828 -22 
Q 2503 -91 2169 -91 
Q 1331 -91 842 396 
Q 353 884 353 1716 
Q 353 2575 817 3079 
Q 1281 3584 2069 3584 
Q 2775 3584 3186 3129 
Q 3597 2675 3597 1894 
z
M 3022 2063 
Q 3016 2534 2758 2815 
Q 2500 3097 2075 3097 
Q 1594 3097 1305 2825 
Q 1016 2553 972 2059 
L 3022 2063 
z
" transform="scale(0.015625)"/>
      <path id="DejaVuSans-64" d="M 2906 2969 
L 2906 4863 
L 3481 4863 
L 3481 0 
L 2906 0 
L 2906 525 
Q 2725 213 2448 61 
Q 2172 -91 1784 -91 
Q 1150 -91 751 415 
Q 353 922 353 1747 
Q 353 2572 751 3078 
Q 1150 3584 1784 3584 
Q 2172 3584 2448 3432 
Q 2725 3281 2906 2969 
z
M 947 1747 
Q 947 1113 1208 752 
Q 1469 391 1925 391 
Q 2381 391 2643 752 
Q 2906 1113 2906 1747 
Q 2906 2381 2643 2742 
Q 2381 3103 1925 3103 
Q 1469 3103 1208 2742 
Q 947 2381 947 1747 
z
" transform="scale(0.015625)"/>
     </defs>
     <use xlink:href="#DejaVuSans-45"/>
     <use xlink:href="#DejaVuSans-78" x="63.183594"/>
     <use xlink:href="#DejaVuSans-61" x="122.363281"/>
     <use xlink:href="#DejaVuSans-63" x="183.642578"/>
     <use xlink:href="#DejaVuSans-74" x="238.623047"/>
     <use xlink:href="#DejaVuSans-20" x="277.832031"/>
     <use xlink:href="#DejaVuSans-50" x="309.619141"/>
     <use xlink:href="#DejaVuSans-72" x="368.171875"/>
     <use xlink:href="#DejaVuSans-65" x="407.035156"/>
     <use xlink:href="#DejaVuSans-64" x="468.558594"/>
     <use xlink:href="#DejaVuSans-69" x="532.035156"/>
     <use xlink:href="#DejaVuSans-63" x="559.818359"/>
     <use xlink:href="#DejaVuSans-74" x="614.798828"/>
     <use xlink:href="#DejaVuSans-69" x="654.007812"/>
     <use xlink:href="#DejaVuSans-6f" x="681.791016"/>
     <use xlink:href="#DejaVuSans-6e" x="742.972656"/>
     <use xlink:href="#DejaVuSans-73" x="806.351562"/>
    </g>
   </g>
   <g id="legend_1">
    <g id="patch_7">
     <path d="M 57.14375 74.3525 
L 107.64375 74.3525 
Q 109.64375 74.3525 109.64375 72.3525 
L 109.64375 29.318125 
Q 109.64375 27.318125 107.64375 27.318125 
L 57.14375 27.318125 
Q 55.14375 27.318125 55.14375 29.318125 
L 55.14375 72.3525 
Q 55.14375 74.3525 57.14375 74.3525 
z
" style="fill: #ffffff; opacity: 0.8; stroke: #cccccc; stroke-linejoin: miter"/>
    </g>
    <g id="line2d_13">
     <path d="M 59.14375 35.416562 
L 69.14375 35.416562 
L 79.14375 35.416562 
" style="fill: none; stroke: #1f77b4; stroke-width: 2; stroke-linecap: square"/>
    </g>
    <g id="text_7">
     <!-- $I$ -->
     <g transform="translate(87.14375 38.916562) scale(0.1 -0.1)">
      <defs>
       <path id="DejaVuSans-Oblique-49" d="M 1081 4666 
L 1716 4666 
L 806 0 
L 172 0 
L 1081 4666 
z
" transform="scale(0.015625)"/>
      </defs>
      <use xlink:href="#DejaVuSans-Oblique-49" transform="translate(0 0.09375)"/>
     </g>
    </g>
    <g id="line2d_14">
     <path d="M 59.14375 50.094688 
L 69.14375 50.094688 
L 79.14375 50.094688 
" style="fill: none; stroke: #ff7f0e; stroke-opacity: 0.5; stroke-width: 1.5; stroke-linecap: square"/>
    </g>
    <g id="text_8">
     <!-- $u$ -->
     <g transform="translate(87.14375 53.594688) scale(0.1 -0.1)">
      <use xlink:href="#DejaVuSans-Oblique-75" transform="translate(0 0.3125)"/>
     </g>
    </g>
    <g id="line2d_15">
     <path d="M 59.14375 64.772812 
L 69.14375 64.772812 
L 79.14375 64.772812 
" style="fill: none; stroke-dasharray: 5.55,2.4; stroke-dashoffset: 0; stroke: #808080; stroke-width: 1.5"/>
    </g>
    <g id="text_9">
     <!-- $I_{\max}$ -->
     <g transform="translate(87.14375 68.272812) scale(0.1 -0.1)">
      <defs>
       <path id="DejaVuSans-6d" d="M 3328 2828 
Q 3544 3216 3844 3400 
Q 4144 3584 4550 3584 
Q 5097 3584 5394 3201 
Q 5691 2819 5691 2113 
L 5691 0 
L 5113 0 
L 5113 2094 
Q 5113 2597 4934 2840 
Q 4756 3084 4391 3084 
Q 3944 3084 3684 2787 
Q 3425 2491 3425 1978 
L 3425 0 
L 2847 0 
L 2847 2094 
Q 2847 2600 2669 2842 
Q 2491 3084 2119 3084 
Q 1678 3084 1418 2786 
Q 1159 2488 1159 1978 
L 1159 0 
L 581 0 
L 581 3500 
L 1159 3500 
L 1159 2956 
Q 1356 3278 1631 3431 
Q 1906 3584 2284 3584 
Q 2666 3584 2933 3390 
Q 3200 3197 3328 2828 
z
" transform="scale(0.015625)"/>
      </defs>
      <use xlink:href="#DejaVuSans-Oblique-49" transform="translate(0 0.09375)"/>
      <use xlink:href="#DejaVuSans-6d" transform="translate(29.492188 -16.3125) scale(0.7)"/>
      <use xlink:href="#DejaVuSans-61" transform="translate(97.680664 -16.3125) scale(0.7)"/>
      <use xlink:href="#DejaVuSans-78" transform="translate(140.576172 -16.3125) scale(0.7)"/>
     </g>
    </g>
   </g>
  </g>
  <g id="axes_2">
   <g id="patch_8">
    <path d="M 348.79375 110.318125 
L 616.707271 110.318125 
L 616.707271 22.318125 
L 348.79375 22.318125 
z
" style="fill: #ffffff"/>
   </g>
   <g id="matplotlib.axis_3">
    <g id="xtick_7">
     <g id="line2d_16">
      <g>
       <use xlink:href="#me203091b42" x="360.971637" y="110.318125" style="stroke: #000000; stroke-width: 0.8"/>
      </g>
     </g>
    </g>
    <g id="xtick_8">
     <g id="line2d_17">
      <g>
       <use xlink:href="#me203091b42" x="409.731947" y="110.318125" style="stroke: #000000; stroke-width: 0.8"/>
      </g>
     </g>
    </g>
    <g id="xtick_9">
     <g id="line2d_18">
      <g>
       <use xlink:href="#me203091b42" x="458.492257" y="110.318125" style="stroke: #000000; stroke-width: 0.8"/>
      </g>
     </g>
    </g>
    <g id="xtick_10">
     <g id="line2d_19">
      <g>
       <use xlink:href="#me203091b42" x="507.252566" y="110.318125" style="stroke: #000000; stroke-width: 0.8"/>
      </g>
     </g>
    </g>
    <g id="xtick_11">
     <g id="line2d_20">
      <g>
       <use xlink:href="#me203091b42" x="556.012876" y="110.318125" style="stroke: #000000; stroke-width: 0.8"/>
      </g>
     </g>
    </g>
    <g id="xtick_12">
     <g id="line2d_21">
      <g>
       <use xlink:href="#me203091b42" x="604.773186" y="110.318125" style="stroke: #000000; stroke-width: 0.8"/>
      </g>
     </g>
    </g>
   </g>
   <g id="matplotlib.axis_4">
    <g id="ytick_4">
     <g id="line2d_22">
      <g>
       <use xlink:href="#m0f48486263" x="348.79375" y="106.347261" style="stroke: #000000; stroke-width: 0.8"/>
      </g>
     </g>
    </g>
    <g id="ytick_5">
     <g id="line2d_23">
      <g>
       <use xlink:href="#m0f48486263" x="348.79375" y="77.977648" style="stroke: #000000; stroke-width: 0.8"/>
      </g>
     </g>
    </g>
    <g id="ytick_6">
     <g id="line2d_24">
      <g>
       <use xlink:href="#m0f48486263" x="348.79375" y="49.608035" style="stroke: #000000; stroke-width: 0.8"/>
      </g>
     </g>
    </g>
   </g>
   <g id="line2d_25">
    <path d="M 360.971637 106.318125 
L 378.281547 106.154118 
L 386.5708 105.86953 
L 392.178236 105.465859 
L 396.322862 104.961434 
L 399.736083 104.335886 
L 402.661702 103.579723 
L 405.099718 102.737114 
L 407.293931 101.762229 
L 409.244344 100.677649 
L 411.194756 99.337862 
L 412.901367 97.909867 
L 414.607978 96.193173 
L 416.314589 94.130409 
L 417.777398 92.035426 
L 419.240207 89.585741 
L 420.703017 86.722993 
L 422.165826 83.37984 
L 423.628635 79.478819 
L 425.091445 74.931135 
L 426.554254 69.635433 
L 428.017063 63.476607 
L 429.967475 54.805602 
L 430.69888 52.793088 
L 431.186483 52.010172 
L 431.674086 51.594245 
L 432.161689 51.43142 
L 434.112102 51.185345 
L 436.793919 50.184368 
L 437.769125 50.229328 
L 439.963339 50.451867 
L 448.740195 50.260253 
L 479.946793 50.138444 
L 601.603765 49.743401 
L 604.529384 49.736538 
L 604.529384 49.736538 
" clip-path="url(#pffbbf1c4a5)" style="fill: none; stroke: #1f77b4; stroke-width: 2; stroke-linecap: square"/>
   </g>
   <g id="line2d_26">
    <path d="M 360.971637 103.510299 
L 428.992269 103.510299 
L 429.479872 91.132633 
L 430.211277 73.189176 
L 431.186483 48.161282 
L 431.674086 39.310983 
L 432.161689 33.631072 
L 432.405491 32.014952 
L 432.649293 31.28769 
L 432.893094 31.055694 
L 433.136896 31.459971 
L 433.624499 33.25096 
L 434.355903 36.437109 
L 434.843506 37.638758 
L 435.087308 37.861297 
L 435.33111 37.804586 
L 435.574911 37.495228 
L 436.062514 36.271012 
L 437.525323 31.544394 
L 438.012927 30.889253 
L 438.256728 30.824583 
L 438.50053 30.924745 
L 438.988133 31.484896 
L 440.938545 34.840781 
L 441.426148 35.102664 
L 441.913751 35.078069 
L 442.645156 34.700446 
L 443.376561 34.322665 
L 443.864164 34.227272 
L 444.351767 34.302351 
L 445.083171 34.6777 
L 447.033584 36.008162 
L 448.00879 36.292015 
L 450.690607 36.759874 
L 455.322836 38.33438 
L 457.760852 39.060304 
L 461.417875 40.159673 
L 481.409602 45.625539 
L 493.355878 48.546196 
L 505.058352 51.182151 
L 520.174048 54.284925 
L 535.289744 57.081172 
L 548.942631 59.3707 
L 565.277335 61.844902 
L 579.905428 63.841906 
L 598.190544 66.079197 
L 604.529384 66.794529 
L 604.529384 66.794529 
" clip-path="url(#pffbbf1c4a5)" style="fill: none; stroke: #ff7f0e; stroke-opacity: 0.5; stroke-width: 1.5; stroke-linecap: square"/>
   </g>
   <g id="line2d_27">
    <path d="M 360.971637 49.608035 
L 604.529384 49.608035 
L 604.529384 49.608035 
" clip-path="url(#pffbbf1c4a5)" style="fill: none; stroke-dasharray: 5.55,2.4; stroke-dashoffset: 0; stroke: #808080; stroke-width: 1.5"/>
   </g>
   <g id="patch_9">
    <path d="M 348.79375 110.318125 
L 348.79375 22.318125 
" style="fill: none; stroke: #000000; stroke-width: 0.8; stroke-linejoin: miter; stroke-linecap: square"/>
   </g>
   <g id="patch_10">
    <path d="M 616.707271 110.318125 
L 616.707271 22.318125 
" style="fill: none; stroke: #000000; stroke-width: 0.8; stroke-linejoin: miter; stroke-linecap: square"/>
   </g>
   <g id="patch_11">
    <path d="M 348.79375 110.318125 
L 616.707271 110.318125 
" style="fill: none; stroke: #000000; stroke-width: 0.8; stroke-linejoin: miter; stroke-linecap: square"/>
   </g>
   <g id="patch_12">
    <path d="M 348.79375 22.318125 
L 616.707271 22.318125 
" style="fill: none; stroke: #000000; stroke-width: 0.8; stroke-linejoin: miter; stroke-linecap: square"/>
   </g>
   <g id="text_10">
    <!-- $\frac{d}{dt}\hat{x}(t) = f(t,\tilde{x}(t)) + g(t,\tilde{x}(t), u(t))$ -->
    <g transform="translate(440.20714 97.836377) scale(0.1 -0.1)">
     <use xlink:href="#DejaVuSans-Oblique-64" transform="translate(14 44.810938) scale(0.7)"/>
     <use xlink:href="#DejaVuSans-Oblique-64" transform="translate(0 -40.623437) scale(0.7)"/>
     <use xlink:href="#DejaVuSans-Oblique-74" transform="translate(44.433594 -40.623437) scale(0.7)"/>
     <use xlink:href="#DejaVuSans-302" transform="translate(146.75293 11.20625)"/>
     <use xlink:href="#DejaVuSans-Oblique-78" transform="translate(84.379883 0.01875)"/>
     <use xlink:href="#DejaVuSans-28" transform="translate(143.55957 0.01875)"/>
     <use xlink:href="#DejaVuSans-Oblique-74" transform="translate(182.573242 0.01875)"/>
     <use xlink:href="#DejaVuSans-29" transform="translate(221.782227 0.01875)"/>
     <use xlink:href="#DejaVuSans-3d" transform="translate(280.27832 0.01875)"/>
     <use xlink:href="#DejaVuSans-Oblique-66" transform="translate(383.549805 0.01875)"/>
     <use xlink:href="#DejaVuSans-28" transform="translate(418.754883 0.01875)"/>
     <use xlink:href="#DejaVuSans-Oblique-74" transform="translate(457.768555 0.01875)"/>
     <use xlink:href="#DejaVuSans-2c" transform="translate(496.977539 0.01875)"/>
     <use xlink:href="#DejaVuSans-303" transform="translate(610.260742 3.284375)"/>
     <use xlink:href="#DejaVuSans-Oblique-78" transform="translate(548.24707 0.01875)"/>
     <use xlink:href="#DejaVuSans-28" transform="translate(607.426758 0.01875)"/>
     <use xlink:href="#DejaVuSans-Oblique-74" transform="translate(646.44043 0.01875)"/>
     <use xlink:href="#DejaVuSans-29" transform="translate(685.649414 0.01875)"/>
     <use xlink:href="#DejaVuSans-29" transform="translate(724.663086 0.01875)"/>
     <use xlink:href="#DejaVuSans-2b" transform="translate(783.15918 0.01875)"/>
     <use xlink:href="#DejaVuSans-Oblique-67" transform="translate(886.430664 0.01875)"/>
     <use xlink:href="#DejaVuSans-28" transform="translate(949.907227 0.01875)"/>
     <use xlink:href="#DejaVuSans-Oblique-74" transform="translate(988.920898 0.01875)"/>
     <use xlink:href="#DejaVuSans-2c" transform="translate(1028.129883 0.01875)"/>
     <use xlink:href="#DejaVuSans-303" transform="translate(1141.413086 3.284375)"/>
     <use xlink:href="#DejaVuSans-Oblique-78" transform="translate(1079.399414 0.01875)"/>
     <use xlink:href="#DejaVuSans-28" transform="translate(1138.579102 0.01875)"/>
     <use xlink:href="#DejaVuSans-Oblique-74" transform="translate(1177.592773 0.01875)"/>
     <use xlink:href="#DejaVuSans-29" transform="translate(1216.801758 0.01875)"/>
     <use xlink:href="#DejaVuSans-2c" transform="translate(1255.81543 0.01875)"/>
     <use xlink:href="#DejaVuSans-Oblique-75" transform="translate(1307.084961 0.01875)"/>
     <use xlink:href="#DejaVuSans-28" transform="translate(1370.463867 0.01875)"/>
     <use xlink:href="#DejaVuSans-Oblique-74" transform="translate(1409.477539 0.01875)"/>
     <use xlink:href="#DejaVuSans-29" transform="translate(1448.686523 0.01875)"/>
     <use xlink:href="#DejaVuSans-29" transform="translate(1487.700195 0.01875)"/>
     <path d="M 0 18.815625 
L 0 25.065625 
L 71.879883 25.065625 
L 71.879883 18.815625 
L 0 18.815625 
z
"/>
    </g>
   </g>
   <g id="text_11">
    <!-- LSTM Predictions -->
    <g transform="translate(431.920198 16.318125) scale(0.12 -0.12)">
     <defs>
      <path id="DejaVuSans-4c" d="M 628 4666 
L 1259 4666 
L 1259 531 
L 3531 531 
L 3531 0 
L 628 0 
L 628 4666 
z
" transform="scale(0.015625)"/>
      <path id="DejaVuSans-53" d="M 3425 4513 
L 3425 3897 
Q 3066 4069 2747 4153 
Q 2428 4238 2131 4238 
Q 1616 4238 1336 4038 
Q 1056 3838 1056 3469 
Q 1056 3159 1242 3001 
Q 1428 2844 1947 2747 
L 2328 2669 
Q 3034 2534 3370 2195 
Q 3706 1856 3706 1288 
Q 3706 609 3251 259 
Q 2797 -91 1919 -91 
Q 1588 -91 1214 -16 
Q 841 59 441 206 
L 441 856 
Q 825 641 1194 531 
Q 1563 422 1919 422 
Q 2459 422 2753 634 
Q 3047 847 3047 1241 
Q 3047 1584 2836 1778 
Q 2625 1972 2144 2069 
L 1759 2144 
Q 1053 2284 737 2584 
Q 422 2884 422 3419 
Q 422 4038 858 4394 
Q 1294 4750 2059 4750 
Q 2388 4750 2728 4690 
Q 3069 4631 3425 4513 
z
" transform="scale(0.015625)"/>
      <path id="DejaVuSans-4d" d="M 628 4666 
L 1569 4666 
L 2759 1491 
L 3956 4666 
L 4897 4666 
L 4897 0 
L 4281 0 
L 4281 4097 
L 3078 897 
L 2444 897 
L 1241 4097 
L 1241 0 
L 628 0 
L 628 4666 
z
" transform="scale(0.015625)"/>
     </defs>
     <use xlink:href="#DejaVuSans-4c"/>
     <use xlink:href="#DejaVuSans-53" x="55.712891"/>
     <use xlink:href="#DejaVuSans-54" x="119.189453"/>
     <use xlink:href="#DejaVuSans-4d" x="180.273438"/>
     <use xlink:href="#DejaVuSans-20" x="266.552734"/>
     <use xlink:href="#DejaVuSans-50" x="298.339844"/>
     <use xlink:href="#DejaVuSans-72" x="356.892578"/>
     <use xlink:href="#DejaVuSans-65" x="395.755859"/>
     <use xlink:href="#DejaVuSans-64" x="457.279297"/>
     <use xlink:href="#DejaVuSans-69" x="520.755859"/>
     <use xlink:href="#DejaVuSans-63" x="548.539062"/>
     <use xlink:href="#DejaVuSans-74" x="603.519531"/>
     <use xlink:href="#DejaVuSans-69" x="642.728516"/>
     <use xlink:href="#DejaVuSans-6f" x="670.511719"/>
     <use xlink:href="#DejaVuSans-6e" x="731.693359"/>
     <use xlink:href="#DejaVuSans-73" x="795.072266"/>
    </g>
   </g>
   <g id="legend_2">
    <g id="patch_13">
     <path d="M 355.79375 74.3525 
L 406.29375 74.3525 
Q 408.29375 74.3525 408.29375 72.3525 
L 408.29375 29.318125 
Q 408.29375 27.318125 406.29375 27.318125 
L 355.79375 27.318125 
Q 353.79375 27.318125 353.79375 29.318125 
L 353.79375 72.3525 
Q 353.79375 74.3525 355.79375 74.3525 
z
" style="fill: #ffffff; opacity: 0.8; stroke: #cccccc; stroke-linejoin: miter"/>
    </g>
    <g id="line2d_28">
     <path d="M 357.79375 35.416562 
L 367.79375 35.416562 
L 377.79375 35.416562 
" style="fill: none; stroke: #1f77b4; stroke-width: 2; stroke-linecap: square"/>
    </g>
    <g id="text_12">
     <!-- $I$ -->
     <g transform="translate(385.79375 38.916562) scale(0.1 -0.1)">
      <use xlink:href="#DejaVuSans-Oblique-49" transform="translate(0 0.09375)"/>
     </g>
    </g>
    <g id="line2d_29">
     <path d="M 357.79375 50.094688 
L 367.79375 50.094688 
L 377.79375 50.094688 
" style="fill: none; stroke: #ff7f0e; stroke-opacity: 0.5; stroke-width: 1.5; stroke-linecap: square"/>
    </g>
    <g id="text_13">
     <!-- $u$ -->
     <g transform="translate(385.79375 53.594688) scale(0.1 -0.1)">
      <use xlink:href="#DejaVuSans-Oblique-75" transform="translate(0 0.3125)"/>
     </g>
    </g>
    <g id="line2d_30">
     <path d="M 357.79375 64.772812 
L 367.79375 64.772812 
L 377.79375 64.772812 
" style="fill: none; stroke-dasharray: 5.55,2.4; stroke-dashoffset: 0; stroke: #808080; stroke-width: 1.5"/>
    </g>
    <g id="text_14">
     <!-- $I_{\max}$ -->
     <g transform="translate(385.79375 68.272812) scale(0.1 -0.1)">
      <use xlink:href="#DejaVuSans-Oblique-49" transform="translate(0 0.09375)"/>
      <use xlink:href="#DejaVuSans-6d" transform="translate(29.492188 -16.3125) scale(0.7)"/>
      <use xlink:href="#DejaVuSans-61" transform="translate(97.680664 -16.3125) scale(0.7)"/>
      <use xlink:href="#DejaVuSans-78" transform="translate(140.576172 -16.3125) scale(0.7)"/>
     </g>
    </g>
   </g>
  </g>
  <g id="axes_3">
   <g id="patch_14">
    <path d="M 50.14375 212.618125 
L 318.057271 212.618125 
L 318.057271 124.618125 
L 50.14375 124.618125 
z
" style="fill: #ffffff"/>
   </g>
   <g id="matplotlib.axis_5">
    <g id="xtick_13">
     <g id="line2d_31">
      <g>
       <use xlink:href="#me203091b42" x="62.321637" y="212.618125" style="stroke: #000000; stroke-width: 0.8"/>
      </g>
     </g>
    </g>
    <g id="xtick_14">
     <g id="line2d_32">
      <g>
       <use xlink:href="#me203091b42" x="111.081947" y="212.618125" style="stroke: #000000; stroke-width: 0.8"/>
      </g>
     </g>
    </g>
    <g id="xtick_15">
     <g id="line2d_33">
      <g>
       <use xlink:href="#me203091b42" x="159.842257" y="212.618125" style="stroke: #000000; stroke-width: 0.8"/>
      </g>
     </g>
    </g>
    <g id="xtick_16">
     <g id="line2d_34">
      <g>
       <use xlink:href="#me203091b42" x="208.602566" y="212.618125" style="stroke: #000000; stroke-width: 0.8"/>
      </g>
     </g>
    </g>
    <g id="xtick_17">
     <g id="line2d_35">
      <g>
       <use xlink:href="#me203091b42" x="257.362876" y="212.618125" style="stroke: #000000; stroke-width: 0.8"/>
      </g>
     </g>
    </g>
    <g id="xtick_18">
     <g id="line2d_36">
      <g>
       <use xlink:href="#me203091b42" x="306.123186" y="212.618125" style="stroke: #000000; stroke-width: 0.8"/>
      </g>
     </g>
    </g>
   </g>
   <g id="matplotlib.axis_6">
    <g id="ytick_7">
     <g id="line2d_37">
      <g>
       <use xlink:href="#m0f48486263" x="50.14375" y="208.647261" style="stroke: #000000; stroke-width: 0.8"/>
      </g>
     </g>
     <g id="text_15">
      <!-- 0.00 -->
      <g transform="translate(20.878125 212.446479) scale(0.1 -0.1)">
       <use xlink:href="#DejaVuSans-30"/>
       <use xlink:href="#DejaVuSans-2e" x="63.623047"/>
       <use xlink:href="#DejaVuSans-30" x="95.410156"/>
       <use xlink:href="#DejaVuSans-30" x="159.033203"/>
      </g>
     </g>
    </g>
    <g id="ytick_8">
     <g id="line2d_38">
      <g>
       <use xlink:href="#m0f48486263" x="50.14375" y="180.277648" style="stroke: #000000; stroke-width: 0.8"/>
      </g>
     </g>
     <g id="text_16">
      <!-- 0.01 -->
      <g transform="translate(20.878125 184.076866) scale(0.1 -0.1)">
       <use xlink:href="#DejaVuSans-30"/>
       <use xlink:href="#DejaVuSans-2e" x="63.623047"/>
       <use xlink:href="#DejaVuSans-30" x="95.410156"/>
       <use xlink:href="#DejaVuSans-31" x="159.033203"/>
      </g>
     </g>
    </g>
    <g id="ytick_9">
     <g id="line2d_39">
      <g>
       <use xlink:href="#m0f48486263" x="50.14375" y="151.908035" style="stroke: #000000; stroke-width: 0.8"/>
      </g>
     </g>
     <g id="text_17">
      <!-- 0.02 -->
      <g transform="translate(20.878125 155.707253) scale(0.1 -0.1)">
       <use xlink:href="#DejaVuSans-30"/>
       <use xlink:href="#DejaVuSans-2e" x="63.623047"/>
       <use xlink:href="#DejaVuSans-30" x="95.410156"/>
       <use xlink:href="#DejaVuSans-32" x="159.033203"/>
      </g>
     </g>
    </g>
    <g id="text_18">
     <!-- Propagation -->
     <g transform="translate(14.798438 198.601719) rotate(-90) scale(0.1 -0.1)">
      <defs>
       <path id="DejaVuSans-70" d="M 1159 525 
L 1159 -1331 
L 581 -1331 
L 581 3500 
L 1159 3500 
L 1159 2969 
Q 1341 3281 1617 3432 
Q 1894 3584 2278 3584 
Q 2916 3584 3314 3078 
Q 3713 2572 3713 1747 
Q 3713 922 3314 415 
Q 2916 -91 2278 -91 
Q 1894 -91 1617 61 
Q 1341 213 1159 525 
z
M 3116 1747 
Q 3116 2381 2855 2742 
Q 2594 3103 2138 3103 
Q 1681 3103 1420 2742 
Q 1159 2381 1159 1747 
Q 1159 1113 1420 752 
Q 1681 391 2138 391 
Q 2594 391 2855 752 
Q 3116 1113 3116 1747 
z
" transform="scale(0.015625)"/>
       <path id="DejaVuSans-67" d="M 2906 1791 
Q 2906 2416 2648 2759 
Q 2391 3103 1925 3103 
Q 1463 3103 1205 2759 
Q 947 2416 947 1791 
Q 947 1169 1205 825 
Q 1463 481 1925 481 
Q 2391 481 2648 825 
Q 2906 1169 2906 1791 
z
M 3481 434 
Q 3481 -459 3084 -895 
Q 2688 -1331 1869 -1331 
Q 1566 -1331 1297 -1286 
Q 1028 -1241 775 -1147 
L 775 -588 
Q 1028 -725 1275 -790 
Q 1522 -856 1778 -856 
Q 2344 -856 2625 -561 
Q 2906 -266 2906 331 
L 2906 616 
Q 2728 306 2450 153 
Q 2172 0 1784 0 
Q 1141 0 747 490 
Q 353 981 353 1791 
Q 353 2603 747 3093 
Q 1141 3584 1784 3584 
Q 2172 3584 2450 3431 
Q 2728 3278 2906 2969 
L 2906 3500 
L 3481 3500 
L 3481 434 
z
" transform="scale(0.015625)"/>
      </defs>
      <use xlink:href="#DejaVuSans-50"/>
      <use xlink:href="#DejaVuSans-72" x="58.552734"/>
      <use xlink:href="#DejaVuSans-6f" x="97.416016"/>
      <use xlink:href="#DejaVuSans-70" x="158.597656"/>
      <use xlink:href="#DejaVuSans-61" x="222.074219"/>
      <use xlink:href="#DejaVuSans-67" x="283.353516"/>
      <use xlink:href="#DejaVuSans-61" x="346.830078"/>
      <use xlink:href="#DejaVuSans-74" x="408.109375"/>
      <use xlink:href="#DejaVuSans-69" x="447.318359"/>
      <use xlink:href="#DejaVuSans-6f" x="475.101562"/>
      <use xlink:href="#DejaVuSans-6e" x="536.283203"/>
     </g>
    </g>
   </g>
   <g id="line2d_40">
    <path d="M 62.321637 208.618125 
L 79.631547 208.454118 
L 87.9208 208.16953 
L 93.528236 207.765859 
L 97.672862 207.261434 
L 101.086083 206.635886 
L 104.011702 205.879723 
L 106.449718 205.037114 
L 108.643931 204.062229 
L 110.594344 202.977649 
L 112.544756 201.637862 
L 114.251367 200.209867 
L 115.957978 198.493173 
L 117.664589 196.430409 
L 119.127398 194.335426 
L 120.590207 191.885741 
L 122.053017 189.022993 
L 123.515826 185.67984 
L 124.978635 181.778819 
L 126.441445 177.231135 
L 127.904254 171.935433 
L 129.367063 165.776607 
L 130.342269 161.613151 
L 131.073674 159.445339 
L 131.805079 157.93099 
L 132.536483 156.885995 
L 133.267888 156.170019 
L 134.243094 155.555346 
L 135.462102 155.118175 
L 136.924911 154.850098 
L 139.362927 154.661937 
L 145.214164 154.513036 
L 179.102579 154.027683 
L 227.862889 153.544057 
L 290.763688 153.154006 
L 305.879384 153.086259 
L 305.879384 153.086259 
" clip-path="url(#p758f4d20ac)" style="fill: none; stroke: #1f77b4; stroke-width: 2; stroke-linecap: square"/>
   </g>
   <g id="line2d_41">
    <path d="M 62.321637 205.810299 
L 129.610865 205.810299 
L 129.854666 204.477449 
L 130.586071 180.7748 
L 131.317475 164.95394 
L 132.04888 154.434388 
L 132.780285 147.473234 
L 133.511689 142.896844 
L 134.243094 139.916872 
L 134.974499 138.004736 
L 135.705903 136.806471 
L 136.437308 136.085231 
L 137.168713 135.68262 
L 138.143919 135.463707 
L 139.362927 135.491386 
L 141.069537 135.809418 
L 143.995156 136.627167 
L 164.962089 142.860428 
L 176.17696 145.876529 
L 187.879435 148.793094 
L 200.069512 151.598693 
L 212.747193 154.284485 
L 225.912476 156.84381 
L 239.565363 159.271984 
L 253.949654 161.603877 
L 269.06535 163.827842 
L 284.912451 165.935139 
L 301.734758 167.94746 
L 305.879384 168.410687 
L 305.879384 168.410687 
" clip-path="url(#p758f4d20ac)" style="fill: none; stroke: #ff7f0e; stroke-opacity: 0.5; stroke-width: 1.5; stroke-linecap: square"/>
   </g>
   <g id="line2d_42">
    <path d="M 62.321637 151.908035 
L 305.879384 151.908035 
L 305.879384 151.908035 
" clip-path="url(#p758f4d20ac)" style="fill: none; stroke-dasharray: 5.55,2.4; stroke-dashoffset: 0; stroke: #808080; stroke-width: 1.5"/>
   </g>
   <g id="patch_15">
    <path d="M 50.14375 212.618125 
L 50.14375 124.618125 
" style="fill: none; stroke: #000000; stroke-width: 0.8; stroke-linejoin: miter; stroke-linecap: square"/>
   </g>
   <g id="patch_16">
    <path d="M 318.057271 212.618125 
L 318.057271 124.618125 
" style="fill: none; stroke: #000000; stroke-width: 0.8; stroke-linejoin: miter; stroke-linecap: square"/>
   </g>
   <g id="patch_17">
    <path d="M 50.14375 212.618125 
L 318.057271 212.618125 
" style="fill: none; stroke: #000000; stroke-width: 0.8; stroke-linejoin: miter; stroke-linecap: square"/>
   </g>
   <g id="patch_18">
    <path d="M 50.14375 124.618125 
L 318.057271 124.618125 
" style="fill: none; stroke: #000000; stroke-width: 0.8; stroke-linejoin: miter; stroke-linecap: square"/>
   </g>
   <g id="text_19">
    <!-- $\frac{d}{dt}\hat{x}(t) = f(t,\tilde{x}(t)) + g(t,\hat{x}(t), u(t))$ -->
    <g transform="translate(141.55714 200.136377) scale(0.1 -0.1)">
     <use xlink:href="#DejaVuSans-Oblique-64" transform="translate(14 44.810938) scale(0.7)"/>
     <use xlink:href="#DejaVuSans-Oblique-64" transform="translate(0 -40.623437) scale(0.7)"/>
     <use xlink:href="#DejaVuSans-Oblique-74" transform="translate(44.433594 -40.623437) scale(0.7)"/>
     <use xlink:href="#DejaVuSans-302" transform="translate(146.75293 11.20625)"/>
     <use xlink:href="#DejaVuSans-Oblique-78" transform="translate(84.379883 0.01875)"/>
     <use xlink:href="#DejaVuSans-28" transform="translate(143.55957 0.01875)"/>
     <use xlink:href="#DejaVuSans-Oblique-74" transform="translate(182.573242 0.01875)"/>
     <use xlink:href="#DejaVuSans-29" transform="translate(221.782227 0.01875)"/>
     <use xlink:href="#DejaVuSans-3d" transform="translate(280.27832 0.01875)"/>
     <use xlink:href="#DejaVuSans-Oblique-66" transform="translate(383.549805 0.01875)"/>
     <use xlink:href="#DejaVuSans-28" transform="translate(418.754883 0.01875)"/>
     <use xlink:href="#DejaVuSans-Oblique-74" transform="translate(457.768555 0.01875)"/>
     <use xlink:href="#DejaVuSans-2c" transform="translate(496.977539 0.01875)"/>
     <use xlink:href="#DejaVuSans-303" transform="translate(610.260742 3.284375)"/>
     <use xlink:href="#DejaVuSans-Oblique-78" transform="translate(548.24707 0.01875)"/>
     <use xlink:href="#DejaVuSans-28" transform="translate(607.426758 0.01875)"/>
     <use xlink:href="#DejaVuSans-Oblique-74" transform="translate(646.44043 0.01875)"/>
     <use xlink:href="#DejaVuSans-29" transform="translate(685.649414 0.01875)"/>
     <use xlink:href="#DejaVuSans-29" transform="translate(724.663086 0.01875)"/>
     <use xlink:href="#DejaVuSans-2b" transform="translate(783.15918 0.01875)"/>
     <use xlink:href="#DejaVuSans-Oblique-67" transform="translate(886.430664 0.01875)"/>
     <use xlink:href="#DejaVuSans-28" transform="translate(949.907227 0.01875)"/>
     <use xlink:href="#DejaVuSans-Oblique-74" transform="translate(988.920898 0.01875)"/>
     <use xlink:href="#DejaVuSans-2c" transform="translate(1028.129883 0.01875)"/>
     <use xlink:href="#DejaVuSans-302" transform="translate(1141.772461 11.20625)"/>
     <use xlink:href="#DejaVuSans-Oblique-78" transform="translate(1079.399414 0.01875)"/>
     <use xlink:href="#DejaVuSans-28" transform="translate(1138.579102 0.01875)"/>
     <use xlink:href="#DejaVuSans-Oblique-74" transform="translate(1177.592773 0.01875)"/>
     <use xlink:href="#DejaVuSans-29" transform="translate(1216.801758 0.01875)"/>
     <use xlink:href="#DejaVuSans-2c" transform="translate(1255.81543 0.01875)"/>
     <use xlink:href="#DejaVuSans-Oblique-75" transform="translate(1307.084961 0.01875)"/>
     <use xlink:href="#DejaVuSans-28" transform="translate(1370.463867 0.01875)"/>
     <use xlink:href="#DejaVuSans-Oblique-74" transform="translate(1409.477539 0.01875)"/>
     <use xlink:href="#DejaVuSans-29" transform="translate(1448.686523 0.01875)"/>
     <use xlink:href="#DejaVuSans-29" transform="translate(1487.700195 0.01875)"/>
     <path d="M 0 18.815625 
L 0 25.065625 
L 71.879883 25.065625 
L 71.879883 18.815625 
L 0 18.815625 
z
"/>
    </g>
   </g>
   <g id="legend_3">
    <g id="patch_19">
     <path d="M 57.14375 176.6525 
L 107.64375 176.6525 
Q 109.64375 176.6525 109.64375 174.6525 
L 109.64375 131.618125 
Q 109.64375 129.618125 107.64375 129.618125 
L 57.14375 129.618125 
Q 55.14375 129.618125 55.14375 131.618125 
L 55.14375 174.6525 
Q 55.14375 176.6525 57.14375 176.6525 
z
" style="fill: #ffffff; opacity: 0.8; stroke: #cccccc; stroke-linejoin: miter"/>
    </g>
    <g id="line2d_43">
     <path d="M 59.14375 137.716563 
L 69.14375 137.716563 
L 79.14375 137.716563 
" style="fill: none; stroke: #1f77b4; stroke-width: 2; stroke-linecap: square"/>
    </g>
    <g id="text_20">
     <!-- $I$ -->
     <g transform="translate(87.14375 141.216563) scale(0.1 -0.1)">
      <use xlink:href="#DejaVuSans-Oblique-49" transform="translate(0 0.09375)"/>
     </g>
    </g>
    <g id="line2d_44">
     <path d="M 59.14375 152.394688 
L 69.14375 152.394688 
L 79.14375 152.394688 
" style="fill: none; stroke: #ff7f0e; stroke-opacity: 0.5; stroke-width: 1.5; stroke-linecap: square"/>
    </g>
    <g id="text_21">
     <!-- $u$ -->
     <g transform="translate(87.14375 155.894688) scale(0.1 -0.1)">
      <use xlink:href="#DejaVuSans-Oblique-75" transform="translate(0 0.3125)"/>
     </g>
    </g>
    <g id="line2d_45">
     <path d="M 59.14375 167.072812 
L 69.14375 167.072812 
L 79.14375 167.072812 
" style="fill: none; stroke-dasharray: 5.55,2.4; stroke-dashoffset: 0; stroke: #808080; stroke-width: 1.5"/>
    </g>
    <g id="text_22">
     <!-- $I_{\max}$ -->
     <g transform="translate(87.14375 170.572812) scale(0.1 -0.1)">
      <use xlink:href="#DejaVuSans-Oblique-49" transform="translate(0 0.09375)"/>
      <use xlink:href="#DejaVuSans-6d" transform="translate(29.492188 -16.3125) scale(0.7)"/>
      <use xlink:href="#DejaVuSans-61" transform="translate(97.680664 -16.3125) scale(0.7)"/>
      <use xlink:href="#DejaVuSans-78" transform="translate(140.576172 -16.3125) scale(0.7)"/>
     </g>
    </g>
   </g>
  </g>
  <g id="axes_4">
   <g id="patch_20">
    <path d="M 348.79375 212.618125 
L 616.707271 212.618125 
L 616.707271 124.618125 
L 348.79375 124.618125 
z
" style="fill: #ffffff"/>
   </g>
   <g id="matplotlib.axis_7">
    <g id="xtick_19">
     <g id="line2d_46">
      <g>
       <use xlink:href="#me203091b42" x="360.971637" y="212.618125" style="stroke: #000000; stroke-width: 0.8"/>
      </g>
     </g>
    </g>
    <g id="xtick_20">
     <g id="line2d_47">
      <g>
       <use xlink:href="#me203091b42" x="409.731947" y="212.618125" style="stroke: #000000; stroke-width: 0.8"/>
      </g>
     </g>
    </g>
    <g id="xtick_21">
     <g id="line2d_48">
      <g>
       <use xlink:href="#me203091b42" x="458.492257" y="212.618125" style="stroke: #000000; stroke-width: 0.8"/>
      </g>
     </g>
    </g>
    <g id="xtick_22">
     <g id="line2d_49">
      <g>
       <use xlink:href="#me203091b42" x="507.252566" y="212.618125" style="stroke: #000000; stroke-width: 0.8"/>
      </g>
     </g>
    </g>
    <g id="xtick_23">
     <g id="line2d_50">
      <g>
       <use xlink:href="#me203091b42" x="556.012876" y="212.618125" style="stroke: #000000; stroke-width: 0.8"/>
      </g>
     </g>
    </g>
    <g id="xtick_24">
     <g id="line2d_51">
      <g>
       <use xlink:href="#me203091b42" x="604.773186" y="212.618125" style="stroke: #000000; stroke-width: 0.8"/>
      </g>
     </g>
    </g>
   </g>
   <g id="matplotlib.axis_8">
    <g id="ytick_10">
     <g id="line2d_52">
      <g>
       <use xlink:href="#m0f48486263" x="348.79375" y="208.647261" style="stroke: #000000; stroke-width: 0.8"/>
      </g>
     </g>
    </g>
    <g id="ytick_11">
     <g id="line2d_53">
      <g>
       <use xlink:href="#m0f48486263" x="348.79375" y="180.277648" style="stroke: #000000; stroke-width: 0.8"/>
      </g>
     </g>
    </g>
    <g id="ytick_12">
     <g id="line2d_54">
      <g>
       <use xlink:href="#m0f48486263" x="348.79375" y="151.908035" style="stroke: #000000; stroke-width: 0.8"/>
      </g>
     </g>
    </g>
   </g>
   <g id="line2d_55">
    <path d="M 360.971637 208.618125 
L 378.281547 208.454118 
L 386.5708 208.16953 
L 392.178236 207.765859 
L 396.322862 207.261434 
L 399.736083 206.635886 
L 402.661702 205.879723 
L 405.099718 205.037114 
L 407.293931 204.062229 
L 409.244344 202.977649 
L 411.194756 201.637862 
L 412.901367 200.209867 
L 414.607978 198.493173 
L 416.314589 196.430409 
L 417.777398 194.335426 
L 419.240207 191.885741 
L 420.703017 189.022993 
L 422.165826 185.67984 
L 423.628635 181.778819 
L 425.091445 177.231135 
L 426.554254 171.935433 
L 428.017063 165.776607 
L 429.967475 157.135054 
L 430.455079 155.73502 
L 430.942682 154.841367 
L 431.430285 154.419269 
L 431.917888 154.351111 
L 433.8683 154.679538 
L 434.599705 154.330624 
L 436.793919 152.931416 
L 437.525323 152.866992 
L 438.50053 153.061521 
L 439.963339 153.339761 
L 440.938545 153.285821 
L 443.620362 152.964239 
L 449.227798 152.998497 
L 456.785646 152.964616 
L 476.045968 152.838225 
L 543.335195 152.522697 
L 604.529384 152.346841 
L 604.529384 152.346841 
" clip-path="url(#pce65610b93)" style="fill: none; stroke: #1f77b4; stroke-width: 2; stroke-linecap: square"/>
   </g>
   <g id="line2d_56">
    <path d="M 360.971637 205.810299 
L 428.992269 205.810299 
L 429.479872 193.188646 
L 430.211277 174.266705 
L 431.430285 141.012216 
L 431.917888 132.861401 
L 432.405491 129.02306 
L 432.649293 128.618125 
L 432.893094 129.065307 
L 433.380697 131.851759 
L 434.843506 142.763802 
L 435.087308 143.573719 
L 435.33111 143.937265 
L 435.574911 143.864463 
L 435.818713 143.390445 
L 436.306316 141.395771 
L 438.012927 132.651012 
L 438.256728 132.115853 
L 438.50053 131.855317 
L 438.744331 131.858801 
L 438.988133 132.102638 
L 439.475736 133.160085 
L 441.182347 137.933737 
L 441.66995 138.44722 
L 441.913751 138.503608 
L 442.401354 138.27827 
L 443.132759 137.433075 
L 443.864164 136.575743 
L 444.351767 136.260195 
L 444.83937 136.234163 
L 445.326973 136.484987 
L 446.058378 137.21273 
L 447.277385 138.504404 
L 448.00879 138.917086 
L 448.740195 139.013445 
L 450.934409 138.948996 
L 451.909615 139.32132 
L 454.34763 140.466275 
L 455.81044 140.775775 
L 457.51705 141.169394 
L 465.562502 143.593451 
L 470.682334 145.007041 
L 479.946793 147.46028 
L 492.380672 150.500598 
L 502.864138 152.875258 
L 513.347605 155.078247 
L 525.781484 157.501592 
L 541.872386 160.347725 
L 559.182296 163.081993 
L 574.785595 165.288496 
L 591.120299 167.365258 
L 604.529384 168.910831 
L 604.529384 168.910831 
" clip-path="url(#pce65610b93)" style="fill: none; stroke: #ff7f0e; stroke-opacity: 0.5; stroke-width: 1.5; stroke-linecap: square"/>
   </g>
   <g id="line2d_57">
    <path d="M 360.971637 151.908035 
L 604.529384 151.908035 
L 604.529384 151.908035 
" clip-path="url(#pce65610b93)" style="fill: none; stroke-dasharray: 5.55,2.4; stroke-dashoffset: 0; stroke: #808080; stroke-width: 1.5"/>
   </g>
   <g id="patch_21">
    <path d="M 348.79375 212.618125 
L 348.79375 124.618125 
" style="fill: none; stroke: #000000; stroke-width: 0.8; stroke-linejoin: miter; stroke-linecap: square"/>
   </g>
   <g id="patch_22">
    <path d="M 616.707271 212.618125 
L 616.707271 124.618125 
" style="fill: none; stroke: #000000; stroke-width: 0.8; stroke-linejoin: miter; stroke-linecap: square"/>
   </g>
   <g id="patch_23">
    <path d="M 348.79375 212.618125 
L 616.707271 212.618125 
" style="fill: none; stroke: #000000; stroke-width: 0.8; stroke-linejoin: miter; stroke-linecap: square"/>
   </g>
   <g id="patch_24">
    <path d="M 348.79375 124.618125 
L 616.707271 124.618125 
" style="fill: none; stroke: #000000; stroke-width: 0.8; stroke-linejoin: miter; stroke-linecap: square"/>
   </g>
   <g id="text_23">
    <!-- $\frac{d}{dt}\hat{x}(t) = f(t,\tilde{x}(t)) + g(t,\hat{x}(t), u(t))$ -->
    <g transform="translate(440.20714 200.136377) scale(0.1 -0.1)">
     <use xlink:href="#DejaVuSans-Oblique-64" transform="translate(14 44.810938) scale(0.7)"/>
     <use xlink:href="#DejaVuSans-Oblique-64" transform="translate(0 -40.623437) scale(0.7)"/>
     <use xlink:href="#DejaVuSans-Oblique-74" transform="translate(44.433594 -40.623437) scale(0.7)"/>
     <use xlink:href="#DejaVuSans-302" transform="translate(146.75293 11.20625)"/>
     <use xlink:href="#DejaVuSans-Oblique-78" transform="translate(84.379883 0.01875)"/>
     <use xlink:href="#DejaVuSans-28" transform="translate(143.55957 0.01875)"/>
     <use xlink:href="#DejaVuSans-Oblique-74" transform="translate(182.573242 0.01875)"/>
     <use xlink:href="#DejaVuSans-29" transform="translate(221.782227 0.01875)"/>
     <use xlink:href="#DejaVuSans-3d" transform="translate(280.27832 0.01875)"/>
     <use xlink:href="#DejaVuSans-Oblique-66" transform="translate(383.549805 0.01875)"/>
     <use xlink:href="#DejaVuSans-28" transform="translate(418.754883 0.01875)"/>
     <use xlink:href="#DejaVuSans-Oblique-74" transform="translate(457.768555 0.01875)"/>
     <use xlink:href="#DejaVuSans-2c" transform="translate(496.977539 0.01875)"/>
     <use xlink:href="#DejaVuSans-303" transform="translate(610.260742 3.284375)"/>
     <use xlink:href="#DejaVuSans-Oblique-78" transform="translate(548.24707 0.01875)"/>
     <use xlink:href="#DejaVuSans-28" transform="translate(607.426758 0.01875)"/>
     <use xlink:href="#DejaVuSans-Oblique-74" transform="translate(646.44043 0.01875)"/>
     <use xlink:href="#DejaVuSans-29" transform="translate(685.649414 0.01875)"/>
     <use xlink:href="#DejaVuSans-29" transform="translate(724.663086 0.01875)"/>
     <use xlink:href="#DejaVuSans-2b" transform="translate(783.15918 0.01875)"/>
     <use xlink:href="#DejaVuSans-Oblique-67" transform="translate(886.430664 0.01875)"/>
     <use xlink:href="#DejaVuSans-28" transform="translate(949.907227 0.01875)"/>
     <use xlink:href="#DejaVuSans-Oblique-74" transform="translate(988.920898 0.01875)"/>
     <use xlink:href="#DejaVuSans-2c" transform="translate(1028.129883 0.01875)"/>
     <use xlink:href="#DejaVuSans-302" transform="translate(1141.772461 11.20625)"/>
     <use xlink:href="#DejaVuSans-Oblique-78" transform="translate(1079.399414 0.01875)"/>
     <use xlink:href="#DejaVuSans-28" transform="translate(1138.579102 0.01875)"/>
     <use xlink:href="#DejaVuSans-Oblique-74" transform="translate(1177.592773 0.01875)"/>
     <use xlink:href="#DejaVuSans-29" transform="translate(1216.801758 0.01875)"/>
     <use xlink:href="#DejaVuSans-2c" transform="translate(1255.81543 0.01875)"/>
     <use xlink:href="#DejaVuSans-Oblique-75" transform="translate(1307.084961 0.01875)"/>
     <use xlink:href="#DejaVuSans-28" transform="translate(1370.463867 0.01875)"/>
     <use xlink:href="#DejaVuSans-Oblique-74" transform="translate(1409.477539 0.01875)"/>
     <use xlink:href="#DejaVuSans-29" transform="translate(1448.686523 0.01875)"/>
     <use xlink:href="#DejaVuSans-29" transform="translate(1487.700195 0.01875)"/>
     <path d="M 0 18.815625 
L 0 25.065625 
L 71.879883 25.065625 
L 71.879883 18.815625 
L 0 18.815625 
z
"/>
    </g>
   </g>
   <g id="legend_4">
    <g id="patch_25">
     <path d="M 355.79375 176.6525 
L 406.29375 176.6525 
Q 408.29375 176.6525 408.29375 174.6525 
L 408.29375 131.618125 
Q 408.29375 129.618125 406.29375 129.618125 
L 355.79375 129.618125 
Q 353.79375 129.618125 353.79375 131.618125 
L 353.79375 174.6525 
Q 353.79375 176.6525 355.79375 176.6525 
z
" style="fill: #ffffff; opacity: 0.8; stroke: #cccccc; stroke-linejoin: miter"/>
    </g>
    <g id="line2d_58">
     <path d="M 357.79375 137.716563 
L 367.79375 137.716563 
L 377.79375 137.716563 
" style="fill: none; stroke: #1f77b4; stroke-width: 2; stroke-linecap: square"/>
    </g>
    <g id="text_24">
     <!-- $I$ -->
     <g transform="translate(385.79375 141.216563) scale(0.1 -0.1)">
      <use xlink:href="#DejaVuSans-Oblique-49" transform="translate(0 0.09375)"/>
     </g>
    </g>
    <g id="line2d_59">
     <path d="M 357.79375 152.394688 
L 367.79375 152.394688 
L 377.79375 152.394688 
" style="fill: none; stroke: #ff7f0e; stroke-opacity: 0.5; stroke-width: 1.5; stroke-linecap: square"/>
    </g>
    <g id="text_25">
     <!-- $u$ -->
     <g transform="translate(385.79375 155.894688) scale(0.1 -0.1)">
      <use xlink:href="#DejaVuSans-Oblique-75" transform="translate(0 0.3125)"/>
     </g>
    </g>
    <g id="line2d_60">
     <path d="M 357.79375 167.072812 
L 367.79375 167.072812 
L 377.79375 167.072812 
" style="fill: none; stroke-dasharray: 5.55,2.4; stroke-dashoffset: 0; stroke: #808080; stroke-width: 1.5"/>
    </g>
    <g id="text_26">
     <!-- $I_{\max}$ -->
     <g transform="translate(385.79375 170.572812) scale(0.1 -0.1)">
      <use xlink:href="#DejaVuSans-Oblique-49" transform="translate(0 0.09375)"/>
      <use xlink:href="#DejaVuSans-6d" transform="translate(29.492188 -16.3125) scale(0.7)"/>
      <use xlink:href="#DejaVuSans-61" transform="translate(97.680664 -16.3125) scale(0.7)"/>
      <use xlink:href="#DejaVuSans-78" transform="translate(140.576172 -16.3125) scale(0.7)"/>
     </g>
    </g>
   </g>
  </g>
  <g id="axes_5">
   <g id="patch_26">
    <path d="M 50.14375 314.918125 
L 318.057271 314.918125 
L 318.057271 226.918125 
L 50.14375 226.918125 
z
" style="fill: #ffffff"/>
   </g>
   <g id="matplotlib.axis_9">
    <g id="xtick_25">
     <g id="line2d_61">
      <g>
       <use xlink:href="#me203091b42" x="62.321637" y="314.918125" style="stroke: #000000; stroke-width: 0.8"/>
      </g>
     </g>
     <g id="text_27">
      <!-- 0 -->
      <g transform="translate(59.140387 329.516563) scale(0.1 -0.1)">
       <use xlink:href="#DejaVuSans-30"/>
      </g>
     </g>
    </g>
    <g id="xtick_26">
     <g id="line2d_62">
      <g>
       <use xlink:href="#me203091b42" x="111.081947" y="314.918125" style="stroke: #000000; stroke-width: 0.8"/>
      </g>
     </g>
     <g id="text_28">
      <!-- 200 -->
      <g transform="translate(101.538197 329.516563) scale(0.1 -0.1)">
       <use xlink:href="#DejaVuSans-32"/>
       <use xlink:href="#DejaVuSans-30" x="63.623047"/>
       <use xlink:href="#DejaVuSans-30" x="127.246094"/>
      </g>
     </g>
    </g>
    <g id="xtick_27">
     <g id="line2d_63">
      <g>
       <use xlink:href="#me203091b42" x="159.842257" y="314.918125" style="stroke: #000000; stroke-width: 0.8"/>
      </g>
     </g>
     <g id="text_29">
      <!-- 400 -->
      <g transform="translate(150.298507 329.516563) scale(0.1 -0.1)">
       <defs>
        <path id="DejaVuSans-34" d="M 2419 4116 
L 825 1625 
L 2419 1625 
L 2419 4116 
z
M 2253 4666 
L 3047 4666 
L 3047 1625 
L 3713 1625 
L 3713 1100 
L 3047 1100 
L 3047 0 
L 2419 0 
L 2419 1100 
L 313 1100 
L 313 1709 
L 2253 4666 
z
" transform="scale(0.015625)"/>
       </defs>
       <use xlink:href="#DejaVuSans-34"/>
       <use xlink:href="#DejaVuSans-30" x="63.623047"/>
       <use xlink:href="#DejaVuSans-30" x="127.246094"/>
      </g>
     </g>
    </g>
    <g id="xtick_28">
     <g id="line2d_64">
      <g>
       <use xlink:href="#me203091b42" x="208.602566" y="314.918125" style="stroke: #000000; stroke-width: 0.8"/>
      </g>
     </g>
     <g id="text_30">
      <!-- 600 -->
      <g transform="translate(199.058816 329.516563) scale(0.1 -0.1)">
       <defs>
        <path id="DejaVuSans-36" d="M 2113 2584 
Q 1688 2584 1439 2293 
Q 1191 2003 1191 1497 
Q 1191 994 1439 701 
Q 1688 409 2113 409 
Q 2538 409 2786 701 
Q 3034 994 3034 1497 
Q 3034 2003 2786 2293 
Q 2538 2584 2113 2584 
z
M 3366 4563 
L 3366 3988 
Q 3128 4100 2886 4159 
Q 2644 4219 2406 4219 
Q 1781 4219 1451 3797 
Q 1122 3375 1075 2522 
Q 1259 2794 1537 2939 
Q 1816 3084 2150 3084 
Q 2853 3084 3261 2657 
Q 3669 2231 3669 1497 
Q 3669 778 3244 343 
Q 2819 -91 2113 -91 
Q 1303 -91 875 529 
Q 447 1150 447 2328 
Q 447 3434 972 4092 
Q 1497 4750 2381 4750 
Q 2619 4750 2861 4703 
Q 3103 4656 3366 4563 
z
" transform="scale(0.015625)"/>
       </defs>
       <use xlink:href="#DejaVuSans-36"/>
       <use xlink:href="#DejaVuSans-30" x="63.623047"/>
       <use xlink:href="#DejaVuSans-30" x="127.246094"/>
      </g>
     </g>
    </g>
    <g id="xtick_29">
     <g id="line2d_65">
      <g>
       <use xlink:href="#me203091b42" x="257.362876" y="314.918125" style="stroke: #000000; stroke-width: 0.8"/>
      </g>
     </g>
     <g id="text_31">
      <!-- 800 -->
      <g transform="translate(247.819126 329.516563) scale(0.1 -0.1)">
       <defs>
        <path id="DejaVuSans-38" d="M 2034 2216 
Q 1584 2216 1326 1975 
Q 1069 1734 1069 1313 
Q 1069 891 1326 650 
Q 1584 409 2034 409 
Q 2484 409 2743 651 
Q 3003 894 3003 1313 
Q 3003 1734 2745 1975 
Q 2488 2216 2034 2216 
z
M 1403 2484 
Q 997 2584 770 2862 
Q 544 3141 544 3541 
Q 544 4100 942 4425 
Q 1341 4750 2034 4750 
Q 2731 4750 3128 4425 
Q 3525 4100 3525 3541 
Q 3525 3141 3298 2862 
Q 3072 2584 2669 2484 
Q 3125 2378 3379 2068 
Q 3634 1759 3634 1313 
Q 3634 634 3220 271 
Q 2806 -91 2034 -91 
Q 1263 -91 848 271 
Q 434 634 434 1313 
Q 434 1759 690 2068 
Q 947 2378 1403 2484 
z
M 1172 3481 
Q 1172 3119 1398 2916 
Q 1625 2713 2034 2713 
Q 2441 2713 2670 2916 
Q 2900 3119 2900 3481 
Q 2900 3844 2670 4047 
Q 2441 4250 2034 4250 
Q 1625 4250 1398 4047 
Q 1172 3844 1172 3481 
z
" transform="scale(0.015625)"/>
       </defs>
       <use xlink:href="#DejaVuSans-38"/>
       <use xlink:href="#DejaVuSans-30" x="63.623047"/>
       <use xlink:href="#DejaVuSans-30" x="127.246094"/>
      </g>
     </g>
    </g>
    <g id="xtick_30">
     <g id="line2d_66">
      <g>
       <use xlink:href="#me203091b42" x="306.123186" y="314.918125" style="stroke: #000000; stroke-width: 0.8"/>
      </g>
     </g>
     <g id="text_32">
      <!-- 1000 -->
      <g transform="translate(293.398186 329.516563) scale(0.1 -0.1)">
       <use xlink:href="#DejaVuSans-31"/>
       <use xlink:href="#DejaVuSans-30" x="63.623047"/>
       <use xlink:href="#DejaVuSans-30" x="127.246094"/>
       <use xlink:href="#DejaVuSans-30" x="190.869141"/>
      </g>
     </g>
    </g>
    <g id="text_33">
     <!-- time (days) -->
     <g transform="translate(155.511448 343.194687) scale(0.1 -0.1)">
      <defs>
       <path id="DejaVuSans-79" d="M 2059 -325 
Q 1816 -950 1584 -1140 
Q 1353 -1331 966 -1331 
L 506 -1331 
L 506 -850 
L 844 -850 
Q 1081 -850 1212 -737 
Q 1344 -625 1503 -206 
L 1606 56 
L 191 3500 
L 800 3500 
L 1894 763 
L 2988 3500 
L 3597 3500 
L 2059 -325 
z
" transform="scale(0.015625)"/>
      </defs>
      <use xlink:href="#DejaVuSans-74"/>
      <use xlink:href="#DejaVuSans-69" x="39.208984"/>
      <use xlink:href="#DejaVuSans-6d" x="66.992188"/>
      <use xlink:href="#DejaVuSans-65" x="164.404297"/>
      <use xlink:href="#DejaVuSans-20" x="225.927734"/>
      <use xlink:href="#DejaVuSans-28" x="257.714844"/>
      <use xlink:href="#DejaVuSans-64" x="296.728516"/>
      <use xlink:href="#DejaVuSans-61" x="360.205078"/>
      <use xlink:href="#DejaVuSans-79" x="421.484375"/>
      <use xlink:href="#DejaVuSans-73" x="480.664062"/>
      <use xlink:href="#DejaVuSans-29" x="532.763672"/>
     </g>
    </g>
   </g>
   <g id="matplotlib.axis_10">
    <g id="ytick_13">
     <g id="line2d_67">
      <g>
       <use xlink:href="#m0f48486263" x="50.14375" y="310.947261" style="stroke: #000000; stroke-width: 0.8"/>
      </g>
     </g>
     <g id="text_34">
      <!-- 0.00 -->
      <g transform="translate(20.878125 314.746479) scale(0.1 -0.1)">
       <use xlink:href="#DejaVuSans-30"/>
       <use xlink:href="#DejaVuSans-2e" x="63.623047"/>
       <use xlink:href="#DejaVuSans-30" x="95.410156"/>
       <use xlink:href="#DejaVuSans-30" x="159.033203"/>
      </g>
     </g>
    </g>
    <g id="ytick_14">
     <g id="line2d_68">
      <g>
       <use xlink:href="#m0f48486263" x="50.14375" y="282.577648" style="stroke: #000000; stroke-width: 0.8"/>
      </g>
     </g>
     <g id="text_35">
      <!-- 0.01 -->
      <g transform="translate(20.878125 286.376866) scale(0.1 -0.1)">
       <use xlink:href="#DejaVuSans-30"/>
       <use xlink:href="#DejaVuSans-2e" x="63.623047"/>
       <use xlink:href="#DejaVuSans-30" x="95.410156"/>
       <use xlink:href="#DejaVuSans-31" x="159.033203"/>
      </g>
     </g>
    </g>
    <g id="ytick_15">
     <g id="line2d_69">
      <g>
       <use xlink:href="#m0f48486263" x="50.14375" y="254.208035" style="stroke: #000000; stroke-width: 0.8"/>
      </g>
     </g>
     <g id="text_36">
      <!-- 0.02 -->
      <g transform="translate(20.878125 258.007253) scale(0.1 -0.1)">
       <use xlink:href="#DejaVuSans-30"/>
       <use xlink:href="#DejaVuSans-2e" x="63.623047"/>
       <use xlink:href="#DejaVuSans-30" x="95.410156"/>
       <use xlink:href="#DejaVuSans-32" x="159.033203"/>
      </g>
     </g>
    </g>
    <g id="text_37">
     <!-- Proportional -->
     <g transform="translate(14.798438 301.167344) rotate(-90) scale(0.1 -0.1)">
      <use xlink:href="#DejaVuSans-50"/>
      <use xlink:href="#DejaVuSans-72" x="58.552734"/>
      <use xlink:href="#DejaVuSans-6f" x="97.416016"/>
      <use xlink:href="#DejaVuSans-70" x="158.597656"/>
      <use xlink:href="#DejaVuSans-6f" x="222.074219"/>
      <use xlink:href="#DejaVuSans-72" x="283.255859"/>
      <use xlink:href="#DejaVuSans-74" x="324.369141"/>
      <use xlink:href="#DejaVuSans-69" x="363.578125"/>
      <use xlink:href="#DejaVuSans-6f" x="391.361328"/>
      <use xlink:href="#DejaVuSans-6e" x="452.542969"/>
      <use xlink:href="#DejaVuSans-61" x="515.921875"/>
      <use xlink:href="#DejaVuSans-6c" x="577.201172"/>
     </g>
    </g>
   </g>
   <g id="line2d_70">
    <path d="M 62.321637 310.918125 
L 79.631547 310.754118 
L 87.9208 310.46953 
L 93.528236 310.065859 
L 97.672862 309.561434 
L 101.086083 308.935886 
L 104.011702 308.179723 
L 106.449718 307.337114 
L 108.643931 306.362229 
L 110.594344 305.277649 
L 112.544756 303.937862 
L 114.251367 302.509867 
L 115.957978 300.793173 
L 117.664589 298.730409 
L 119.127398 296.635426 
L 120.590207 294.185741 
L 122.053017 291.322993 
L 123.515826 287.97984 
L 124.978635 284.078819 
L 126.441445 279.531135 
L 127.904254 274.235433 
L 129.367063 268.076607 
L 130.342269 263.854571 
L 131.073674 261.543257 
L 131.805079 259.850427 
L 132.536483 258.625075 
L 133.267888 257.745217 
L 134.243094 256.950474 
L 135.2183 256.445754 
L 136.437308 256.066153 
L 138.143919 255.793392 
L 140.825736 255.636795 
L 153.503416 255.556825 
L 235.664538 255.18553 
L 305.879384 254.995152 
L 305.879384 254.995152 
" clip-path="url(#p8a155db976)" style="fill: none; stroke: #1f77b4; stroke-width: 2; stroke-linecap: square"/>
   </g>
   <g id="line2d_71">
    <path d="M 62.321637 308.110299 
L 129.610865 308.110299 
L 129.854666 307.19053 
L 130.586071 285.496004 
L 131.317475 270.427526 
L 132.04888 259.963809 
L 132.780285 252.710522 
L 133.511689 247.700609 
L 134.243094 244.260769 
L 134.974499 241.92095 
L 135.705903 240.352352 
L 136.437308 239.324673 
L 137.168713 238.676442 
L 137.900117 238.294372 
L 138.875323 238.06509 
L 141.069537 237.983908 
L 141.55714 238.037792 
L 152.284409 241.485037 
L 163.011677 244.698446 
L 173.982746 247.750856 
L 185.197618 250.641654 
L 196.900092 253.428978 
L 209.090169 256.103291 
L 221.76785 258.65727 
L 235.176935 261.128526 
L 249.073623 263.462965 
L 263.701716 265.694972 
L 279.305015 267.846813 
L 295.639719 269.873237 
L 305.879384 271.036998 
L 305.879384 271.036998 
" clip-path="url(#p8a155db976)" style="fill: none; stroke: #ff7f0e; stroke-opacity: 0.5; stroke-width: 1.5; stroke-linecap: square"/>
   </g>
   <g id="line2d_72">
    <path d="M 62.321637 254.208035 
L 305.879384 254.208035 
L 305.879384 254.208035 
" clip-path="url(#p8a155db976)" style="fill: none; stroke-dasharray: 5.55,2.4; stroke-dashoffset: 0; stroke: #808080; stroke-width: 1.5"/>
   </g>
   <g id="patch_27">
    <path d="M 50.14375 314.918125 
L 50.14375 226.918125 
" style="fill: none; stroke: #000000; stroke-width: 0.8; stroke-linejoin: miter; stroke-linecap: square"/>
   </g>
   <g id="patch_28">
    <path d="M 318.057271 314.918125 
L 318.057271 226.918125 
" style="fill: none; stroke: #000000; stroke-width: 0.8; stroke-linejoin: miter; stroke-linecap: square"/>
   </g>
   <g id="patch_29">
    <path d="M 50.14375 314.918125 
L 318.057271 314.918125 
" style="fill: none; stroke: #000000; stroke-width: 0.8; stroke-linejoin: miter; stroke-linecap: square"/>
   </g>
   <g id="patch_30">
    <path d="M 50.14375 226.918125 
L 318.057271 226.918125 
" style="fill: none; stroke: #000000; stroke-width: 0.8; stroke-linejoin: miter; stroke-linecap: square"/>
   </g>
   <g id="text_38">
    <!-- $\frac{d}{dt}\hat{x}(t) = f(t,\tilde{x}(t))\frac{\hat{x}(t)}{\tilde{x}(t)} + g(t,\hat{x}(t), u(t))$ -->
    <g transform="translate(141.55714 302.436377) scale(0.1 -0.1)">
     <use xlink:href="#DejaVuSans-Oblique-64" transform="translate(14 44.94375) scale(0.7)"/>
     <use xlink:href="#DejaVuSans-Oblique-64" transform="translate(0 -40.490625) scale(0.7)"/>
     <use xlink:href="#DejaVuSans-Oblique-74" transform="translate(44.433594 -40.490625) scale(0.7)"/>
     <use xlink:href="#DejaVuSans-302" transform="translate(146.75293 11.339062)"/>
     <use xlink:href="#DejaVuSans-Oblique-78" transform="translate(84.379883 0.151562)"/>
     <use xlink:href="#DejaVuSans-28" transform="translate(143.55957 0.151562)"/>
     <use xlink:href="#DejaVuSans-Oblique-74" transform="translate(182.573242 0.151562)"/>
     <use xlink:href="#DejaVuSans-29" transform="translate(221.782227 0.151562)"/>
     <use xlink:href="#DejaVuSans-3d" transform="translate(280.27832 0.151562)"/>
     <use xlink:href="#DejaVuSans-Oblique-66" transform="translate(383.549805 0.151562)"/>
     <use xlink:href="#DejaVuSans-28" transform="translate(418.754883 0.151562)"/>
     <use xlink:href="#DejaVuSans-Oblique-74" transform="translate(457.768555 0.151562)"/>
     <use xlink:href="#DejaVuSans-2c" transform="translate(496.977539 0.151562)"/>
     <use xlink:href="#DejaVuSans-303" transform="translate(610.260742 3.417187)"/>
     <use xlink:href="#DejaVuSans-Oblique-78" transform="translate(548.24707 0.151562)"/>
     <use xlink:href="#DejaVuSans-28" transform="translate(607.426758 0.151562)"/>
     <use xlink:href="#DejaVuSans-Oblique-74" transform="translate(646.44043 0.151562)"/>
     <use xlink:href="#DejaVuSans-29" transform="translate(685.649414 0.151562)"/>
     <use xlink:href="#DejaVuSans-29" transform="translate(724.663086 0.151562)"/>
     <use xlink:href="#DejaVuSans-302" transform="translate(807.439453 61.007812) scale(0.7)"/>
     <use xlink:href="#DejaVuSans-Oblique-78" transform="translate(763.676758 53.179688) scale(0.7)"/>
     <use xlink:href="#DejaVuSans-28" transform="translate(805.102539 53.179688) scale(0.7)"/>
     <use xlink:href="#DejaVuSans-Oblique-74" transform="translate(832.412109 53.179688) scale(0.7)"/>
     <use xlink:href="#DejaVuSans-29" transform="translate(859.858398 53.179688) scale(0.7)"/>
     <use xlink:href="#DejaVuSans-303" transform="translate(806.876953 -41.671875) scale(0.7)"/>
     <use xlink:href="#DejaVuSans-Oblique-78" transform="translate(763.676758 -43.96875) scale(0.7)"/>
     <use xlink:href="#DejaVuSans-28" transform="translate(805.102539 -43.96875) scale(0.7)"/>
     <use xlink:href="#DejaVuSans-Oblique-74" transform="translate(832.412109 -43.96875) scale(0.7)"/>
     <use xlink:href="#DejaVuSans-29" transform="translate(859.858398 -43.96875) scale(0.7)"/>
     <use xlink:href="#DejaVuSans-2b" transform="translate(919.150391 0.151562)"/>
     <use xlink:href="#DejaVuSans-Oblique-67" transform="translate(1022.421875 0.151562)"/>
     <use xlink:href="#DejaVuSans-28" transform="translate(1085.898438 0.151562)"/>
     <use xlink:href="#DejaVuSans-Oblique-74" transform="translate(1124.912109 0.151562)"/>
     <use xlink:href="#DejaVuSans-2c" transform="translate(1164.121094 0.151562)"/>
     <use xlink:href="#DejaVuSans-302" transform="translate(1277.763672 11.339062)"/>
     <use xlink:href="#DejaVuSans-Oblique-78" transform="translate(1215.390625 0.151562)"/>
     <use xlink:href="#DejaVuSans-28" transform="translate(1274.570312 0.151562)"/>
     <use xlink:href="#DejaVuSans-Oblique-74" transform="translate(1313.583984 0.151562)"/>
     <use xlink:href="#DejaVuSans-29" transform="translate(1352.792969 0.151562)"/>
     <use xlink:href="#DejaVuSans-2c" transform="translate(1391.806641 0.151562)"/>
     <use xlink:href="#DejaVuSans-Oblique-75" transform="translate(1443.076172 0.151562)"/>
     <use xlink:href="#DejaVuSans-28" transform="translate(1506.455078 0.151562)"/>
     <use xlink:href="#DejaVuSans-Oblique-74" transform="translate(1545.46875 0.151562)"/>
     <use xlink:href="#DejaVuSans-29" transform="translate(1584.677734 0.151562)"/>
     <use xlink:href="#DejaVuSans-29" transform="translate(1623.691406 0.151562)"/>
     <path d="M 0 18.948437 
L 0 25.198437 
L 71.879883 25.198437 
L 71.879883 18.948437 
L 0 18.948437 
z
"/>
     <path d="M 763.676758 18.948438 
L 763.676758 25.198438 
L 887.167969 25.198438 
L 887.167969 18.948438 
L 763.676758 18.948438 
z
"/>
    </g>
   </g>
   <g id="legend_5">
    <g id="patch_31">
     <path d="M 57.14375 278.9525 
L 107.64375 278.9525 
Q 109.64375 278.9525 109.64375 276.9525 
L 109.64375 233.918125 
Q 109.64375 231.918125 107.64375 231.918125 
L 57.14375 231.918125 
Q 55.14375 231.918125 55.14375 233.918125 
L 55.14375 276.9525 
Q 55.14375 278.9525 57.14375 278.9525 
z
" style="fill: #ffffff; opacity: 0.8; stroke: #cccccc; stroke-linejoin: miter"/>
    </g>
    <g id="line2d_73">
     <path d="M 59.14375 240.016562 
L 69.14375 240.016562 
L 79.14375 240.016562 
" style="fill: none; stroke: #1f77b4; stroke-width: 2; stroke-linecap: square"/>
    </g>
    <g id="text_39">
     <!-- $I$ -->
     <g transform="translate(87.14375 243.516562) scale(0.1 -0.1)">
      <use xlink:href="#DejaVuSans-Oblique-49" transform="translate(0 0.09375)"/>
     </g>
    </g>
    <g id="line2d_74">
     <path d="M 59.14375 254.694687 
L 69.14375 254.694687 
L 79.14375 254.694687 
" style="fill: none; stroke: #ff7f0e; stroke-opacity: 0.5; stroke-width: 1.5; stroke-linecap: square"/>
    </g>
    <g id="text_40">
     <!-- $u$ -->
     <g transform="translate(87.14375 258.194687) scale(0.1 -0.1)">
      <use xlink:href="#DejaVuSans-Oblique-75" transform="translate(0 0.3125)"/>
     </g>
    </g>
    <g id="line2d_75">
     <path d="M 59.14375 269.372813 
L 69.14375 269.372813 
L 79.14375 269.372813 
" style="fill: none; stroke-dasharray: 5.55,2.4; stroke-dashoffset: 0; stroke: #808080; stroke-width: 1.5"/>
    </g>
    <g id="text_41">
     <!-- $I_{\max}$ -->
     <g transform="translate(87.14375 272.872813) scale(0.1 -0.1)">
      <use xlink:href="#DejaVuSans-Oblique-49" transform="translate(0 0.09375)"/>
      <use xlink:href="#DejaVuSans-6d" transform="translate(29.492188 -16.3125) scale(0.7)"/>
      <use xlink:href="#DejaVuSans-61" transform="translate(97.680664 -16.3125) scale(0.7)"/>
      <use xlink:href="#DejaVuSans-78" transform="translate(140.576172 -16.3125) scale(0.7)"/>
     </g>
    </g>
   </g>
  </g>
  <g id="axes_6">
   <g id="patch_32">
    <path d="M 348.79375 314.918125 
L 616.707271 314.918125 
L 616.707271 226.918125 
L 348.79375 226.918125 
z
" style="fill: #ffffff"/>
   </g>
   <g id="matplotlib.axis_11">
    <g id="xtick_31">
     <g id="line2d_76">
      <g>
       <use xlink:href="#me203091b42" x="360.971637" y="314.918125" style="stroke: #000000; stroke-width: 0.8"/>
      </g>
     </g>
     <g id="text_42">
      <!-- 0 -->
      <g transform="translate(357.790387 329.516563) scale(0.1 -0.1)">
       <use xlink:href="#DejaVuSans-30"/>
      </g>
     </g>
    </g>
    <g id="xtick_32">
     <g id="line2d_77">
      <g>
       <use xlink:href="#me203091b42" x="409.731947" y="314.918125" style="stroke: #000000; stroke-width: 0.8"/>
      </g>
     </g>
     <g id="text_43">
      <!-- 200 -->
      <g transform="translate(400.188197 329.516563) scale(0.1 -0.1)">
       <use xlink:href="#DejaVuSans-32"/>
       <use xlink:href="#DejaVuSans-30" x="63.623047"/>
       <use xlink:href="#DejaVuSans-30" x="127.246094"/>
      </g>
     </g>
    </g>
    <g id="xtick_33">
     <g id="line2d_78">
      <g>
       <use xlink:href="#me203091b42" x="458.492257" y="314.918125" style="stroke: #000000; stroke-width: 0.8"/>
      </g>
     </g>
     <g id="text_44">
      <!-- 400 -->
      <g transform="translate(448.948507 329.516563) scale(0.1 -0.1)">
       <use xlink:href="#DejaVuSans-34"/>
       <use xlink:href="#DejaVuSans-30" x="63.623047"/>
       <use xlink:href="#DejaVuSans-30" x="127.246094"/>
      </g>
     </g>
    </g>
    <g id="xtick_34">
     <g id="line2d_79">
      <g>
       <use xlink:href="#me203091b42" x="507.252566" y="314.918125" style="stroke: #000000; stroke-width: 0.8"/>
      </g>
     </g>
     <g id="text_45">
      <!-- 600 -->
      <g transform="translate(497.708816 329.516563) scale(0.1 -0.1)">
       <use xlink:href="#DejaVuSans-36"/>
       <use xlink:href="#DejaVuSans-30" x="63.623047"/>
       <use xlink:href="#DejaVuSans-30" x="127.246094"/>
      </g>
     </g>
    </g>
    <g id="xtick_35">
     <g id="line2d_80">
      <g>
       <use xlink:href="#me203091b42" x="556.012876" y="314.918125" style="stroke: #000000; stroke-width: 0.8"/>
      </g>
     </g>
     <g id="text_46">
      <!-- 800 -->
      <g transform="translate(546.469126 329.516563) scale(0.1 -0.1)">
       <use xlink:href="#DejaVuSans-38"/>
       <use xlink:href="#DejaVuSans-30" x="63.623047"/>
       <use xlink:href="#DejaVuSans-30" x="127.246094"/>
      </g>
     </g>
    </g>
    <g id="xtick_36">
     <g id="line2d_81">
      <g>
       <use xlink:href="#me203091b42" x="604.773186" y="314.918125" style="stroke: #000000; stroke-width: 0.8"/>
      </g>
     </g>
     <g id="text_47">
      <!-- 1000 -->
      <g transform="translate(592.048186 329.516563) scale(0.1 -0.1)">
       <use xlink:href="#DejaVuSans-31"/>
       <use xlink:href="#DejaVuSans-30" x="63.623047"/>
       <use xlink:href="#DejaVuSans-30" x="127.246094"/>
       <use xlink:href="#DejaVuSans-30" x="190.869141"/>
      </g>
     </g>
    </g>
    <g id="text_48">
     <!-- time (days) -->
     <g transform="translate(454.161448 343.194687) scale(0.1 -0.1)">
      <use xlink:href="#DejaVuSans-74"/>
      <use xlink:href="#DejaVuSans-69" x="39.208984"/>
      <use xlink:href="#DejaVuSans-6d" x="66.992188"/>
      <use xlink:href="#DejaVuSans-65" x="164.404297"/>
      <use xlink:href="#DejaVuSans-20" x="225.927734"/>
      <use xlink:href="#DejaVuSans-28" x="257.714844"/>
      <use xlink:href="#DejaVuSans-64" x="296.728516"/>
      <use xlink:href="#DejaVuSans-61" x="360.205078"/>
      <use xlink:href="#DejaVuSans-79" x="421.484375"/>
      <use xlink:href="#DejaVuSans-73" x="480.664062"/>
      <use xlink:href="#DejaVuSans-29" x="532.763672"/>
     </g>
    </g>
   </g>
   <g id="matplotlib.axis_12">
    <g id="ytick_16">
     <g id="line2d_82">
      <g>
       <use xlink:href="#m0f48486263" x="348.79375" y="310.947261" style="stroke: #000000; stroke-width: 0.8"/>
      </g>
     </g>
    </g>
    <g id="ytick_17">
     <g id="line2d_83">
      <g>
       <use xlink:href="#m0f48486263" x="348.79375" y="282.577648" style="stroke: #000000; stroke-width: 0.8"/>
      </g>
     </g>
    </g>
    <g id="ytick_18">
     <g id="line2d_84">
      <g>
       <use xlink:href="#m0f48486263" x="348.79375" y="254.208035" style="stroke: #000000; stroke-width: 0.8"/>
      </g>
     </g>
    </g>
   </g>
   <g id="line2d_85">
    <path d="M 360.971637 310.918125 
L 378.281547 310.754118 
L 386.5708 310.46953 
L 392.178236 310.065859 
L 396.322862 309.561434 
L 399.736083 308.935886 
L 402.661702 308.179723 
L 405.099718 307.337114 
L 407.293931 306.362229 
L 409.244344 305.277649 
L 411.194756 303.937862 
L 412.901367 302.509867 
L 414.607978 300.793173 
L 416.314589 298.730409 
L 417.777398 296.635426 
L 419.240207 294.185741 
L 420.703017 291.322993 
L 422.165826 287.97984 
L 423.628635 284.078819 
L 425.091445 279.531135 
L 426.554254 274.235433 
L 428.017063 268.076607 
L 429.967475 259.354648 
L 430.69888 257.283908 
L 431.186483 256.464775 
L 431.674086 256.02437 
L 432.161689 255.852691 
L 434.355903 255.602842 
L 436.793919 254.750369 
L 437.769125 254.785483 
L 439.963339 255.004226 
L 442.401354 254.824195 
L 444.595568 254.854735 
L 447.521187 254.846653 
L 452.641019 254.826798 
L 477.752579 254.717221 
L 600.384758 254.332969 
L 604.529384 254.323568 
L 604.529384 254.323568 
" clip-path="url(#p85ed76069b)" style="fill: none; stroke: #1f77b4; stroke-width: 2; stroke-linecap: square"/>
   </g>
   <g id="line2d_86">
    <path d="M 360.971637 308.110299 
L 428.992269 308.110299 
L 429.479872 296.290893 
L 430.211277 278.758771 
L 431.430285 248.603744 
L 431.917888 240.99764 
L 432.405491 236.544889 
L 432.649293 235.586742 
L 432.893094 235.232868 
L 433.136896 235.511474 
L 433.624499 237.148017 
L 434.599705 241.100753 
L 435.087308 241.983226 
L 435.33111 242.023051 
L 435.574911 241.809067 
L 436.062514 240.765484 
L 437.769125 235.86233 
L 438.012927 235.60789 
L 438.256728 235.522549 
L 438.50053 235.597177 
L 438.988133 236.108728 
L 439.963339 237.93794 
L 440.694744 239.114306 
L 441.182347 239.545736 
L 441.66995 239.672511 
L 442.157553 239.54817 
L 443.620362 238.879169 
L 444.107965 238.872302 
L 444.83937 239.149567 
L 446.058378 240.018674 
L 447.033584 240.600659 
L 448.00879 240.882729 
L 450.446806 241.288924 
L 452.397218 242.063044 
L 454.103829 242.625106 
L 458.248455 243.828007 
L 462.14928 244.972286 
L 476.28977 248.905979 
L 487.748442 251.814803 
L 498.231909 254.280671 
L 509.202979 256.676216 
L 523.343468 259.507384 
L 536.021149 261.821909 
L 550.40544 264.215864 
L 567.227747 266.735553 
L 586.488069 269.290882 
L 603.310376 271.270758 
L 604.529384 271.405308 
L 604.529384 271.405308 
" clip-path="url(#p85ed76069b)" style="fill: none; stroke: #ff7f0e; stroke-opacity: 0.5; stroke-width: 1.5; stroke-linecap: square"/>
   </g>
   <g id="line2d_87">
    <path d="M 360.971637 254.208035 
L 604.529384 254.208035 
L 604.529384 254.208035 
" clip-path="url(#p85ed76069b)" style="fill: none; stroke-dasharray: 5.55,2.4; stroke-dashoffset: 0; stroke: #808080; stroke-width: 1.5"/>
   </g>
   <g id="patch_33">
    <path d="M 348.79375 314.918125 
L 348.79375 226.918125 
" style="fill: none; stroke: #000000; stroke-width: 0.8; stroke-linejoin: miter; stroke-linecap: square"/>
   </g>
   <g id="patch_34">
    <path d="M 616.707271 314.918125 
L 616.707271 226.918125 
" style="fill: none; stroke: #000000; stroke-width: 0.8; stroke-linejoin: miter; stroke-linecap: square"/>
   </g>
   <g id="patch_35">
    <path d="M 348.79375 314.918125 
L 616.707271 314.918125 
" style="fill: none; stroke: #000000; stroke-width: 0.8; stroke-linejoin: miter; stroke-linecap: square"/>
   </g>
   <g id="patch_36">
    <path d="M 348.79375 226.918125 
L 616.707271 226.918125 
" style="fill: none; stroke: #000000; stroke-width: 0.8; stroke-linejoin: miter; stroke-linecap: square"/>
   </g>
   <g id="text_49">
    <!-- $\frac{d}{dt}\hat{x}(t) = f(t,\tilde{x}(t))\frac{\hat{x}(t)}{\tilde{x}(t)} + g(t,\hat{x}(t), u(t))$ -->
    <g transform="translate(440.20714 302.436377) scale(0.1 -0.1)">
     <use xlink:href="#DejaVuSans-Oblique-64" transform="translate(14 44.94375) scale(0.7)"/>
     <use xlink:href="#DejaVuSans-Oblique-64" transform="translate(0 -40.490625) scale(0.7)"/>
     <use xlink:href="#DejaVuSans-Oblique-74" transform="translate(44.433594 -40.490625) scale(0.7)"/>
     <use xlink:href="#DejaVuSans-302" transform="translate(146.75293 11.339062)"/>
     <use xlink:href="#DejaVuSans-Oblique-78" transform="translate(84.379883 0.151562)"/>
     <use xlink:href="#DejaVuSans-28" transform="translate(143.55957 0.151562)"/>
     <use xlink:href="#DejaVuSans-Oblique-74" transform="translate(182.573242 0.151562)"/>
     <use xlink:href="#DejaVuSans-29" transform="translate(221.782227 0.151562)"/>
     <use xlink:href="#DejaVuSans-3d" transform="translate(280.27832 0.151562)"/>
     <use xlink:href="#DejaVuSans-Oblique-66" transform="translate(383.549805 0.151562)"/>
     <use xlink:href="#DejaVuSans-28" transform="translate(418.754883 0.151562)"/>
     <use xlink:href="#DejaVuSans-Oblique-74" transform="translate(457.768555 0.151562)"/>
     <use xlink:href="#DejaVuSans-2c" transform="translate(496.977539 0.151562)"/>
     <use xlink:href="#DejaVuSans-303" transform="translate(610.260742 3.417187)"/>
     <use xlink:href="#DejaVuSans-Oblique-78" transform="translate(548.24707 0.151562)"/>
     <use xlink:href="#DejaVuSans-28" transform="translate(607.426758 0.151562)"/>
     <use xlink:href="#DejaVuSans-Oblique-74" transform="translate(646.44043 0.151562)"/>
     <use xlink:href="#DejaVuSans-29" transform="translate(685.649414 0.151562)"/>
     <use xlink:href="#DejaVuSans-29" transform="translate(724.663086 0.151562)"/>
     <use xlink:href="#DejaVuSans-302" transform="translate(807.439453 61.007812) scale(0.7)"/>
     <use xlink:href="#DejaVuSans-Oblique-78" transform="translate(763.676758 53.179688) scale(0.7)"/>
     <use xlink:href="#DejaVuSans-28" transform="translate(805.102539 53.179688) scale(0.7)"/>
     <use xlink:href="#DejaVuSans-Oblique-74" transform="translate(832.412109 53.179688) scale(0.7)"/>
     <use xlink:href="#DejaVuSans-29" transform="translate(859.858398 53.179688) scale(0.7)"/>
     <use xlink:href="#DejaVuSans-303" transform="translate(806.876953 -41.671875) scale(0.7)"/>
     <use xlink:href="#DejaVuSans-Oblique-78" transform="translate(763.676758 -43.96875) scale(0.7)"/>
     <use xlink:href="#DejaVuSans-28" transform="translate(805.102539 -43.96875) scale(0.7)"/>
     <use xlink:href="#DejaVuSans-Oblique-74" transform="translate(832.412109 -43.96875) scale(0.7)"/>
     <use xlink:href="#DejaVuSans-29" transform="translate(859.858398 -43.96875) scale(0.7)"/>
     <use xlink:href="#DejaVuSans-2b" transform="translate(919.150391 0.151562)"/>
     <use xlink:href="#DejaVuSans-Oblique-67" transform="translate(1022.421875 0.151562)"/>
     <use xlink:href="#DejaVuSans-28" transform="translate(1085.898438 0.151562)"/>
     <use xlink:href="#DejaVuSans-Oblique-74" transform="translate(1124.912109 0.151562)"/>
     <use xlink:href="#DejaVuSans-2c" transform="translate(1164.121094 0.151562)"/>
     <use xlink:href="#DejaVuSans-302" transform="translate(1277.763672 11.339062)"/>
     <use xlink:href="#DejaVuSans-Oblique-78" transform="translate(1215.390625 0.151562)"/>
     <use xlink:href="#DejaVuSans-28" transform="translate(1274.570312 0.151562)"/>
     <use xlink:href="#DejaVuSans-Oblique-74" transform="translate(1313.583984 0.151562)"/>
     <use xlink:href="#DejaVuSans-29" transform="translate(1352.792969 0.151562)"/>
     <use xlink:href="#DejaVuSans-2c" transform="translate(1391.806641 0.151562)"/>
     <use xlink:href="#DejaVuSans-Oblique-75" transform="translate(1443.076172 0.151562)"/>
     <use xlink:href="#DejaVuSans-28" transform="translate(1506.455078 0.151562)"/>
     <use xlink:href="#DejaVuSans-Oblique-74" transform="translate(1545.46875 0.151562)"/>
     <use xlink:href="#DejaVuSans-29" transform="translate(1584.677734 0.151562)"/>
     <use xlink:href="#DejaVuSans-29" transform="translate(1623.691406 0.151562)"/>
     <path d="M 0 18.948437 
L 0 25.198437 
L 71.879883 25.198437 
L 71.879883 18.948437 
L 0 18.948437 
z
"/>
     <path d="M 763.676758 18.948438 
L 763.676758 25.198438 
L 887.167969 25.198438 
L 887.167969 18.948438 
L 763.676758 18.948438 
z
"/>
    </g>
   </g>
   <g id="legend_6">
    <g id="patch_37">
     <path d="M 355.79375 278.9525 
L 406.29375 278.9525 
Q 408.29375 278.9525 408.29375 276.9525 
L 408.29375 233.918125 
Q 408.29375 231.918125 406.29375 231.918125 
L 355.79375 231.918125 
Q 353.79375 231.918125 353.79375 233.918125 
L 353.79375 276.9525 
Q 353.79375 278.9525 355.79375 278.9525 
z
" style="fill: #ffffff; opacity: 0.8; stroke: #cccccc; stroke-linejoin: miter"/>
    </g>
    <g id="line2d_88">
     <path d="M 357.79375 240.016562 
L 367.79375 240.016562 
L 377.79375 240.016562 
" style="fill: none; stroke: #1f77b4; stroke-width: 2; stroke-linecap: square"/>
    </g>
    <g id="text_50">
     <!-- $I$ -->
     <g transform="translate(385.79375 243.516562) scale(0.1 -0.1)">
      <use xlink:href="#DejaVuSans-Oblique-49" transform="translate(0 0.09375)"/>
     </g>
    </g>
    <g id="line2d_89">
     <path d="M 357.79375 254.694687 
L 367.79375 254.694687 
L 377.79375 254.694687 
" style="fill: none; stroke: #ff7f0e; stroke-opacity: 0.5; stroke-width: 1.5; stroke-linecap: square"/>
    </g>
    <g id="text_51">
     <!-- $u$ -->
     <g transform="translate(385.79375 258.194687) scale(0.1 -0.1)">
      <use xlink:href="#DejaVuSans-Oblique-75" transform="translate(0 0.3125)"/>
     </g>
    </g>
    <g id="line2d_90">
     <path d="M 357.79375 269.372813 
L 367.79375 269.372813 
L 377.79375 269.372813 
" style="fill: none; stroke-dasharray: 5.55,2.4; stroke-dashoffset: 0; stroke: #808080; stroke-width: 1.5"/>
    </g>
    <g id="text_52">
     <!-- $I_{\max}$ -->
     <g transform="translate(385.79375 272.872813) scale(0.1 -0.1)">
      <use xlink:href="#DejaVuSans-Oblique-49" transform="translate(0 0.09375)"/>
      <use xlink:href="#DejaVuSans-6d" transform="translate(29.492188 -16.3125) scale(0.7)"/>
      <use xlink:href="#DejaVuSans-61" transform="translate(97.680664 -16.3125) scale(0.7)"/>
      <use xlink:href="#DejaVuSans-78" transform="translate(140.576172 -16.3125) scale(0.7)"/>
     </g>
    </g>
   </g>
  </g>
 </g>
 <defs>
  <clipPath id="pb7cc1a3e7a">
   <rect x="50.14375" y="22.318125" width="267.913521" height="88"/>
  </clipPath>
  <clipPath id="pffbbf1c4a5">
   <rect x="348.79375" y="22.318125" width="267.913521" height="88"/>
  </clipPath>
  <clipPath id="p758f4d20ac">
   <rect x="50.14375" y="124.618125" width="267.913521" height="88"/>
  </clipPath>
  <clipPath id="pce65610b93">
   <rect x="348.79375" y="124.618125" width="267.913521" height="88"/>
  </clipPath>
  <clipPath id="p8a155db976">
   <rect x="50.14375" y="226.918125" width="267.913521" height="88"/>
  </clipPath>
  <clipPath id="p85ed76069b">
   <rect x="348.79375" y="226.918125" width="267.913521" height="88"/>
  </clipPath>
 </defs>
</svg>
