<?xml version="1.0" encoding="utf-8" standalone="no"?>
<!DOCTYPE svg PUBLIC "-//W3C//DTD SVG 1.1//EN"
  "http://www.w3.org/Graphics/SVG/1.1/DTD/svg11.dtd">
<svg xmlns:xlink="http://www.w3.org/1999/xlink" width="640.745625pt" height="350.16625pt" viewBox="0 0 640.745625 350.16625" xmlns="http://www.w3.org/2000/svg" version="1.1">
 <metadata>
  <rdf:RDF xmlns:dc="http://purl.org/dc/elements/1.1/" xmlns:cc="http://creativecommons.org/ns#" xmlns:rdf="http://www.w3.org/1999/02/22-rdf-syntax-ns#">
   <cc:Work>
    <dc:type rdf:resource="http://purl.org/dc/dcmitype/StillImage"/>
    <dc:date>2025-06-04T18:31:10.395470</dc:date>
    <dc:format>image/svg+xml</dc:format>
    <dc:creator>
     <cc:Agent>
      <dc:title>Matplotlib v3.6.3, https://matplotlib.org/</dc:title>
     </cc:Agent>
    </dc:creator>
   </cc:Work>
  </rdf:RDF>
 </metadata>
 <defs>
  <style type="text/css">*{stroke-linejoin: round; stroke-linecap: butt}</style>
 </defs>
 <g id="figure_1">
  <g id="patch_1">
   <path d="M 0 350.16625 
L 640.745625 350.16625 
L 640.745625 0 
L 0 0 
z
" style="fill: #ffffff"/>
  </g>
  <g id="axes_1">
   <g id="patch_2">
    <path d="M 36.465625 94.82875 
L 633.545625 94.82875 
L 633.545625 24.96 
L 36.465625 24.96 
z
" style="fill: #ffffff"/>
   </g>
   <g id="matplotlib.axis_1">
    <g id="xtick_1">
     <g id="line2d_1">
      <defs>
       <path id="m53147d12ba" d="M 0 0 
L 0 3.5 
" style="stroke: #000000; stroke-width: 0.8"/>
      </defs>
      <g>
       <use xlink:href="#m53147d12ba" x="63.605625" y="94.82875" style="stroke: #000000; stroke-width: 0.8"/>
      </g>
     </g>
    </g>
    <g id="xtick_2">
     <g id="line2d_2">
      <g>
       <use xlink:href="#m53147d12ba" x="172.274294" y="94.82875" style="stroke: #000000; stroke-width: 0.8"/>
      </g>
     </g>
    </g>
    <g id="xtick_3">
     <g id="line2d_3">
      <g>
       <use xlink:href="#m53147d12ba" x="280.942962" y="94.82875" style="stroke: #000000; stroke-width: 0.8"/>
      </g>
     </g>
    </g>
    <g id="xtick_4">
     <g id="line2d_4">
      <g>
       <use xlink:href="#m53147d12ba" x="389.611631" y="94.82875" style="stroke: #000000; stroke-width: 0.8"/>
      </g>
     </g>
    </g>
    <g id="xtick_5">
     <g id="line2d_5">
      <g>
       <use xlink:href="#m53147d12ba" x="498.2803" y="94.82875" style="stroke: #000000; stroke-width: 0.8"/>
      </g>
     </g>
    </g>
    <g id="xtick_6">
     <g id="line2d_6">
      <g>
       <use xlink:href="#m53147d12ba" x="606.948968" y="94.82875" style="stroke: #000000; stroke-width: 0.8"/>
      </g>
     </g>
    </g>
   </g>
   <g id="matplotlib.axis_2">
    <g id="ytick_1">
     <g id="line2d_7">
      <defs>
       <path id="mcc463e0f59" d="M 0 0 
L -3.5 0 
" style="stroke: #000000; stroke-width: 0.8"/>
      </defs>
      <g>
       <use xlink:href="#mcc463e0f59" x="36.465625" y="91.675685" style="stroke: #000000; stroke-width: 0.8"/>
      </g>
     </g>
     <g id="text_1">
      <!-- 0.00 -->
      <g transform="translate(7.2 95.474903) scale(0.1 -0.1)">
       <defs>
        <path id="DejaVuSans-30" d="M 2034 4250 
Q 1547 4250 1301 3770 
Q 1056 3291 1056 2328 
Q 1056 1369 1301 889 
Q 1547 409 2034 409 
Q 2525 409 2770 889 
Q 3016 1369 3016 2328 
Q 3016 3291 2770 3770 
Q 2525 4250 2034 4250 
z
M 2034 4750 
Q 2819 4750 3233 4129 
Q 3647 3509 3647 2328 
Q 3647 1150 3233 529 
Q 2819 -91 2034 -91 
Q 1250 -91 836 529 
Q 422 1150 422 2328 
Q 422 3509 836 4129 
Q 1250 4750 2034 4750 
z
" transform="scale(0.015625)"/>
        <path id="DejaVuSans-2e" d="M 684 794 
L 1344 794 
L 1344 0 
L 684 0 
L 684 794 
z
" transform="scale(0.015625)"/>
       </defs>
       <use xlink:href="#DejaVuSans-30"/>
       <use xlink:href="#DejaVuSans-2e" x="63.623047"/>
       <use xlink:href="#DejaVuSans-30" x="95.410156"/>
       <use xlink:href="#DejaVuSans-30" x="159.033203"/>
      </g>
     </g>
    </g>
    <g id="ytick_2">
     <g id="line2d_8">
      <g>
       <use xlink:href="#mcc463e0f59" x="36.465625" y="47.299816" style="stroke: #000000; stroke-width: 0.8"/>
      </g>
     </g>
     <g id="text_2">
      <!-- 0.02 -->
      <g transform="translate(7.2 51.099035) scale(0.1 -0.1)">
       <defs>
        <path id="DejaVuSans-32" d="M 1228 531 
L 3431 531 
L 3431 0 
L 469 0 
L 469 531 
Q 828 903 1448 1529 
Q 2069 2156 2228 2338 
Q 2531 2678 2651 2914 
Q 2772 3150 2772 3378 
Q 2772 3750 2511 3984 
Q 2250 4219 1831 4219 
Q 1534 4219 1204 4116 
Q 875 4013 500 3803 
L 500 4441 
Q 881 4594 1212 4672 
Q 1544 4750 1819 4750 
Q 2544 4750 2975 4387 
Q 3406 4025 3406 3419 
Q 3406 3131 3298 2873 
Q 3191 2616 2906 2266 
Q 2828 2175 2409 1742 
Q 1991 1309 1228 531 
z
" transform="scale(0.015625)"/>
       </defs>
       <use xlink:href="#DejaVuSans-30"/>
       <use xlink:href="#DejaVuSans-2e" x="63.623047"/>
       <use xlink:href="#DejaVuSans-30" x="95.410156"/>
       <use xlink:href="#DejaVuSans-32" x="159.033203"/>
      </g>
     </g>
    </g>
   </g>
   <g id="line2d_9">
    <path d="M 63.605625 91.652898 
L 105.443062 91.498448 
L 124.460079 91.225482 
L 136.956976 90.845122 
L 146.737157 90.334682 
L 154.343963 89.729582 
L 160.864083 88.998317 
L 166.297517 88.183684 
L 171.187607 87.241469 
L 175.534354 86.193619 
L 179.337757 85.076781 
L 183.141161 83.734151 
L 186.944564 82.130588 
L 190.204624 80.534343 
L 193.464684 78.720776 
L 197.268087 76.328051 
L 201.071491 73.660734 
L 205.961581 69.939422 
L 213.568388 64.137949 
L 216.828448 61.958945 
L 219.545165 60.406808 
L 222.261881 59.144756 
L 224.435255 58.360557 
L 226.608628 57.778081 
L 228.782001 57.388519 
L 231.498718 57.147183 
L 234.215435 57.1377 
L 237.475495 57.362797 
L 241.822242 57.927836 
L 249.972392 59.299277 
L 258.122542 60.573911 
L 264.642662 61.366643 
L 271.706126 61.985986 
L 279.312932 62.419854 
L 288.549769 62.714063 
L 301.590009 62.883765 
L 449.379399 63.992866 
L 574.348368 64.851741 
L 606.405625 65.038453 
L 606.405625 65.038453 
" clip-path="url(#pf1b1ddf19b)" style="fill: none; stroke: #1f77b4; stroke-width: 3; stroke-linecap: square"/>
   </g>
   <g id="line2d_10">
    <path d="M 63.605625 89.456891 
L 184.227847 89.416231 
L 187.487907 88.540094 
L 190.204624 87.579954 
L 192.921341 86.345643 
L 195.094714 85.13055 
L 197.268087 83.679956 
L 199.441461 81.962032 
L 201.614834 79.94936 
L 203.788208 77.620816 
L 205.961581 74.964411 
L 208.134954 71.981981 
L 210.851671 67.826517 
L 214.111731 62.326934 
L 224.978598 43.346687 
L 227.151971 40.129632 
L 229.325345 37.279662 
L 231.498718 34.832422 
L 233.672091 32.801527 
L 235.302121 31.54843 
L 236.932152 30.517493 
L 238.562182 29.696046 
L 240.192212 29.06855 
L 242.365585 28.503064 
L 244.538958 28.207199 
L 246.712332 28.13723 
L 249.429048 28.30402 
L 252.689108 28.781262 
L 256.492512 29.587421 
L 263.012632 31.254631 
L 272.792812 33.735122 
L 279.312932 35.13525 
L 285.289709 36.198968 
L 291.809829 37.136453 
L 298.873293 37.934113 
L 307.566786 38.686974 
L 319.52034 39.47367 
L 343.427447 40.754775 
L 424.928948 44.881664 
L 465.679699 46.63643 
L 509.69051 48.305051 
L 557.504724 49.889603 
L 606.405625 51.297857 
L 606.405625 51.297857 
" clip-path="url(#pf1b1ddf19b)" style="fill: none; stroke: #ff7f0e; stroke-opacity: 0.3; stroke-width: 1.5; stroke-linecap: square"/>
   </g>
   <g id="line2d_11">
    <path d="M 36.465625 47.299816 
L 633.545625 47.299816 
" clip-path="url(#pf1b1ddf19b)" style="fill: none; stroke: #000000; stroke-opacity: 0.5; stroke-width: 1.5; stroke-linecap: square"/>
   </g>
   <g id="patch_3">
    <path d="M 36.465625 94.82875 
L 36.465625 24.96 
" style="fill: none; stroke: #000000; stroke-width: 0.8; stroke-linejoin: miter; stroke-linecap: square"/>
   </g>
   <g id="patch_4">
    <path d="M 633.545625 94.82875 
L 633.545625 24.96 
" style="fill: none; stroke: #000000; stroke-width: 0.8; stroke-linejoin: miter; stroke-linecap: square"/>
   </g>
   <g id="patch_5">
    <path d="M 36.465625 94.82875 
L 633.545625 94.82875 
" style="fill: none; stroke: #000000; stroke-width: 0.8; stroke-linejoin: miter; stroke-linecap: square"/>
   </g>
   <g id="patch_6">
    <path d="M 36.465625 24.96 
L 633.545625 24.96 
" style="fill: none; stroke: #000000; stroke-width: 0.8; stroke-linejoin: miter; stroke-linecap: square"/>
   </g>
   <g id="text_3">
    <!-- Translation Method: $\frac{d}{dt}\hat{x}(t) = f(t,\tilde{x}(t)) + g(t,\tilde{x}(t), u(t))$ -->
    <g transform="translate(181.465625 18.96) scale(0.12 -0.12)">
     <defs>
      <path id="DejaVuSans-54" d="M -19 4666 
L 3928 4666 
L 3928 4134 
L 2272 4134 
L 2272 0 
L 1638 0 
L 1638 4134 
L -19 4134 
L -19 4666 
z
" transform="scale(0.015625)"/>
      <path id="DejaVuSans-72" d="M 2631 2963 
Q 2534 3019 2420 3045 
Q 2306 3072 2169 3072 
Q 1681 3072 1420 2755 
Q 1159 2438 1159 1844 
L 1159 0 
L 581 0 
L 581 3500 
L 1159 3500 
L 1159 2956 
Q 1341 3275 1631 3429 
Q 1922 3584 2338 3584 
Q 2397 3584 2469 3576 
Q 2541 3569 2628 3553 
L 2631 2963 
z
" transform="scale(0.015625)"/>
      <path id="DejaVuSans-61" d="M 2194 1759 
Q 1497 1759 1228 1600 
Q 959 1441 959 1056 
Q 959 750 1161 570 
Q 1363 391 1709 391 
Q 2188 391 2477 730 
Q 2766 1069 2766 1631 
L 2766 1759 
L 2194 1759 
z
M 3341 1997 
L 3341 0 
L 2766 0 
L 2766 531 
Q 2569 213 2275 61 
Q 1981 -91 1556 -91 
Q 1019 -91 701 211 
Q 384 513 384 1019 
Q 384 1609 779 1909 
Q 1175 2209 1959 2209 
L 2766 2209 
L 2766 2266 
Q 2766 2663 2505 2880 
Q 2244 3097 1772 3097 
Q 1472 3097 1187 3025 
Q 903 2953 641 2809 
L 641 3341 
Q 956 3463 1253 3523 
Q 1550 3584 1831 3584 
Q 2591 3584 2966 3190 
Q 3341 2797 3341 1997 
z
" transform="scale(0.015625)"/>
      <path id="DejaVuSans-6e" d="M 3513 2113 
L 3513 0 
L 2938 0 
L 2938 2094 
Q 2938 2591 2744 2837 
Q 2550 3084 2163 3084 
Q 1697 3084 1428 2787 
Q 1159 2491 1159 1978 
L 1159 0 
L 581 0 
L 581 3500 
L 1159 3500 
L 1159 2956 
Q 1366 3272 1645 3428 
Q 1925 3584 2291 3584 
Q 2894 3584 3203 3211 
Q 3513 2838 3513 2113 
z
" transform="scale(0.015625)"/>
      <path id="DejaVuSans-73" d="M 2834 3397 
L 2834 2853 
Q 2591 2978 2328 3040 
Q 2066 3103 1784 3103 
Q 1356 3103 1142 2972 
Q 928 2841 928 2578 
Q 928 2378 1081 2264 
Q 1234 2150 1697 2047 
L 1894 2003 
Q 2506 1872 2764 1633 
Q 3022 1394 3022 966 
Q 3022 478 2636 193 
Q 2250 -91 1575 -91 
Q 1294 -91 989 -36 
Q 684 19 347 128 
L 347 722 
Q 666 556 975 473 
Q 1284 391 1588 391 
Q 1994 391 2212 530 
Q 2431 669 2431 922 
Q 2431 1156 2273 1281 
Q 2116 1406 1581 1522 
L 1381 1569 
Q 847 1681 609 1914 
Q 372 2147 372 2553 
Q 372 3047 722 3315 
Q 1072 3584 1716 3584 
Q 2034 3584 2315 3537 
Q 2597 3491 2834 3397 
z
" transform="scale(0.015625)"/>
      <path id="DejaVuSans-6c" d="M 603 4863 
L 1178 4863 
L 1178 0 
L 603 0 
L 603 4863 
z
" transform="scale(0.015625)"/>
      <path id="DejaVuSans-74" d="M 1172 4494 
L 1172 3500 
L 2356 3500 
L 2356 3053 
L 1172 3053 
L 1172 1153 
Q 1172 725 1289 603 
Q 1406 481 1766 481 
L 2356 481 
L 2356 0 
L 1766 0 
Q 1100 0 847 248 
Q 594 497 594 1153 
L 594 3053 
L 172 3053 
L 172 3500 
L 594 3500 
L 594 4494 
L 1172 4494 
z
" transform="scale(0.015625)"/>
      <path id="DejaVuSans-69" d="M 603 3500 
L 1178 3500 
L 1178 0 
L 603 0 
L 603 3500 
z
M 603 4863 
L 1178 4863 
L 1178 4134 
L 603 4134 
L 603 4863 
z
" transform="scale(0.015625)"/>
      <path id="DejaVuSans-6f" d="M 1959 3097 
Q 1497 3097 1228 2736 
Q 959 2375 959 1747 
Q 959 1119 1226 758 
Q 1494 397 1959 397 
Q 2419 397 2687 759 
Q 2956 1122 2956 1747 
Q 2956 2369 2687 2733 
Q 2419 3097 1959 3097 
z
M 1959 3584 
Q 2709 3584 3137 3096 
Q 3566 2609 3566 1747 
Q 3566 888 3137 398 
Q 2709 -91 1959 -91 
Q 1206 -91 779 398 
Q 353 888 353 1747 
Q 353 2609 779 3096 
Q 1206 3584 1959 3584 
z
" transform="scale(0.015625)"/>
      <path id="DejaVuSans-20" transform="scale(0.015625)"/>
      <path id="DejaVuSans-4d" d="M 628 4666 
L 1569 4666 
L 2759 1491 
L 3956 4666 
L 4897 4666 
L 4897 0 
L 4281 0 
L 4281 4097 
L 3078 897 
L 2444 897 
L 1241 4097 
L 1241 0 
L 628 0 
L 628 4666 
z
" transform="scale(0.015625)"/>
      <path id="DejaVuSans-65" d="M 3597 1894 
L 3597 1613 
L 953 1613 
Q 991 1019 1311 708 
Q 1631 397 2203 397 
Q 2534 397 2845 478 
Q 3156 559 3463 722 
L 3463 178 
Q 3153 47 2828 -22 
Q 2503 -91 2169 -91 
Q 1331 -91 842 396 
Q 353 884 353 1716 
Q 353 2575 817 3079 
Q 1281 3584 2069 3584 
Q 2775 3584 3186 3129 
Q 3597 2675 3597 1894 
z
M 3022 2063 
Q 3016 2534 2758 2815 
Q 2500 3097 2075 3097 
Q 1594 3097 1305 2825 
Q 1016 2553 972 2059 
L 3022 2063 
z
" transform="scale(0.015625)"/>
      <path id="DejaVuSans-68" d="M 3513 2113 
L 3513 0 
L 2938 0 
L 2938 2094 
Q 2938 2591 2744 2837 
Q 2550 3084 2163 3084 
Q 1697 3084 1428 2787 
Q 1159 2491 1159 1978 
L 1159 0 
L 581 0 
L 581 4863 
L 1159 4863 
L 1159 2956 
Q 1366 3272 1645 3428 
Q 1925 3584 2291 3584 
Q 2894 3584 3203 3211 
Q 3513 2838 3513 2113 
z
" transform="scale(0.015625)"/>
      <path id="DejaVuSans-64" d="M 2906 2969 
L 2906 4863 
L 3481 4863 
L 3481 0 
L 2906 0 
L 2906 525 
Q 2725 213 2448 61 
Q 2172 -91 1784 -91 
Q 1150 -91 751 415 
Q 353 922 353 1747 
Q 353 2572 751 3078 
Q 1150 3584 1784 3584 
Q 2172 3584 2448 3432 
Q 2725 3281 2906 2969 
z
M 947 1747 
Q 947 1113 1208 752 
Q 1469 391 1925 391 
Q 2381 391 2643 752 
Q 2906 1113 2906 1747 
Q 2906 2381 2643 2742 
Q 2381 3103 1925 3103 
Q 1469 3103 1208 2742 
Q 947 2381 947 1747 
z
" transform="scale(0.015625)"/>
      <path id="DejaVuSans-3a" d="M 750 794 
L 1409 794 
L 1409 0 
L 750 0 
L 750 794 
z
M 750 3309 
L 1409 3309 
L 1409 2516 
L 750 2516 
L 750 3309 
z
" transform="scale(0.015625)"/>
      <path id="DejaVuSans-Oblique-64" d="M 2675 525 
Q 2444 222 2128 65 
Q 1813 -91 1428 -91 
Q 903 -91 598 267 
Q 294 625 294 1247 
Q 294 1766 478 2236 
Q 663 2706 1013 3078 
Q 1244 3325 1534 3454 
Q 1825 3584 2144 3584 
Q 2481 3584 2739 3421 
Q 2997 3259 3138 2956 
L 3513 4863 
L 4091 4863 
L 3144 0 
L 2566 0 
L 2675 525 
z
M 891 1350 
Q 891 897 1095 644 
Q 1300 391 1663 391 
Q 1931 391 2161 520 
Q 2391 650 2566 903 
Q 2750 1166 2856 1509 
Q 2963 1853 2963 2188 
Q 2963 2622 2758 2865 
Q 2553 3109 2194 3109 
Q 1922 3109 1687 2981 
Q 1453 2853 1288 2613 
Q 1106 2353 998 2009 
Q 891 1666 891 1350 
z
" transform="scale(0.015625)"/>
      <path id="DejaVuSans-Oblique-74" d="M 2706 3500 
L 2619 3053 
L 1472 3053 
L 1100 1153 
Q 1081 1047 1072 975 
Q 1063 903 1063 863 
Q 1063 663 1183 572 
Q 1303 481 1569 481 
L 2150 481 
L 2053 0 
L 1503 0 
Q 991 0 739 200 
Q 488 400 488 806 
Q 488 878 497 964 
Q 506 1050 525 1153 
L 897 3053 
L 409 3053 
L 500 3500 
L 978 3500 
L 1172 4494 
L 1747 4494 
L 1556 3500 
L 2706 3500 
z
" transform="scale(0.015625)"/>
      <path id="DejaVuSans-302" d="M -1831 5119 
L -1369 5119 
L -603 3944 
L -1038 3944 
L -1600 4709 
L -2163 3944 
L -2597 3944 
L -1831 5119 
z
M -1600 3584 
L -1600 3584 
z
" transform="scale(0.015625)"/>
      <path id="DejaVuSans-Oblique-78" d="M 3841 3500 
L 2234 1784 
L 3219 0 
L 2559 0 
L 1819 1388 
L 531 0 
L -166 0 
L 1556 1844 
L 641 3500 
L 1300 3500 
L 1972 2234 
L 3144 3500 
L 3841 3500 
z
" transform="scale(0.015625)"/>
      <path id="DejaVuSans-28" d="M 1984 4856 
Q 1566 4138 1362 3434 
Q 1159 2731 1159 2009 
Q 1159 1288 1364 580 
Q 1569 -128 1984 -844 
L 1484 -844 
Q 1016 -109 783 600 
Q 550 1309 550 2009 
Q 550 2706 781 3412 
Q 1013 4119 1484 4856 
L 1984 4856 
z
" transform="scale(0.015625)"/>
      <path id="DejaVuSans-29" d="M 513 4856 
L 1013 4856 
Q 1481 4119 1714 3412 
Q 1947 2706 1947 2009 
Q 1947 1309 1714 600 
Q 1481 -109 1013 -844 
L 513 -844 
Q 928 -128 1133 580 
Q 1338 1288 1338 2009 
Q 1338 2731 1133 3434 
Q 928 4138 513 4856 
z
" transform="scale(0.015625)"/>
      <path id="DejaVuSans-3d" d="M 678 2906 
L 4684 2906 
L 4684 2381 
L 678 2381 
L 678 2906 
z
M 678 1631 
L 4684 1631 
L 4684 1100 
L 678 1100 
L 678 1631 
z
" transform="scale(0.015625)"/>
      <path id="DejaVuSans-Oblique-66" d="M 3059 4863 
L 2969 4384 
L 2419 4384 
Q 2106 4384 1964 4261 
Q 1822 4138 1753 3809 
L 1691 3500 
L 2638 3500 
L 2553 3053 
L 1606 3053 
L 1013 0 
L 434 0 
L 1031 3053 
L 481 3053 
L 563 3500 
L 1113 3500 
L 1159 3744 
Q 1278 4363 1576 4613 
Q 1875 4863 2516 4863 
L 3059 4863 
z
" transform="scale(0.015625)"/>
      <path id="DejaVuSans-2c" d="M 750 794 
L 1409 794 
L 1409 256 
L 897 -744 
L 494 -744 
L 750 256 
L 750 794 
z
" transform="scale(0.015625)"/>
      <path id="DejaVuSans-303" d="M -1619 4281 
L -1797 4453 
Q -1866 4516 -1917 4545 
Q -1969 4575 -2009 4575 
Q -2128 4575 -2184 4461 
Q -2241 4347 -2247 4091 
L -2638 4091 
Q -2631 4513 -2472 4742 
Q -2313 4972 -2028 4972 
Q -1909 4972 -1809 4928 
Q -1709 4884 -1594 4781 
L -1416 4609 
Q -1347 4547 -1295 4517 
Q -1244 4488 -1203 4488 
Q -1084 4488 -1028 4602 
Q -972 4716 -966 4972 
L -575 4972 
Q -581 4550 -740 4320 
Q -900 4091 -1184 4091 
Q -1303 4091 -1403 4134 
Q -1503 4178 -1619 4281 
z
" transform="scale(0.015625)"/>
      <path id="DejaVuSans-2b" d="M 2944 4013 
L 2944 2272 
L 4684 2272 
L 4684 1741 
L 2944 1741 
L 2944 0 
L 2419 0 
L 2419 1741 
L 678 1741 
L 678 2272 
L 2419 2272 
L 2419 4013 
L 2944 4013 
z
" transform="scale(0.015625)"/>
      <path id="DejaVuSans-Oblique-67" d="M 3816 3500 
L 3219 434 
Q 3047 -456 2561 -893 
Q 2075 -1331 1253 -1331 
Q 950 -1331 690 -1286 
Q 431 -1241 206 -1147 
L 313 -588 
Q 525 -725 762 -790 
Q 1000 -856 1269 -856 
Q 1816 -856 2167 -557 
Q 2519 -259 2631 300 
L 2681 563 
Q 2441 288 2122 144 
Q 1803 0 1434 0 
Q 903 0 598 351 
Q 294 703 294 1319 
Q 294 1803 478 2267 
Q 663 2731 997 3091 
Q 1219 3328 1514 3456 
Q 1809 3584 2131 3584 
Q 2484 3584 2746 3420 
Q 3009 3256 3138 2956 
L 3238 3500 
L 3816 3500 
z
M 2950 2216 
Q 2950 2641 2750 2872 
Q 2550 3103 2181 3103 
Q 1953 3103 1747 3012 
Q 1541 2922 1394 2759 
Q 1156 2491 1023 2127 
Q 891 1763 891 1375 
Q 891 944 1092 712 
Q 1294 481 1672 481 
Q 2219 481 2584 976 
Q 2950 1472 2950 2216 
z
" transform="scale(0.015625)"/>
      <path id="DejaVuSans-Oblique-75" d="M 428 1388 
L 838 3500 
L 1416 3500 
L 1006 1409 
Q 975 1256 961 1147 
Q 947 1038 947 966 
Q 947 700 1109 554 
Q 1272 409 1569 409 
Q 2031 409 2368 721 
Q 2706 1034 2809 1563 
L 3194 3500 
L 3769 3500 
L 3091 0 
L 2516 0 
L 2631 550 
Q 2388 244 2052 76 
Q 1716 -91 1338 -91 
Q 878 -91 622 161 
Q 366 413 366 863 
Q 366 956 381 1097 
Q 397 1238 428 1388 
z
" transform="scale(0.015625)"/>
     </defs>
     <use xlink:href="#DejaVuSans-54" transform="translate(0 0.01875)"/>
     <use xlink:href="#DejaVuSans-72" transform="translate(61.083984 0.01875)"/>
     <use xlink:href="#DejaVuSans-61" transform="translate(102.197266 0.01875)"/>
     <use xlink:href="#DejaVuSans-6e" transform="translate(163.476562 0.01875)"/>
     <use xlink:href="#DejaVuSans-73" transform="translate(226.855469 0.01875)"/>
     <use xlink:href="#DejaVuSans-6c" transform="translate(278.955078 0.01875)"/>
     <use xlink:href="#DejaVuSans-61" transform="translate(306.738281 0.01875)"/>
     <use xlink:href="#DejaVuSans-74" transform="translate(368.017578 0.01875)"/>
     <use xlink:href="#DejaVuSans-69" transform="translate(407.226562 0.01875)"/>
     <use xlink:href="#DejaVuSans-6f" transform="translate(435.009766 0.01875)"/>
     <use xlink:href="#DejaVuSans-6e" transform="translate(496.191406 0.01875)"/>
     <use xlink:href="#DejaVuSans-20" transform="translate(559.570312 0.01875)"/>
     <use xlink:href="#DejaVuSans-4d" transform="translate(591.357422 0.01875)"/>
     <use xlink:href="#DejaVuSans-65" transform="translate(677.636719 0.01875)"/>
     <use xlink:href="#DejaVuSans-74" transform="translate(739.160156 0.01875)"/>
     <use xlink:href="#DejaVuSans-68" transform="translate(778.369141 0.01875)"/>
     <use xlink:href="#DejaVuSans-6f" transform="translate(841.748047 0.01875)"/>
     <use xlink:href="#DejaVuSans-64" transform="translate(902.929688 0.01875)"/>
     <use xlink:href="#DejaVuSans-3a" transform="translate(966.40625 0.01875)"/>
     <use xlink:href="#DejaVuSans-20" transform="translate(1000.097656 0.01875)"/>
     <use xlink:href="#DejaVuSans-Oblique-64" transform="translate(1045.884766 44.810938) scale(0.7)"/>
     <use xlink:href="#DejaVuSans-Oblique-64" transform="translate(1031.884766 -40.623437) scale(0.7)"/>
     <use xlink:href="#DejaVuSans-Oblique-74" transform="translate(1076.318359 -40.623437) scale(0.7)"/>
     <use xlink:href="#DejaVuSans-302" transform="translate(1178.637695 11.20625)"/>
     <use xlink:href="#DejaVuSans-Oblique-78" transform="translate(1116.264648 0.01875)"/>
     <use xlink:href="#DejaVuSans-28" transform="translate(1175.444336 0.01875)"/>
     <use xlink:href="#DejaVuSans-Oblique-74" transform="translate(1214.458008 0.01875)"/>
     <use xlink:href="#DejaVuSans-29" transform="translate(1253.666992 0.01875)"/>
     <use xlink:href="#DejaVuSans-3d" transform="translate(1312.163086 0.01875)"/>
     <use xlink:href="#DejaVuSans-Oblique-66" transform="translate(1415.43457 0.01875)"/>
     <use xlink:href="#DejaVuSans-28" transform="translate(1450.639648 0.01875)"/>
     <use xlink:href="#DejaVuSans-Oblique-74" transform="translate(1489.65332 0.01875)"/>
     <use xlink:href="#DejaVuSans-2c" transform="translate(1528.862305 0.01875)"/>
     <use xlink:href="#DejaVuSans-303" transform="translate(1642.145508 3.284375)"/>
     <use xlink:href="#DejaVuSans-Oblique-78" transform="translate(1580.131836 0.01875)"/>
     <use xlink:href="#DejaVuSans-28" transform="translate(1639.311523 0.01875)"/>
     <use xlink:href="#DejaVuSans-Oblique-74" transform="translate(1678.325195 0.01875)"/>
     <use xlink:href="#DejaVuSans-29" transform="translate(1717.53418 0.01875)"/>
     <use xlink:href="#DejaVuSans-29" transform="translate(1756.547852 0.01875)"/>
     <use xlink:href="#DejaVuSans-2b" transform="translate(1815.043945 0.01875)"/>
     <use xlink:href="#DejaVuSans-Oblique-67" transform="translate(1918.31543 0.01875)"/>
     <use xlink:href="#DejaVuSans-28" transform="translate(1981.791992 0.01875)"/>
     <use xlink:href="#DejaVuSans-Oblique-74" transform="translate(2020.805664 0.01875)"/>
     <use xlink:href="#DejaVuSans-2c" transform="translate(2060.014648 0.01875)"/>
     <use xlink:href="#DejaVuSans-303" transform="translate(2173.297852 3.284375)"/>
     <use xlink:href="#DejaVuSans-Oblique-78" transform="translate(2111.28418 0.01875)"/>
     <use xlink:href="#DejaVuSans-28" transform="translate(2170.463867 0.01875)"/>
     <use xlink:href="#DejaVuSans-Oblique-74" transform="translate(2209.477539 0.01875)"/>
     <use xlink:href="#DejaVuSans-29" transform="translate(2248.686523 0.01875)"/>
     <use xlink:href="#DejaVuSans-2c" transform="translate(2287.700195 0.01875)"/>
     <use xlink:href="#DejaVuSans-Oblique-75" transform="translate(2338.969727 0.01875)"/>
     <use xlink:href="#DejaVuSans-28" transform="translate(2402.348633 0.01875)"/>
     <use xlink:href="#DejaVuSans-Oblique-74" transform="translate(2441.362305 0.01875)"/>
     <use xlink:href="#DejaVuSans-29" transform="translate(2480.571289 0.01875)"/>
     <use xlink:href="#DejaVuSans-29" transform="translate(2519.584961 0.01875)"/>
     <path d="M 1031.884766 18.815625 
L 1031.884766 25.065625 
L 1103.764648 25.065625 
L 1103.764648 18.815625 
L 1031.884766 18.815625 
z
"/>
    </g>
   </g>
   <g id="legend_1">
    <g id="patch_7">
     <path d="M 43.465625 76.994375 
L 129.265625 76.994375 
Q 131.265625 76.994375 131.265625 74.994375 
L 131.265625 31.96 
Q 131.265625 29.96 129.265625 29.96 
L 43.465625 29.96 
Q 41.465625 29.96 41.465625 31.96 
L 41.465625 74.994375 
Q 41.465625 76.994375 43.465625 76.994375 
z
" style="fill: #ffffff; opacity: 0.8; stroke: #cccccc; stroke-linejoin: miter"/>
    </g>
    <g id="line2d_12">
     <path d="M 45.465625 38.058437 
L 55.465625 38.058437 
L 65.465625 38.058437 
" style="fill: none; stroke: #1f77b4; stroke-width: 3; stroke-linecap: square"/>
    </g>
    <g id="text_4">
     <!-- $I$ - Infected -->
     <g transform="translate(73.465625 41.558437) scale(0.1 -0.1)">
      <defs>
       <path id="DejaVuSans-Oblique-49" d="M 1081 4666 
L 1716 4666 
L 806 0 
L 172 0 
L 1081 4666 
z
" transform="scale(0.015625)"/>
       <path id="DejaVuSans-2d" d="M 313 2009 
L 1997 2009 
L 1997 1497 
L 313 1497 
L 313 2009 
z
" transform="scale(0.015625)"/>
       <path id="DejaVuSans-49" d="M 628 4666 
L 1259 4666 
L 1259 0 
L 628 0 
L 628 4666 
z
" transform="scale(0.015625)"/>
       <path id="DejaVuSans-66" d="M 2375 4863 
L 2375 4384 
L 1825 4384 
Q 1516 4384 1395 4259 
Q 1275 4134 1275 3809 
L 1275 3500 
L 2222 3500 
L 2222 3053 
L 1275 3053 
L 1275 0 
L 697 0 
L 697 3053 
L 147 3053 
L 147 3500 
L 697 3500 
L 697 3744 
Q 697 4328 969 4595 
Q 1241 4863 1831 4863 
L 2375 4863 
z
" transform="scale(0.015625)"/>
       <path id="DejaVuSans-63" d="M 3122 3366 
L 3122 2828 
Q 2878 2963 2633 3030 
Q 2388 3097 2138 3097 
Q 1578 3097 1268 2742 
Q 959 2388 959 1747 
Q 959 1106 1268 751 
Q 1578 397 2138 397 
Q 2388 397 2633 464 
Q 2878 531 3122 666 
L 3122 134 
Q 2881 22 2623 -34 
Q 2366 -91 2075 -91 
Q 1284 -91 818 406 
Q 353 903 353 1747 
Q 353 2603 823 3093 
Q 1294 3584 2113 3584 
Q 2378 3584 2631 3529 
Q 2884 3475 3122 3366 
z
" transform="scale(0.015625)"/>
      </defs>
      <use xlink:href="#DejaVuSans-Oblique-49" transform="translate(0 0.015625)"/>
      <use xlink:href="#DejaVuSans-20" transform="translate(29.492188 0.015625)"/>
      <use xlink:href="#DejaVuSans-2d" transform="translate(61.279297 0.015625)"/>
      <use xlink:href="#DejaVuSans-20" transform="translate(97.363281 0.015625)"/>
      <use xlink:href="#DejaVuSans-49" transform="translate(129.150391 0.015625)"/>
      <use xlink:href="#DejaVuSans-6e" transform="translate(158.642578 0.015625)"/>
      <use xlink:href="#DejaVuSans-66" transform="translate(222.021484 0.015625)"/>
      <use xlink:href="#DejaVuSans-65" transform="translate(257.226562 0.015625)"/>
      <use xlink:href="#DejaVuSans-63" transform="translate(318.75 0.015625)"/>
      <use xlink:href="#DejaVuSans-74" transform="translate(373.730469 0.015625)"/>
      <use xlink:href="#DejaVuSans-65" transform="translate(412.939453 0.015625)"/>
      <use xlink:href="#DejaVuSans-64" transform="translate(474.462891 0.015625)"/>
     </g>
    </g>
    <g id="line2d_13">
     <path d="M 45.465625 52.736562 
L 55.465625 52.736562 
L 65.465625 52.736562 
" style="fill: none; stroke: #ff7f0e; stroke-opacity: 0.3; stroke-width: 1.5; stroke-linecap: square"/>
    </g>
    <g id="text_5">
     <!-- $u$ - control -->
     <g transform="translate(73.465625 56.236562) scale(0.1 -0.1)">
      <use xlink:href="#DejaVuSans-Oblique-75" transform="translate(0 0.015625)"/>
      <use xlink:href="#DejaVuSans-20" transform="translate(63.378906 0.015625)"/>
      <use xlink:href="#DejaVuSans-2d" transform="translate(95.166016 0.015625)"/>
      <use xlink:href="#DejaVuSans-20" transform="translate(131.25 0.015625)"/>
      <use xlink:href="#DejaVuSans-63" transform="translate(163.037109 0.015625)"/>
      <use xlink:href="#DejaVuSans-6f" transform="translate(218.017578 0.015625)"/>
      <use xlink:href="#DejaVuSans-6e" transform="translate(279.199219 0.015625)"/>
      <use xlink:href="#DejaVuSans-74" transform="translate(342.578125 0.015625)"/>
      <use xlink:href="#DejaVuSans-72" transform="translate(381.787109 0.015625)"/>
      <use xlink:href="#DejaVuSans-6f" transform="translate(422.900391 0.015625)"/>
      <use xlink:href="#DejaVuSans-6c" transform="translate(484.082031 0.015625)"/>
     </g>
    </g>
    <g id="line2d_14">
     <path d="M 45.465625 67.414687 
L 55.465625 67.414687 
L 65.465625 67.414687 
" style="fill: none; stroke: #000000; stroke-opacity: 0.5; stroke-width: 1.5; stroke-linecap: square"/>
    </g>
    <g id="text_6">
     <!-- $I_{\max}$ -->
     <g transform="translate(73.465625 70.914687) scale(0.1 -0.1)">
      <defs>
       <path id="DejaVuSans-6d" d="M 3328 2828 
Q 3544 3216 3844 3400 
Q 4144 3584 4550 3584 
Q 5097 3584 5394 3201 
Q 5691 2819 5691 2113 
L 5691 0 
L 5113 0 
L 5113 2094 
Q 5113 2597 4934 2840 
Q 4756 3084 4391 3084 
Q 3944 3084 3684 2787 
Q 3425 2491 3425 1978 
L 3425 0 
L 2847 0 
L 2847 2094 
Q 2847 2600 2669 2842 
Q 2491 3084 2119 3084 
Q 1678 3084 1418 2786 
Q 1159 2488 1159 1978 
L 1159 0 
L 581 0 
L 581 3500 
L 1159 3500 
L 1159 2956 
Q 1356 3278 1631 3431 
Q 1906 3584 2284 3584 
Q 2666 3584 2933 3390 
Q 3200 3197 3328 2828 
z
" transform="scale(0.015625)"/>
       <path id="DejaVuSans-78" d="M 3513 3500 
L 2247 1797 
L 3578 0 
L 2900 0 
L 1881 1375 
L 863 0 
L 184 0 
L 1544 1831 
L 300 3500 
L 978 3500 
L 1906 2253 
L 2834 3500 
L 3513 3500 
z
" transform="scale(0.015625)"/>
      </defs>
      <use xlink:href="#DejaVuSans-Oblique-49" transform="translate(0 0.09375)"/>
      <use xlink:href="#DejaVuSans-6d" transform="translate(29.492188 -16.3125) scale(0.7)"/>
      <use xlink:href="#DejaVuSans-61" transform="translate(97.680664 -16.3125) scale(0.7)"/>
      <use xlink:href="#DejaVuSans-78" transform="translate(140.576172 -16.3125) scale(0.7)"/>
     </g>
    </g>
   </g>
  </g>
  <g id="axes_2">
   <g id="patch_8">
    <path d="M 36.465625 203.719375 
L 633.545625 203.719375 
L 633.545625 133.850625 
L 36.465625 133.850625 
z
" style="fill: #ffffff"/>
   </g>
   <g id="matplotlib.axis_3">
    <g id="xtick_7">
     <g id="line2d_15">
      <g>
       <use xlink:href="#m53147d12ba" x="63.605625" y="203.719375" style="stroke: #000000; stroke-width: 0.8"/>
      </g>
     </g>
    </g>
    <g id="xtick_8">
     <g id="line2d_16">
      <g>
       <use xlink:href="#m53147d12ba" x="172.274294" y="203.719375" style="stroke: #000000; stroke-width: 0.8"/>
      </g>
     </g>
    </g>
    <g id="xtick_9">
     <g id="line2d_17">
      <g>
       <use xlink:href="#m53147d12ba" x="280.942962" y="203.719375" style="stroke: #000000; stroke-width: 0.8"/>
      </g>
     </g>
    </g>
    <g id="xtick_10">
     <g id="line2d_18">
      <g>
       <use xlink:href="#m53147d12ba" x="389.611631" y="203.719375" style="stroke: #000000; stroke-width: 0.8"/>
      </g>
     </g>
    </g>
    <g id="xtick_11">
     <g id="line2d_19">
      <g>
       <use xlink:href="#m53147d12ba" x="498.2803" y="203.719375" style="stroke: #000000; stroke-width: 0.8"/>
      </g>
     </g>
    </g>
    <g id="xtick_12">
     <g id="line2d_20">
      <g>
       <use xlink:href="#m53147d12ba" x="606.948968" y="203.719375" style="stroke: #000000; stroke-width: 0.8"/>
      </g>
     </g>
    </g>
   </g>
   <g id="matplotlib.axis_4">
    <g id="ytick_3">
     <g id="line2d_21">
      <g>
       <use xlink:href="#mcc463e0f59" x="36.465625" y="200.566534" style="stroke: #000000; stroke-width: 0.8"/>
      </g>
     </g>
     <g id="text_7">
      <!-- 0.00 -->
      <g transform="translate(7.2 204.365753) scale(0.1 -0.1)">
       <use xlink:href="#DejaVuSans-30"/>
       <use xlink:href="#DejaVuSans-2e" x="63.623047"/>
       <use xlink:href="#DejaVuSans-30" x="95.410156"/>
       <use xlink:href="#DejaVuSans-30" x="159.033203"/>
      </g>
     </g>
    </g>
    <g id="ytick_4">
     <g id="line2d_22">
      <g>
       <use xlink:href="#mcc463e0f59" x="36.465625" y="155.753217" style="stroke: #000000; stroke-width: 0.8"/>
      </g>
     </g>
     <g id="text_8">
      <!-- 0.02 -->
      <g transform="translate(7.2 159.552436) scale(0.1 -0.1)">
       <use xlink:href="#DejaVuSans-30"/>
       <use xlink:href="#DejaVuSans-2e" x="63.623047"/>
       <use xlink:href="#DejaVuSans-30" x="95.410156"/>
       <use xlink:href="#DejaVuSans-32" x="159.033203"/>
      </g>
     </g>
    </g>
   </g>
   <g id="line2d_23">
    <path d="M 63.605625 200.543523 
L 105.443062 200.387551 
L 124.460079 200.111894 
L 136.956976 199.727784 
L 146.737157 199.212312 
L 154.343963 198.601248 
L 160.864083 197.862774 
L 166.297517 197.04011 
L 171.187607 196.088607 
L 175.534354 195.030428 
L 179.337757 193.90258 
L 183.141161 192.546715 
L 186.944564 190.9271 
L 190.204624 189.314639 
L 193.464684 187.482215 
L 197.268087 185.063367 
L 201.071491 182.363986 
L 205.961581 178.588094 
L 214.111731 172.250842 
L 217.371791 170.029024 
L 220.088508 168.436692 
L 222.805225 167.127486 
L 224.978598 166.29972 
L 227.151971 165.668794 
L 229.325345 165.227042 
L 232.042061 164.917934 
L 234.758778 164.841715 
L 238.018838 164.993699 
L 241.822242 165.407699 
L 247.799018 166.328111 
L 259.752572 168.224071 
L 266.816035 169.084671 
L 273.879499 169.712594 
L 281.486306 170.166893 
L 290.723143 170.491593 
L 303.763383 170.701122 
L 339.0807 170.923377 
L 390.698318 171.416359 
L 490.13015 172.312832 
L 606.405625 173.141728 
L 606.405625 173.141728 
" clip-path="url(#pf388931534)" style="fill: none; stroke: #1f77b4; stroke-width: 3; stroke-linecap: square"/>
   </g>
   <g id="line2d_24">
    <path d="M 63.605625 198.325868 
L 184.227847 198.292947 
L 187.487907 197.412346 
L 190.204624 196.448556 
L 192.921341 195.21256 
L 195.094714 193.998867 
L 197.268087 192.553514 
L 199.441461 190.846398 
L 201.614834 188.852525 
L 203.788208 186.553087 
L 205.961581 183.938589 
L 208.134954 181.013114 
L 210.851671 176.951893 
L 214.111731 171.596349 
L 225.521941 152.279326 
L 227.695315 149.178369 
L 229.868688 146.420341 
L 232.042061 144.035162 
L 234.215435 142.033736 
L 236.388808 140.410533 
L 238.562182 139.146624 
L 240.735555 138.213309 
L 242.908928 137.575778 
L 245.082302 137.196312 
L 247.255675 137.036511 
L 249.972392 137.089458 
L 252.689108 137.361712 
L 255.949169 137.896891 
L 260.839259 138.959909 
L 280.399619 143.517496 
L 286.919739 144.687646 
L 293.983203 145.716214 
L 301.590009 146.589219 
L 310.826846 147.40733 
L 322.7804 148.224688 
L 344.514134 149.445161 
L 416.235455 153.20578 
L 454.269489 154.944579 
L 496.106926 156.63338 
L 541.747767 158.248474 
L 589.561981 159.72125 
L 606.405625 160.192575 
L 606.405625 160.192575 
" clip-path="url(#pf388931534)" style="fill: none; stroke: #ff7f0e; stroke-opacity: 0.3; stroke-width: 1.5; stroke-linecap: square"/>
   </g>
   <g id="line2d_25">
    <path d="M 36.465625 155.753217 
L 633.545625 155.753217 
" clip-path="url(#pf388931534)" style="fill: none; stroke: #000000; stroke-opacity: 0.5; stroke-width: 1.5; stroke-linecap: square"/>
   </g>
   <g id="patch_9">
    <path d="M 36.465625 203.719375 
L 36.465625 133.850625 
" style="fill: none; stroke: #000000; stroke-width: 0.8; stroke-linejoin: miter; stroke-linecap: square"/>
   </g>
   <g id="patch_10">
    <path d="M 633.545625 203.719375 
L 633.545625 133.850625 
" style="fill: none; stroke: #000000; stroke-width: 0.8; stroke-linejoin: miter; stroke-linecap: square"/>
   </g>
   <g id="patch_11">
    <path d="M 36.465625 203.719375 
L 633.545625 203.719375 
" style="fill: none; stroke: #000000; stroke-width: 0.8; stroke-linejoin: miter; stroke-linecap: square"/>
   </g>
   <g id="patch_12">
    <path d="M 36.465625 133.850625 
L 633.545625 133.850625 
" style="fill: none; stroke: #000000; stroke-width: 0.8; stroke-linejoin: miter; stroke-linecap: square"/>
   </g>
   <g id="text_9">
    <!-- Propagation Method: $\frac{d}{dt}\hat{x}(t) = f(t,\tilde{x}(t)) + g(t,\hat{x}(t), u(t))$ -->
    <g transform="translate(178.825625 127.850625) scale(0.12 -0.12)">
     <defs>
      <path id="DejaVuSans-50" d="M 1259 4147 
L 1259 2394 
L 2053 2394 
Q 2494 2394 2734 2622 
Q 2975 2850 2975 3272 
Q 2975 3691 2734 3919 
Q 2494 4147 2053 4147 
L 1259 4147 
z
M 628 4666 
L 2053 4666 
Q 2838 4666 3239 4311 
Q 3641 3956 3641 3272 
Q 3641 2581 3239 2228 
Q 2838 1875 2053 1875 
L 1259 1875 
L 1259 0 
L 628 0 
L 628 4666 
z
" transform="scale(0.015625)"/>
      <path id="DejaVuSans-70" d="M 1159 525 
L 1159 -1331 
L 581 -1331 
L 581 3500 
L 1159 3500 
L 1159 2969 
Q 1341 3281 1617 3432 
Q 1894 3584 2278 3584 
Q 2916 3584 3314 3078 
Q 3713 2572 3713 1747 
Q 3713 922 3314 415 
Q 2916 -91 2278 -91 
Q 1894 -91 1617 61 
Q 1341 213 1159 525 
z
M 3116 1747 
Q 3116 2381 2855 2742 
Q 2594 3103 2138 3103 
Q 1681 3103 1420 2742 
Q 1159 2381 1159 1747 
Q 1159 1113 1420 752 
Q 1681 391 2138 391 
Q 2594 391 2855 752 
Q 3116 1113 3116 1747 
z
" transform="scale(0.015625)"/>
      <path id="DejaVuSans-67" d="M 2906 1791 
Q 2906 2416 2648 2759 
Q 2391 3103 1925 3103 
Q 1463 3103 1205 2759 
Q 947 2416 947 1791 
Q 947 1169 1205 825 
Q 1463 481 1925 481 
Q 2391 481 2648 825 
Q 2906 1169 2906 1791 
z
M 3481 434 
Q 3481 -459 3084 -895 
Q 2688 -1331 1869 -1331 
Q 1566 -1331 1297 -1286 
Q 1028 -1241 775 -1147 
L 775 -588 
Q 1028 -725 1275 -790 
Q 1522 -856 1778 -856 
Q 2344 -856 2625 -561 
Q 2906 -266 2906 331 
L 2906 616 
Q 2728 306 2450 153 
Q 2172 0 1784 0 
Q 1141 0 747 490 
Q 353 981 353 1791 
Q 353 2603 747 3093 
Q 1141 3584 1784 3584 
Q 2172 3584 2450 3431 
Q 2728 3278 2906 2969 
L 2906 3500 
L 3481 3500 
L 3481 434 
z
" transform="scale(0.015625)"/>
     </defs>
     <use xlink:href="#DejaVuSans-50" transform="translate(0 0.01875)"/>
     <use xlink:href="#DejaVuSans-72" transform="translate(60.302734 0.01875)"/>
     <use xlink:href="#DejaVuSans-6f" transform="translate(101.416016 0.01875)"/>
     <use xlink:href="#DejaVuSans-70" transform="translate(162.597656 0.01875)"/>
     <use xlink:href="#DejaVuSans-61" transform="translate(226.074219 0.01875)"/>
     <use xlink:href="#DejaVuSans-67" transform="translate(287.353516 0.01875)"/>
     <use xlink:href="#DejaVuSans-61" transform="translate(350.830078 0.01875)"/>
     <use xlink:href="#DejaVuSans-74" transform="translate(412.109375 0.01875)"/>
     <use xlink:href="#DejaVuSans-69" transform="translate(451.318359 0.01875)"/>
     <use xlink:href="#DejaVuSans-6f" transform="translate(479.101562 0.01875)"/>
     <use xlink:href="#DejaVuSans-6e" transform="translate(540.283203 0.01875)"/>
     <use xlink:href="#DejaVuSans-20" transform="translate(603.662109 0.01875)"/>
     <use xlink:href="#DejaVuSans-4d" transform="translate(635.449219 0.01875)"/>
     <use xlink:href="#DejaVuSans-65" transform="translate(721.728516 0.01875)"/>
     <use xlink:href="#DejaVuSans-74" transform="translate(783.251953 0.01875)"/>
     <use xlink:href="#DejaVuSans-68" transform="translate(822.460938 0.01875)"/>
     <use xlink:href="#DejaVuSans-6f" transform="translate(885.839844 0.01875)"/>
     <use xlink:href="#DejaVuSans-64" transform="translate(947.021484 0.01875)"/>
     <use xlink:href="#DejaVuSans-3a" transform="translate(1010.498047 0.01875)"/>
     <use xlink:href="#DejaVuSans-20" transform="translate(1044.189453 0.01875)"/>
     <use xlink:href="#DejaVuSans-Oblique-64" transform="translate(1089.976562 44.810938) scale(0.7)"/>
     <use xlink:href="#DejaVuSans-Oblique-64" transform="translate(1075.976562 -40.623437) scale(0.7)"/>
     <use xlink:href="#DejaVuSans-Oblique-74" transform="translate(1120.410156 -40.623437) scale(0.7)"/>
     <use xlink:href="#DejaVuSans-302" transform="translate(1222.729492 11.20625)"/>
     <use xlink:href="#DejaVuSans-Oblique-78" transform="translate(1160.356445 0.01875)"/>
     <use xlink:href="#DejaVuSans-28" transform="translate(1219.536133 0.01875)"/>
     <use xlink:href="#DejaVuSans-Oblique-74" transform="translate(1258.549805 0.01875)"/>
     <use xlink:href="#DejaVuSans-29" transform="translate(1297.758789 0.01875)"/>
     <use xlink:href="#DejaVuSans-3d" transform="translate(1356.254883 0.01875)"/>
     <use xlink:href="#DejaVuSans-Oblique-66" transform="translate(1459.526367 0.01875)"/>
     <use xlink:href="#DejaVuSans-28" transform="translate(1494.731445 0.01875)"/>
     <use xlink:href="#DejaVuSans-Oblique-74" transform="translate(1533.745117 0.01875)"/>
     <use xlink:href="#DejaVuSans-2c" transform="translate(1572.954102 0.01875)"/>
     <use xlink:href="#DejaVuSans-303" transform="translate(1686.237305 3.284375)"/>
     <use xlink:href="#DejaVuSans-Oblique-78" transform="translate(1624.223633 0.01875)"/>
     <use xlink:href="#DejaVuSans-28" transform="translate(1683.40332 0.01875)"/>
     <use xlink:href="#DejaVuSans-Oblique-74" transform="translate(1722.416992 0.01875)"/>
     <use xlink:href="#DejaVuSans-29" transform="translate(1761.625977 0.01875)"/>
     <use xlink:href="#DejaVuSans-29" transform="translate(1800.639648 0.01875)"/>
     <use xlink:href="#DejaVuSans-2b" transform="translate(1859.135742 0.01875)"/>
     <use xlink:href="#DejaVuSans-Oblique-67" transform="translate(1962.407227 0.01875)"/>
     <use xlink:href="#DejaVuSans-28" transform="translate(2025.883789 0.01875)"/>
     <use xlink:href="#DejaVuSans-Oblique-74" transform="translate(2064.897461 0.01875)"/>
     <use xlink:href="#DejaVuSans-2c" transform="translate(2104.106445 0.01875)"/>
     <use xlink:href="#DejaVuSans-302" transform="translate(2217.749023 11.20625)"/>
     <use xlink:href="#DejaVuSans-Oblique-78" transform="translate(2155.375977 0.01875)"/>
     <use xlink:href="#DejaVuSans-28" transform="translate(2214.555664 0.01875)"/>
     <use xlink:href="#DejaVuSans-Oblique-74" transform="translate(2253.569336 0.01875)"/>
     <use xlink:href="#DejaVuSans-29" transform="translate(2292.77832 0.01875)"/>
     <use xlink:href="#DejaVuSans-2c" transform="translate(2331.791992 0.01875)"/>
     <use xlink:href="#DejaVuSans-Oblique-75" transform="translate(2383.061523 0.01875)"/>
     <use xlink:href="#DejaVuSans-28" transform="translate(2446.44043 0.01875)"/>
     <use xlink:href="#DejaVuSans-Oblique-74" transform="translate(2485.454102 0.01875)"/>
     <use xlink:href="#DejaVuSans-29" transform="translate(2524.663086 0.01875)"/>
     <use xlink:href="#DejaVuSans-29" transform="translate(2563.676758 0.01875)"/>
     <path d="M 1075.976562 18.815625 
L 1075.976562 25.065625 
L 1147.856445 25.065625 
L 1147.856445 18.815625 
L 1075.976562 18.815625 
z
"/>
    </g>
   </g>
   <g id="legend_2">
    <g id="patch_13">
     <path d="M 43.465625 185.885 
L 129.265625 185.885 
Q 131.265625 185.885 131.265625 183.885 
L 131.265625 140.850625 
Q 131.265625 138.850625 129.265625 138.850625 
L 43.465625 138.850625 
Q 41.465625 138.850625 41.465625 140.850625 
L 41.465625 183.885 
Q 41.465625 185.885 43.465625 185.885 
z
" style="fill: #ffffff; opacity: 0.8; stroke: #cccccc; stroke-linejoin: miter"/>
    </g>
    <g id="line2d_26">
     <path d="M 45.465625 146.949062 
L 55.465625 146.949062 
L 65.465625 146.949062 
" style="fill: none; stroke: #1f77b4; stroke-width: 3; stroke-linecap: square"/>
    </g>
    <g id="text_10">
     <!-- $I$ - Infected -->
     <g transform="translate(73.465625 150.449062) scale(0.1 -0.1)">
      <use xlink:href="#DejaVuSans-Oblique-49" transform="translate(0 0.015625)"/>
      <use xlink:href="#DejaVuSans-20" transform="translate(29.492188 0.015625)"/>
      <use xlink:href="#DejaVuSans-2d" transform="translate(61.279297 0.015625)"/>
      <use xlink:href="#DejaVuSans-20" transform="translate(97.363281 0.015625)"/>
      <use xlink:href="#DejaVuSans-49" transform="translate(129.150391 0.015625)"/>
      <use xlink:href="#DejaVuSans-6e" transform="translate(158.642578 0.015625)"/>
      <use xlink:href="#DejaVuSans-66" transform="translate(222.021484 0.015625)"/>
      <use xlink:href="#DejaVuSans-65" transform="translate(257.226562 0.015625)"/>
      <use xlink:href="#DejaVuSans-63" transform="translate(318.75 0.015625)"/>
      <use xlink:href="#DejaVuSans-74" transform="translate(373.730469 0.015625)"/>
      <use xlink:href="#DejaVuSans-65" transform="translate(412.939453 0.015625)"/>
      <use xlink:href="#DejaVuSans-64" transform="translate(474.462891 0.015625)"/>
     </g>
    </g>
    <g id="line2d_27">
     <path d="M 45.465625 161.627187 
L 55.465625 161.627187 
L 65.465625 161.627187 
" style="fill: none; stroke: #ff7f0e; stroke-opacity: 0.3; stroke-width: 1.5; stroke-linecap: square"/>
    </g>
    <g id="text_11">
     <!-- $u$ - control -->
     <g transform="translate(73.465625 165.127187) scale(0.1 -0.1)">
      <use xlink:href="#DejaVuSans-Oblique-75" transform="translate(0 0.015625)"/>
      <use xlink:href="#DejaVuSans-20" transform="translate(63.378906 0.015625)"/>
      <use xlink:href="#DejaVuSans-2d" transform="translate(95.166016 0.015625)"/>
      <use xlink:href="#DejaVuSans-20" transform="translate(131.25 0.015625)"/>
      <use xlink:href="#DejaVuSans-63" transform="translate(163.037109 0.015625)"/>
      <use xlink:href="#DejaVuSans-6f" transform="translate(218.017578 0.015625)"/>
      <use xlink:href="#DejaVuSans-6e" transform="translate(279.199219 0.015625)"/>
      <use xlink:href="#DejaVuSans-74" transform="translate(342.578125 0.015625)"/>
      <use xlink:href="#DejaVuSans-72" transform="translate(381.787109 0.015625)"/>
      <use xlink:href="#DejaVuSans-6f" transform="translate(422.900391 0.015625)"/>
      <use xlink:href="#DejaVuSans-6c" transform="translate(484.082031 0.015625)"/>
     </g>
    </g>
    <g id="line2d_28">
     <path d="M 45.465625 176.305313 
L 55.465625 176.305313 
L 65.465625 176.305313 
" style="fill: none; stroke: #000000; stroke-opacity: 0.5; stroke-width: 1.5; stroke-linecap: square"/>
    </g>
    <g id="text_12">
     <!-- $I_{\max}$ -->
     <g transform="translate(73.465625 179.805313) scale(0.1 -0.1)">
      <use xlink:href="#DejaVuSans-Oblique-49" transform="translate(0 0.09375)"/>
      <use xlink:href="#DejaVuSans-6d" transform="translate(29.492188 -16.3125) scale(0.7)"/>
      <use xlink:href="#DejaVuSans-61" transform="translate(97.680664 -16.3125) scale(0.7)"/>
      <use xlink:href="#DejaVuSans-78" transform="translate(140.576172 -16.3125) scale(0.7)"/>
     </g>
    </g>
   </g>
  </g>
  <g id="axes_3">
   <g id="patch_14">
    <path d="M 36.465625 312.61 
L 633.545625 312.61 
L 633.545625 242.74125 
L 36.465625 242.74125 
z
" style="fill: #ffffff"/>
   </g>
   <g id="matplotlib.axis_5">
    <g id="xtick_13">
     <g id="line2d_29">
      <g>
       <use xlink:href="#m53147d12ba" x="63.605625" y="312.61" style="stroke: #000000; stroke-width: 0.8"/>
      </g>
     </g>
     <g id="text_13">
      <!-- 0 -->
      <g transform="translate(60.424375 327.208438) scale(0.1 -0.1)">
       <use xlink:href="#DejaVuSans-30"/>
      </g>
     </g>
    </g>
    <g id="xtick_14">
     <g id="line2d_30">
      <g>
       <use xlink:href="#m53147d12ba" x="172.274294" y="312.61" style="stroke: #000000; stroke-width: 0.8"/>
      </g>
     </g>
     <g id="text_14">
      <!-- 200 -->
      <g transform="translate(162.730544 327.208438) scale(0.1 -0.1)">
       <use xlink:href="#DejaVuSans-32"/>
       <use xlink:href="#DejaVuSans-30" x="63.623047"/>
       <use xlink:href="#DejaVuSans-30" x="127.246094"/>
      </g>
     </g>
    </g>
    <g id="xtick_15">
     <g id="line2d_31">
      <g>
       <use xlink:href="#m53147d12ba" x="280.942962" y="312.61" style="stroke: #000000; stroke-width: 0.8"/>
      </g>
     </g>
     <g id="text_15">
      <!-- 400 -->
      <g transform="translate(271.399212 327.208438) scale(0.1 -0.1)">
       <defs>
        <path id="DejaVuSans-34" d="M 2419 4116 
L 825 1625 
L 2419 1625 
L 2419 4116 
z
M 2253 4666 
L 3047 4666 
L 3047 1625 
L 3713 1625 
L 3713 1100 
L 3047 1100 
L 3047 0 
L 2419 0 
L 2419 1100 
L 313 1100 
L 313 1709 
L 2253 4666 
z
" transform="scale(0.015625)"/>
       </defs>
       <use xlink:href="#DejaVuSans-34"/>
       <use xlink:href="#DejaVuSans-30" x="63.623047"/>
       <use xlink:href="#DejaVuSans-30" x="127.246094"/>
      </g>
     </g>
    </g>
    <g id="xtick_16">
     <g id="line2d_32">
      <g>
       <use xlink:href="#m53147d12ba" x="389.611631" y="312.61" style="stroke: #000000; stroke-width: 0.8"/>
      </g>
     </g>
     <g id="text_16">
      <!-- 600 -->
      <g transform="translate(380.067881 327.208438) scale(0.1 -0.1)">
       <defs>
        <path id="DejaVuSans-36" d="M 2113 2584 
Q 1688 2584 1439 2293 
Q 1191 2003 1191 1497 
Q 1191 994 1439 701 
Q 1688 409 2113 409 
Q 2538 409 2786 701 
Q 3034 994 3034 1497 
Q 3034 2003 2786 2293 
Q 2538 2584 2113 2584 
z
M 3366 4563 
L 3366 3988 
Q 3128 4100 2886 4159 
Q 2644 4219 2406 4219 
Q 1781 4219 1451 3797 
Q 1122 3375 1075 2522 
Q 1259 2794 1537 2939 
Q 1816 3084 2150 3084 
Q 2853 3084 3261 2657 
Q 3669 2231 3669 1497 
Q 3669 778 3244 343 
Q 2819 -91 2113 -91 
Q 1303 -91 875 529 
Q 447 1150 447 2328 
Q 447 3434 972 4092 
Q 1497 4750 2381 4750 
Q 2619 4750 2861 4703 
Q 3103 4656 3366 4563 
z
" transform="scale(0.015625)"/>
       </defs>
       <use xlink:href="#DejaVuSans-36"/>
       <use xlink:href="#DejaVuSans-30" x="63.623047"/>
       <use xlink:href="#DejaVuSans-30" x="127.246094"/>
      </g>
     </g>
    </g>
    <g id="xtick_17">
     <g id="line2d_33">
      <g>
       <use xlink:href="#m53147d12ba" x="498.2803" y="312.61" style="stroke: #000000; stroke-width: 0.8"/>
      </g>
     </g>
     <g id="text_17">
      <!-- 800 -->
      <g transform="translate(488.73655 327.208438) scale(0.1 -0.1)">
       <defs>
        <path id="DejaVuSans-38" d="M 2034 2216 
Q 1584 2216 1326 1975 
Q 1069 1734 1069 1313 
Q 1069 891 1326 650 
Q 1584 409 2034 409 
Q 2484 409 2743 651 
Q 3003 894 3003 1313 
Q 3003 1734 2745 1975 
Q 2488 2216 2034 2216 
z
M 1403 2484 
Q 997 2584 770 2862 
Q 544 3141 544 3541 
Q 544 4100 942 4425 
Q 1341 4750 2034 4750 
Q 2731 4750 3128 4425 
Q 3525 4100 3525 3541 
Q 3525 3141 3298 2862 
Q 3072 2584 2669 2484 
Q 3125 2378 3379 2068 
Q 3634 1759 3634 1313 
Q 3634 634 3220 271 
Q 2806 -91 2034 -91 
Q 1263 -91 848 271 
Q 434 634 434 1313 
Q 434 1759 690 2068 
Q 947 2378 1403 2484 
z
M 1172 3481 
Q 1172 3119 1398 2916 
Q 1625 2713 2034 2713 
Q 2441 2713 2670 2916 
Q 2900 3119 2900 3481 
Q 2900 3844 2670 4047 
Q 2441 4250 2034 4250 
Q 1625 4250 1398 4047 
Q 1172 3844 1172 3481 
z
" transform="scale(0.015625)"/>
       </defs>
       <use xlink:href="#DejaVuSans-38"/>
       <use xlink:href="#DejaVuSans-30" x="63.623047"/>
       <use xlink:href="#DejaVuSans-30" x="127.246094"/>
      </g>
     </g>
    </g>
    <g id="xtick_18">
     <g id="line2d_34">
      <g>
       <use xlink:href="#m53147d12ba" x="606.948968" y="312.61" style="stroke: #000000; stroke-width: 0.8"/>
      </g>
     </g>
     <g id="text_18">
      <!-- 1000 -->
      <g transform="translate(594.223968 327.208438) scale(0.1 -0.1)">
       <defs>
        <path id="DejaVuSans-31" d="M 794 531 
L 1825 531 
L 1825 4091 
L 703 3866 
L 703 4441 
L 1819 4666 
L 2450 4666 
L 2450 531 
L 3481 531 
L 3481 0 
L 794 0 
L 794 531 
z
" transform="scale(0.015625)"/>
       </defs>
       <use xlink:href="#DejaVuSans-31"/>
       <use xlink:href="#DejaVuSans-30" x="63.623047"/>
       <use xlink:href="#DejaVuSans-30" x="127.246094"/>
       <use xlink:href="#DejaVuSans-30" x="190.869141"/>
      </g>
     </g>
    </g>
    <g id="text_19">
     <!-- time (days) -->
     <g transform="translate(306.416562 340.886562) scale(0.1 -0.1)">
      <defs>
       <path id="DejaVuSans-79" d="M 2059 -325 
Q 1816 -950 1584 -1140 
Q 1353 -1331 966 -1331 
L 506 -1331 
L 506 -850 
L 844 -850 
Q 1081 -850 1212 -737 
Q 1344 -625 1503 -206 
L 1606 56 
L 191 3500 
L 800 3500 
L 1894 763 
L 2988 3500 
L 3597 3500 
L 2059 -325 
z
" transform="scale(0.015625)"/>
      </defs>
      <use xlink:href="#DejaVuSans-74"/>
      <use xlink:href="#DejaVuSans-69" x="39.208984"/>
      <use xlink:href="#DejaVuSans-6d" x="66.992188"/>
      <use xlink:href="#DejaVuSans-65" x="164.404297"/>
      <use xlink:href="#DejaVuSans-20" x="225.927734"/>
      <use xlink:href="#DejaVuSans-28" x="257.714844"/>
      <use xlink:href="#DejaVuSans-64" x="296.728516"/>
      <use xlink:href="#DejaVuSans-61" x="360.205078"/>
      <use xlink:href="#DejaVuSans-79" x="421.484375"/>
      <use xlink:href="#DejaVuSans-73" x="480.664062"/>
      <use xlink:href="#DejaVuSans-29" x="532.763672"/>
     </g>
    </g>
   </g>
   <g id="matplotlib.axis_6">
    <g id="ytick_5">
     <g id="line2d_35">
      <g>
       <use xlink:href="#mcc463e0f59" x="36.465625" y="309.457052" style="stroke: #000000; stroke-width: 0.8"/>
      </g>
     </g>
     <g id="text_20">
      <!-- 0.00 -->
      <g transform="translate(7.2 313.256271) scale(0.1 -0.1)">
       <use xlink:href="#DejaVuSans-30"/>
       <use xlink:href="#DejaVuSans-2e" x="63.623047"/>
       <use xlink:href="#DejaVuSans-30" x="95.410156"/>
       <use xlink:href="#DejaVuSans-30" x="159.033203"/>
      </g>
     </g>
    </g>
    <g id="ytick_6">
     <g id="line2d_36">
      <g>
       <use xlink:href="#mcc463e0f59" x="36.465625" y="264.853285" style="stroke: #000000; stroke-width: 0.8"/>
      </g>
     </g>
     <g id="text_21">
      <!-- 0.02 -->
      <g transform="translate(7.2 268.652503) scale(0.1 -0.1)">
       <use xlink:href="#DejaVuSans-30"/>
       <use xlink:href="#DejaVuSans-2e" x="63.623047"/>
       <use xlink:href="#DejaVuSans-30" x="95.410156"/>
       <use xlink:href="#DejaVuSans-32" x="159.033203"/>
      </g>
     </g>
    </g>
   </g>
   <g id="line2d_37">
    <path d="M 63.605625 309.434148 
L 105.443062 309.278905 
L 124.460079 309.004537 
L 136.956976 308.622224 
L 146.737157 308.109162 
L 154.343963 307.500955 
L 160.864083 306.765934 
L 166.297517 305.947117 
L 171.187607 305.000064 
L 175.534354 303.946833 
L 179.337757 302.824259 
L 183.141161 301.474733 
L 186.944564 299.860677 
L 190.204624 298.251751 
L 193.464684 296.420923 
L 196.724744 294.363908 
L 200.528148 291.693004 
L 204.874894 288.35202 
L 215.198418 280.256717 
L 218.458478 278.084257 
L 221.175195 276.556087 
L 223.348568 275.548187 
L 225.521941 274.742307 
L 227.695315 274.138578 
L 229.868688 273.7283 
L 232.585405 273.462739 
L 235.302121 273.432502 
L 238.562182 273.639719 
L 242.365585 274.114264 
L 248.342362 275.114105 
L 259.209229 276.943162 
L 265.729349 277.801109 
L 272.249469 278.442377 
L 279.856276 278.95128 
L 288.549769 279.29456 
L 299.959979 279.504859 
L 321.693713 279.625492 
L 359.727747 279.882787 
L 527.62084 281.34206 
L 606.405625 281.870118 
L 606.405625 281.870118 
" clip-path="url(#p9c38353b9b)" style="fill: none; stroke: #1f77b4; stroke-width: 3; stroke-linecap: square"/>
   </g>
   <g id="line2d_38">
    <path d="M 63.605625 307.226863 
L 184.771191 307.140919 
L 188.031251 306.259392 
L 190.747967 305.287371 
L 193.464684 304.045403 
L 195.638057 302.824905 
L 197.811431 301.369932 
L 199.984804 299.650764 
L 202.158178 297.642735 
L 204.331551 295.326954 
L 206.504924 292.694474 
L 208.678298 289.749978 
L 211.395014 285.664444 
L 214.655074 280.280992 
L 225.521941 261.732253 
L 228.238658 257.808828 
L 230.412031 255.05753 
L 232.585405 252.684702 
L 234.758778 250.701814 
L 236.932152 249.103088 
L 238.562182 248.144859 
L 240.735555 247.165681 
L 242.908928 246.495531 
L 245.082302 246.096061 
L 247.255675 245.927679 
L 249.972392 245.983676 
L 252.689108 246.271121 
L 255.949169 246.8357 
L 260.295915 247.821158 
L 280.942962 252.833695 
L 287.463082 254.023114 
L 293.983203 254.98644 
L 301.590009 255.87031 
L 310.283503 256.644549 
L 321.693713 257.42455 
L 342.34076 258.569884 
L 427.102322 262.963656 
L 465.679699 264.669804 
L 508.603823 266.344561 
L 555.331351 267.939377 
L 605.318938 269.418268 
L 606.405625 269.448094 
L 606.405625 269.448094 
" clip-path="url(#p9c38353b9b)" style="fill: none; stroke: #ff7f0e; stroke-opacity: 0.3; stroke-width: 1.5; stroke-linecap: square"/>
   </g>
   <g id="line2d_39">
    <path d="M 36.465625 264.853285 
L 633.545625 264.853285 
" clip-path="url(#p9c38353b9b)" style="fill: none; stroke: #000000; stroke-opacity: 0.5; stroke-width: 1.5; stroke-linecap: square"/>
   </g>
   <g id="patch_15">
    <path d="M 36.465625 312.61 
L 36.465625 242.74125 
" style="fill: none; stroke: #000000; stroke-width: 0.8; stroke-linejoin: miter; stroke-linecap: square"/>
   </g>
   <g id="patch_16">
    <path d="M 633.545625 312.61 
L 633.545625 242.74125 
" style="fill: none; stroke: #000000; stroke-width: 0.8; stroke-linejoin: miter; stroke-linecap: square"/>
   </g>
   <g id="patch_17">
    <path d="M 36.465625 312.61 
L 633.545625 312.61 
" style="fill: none; stroke: #000000; stroke-width: 0.8; stroke-linejoin: miter; stroke-linecap: square"/>
   </g>
   <g id="patch_18">
    <path d="M 36.465625 242.74125 
L 633.545625 242.74125 
" style="fill: none; stroke: #000000; stroke-width: 0.8; stroke-linejoin: miter; stroke-linecap: square"/>
   </g>
   <g id="text_22">
    <!-- Proportional Method: $\frac{d}{dt}\hat{x}(t) = f(t,\tilde{x}(t))\frac{\hat{x}(t)}{\tilde{x}(t)} + g(t,\hat{x}(t), u(t))$ -->
    <g transform="translate(170.305625 236.26125) scale(0.12 -0.12)">
     <use xlink:href="#DejaVuSans-50" transform="translate(0 0.151562)"/>
     <use xlink:href="#DejaVuSans-72" transform="translate(60.302734 0.151562)"/>
     <use xlink:href="#DejaVuSans-6f" transform="translate(101.416016 0.151562)"/>
     <use xlink:href="#DejaVuSans-70" transform="translate(162.597656 0.151562)"/>
     <use xlink:href="#DejaVuSans-6f" transform="translate(226.074219 0.151562)"/>
     <use xlink:href="#DejaVuSans-72" transform="translate(287.255859 0.151562)"/>
     <use xlink:href="#DejaVuSans-74" transform="translate(328.369141 0.151562)"/>
     <use xlink:href="#DejaVuSans-69" transform="translate(367.578125 0.151562)"/>
     <use xlink:href="#DejaVuSans-6f" transform="translate(395.361328 0.151562)"/>
     <use xlink:href="#DejaVuSans-6e" transform="translate(456.542969 0.151562)"/>
     <use xlink:href="#DejaVuSans-61" transform="translate(519.921875 0.151562)"/>
     <use xlink:href="#DejaVuSans-6c" transform="translate(581.201172 0.151562)"/>
     <use xlink:href="#DejaVuSans-20" transform="translate(608.984375 0.151562)"/>
     <use xlink:href="#DejaVuSans-4d" transform="translate(640.771484 0.151562)"/>
     <use xlink:href="#DejaVuSans-65" transform="translate(727.050781 0.151562)"/>
     <use xlink:href="#DejaVuSans-74" transform="translate(788.574219 0.151562)"/>
     <use xlink:href="#DejaVuSans-68" transform="translate(827.783203 0.151562)"/>
     <use xlink:href="#DejaVuSans-6f" transform="translate(891.162109 0.151562)"/>
     <use xlink:href="#DejaVuSans-64" transform="translate(952.34375 0.151562)"/>
     <use xlink:href="#DejaVuSans-3a" transform="translate(1015.820312 0.151562)"/>
     <use xlink:href="#DejaVuSans-20" transform="translate(1049.511719 0.151562)"/>
     <use xlink:href="#DejaVuSans-Oblique-64" transform="translate(1095.298828 44.94375) scale(0.7)"/>
     <use xlink:href="#DejaVuSans-Oblique-64" transform="translate(1081.298828 -40.490625) scale(0.7)"/>
     <use xlink:href="#DejaVuSans-Oblique-74" transform="translate(1125.732422 -40.490625) scale(0.7)"/>
     <use xlink:href="#DejaVuSans-302" transform="translate(1228.051758 11.339062)"/>
     <use xlink:href="#DejaVuSans-Oblique-78" transform="translate(1165.678711 0.151562)"/>
     <use xlink:href="#DejaVuSans-28" transform="translate(1224.858398 0.151562)"/>
     <use xlink:href="#DejaVuSans-Oblique-74" transform="translate(1263.87207 0.151562)"/>
     <use xlink:href="#DejaVuSans-29" transform="translate(1303.081055 0.151562)"/>
     <use xlink:href="#DejaVuSans-3d" transform="translate(1361.577148 0.151562)"/>
     <use xlink:href="#DejaVuSans-Oblique-66" transform="translate(1464.848633 0.151562)"/>
     <use xlink:href="#DejaVuSans-28" transform="translate(1500.053711 0.151562)"/>
     <use xlink:href="#DejaVuSans-Oblique-74" transform="translate(1539.067383 0.151562)"/>
     <use xlink:href="#DejaVuSans-2c" transform="translate(1578.276367 0.151562)"/>
     <use xlink:href="#DejaVuSans-303" transform="translate(1691.55957 3.417187)"/>
     <use xlink:href="#DejaVuSans-Oblique-78" transform="translate(1629.545898 0.151562)"/>
     <use xlink:href="#DejaVuSans-28" transform="translate(1688.725586 0.151562)"/>
     <use xlink:href="#DejaVuSans-Oblique-74" transform="translate(1727.739258 0.151562)"/>
     <use xlink:href="#DejaVuSans-29" transform="translate(1766.948242 0.151562)"/>
     <use xlink:href="#DejaVuSans-29" transform="translate(1805.961914 0.151562)"/>
     <use xlink:href="#DejaVuSans-302" transform="translate(1888.738281 61.007812) scale(0.7)"/>
     <use xlink:href="#DejaVuSans-Oblique-78" transform="translate(1844.975586 53.179688) scale(0.7)"/>
     <use xlink:href="#DejaVuSans-28" transform="translate(1886.401367 53.179688) scale(0.7)"/>
     <use xlink:href="#DejaVuSans-Oblique-74" transform="translate(1913.710938 53.179688) scale(0.7)"/>
     <use xlink:href="#DejaVuSans-29" transform="translate(1941.157227 53.179688) scale(0.7)"/>
     <use xlink:href="#DejaVuSans-303" transform="translate(1888.175781 -41.671875) scale(0.7)"/>
     <use xlink:href="#DejaVuSans-Oblique-78" transform="translate(1844.975586 -43.96875) scale(0.7)"/>
     <use xlink:href="#DejaVuSans-28" transform="translate(1886.401367 -43.96875) scale(0.7)"/>
     <use xlink:href="#DejaVuSans-Oblique-74" transform="translate(1913.710938 -43.96875) scale(0.7)"/>
     <use xlink:href="#DejaVuSans-29" transform="translate(1941.157227 -43.96875) scale(0.7)"/>
     <use xlink:href="#DejaVuSans-2b" transform="translate(2000.449219 0.151562)"/>
     <use xlink:href="#DejaVuSans-Oblique-67" transform="translate(2103.720703 0.151562)"/>
     <use xlink:href="#DejaVuSans-28" transform="translate(2167.197266 0.151562)"/>
     <use xlink:href="#DejaVuSans-Oblique-74" transform="translate(2206.210938 0.151562)"/>
     <use xlink:href="#DejaVuSans-2c" transform="translate(2245.419922 0.151562)"/>
     <use xlink:href="#DejaVuSans-302" transform="translate(2359.0625 11.339062)"/>
     <use xlink:href="#DejaVuSans-Oblique-78" transform="translate(2296.689453 0.151562)"/>
     <use xlink:href="#DejaVuSans-28" transform="translate(2355.869141 0.151562)"/>
     <use xlink:href="#DejaVuSans-Oblique-74" transform="translate(2394.882812 0.151562)"/>
     <use xlink:href="#DejaVuSans-29" transform="translate(2434.091797 0.151562)"/>
     <use xlink:href="#DejaVuSans-2c" transform="translate(2473.105469 0.151562)"/>
     <use xlink:href="#DejaVuSans-Oblique-75" transform="translate(2524.375 0.151562)"/>
     <use xlink:href="#DejaVuSans-28" transform="translate(2587.753906 0.151562)"/>
     <use xlink:href="#DejaVuSans-Oblique-74" transform="translate(2626.767578 0.151562)"/>
     <use xlink:href="#DejaVuSans-29" transform="translate(2665.976562 0.151562)"/>
     <use xlink:href="#DejaVuSans-29" transform="translate(2704.990234 0.151562)"/>
     <path d="M 1081.298828 18.948437 
L 1081.298828 25.198437 
L 1153.178711 25.198437 
L 1153.178711 18.948437 
L 1081.298828 18.948437 
z
"/>
     <path d="M 1844.975586 18.948438 
L 1844.975586 25.198438 
L 1968.466797 25.198438 
L 1968.466797 18.948438 
L 1844.975586 18.948438 
z
"/>
    </g>
   </g>
   <g id="legend_3">
    <g id="patch_19">
     <path d="M 43.465625 294.775625 
L 129.265625 294.775625 
Q 131.265625 294.775625 131.265625 292.775625 
L 131.265625 249.74125 
Q 131.265625 247.74125 129.265625 247.74125 
L 43.465625 247.74125 
Q 41.465625 247.74125 41.465625 249.74125 
L 41.465625 292.775625 
Q 41.465625 294.775625 43.465625 294.775625 
z
" style="fill: #ffffff; opacity: 0.8; stroke: #cccccc; stroke-linejoin: miter"/>
    </g>
    <g id="line2d_40">
     <path d="M 45.465625 255.839687 
L 55.465625 255.839687 
L 65.465625 255.839687 
" style="fill: none; stroke: #1f77b4; stroke-width: 3; stroke-linecap: square"/>
    </g>
    <g id="text_23">
     <!-- $I$ - Infected -->
     <g transform="translate(73.465625 259.339687) scale(0.1 -0.1)">
      <use xlink:href="#DejaVuSans-Oblique-49" transform="translate(0 0.015625)"/>
      <use xlink:href="#DejaVuSans-20" transform="translate(29.492188 0.015625)"/>
      <use xlink:href="#DejaVuSans-2d" transform="translate(61.279297 0.015625)"/>
      <use xlink:href="#DejaVuSans-20" transform="translate(97.363281 0.015625)"/>
      <use xlink:href="#DejaVuSans-49" transform="translate(129.150391 0.015625)"/>
      <use xlink:href="#DejaVuSans-6e" transform="translate(158.642578 0.015625)"/>
      <use xlink:href="#DejaVuSans-66" transform="translate(222.021484 0.015625)"/>
      <use xlink:href="#DejaVuSans-65" transform="translate(257.226562 0.015625)"/>
      <use xlink:href="#DejaVuSans-63" transform="translate(318.75 0.015625)"/>
      <use xlink:href="#DejaVuSans-74" transform="translate(373.730469 0.015625)"/>
      <use xlink:href="#DejaVuSans-65" transform="translate(412.939453 0.015625)"/>
      <use xlink:href="#DejaVuSans-64" transform="translate(474.462891 0.015625)"/>
     </g>
    </g>
    <g id="line2d_41">
     <path d="M 45.465625 270.517812 
L 55.465625 270.517812 
L 65.465625 270.517812 
" style="fill: none; stroke: #ff7f0e; stroke-opacity: 0.3; stroke-width: 1.5; stroke-linecap: square"/>
    </g>
    <g id="text_24">
     <!-- $u$ - control -->
     <g transform="translate(73.465625 274.017812) scale(0.1 -0.1)">
      <use xlink:href="#DejaVuSans-Oblique-75" transform="translate(0 0.015625)"/>
      <use xlink:href="#DejaVuSans-20" transform="translate(63.378906 0.015625)"/>
      <use xlink:href="#DejaVuSans-2d" transform="translate(95.166016 0.015625)"/>
      <use xlink:href="#DejaVuSans-20" transform="translate(131.25 0.015625)"/>
      <use xlink:href="#DejaVuSans-63" transform="translate(163.037109 0.015625)"/>
      <use xlink:href="#DejaVuSans-6f" transform="translate(218.017578 0.015625)"/>
      <use xlink:href="#DejaVuSans-6e" transform="translate(279.199219 0.015625)"/>
      <use xlink:href="#DejaVuSans-74" transform="translate(342.578125 0.015625)"/>
      <use xlink:href="#DejaVuSans-72" transform="translate(381.787109 0.015625)"/>
      <use xlink:href="#DejaVuSans-6f" transform="translate(422.900391 0.015625)"/>
      <use xlink:href="#DejaVuSans-6c" transform="translate(484.082031 0.015625)"/>
     </g>
    </g>
    <g id="line2d_42">
     <path d="M 45.465625 285.195938 
L 55.465625 285.195938 
L 65.465625 285.195938 
" style="fill: none; stroke: #000000; stroke-opacity: 0.5; stroke-width: 1.5; stroke-linecap: square"/>
    </g>
    <g id="text_25">
     <!-- $I_{\max}$ -->
     <g transform="translate(73.465625 288.695938) scale(0.1 -0.1)">
      <use xlink:href="#DejaVuSans-Oblique-49" transform="translate(0 0.09375)"/>
      <use xlink:href="#DejaVuSans-6d" transform="translate(29.492188 -16.3125) scale(0.7)"/>
      <use xlink:href="#DejaVuSans-61" transform="translate(97.680664 -16.3125) scale(0.7)"/>
      <use xlink:href="#DejaVuSans-78" transform="translate(140.576172 -16.3125) scale(0.7)"/>
     </g>
    </g>
   </g>
  </g>
 </g>
 <defs>
  <clipPath id="pf1b1ddf19b">
   <rect x="36.465625" y="24.96" width="597.08" height="69.86875"/>
  </clipPath>
  <clipPath id="pf388931534">
   <rect x="36.465625" y="133.850625" width="597.08" height="69.86875"/>
  </clipPath>
  <clipPath id="p9c38353b9b">
   <rect x="36.465625" y="242.74125" width="597.08" height="69.86875"/>
  </clipPath>
 </defs>
</svg>
