<?xml version="1.0" encoding="utf-8" standalone="no"?>
<!DOCTYPE svg PUBLIC "-//W3C//DTD SVG 1.1//EN"
  "http://www.w3.org/Graphics/SVG/1.1/DTD/svg11.dtd">
<svg xmlns:xlink="http://www.w3.org/1999/xlink" width="637.90715pt" height="352.474375pt" viewBox="0 0 637.90715 352.474375" xmlns="http://www.w3.org/2000/svg" version="1.1">
 <metadata>
  <rdf:RDF xmlns:dc="http://purl.org/dc/elements/1.1/" xmlns:cc="http://creativecommons.org/ns#" xmlns:rdf="http://www.w3.org/1999/02/22-rdf-syntax-ns#">
   <cc:Work>
    <dc:type rdf:resource="http://purl.org/dc/dcmitype/StillImage"/>
    <dc:date>2025-07-14T18:39:18.039150</dc:date>
    <dc:format>image/svg+xml</dc:format>
    <dc:creator>
     <cc:Agent>
      <dc:title>Matplotlib v3.6.3, https://matplotlib.org/</dc:title>
     </cc:Agent>
    </dc:creator>
   </cc:Work>
  </rdf:RDF>
 </metadata>
 <defs>
  <style type="text/css">*{stroke-linejoin: round; stroke-linecap: butt}</style>
 </defs>
 <g id="figure_1">
  <g id="patch_1">
   <path d="M 0 352.474375 
L 637.90715 352.474375 
L 637.90715 0 
L 0 0 
z
" style="fill: #ffffff"/>
  </g>
  <g id="axes_1">
   <g id="patch_2">
    <path d="M 50.14375 110.318125 
L 331.882055 110.318125 
L 331.882055 22.318125 
L 50.14375 22.318125 
z
" style="fill: #ffffff"/>
   </g>
   <g id="matplotlib.axis_1">
    <g id="xtick_1">
     <g id="line2d_1">
      <defs>
       <path id="m89e6c7f887" d="M 0 0 
L 0 3.5 
" style="stroke: #000000; stroke-width: 0.8"/>
      </defs>
      <g>
       <use xlink:href="#m89e6c7f887" x="62.950037" y="110.318125" style="stroke: #000000; stroke-width: 0.8"/>
      </g>
     </g>
    </g>
    <g id="xtick_2">
     <g id="line2d_2">
      <g>
       <use xlink:href="#m89e6c7f887" x="114.226459" y="110.318125" style="stroke: #000000; stroke-width: 0.8"/>
      </g>
     </g>
    </g>
    <g id="xtick_3">
     <g id="line2d_3">
      <g>
       <use xlink:href="#m89e6c7f887" x="165.502882" y="110.318125" style="stroke: #000000; stroke-width: 0.8"/>
      </g>
     </g>
    </g>
    <g id="xtick_4">
     <g id="line2d_4">
      <g>
       <use xlink:href="#m89e6c7f887" x="216.779305" y="110.318125" style="stroke: #000000; stroke-width: 0.8"/>
      </g>
     </g>
    </g>
    <g id="xtick_5">
     <g id="line2d_5">
      <g>
       <use xlink:href="#m89e6c7f887" x="268.055727" y="110.318125" style="stroke: #000000; stroke-width: 0.8"/>
      </g>
     </g>
    </g>
    <g id="xtick_6">
     <g id="line2d_6">
      <g>
       <use xlink:href="#m89e6c7f887" x="319.33215" y="110.318125" style="stroke: #000000; stroke-width: 0.8"/>
      </g>
     </g>
    </g>
   </g>
   <g id="matplotlib.axis_2">
    <g id="ytick_1">
     <g id="line2d_7">
      <defs>
       <path id="m71dc6abe3a" d="M 0 0 
L -3.5 0 
" style="stroke: #000000; stroke-width: 0.8"/>
      </defs>
      <g>
       <use xlink:href="#m71dc6abe3a" x="50.14375" y="106.32067" style="stroke: #000000; stroke-width: 0.8"/>
      </g>
     </g>
     <g id="text_1">
      <!-- 0.00 -->
      <g transform="translate(20.878125 110.119889) scale(0.1 -0.1)">
       <defs>
        <path id="DejaVuSans-30" d="M 2034 4250 
Q 1547 4250 1301 3770 
Q 1056 3291 1056 2328 
Q 1056 1369 1301 889 
Q 1547 409 2034 409 
Q 2525 409 2770 889 
Q 3016 1369 3016 2328 
Q 3016 3291 2770 3770 
Q 2525 4250 2034 4250 
z
M 2034 4750 
Q 2819 4750 3233 4129 
Q 3647 3509 3647 2328 
Q 3647 1150 3233 529 
Q 2819 -91 2034 -91 
Q 1250 -91 836 529 
Q 422 1150 422 2328 
Q 422 3509 836 4129 
Q 1250 4750 2034 4750 
z
" transform="scale(0.015625)"/>
        <path id="DejaVuSans-2e" d="M 684 794 
L 1344 794 
L 1344 0 
L 684 0 
L 684 794 
z
" transform="scale(0.015625)"/>
       </defs>
       <use xlink:href="#DejaVuSans-30"/>
       <use xlink:href="#DejaVuSans-2e" x="63.623047"/>
       <use xlink:href="#DejaVuSans-30" x="95.410156"/>
       <use xlink:href="#DejaVuSans-30" x="159.033203"/>
      </g>
     </g>
    </g>
    <g id="ytick_2">
     <g id="line2d_8">
      <g>
       <use xlink:href="#m71dc6abe3a" x="50.14375" y="80.893367" style="stroke: #000000; stroke-width: 0.8"/>
      </g>
     </g>
     <g id="text_2">
      <!-- 0.01 -->
      <g transform="translate(20.878125 84.692586) scale(0.1 -0.1)">
       <defs>
        <path id="DejaVuSans-31" d="M 794 531 
L 1825 531 
L 1825 4091 
L 703 3866 
L 703 4441 
L 1819 4666 
L 2450 4666 
L 2450 531 
L 3481 531 
L 3481 0 
L 794 0 
L 794 531 
z
" transform="scale(0.015625)"/>
       </defs>
       <use xlink:href="#DejaVuSans-30"/>
       <use xlink:href="#DejaVuSans-2e" x="63.623047"/>
       <use xlink:href="#DejaVuSans-30" x="95.410156"/>
       <use xlink:href="#DejaVuSans-31" x="159.033203"/>
      </g>
     </g>
    </g>
    <g id="ytick_3">
     <g id="line2d_9">
      <g>
       <use xlink:href="#m71dc6abe3a" x="50.14375" y="55.466064" style="stroke: #000000; stroke-width: 0.8"/>
      </g>
     </g>
     <g id="text_3">
      <!-- 0.02 -->
      <g transform="translate(20.878125 59.265283) scale(0.1 -0.1)">
       <defs>
        <path id="DejaVuSans-32" d="M 1228 531 
L 3431 531 
L 3431 0 
L 469 0 
L 469 531 
Q 828 903 1448 1529 
Q 2069 2156 2228 2338 
Q 2531 2678 2651 2914 
Q 2772 3150 2772 3378 
Q 2772 3750 2511 3984 
Q 2250 4219 1831 4219 
Q 1534 4219 1204 4116 
Q 875 4013 500 3803 
L 500 4441 
Q 881 4594 1212 4672 
Q 1544 4750 1819 4750 
Q 2544 4750 2975 4387 
Q 3406 4025 3406 3419 
Q 3406 3131 3298 2873 
Q 3191 2616 2906 2266 
Q 2828 2175 2409 1742 
Q 1991 1309 1228 531 
z
" transform="scale(0.015625)"/>
       </defs>
       <use xlink:href="#DejaVuSans-30"/>
       <use xlink:href="#DejaVuSans-2e" x="63.623047"/>
       <use xlink:href="#DejaVuSans-30" x="95.410156"/>
       <use xlink:href="#DejaVuSans-32" x="159.033203"/>
      </g>
     </g>
    </g>
    <g id="ytick_4">
     <g id="line2d_10">
      <g>
       <use xlink:href="#m71dc6abe3a" x="50.14375" y="30.038761" style="stroke: #000000; stroke-width: 0.8"/>
      </g>
     </g>
     <g id="text_4">
      <!-- 0.03 -->
      <g transform="translate(20.878125 33.83798) scale(0.1 -0.1)">
       <defs>
        <path id="DejaVuSans-33" d="M 2597 2516 
Q 3050 2419 3304 2112 
Q 3559 1806 3559 1356 
Q 3559 666 3084 287 
Q 2609 -91 1734 -91 
Q 1441 -91 1130 -33 
Q 819 25 488 141 
L 488 750 
Q 750 597 1062 519 
Q 1375 441 1716 441 
Q 2309 441 2620 675 
Q 2931 909 2931 1356 
Q 2931 1769 2642 2001 
Q 2353 2234 1838 2234 
L 1294 2234 
L 1294 2753 
L 1863 2753 
Q 2328 2753 2575 2939 
Q 2822 3125 2822 3475 
Q 2822 3834 2567 4026 
Q 2313 4219 1838 4219 
Q 1578 4219 1281 4162 
Q 984 4106 628 3988 
L 628 4550 
Q 988 4650 1302 4700 
Q 1616 4750 1894 4750 
Q 2613 4750 3031 4423 
Q 3450 4097 3450 3541 
Q 3450 3153 3228 2886 
Q 3006 2619 2597 2516 
z
" transform="scale(0.015625)"/>
       </defs>
       <use xlink:href="#DejaVuSans-30"/>
       <use xlink:href="#DejaVuSans-2e" x="63.623047"/>
       <use xlink:href="#DejaVuSans-30" x="95.410156"/>
       <use xlink:href="#DejaVuSans-33" x="159.033203"/>
      </g>
     </g>
    </g>
    <g id="text_5">
     <!-- Translation -->
     <g transform="translate(14.798438 93.557969) rotate(-90) scale(0.1 -0.1)">
      <defs>
       <path id="DejaVuSans-54" d="M -19 4666 
L 3928 4666 
L 3928 4134 
L 2272 4134 
L 2272 0 
L 1638 0 
L 1638 4134 
L -19 4134 
L -19 4666 
z
" transform="scale(0.015625)"/>
       <path id="DejaVuSans-72" d="M 2631 2963 
Q 2534 3019 2420 3045 
Q 2306 3072 2169 3072 
Q 1681 3072 1420 2755 
Q 1159 2438 1159 1844 
L 1159 0 
L 581 0 
L 581 3500 
L 1159 3500 
L 1159 2956 
Q 1341 3275 1631 3429 
Q 1922 3584 2338 3584 
Q 2397 3584 2469 3576 
Q 2541 3569 2628 3553 
L 2631 2963 
z
" transform="scale(0.015625)"/>
       <path id="DejaVuSans-61" d="M 2194 1759 
Q 1497 1759 1228 1600 
Q 959 1441 959 1056 
Q 959 750 1161 570 
Q 1363 391 1709 391 
Q 2188 391 2477 730 
Q 2766 1069 2766 1631 
L 2766 1759 
L 2194 1759 
z
M 3341 1997 
L 3341 0 
L 2766 0 
L 2766 531 
Q 2569 213 2275 61 
Q 1981 -91 1556 -91 
Q 1019 -91 701 211 
Q 384 513 384 1019 
Q 384 1609 779 1909 
Q 1175 2209 1959 2209 
L 2766 2209 
L 2766 2266 
Q 2766 2663 2505 2880 
Q 2244 3097 1772 3097 
Q 1472 3097 1187 3025 
Q 903 2953 641 2809 
L 641 3341 
Q 956 3463 1253 3523 
Q 1550 3584 1831 3584 
Q 2591 3584 2966 3190 
Q 3341 2797 3341 1997 
z
" transform="scale(0.015625)"/>
       <path id="DejaVuSans-6e" d="M 3513 2113 
L 3513 0 
L 2938 0 
L 2938 2094 
Q 2938 2591 2744 2837 
Q 2550 3084 2163 3084 
Q 1697 3084 1428 2787 
Q 1159 2491 1159 1978 
L 1159 0 
L 581 0 
L 581 3500 
L 1159 3500 
L 1159 2956 
Q 1366 3272 1645 3428 
Q 1925 3584 2291 3584 
Q 2894 3584 3203 3211 
Q 3513 2838 3513 2113 
z
" transform="scale(0.015625)"/>
       <path id="DejaVuSans-73" d="M 2834 3397 
L 2834 2853 
Q 2591 2978 2328 3040 
Q 2066 3103 1784 3103 
Q 1356 3103 1142 2972 
Q 928 2841 928 2578 
Q 928 2378 1081 2264 
Q 1234 2150 1697 2047 
L 1894 2003 
Q 2506 1872 2764 1633 
Q 3022 1394 3022 966 
Q 3022 478 2636 193 
Q 2250 -91 1575 -91 
Q 1294 -91 989 -36 
Q 684 19 347 128 
L 347 722 
Q 666 556 975 473 
Q 1284 391 1588 391 
Q 1994 391 2212 530 
Q 2431 669 2431 922 
Q 2431 1156 2273 1281 
Q 2116 1406 1581 1522 
L 1381 1569 
Q 847 1681 609 1914 
Q 372 2147 372 2553 
Q 372 3047 722 3315 
Q 1072 3584 1716 3584 
Q 2034 3584 2315 3537 
Q 2597 3491 2834 3397 
z
" transform="scale(0.015625)"/>
       <path id="DejaVuSans-6c" d="M 603 4863 
L 1178 4863 
L 1178 0 
L 603 0 
L 603 4863 
z
" transform="scale(0.015625)"/>
       <path id="DejaVuSans-74" d="M 1172 4494 
L 1172 3500 
L 2356 3500 
L 2356 3053 
L 1172 3053 
L 1172 1153 
Q 1172 725 1289 603 
Q 1406 481 1766 481 
L 2356 481 
L 2356 0 
L 1766 0 
Q 1100 0 847 248 
Q 594 497 594 1153 
L 594 3053 
L 172 3053 
L 172 3500 
L 594 3500 
L 594 4494 
L 1172 4494 
z
" transform="scale(0.015625)"/>
       <path id="DejaVuSans-69" d="M 603 3500 
L 1178 3500 
L 1178 0 
L 603 0 
L 603 3500 
z
M 603 4863 
L 1178 4863 
L 1178 4134 
L 603 4134 
L 603 4863 
z
" transform="scale(0.015625)"/>
       <path id="DejaVuSans-6f" d="M 1959 3097 
Q 1497 3097 1228 2736 
Q 959 2375 959 1747 
Q 959 1119 1226 758 
Q 1494 397 1959 397 
Q 2419 397 2687 759 
Q 2956 1122 2956 1747 
Q 2956 2369 2687 2733 
Q 2419 3097 1959 3097 
z
M 1959 3584 
Q 2709 3584 3137 3096 
Q 3566 2609 3566 1747 
Q 3566 888 3137 398 
Q 2709 -91 1959 -91 
Q 1206 -91 779 398 
Q 353 888 353 1747 
Q 353 2609 779 3096 
Q 1206 3584 1959 3584 
z
" transform="scale(0.015625)"/>
      </defs>
      <use xlink:href="#DejaVuSans-54"/>
      <use xlink:href="#DejaVuSans-72" x="46.333984"/>
      <use xlink:href="#DejaVuSans-61" x="87.447266"/>
      <use xlink:href="#DejaVuSans-6e" x="148.726562"/>
      <use xlink:href="#DejaVuSans-73" x="212.105469"/>
      <use xlink:href="#DejaVuSans-6c" x="264.205078"/>
      <use xlink:href="#DejaVuSans-61" x="291.988281"/>
      <use xlink:href="#DejaVuSans-74" x="353.267578"/>
      <use xlink:href="#DejaVuSans-69" x="392.476562"/>
      <use xlink:href="#DejaVuSans-6f" x="420.259766"/>
      <use xlink:href="#DejaVuSans-6e" x="481.441406"/>
     </g>
    </g>
   </g>
   <g id="line2d_11">
    <path d="M 62.950037 106.294557 
L 81.922313 106.133158 
L 90.639305 105.856873 
L 96.536093 105.464996 
L 101.150972 104.939055 
L 104.740321 104.315512 
L 107.816906 103.561862 
L 110.380728 102.722165 
L 112.688167 101.750798 
L 114.739224 100.670319 
L 116.79028 99.33587 
L 118.584955 97.913894 
L 120.37963 96.215589 
L 122.174305 94.221012 
L 123.96898 91.912856 
L 126.020037 88.901515 
L 128.583858 84.70152 
L 132.429589 78.377218 
L 133.967882 76.274505 
L 135.249793 74.87901 
L 136.275321 74.0415 
L 137.30085 73.468494 
L 138.326378 73.157932 
L 139.351906 73.092044 
L 140.377435 73.240402 
L 141.659345 73.667508 
L 143.197638 74.426882 
L 146.274224 76.280165 
L 149.350809 78.038498 
L 151.658248 79.114276 
L 153.965687 79.954004 
L 156.529508 80.634053 
L 159.349711 81.128646 
L 162.426297 81.440382 
L 166.52841 81.612968 
L 172.937963 81.623163 
L 186.269833 81.625863 
L 199.858085 81.915612 
L 231.136703 82.596681 
L 284.720565 83.485512 
L 319.075768 83.940766 
L 319.075768 83.940766 
" clip-path="url(#pc77c97c968)" style="fill: none; stroke: #1f77b4; stroke-width: 1.5; stroke-linecap: square"/>
   </g>
   <g id="line2d_12">
    <path d="M 62.950037 103.77794 
L 119.097719 103.707573 
L 120.37963 102.898581 
L 121.661541 101.842449 
L 122.943451 100.469868 
L 124.225362 98.697006 
L 125.507272 96.437267 
L 126.789183 93.608358 
L 128.071093 90.115567 
L 129.353004 85.887577 
L 130.634915 80.890196 
L 132.173207 73.923947 
L 134.224264 63.378799 
L 137.813614 44.604026 
L 139.351906 37.927218 
L 140.377435 34.277823 
L 141.402963 31.349895 
L 142.428492 29.141751 
L 143.197638 27.937989 
L 143.966784 27.092853 
L 144.735931 26.572489 
L 145.505077 26.339012 
L 146.274224 26.352975 
L 147.04337 26.575351 
L 148.068898 27.13225 
L 149.350809 28.136822 
L 151.145484 29.898588 
L 157.298654 36.238073 
L 159.349711 37.9615 
L 161.400768 39.416498 
L 163.451825 40.607155 
L 165.502882 41.553396 
L 167.810321 42.365125 
L 170.374142 43.011194 
L 173.450728 43.531621 
L 177.296459 43.92203 
L 184.987923 44.39553 
L 193.704915 45.023319 
L 204.216581 46.053455 
L 225.496297 48.187046 
L 243.699427 49.732134 
L 266.261053 51.424682 
L 289.848207 52.969863 
L 315.486419 54.421726 
L 319.075768 54.608154 
L 319.075768 54.608154 
" clip-path="url(#pc77c97c968)" style="fill: none; stroke: #ff7f0e; stroke-opacity: 0.5; stroke-width: 1.5; stroke-linecap: square"/>
   </g>
   <g id="line2d_13">
    <path d="M 62.950037 106.318125 
L 113.970077 106.211001 
L 119.610484 105.973954 
L 123.199833 105.601114 
L 126.020037 105.077882 
L 128.327476 104.433375 
L 130.634915 103.560564 
L 133.198736 102.345094 
L 140.121053 98.895193 
L 142.17211 98.202594 
L 144.223167 97.752056 
L 146.274224 97.533848 
L 148.581663 97.519231 
L 151.401866 97.73357 
L 156.273126 98.372001 
L 163.195443 99.236737 
L 168.579467 99.677098 
L 175.245402 99.983055 
L 186.526215 100.233193 
L 267.542963 101.559114 
L 319.075768 102.070126 
L 319.075768 102.070126 
" clip-path="url(#pc77c97c968)" style="fill: none; stroke-dasharray: 5.55,2.4; stroke-dashoffset: 0; stroke: #ff0000; stroke-width: 1.5"/>
   </g>
   <g id="line2d_14">
    <path d="M 62.950037 55.466064 
L 319.075768 55.466064 
L 319.075768 55.466064 
" clip-path="url(#pc77c97c968)" style="fill: none; stroke-dasharray: 5.55,2.4; stroke-dashoffset: 0; stroke: #808080; stroke-width: 1.5"/>
   </g>
   <g id="patch_3">
    <path d="M 50.14375 110.318125 
L 50.14375 22.318125 
" style="fill: none; stroke: #000000; stroke-width: 0.8; stroke-linejoin: miter; stroke-linecap: square"/>
   </g>
   <g id="patch_4">
    <path d="M 331.882055 110.318125 
L 331.882055 22.318125 
" style="fill: none; stroke: #000000; stroke-width: 0.8; stroke-linejoin: miter; stroke-linecap: square"/>
   </g>
   <g id="patch_5">
    <path d="M 50.14375 110.318125 
L 331.882055 110.318125 
" style="fill: none; stroke: #000000; stroke-width: 0.8; stroke-linejoin: miter; stroke-linecap: square"/>
   </g>
   <g id="patch_6">
    <path d="M 50.14375 22.318125 
L 331.882055 22.318125 
" style="fill: none; stroke: #000000; stroke-width: 0.8; stroke-linejoin: miter; stroke-linecap: square"/>
   </g>
   <g id="text_6">
    <!-- Exact Predictions -->
    <g transform="translate(139.505715 16.318125) scale(0.12 -0.12)">
     <defs>
      <path id="DejaVuSans-45" d="M 628 4666 
L 3578 4666 
L 3578 4134 
L 1259 4134 
L 1259 2753 
L 3481 2753 
L 3481 2222 
L 1259 2222 
L 1259 531 
L 3634 531 
L 3634 0 
L 628 0 
L 628 4666 
z
" transform="scale(0.015625)"/>
      <path id="DejaVuSans-78" d="M 3513 3500 
L 2247 1797 
L 3578 0 
L 2900 0 
L 1881 1375 
L 863 0 
L 184 0 
L 1544 1831 
L 300 3500 
L 978 3500 
L 1906 2253 
L 2834 3500 
L 3513 3500 
z
" transform="scale(0.015625)"/>
      <path id="DejaVuSans-63" d="M 3122 3366 
L 3122 2828 
Q 2878 2963 2633 3030 
Q 2388 3097 2138 3097 
Q 1578 3097 1268 2742 
Q 959 2388 959 1747 
Q 959 1106 1268 751 
Q 1578 397 2138 397 
Q 2388 397 2633 464 
Q 2878 531 3122 666 
L 3122 134 
Q 2881 22 2623 -34 
Q 2366 -91 2075 -91 
Q 1284 -91 818 406 
Q 353 903 353 1747 
Q 353 2603 823 3093 
Q 1294 3584 2113 3584 
Q 2378 3584 2631 3529 
Q 2884 3475 3122 3366 
z
" transform="scale(0.015625)"/>
      <path id="DejaVuSans-20" transform="scale(0.015625)"/>
      <path id="DejaVuSans-50" d="M 1259 4147 
L 1259 2394 
L 2053 2394 
Q 2494 2394 2734 2622 
Q 2975 2850 2975 3272 
Q 2975 3691 2734 3919 
Q 2494 4147 2053 4147 
L 1259 4147 
z
M 628 4666 
L 2053 4666 
Q 2838 4666 3239 4311 
Q 3641 3956 3641 3272 
Q 3641 2581 3239 2228 
Q 2838 1875 2053 1875 
L 1259 1875 
L 1259 0 
L 628 0 
L 628 4666 
z
" transform="scale(0.015625)"/>
      <path id="DejaVuSans-65" d="M 3597 1894 
L 3597 1613 
L 953 1613 
Q 991 1019 1311 708 
Q 1631 397 2203 397 
Q 2534 397 2845 478 
Q 3156 559 3463 722 
L 3463 178 
Q 3153 47 2828 -22 
Q 2503 -91 2169 -91 
Q 1331 -91 842 396 
Q 353 884 353 1716 
Q 353 2575 817 3079 
Q 1281 3584 2069 3584 
Q 2775 3584 3186 3129 
Q 3597 2675 3597 1894 
z
M 3022 2063 
Q 3016 2534 2758 2815 
Q 2500 3097 2075 3097 
Q 1594 3097 1305 2825 
Q 1016 2553 972 2059 
L 3022 2063 
z
" transform="scale(0.015625)"/>
      <path id="DejaVuSans-64" d="M 2906 2969 
L 2906 4863 
L 3481 4863 
L 3481 0 
L 2906 0 
L 2906 525 
Q 2725 213 2448 61 
Q 2172 -91 1784 -91 
Q 1150 -91 751 415 
Q 353 922 353 1747 
Q 353 2572 751 3078 
Q 1150 3584 1784 3584 
Q 2172 3584 2448 3432 
Q 2725 3281 2906 2969 
z
M 947 1747 
Q 947 1113 1208 752 
Q 1469 391 1925 391 
Q 2381 391 2643 752 
Q 2906 1113 2906 1747 
Q 2906 2381 2643 2742 
Q 2381 3103 1925 3103 
Q 1469 3103 1208 2742 
Q 947 2381 947 1747 
z
" transform="scale(0.015625)"/>
     </defs>
     <use xlink:href="#DejaVuSans-45"/>
     <use xlink:href="#DejaVuSans-78" x="63.183594"/>
     <use xlink:href="#DejaVuSans-61" x="122.363281"/>
     <use xlink:href="#DejaVuSans-63" x="183.642578"/>
     <use xlink:href="#DejaVuSans-74" x="238.623047"/>
     <use xlink:href="#DejaVuSans-20" x="277.832031"/>
     <use xlink:href="#DejaVuSans-50" x="309.619141"/>
     <use xlink:href="#DejaVuSans-72" x="368.171875"/>
     <use xlink:href="#DejaVuSans-65" x="407.035156"/>
     <use xlink:href="#DejaVuSans-64" x="468.558594"/>
     <use xlink:href="#DejaVuSans-69" x="532.035156"/>
     <use xlink:href="#DejaVuSans-63" x="559.818359"/>
     <use xlink:href="#DejaVuSans-74" x="614.798828"/>
     <use xlink:href="#DejaVuSans-69" x="654.007812"/>
     <use xlink:href="#DejaVuSans-6f" x="681.791016"/>
     <use xlink:href="#DejaVuSans-6e" x="742.972656"/>
     <use xlink:href="#DejaVuSans-73" x="806.351562"/>
    </g>
   </g>
   <g id="legend_1">
    <g id="patch_7">
     <path d="M 57.14375 89.0525 
L 107.64375 89.0525 
Q 109.64375 89.0525 109.64375 87.0525 
L 109.64375 29.318125 
Q 109.64375 27.318125 107.64375 27.318125 
L 57.14375 27.318125 
Q 55.14375 27.318125 55.14375 29.318125 
L 55.14375 87.0525 
Q 55.14375 89.0525 57.14375 89.0525 
z
" style="fill: #ffffff; opacity: 0.8; stroke: #cccccc; stroke-linejoin: miter"/>
    </g>
    <g id="line2d_15">
     <path d="M 59.14375 35.416562 
L 69.14375 35.416562 
L 79.14375 35.416562 
" style="fill: none; stroke: #1f77b4; stroke-width: 1.5; stroke-linecap: square"/>
    </g>
    <g id="text_7">
     <!-- $I$ -->
     <g transform="translate(87.14375 38.916562) scale(0.1 -0.1)">
      <defs>
       <path id="DejaVuSans-Oblique-49" d="M 1081 4666 
L 1716 4666 
L 806 0 
L 172 0 
L 1081 4666 
z
" transform="scale(0.015625)"/>
      </defs>
      <use xlink:href="#DejaVuSans-Oblique-49" transform="translate(0 0.09375)"/>
     </g>
    </g>
    <g id="line2d_16">
     <path d="M 59.14375 50.094688 
L 69.14375 50.094688 
L 79.14375 50.094688 
" style="fill: none; stroke: #ff7f0e; stroke-opacity: 0.5; stroke-width: 1.5; stroke-linecap: square"/>
    </g>
    <g id="text_8">
     <!-- $u$ -->
     <g transform="translate(87.14375 53.594688) scale(0.1 -0.1)">
      <defs>
       <path id="DejaVuSans-Oblique-75" d="M 428 1388 
L 838 3500 
L 1416 3500 
L 1006 1409 
Q 975 1256 961 1147 
Q 947 1038 947 966 
Q 947 700 1109 554 
Q 1272 409 1569 409 
Q 2031 409 2368 721 
Q 2706 1034 2809 1563 
L 3194 3500 
L 3769 3500 
L 3091 0 
L 2516 0 
L 2631 550 
Q 2388 244 2052 76 
Q 1716 -91 1338 -91 
Q 878 -91 622 161 
Q 366 413 366 863 
Q 366 956 381 1097 
Q 397 1238 428 1388 
z
" transform="scale(0.015625)"/>
      </defs>
      <use xlink:href="#DejaVuSans-Oblique-75" transform="translate(0 0.3125)"/>
     </g>
    </g>
    <g id="line2d_17">
     <path d="M 59.14375 64.774375 
L 69.14375 64.774375 
L 79.14375 64.774375 
" style="fill: none; stroke-dasharray: 5.55,2.4; stroke-dashoffset: 0; stroke: #ff0000; stroke-width: 1.5"/>
    </g>
    <g id="text_9">
     <!-- $J(u)$ -->
     <g transform="translate(87.14375 68.274375) scale(0.1 -0.1)">
      <defs>
       <path id="DejaVuSans-Oblique-4a" d="M 1069 4666 
L 1703 4666 
L 856 325 
Q 691 -522 298 -901 
Q -94 -1281 -800 -1281 
L -1050 -1281 
L -947 -750 
L -750 -750 
Q -328 -750 -109 -509 
Q 109 -269 225 325 
L 1069 4666 
z
" transform="scale(0.015625)"/>
       <path id="DejaVuSans-28" d="M 1984 4856 
Q 1566 4138 1362 3434 
Q 1159 2731 1159 2009 
Q 1159 1288 1364 580 
Q 1569 -128 1984 -844 
L 1484 -844 
Q 1016 -109 783 600 
Q 550 1309 550 2009 
Q 550 2706 781 3412 
Q 1013 4119 1484 4856 
L 1984 4856 
z
" transform="scale(0.015625)"/>
       <path id="DejaVuSans-29" d="M 513 4856 
L 1013 4856 
Q 1481 4119 1714 3412 
Q 1947 2706 1947 2009 
Q 1947 1309 1714 600 
Q 1481 -109 1013 -844 
L 513 -844 
Q 928 -128 1133 580 
Q 1338 1288 1338 2009 
Q 1338 2731 1133 3434 
Q 928 4138 513 4856 
z
" transform="scale(0.015625)"/>
      </defs>
      <use xlink:href="#DejaVuSans-Oblique-4a" transform="translate(0 0.125)"/>
      <use xlink:href="#DejaVuSans-28" transform="translate(29.492188 0.125)"/>
      <use xlink:href="#DejaVuSans-Oblique-75" transform="translate(68.505859 0.125)"/>
      <use xlink:href="#DejaVuSans-29" transform="translate(131.884766 0.125)"/>
     </g>
    </g>
    <g id="line2d_18">
     <path d="M 59.14375 79.472813 
L 69.14375 79.472813 
L 79.14375 79.472813 
" style="fill: none; stroke-dasharray: 5.55,2.4; stroke-dashoffset: 0; stroke: #808080; stroke-width: 1.5"/>
    </g>
    <g id="text_10">
     <!-- $I_{\max}$ -->
     <g transform="translate(87.14375 82.972813) scale(0.1 -0.1)">
      <defs>
       <path id="DejaVuSans-6d" d="M 3328 2828 
Q 3544 3216 3844 3400 
Q 4144 3584 4550 3584 
Q 5097 3584 5394 3201 
Q 5691 2819 5691 2113 
L 5691 0 
L 5113 0 
L 5113 2094 
Q 5113 2597 4934 2840 
Q 4756 3084 4391 3084 
Q 3944 3084 3684 2787 
Q 3425 2491 3425 1978 
L 3425 0 
L 2847 0 
L 2847 2094 
Q 2847 2600 2669 2842 
Q 2491 3084 2119 3084 
Q 1678 3084 1418 2786 
Q 1159 2488 1159 1978 
L 1159 0 
L 581 0 
L 581 3500 
L 1159 3500 
L 1159 2956 
Q 1356 3278 1631 3431 
Q 1906 3584 2284 3584 
Q 2666 3584 2933 3390 
Q 3200 3197 3328 2828 
z
" transform="scale(0.015625)"/>
      </defs>
      <use xlink:href="#DejaVuSans-Oblique-49" transform="translate(0 0.09375)"/>
      <use xlink:href="#DejaVuSans-6d" transform="translate(29.492188 -16.3125) scale(0.7)"/>
      <use xlink:href="#DejaVuSans-61" transform="translate(97.680664 -16.3125) scale(0.7)"/>
      <use xlink:href="#DejaVuSans-78" transform="translate(140.576172 -16.3125) scale(0.7)"/>
     </g>
    </g>
   </g>
  </g>
  <g id="axes_2">
   <g id="patch_8">
    <path d="M 348.79375 110.318125 
L 630.532055 110.318125 
L 630.532055 22.318125 
L 348.79375 22.318125 
z
" style="fill: #ffffff"/>
   </g>
   <g id="matplotlib.axis_3">
    <g id="xtick_7">
     <g id="line2d_19">
      <g>
       <use xlink:href="#m89e6c7f887" x="361.600037" y="110.318125" style="stroke: #000000; stroke-width: 0.8"/>
      </g>
     </g>
    </g>
    <g id="xtick_8">
     <g id="line2d_20">
      <g>
       <use xlink:href="#m89e6c7f887" x="412.876459" y="110.318125" style="stroke: #000000; stroke-width: 0.8"/>
      </g>
     </g>
    </g>
    <g id="xtick_9">
     <g id="line2d_21">
      <g>
       <use xlink:href="#m89e6c7f887" x="464.152882" y="110.318125" style="stroke: #000000; stroke-width: 0.8"/>
      </g>
     </g>
    </g>
    <g id="xtick_10">
     <g id="line2d_22">
      <g>
       <use xlink:href="#m89e6c7f887" x="515.429305" y="110.318125" style="stroke: #000000; stroke-width: 0.8"/>
      </g>
     </g>
    </g>
    <g id="xtick_11">
     <g id="line2d_23">
      <g>
       <use xlink:href="#m89e6c7f887" x="566.705727" y="110.318125" style="stroke: #000000; stroke-width: 0.8"/>
      </g>
     </g>
    </g>
    <g id="xtick_12">
     <g id="line2d_24">
      <g>
       <use xlink:href="#m89e6c7f887" x="617.98215" y="110.318125" style="stroke: #000000; stroke-width: 0.8"/>
      </g>
     </g>
    </g>
   </g>
   <g id="matplotlib.axis_4">
    <g id="ytick_5">
     <g id="line2d_25">
      <g>
       <use xlink:href="#m71dc6abe3a" x="348.79375" y="106.32067" style="stroke: #000000; stroke-width: 0.8"/>
      </g>
     </g>
    </g>
    <g id="ytick_6">
     <g id="line2d_26">
      <g>
       <use xlink:href="#m71dc6abe3a" x="348.79375" y="80.893367" style="stroke: #000000; stroke-width: 0.8"/>
      </g>
     </g>
    </g>
    <g id="ytick_7">
     <g id="line2d_27">
      <g>
       <use xlink:href="#m71dc6abe3a" x="348.79375" y="55.466064" style="stroke: #000000; stroke-width: 0.8"/>
      </g>
     </g>
    </g>
    <g id="ytick_8">
     <g id="line2d_28">
      <g>
       <use xlink:href="#m71dc6abe3a" x="348.79375" y="30.038761" style="stroke: #000000; stroke-width: 0.8"/>
      </g>
     </g>
    </g>
   </g>
   <g id="line2d_29">
    <path d="M 361.600037 106.294557 
L 380.572313 106.133158 
L 389.289305 105.856873 
L 395.186093 105.464996 
L 399.800972 104.939055 
L 403.390321 104.315512 
L 406.466906 103.561862 
L 409.030728 102.722165 
L 411.338167 101.750798 
L 413.389224 100.670319 
L 415.44028 99.33587 
L 417.234955 97.913894 
L 419.02963 96.207194 
L 420.824305 94.189657 
L 422.61898 91.838298 
L 424.413654 89.144233 
L 426.464711 85.674978 
L 429.541297 79.946617 
L 432.617882 74.304156 
L 434.412557 71.473898 
L 435.95085 69.499002 
L 437.23276 68.225506 
L 438.514671 67.302003 
L 439.540199 66.805351 
L 440.82211 66.458643 
L 442.10402 66.372926 
L 443.642313 66.54067 
L 445.436988 66.996772 
L 448.000809 67.90692 
L 453.897597 70.068854 
L 456.974183 70.938967 
L 460.30715 71.637553 
L 463.8965 72.146556 
L 467.998614 72.49921 
L 473.63902 72.740819 
L 484.663451 72.929112 
L 504.917638 73.331899 
L 560.039793 74.537393 
L 612.341744 75.42921 
L 617.725768 75.509185 
L 617.725768 75.509185 
" clip-path="url(#pee8484545e)" style="fill: none; stroke: #1f77b4; stroke-width: 1.5; stroke-linecap: square"/>
   </g>
   <g id="line2d_30">
    <path d="M 361.600037 103.77794 
L 418.516866 103.731638 
L 420.055158 102.727726 
L 421.337069 101.62768 
L 422.61898 100.213727 
L 423.90089 98.433625 
L 425.182801 96.218639 
L 426.464711 93.50196 
L 427.746622 90.23296 
L 429.028532 86.385476 
L 430.566825 81.027171 
L 432.3615 73.919786 
L 438.258289 49.734292 
L 439.796581 44.8244 
L 441.078492 41.486713 
L 442.10402 39.324738 
L 443.129549 37.599972 
L 444.155077 36.283616 
L 445.180606 35.337186 
L 446.206134 34.716335 
L 447.231663 34.37541 
L 448.257191 34.269342 
L 449.539102 34.402909 
L 450.821012 34.76343 
L 452.615687 35.530982 
L 455.179508 36.920179 
L 461.845443 40.659924 
L 464.922028 42.089609 
L 467.998614 43.27664 
L 471.331581 44.315026 
L 474.920931 45.201595 
L 479.279427 46.048824 
L 485.432597 46.99956 
L 498.508085 48.73037 
L 525.171825 52.08278 
L 542.605809 54.023009 
L 560.808939 55.824227 
L 580.29398 57.533972 
L 601.573695 59.176655 
L 617.725768 60.285991 
L 617.725768 60.285991 
" clip-path="url(#pee8484545e)" style="fill: none; stroke: #ff7f0e; stroke-opacity: 0.5; stroke-width: 1.5; stroke-linecap: square"/>
   </g>
   <g id="line2d_31">
    <path d="M 361.600037 106.318125 
L 412.620077 106.211001 
L 418.260484 105.974575 
L 421.593451 105.636082 
L 424.413654 105.128938 
L 426.721093 104.49263 
L 429.028532 103.608588 
L 431.335971 102.469235 
L 434.412557 100.657848 
L 439.283817 97.764432 
L 441.847638 96.52145 
L 444.155077 95.646057 
L 446.462516 95.013265 
L 448.769955 94.612892 
L 451.333776 94.406688 
L 454.15398 94.406883 
L 457.999711 94.653092 
L 467.229467 95.579916 
L 474.920931 96.204278 
L 483.894305 96.690302 
L 499.789996 97.281369 
L 532.863288 98.277402 
L 565.680199 99.033019 
L 605.163045 99.710574 
L 617.725768 99.886095 
L 617.725768 99.886095 
" clip-path="url(#pee8484545e)" style="fill: none; stroke-dasharray: 5.55,2.4; stroke-dashoffset: 0; stroke: #ff0000; stroke-width: 1.5"/>
   </g>
   <g id="line2d_32">
    <path d="M 361.600037 55.466064 
L 617.725768 55.466064 
L 617.725768 55.466064 
" clip-path="url(#pee8484545e)" style="fill: none; stroke-dasharray: 5.55,2.4; stroke-dashoffset: 0; stroke: #808080; stroke-width: 1.5"/>
   </g>
   <g id="patch_9">
    <path d="M 348.79375 110.318125 
L 348.79375 22.318125 
" style="fill: none; stroke: #000000; stroke-width: 0.8; stroke-linejoin: miter; stroke-linecap: square"/>
   </g>
   <g id="patch_10">
    <path d="M 630.532055 110.318125 
L 630.532055 22.318125 
" style="fill: none; stroke: #000000; stroke-width: 0.8; stroke-linejoin: miter; stroke-linecap: square"/>
   </g>
   <g id="patch_11">
    <path d="M 348.79375 110.318125 
L 630.532055 110.318125 
" style="fill: none; stroke: #000000; stroke-width: 0.8; stroke-linejoin: miter; stroke-linecap: square"/>
   </g>
   <g id="patch_12">
    <path d="M 348.79375 22.318125 
L 630.532055 22.318125 
" style="fill: none; stroke: #000000; stroke-width: 0.8; stroke-linejoin: miter; stroke-linecap: square"/>
   </g>
   <g id="text_11">
    <!-- LSTM Predictions -->
    <g transform="translate(438.83259 16.318125) scale(0.12 -0.12)">
     <defs>
      <path id="DejaVuSans-4c" d="M 628 4666 
L 1259 4666 
L 1259 531 
L 3531 531 
L 3531 0 
L 628 0 
L 628 4666 
z
" transform="scale(0.015625)"/>
      <path id="DejaVuSans-53" d="M 3425 4513 
L 3425 3897 
Q 3066 4069 2747 4153 
Q 2428 4238 2131 4238 
Q 1616 4238 1336 4038 
Q 1056 3838 1056 3469 
Q 1056 3159 1242 3001 
Q 1428 2844 1947 2747 
L 2328 2669 
Q 3034 2534 3370 2195 
Q 3706 1856 3706 1288 
Q 3706 609 3251 259 
Q 2797 -91 1919 -91 
Q 1588 -91 1214 -16 
Q 841 59 441 206 
L 441 856 
Q 825 641 1194 531 
Q 1563 422 1919 422 
Q 2459 422 2753 634 
Q 3047 847 3047 1241 
Q 3047 1584 2836 1778 
Q 2625 1972 2144 2069 
L 1759 2144 
Q 1053 2284 737 2584 
Q 422 2884 422 3419 
Q 422 4038 858 4394 
Q 1294 4750 2059 4750 
Q 2388 4750 2728 4690 
Q 3069 4631 3425 4513 
z
" transform="scale(0.015625)"/>
      <path id="DejaVuSans-4d" d="M 628 4666 
L 1569 4666 
L 2759 1491 
L 3956 4666 
L 4897 4666 
L 4897 0 
L 4281 0 
L 4281 4097 
L 3078 897 
L 2444 897 
L 1241 4097 
L 1241 0 
L 628 0 
L 628 4666 
z
" transform="scale(0.015625)"/>
     </defs>
     <use xlink:href="#DejaVuSans-4c"/>
     <use xlink:href="#DejaVuSans-53" x="55.712891"/>
     <use xlink:href="#DejaVuSans-54" x="119.189453"/>
     <use xlink:href="#DejaVuSans-4d" x="180.273438"/>
     <use xlink:href="#DejaVuSans-20" x="266.552734"/>
     <use xlink:href="#DejaVuSans-50" x="298.339844"/>
     <use xlink:href="#DejaVuSans-72" x="356.892578"/>
     <use xlink:href="#DejaVuSans-65" x="395.755859"/>
     <use xlink:href="#DejaVuSans-64" x="457.279297"/>
     <use xlink:href="#DejaVuSans-69" x="520.755859"/>
     <use xlink:href="#DejaVuSans-63" x="548.539062"/>
     <use xlink:href="#DejaVuSans-74" x="603.519531"/>
     <use xlink:href="#DejaVuSans-69" x="642.728516"/>
     <use xlink:href="#DejaVuSans-6f" x="670.511719"/>
     <use xlink:href="#DejaVuSans-6e" x="731.693359"/>
     <use xlink:href="#DejaVuSans-73" x="795.072266"/>
    </g>
   </g>
   <g id="legend_2">
    <g id="patch_13">
     <path d="M 355.79375 89.0525 
L 406.29375 89.0525 
Q 408.29375 89.0525 408.29375 87.0525 
L 408.29375 29.318125 
Q 408.29375 27.318125 406.29375 27.318125 
L 355.79375 27.318125 
Q 353.79375 27.318125 353.79375 29.318125 
L 353.79375 87.0525 
Q 353.79375 89.0525 355.79375 89.0525 
z
" style="fill: #ffffff; opacity: 0.8; stroke: #cccccc; stroke-linejoin: miter"/>
    </g>
    <g id="line2d_33">
     <path d="M 357.79375 35.416562 
L 367.79375 35.416562 
L 377.79375 35.416562 
" style="fill: none; stroke: #1f77b4; stroke-width: 1.5; stroke-linecap: square"/>
    </g>
    <g id="text_12">
     <!-- $I$ -->
     <g transform="translate(385.79375 38.916562) scale(0.1 -0.1)">
      <use xlink:href="#DejaVuSans-Oblique-49" transform="translate(0 0.09375)"/>
     </g>
    </g>
    <g id="line2d_34">
     <path d="M 357.79375 50.094688 
L 367.79375 50.094688 
L 377.79375 50.094688 
" style="fill: none; stroke: #ff7f0e; stroke-opacity: 0.5; stroke-width: 1.5; stroke-linecap: square"/>
    </g>
    <g id="text_13">
     <!-- $u$ -->
     <g transform="translate(385.79375 53.594688) scale(0.1 -0.1)">
      <use xlink:href="#DejaVuSans-Oblique-75" transform="translate(0 0.3125)"/>
     </g>
    </g>
    <g id="line2d_35">
     <path d="M 357.79375 64.774375 
L 367.79375 64.774375 
L 377.79375 64.774375 
" style="fill: none; stroke-dasharray: 5.55,2.4; stroke-dashoffset: 0; stroke: #ff0000; stroke-width: 1.5"/>
    </g>
    <g id="text_14">
     <!-- $J(u)$ -->
     <g transform="translate(385.79375 68.274375) scale(0.1 -0.1)">
      <use xlink:href="#DejaVuSans-Oblique-4a" transform="translate(0 0.125)"/>
      <use xlink:href="#DejaVuSans-28" transform="translate(29.492188 0.125)"/>
      <use xlink:href="#DejaVuSans-Oblique-75" transform="translate(68.505859 0.125)"/>
      <use xlink:href="#DejaVuSans-29" transform="translate(131.884766 0.125)"/>
     </g>
    </g>
    <g id="line2d_36">
     <path d="M 357.79375 79.472813 
L 367.79375 79.472813 
L 377.79375 79.472813 
" style="fill: none; stroke-dasharray: 5.55,2.4; stroke-dashoffset: 0; stroke: #808080; stroke-width: 1.5"/>
    </g>
    <g id="text_15">
     <!-- $I_{\max}$ -->
     <g transform="translate(385.79375 82.972813) scale(0.1 -0.1)">
      <use xlink:href="#DejaVuSans-Oblique-49" transform="translate(0 0.09375)"/>
      <use xlink:href="#DejaVuSans-6d" transform="translate(29.492188 -16.3125) scale(0.7)"/>
      <use xlink:href="#DejaVuSans-61" transform="translate(97.680664 -16.3125) scale(0.7)"/>
      <use xlink:href="#DejaVuSans-78" transform="translate(140.576172 -16.3125) scale(0.7)"/>
     </g>
    </g>
   </g>
  </g>
  <g id="axes_3">
   <g id="patch_14">
    <path d="M 50.14375 212.618125 
L 331.882055 212.618125 
L 331.882055 124.618125 
L 50.14375 124.618125 
z
" style="fill: #ffffff"/>
   </g>
   <g id="matplotlib.axis_5">
    <g id="xtick_13">
     <g id="line2d_37">
      <g>
       <use xlink:href="#m89e6c7f887" x="62.950037" y="212.618125" style="stroke: #000000; stroke-width: 0.8"/>
      </g>
     </g>
    </g>
    <g id="xtick_14">
     <g id="line2d_38">
      <g>
       <use xlink:href="#m89e6c7f887" x="114.226459" y="212.618125" style="stroke: #000000; stroke-width: 0.8"/>
      </g>
     </g>
    </g>
    <g id="xtick_15">
     <g id="line2d_39">
      <g>
       <use xlink:href="#m89e6c7f887" x="165.502882" y="212.618125" style="stroke: #000000; stroke-width: 0.8"/>
      </g>
     </g>
    </g>
    <g id="xtick_16">
     <g id="line2d_40">
      <g>
       <use xlink:href="#m89e6c7f887" x="216.779305" y="212.618125" style="stroke: #000000; stroke-width: 0.8"/>
      </g>
     </g>
    </g>
    <g id="xtick_17">
     <g id="line2d_41">
      <g>
       <use xlink:href="#m89e6c7f887" x="268.055727" y="212.618125" style="stroke: #000000; stroke-width: 0.8"/>
      </g>
     </g>
    </g>
    <g id="xtick_18">
     <g id="line2d_42">
      <g>
       <use xlink:href="#m89e6c7f887" x="319.33215" y="212.618125" style="stroke: #000000; stroke-width: 0.8"/>
      </g>
     </g>
    </g>
   </g>
   <g id="matplotlib.axis_6">
    <g id="ytick_9">
     <g id="line2d_43">
      <g>
       <use xlink:href="#m71dc6abe3a" x="50.14375" y="208.62067" style="stroke: #000000; stroke-width: 0.8"/>
      </g>
     </g>
     <g id="text_16">
      <!-- 0.00 -->
      <g transform="translate(20.878125 212.419889) scale(0.1 -0.1)">
       <use xlink:href="#DejaVuSans-30"/>
       <use xlink:href="#DejaVuSans-2e" x="63.623047"/>
       <use xlink:href="#DejaVuSans-30" x="95.410156"/>
       <use xlink:href="#DejaVuSans-30" x="159.033203"/>
      </g>
     </g>
    </g>
    <g id="ytick_10">
     <g id="line2d_44">
      <g>
       <use xlink:href="#m71dc6abe3a" x="50.14375" y="183.193367" style="stroke: #000000; stroke-width: 0.8"/>
      </g>
     </g>
     <g id="text_17">
      <!-- 0.01 -->
      <g transform="translate(20.878125 186.992586) scale(0.1 -0.1)">
       <use xlink:href="#DejaVuSans-30"/>
       <use xlink:href="#DejaVuSans-2e" x="63.623047"/>
       <use xlink:href="#DejaVuSans-30" x="95.410156"/>
       <use xlink:href="#DejaVuSans-31" x="159.033203"/>
      </g>
     </g>
    </g>
    <g id="ytick_11">
     <g id="line2d_45">
      <g>
       <use xlink:href="#m71dc6abe3a" x="50.14375" y="157.766064" style="stroke: #000000; stroke-width: 0.8"/>
      </g>
     </g>
     <g id="text_18">
      <!-- 0.02 -->
      <g transform="translate(20.878125 161.565283) scale(0.1 -0.1)">
       <use xlink:href="#DejaVuSans-30"/>
       <use xlink:href="#DejaVuSans-2e" x="63.623047"/>
       <use xlink:href="#DejaVuSans-30" x="95.410156"/>
       <use xlink:href="#DejaVuSans-32" x="159.033203"/>
      </g>
     </g>
    </g>
    <g id="ytick_12">
     <g id="line2d_46">
      <g>
       <use xlink:href="#m71dc6abe3a" x="50.14375" y="132.338761" style="stroke: #000000; stroke-width: 0.8"/>
      </g>
     </g>
     <g id="text_19">
      <!-- 0.03 -->
      <g transform="translate(20.878125 136.13798) scale(0.1 -0.1)">
       <use xlink:href="#DejaVuSans-30"/>
       <use xlink:href="#DejaVuSans-2e" x="63.623047"/>
       <use xlink:href="#DejaVuSans-30" x="95.410156"/>
       <use xlink:href="#DejaVuSans-33" x="159.033203"/>
      </g>
     </g>
    </g>
    <g id="text_20">
     <!-- Propagation -->
     <g transform="translate(14.798438 198.601719) rotate(-90) scale(0.1 -0.1)">
      <defs>
       <path id="DejaVuSans-70" d="M 1159 525 
L 1159 -1331 
L 581 -1331 
L 581 3500 
L 1159 3500 
L 1159 2969 
Q 1341 3281 1617 3432 
Q 1894 3584 2278 3584 
Q 2916 3584 3314 3078 
Q 3713 2572 3713 1747 
Q 3713 922 3314 415 
Q 2916 -91 2278 -91 
Q 1894 -91 1617 61 
Q 1341 213 1159 525 
z
M 3116 1747 
Q 3116 2381 2855 2742 
Q 2594 3103 2138 3103 
Q 1681 3103 1420 2742 
Q 1159 2381 1159 1747 
Q 1159 1113 1420 752 
Q 1681 391 2138 391 
Q 2594 391 2855 752 
Q 3116 1113 3116 1747 
z
" transform="scale(0.015625)"/>
       <path id="DejaVuSans-67" d="M 2906 1791 
Q 2906 2416 2648 2759 
Q 2391 3103 1925 3103 
Q 1463 3103 1205 2759 
Q 947 2416 947 1791 
Q 947 1169 1205 825 
Q 1463 481 1925 481 
Q 2391 481 2648 825 
Q 2906 1169 2906 1791 
z
M 3481 434 
Q 3481 -459 3084 -895 
Q 2688 -1331 1869 -1331 
Q 1566 -1331 1297 -1286 
Q 1028 -1241 775 -1147 
L 775 -588 
Q 1028 -725 1275 -790 
Q 1522 -856 1778 -856 
Q 2344 -856 2625 -561 
Q 2906 -266 2906 331 
L 2906 616 
Q 2728 306 2450 153 
Q 2172 0 1784 0 
Q 1141 0 747 490 
Q 353 981 353 1791 
Q 353 2603 747 3093 
Q 1141 3584 1784 3584 
Q 2172 3584 2450 3431 
Q 2728 3278 2906 2969 
L 2906 3500 
L 3481 3500 
L 3481 434 
z
" transform="scale(0.015625)"/>
      </defs>
      <use xlink:href="#DejaVuSans-50"/>
      <use xlink:href="#DejaVuSans-72" x="58.552734"/>
      <use xlink:href="#DejaVuSans-6f" x="97.416016"/>
      <use xlink:href="#DejaVuSans-70" x="158.597656"/>
      <use xlink:href="#DejaVuSans-61" x="222.074219"/>
      <use xlink:href="#DejaVuSans-67" x="283.353516"/>
      <use xlink:href="#DejaVuSans-61" x="346.830078"/>
      <use xlink:href="#DejaVuSans-74" x="408.109375"/>
      <use xlink:href="#DejaVuSans-69" x="447.318359"/>
      <use xlink:href="#DejaVuSans-6f" x="475.101562"/>
      <use xlink:href="#DejaVuSans-6e" x="536.283203"/>
     </g>
    </g>
   </g>
   <g id="line2d_47">
    <path d="M 62.950037 208.594557 
L 81.922313 208.433158 
L 90.639305 208.156873 
L 96.536093 207.764996 
L 101.150972 207.239055 
L 104.740321 206.615512 
L 107.816906 205.861862 
L 110.380728 205.022165 
L 112.688167 204.050798 
L 114.739224 202.970319 
L 116.79028 201.63587 
L 118.584955 200.213894 
L 120.37963 198.517953 
L 122.174305 196.528224 
L 123.96898 194.228523 
L 126.020037 191.233342 
L 128.583858 187.068314 
L 132.173207 181.217187 
L 133.7115 179.097597 
L 134.993411 177.670933 
L 136.018939 176.798435 
L 137.044467 176.183374 
L 138.069996 175.825856 
L 139.095524 175.710437 
L 140.121053 175.809005 
L 141.402963 176.177314 
L 142.941256 176.875266 
L 145.505077 178.338219 
L 149.094427 180.358037 
L 151.658248 181.524801 
L 153.965687 182.337154 
L 156.529508 182.997197 
L 159.349711 183.479224 
L 162.682679 183.802233 
L 166.784793 183.962409 
L 173.70711 183.969675 
L 186.526215 183.987705 
L 201.139996 184.296206 
L 232.162232 184.944329 
L 284.464183 185.770655 
L 319.075768 186.205019 
L 319.075768 186.205019 
" clip-path="url(#p2a0f5544e1)" style="fill: none; stroke: #1f77b4; stroke-width: 1.5; stroke-linecap: square"/>
   </g>
   <g id="line2d_48">
    <path d="M 62.950037 206.07794 
L 118.841337 206.061762 
L 120.37963 205.087041 
L 121.661541 204.001578 
L 122.943451 202.594453 
L 124.225362 200.782566 
L 125.507272 198.48427 
L 126.789183 195.606707 
L 128.071093 192.058855 
L 129.353004 187.771959 
L 130.634915 182.719246 
L 132.173207 175.704453 
L 134.224264 165.154639 
L 137.557232 147.834594 
L 139.095524 141.12573 
L 140.377435 136.614025 
L 141.402963 133.79192 
L 142.428492 131.672739 
L 143.197638 130.522212 
L 143.966784 129.71806 
L 144.735931 129.226653 
L 145.505077 129.010906 
L 146.274224 129.032559 
L 147.04337 129.255312 
L 148.068898 129.804183 
L 149.350809 130.784373 
L 151.145484 132.487549 
L 157.298654 138.626882 
L 159.606093 140.497423 
L 161.65715 141.881201 
L 163.708207 143.009994 
L 166.015646 144.004718 
L 168.323085 144.750648 
L 170.886906 145.350594 
L 173.963492 145.832164 
L 178.065606 146.222731 
L 200.883614 147.987035 
L 228.572882 150.739426 
L 248.057923 152.358993 
L 270.619549 154.013526 
L 294.463085 155.538598 
L 319.075768 156.904228 
L 319.075768 156.904228 
" clip-path="url(#p2a0f5544e1)" style="fill: none; stroke: #ff7f0e; stroke-opacity: 0.5; stroke-width: 1.5; stroke-linecap: square"/>
   </g>
   <g id="line2d_49">
    <path d="M 62.950037 208.618125 
L 113.970077 208.511001 
L 119.610484 208.273805 
L 123.199833 207.901399 
L 126.020037 207.379757 
L 128.327476 206.738385 
L 130.634915 205.871764 
L 133.198736 204.668565 
L 139.864671 201.382596 
L 141.915728 200.679248 
L 143.966784 200.210535 
L 146.017841 199.969529 
L 148.32528 199.92791 
L 151.145484 200.110889 
L 155.760362 200.675195 
L 163.451825 201.600349 
L 169.092232 202.032889 
L 176.014549 202.325652 
L 188.833654 202.592191 
L 265.235524 203.832005 
L 318.563004 204.356096 
L 319.075768 204.360212 
L 319.075768 204.360212 
" clip-path="url(#p2a0f5544e1)" style="fill: none; stroke-dasharray: 5.55,2.4; stroke-dashoffset: 0; stroke: #ff0000; stroke-width: 1.5"/>
   </g>
   <g id="line2d_50">
    <path d="M 62.950037 157.766064 
L 319.075768 157.766064 
L 319.075768 157.766064 
" clip-path="url(#p2a0f5544e1)" style="fill: none; stroke-dasharray: 5.55,2.4; stroke-dashoffset: 0; stroke: #808080; stroke-width: 1.5"/>
   </g>
   <g id="patch_15">
    <path d="M 50.14375 212.618125 
L 50.14375 124.618125 
" style="fill: none; stroke: #000000; stroke-width: 0.8; stroke-linejoin: miter; stroke-linecap: square"/>
   </g>
   <g id="patch_16">
    <path d="M 331.882055 212.618125 
L 331.882055 124.618125 
" style="fill: none; stroke: #000000; stroke-width: 0.8; stroke-linejoin: miter; stroke-linecap: square"/>
   </g>
   <g id="patch_17">
    <path d="M 50.14375 212.618125 
L 331.882055 212.618125 
" style="fill: none; stroke: #000000; stroke-width: 0.8; stroke-linejoin: miter; stroke-linecap: square"/>
   </g>
   <g id="patch_18">
    <path d="M 50.14375 124.618125 
L 331.882055 124.618125 
" style="fill: none; stroke: #000000; stroke-width: 0.8; stroke-linejoin: miter; stroke-linecap: square"/>
   </g>
   <g id="legend_3">
    <g id="patch_19">
     <path d="M 57.14375 191.3525 
L 107.64375 191.3525 
Q 109.64375 191.3525 109.64375 189.3525 
L 109.64375 131.618125 
Q 109.64375 129.618125 107.64375 129.618125 
L 57.14375 129.618125 
Q 55.14375 129.618125 55.14375 131.618125 
L 55.14375 189.3525 
Q 55.14375 191.3525 57.14375 191.3525 
z
" style="fill: #ffffff; opacity: 0.8; stroke: #cccccc; stroke-linejoin: miter"/>
    </g>
    <g id="line2d_51">
     <path d="M 59.14375 137.716562 
L 69.14375 137.716562 
L 79.14375 137.716562 
" style="fill: none; stroke: #1f77b4; stroke-width: 1.5; stroke-linecap: square"/>
    </g>
    <g id="text_21">
     <!-- $I$ -->
     <g transform="translate(87.14375 141.216562) scale(0.1 -0.1)">
      <use xlink:href="#DejaVuSans-Oblique-49" transform="translate(0 0.09375)"/>
     </g>
    </g>
    <g id="line2d_52">
     <path d="M 59.14375 152.394687 
L 69.14375 152.394687 
L 79.14375 152.394687 
" style="fill: none; stroke: #ff7f0e; stroke-opacity: 0.5; stroke-width: 1.5; stroke-linecap: square"/>
    </g>
    <g id="text_22">
     <!-- $u$ -->
     <g transform="translate(87.14375 155.894687) scale(0.1 -0.1)">
      <use xlink:href="#DejaVuSans-Oblique-75" transform="translate(0 0.3125)"/>
     </g>
    </g>
    <g id="line2d_53">
     <path d="M 59.14375 167.074375 
L 69.14375 167.074375 
L 79.14375 167.074375 
" style="fill: none; stroke-dasharray: 5.55,2.4; stroke-dashoffset: 0; stroke: #ff0000; stroke-width: 1.5"/>
    </g>
    <g id="text_23">
     <!-- $J(u)$ -->
     <g transform="translate(87.14375 170.574375) scale(0.1 -0.1)">
      <use xlink:href="#DejaVuSans-Oblique-4a" transform="translate(0 0.125)"/>
      <use xlink:href="#DejaVuSans-28" transform="translate(29.492188 0.125)"/>
      <use xlink:href="#DejaVuSans-Oblique-75" transform="translate(68.505859 0.125)"/>
      <use xlink:href="#DejaVuSans-29" transform="translate(131.884766 0.125)"/>
     </g>
    </g>
    <g id="line2d_54">
     <path d="M 59.14375 181.772812 
L 69.14375 181.772812 
L 79.14375 181.772812 
" style="fill: none; stroke-dasharray: 5.55,2.4; stroke-dashoffset: 0; stroke: #808080; stroke-width: 1.5"/>
    </g>
    <g id="text_24">
     <!-- $I_{\max}$ -->
     <g transform="translate(87.14375 185.272812) scale(0.1 -0.1)">
      <use xlink:href="#DejaVuSans-Oblique-49" transform="translate(0 0.09375)"/>
      <use xlink:href="#DejaVuSans-6d" transform="translate(29.492188 -16.3125) scale(0.7)"/>
      <use xlink:href="#DejaVuSans-61" transform="translate(97.680664 -16.3125) scale(0.7)"/>
      <use xlink:href="#DejaVuSans-78" transform="translate(140.576172 -16.3125) scale(0.7)"/>
     </g>
    </g>
   </g>
  </g>
  <g id="axes_4">
   <g id="patch_20">
    <path d="M 348.79375 212.618125 
L 630.532055 212.618125 
L 630.532055 124.618125 
L 348.79375 124.618125 
z
" style="fill: #ffffff"/>
   </g>
   <g id="matplotlib.axis_7">
    <g id="xtick_19">
     <g id="line2d_55">
      <g>
       <use xlink:href="#m89e6c7f887" x="361.600037" y="212.618125" style="stroke: #000000; stroke-width: 0.8"/>
      </g>
     </g>
    </g>
    <g id="xtick_20">
     <g id="line2d_56">
      <g>
       <use xlink:href="#m89e6c7f887" x="412.876459" y="212.618125" style="stroke: #000000; stroke-width: 0.8"/>
      </g>
     </g>
    </g>
    <g id="xtick_21">
     <g id="line2d_57">
      <g>
       <use xlink:href="#m89e6c7f887" x="464.152882" y="212.618125" style="stroke: #000000; stroke-width: 0.8"/>
      </g>
     </g>
    </g>
    <g id="xtick_22">
     <g id="line2d_58">
      <g>
       <use xlink:href="#m89e6c7f887" x="515.429305" y="212.618125" style="stroke: #000000; stroke-width: 0.8"/>
      </g>
     </g>
    </g>
    <g id="xtick_23">
     <g id="line2d_59">
      <g>
       <use xlink:href="#m89e6c7f887" x="566.705727" y="212.618125" style="stroke: #000000; stroke-width: 0.8"/>
      </g>
     </g>
    </g>
    <g id="xtick_24">
     <g id="line2d_60">
      <g>
       <use xlink:href="#m89e6c7f887" x="617.98215" y="212.618125" style="stroke: #000000; stroke-width: 0.8"/>
      </g>
     </g>
    </g>
   </g>
   <g id="matplotlib.axis_8">
    <g id="ytick_13">
     <g id="line2d_61">
      <g>
       <use xlink:href="#m71dc6abe3a" x="348.79375" y="208.62067" style="stroke: #000000; stroke-width: 0.8"/>
      </g>
     </g>
    </g>
    <g id="ytick_14">
     <g id="line2d_62">
      <g>
       <use xlink:href="#m71dc6abe3a" x="348.79375" y="183.193367" style="stroke: #000000; stroke-width: 0.8"/>
      </g>
     </g>
    </g>
    <g id="ytick_15">
     <g id="line2d_63">
      <g>
       <use xlink:href="#m71dc6abe3a" x="348.79375" y="157.766064" style="stroke: #000000; stroke-width: 0.8"/>
      </g>
     </g>
    </g>
    <g id="ytick_16">
     <g id="line2d_64">
      <g>
       <use xlink:href="#m71dc6abe3a" x="348.79375" y="132.338761" style="stroke: #000000; stroke-width: 0.8"/>
      </g>
     </g>
    </g>
   </g>
   <g id="line2d_65">
    <path d="M 361.600037 208.594557 
L 380.572313 208.433158 
L 389.289305 208.156873 
L 395.186093 207.764996 
L 399.800972 207.239055 
L 403.390321 206.615512 
L 406.466906 205.861862 
L 409.030728 205.022165 
L 411.338167 204.050798 
L 413.389224 202.970319 
L 415.44028 201.63587 
L 417.234955 200.213894 
L 419.02963 198.507083 
L 420.824305 196.489078 
L 422.61898 194.136668 
L 424.413654 191.440167 
L 426.464711 187.964234 
L 429.284915 182.698407 
L 432.874264 176.045139 
L 434.668939 173.207717 
L 436.207232 171.227225 
L 437.489142 169.948105 
L 438.771053 169.018361 
L 439.796581 168.517057 
L 441.078492 168.166277 
L 442.360402 168.079784 
L 443.642313 168.206093 
L 445.436988 168.64185 
L 447.744427 169.462034 
L 454.923126 172.167459 
L 457.999711 173.02097 
L 461.076297 173.652093 
L 464.665646 174.151362 
L 468.76776 174.491323 
L 474.408167 174.716818 
L 486.458126 174.900138 
L 504.917638 175.270297 
L 561.578085 176.533168 
L 613.623654 177.436424 
L 617.725768 177.498722 
L 617.725768 177.498722 
" clip-path="url(#p3e6489c211)" style="fill: none; stroke: #1f77b4; stroke-width: 1.5; stroke-linecap: square"/>
   </g>
   <g id="line2d_66">
    <path d="M 361.600037 206.07794 
L 418.516866 206.04058 
L 420.055158 205.041265 
L 421.337069 203.947546 
L 422.61898 202.544926 
L 423.90089 200.783565 
L 425.182801 198.597889 
L 426.464711 195.92494 
L 427.746622 192.718069 
L 429.028532 188.953717 
L 430.566825 183.723016 
L 432.3615 176.790621 
L 438.514671 152.018632 
L 440.052963 147.175022 
L 441.334874 143.85957 
L 442.616784 141.22347 
L 443.642313 139.588706 
L 444.667841 138.346591 
L 445.69337 137.460501 
L 446.718898 136.88895 
L 447.744427 136.588299 
L 448.769955 136.515657 
L 450.051866 136.683849 
L 451.333776 137.07339 
L 453.128451 137.875027 
L 455.692272 139.305053 
L 462.101825 142.990193 
L 465.17841 144.464776 
L 468.254996 145.68927 
L 471.587963 146.758225 
L 475.177313 147.666231 
L 479.535809 148.52668 
L 485.432597 149.444783 
L 497.995321 151.10531 
L 527.735646 154.845253 
L 544.913248 156.741951 
L 563.37276 158.553218 
L 583.370565 160.288491 
L 604.65028 161.909638 
L 617.725768 162.803893 
L 617.725768 162.803893 
" clip-path="url(#p3e6489c211)" style="fill: none; stroke: #ff7f0e; stroke-opacity: 0.5; stroke-width: 1.5; stroke-linecap: square"/>
   </g>
   <g id="line2d_67">
    <path d="M 361.600037 208.618125 
L 412.620077 208.511001 
L 418.260484 208.274575 
L 421.593451 207.936072 
L 424.413654 207.428814 
L 426.721093 206.792105 
L 429.028532 205.906635 
L 431.335971 204.76294 
L 434.156175 203.095216 
L 439.796581 199.696563 
L 442.360402 198.457155 
L 444.667841 197.590295 
L 446.97528 196.971159 
L 449.282719 196.589194 
L 451.846541 196.407398 
L 454.666744 196.436453 
L 458.512476 196.720382 
L 478.253898 198.53862 
L 488.252801 199.01617 
L 510.301662 199.780566 
L 542.093045 200.691091 
L 576.191866 201.431103 
L 616.956622 202.086953 
L 617.725768 202.097456 
L 617.725768 202.097456 
" clip-path="url(#p3e6489c211)" style="fill: none; stroke-dasharray: 5.55,2.4; stroke-dashoffset: 0; stroke: #ff0000; stroke-width: 1.5"/>
   </g>
   <g id="line2d_68">
    <path d="M 361.600037 157.766064 
L 617.725768 157.766064 
L 617.725768 157.766064 
" clip-path="url(#p3e6489c211)" style="fill: none; stroke-dasharray: 5.55,2.4; stroke-dashoffset: 0; stroke: #808080; stroke-width: 1.5"/>
   </g>
   <g id="patch_21">
    <path d="M 348.79375 212.618125 
L 348.79375 124.618125 
" style="fill: none; stroke: #000000; stroke-width: 0.8; stroke-linejoin: miter; stroke-linecap: square"/>
   </g>
   <g id="patch_22">
    <path d="M 630.532055 212.618125 
L 630.532055 124.618125 
" style="fill: none; stroke: #000000; stroke-width: 0.8; stroke-linejoin: miter; stroke-linecap: square"/>
   </g>
   <g id="patch_23">
    <path d="M 348.79375 212.618125 
L 630.532055 212.618125 
" style="fill: none; stroke: #000000; stroke-width: 0.8; stroke-linejoin: miter; stroke-linecap: square"/>
   </g>
   <g id="patch_24">
    <path d="M 348.79375 124.618125 
L 630.532055 124.618125 
" style="fill: none; stroke: #000000; stroke-width: 0.8; stroke-linejoin: miter; stroke-linecap: square"/>
   </g>
   <g id="legend_4">
    <g id="patch_25">
     <path d="M 355.79375 191.3525 
L 406.29375 191.3525 
Q 408.29375 191.3525 408.29375 189.3525 
L 408.29375 131.618125 
Q 408.29375 129.618125 406.29375 129.618125 
L 355.79375 129.618125 
Q 353.79375 129.618125 353.79375 131.618125 
L 353.79375 189.3525 
Q 353.79375 191.3525 355.79375 191.3525 
z
" style="fill: #ffffff; opacity: 0.8; stroke: #cccccc; stroke-linejoin: miter"/>
    </g>
    <g id="line2d_69">
     <path d="M 357.79375 137.716562 
L 367.79375 137.716562 
L 377.79375 137.716562 
" style="fill: none; stroke: #1f77b4; stroke-width: 1.5; stroke-linecap: square"/>
    </g>
    <g id="text_25">
     <!-- $I$ -->
     <g transform="translate(385.79375 141.216562) scale(0.1 -0.1)">
      <use xlink:href="#DejaVuSans-Oblique-49" transform="translate(0 0.09375)"/>
     </g>
    </g>
    <g id="line2d_70">
     <path d="M 357.79375 152.394687 
L 367.79375 152.394687 
L 377.79375 152.394687 
" style="fill: none; stroke: #ff7f0e; stroke-opacity: 0.5; stroke-width: 1.5; stroke-linecap: square"/>
    </g>
    <g id="text_26">
     <!-- $u$ -->
     <g transform="translate(385.79375 155.894687) scale(0.1 -0.1)">
      <use xlink:href="#DejaVuSans-Oblique-75" transform="translate(0 0.3125)"/>
     </g>
    </g>
    <g id="line2d_71">
     <path d="M 357.79375 167.074375 
L 367.79375 167.074375 
L 377.79375 167.074375 
" style="fill: none; stroke-dasharray: 5.55,2.4; stroke-dashoffset: 0; stroke: #ff0000; stroke-width: 1.5"/>
    </g>
    <g id="text_27">
     <!-- $J(u)$ -->
     <g transform="translate(385.79375 170.574375) scale(0.1 -0.1)">
      <use xlink:href="#DejaVuSans-Oblique-4a" transform="translate(0 0.125)"/>
      <use xlink:href="#DejaVuSans-28" transform="translate(29.492188 0.125)"/>
      <use xlink:href="#DejaVuSans-Oblique-75" transform="translate(68.505859 0.125)"/>
      <use xlink:href="#DejaVuSans-29" transform="translate(131.884766 0.125)"/>
     </g>
    </g>
    <g id="line2d_72">
     <path d="M 357.79375 181.772812 
L 367.79375 181.772812 
L 377.79375 181.772812 
" style="fill: none; stroke-dasharray: 5.55,2.4; stroke-dashoffset: 0; stroke: #808080; stroke-width: 1.5"/>
    </g>
    <g id="text_28">
     <!-- $I_{\max}$ -->
     <g transform="translate(385.79375 185.272812) scale(0.1 -0.1)">
      <use xlink:href="#DejaVuSans-Oblique-49" transform="translate(0 0.09375)"/>
      <use xlink:href="#DejaVuSans-6d" transform="translate(29.492188 -16.3125) scale(0.7)"/>
      <use xlink:href="#DejaVuSans-61" transform="translate(97.680664 -16.3125) scale(0.7)"/>
      <use xlink:href="#DejaVuSans-78" transform="translate(140.576172 -16.3125) scale(0.7)"/>
     </g>
    </g>
   </g>
  </g>
  <g id="axes_5">
   <g id="patch_26">
    <path d="M 50.14375 314.918125 
L 331.882055 314.918125 
L 331.882055 226.918125 
L 50.14375 226.918125 
z
" style="fill: #ffffff"/>
   </g>
   <g id="matplotlib.axis_9">
    <g id="xtick_25">
     <g id="line2d_73">
      <g>
       <use xlink:href="#m89e6c7f887" x="62.950037" y="314.918125" style="stroke: #000000; stroke-width: 0.8"/>
      </g>
     </g>
     <g id="text_29">
      <!-- 0 -->
      <g transform="translate(59.768787 329.516563) scale(0.1 -0.1)">
       <use xlink:href="#DejaVuSans-30"/>
      </g>
     </g>
    </g>
    <g id="xtick_26">
     <g id="line2d_74">
      <g>
       <use xlink:href="#m89e6c7f887" x="114.226459" y="314.918125" style="stroke: #000000; stroke-width: 0.8"/>
      </g>
     </g>
     <g id="text_30">
      <!-- 200 -->
      <g transform="translate(104.682709 329.516563) scale(0.1 -0.1)">
       <use xlink:href="#DejaVuSans-32"/>
       <use xlink:href="#DejaVuSans-30" x="63.623047"/>
       <use xlink:href="#DejaVuSans-30" x="127.246094"/>
      </g>
     </g>
    </g>
    <g id="xtick_27">
     <g id="line2d_75">
      <g>
       <use xlink:href="#m89e6c7f887" x="165.502882" y="314.918125" style="stroke: #000000; stroke-width: 0.8"/>
      </g>
     </g>
     <g id="text_31">
      <!-- 400 -->
      <g transform="translate(155.959132 329.516563) scale(0.1 -0.1)">
       <defs>
        <path id="DejaVuSans-34" d="M 2419 4116 
L 825 1625 
L 2419 1625 
L 2419 4116 
z
M 2253 4666 
L 3047 4666 
L 3047 1625 
L 3713 1625 
L 3713 1100 
L 3047 1100 
L 3047 0 
L 2419 0 
L 2419 1100 
L 313 1100 
L 313 1709 
L 2253 4666 
z
" transform="scale(0.015625)"/>
       </defs>
       <use xlink:href="#DejaVuSans-34"/>
       <use xlink:href="#DejaVuSans-30" x="63.623047"/>
       <use xlink:href="#DejaVuSans-30" x="127.246094"/>
      </g>
     </g>
    </g>
    <g id="xtick_28">
     <g id="line2d_76">
      <g>
       <use xlink:href="#m89e6c7f887" x="216.779305" y="314.918125" style="stroke: #000000; stroke-width: 0.8"/>
      </g>
     </g>
     <g id="text_32">
      <!-- 600 -->
      <g transform="translate(207.235555 329.516563) scale(0.1 -0.1)">
       <defs>
        <path id="DejaVuSans-36" d="M 2113 2584 
Q 1688 2584 1439 2293 
Q 1191 2003 1191 1497 
Q 1191 994 1439 701 
Q 1688 409 2113 409 
Q 2538 409 2786 701 
Q 3034 994 3034 1497 
Q 3034 2003 2786 2293 
Q 2538 2584 2113 2584 
z
M 3366 4563 
L 3366 3988 
Q 3128 4100 2886 4159 
Q 2644 4219 2406 4219 
Q 1781 4219 1451 3797 
Q 1122 3375 1075 2522 
Q 1259 2794 1537 2939 
Q 1816 3084 2150 3084 
Q 2853 3084 3261 2657 
Q 3669 2231 3669 1497 
Q 3669 778 3244 343 
Q 2819 -91 2113 -91 
Q 1303 -91 875 529 
Q 447 1150 447 2328 
Q 447 3434 972 4092 
Q 1497 4750 2381 4750 
Q 2619 4750 2861 4703 
Q 3103 4656 3366 4563 
z
" transform="scale(0.015625)"/>
       </defs>
       <use xlink:href="#DejaVuSans-36"/>
       <use xlink:href="#DejaVuSans-30" x="63.623047"/>
       <use xlink:href="#DejaVuSans-30" x="127.246094"/>
      </g>
     </g>
    </g>
    <g id="xtick_29">
     <g id="line2d_77">
      <g>
       <use xlink:href="#m89e6c7f887" x="268.055727" y="314.918125" style="stroke: #000000; stroke-width: 0.8"/>
      </g>
     </g>
     <g id="text_33">
      <!-- 800 -->
      <g transform="translate(258.511977 329.516563) scale(0.1 -0.1)">
       <defs>
        <path id="DejaVuSans-38" d="M 2034 2216 
Q 1584 2216 1326 1975 
Q 1069 1734 1069 1313 
Q 1069 891 1326 650 
Q 1584 409 2034 409 
Q 2484 409 2743 651 
Q 3003 894 3003 1313 
Q 3003 1734 2745 1975 
Q 2488 2216 2034 2216 
z
M 1403 2484 
Q 997 2584 770 2862 
Q 544 3141 544 3541 
Q 544 4100 942 4425 
Q 1341 4750 2034 4750 
Q 2731 4750 3128 4425 
Q 3525 4100 3525 3541 
Q 3525 3141 3298 2862 
Q 3072 2584 2669 2484 
Q 3125 2378 3379 2068 
Q 3634 1759 3634 1313 
Q 3634 634 3220 271 
Q 2806 -91 2034 -91 
Q 1263 -91 848 271 
Q 434 634 434 1313 
Q 434 1759 690 2068 
Q 947 2378 1403 2484 
z
M 1172 3481 
Q 1172 3119 1398 2916 
Q 1625 2713 2034 2713 
Q 2441 2713 2670 2916 
Q 2900 3119 2900 3481 
Q 2900 3844 2670 4047 
Q 2441 4250 2034 4250 
Q 1625 4250 1398 4047 
Q 1172 3844 1172 3481 
z
" transform="scale(0.015625)"/>
       </defs>
       <use xlink:href="#DejaVuSans-38"/>
       <use xlink:href="#DejaVuSans-30" x="63.623047"/>
       <use xlink:href="#DejaVuSans-30" x="127.246094"/>
      </g>
     </g>
    </g>
    <g id="xtick_30">
     <g id="line2d_78">
      <g>
       <use xlink:href="#m89e6c7f887" x="319.33215" y="314.918125" style="stroke: #000000; stroke-width: 0.8"/>
      </g>
     </g>
     <g id="text_34">
      <!-- 1000 -->
      <g transform="translate(306.60715 329.516563) scale(0.1 -0.1)">
       <use xlink:href="#DejaVuSans-31"/>
       <use xlink:href="#DejaVuSans-30" x="63.623047"/>
       <use xlink:href="#DejaVuSans-30" x="127.246094"/>
       <use xlink:href="#DejaVuSans-30" x="190.869141"/>
      </g>
     </g>
    </g>
    <g id="text_35">
     <!-- time (days) -->
     <g transform="translate(162.42384 343.194687) scale(0.1 -0.1)">
      <defs>
       <path id="DejaVuSans-79" d="M 2059 -325 
Q 1816 -950 1584 -1140 
Q 1353 -1331 966 -1331 
L 506 -1331 
L 506 -850 
L 844 -850 
Q 1081 -850 1212 -737 
Q 1344 -625 1503 -206 
L 1606 56 
L 191 3500 
L 800 3500 
L 1894 763 
L 2988 3500 
L 3597 3500 
L 2059 -325 
z
" transform="scale(0.015625)"/>
      </defs>
      <use xlink:href="#DejaVuSans-74"/>
      <use xlink:href="#DejaVuSans-69" x="39.208984"/>
      <use xlink:href="#DejaVuSans-6d" x="66.992188"/>
      <use xlink:href="#DejaVuSans-65" x="164.404297"/>
      <use xlink:href="#DejaVuSans-20" x="225.927734"/>
      <use xlink:href="#DejaVuSans-28" x="257.714844"/>
      <use xlink:href="#DejaVuSans-64" x="296.728516"/>
      <use xlink:href="#DejaVuSans-61" x="360.205078"/>
      <use xlink:href="#DejaVuSans-79" x="421.484375"/>
      <use xlink:href="#DejaVuSans-73" x="480.664062"/>
      <use xlink:href="#DejaVuSans-29" x="532.763672"/>
     </g>
    </g>
   </g>
   <g id="matplotlib.axis_10">
    <g id="ytick_17">
     <g id="line2d_79">
      <g>
       <use xlink:href="#m71dc6abe3a" x="50.14375" y="310.92067" style="stroke: #000000; stroke-width: 0.8"/>
      </g>
     </g>
     <g id="text_36">
      <!-- 0.00 -->
      <g transform="translate(20.878125 314.719889) scale(0.1 -0.1)">
       <use xlink:href="#DejaVuSans-30"/>
       <use xlink:href="#DejaVuSans-2e" x="63.623047"/>
       <use xlink:href="#DejaVuSans-30" x="95.410156"/>
       <use xlink:href="#DejaVuSans-30" x="159.033203"/>
      </g>
     </g>
    </g>
    <g id="ytick_18">
     <g id="line2d_80">
      <g>
       <use xlink:href="#m71dc6abe3a" x="50.14375" y="285.493367" style="stroke: #000000; stroke-width: 0.8"/>
      </g>
     </g>
     <g id="text_37">
      <!-- 0.01 -->
      <g transform="translate(20.878125 289.292586) scale(0.1 -0.1)">
       <use xlink:href="#DejaVuSans-30"/>
       <use xlink:href="#DejaVuSans-2e" x="63.623047"/>
       <use xlink:href="#DejaVuSans-30" x="95.410156"/>
       <use xlink:href="#DejaVuSans-31" x="159.033203"/>
      </g>
     </g>
    </g>
    <g id="ytick_19">
     <g id="line2d_81">
      <g>
       <use xlink:href="#m71dc6abe3a" x="50.14375" y="260.066064" style="stroke: #000000; stroke-width: 0.8"/>
      </g>
     </g>
     <g id="text_38">
      <!-- 0.02 -->
      <g transform="translate(20.878125 263.865283) scale(0.1 -0.1)">
       <use xlink:href="#DejaVuSans-30"/>
       <use xlink:href="#DejaVuSans-2e" x="63.623047"/>
       <use xlink:href="#DejaVuSans-30" x="95.410156"/>
       <use xlink:href="#DejaVuSans-32" x="159.033203"/>
      </g>
     </g>
    </g>
    <g id="ytick_20">
     <g id="line2d_82">
      <g>
       <use xlink:href="#m71dc6abe3a" x="50.14375" y="234.638761" style="stroke: #000000; stroke-width: 0.8"/>
      </g>
     </g>
     <g id="text_39">
      <!-- 0.03 -->
      <g transform="translate(20.878125 238.43798) scale(0.1 -0.1)">
       <use xlink:href="#DejaVuSans-30"/>
       <use xlink:href="#DejaVuSans-2e" x="63.623047"/>
       <use xlink:href="#DejaVuSans-30" x="95.410156"/>
       <use xlink:href="#DejaVuSans-33" x="159.033203"/>
      </g>
     </g>
    </g>
    <g id="text_40">
     <!-- Proportional -->
     <g transform="translate(14.798438 301.167344) rotate(-90) scale(0.1 -0.1)">
      <use xlink:href="#DejaVuSans-50"/>
      <use xlink:href="#DejaVuSans-72" x="58.552734"/>
      <use xlink:href="#DejaVuSans-6f" x="97.416016"/>
      <use xlink:href="#DejaVuSans-70" x="158.597656"/>
      <use xlink:href="#DejaVuSans-6f" x="222.074219"/>
      <use xlink:href="#DejaVuSans-72" x="283.255859"/>
      <use xlink:href="#DejaVuSans-74" x="324.369141"/>
      <use xlink:href="#DejaVuSans-69" x="363.578125"/>
      <use xlink:href="#DejaVuSans-6f" x="391.361328"/>
      <use xlink:href="#DejaVuSans-6e" x="452.542969"/>
      <use xlink:href="#DejaVuSans-61" x="515.921875"/>
      <use xlink:href="#DejaVuSans-6c" x="577.201172"/>
     </g>
    </g>
   </g>
   <g id="line2d_83">
    <path d="M 62.950037 310.894557 
L 81.922313 310.733158 
L 90.639305 310.456873 
L 96.536093 310.064996 
L 101.150972 309.539055 
L 104.740321 308.915512 
L 107.816906 308.161862 
L 110.380728 307.322165 
L 112.688167 306.350798 
L 114.739224 305.270319 
L 116.79028 303.950096 
L 118.841337 302.366894 
L 120.892394 300.503078 
L 123.199833 298.0805 
L 126.020037 294.756861 
L 130.634915 289.24707 
L 132.685971 287.18705 
L 134.224264 285.930525 
L 135.762557 284.959278 
L 137.30085 284.279751 
L 138.839142 283.874495 
L 140.377435 283.70801 
L 142.17211 283.754197 
L 144.479549 284.076249 
L 148.068898 284.858309 
L 153.965687 286.136404 
L 158.067801 286.774843 
L 162.426297 287.213381 
L 167.553939 287.492575 
L 174.732638 287.641534 
L 319.075768 289.058538 
L 319.075768 289.058538 
" clip-path="url(#p50279076dc)" style="fill: none; stroke: #1f77b4; stroke-width: 1.5; stroke-linecap: square"/>
   </g>
   <g id="line2d_84">
    <path d="M 62.950037 308.37794 
L 114.995606 308.272306 
L 116.533898 307.288242 
L 117.815809 306.218292 
L 119.097719 304.878421 
L 120.37963 303.213958 
L 121.661541 301.172359 
L 122.943451 298.7075 
L 124.225362 295.785859 
L 125.763654 291.660227 
L 127.301947 286.888022 
L 129.353004 279.690434 
L 136.531703 253.466457 
L 138.069996 249.077696 
L 139.351906 246.001785 
L 140.633817 243.477465 
L 141.915728 241.495023 
L 142.941256 240.277216 
L 143.966784 239.359594 
L 144.992313 238.71219 
L 146.017841 238.302611 
L 147.04337 238.097855 
L 148.32528 238.081088 
L 149.863573 238.335196 
L 151.658248 238.898985 
L 154.222069 239.992742 
L 162.682679 243.829586 
L 166.015646 245.001694 
L 169.348614 245.936361 
L 172.937963 246.715958 
L 177.296459 247.425994 
L 182.936866 248.106992 
L 193.704915 249.132298 
L 242.673898 253.487832 
L 265.491906 255.185878 
L 290.104589 256.7928 
L 316.768329 258.306934 
L 319.075768 258.427997 
L 319.075768 258.427997 
" clip-path="url(#p50279076dc)" style="fill: none; stroke: #ff7f0e; stroke-opacity: 0.5; stroke-width: 1.5; stroke-linecap: square"/>
   </g>
   <g id="line2d_85">
    <path d="M 62.950037 310.918125 
L 113.970077 310.811001 
L 119.354102 310.5865 
L 122.943451 310.240398 
L 126.020037 309.727587 
L 128.84024 309.039258 
L 132.173207 307.987571 
L 139.864671 305.460316 
L 142.941256 304.75982 
L 145.761459 304.342946 
L 148.838045 304.111681 
L 152.427394 304.066843 
L 157.555037 304.244197 
L 176.783695 305.089375 
L 191.91024 305.381726 
L 247.801541 306.123224 
L 306.00028 306.659018 
L 319.075768 306.753915 
L 319.075768 306.753915 
" clip-path="url(#p50279076dc)" style="fill: none; stroke-dasharray: 5.55,2.4; stroke-dashoffset: 0; stroke: #ff0000; stroke-width: 1.5"/>
   </g>
   <g id="line2d_86">
    <path d="M 62.950037 260.066064 
L 319.075768 260.066064 
L 319.075768 260.066064 
" clip-path="url(#p50279076dc)" style="fill: none; stroke-dasharray: 5.55,2.4; stroke-dashoffset: 0; stroke: #808080; stroke-width: 1.5"/>
   </g>
   <g id="patch_27">
    <path d="M 50.14375 314.918125 
L 50.14375 226.918125 
" style="fill: none; stroke: #000000; stroke-width: 0.8; stroke-linejoin: miter; stroke-linecap: square"/>
   </g>
   <g id="patch_28">
    <path d="M 331.882055 314.918125 
L 331.882055 226.918125 
" style="fill: none; stroke: #000000; stroke-width: 0.8; stroke-linejoin: miter; stroke-linecap: square"/>
   </g>
   <g id="patch_29">
    <path d="M 50.14375 314.918125 
L 331.882055 314.918125 
" style="fill: none; stroke: #000000; stroke-width: 0.8; stroke-linejoin: miter; stroke-linecap: square"/>
   </g>
   <g id="patch_30">
    <path d="M 50.14375 226.918125 
L 331.882055 226.918125 
" style="fill: none; stroke: #000000; stroke-width: 0.8; stroke-linejoin: miter; stroke-linecap: square"/>
   </g>
   <g id="legend_5">
    <g id="patch_31">
     <path d="M 57.14375 293.6525 
L 107.64375 293.6525 
Q 109.64375 293.6525 109.64375 291.6525 
L 109.64375 233.918125 
Q 109.64375 231.918125 107.64375 231.918125 
L 57.14375 231.918125 
Q 55.14375 231.918125 55.14375 233.918125 
L 55.14375 291.6525 
Q 55.14375 293.6525 57.14375 293.6525 
z
" style="fill: #ffffff; opacity: 0.8; stroke: #cccccc; stroke-linejoin: miter"/>
    </g>
    <g id="line2d_87">
     <path d="M 59.14375 240.016562 
L 69.14375 240.016562 
L 79.14375 240.016562 
" style="fill: none; stroke: #1f77b4; stroke-width: 1.5; stroke-linecap: square"/>
    </g>
    <g id="text_41">
     <!-- $I$ -->
     <g transform="translate(87.14375 243.516562) scale(0.1 -0.1)">
      <use xlink:href="#DejaVuSans-Oblique-49" transform="translate(0 0.09375)"/>
     </g>
    </g>
    <g id="line2d_88">
     <path d="M 59.14375 254.694687 
L 69.14375 254.694687 
L 79.14375 254.694687 
" style="fill: none; stroke: #ff7f0e; stroke-opacity: 0.5; stroke-width: 1.5; stroke-linecap: square"/>
    </g>
    <g id="text_42">
     <!-- $u$ -->
     <g transform="translate(87.14375 258.194687) scale(0.1 -0.1)">
      <use xlink:href="#DejaVuSans-Oblique-75" transform="translate(0 0.3125)"/>
     </g>
    </g>
    <g id="line2d_89">
     <path d="M 59.14375 269.374375 
L 69.14375 269.374375 
L 79.14375 269.374375 
" style="fill: none; stroke-dasharray: 5.55,2.4; stroke-dashoffset: 0; stroke: #ff0000; stroke-width: 1.5"/>
    </g>
    <g id="text_43">
     <!-- $J(u)$ -->
     <g transform="translate(87.14375 272.874375) scale(0.1 -0.1)">
      <use xlink:href="#DejaVuSans-Oblique-4a" transform="translate(0 0.125)"/>
      <use xlink:href="#DejaVuSans-28" transform="translate(29.492188 0.125)"/>
      <use xlink:href="#DejaVuSans-Oblique-75" transform="translate(68.505859 0.125)"/>
      <use xlink:href="#DejaVuSans-29" transform="translate(131.884766 0.125)"/>
     </g>
    </g>
    <g id="line2d_90">
     <path d="M 59.14375 284.072812 
L 69.14375 284.072812 
L 79.14375 284.072812 
" style="fill: none; stroke-dasharray: 5.55,2.4; stroke-dashoffset: 0; stroke: #808080; stroke-width: 1.5"/>
    </g>
    <g id="text_44">
     <!-- $I_{\max}$ -->
     <g transform="translate(87.14375 287.572812) scale(0.1 -0.1)">
      <use xlink:href="#DejaVuSans-Oblique-49" transform="translate(0 0.09375)"/>
      <use xlink:href="#DejaVuSans-6d" transform="translate(29.492188 -16.3125) scale(0.7)"/>
      <use xlink:href="#DejaVuSans-61" transform="translate(97.680664 -16.3125) scale(0.7)"/>
      <use xlink:href="#DejaVuSans-78" transform="translate(140.576172 -16.3125) scale(0.7)"/>
     </g>
    </g>
   </g>
  </g>
  <g id="axes_6">
   <g id="patch_32">
    <path d="M 348.79375 314.918125 
L 630.532055 314.918125 
L 630.532055 226.918125 
L 348.79375 226.918125 
z
" style="fill: #ffffff"/>
   </g>
   <g id="matplotlib.axis_11">
    <g id="xtick_31">
     <g id="line2d_91">
      <g>
       <use xlink:href="#m89e6c7f887" x="361.600037" y="314.918125" style="stroke: #000000; stroke-width: 0.8"/>
      </g>
     </g>
     <g id="text_45">
      <!-- 0 -->
      <g transform="translate(358.418787 329.516563) scale(0.1 -0.1)">
       <use xlink:href="#DejaVuSans-30"/>
      </g>
     </g>
    </g>
    <g id="xtick_32">
     <g id="line2d_92">
      <g>
       <use xlink:href="#m89e6c7f887" x="412.876459" y="314.918125" style="stroke: #000000; stroke-width: 0.8"/>
      </g>
     </g>
     <g id="text_46">
      <!-- 200 -->
      <g transform="translate(403.332709 329.516563) scale(0.1 -0.1)">
       <use xlink:href="#DejaVuSans-32"/>
       <use xlink:href="#DejaVuSans-30" x="63.623047"/>
       <use xlink:href="#DejaVuSans-30" x="127.246094"/>
      </g>
     </g>
    </g>
    <g id="xtick_33">
     <g id="line2d_93">
      <g>
       <use xlink:href="#m89e6c7f887" x="464.152882" y="314.918125" style="stroke: #000000; stroke-width: 0.8"/>
      </g>
     </g>
     <g id="text_47">
      <!-- 400 -->
      <g transform="translate(454.609132 329.516563) scale(0.1 -0.1)">
       <use xlink:href="#DejaVuSans-34"/>
       <use xlink:href="#DejaVuSans-30" x="63.623047"/>
       <use xlink:href="#DejaVuSans-30" x="127.246094"/>
      </g>
     </g>
    </g>
    <g id="xtick_34">
     <g id="line2d_94">
      <g>
       <use xlink:href="#m89e6c7f887" x="515.429305" y="314.918125" style="stroke: #000000; stroke-width: 0.8"/>
      </g>
     </g>
     <g id="text_48">
      <!-- 600 -->
      <g transform="translate(505.885555 329.516563) scale(0.1 -0.1)">
       <use xlink:href="#DejaVuSans-36"/>
       <use xlink:href="#DejaVuSans-30" x="63.623047"/>
       <use xlink:href="#DejaVuSans-30" x="127.246094"/>
      </g>
     </g>
    </g>
    <g id="xtick_35">
     <g id="line2d_95">
      <g>
       <use xlink:href="#m89e6c7f887" x="566.705727" y="314.918125" style="stroke: #000000; stroke-width: 0.8"/>
      </g>
     </g>
     <g id="text_49">
      <!-- 800 -->
      <g transform="translate(557.161977 329.516563) scale(0.1 -0.1)">
       <use xlink:href="#DejaVuSans-38"/>
       <use xlink:href="#DejaVuSans-30" x="63.623047"/>
       <use xlink:href="#DejaVuSans-30" x="127.246094"/>
      </g>
     </g>
    </g>
    <g id="xtick_36">
     <g id="line2d_96">
      <g>
       <use xlink:href="#m89e6c7f887" x="617.98215" y="314.918125" style="stroke: #000000; stroke-width: 0.8"/>
      </g>
     </g>
     <g id="text_50">
      <!-- 1000 -->
      <g transform="translate(605.25715 329.516563) scale(0.1 -0.1)">
       <use xlink:href="#DejaVuSans-31"/>
       <use xlink:href="#DejaVuSans-30" x="63.623047"/>
       <use xlink:href="#DejaVuSans-30" x="127.246094"/>
       <use xlink:href="#DejaVuSans-30" x="190.869141"/>
      </g>
     </g>
    </g>
    <g id="text_51">
     <!-- time (days) -->
     <g transform="translate(461.07384 343.194687) scale(0.1 -0.1)">
      <use xlink:href="#DejaVuSans-74"/>
      <use xlink:href="#DejaVuSans-69" x="39.208984"/>
      <use xlink:href="#DejaVuSans-6d" x="66.992188"/>
      <use xlink:href="#DejaVuSans-65" x="164.404297"/>
      <use xlink:href="#DejaVuSans-20" x="225.927734"/>
      <use xlink:href="#DejaVuSans-28" x="257.714844"/>
      <use xlink:href="#DejaVuSans-64" x="296.728516"/>
      <use xlink:href="#DejaVuSans-61" x="360.205078"/>
      <use xlink:href="#DejaVuSans-79" x="421.484375"/>
      <use xlink:href="#DejaVuSans-73" x="480.664062"/>
      <use xlink:href="#DejaVuSans-29" x="532.763672"/>
     </g>
    </g>
   </g>
   <g id="matplotlib.axis_12">
    <g id="ytick_21">
     <g id="line2d_97">
      <g>
       <use xlink:href="#m71dc6abe3a" x="348.79375" y="310.92067" style="stroke: #000000; stroke-width: 0.8"/>
      </g>
     </g>
    </g>
    <g id="ytick_22">
     <g id="line2d_98">
      <g>
       <use xlink:href="#m71dc6abe3a" x="348.79375" y="285.493367" style="stroke: #000000; stroke-width: 0.8"/>
      </g>
     </g>
    </g>
    <g id="ytick_23">
     <g id="line2d_99">
      <g>
       <use xlink:href="#m71dc6abe3a" x="348.79375" y="260.066064" style="stroke: #000000; stroke-width: 0.8"/>
      </g>
     </g>
    </g>
    <g id="ytick_24">
     <g id="line2d_100">
      <g>
       <use xlink:href="#m71dc6abe3a" x="348.79375" y="234.638761" style="stroke: #000000; stroke-width: 0.8"/>
      </g>
     </g>
    </g>
   </g>
   <g id="line2d_101">
    <path d="M 361.600037 310.894557 
L 380.572313 310.733158 
L 389.289305 310.456873 
L 395.186093 310.064996 
L 399.800972 309.539055 
L 403.390321 308.915512 
L 406.466906 308.161862 
L 409.030728 307.322165 
L 411.338167 306.350798 
L 413.389224 305.270319 
L 415.44028 303.93587 
L 417.234955 302.513894 
L 419.02963 300.806225 
L 420.824305 298.784038 
L 422.61898 296.423482 
L 424.413654 293.712351 
L 426.464711 290.207707 
L 429.284915 284.872553 
L 432.874264 278.074696 
L 434.668939 275.151245 
L 436.207232 273.100454 
L 437.489142 271.771304 
L 438.771053 270.803474 
L 439.796581 270.281977 
L 440.82211 269.968082 
L 442.10402 269.832586 
L 443.385931 269.933169 
L 444.924224 270.288038 
L 446.97528 271.014437 
L 455.948654 274.530287 
L 459.02524 275.342054 
L 462.101825 275.923073 
L 465.691175 276.365373 
L 470.049671 276.661991 
L 476.202841 276.832742 
L 513.891012 277.500166 
L 558.245118 278.453698 
L 611.572597 279.374925 
L 617.725768 279.467662 
L 617.725768 279.467662 
" clip-path="url(#pfe810ee6b9)" style="fill: none; stroke: #1f77b4; stroke-width: 1.5; stroke-linecap: square"/>
   </g>
   <g id="line2d_102">
    <path d="M 361.600037 308.37794 
L 418.773248 308.279951 
L 420.311541 307.274886 
L 421.593451 306.166645 
L 422.875362 304.750625 
L 424.157272 302.970846 
L 425.439183 300.759663 
L 426.721093 298.055271 
L 428.003004 294.81036 
L 429.284915 291.002418 
L 430.823207 285.714209 
L 432.617882 278.711418 
L 438.771053 253.754781 
L 440.309345 248.897517 
L 441.591256 245.585271 
L 442.616784 243.435219 
L 443.642313 241.719001 
L 444.667841 240.411324 
L 445.69337 239.476318 
L 446.718898 238.872156 
L 447.744427 238.554027 
L 448.769955 238.477189 
L 449.795484 238.598888 
L 451.077394 238.970596 
L 452.615687 239.650643 
L 454.923126 240.955914 
L 463.127354 245.849352 
L 465.947557 247.18597 
L 469.024142 248.388029 
L 472.100728 249.352966 
L 475.690077 250.239699 
L 480.048573 251.072638 
L 486.201744 251.995164 
L 503.379345 254.224794 
L 528.24841 257.348896 
L 545.16963 259.225659 
L 563.629142 261.046291 
L 583.626947 262.79126 
L 604.906662 264.422032 
L 617.725768 265.304797 
L 617.725768 265.304797 
" clip-path="url(#pfe810ee6b9)" style="fill: none; stroke: #ff7f0e; stroke-opacity: 0.5; stroke-width: 1.5; stroke-linecap: square"/>
   </g>
   <g id="line2d_103">
    <path d="M 361.600037 310.918125 
L 412.620077 310.811001 
L 418.260484 310.574575 
L 421.593451 310.235932 
L 424.413654 309.727156 
L 426.721093 309.086635 
L 428.77215 308.305202 
L 431.079589 307.173237 
L 433.643411 305.655223 
L 440.309345 301.55981 
L 442.616784 300.448469 
L 444.924224 299.585197 
L 447.231663 298.980232 
L 449.539102 298.621028 
L 452.102923 298.470851 
L 454.923126 298.53704 
L 458.768858 298.867035 
L 475.433695 300.560497 
L 483.637923 301.0202 
L 498.251703 301.571944 
L 533.888817 302.670384 
L 566.449345 303.435942 
L 605.419427 304.12213 
L 617.725768 304.299267 
L 617.725768 304.299267 
" clip-path="url(#pfe810ee6b9)" style="fill: none; stroke-dasharray: 5.55,2.4; stroke-dashoffset: 0; stroke: #ff0000; stroke-width: 1.5"/>
   </g>
   <g id="line2d_104">
    <path d="M 361.600037 260.066064 
L 617.725768 260.066064 
L 617.725768 260.066064 
" clip-path="url(#pfe810ee6b9)" style="fill: none; stroke-dasharray: 5.55,2.4; stroke-dashoffset: 0; stroke: #808080; stroke-width: 1.5"/>
   </g>
   <g id="patch_33">
    <path d="M 348.79375 314.918125 
L 348.79375 226.918125 
" style="fill: none; stroke: #000000; stroke-width: 0.8; stroke-linejoin: miter; stroke-linecap: square"/>
   </g>
   <g id="patch_34">
    <path d="M 630.532055 314.918125 
L 630.532055 226.918125 
" style="fill: none; stroke: #000000; stroke-width: 0.8; stroke-linejoin: miter; stroke-linecap: square"/>
   </g>
   <g id="patch_35">
    <path d="M 348.79375 314.918125 
L 630.532055 314.918125 
" style="fill: none; stroke: #000000; stroke-width: 0.8; stroke-linejoin: miter; stroke-linecap: square"/>
   </g>
   <g id="patch_36">
    <path d="M 348.79375 226.918125 
L 630.532055 226.918125 
" style="fill: none; stroke: #000000; stroke-width: 0.8; stroke-linejoin: miter; stroke-linecap: square"/>
   </g>
   <g id="legend_6">
    <g id="patch_37">
     <path d="M 355.79375 293.6525 
L 406.29375 293.6525 
Q 408.29375 293.6525 408.29375 291.6525 
L 408.29375 233.918125 
Q 408.29375 231.918125 406.29375 231.918125 
L 355.79375 231.918125 
Q 353.79375 231.918125 353.79375 233.918125 
L 353.79375 291.6525 
Q 353.79375 293.6525 355.79375 293.6525 
z
" style="fill: #ffffff; opacity: 0.8; stroke: #cccccc; stroke-linejoin: miter"/>
    </g>
    <g id="line2d_105">
     <path d="M 357.79375 240.016562 
L 367.79375 240.016562 
L 377.79375 240.016562 
" style="fill: none; stroke: #1f77b4; stroke-width: 1.5; stroke-linecap: square"/>
    </g>
    <g id="text_52">
     <!-- $I$ -->
     <g transform="translate(385.79375 243.516562) scale(0.1 -0.1)">
      <use xlink:href="#DejaVuSans-Oblique-49" transform="translate(0 0.09375)"/>
     </g>
    </g>
    <g id="line2d_106">
     <path d="M 357.79375 254.694687 
L 367.79375 254.694687 
L 377.79375 254.694687 
" style="fill: none; stroke: #ff7f0e; stroke-opacity: 0.5; stroke-width: 1.5; stroke-linecap: square"/>
    </g>
    <g id="text_53">
     <!-- $u$ -->
     <g transform="translate(385.79375 258.194687) scale(0.1 -0.1)">
      <use xlink:href="#DejaVuSans-Oblique-75" transform="translate(0 0.3125)"/>
     </g>
    </g>
    <g id="line2d_107">
     <path d="M 357.79375 269.374375 
L 367.79375 269.374375 
L 377.79375 269.374375 
" style="fill: none; stroke-dasharray: 5.55,2.4; stroke-dashoffset: 0; stroke: #ff0000; stroke-width: 1.5"/>
    </g>
    <g id="text_54">
     <!-- $J(u)$ -->
     <g transform="translate(385.79375 272.874375) scale(0.1 -0.1)">
      <use xlink:href="#DejaVuSans-Oblique-4a" transform="translate(0 0.125)"/>
      <use xlink:href="#DejaVuSans-28" transform="translate(29.492188 0.125)"/>
      <use xlink:href="#DejaVuSans-Oblique-75" transform="translate(68.505859 0.125)"/>
      <use xlink:href="#DejaVuSans-29" transform="translate(131.884766 0.125)"/>
     </g>
    </g>
    <g id="line2d_108">
     <path d="M 357.79375 284.072812 
L 367.79375 284.072812 
L 377.79375 284.072812 
" style="fill: none; stroke-dasharray: 5.55,2.4; stroke-dashoffset: 0; stroke: #808080; stroke-width: 1.5"/>
    </g>
    <g id="text_55">
     <!-- $I_{\max}$ -->
     <g transform="translate(385.79375 287.572812) scale(0.1 -0.1)">
      <use xlink:href="#DejaVuSans-Oblique-49" transform="translate(0 0.09375)"/>
      <use xlink:href="#DejaVuSans-6d" transform="translate(29.492188 -16.3125) scale(0.7)"/>
      <use xlink:href="#DejaVuSans-61" transform="translate(97.680664 -16.3125) scale(0.7)"/>
      <use xlink:href="#DejaVuSans-78" transform="translate(140.576172 -16.3125) scale(0.7)"/>
     </g>
    </g>
   </g>
  </g>
 </g>
 <defs>
  <clipPath id="pc77c97c968">
   <rect x="50.14375" y="22.318125" width="281.738305" height="88"/>
  </clipPath>
  <clipPath id="pee8484545e">
   <rect x="348.79375" y="22.318125" width="281.738305" height="88"/>
  </clipPath>
  <clipPath id="p2a0f5544e1">
   <rect x="50.14375" y="124.618125" width="281.738305" height="88"/>
  </clipPath>
  <clipPath id="p3e6489c211">
   <rect x="348.79375" y="124.618125" width="281.738305" height="88"/>
  </clipPath>
  <clipPath id="p50279076dc">
   <rect x="50.14375" y="226.918125" width="281.738305" height="88"/>
  </clipPath>
  <clipPath id="pfe810ee6b9">
   <rect x="348.79375" y="226.918125" width="281.738305" height="88"/>
  </clipPath>
 </defs>
</svg>
